<svg xmlns="http://www.w3.org/2000/svg" viewBox="0 0 47.5 47.5" enable-background="new 0 0 47.5 47.5"><defs><clipPath id="0"><path d="m0 38h38v-38h-38v38"/></clipPath></defs><g transform="matrix(1.25 0 0-1.25 0 47.5)"><g clip-path="url(#0)"><path d="m0 0c0-2.209-1.791-4-4-4h-28c-2.209 0-4 1.791-4 4v28c0 2.209 1.791 4 4 4h28c2.209 0 4-1.791 4-4v-28" fill="#3b88c3" transform="translate(37 5)"/><path d="m0 0c.744.155 1.551.31 2.326.31 3.752 0 6.418-2.977 6.418-6.604 0-5.178-2.852-8.589-8.217-8.589-2.201 0-6.821 1.427-6.821 4.155 0 1.147.961 2.108 2.108 2.108 1.241 0 2.729-1.984 4.806-1.984 2.171 0 3.288 2.109 3.288 4.062 0 1.86-1.055 3.131-2.977 3.131-1.799 0-2.078-1.023-3.66-1.023-1.209 0-1.829.93-1.829 1.457 0 .404.062.713.093 1.055l.776 6.542c.34 2.418.93 2.945 2.418 2.945h7.472c1.427 0 2.263-.836 2.263-1.953 0-2.139-1.611-2.325-2.17-2.325h-5.829l-.465-3.287" fill="#fff" transform="translate(17.389 22.511)"/></g></g></svg>