<svg xmlns="http://www.w3.org/2000/svg" viewBox="0 0 47.5 47.5" enable-background="new 0 0 47.5 47.5"><defs><clipPath id="0"><path d="m0 38h38v-38h-38v38"/></clipPath></defs><g transform="matrix(1.25 0 0-1.25 0 47.5)"><g clip-path="url(#0)"><path d="m0 0c0-2.209-1.791-4-4-4h-28c-2.209 0-4 1.791-4 4v28c0 2.209 1.791 4 4 4h28c2.209 0 4-1.791 4-4v-28" fill="#3b88c3" transform="translate(37 5)"/><path d="m0 0c1.365 0 2.42-.62 2.42-2.046 0-1.427-1.055-2.047-2.233-2.047h-10.356c-1.365 0-2.418.62-2.418 2.047 0 .65.402 1.209.712 1.581 2.574 3.069 5.365 5.861 7.721 9.271.558.806 1.086 1.767 1.086 2.883 0 1.271-.961 2.388-2.233 2.388-3.566 0-1.861-5.02-4.837-5.02-1.488 0-2.264 1.054-2.264 2.263 0 3.907 3.473 7.04 7.287 7.04 3.814 0 6.883-2.511 6.883-6.449 0-4.309-4.805-8.589-7.441-11.906h5.673" fill="#fff" transform="translate(24.09 12.09)"/></g></g></svg>