<svg xmlns="http://www.w3.org/2000/svg" viewBox="0 0 47.5 47.5" enable-background="new 0 0 47.5 47.5"><defs><clipPath id="0"><path d="m0 38h38v-38h-38v38"/></clipPath></defs><g transform="matrix(1.25 0 0-1.25 0 47.5)"><g clip-path="url(#0)"><path d="m0 0c0-2.209-1.791-4-4-4h-28c-2.209 0-4 1.791-4 4v28c0 2.209 1.791 4 4 4h28c2.209 0 4-1.791 4-4v-28" fill="#3b88c3" transform="translate(37 5)"/><path d="m0 0h-7.937c-1.674 0-2.294 1.085-2.294 2.139 0 1.086.589 2.14 2.294 2.14h11.224c1.582 0 2.233-1.426 2.233-2.233 0-.62-.341-1.271-.713-2.046l-7.69-15.627c-.868-1.737-1.209-2.356-2.604-2.356-1.706 0-2.574 1.302-2.574 2.201 0 .372.093.651.311 1.085l7.75 14.697" fill="#fff" transform="translate(21.357 25.797)"/></g></g></svg>