<svg xmlns="http://www.w3.org/2000/svg" viewBox="0 0 47.5 47.5" enable-background="new 0 0 47.5 47.5"><defs><clipPath id="0"><path d="m0 38h38v-38h-38v38"/></clipPath></defs><g transform="matrix(1.25 0 0-1.25 0 47.5)"><g clip-path="url(#0)"><path d="m0 0c0-2.209-1.791-4-4-4h-28c-2.209 0-4 1.791-4 4v28c0 2.209 1.791 4 4 4h28c2.209 0 4-1.791 4-4v-28" fill="#3b88c3" transform="translate(37 5)"/><path d="m0 0c0 2.356-.217 7.193-3.379 7.193-3.163 0-3.38-4.837-3.38-7.193 0-2.201.217-7.193 3.38-7.193 3.162 0 3.379 4.992 3.379 7.193m-11.596 0c0 5.05 1.954 11.41 8.217 11.41 6.264 0 8.217-6.356 8.217-11.41 0-5.05-1.953-11.41-8.217-11.41-6.263 0-8.217 6.356-8.217 11.41" fill="#fff" transform="translate(22.381 19.04)"/></g></g></svg>