<svg xmlns="http://www.w3.org/2000/svg" viewBox="0 0 47.5 47.5" enable-background="new 0 0 47.5 47.5"><defs><clipPath id="0"><path d="m0 38h38v-38h-38v38"/></clipPath></defs><g transform="matrix(1.25 0 0-1.25 0 47.5)"><g clip-path="url(#0)"><path d="m0 0c0-2.209-1.791-4-4-4h-28c-2.209 0-4 1.791-4 4v28c0 2.209 1.791 4 4 4h28c2.209 0 4-1.791 4-4v-28" fill="#3b88c3" transform="translate(37 5)"/><path d="m0 0h-.062l-4.186-8.65h4.248v8.65m-7.472-12.743c-1.519 0-2.171 1.022-2.171 1.829 0 .682.248 1.055.435 1.364l6.945 12.589c.682 1.24 1.55 1.798 3.162 1.798 1.799 0 3.566-1.148 3.566-3.969v-9.518h.528c1.209 0 2.17-.807 2.17-2.047 0-1.241-.961-2.046-2.17-2.046h-.528v-2.636c0-1.643-.651-2.418-2.232-2.418-1.582 0-2.233.775-2.233 2.418v2.636h-7.472z" fill="#fff" transform="translate(19.242 25.611)"/></g></g></svg>