<svg xmlns="http://www.w3.org/2000/svg" viewBox="0 0 47.5 47.5" enable-background="new 0 0 47.5 47.5"><defs><clipPath id="0"><path d="m0 38h38v-38h-38v38"/></clipPath></defs><g transform="matrix(1.25 0 0-1.25 0 47.5)"><g clip-path="url(#0)"><path d="m0 0c-8.836 0-16 7.163-16 16 0 8.836 7.164 16 16 16 8.837 0 16-7.164 16-16 0-8.837-7.163-16-16-16m0 34c-9.941 0-18-8.06-18-18 0-9.941 8.06-18 18-18 9.941 0 18 8.06 18 18 0 9.94-8.06 18-18 18" transform="translate(19 3)"/><path d="m0 0c2.263 0 6.666-.744 6.666-3.473 0-1.116-.776-2.077-1.922-2.077-1.272 0-2.139 1.085-4.744 1.085-3.845 0-5.829-3.256-5.829-7.04 0-3.689 2.02-6.852 5.829-6.852 2.605 0 3.658 1.301 4.929 1.301 1.397 0 2.047-1.394 2.047-2.107 0-2.977-4.682-3.659-6.976-3.659-6.294 0-10.666 4.992-10.666 11.41 0 6.449 4.341 11.41 10.666 11.41" transform="translate(19.723 30.448)"/></g></g></svg>