<svg xmlns="http://www.w3.org/2000/svg" viewBox="0 0 47.5 47.5" enable-background="new 0 0 47.5 47.5"><defs><clipPath id="0"><path d="m0 38h38v-38h-38v38"/></clipPath></defs><g transform="matrix(1.25 0 0-1.25 0 47.5)"><g clip-path="url(#0)"><path d="m0 0c0-2.209-1.791-4-4-4h-28c-2.209 0-4 1.791-4 4v28c0 2.209 1.791 4 4 4h28c2.209 0 4-1.791 4-4v-28" fill="#3b88c3" transform="translate(37 5)"/><path d="m0 0c0-1.954-.836-3.659-2.542-4.744 2.232-1.024 3.782-3.101 3.782-5.55 0-3.721-3.41-6.852-7.813-6.852-4.589 0-7.441 3.379-7.441 5.829 0 1.209 1.271 2.077 2.388 2.077 2.108 0 1.612-3.628 5.115-3.628 1.613 0 2.915 1.24 2.915 2.884 0 4.34-5.271 1.147-5.271 4.806 0 3.255 4.402 1.054 4.402 4.495 0 1.179-.836 2.078-2.232 2.078-2.945 0-2.542-3.039-4.651-3.039-1.271 0-2.02 1.148-2.02 2.295 0 2.418 3.318 5.02 6.759 5.02 4.465 0 6.604-3.256 6.604-5.674" fill="#fff" transform="translate(25.11 24.774)"/></g></g></svg>