<svg xmlns="http://www.w3.org/2000/svg" viewBox="0 0 47.5 47.5" enable-background="new 0 0 47.5 47.5"><defs><clipPath id="0"><path d="m0 38h38v-38h-38v38"/></clipPath></defs><g transform="matrix(1.25 0 0-1.25 0 47.5)"><g clip-path="url(#0)"><path d="m0 0c0-2.209-1.791-4-4-4h-28c-2.209 0-4 1.791-4 4v28c0 2.209 1.791 4 4 4h28c2.209 0 4-1.791 4-4v-28" fill="#3b88c3" transform="translate(37 5)"/><path d="m0 0c0-1.736 1.085-3.225 2.945-3.225 1.768 0 2.946 1.427 2.946 3.225 0 1.644-.992 3.225-2.946 3.225-1.767 0-2.945-1.396-2.945-3.225m-4.837 0c0 4.682 4.744 11.255 7.876 14.17.248.248.62.496.992.744.341.217.682.217.93.217.868 0 2.202-1.148 2.202-2.264 0-.433-.28-.805-.652-1.271-1.24-1.519-3.255-3.503-4.279-4.961l.062-.062c.559.248 1.271.372 1.955.372 3.72 0 6.479-3.286 6.479-6.945 0-4.03-3.194-7.689-7.783-7.689-4.774 0-7.782 3.565-7.782 7.689" fill="#fff" transform="translate(16.06 15.317)"/></g></g></svg>