<svg xmlns="http://www.w3.org/2000/svg" viewBox="0 0 47.5 47.5" enable-background="new 0 0 47.5 47.5"><defs><clipPath id="0"><path d="m0 38h38v-38h-38v38"/></clipPath></defs><g transform="matrix(1.25 0 0-1.25 0 47.5)"><g clip-path="url(#0)"><path d="m0 0c0-2.209-1.791-4-4-4h-28c-2.209 0-4 1.791-4 4v28c0 2.209 1.791 4 4 4h28c2.209 0 4-1.791 4-4v-28" fill="#3b88c3" transform="translate(37 5)"/><path d="m0 0h2.946l.496 3.535h-2.946l-.496-3.535m-2.511 3.535h-2.667c-1.023 0-1.488.744-1.488 1.488 0 .745.465 1.489 1.488 1.489h3.101l.682 4.991c.155 1.117.62 1.489 1.55 1.489.744 0 1.427-.496 1.427-1.241 0-.465 0-.248-.062-.744l-.621-4.495h2.976l.683 4.991c.155 1.117.62 1.489 1.55 1.489.744 0 1.427-.496 1.427-1.241 0-.465 0-.248-.062-.744l-.621-4.495h2.667c1.023 0 1.487-.744 1.487-1.489 0-.744-.464-1.488-1.487-1.488h-3.101l-.496-3.535h2.666c1.024 0 1.489-.744 1.489-1.488 0-.744-.465-1.489-1.489-1.489h-3.099l-.683-4.991c-.155-1.117-.62-1.488-1.55-1.488-.744 0-1.426.496-1.426 1.24 0 .465 0 .248.062.744l.62 4.495h-2.977l-.682-4.991c-.155-1.117-.62-1.488-1.55-1.488-.744 0-1.427.496-1.427 1.24 0 .465 0 .248.062.744l.621 4.495h-2.667c-1.023 0-1.488.745-1.488 1.489 0 .744.465 1.488 1.488 1.488h3.101l.496 3.535z" fill="#fff" transform="translate(17.296 17.271)"/></g></g></svg>