<svg xmlns="http://www.w3.org/2000/svg" viewBox="0 0 47.5 47.5" enable-background="new 0 0 47.5 47.5"><defs><clipPath id="0"><path d="m0 38h38v-38h-38v38"/></clipPath></defs><g transform="matrix(1.25 0 0-1.25 0 47.5)"><g clip-path="url(#0)"><path d="m0 0c0-2.209-1.791-4-4-4h-28c-2.209 0-4 1.791-4 4v28c0 2.209 1.791 4 4 4h28c2.209 0 4-1.791 4-4v-28" fill="#3b88c3" transform="translate(37 5)"/><path d="m0 0h-1.829c-1.488 0-2.109 1.085-2.109 2.139 0 1.086.775 2.14 2.109 2.14h4.402c1.334 0 2.078-.961 2.078-2.201v-17.643c0-1.551-.992-2.418-2.326-2.418-1.333 0-2.325.867-2.325 2.418v15.565" fill="#fff" transform="translate(17.462 25.825)"/></g></g></svg>