<svg xmlns="http://www.w3.org/2000/svg" viewBox="0 0 47.5 47.5" enable-background="new 0 0 47.5 47.5"><defs><clipPath id="0"><path d="m0 38h38v-38h-38v38"/></clipPath></defs><g transform="matrix(1.25 0 0-1.25 0 47.5)"><g clip-path="url(#0)"><path d="m0 0c0 .009.002.018.002.027 0 .169-.023.329-.055.483-.477 3.043-4.01 13.56-4.945 15.424-1 2-3.293 1.722-4 1.015-1-1-1-2.992 0-2.992 1 0 3 .043 4-2.992.79-2.399 1.689-5.979 2.269-8.399-1.6.785-4.157 1.18-6.832 1.18-2.929 0-5.248-.293-6.475-.958-.496.112-1.134.177-1.962.177-.828 0-1.466-.065-1.962-.176-1.227.664-3.546.957-6.476.957-2.674 0-5.231-.395-6.831-1.18.58 2.42 1.479 6 2.269 8.399 1 3.035 3 2.992 4 2.992 1 0 1 1.992 0 2.992-.707.707-3 .985-4-1.015-.932-1.864-4.467-12.38-4.945-15.424-.033-.154-.055-.313-.055-.483 0-.009.002-.018.002-.027-.001-.011-.002-.025-.002-.035h.004c.022-.851.486-1.531 1.058-1.531.046 0 .089.011.133.019.315-2.724 1.153-5.555 1.992-6.394 2.125-2.125 8.5-2.125 10.625 0 1.304 1.303 2.501 5.302 2.973 7.775.38.073.786.131 1.215.131.429 0 .835-.058 1.215-.131.471-2.473 1.669-6.472 2.972-7.775 2.125-2.125 8.5-2.125 10.625 0 .84.839 1.678 3.67 1.993 6.394.044-.008.088-.019.132-.019.573 0 1.037.68 1.059 1.531h.004c0 .01-.002.024-.002.035" fill="#292f33" transform="translate(36.998 16.04)"/><g fill="#55acee"><path d="m0 0c0-1.169-1.105-4.223-2.338-5.454-1.558-1.559-6.233-1.559-7.791 0-.779.779-1.559 2.692-1.559 5.03 0 1.559 3.148 2.125 6.376 2.125 3.187 0 5.312-.531 5.312-1.7" transform="translate(15.875 14.894)"/><path d="m0 0c0-1.169 1.105-4.223 2.338-5.454 1.558-1.559 6.233-1.559 7.791 0 .779.779 1.559 2.692 1.559 5.03 0 1.559-3.148 2.125-6.376 2.125-3.187 0-5.312-.531-5.312-1.7" transform="translate(22.13 14.894)"/></g></g></g></svg>