<svg xmlns="http://www.w3.org/2000/svg" viewBox="0 0 47.5 47.5" enable-background="new 0 0 47.5 47.5"><defs><clipPath id="0"><path d="m0 38h38v-38h-38v38"/></clipPath></defs><g transform="matrix(1.25 0 0-1.25 0 47.5)"><g clip-path="url(#0)"><path d="m0 0c0-9.941-8.06-18-18-18-9.941 0-18 8.06-18 18 0 9.941 8.06 18 18 18 9.941 0 18-8.06 18-18" fill="#dd2e44" transform="translate(37 19)"/><path d="m0 0c0-8.837-7.163-16-16-16-8.837 0-16 7.163-16 16 0 8.837 7.163 16 16 16 8.837 0 16-7.163 16-16" transform="translate(35 19)"/><g fill="#fff"><path d="m0 0c0-1.38-.896-2.5-2-2.5-1.105 0-2 1.12-2 2.5 0 1.38.895 2.5 2 2.5 1.104 0 2-1.12 2-2.5" transform="translate(21 28.501)"/><path d="m0 0l-4.918 8.371v5.371c.371-.326.755-.679 1.127-1.044l.925-2.774c.139-.419.529-.684.948-.684.105 0 .211.017.316.052.524.175.807.741.632 1.265l-1 3c-.049.147-.132.281-.241.39-1.502 1.503-3.538 3.293-4.707 3.293h-2c-1.21 0-2.644-1.702-3.683-3.223l-3.764-1.882c-.494-.247-.695-.848-.447-1.342.247-.494.846-.695 1.341-.447l4 2c.155.077.288.195.385.339.202.303.421.606.643.893l1.1-3.852-3.819-2.183c-.467-.268-.756-.765-.756-1.303v-7c0-.828.671-1.5 1.5-1.5.829 0 1.5.672 1.5 1.5v6.13l3.207 1.833 5.125-8.723c.279-.475.78-.74 1.294-.74.259 0 .521.067.759.207.714.419.953 1.339.533 2.053" transform="translate(26.918 8.76)"/></g><path d="m 0,0 -24,24 1.768,1.768 24,-24 L 0,0 Z" fill="#dd2e44" transform="translate(30.12 6.116)"/></g></g></svg>