<svg xmlns="http://www.w3.org/2000/svg" viewBox="0 0 47.5 47.5" enable-background="new 0 0 47.5 47.5" xmlns:xlink="http://www.w3.org/1999/xlink"><defs><path id="1" d="m0 0c0-.552-.447-1-1-1h-6c-.553 0-1 .448-1 1 0 .552.447 1 1 1h6c.553 0 1-.448 1-1" fill="#66757f"/><clipPath id="0"><path d="m0 38h38v-38h-38v38"/></clipPath></defs><g transform="matrix(1.25 0 0-1.25 0 47.5)"><g clip-path="url(#0)"><path d="m0 0h-28c-2.209 0-4-1.791-4-4v-2c0-2.209 1.791-4 4-4v-9c0-2.209 1.791-4 4-4h20c2.209 0 4 1.791 4 4v9c2.209 0 4 1.791 4 4v2c0 2.209-1.791 4-4 4" fill="#292f33" transform="translate(33 24)"/><path d="m0 0c0-1.104-.896-2-2-2h-20c-1.104 0-2 .896-2 2v13c0 1.104.896 2 2 2h20c1.104 0 2-.896 2-2v-13" fill="#ccd6dd" transform="translate(31 22)"/><path d="m0 0c0-.552-.447-1-1-1h-8c-.552 0-1 .448-1 1v10c0 .552.448 1 1 1h8c.553 0 1-.448 1-1v-10" fill="#55acee" transform="translate(19 24)"/><path d="m0 0c0-1.104-.896-2-2-2h-20c-1.104 0-2 .896-2 2v11c0 1.104.896 2 2 2h20c1.104 0 2-.896 2-2v-11" fill="#ccd6dd" transform="translate(31 5)"/><use transform="translate(29 33)" xlink:href="#1"/><use transform="translate(29 29)" xlink:href="#1"/><use transform="translate(29 25)" xlink:href="#1"/><g fill="#99aab5"><path d="m0 0c0-.553-.448-1-1-1-.552 0-1 .447-1 1v4c0 .553.448 1 1 1 .552 0 1-.447 1-1v-4" transform="translate(15 17)"/><path d="m0 0c0-.553-.447-1-1-1-.553 0-1 .447-1 1v4c0 .553.447 1 1 1 .553 0 1-.447 1-1v-4" transform="translate(25 17)"/></g></g></g></svg>