<svg xmlns="http://www.w3.org/2000/svg" viewBox="0 0 47.5 47.5" enable-background="new 0 0 47.5 47.5" xmlns:xlink="http://www.w3.org/1999/xlink"><defs><path id="1" d="m0 0c0-1.104-.896-2-2-2-1.104 0-2 .896-2 2 0 1.104.896 2 2 2 1.104 0 2-.896 2-2" fill="#2a6797"/><clipPath id="0"><path d="m0 38h38v-38h-38v38"/></clipPath></defs><g transform="matrix(1.25 0 0-1.25 0 47.5)"><g clip-path="url(#0)"><path d="m0 0c-9.941 0-18-6.268-18-14 0-4.368 2.574-8.268 6.604-10.835-.524-2.309-1.745-5.734-4.604-9.165 5.758.96 9.439 3.761 11.716 6.416 1.376-.262 2.805-.416 4.284-.416 9.941 0 18 6.268 18 14 0 7.732-8.06 14-18 14" fill="#bdddf4" transform="translate(19 36)"/><use transform="translate(21 22)" xlink:href="#1"/><use transform="translate(29 22)" xlink:href="#1"/><use transform="translate(13 22)" xlink:href="#1"/></g></g></svg>