<svg xmlns="http://www.w3.org/2000/svg" viewBox="0 0 47.5 47.5" enable-background="new 0 0 47.5 47.5"><defs><clipPath id="0"><path d="m0 38h38v-38h-38v38"/></clipPath></defs><g transform="matrix(1.25 0 0-1.25 0 47.5)"><g clip-path="url(#0)"><path d="m0 0c0-5.522-8.06-10-18-10-9.941 0-18 4.478-18 10 0 5.522 8.06 10 18 10 9.941 0 18-4.478 18-10" fill="#939598" transform="translate(37 14)"/><path d="m0 0c0-5.522-8.06-10-18-10-9.941 0-18 4.478-18 10 0 5.522 8.06 10 18 10 9.941 0 18-4.478 18-10" fill="#f1f2f2" transform="translate(37 16)"/><path d="m0 0c0-4.202-6.626-7.611-14.8-7.611-8.174 0-14.8 3.409-14.8 7.611 0 4.203 6.626 7.611 14.8 7.611 8.174 0 14.8-3.408 14.8-7.611" fill="#f4900c" transform="translate(33.8 16.389)"/><path d="m0 0c-3.75 0-10 2.063-10 5.5 0 4.125 3.828 8.938 10 8.938 6.172 0 10-5.5 10-8.938 0-3.437-5.625-5.5-10-5.5" fill="#eee" transform="translate(14 13)"/><g fill="#ccd6dd"><path d="m0 0c-.345.14-.511.534-.37.879.141.344.535.51.879.37l1.249-.509c.345-.14.51-.533.37-.879-.141-.345-.534-.511-.879-.37l-1.249.509" transform="translate(5.64 18.18)"/><path d="m0 0c-.307-.211-.727-.133-.937.175-.21.307-.132.727.174.937l1.114.763c.306.21.726.132.937-.175.21-.307.131-.727-.176-.938l-1.112-.762" transform="translate(9.344 21.612)"/><path d="m0 0c-.307-.211-.727-.133-.937.175-.21.306-.132.727.174.937l1.114.763c.306.21.726.132.937-.175.21-.307.131-.727-.176-.937l-1.112-.763" transform="translate(18.344 16.612)"/><path d="m0 0c-.512.208-.758.792-.549 1.304.209.51.793.757 1.304.549l1.852-.756c.511-.208.757-.791.549-1.303-.208-.511-.792-.757-1.303-.548l-1.853.754" transform="translate(12.696 18.453)"/><path d="m0 0c-.346.14-.512.534-.37.879.14.344.534.51.878.37l1.25-.509c.344-.14.51-.533.369-.879-.141-.344-.533-.51-.879-.37l-1.248.509" transform="translate(17.641 22.18)"/><path d="m0 0c.348.133.738-.042.871-.391.131-.346-.044-.737-.392-.868l-1.261-.48c-.346-.133-.736.042-.868.39-.134.349.041.738.39.871l1.26.478" transform="translate(11.907 16.418)"/></g><g fill="#ffd983"><path d="m0 0c0-1.104-.896-2-2-2h-1c-1.104 0-2 .896-2 2 0 1.104.896 2 2 2h1c1.104 0 2-.896 2-2" transform="translate(31 18)"/><path d="m0 0c0-.828-.672-1.5-1.5-1.5h-1c-.828 0-1.5.672-1.5 1.5 0 .828.672 1.5 1.5 1.5h1c.828 0 1.5-.672 1.5-1.5" transform="translate(28 13.5)"/><path d="m0 0c0-.553-.447-1-1-1h-1c-.553 0-1 .447-1 1 0 .553.447 1 1 1h1c.553 0 1-.447 1-1" transform="translate(22 11)"/></g></g></g></svg>