<svg xmlns="http://www.w3.org/2000/svg" viewBox="0 0 47.5 47.5" enable-background="new 0 0 47.5 47.5"><defs><clipPath id="0"><path d="m0 38h38v-38h-38v38"/></clipPath></defs><g transform="matrix(1.25 0 0-1.25 0 47.5)"><g clip-path="url(#0)"><path d="m0 0c1.166-1.166 3.02-1.221 4.121-.121 1.1 1.1 1.045 2.955-.121 4.121l-21.758 21.758c-1.166 1.166-3.02 1.221-4.121.121-1.1-1.1-1.045-2.955.121-4.121l21.758-21.758" fill="#f4900c" transform="translate(30.879 3.121)"/><path d="m0 0c0 0-6 3-11-2l-7-7c0 0-1 1-2 0l-1-1c0 0-1-1 0-2l4-4c0 0 1-1 2 0l1 1c0 0 1 1 0 2l-.078.078c.77.743 1.923 1.5 3.078.922l4 4c0 0-1 3 1 5 2 2 3 2 5 2 2 0 1 1 1 1" fill="#66757f" transform="translate(23 34)"/></g></g></svg>