<svg xmlns="http://www.w3.org/2000/svg" viewBox="0 0 47.5 47.5" enable-background="new 0 0 47.5 47.5"><defs><clipPath id="0"><path d="m0 38h38v-38h-38v38"/></clipPath></defs><g transform="matrix(1.25 0 0-1.25 0 47.5)"><g clip-path="url(#0)"><path d="m0 0c-1.245 6.819-5.992 11.903-11.672 11.903-5.68 0-10.427-5.084-11.671-11.903-1.3-.144-2.329-1.857-2.329-3.973 0-2.209 1.119-4 2.5-4 .003 0 .006.001.009.001 1.482-6.361 6.06-11 11.491-11 5.428 0 10.01 5 11.491 11h.009c1.381 0 2.5 1.791 2.5 4 0 2.116-1.029 3.829-2.328 3.973" fill="#d99e82" transform="translate(30.672 21.973)"/><g fill="#662113"><path d="m0 0c-.552 0-1 .447-1 1v2c0 .552.448 1 1 1 .552 0 1-.448 1-1v-2c0-.553-.448-1-1-1" transform="translate(14 16)"/><path d="m0 0c-.553 0-1 .447-1 1v2c0 .552.447 1 1 1 .553 0 1-.448 1-1v-2c0-.553-.447-1-1-1" transform="translate(24 16)"/></g><g fill="#c1694f"><path d="m0 0c-2.21 0-4.357 1.061-4.447 1.105-.493.248-.693.846-.448 1.34.246.495.845.695 1.341.451.018-.01 1.824-.896 3.554-.896 1.73 0 3.536.886 3.554.896.498.244 1.095.043 1.341-.451.246-.494.045-1.092-.448-1.34-.091-.044-2.236-1.105-4.447-1.105" transform="translate(19 7)"/><path d="m0 0h-2c-.552 0-1 .447-1 1 0 .553.448 1 1 1h2c.553 0 1-.447 1-1 0-.553-.447-1-1-1" transform="translate(20 12)"/></g><path d="m0 0c0 0 10.327-2.685 11.91-7.518.69 1.476 1.09 4.893 1.09 6.719 0 5.545-5.417 9.751-11.375 9.751h-3.25c-5.958 0-11.375-4.206-11.375-9.751 0-1.826.4-5.388 1.089-6.862 1.584 4.833 11.911 7.661 11.911 7.661" fill="#e6e7e8" transform="translate(19 26.05)"/><g fill="#d1d3d4"><path d="m0 0c-2.02 1.611-4.384 2.94-6.649 3.695-.528.176-1.091-.11-1.265-.632-.175-.524.108-1.091.632-1.266 2.405-.801 5.03-2.391 7.04-4.223.121.839.202 1.684.243 2.426" transform="translate(31.966 24.25)"/><path d="m0 0c2.898 2.072 12.518 8.292 23.604 8.377-.627.722-1.36 1.367-2.181 1.916-9.687-.719-17.969-5.545-21.584-7.976.014-.657.066-1.463.161-2.317" transform="translate(6.169 22.615)"/><path d="m0 0c-.041.005-.077.024-.12.024-4.095 0-8.238-1.026-12.318-3.045.201.061.318.093.318.093 0 0 1.178-.307 2.797-.898 3.071 1.222 6.157 1.85 9.203 1.85.293 0 .551.131.733.332-.147.571-.355 1.119-.613 1.644" transform="translate(31.12 28.976)"/><path d="m0 0c3.578 2.291 10.386 5.806 17.956 7.125-1.15.338-2.362.53-3.602.53h-2.549c-3.935-1.243-7.442-2.873-10.143-4.36-.774-.98-1.35-2.089-1.662-3.295" transform="translate(6.271 27.345)"/></g></g></g></svg>