<svg xmlns="http://www.w3.org/2000/svg" viewBox="0 0 47.5 47.5" enable-background="new 0 0 47.5 47.5" xmlns:xlink="http://www.w3.org/1999/xlink"><defs><path id="2" d="m0 0c-2.89 0-6 .899-6 2.875 0 .553.448 1 1 1 .527 0 .959-.408.997-.925.231-.302 1.611-.95 4-.95 2.392 0 3.772.648 4 .95.038.517.47.925.997.925.553 0 1-.447 1-1 0-1.976-3.11-2.875-6-2.875" fill="#c1694f"/><clipPath id="0"><path d="m0 38h38v-38h-38v38"/></clipPath><clipPath id="1"><path d="m19 29c-2.209 0-3 .209-3-2l-1-22c0-2.209 1.791-3 4-3 2.209 0 4 .791 4 3l-1 22c0 1.857-.559 2-2.051 2-.282 0-.598-.005-.949-.005"/></clipPath></defs><g transform="matrix(1.25 0 0-1.25 0 47.5)"><g clip-path="url(#0)"><path d="m0 0c-1.17-.638-2.157-1.403-2.939-2.217-.783.814-1.77 1.579-2.94 2.217-5.697 3.104-9.911.524-9.725-.759.187-1.285 3.666 1.844 7.717-3.467 1.596-2.093 2.886-3.561 3.973-4.175.28-.213.575-.315.887-.319.03-.003.058 0 .088-.001.029.001.057-.002.086.001.313.004.608.106.887.318 1.088.615 2.377 2.083 3.974 4.176 4.051 5.311 7.529 2.182 7.717 3.467.185 1.283-4.03 3.863-9.725.759" fill="#3e721d" transform="translate(21.94 34.53)"/><path d="m0 0c0-2.209-1.791-3-4-3-2.209 0-4 .791-4 3l1 22c0 2.209.791 2 3 2 2.209 0 3 .209 3-2l1-22" fill="#d99e82" transform="translate(23 5)"/></g><g clip-path="url(#1)"><use transform="translate(19 4)" xlink:href="#2"/><use transform="translate(19 9)" xlink:href="#2"/><use transform="translate(19 14)" xlink:href="#2"/><use transform="translate(19 19)" xlink:href="#2"/><use transform="translate(19 24)" xlink:href="#2"/></g><g clip-path="url(#0)"><path d="m0 0c-4.445.635-8.193-.891-8.878-3.227-.043-.018-.08-.041-.122-.06-.042.019-.08.042-.122.06-.685 2.336-4.433 3.862-8.878 3.227-7-1-9-6-8-7 1-1 2 4 9 2 .021-.006.039-.011.059-.017-.161-.11-.322-.218-.481-.338-5.654-4.246-5-9.591-3.643-9.987 1.358-.395-.172 4.469 6.926 6.086 2.22.506 3.961.997 5.139 1.578 1.178-.581 2.919-1.072 5.139-1.578 7.098-1.617 5.568-6.481 6.925-6.086 1.358.396 2.01 5.741-3.642 9.987-.159.12-.32.228-.482.338.021.006.039.011.06.017 7 2 8-3 9-2 1 1-1 6-8 7" fill="#5c913b" transform="translate(28 33)"/></g></g></svg>