<svg xmlns="http://www.w3.org/2000/svg" viewBox="0 0 47.5 47.5" enable-background="new 0 0 47.5 47.5"><defs><clipPath id="0"><path d="m0 38h38v-38h-38v38"/></clipPath></defs><g transform="matrix(1.25 0 0-1.25 0 47.5)"><g clip-path="url(#0)"><path d="m0 0c0-2.209-1.791-4-4-4h-28c-2.209 0-4 1.791-4 4v18c0 2.209 1.791 4 4 4h28c2.209 0 4-1.791 4-4v-18" fill="#dd2e44" transform="translate(37 10)"/><g fill="#eee"><path d="m0 0h34.891c.343.591.554 1.268.554 2h-36c0-.732.212-1.409.555-2" transform="translate(1.555 8)"/><path d="m37 12h-36v2h36v-2"/><path d="m37 16h-36v2h36v-2"/><path d="m37 20h-36v2h36v-2"/><path d="m37 24h-36v2h36v-2"/><path d="m0 0c-.343-.59-.555-1.268-.555-2h36c0 .732-.211 1.41-.554 2h-34.891" transform="translate(1.555 30)"/></g><path d="m0 0h-14c-2.209 0-4-1.791-4-4v-10h18v14" fill="#3b88c3" transform="translate(19 32)"/><g fill="#bbddf5"><path d="m15 28h2v2h-2v-2"/><path d="m13 26h2v2h-2v-2"/><path d="m17 24h-2v2h2v-2"/><path d="m13 22h2v2h-2v-2"/><path d="m13 28h-2v2h2v-2"/><path d="m13 24h-2v2h2v-2"/><path d="m9 22h2v2h-2v-2"/><path d="m11 26h-2v2h2v-2"/><path d="m7 28h2v2h-2v-2"/><path d="m5 26h2v2h-2v-2"/><path d="m7 24h2v2h-2v-2"/><path d="m5 22h2v2h-2v-2"/><path d="m3 30h2v-2h-2v2"/><path d="m3 24h2v2h-2v-2"/><path d="m17 20h-2v2h2v-2"/><path d="m13 20h-2v2h2v-2"/><path d="m7 20h2v2h-2v-2"/><path d="m3 20h2v2h-2v-2"/></g></g></g></svg>