<svg xmlns="http://www.w3.org/2000/svg" viewBox="0 0 47.5 47.5" enable-background="new 0 0 47.5 47.5"><defs><clipPath id="0"><path d="m0 38h38v-38h-38v38"/></clipPath></defs><g transform="matrix(1.25 0 0-1.25 0 47.5)"><g clip-path="url(#0)"><path d="m0 0c0 0-.717 3.641.298 10.874 1.4-.455 2.814-.874 3.272-.874.999 0 4 1 4 2 0 1-1 2-1 2l2 1c1 1 0 7-4 7-7 0-9.57-7-9.57-7l.007-.011h-.007c0 0-6-10.989-6-20 .065 0-1-5 0-6 1-1 5-1 5-1 10-3.989 28.57-.989 28.57 8.01 0 13-19.57 10-22.57 4" fill="#d99e82" transform="translate(13.43 15)"/><path d="m0 0c-3.178 0-5.793 1.283-5.941 1.357-.494.247-.693.846-.448 1.34.246.494.845.696 1.341.45.042-.02 4.24-2.06 7.956-.64 2.055.785 3.625 2.507 4.669 5.116.205.515.791.763 1.3.558.513-.205.763-.787.558-1.3-1.263-3.155-3.223-5.258-5.828-6.248-1.214-.462-2.449-.633-3.607-.633" fill="#bf6952" transform="translate(20.494 4.748)"/></g></g></svg>