<svg xmlns="http://www.w3.org/2000/svg" viewBox="0 0 47.5 47.5" enable-background="new 0 0 47.5 47.5"><defs><clipPath id="0"><path d="m0 38h38v-38h-38v38"/></clipPath></defs><g transform="matrix(1.25 0 0-1.25 0 47.5)"><g clip-path="url(#0)"><path d="m0 0c0-2.209-1.791-4-4-4h-28c-2.209 0-4 1.791-4 4v28c0 2.209 1.791 4 4 4h28c2.209 0 4-1.791 4-4v-28" fill="#3b88c3" transform="translate(37 5)"/><g fill="#fff"><path d="m0 0c0 .85.544 1.326 1.275 1.326.323 0 .85-.255 1.071-.561l5.388-7.191h.034v6.426c0 .85.544 1.326 1.275 1.326.731 0 1.275-.476 1.275-1.326v-9.655c0-.85-.544-1.325-1.275-1.325-.323 0-.833.254-1.071.56l-5.389 7.106h-.033v-6.341c0-.85-.544-1.325-1.275-1.325-.731 0-1.275.475-1.275 1.325v9.655" transform="translate(2.527 23.879)"/><path d="m0 0c0 .85.425 1.479 1.326 1.479h4.215c.816 0 1.207-.578 1.207-1.173 0-.578-.408-1.173-1.207-1.173h-2.992v-2.482h2.788c.833 0 1.241-.578 1.241-1.172 0-.579-.425-1.173-1.241-1.173h-2.788v-2.584h3.145c.816 0 1.207-.578 1.207-1.173 0-.578-.407-1.173-1.207-1.173h-4.385c-.748 0-1.309.51-1.309 1.274v9.35" transform="translate(13.594 23.624)"/><path d="m0 0c-.051.221-.068.34-.068.578 0 .544.459 1.122 1.207 1.122.816 0 1.207-.476 1.359-1.224l1.445-7.224h.035l2.209 7.445c.188.612.698 1 1.327 1 .629 0 1.138-.391 1.326-1l2.209-7.445h.033l1.445 7.224c.153.748.545 1.224 1.36 1.224.748 0 1.207-.578 1.207-1.122 0-.238-.016-.357-.069-.578l-2.158-9.281c-.17-.714-.73-1.325-1.681-1.325-.834 0-1.481.543-1.684 1.24l-1.973 6.561h-.033l-1.972-6.561c-.204-.697-.85-1.24-1.682-1.24-.952 0-1.514.611-1.684 1.325l-2.158 9.281" transform="translate(20.904 23.505)"/></g></g></g></svg>