<svg xmlns="http://www.w3.org/2000/svg" viewBox="0 0 47.5 47.5" enable-background="new 0 0 47.5 47.5"><defs><clipPath id="0"><path d="m0 38h38v-38h-38v38"/></clipPath></defs><g transform="matrix(1.25 0 0-1.25 0 47.5)"><g clip-path="url(#0)"><g fill="#9aaab4"><path d="m0 0c.389-.389.389-1.025 0-1.414-.389-.389-1.025-.389-1.414 0l-8.485 8.486c-.389.388-.389 1.025 0 1.414.388.389 1.025.389 1.414 0l8.485-8.486" transform="translate(12.858 20.736)"/><path d="m0 0c.389-.389.389-1.025 0-1.414-.389-.389-1.025-.389-1.414 0l-8.486 8.486c-.389.388-.389 1.025 0 1.414.388.389 1.025.389 1.414 0l8.486-8.486" transform="translate(19.93 27.807)"/></g><path d="m0 0c0 4.966-2.56 8.581-4.562 10.65.899 1.533.705 3.53-.61 4.844l-1.099 1.099c.352 1.332.022 2.806-1.022 3.85l-4.949 4.95c.78.781.78 2.047 0 2.828-.781.781-2.049.781-2.829.001l-2.826-2.826c-.001-.001-.002-.002-.003-.003l-4.243-4.243-2.828-2.828c-.781-.781-.781-2.047 0-2.828.782-.781 2.047-.781 2.828 0l4.951-4.95c1.044-1.044 2.518-1.373 3.849-1.022l1.101-1.1c1.318-1.318 3.323-1.51 4.857-.602 1.484-1.546 3.385-4.224 3.385-7.82h4" fill="#292f33" transform="translate(35 1)"/></g></g></svg>