<svg xmlns="http://www.w3.org/2000/svg" viewBox="0 0 47.5 47.5" enable-background="new 0 0 47.5 47.5"><defs><clipPath id="0"><path d="m0 38h38v-38h-38v38"/></clipPath></defs><g transform="matrix(1.25 0 0-1.25 0 47.5)"><g clip-path="url(#0)"><path d="m0 0c0 0 4.687-1.807 6.761-.601 2.074 1.205 2.509 2.847 1.302 4.92-1.208 2.072-4.487 2.941-4.656 5.618 0 0-.264-4.319 1.977-5.787 3.172-2.08-.445-4.387-4.207-3.915-3.765.472-1.177-.235-1.177-.235" fill="#292f33" transform="translate(28.08 23.335)"/><g fill="#d99e82"><path d="m0 0c-.736-2.285-.349-6.01.794-6.378 1.141-.367 2.877 1.609 1.897 2.993-1.897 2.677-.778 4.546 1.504 3.811 2.284-.735 8.686 1.146 10.194 1.922 1.508.772-4.56.79-7.211.383-2.651-.407-4.116-.038-5.302-.815-1-.658-1.876-1.916-1.876-1.916" transform="translate(3.688 14.287)"/><path d="m0 0c1.38.986.593 3.799 2.96 3.408 2.366-.395 3.77-1.507 3.943 1.775.022.381.52-.013 1.317.614 8.218 6.462 1.05 6.288 1.05 6.288-2.762-1.974-5.698-5.114-4.733-6.509.507-.731-2.562-.79-3.745-.592-1.183.197-2.762-1.974-2.959-3.157-.196-1.181.788-2.812 2.167-1.827" transform="translate(18.792 6.856)"/></g><path d="m0 0c.006 1.129-1.757 4.602-5.294 4.602-3.6 0-5.998-1.199-8.397-1.199-2.399 0-3.939-1.449-5.139 3.348-.919 3.68-3.401 5.201-7 4 0 0-3.455 2.248-2.255 1.048.494-.494.706-.994.762-1.459-2.103-1.257-1.131-3.416-2.253-4.539-.848-.847-1.199-1.199-1.199-2.398 0-.991 1.629-1.15 2.875-.505.723 1.704.353 1.057 1.473 1.707 1.029.017 1.94.151 1.94 1.196 0 0 1.2 0 1.2-2.398 0-1.144-1.083-2.292.893-5.513 0 0 1.19-1.911.836-2.581-1.254-2.371-1.533-5.04-2.507-5.743-.977-.698.419-2.648.419-2.648 1.395-1.952 4.742-2.508 5.718-1.812.976.699.278 1.675-1.395 1.955-1.673.275-5.02.833-3.07 2.227 1.952 1.397 3.287 1.79 3.563 3.463.079.469 2 1 2 1 0 0 2-1 4.337.055 2.043.922 4.481 2.09 6.722.414l.069.039c-.713-1.535-.968-2.893-.275-3.477.683-.573-2.265-1.434-3.46-1.553-1.193-.123-2.147-2.628-2.027-3.821.121-1.193 1.748-2.7 2.82-1.387 1.074 1.314-2.107 3.162 1.714 4.254 2.307.66 4.03-.466 3.341 2.746-.081.374.068.786.693 1.586 3.284 4.216 2.888 6.263 2.896 7.393" fill="#c1694f" transform="translate(31.829 20.249)"/><path d="m0 0c2.399 2.399 4.428 1.897 6.323 0 2.4-2.398 1.334-4.922 4.147-6.82 1.26-.85-2.74-.85-3.599 3.599-.509 2.633-3.383 3.898-6.871 3.221" fill="#292f33" transform="translate(5.27 30.671)"/></g></g></svg>