<svg xmlns="http://www.w3.org/2000/svg" viewBox="0 0 47.5 47.5" enable-background="new 0 0 47.5 47.5"><defs><clipPath id="0"><path d="m0 38h38v-38h-38v38"/></clipPath></defs><g transform="matrix(1.25 0 0-1.25 0 47.5)"><g clip-path="url(#0)"><path d="m0 0c0-2.209-1.791-4-4-4h-28c-2.209 0-4 1.791-4 4v28c0 2.209 1.791 4 4 4h28c2.209 0 4-1.791 4-4v-28" fill="#dd2e44" transform="translate(37 5)"/><path d="m0 0c.312 0 .599-.13.807-.312 1.066-1.144 2.834-2.522 4.263-3.224.391-.182.624-.494.624-.859 0-.181-.051-.363-.181-.545-.208-.338-.521-.52-.884-.52-.156 0-.338.052-.521.13-1.69.858-3.639 2.444-4.914 3.9-.13.157-.208.364-.208.573 0 .259.13.545.442.701.182.104.39.156.572.156m-4.784 13.703c-.442 0-.702.338-.702.858 0 .546.26.832.702.832h3.64v1.794c0 .468.365.702.911.702.545 0 .858-.234.858-.702v-1.794h4.653c.468 0 .729-.286.729-.806 0-.546-.261-.884-.729-.884h-4c1.3-1.742 3.199-3.12 4.941-4.082.286-.156.441-.468.441-.78 0-.182-.052-.39-.155-.546-.183-.338-.494-.468-.78-.468-.182 0-.365.052-.546.156-1.899 1.17-3.614 2.73-4.837 4.81.156-.754.287-1.716.287-2.47v-2.236c0-.442-.339-.702-.858-.702-.546 0-.911.26-.911.702v2.34c0 .754.13 1.612.26 2.34-.936-1.82-2.418-3.354-4-4.394-.182-.13-.39-.208-.572-.208-.234 0-.468.104-.65.364-.104.156-.156.338-.156.494 0 .286.156.546.39.702 1.638.936 3.042 2.366 4.082 3.978h-2.99zm-8.84-8.971c-.442 0-.65.417-.65.885 0 .442.208.884.65.884h16.12c.442 0 .65-.442.65-.884 0-.468-.208-.885-.65-.885h-16.12m3.588-5.564c0-.182-.078-.416-.286-.65-1.118-1.326-2.99-2.938-4.68-3.926-.182-.104-.364-.156-.572-.156-.338 0-.676.156-.884.494-.104.182-.156.338-.156.52 0 .312.182.598.494.78 1.508.858 3.276 2.262 4.264 3.406.208.26.468.39.78.39.182 0 .364-.051.572-.156.286-.156.468-.416.468-.702m-6.396 1.82c-.442 0-.676.39-.676.884 0 .494.234.884.676.884h21.762c.442 0 .677-.39.677-.884 0-.494-.235-.884-.677-.884h-9.75v-4.706c0-1.716-.832-2.314-3.068-2.314-.962 0-1.794.104-2.444.26-.442.104-.728.442-.728.858 0 .103 0 .182.052.286.13.468.468.702.832.702.052 0 .13 0 .208-.026.598-.156 1.222-.26 1.872-.26 1.014 0 1.222.182 1.222.858v4.342h-9.958zm.052 12.715c-.468 0-.728.338-.728.858 0 .546.26.832.728.832h4.42v1.82c0 .468.364.728.91.728.546 0 .858-.26.858-.728v-1.82h3.094c.468 0 .728-.286.728-.806 0-.546-.26-.884-.728-.884h-2.548c.806-1.144 1.872-2.106 2.886-2.756.286-.182.416-.442.416-.702 0-.182-.078-.364-.182-.546-.182-.208-.416-.312-.676-.312-.182 0-.39.078-.598.208-.936.728-2.158 2.132-2.678 3.25.156-.78.286-1.768.286-2.47v-2.262c0-.442-.312-.702-.858-.702-.546 0-.91.26-.91.702v2.262c0 .676.104 1.716.286 2.418-.884-1.846-2.834-3.77-4.446-4.888-.182-.13-.39-.208-.598-.208-.261 0-.52.13-.702.364-.156.182-.208.39-.208.572 0 .286.13.572.39.728 1.742 1.066 3.432 2.574 4.602 4.342h-3.744" fill="#fff" transform="translate(24.486 13.06)"/></g></g></svg>