<svg xmlns="http://www.w3.org/2000/svg" viewBox="0 0 47.5 47.5" enable-background="new 0 0 47.5 47.5" xmlns:xlink="http://www.w3.org/1999/xlink"><defs><clipPath id="0"><path d="m0 38h38v-38h-38v38"/></clipPath></defs><g transform="matrix(1.25 0 0-1.25 0 47.5)"><g clip-path="url(#0)"><path d="m0 0c0-1.104-.896-2-2-2-1.104 0-2 .896-2 2v11c0 1.104.896 2 2 2 1.104 0 2-.896 2-2v-11" fill="#9aaab4" transform="translate(12 10)" id="1"/><use transform="translate(20)" xlink:href="#1"/><path d="m0 0c0-1.104-.896-2-2-2-1.104 0-2 .896-2 2v6c0 1.104.896 2 2 2 1.104 0 2-.896 2-2v-6" fill="#67757f" transform="translate(30 3)" id="2"/><use transform="translate(-16)" xlink:href="#2"/><path d="m0 0c0-2.209-1.791-4-4-4h-12c-2.209 0-4 1.791-4 4v14c0 2.209 1.791 4 4 4h12c2.209 0 4-1.791 4-4v-14" fill="#4289c1" transform="translate(30 19)"/><path d="m24 29h-8v8h8v-8" fill="#e1e8ed"/><path d="m0 0c0-1.104-.896-2-2-2h-2c-1.104 0-2 .896-2 2 0 1.104.896 2 2 2h2c1.104 0 2-.896 2-2" fill="#ccd6dd" transform="translate(12 22)" id="3"/><use transform="translate(22)" xlink:href="#3"/><path d="m0 0c0-1.657-1.343-3-3-3h-14c-1.657 0-3 1.343-3 3 0 1.657 1.343 3 3 3h14c1.657 0 3-1.343 3-3" fill="#5dadec" transform="translate(30 14)"/><path d="m30 8h-20v6h20v-6" fill="#2a6797"/></g></g></svg>