<svg xmlns="http://www.w3.org/2000/svg" viewBox="0 0 47.5 47.5" enable-background="new 0 0 47.5 47.5" xmlns:xlink="http://www.w3.org/1999/xlink"><defs><clipPath id="0"><path d="m0 38h38v-38h-38v38"/></clipPath></defs><g transform="matrix(1.25 0 0-1.25 0 47.5)"><g clip-path="url(#0)"><path d="m0 0c.387.371.733.795 1.02 1.28 1.685 2.853.269 10.292-.592 10.8-.696.411-5.53-1.05-8.246-3.132-2.499 1.497-5.344 2.381-8.375 2.381-3.02 0-5.856-.879-8.349-2.367-2.721 2.075-7.533 3.528-8.227 3.118-.861-.508-2.276-7.947-.592-10.8.278-.471.615-.884.989-1.249-1.156-2.552-1.821-5.342-1.821-8.18 0-9.99 8.01-12.522 18-12.522 9.989 0 18 2.532 18 12.522 0 2.827-.661 5.606-1.807 8.149" fill="#f4abba" transform="translate(35.19 23.671)"/><g fill="#ea596e"><path d="m0 0c-2.166 1.268-4.402 2.08-4.8 1.845-.57-.336-1.083-4.998-.351-8.264 1.272 2.481 3.039 4.681 5.151 6.419" transform="translate(8.398 31.04)"/><path d="m0 0c.732 3.267.219 7.928-.351 8.265-.398.235-2.634-.578-4.8-1.846 2.113-1.737 3.88-3.937 5.151-6.419" transform="translate(34.753 24.616)"/><path d="m0 0c0-4.487-3.097-9.375-10-9.375-6.904 0-10 4.888-10 9.375 0 4.487 3.096 5.625 10 5.625 6.903 0 10-1.138 10-5.625" transform="translate(29 13.875)"/></g><path d="m0 0c0-1.857-.34-2.4-1.5-2.4-1.16 0-1.5.543-1.5 2.4 0 1.856.34 2.399 1.5 2.399 1.16 0 1.5-.543 1.5-2.399" fill="#662113" transform="translate(16 12.4)" id="1"/><use transform="translate(9)" xlink:href="#1"/><path d="m0 0c0-1.104-.896-2-2-2-1.104 0-2 .896-2 2 0 1.104.896 2 2 2 1.104 0 2-.896 2-2" fill="#292f33" transform="translate(10 20)" id="2"/><use transform="translate(22)" xlink:href="#2"/></g></g></svg>