<svg xmlns="http://www.w3.org/2000/svg" viewBox="0 0 47.5 47.5" enable-background="new 0 0 47.5 47.5"><defs><clipPath id="0"><path d="m0 38h38v-38h-38v38"/></clipPath></defs><g transform="matrix(1.25 0 0-1.25 0 47.5)"><g clip-path="url(#0)"><path d="m0 0c0-2.209-1.791-4-4-4h-28c-2.209 0-4 1.791-4 4v28c0 2.209 1.791 4 4 4h28c2.209 0 4-1.791 4-4v-28" fill="#3b88c3" transform="translate(37 5)"/><g fill="#fff"><path d="m0 0c0 .738.504 1.404 1.405 1.404h4.609c.792 0 1.206-.612 1.206-1.242 0-.612-.396-1.243-1.206-1.243h-3.313v-2.628h2.791c.864 0 1.296-.613 1.296-1.224 0-.631-.432-1.261-1.296-1.261h-2.791v-3.925c0-.9-.576-1.405-1.35-1.405-.775 0-1.351.505-1.351 1.405v10.119" transform="translate(2.836 24.416)"/><path d="m0 0h1.854c.991 0 1.675.594 1.675 1.603 0 1.025-.684 1.584-1.675 1.584h-1.854v-3.187m-2.701 4.267c0 .864.486 1.404 1.387 1.404h3.168c2.773 0 4.484-1.242 4.484-4.068 0-1.982-1.495-3.116-3.331-3.404l3.061-3.277c.252-.27.36-.54.36-.792 0-.702-.558-1.387-1.351-1.387-.324 0-.756.126-1.044.469l-3.997 4.843h-.036v-3.907c0-.9-.576-1.405-1.351-1.405-.774 0-1.35.505-1.35 1.405v10.119z" transform="translate(13.529 20.15)"/><path d="m0 0c0 .9.449 1.566 1.404 1.566h4.465c.865 0 1.279-.612 1.279-1.242 0-.612-.433-1.242-1.279-1.242h-3.168v-2.629h2.952c.882 0 1.314-.613 1.314-1.243 0-.612-.449-1.242-1.314-1.242h-2.952v-2.737h3.33c.865 0 1.28-.611 1.28-1.242 0-.613-.434-1.242-1.28-1.242h-4.644c-.793 0-1.387.54-1.387 1.35v9.903" transform="translate(20.477 24.25)"/><path d="m0 0c0 .9.449 1.566 1.404 1.566h4.465c.863 0 1.277-.612 1.277-1.242 0-.612-.431-1.242-1.277-1.242h-3.17v-2.629h2.953c.883 0 1.315-.613 1.315-1.243 0-.612-.449-1.242-1.315-1.242h-2.953v-2.737h3.332c.864 0 1.278-.611 1.278-1.242 0-.613-.432-1.242-1.278-1.242h-4.646c-.791 0-1.385.54-1.385 1.35v9.903" transform="translate(28.451 24.25)"/></g></g></g></svg>