<svg xmlns="http://www.w3.org/2000/svg" viewBox="0 0 47.5 47.5" enable-background="new 0 0 47.5 47.5"><defs><clipPath id="0"><path d="m0 38h38v-38h-38v38"/></clipPath></defs><g transform="matrix(1.25 0 0-1.25 0 47.5)"><g clip-path="url(#0)"><g fill="#642116"><path d="m0 0c0-6.627-5.373-12-12-12-6.627 0-12 5.373-12 12 0 6.628 5.373 12 12 12 6.627 0 12-5.372 12-12" transform="translate(31 17.344)"/><path d="m0 0c0-3.866-3.134-7-7-7-3.866 0-7 3.134-7 7 0 3.866 3.134 7 7 7 3.866 0 7-3.134 7-7" transform="translate(21 29)"/><path d="m0 0c0-6.075 4.925-11 11-11 6.075 0 11 4.925 11 11 0 6.075-4.925 11-11 11-6.075 0-11-4.925-11-11" transform="translate(9 26)"/><path d="m0 0h-24v12l24-3v-9" transform="translate(31 17)"/></g><path d="m0 0h-1-16-1c-2.209 0-4-1.791-4-4v-5h5 16 5v5c0 2.209-1.791 4-4 4" fill="#9268ca" transform="translate(28 10)"/><g fill="#7450a8"><path d="m28 1h-1v4h1v-4"/><path d="m11 1h-1v4h1v-4"/></g><g fill="#d79e84"><path d="m0 0v-6c0-1.657 1.343-3 3-3 1.657 0 3 1.343 3 3v6h-6" transform="translate(16 15)"/><path d="m0 0c0 0-.003-5.308-5-5.936v-6.06c0-4.971 4.03-9 9-9 4.971 0 9 4.03 9 9v5.02c-11.11.376-13 6.981-13 6.981" transform="translate(15 32)"/></g><path d="m0 0c0-.553-.896-1-2-1-1.104 0-2 .447-2 1 0 .553.896 1 2 1 1.104 0 2-.447 2-1" fill="#bb1a34" transform="translate(21 15)"/><g fill="#d79e84"><path d="m0 0l-3 .693v3.46h-4l-.6-2.4-2.232-2.232-1.168-2.368v-8c0 0 0-1 1-1 1 0 1 1 1 1l.775 6.385c.6.194 1.175.515 1.518.858l2.046 2.046 4.09-.942c.69-.159 1.379.271 1.537.961.16.69-.272 1.378-.961 1.539" transform="translate(16.01 32.847)"/><path d="m0 0l-2.232 2.232-.6 2.4h-4v-3.46l-3.01-.693c-.689-.161-1.12-.849-.961-1.539.158-.69.848-1.12 1.537-.961l4.091.942 2.046-2.046c.343-.343.917-.664 1.519-.858l.774-6.385c0 0 0-1 1-1 1 0 1 1 1 1v8l-1.168 2.368" transform="translate(31.832 32.368)"/></g><path d="m0 0h-2c-.276 0-.5.224-.5.5 0 .276.224.5.5.5h2c.276 0 .5-.224.5-.5 0-.276-.224-.5-.5-.5" fill="#bf6952" transform="translate(20 17.5)"/><g fill="#292f33"><path d="m0 0h-2c-.552 0-1 .448-1 1 0 .552.448 1 1 1h2c.552 0 1-.448 1-1 0-.552-.448-1-1-1" transform="translate(16 20.02)"/><path d="m0 0h-1.999c-.553 0-1 .448-1 1 0 .552.447 1 1 1h1.999c.553 0 1-.448 1-1 0-.552-.447-1-1-1" transform="translate(23.999 20.02)"/></g></g></g></svg>