<svg xmlns="http://www.w3.org/2000/svg" viewBox="0 0 47.5 47.5" enable-background="new 0 0 47.5 47.5"><defs><clipPath id="0"><path d="m0 38h38v-38h-38v38"/></clipPath></defs><g transform="matrix(1.25 0 0-1.25 0 47.5)"><g clip-path="url(#0)"><path d="m0 0c0-2.209-1.791-4-4-4h-28c-2.209 0-4 1.791-4 4v28c0 2.209 1.791 4 4 4h28c2.209 0 4-1.791 4-4v-28" fill="#be1931" transform="translate(37 5)"/><path d="m0 0c0 3.872-2.02 7.36-6.02 7.36-4 0-6.01-3.488-6.01-7.36 0-3.903 1.951-7.359 6.01-7.359 4.065 0 6.02 3.456 6.02 7.359m-17.02 0c0 6.656 4.48 11.776 11.01 11.776 6.432 0 11.01-5.28 11.01-11.776 0-6.623-4.449-11.774-11.01-11.774-6.495 0-11.01 5.151-11.01 11.774" fill="#fff" transform="translate(25.02 18.999)"/></g></g></svg>