<svg xmlns="http://www.w3.org/2000/svg" viewBox="0 0 47.5 47.5" enable-background="new 0 0 47.5 47.5"><defs><clipPath id="0"><path d="m0 38h38v-38h-38v38"/></clipPath></defs><g transform="matrix(1.25 0 0-1.25 0 47.5)"><g clip-path="url(#0)"><path d="m0 0c0-2.209-1.791-4-4-4h-28c-2.209 0-4 1.791-4 4v18c0 2.209 1.791 4 4 4h28c2.209 0 4-1.791 4-4v-18" fill="#ccd6dd" transform="translate(37 15)"/><path d="m33 15h-28v18h28v-18" fill="#5dadec"/><path d="m24 5h-10v6h10v-6" fill="#ccd6dd"/><path d="m24 9h-10v2h10v-2" fill="#9aaab4"/><path d="m0 0c0 1.657-1.343 3-3 3h-30c-1.657 0-3-1.343-3-3 0-1.657 1.343-3 3-3h30c1.657 0 3 1.343 3 3" fill="#e1e8ed" transform="translate(37 4)"/><g fill="#f5f8fa"><path d="m6 3h-2v2h2v-2"/><path d="m10 3h-2v2h2v-2"/><path d="m14 3h-2v2h2v-2"/><path d="m18 3h-2v2h2v-2"/><path d="m22 3h-2v2h2v-2"/><path d="m26 3h-2v2h2v-2"/><path d="m30 3h-2v2h2v-2"/><path d="m34 3h-2v2h2v-2"/></g></g></g></svg>