<svg xmlns="http://www.w3.org/2000/svg" viewBox="0 0 47.5 47.5" enable-background="new 0 0 47.5 47.5"><defs><clipPath id="0"><path d="m0 38h38v-38h-38v38"/></clipPath><clipPath id="1"><path d="m1 19c0-9.941 8.06-18 18-18 9.941 0 18 8.06 18 18 0 9.941-8.06 18-18 18-9.941 0-18-8.06-18-18"/></clipPath></defs><g transform="matrix(1.25 0 0-1.25 0 47.5)"><g clip-path="url(#0)"><path d="m0 0c0-9.941-8.06-18-18-18-9.941 0-18 8.06-18 18 0 9.941 8.06 18 18 18 9.941 0 18-8.06 18-18" fill="#88c9f9" transform="translate(37 19)"/></g><g clip-path="url(#1)"><path d="m0 0c-.451 2.93 2.195 4.156 3.607 4.469 1.412.315 2.776.621 2.933-.005.156-.628.311-1.461 1.173-1.148.862.314 3.043.559 4.063 1.342 1.019.783 2.244.787 3.264.473 1.019-.313 3.877-.227 3.25-1.167-.627-.941-1.825-.827-2.451-1.924-.627-1.099.172-1.826 1.034-1.826.865 0 1.709-.135 2.259.727.549.863-.382 2.463.325 2.357.706-.106 1.477-.866 2.03-2.043.547-1.176 1.408-.47 1.723-1.176.313-.705 2.04-2.039 1.177-1.804-.864.236-1.726.392-1.961-.47-.236-.863.389-1.726-.236-1.647-.627.079-.861-.089-1.725-.004-.862.083-1.333.631-2.039-.545-.705-1.175-1.254-1.961-1.567-2.509-.315-.549-.785-.861-.55-1.96.235-1.099-.628-.785-.628.156 0 .94-.548 1.098-1.253.942-.706-.157-1.803-.313-1.724-1.098.077-.784-.315-1.725.313-2.352.627-.629 1.33.076 1.723-.158.393-.237 1.525-.023 1.133-.416-.393-.391-1.76-.881-.976-1.509.786-.626 1.578-.829 1.893-.907.313-.08.062.774 1.083 1.166 1.017.392 2.608 1.29 3 .584.391-.705.338-.595 1.75-.75 1.41-.156 1.79-.585 2.417-1.917.627-1.333.446-1.192 1.462-1.581 1.021-.393 1.678-.222.737-1.086-.941-.86-1.651-.814-2.199-1.833-.55-1.017-.153-1.731-1.25-2.75-1.098-1.019-2.242-1.876-3.417-2.583-.618-.37-2.162-2.07-3.083-2.667-.834-.541-1.083 0-1.083 0 0 0 .256 1.667.964 2.372.704.705 1.105 3.344.869 4.128-.234.783-1.36 1.02-1.75 1.333-.392.312-1.417 1.548-1.417 2.334 0 .784 1.71 2.809 1.71 2.809.218-1.088-1.039.329-1.627.524-.47.157-1.542 1.656-2.459 1.814-.916.159-1.363.7-2.068 1.25-.706.549-2.431 1.332-2.353 2.195.079.862-1.725 1.568-2.038 1.568-.314 0-1.019 0-1.647 1.098-.627 1.098-1.725 2.196-1.411 2.979.313.784.392 1.727.234 2.589-.156.862-1.332 1.176-1.567.941-.235-.236-1.489-1.335-1.647-.315" fill="#5c913b" transform="translate(4.627 29.952)"/></g></g></svg>