<svg xmlns="http://www.w3.org/2000/svg" viewBox="0 0 47.5 47.5" enable-background="new 0 0 47.5 47.5"><defs><clipPath id="0"><path d="m0 38h38v-38h-38v38"/></clipPath></defs><g transform="matrix(1.25 0 0-1.25 0 47.5)"><g clip-path="url(#0)"><g fill="#ffac33"><path d="m0 0h6c1.104 0 2 .104 2-1v2c0 1.104-.896 2-2 2h-8c-2 0-3.583-2.125-3-5 0 0 1.791-9.375 1.917-9.958.333-1.542 2.125-3.042 4.04-3.042h6.959c1.104 0 .083 1.896.083 3v2c0-1.104-.896-2-2-2h-4c-1.104 0-1.833 1.042-2 2-.167.958-1.583 7.333-1.583 7.333-.334 1.917.479 2.667 1.583 2.667" transform="translate(6 32)"/><path d="m0 0h-6c-1.104 0-2.813.104-2.813-1v2c0 1.104 1.709 2 2.813 2h8c2 0 3.584-2.125 3-5 0 0-1.633-9.419-1.771-10-.354-1.5-2.042-3-4-3h-7.145c-1.105 0-.897 1.896-.897 3v2c0-1.104 1.709-2 2.813-2h4c1.104 0 1.834 1.042 2 2 .166.958 1.584 7.333 1.584 7.333.332 1.917-.48 2.667-1.584 2.667" transform="translate(31.813 32)"/><path d="m0 0c0 6.958-2.709 0-2.709 0 0 0-3 6.958-3 0 0-6.958-3.291-10-3.291-10h6.291 6c0 0-3.291 3.042-3.291 10" transform="translate(21.709 15)"/></g><path d="m0 0c0-6.775-6.77-18.19-11-18.19-4.231 0-11 11.417-11 18.19 0 5.195 1 6.319 3 6.319 1.374 0 6.03.027 8 .027 1.391 0 5.914.002 7 .002 2.917 0 4-.685 4-6.348" fill="#ffcc4d" transform="translate(30 30.423)"/><g fill="#c1694f"><path d="m0 0c0-1.104.104-2-1-2h-16c-1.104 0-1 .896-1 2v1c0 1.104 1.042 2 2.083 2h13.917c1.042 0 2-.896 2-2v-1" transform="translate(28 4)"/><path d="m0 0c0-.76.042-1.375-1.375-1.375h-19.25c-1.292 0-1.375.615-1.375 1.375v.25c0 .76.616 1.375 1.375 1.375h19.25c.76 0 1.375-.615 1.375-1.375v-.25" transform="translate(30 2.375)"/></g></g></g></svg>