<svg xmlns="http://www.w3.org/2000/svg" viewBox="0 0 47.5 47.5" enable-background="new 0 0 47.5 47.5"><defs><clipPath id="0"><path d="m0 38h38v-38h-38v38"/></clipPath></defs><g transform="matrix(1.25 0 0-1.25 0 47.5)"><g clip-path="url(#0)"><path d="m0 0c3.462 1.154 6.117 3.034 6.12 9.373.002 4.01 4.266 8.472 4.265 12.551-.001 3.921-4.615 10.384-15.1 9.285-10.778-1.128-14.899-4.364-14.9-11.438-.001-4.926 5.304-8.38 8.127-13.517 1.874-3.409 7.425-9.596 11.488-6.254" fill="#be1931" transform="translate(23.614 2.155)"/><path d="m0 0c-1.278 1.044-3.28 1.55-5.35 1.677.273.037.542.076.821.094.972.064 3.614 1.233 1.4 1.088-.969-.063-1.901-.259-2.837-.423.237.154.479.306.74.442-.026.694-4.03.694-6.05-.994-.512.112-.981.688-3.981.688-2 0-4.685-.926-3-1 .918-.04 2 0 1.858-.364-.655-.061-3.858-.636-3.858-1.636 0-.353 2.76.174 3 0-1.722-.643-3-2-3-3 0-.423 2.211.825 3 1-1-1-1.4-1.7-1.342-2.427.037-.475 2.387.09 2.632.169.822.27 3.71 1.258 4.6 2.724.117-.285 2.963-1.341 4.11-1.466.529-.058 2.62-.274 2.141.711-.141.289-1.141 1.289-1.446 2.264.446.019 8.305-.975 6.557.453" fill="#77b255" transform="translate(27.25 33.428)"/><g fill="#f4abba"><path d="m0 0c-.136 1.46-2.54 3.252-2.331 1 .136-1.459 2.54-3.251 2.331-1" transform="translate(10.339 19.694)"/><path d="m0 0c-.069.622-.282 1.191-.687 1.671-.466.551-1.075.363-1.234-.316-.187-.798.082-1.751.606-2.371.013-.016.027-.033.041-.048-.214.524-.428 1.049-.642 1.573.001-.015.004-.031.006-.047.071-.64.397-1.73 1.136-1.906.754-.182.825.989.774 1.444" transform="translate(17.797 19.14)"/><path d="m0 0c.476.955.17 3.962-.831 1.954-.476-.954-.171-3.962.831-1.954" transform="translate(23.549 23.982)"/><path d="m0 0c-.03.357-.073.78-.391 1.01-1.189.858-2.38-2.36-1.384-3.08.019-.012.036-.025.054-.039-.11.307-.22.613-.331.919 0-.018.001-.035.003-.052.049-.564.376-1.377 1.084-.947.667.405 1.028 1.443.965 2.189" transform="translate(30.76 25.439)"/><path d="m0 0c1.016 1.569-.545 3.451-1.78 1.542-1.016-1.568.546-3.45 1.78-1.542" transform="translate(29.415 16.872)"/><path d="m0 0c.173 1.937-2.309 2.752-2.51.496-.173-1.937 2.309-2.752 2.51-.496" transform="translate(23.667 13.978)"/><path d="m0 0c-.017-.001-.033-.003-.049-.004.454-.238.908-.476 1.362-.715-.006.004-.011.011-.018.017-.306.28-1.353 1.083-1.788.592-.44-.497.498-1.421.804-1.703.342-.314.928-.763 1.429-.73 1.438.093-.782 2.605-1.74 2.543" transform="translate(13.771 15.19)"/><path d="m0 0c.969 1.066.725 4.05-.798 2.376-.969-1.066-.724-4.05.798-2.376" transform="translate(26.998 9.283)"/><path d="m0 0c.093.005.187.012.28.019.703.046 1 1.454 1.042 1.952.044.571-.043 1.456-.785 1.406-.094-.005-.186-.012-.281-.018-.702-.047-1-1.454-1.042-1.952-.044-.571.044-1.457.786-1.407" transform="translate(13.599 23.25)"/><path d="m0 0c.395-.764.252-1.623-.32-1.919-.573-.296-1.358.081-1.753.844-.395.763-.252 1.623.32 1.919.572.296 1.357-.081 1.753-.844" transform="translate(21.445 7.99)"/></g></g></g></svg>