<svg xmlns="http://www.w3.org/2000/svg" viewBox="0 0 47.5 47.5" enable-background="new 0 0 47.5 47.5" xmlns:xlink="http://www.w3.org/1999/xlink"><defs><clipPath id="0"><path d="m0 38h38v-38h-38v38"/></clipPath></defs><g transform="matrix(1.25 0 0-1.25 0 47.5)"><g clip-path="url(#0)"><path d="m0 0c0 1.639-.97 3-2.273 3.385-1.36 7.457-7.877 13.12-15.727 13.12-7.85 0-14.367-5.658-15.727-13.12-1.303-.381-2.273-1.746-2.273-3.385 0-1.736 1.087-3.168 2.51-3.442 1.759-6.926 8.02-12.06 15.49-12.06 7.473 0 13.731 5.132 15.49 12.06 1.422.274 2.51 1.706 2.51 3.442" fill="#d99e82" transform="translate(37 18.5)"/><path d="m0 0c-3 0-4 1-4-1 0-2 2-4 4-4 2 0 4 2 4 4 0 2-1 1-4 1" fill="#662214" transform="translate(19 12)"/><path d="m0 0c0-1.381-1.12-2.5-2.5-2.5-1.38 0-2.5 1.119-2.5 2.5 0 1.381 1.12 2.5 2.5 2.5 1.38 0 2.5-1.119 2.5-2.5" fill="#662214" transform="translate(26 18.5)" id="1"/><use transform="translate(-9)" xlink:href="#1"/><path d="m0 0h2v-1c0 0 0-1-1-1-1 0-1 1-1 1v1" fill="#fff" transform="translate(19 11)"/><path d="m0 0h-.031c-1.188 0-2.301.458-3.135 1.304-.746.756-1.138 1.787-1.076 2.847.032.552.491.961 1.057.935.551-.032.972-.507.939-1.059-.028-.495.155-.983.504-1.337.459-.465 1.071-.724 1.725-.729.653.036 1.269.247 1.735.706 1.298 1.28 1.313 3.377.032 4.676-1.698 1.721-4.479 1.74-6.202.042-.394-.388-1.027-.383-1.414.01-.387.393-.383 1.026.01 1.414 2.506 2.472 6.557 2.444 9.03-.061 2.055-2.084 2.032-5.432-.051-7.486-.838-.827-1.947-1.262-3.123-1.262" fill="#662214" transform="translate(18.982 26)"/></g></g></svg>