<svg xmlns="http://www.w3.org/2000/svg" viewBox="0 0 47.5 47.5" enable-background="new 0 0 47.5 47.5"><defs><clipPath id="0"><path d="m0 38h38v-38h-38v38"/></clipPath></defs><g transform="matrix(1.25 0 0-1.25 0 47.5)"><g clip-path="url(#0)"><path d="m0 0c-.987-1.044-1.633-3.067-1.437-4.493l.891-6.442c.197-1.426-.701-2.086-1.996-1.468l-5.851 2.796c-1.295.62-3.408.611-4.699-.018l-5.826-2.842c-1.291-.629-2.194.027-2.01 1.452l.843 6.45c.186 1.426-.475 3.444-1.47 4.481l-4.493 4.688c-.996 1.036-.656 2.101.754 2.365l6.371 1.187c1.41.263 3.116 1.519 3.793 2.789l3.05 5.737c.676 1.271 1.789 1.274 2.474.009l3.094-5.712c.686-1.266 2.401-2.507 3.815-2.759l6.378-1.14c1.412-.253 1.76-1.314.774-2.36l-4.457-4.72" fill="#ffcc4d" transform="translate(29.84 19.362)"/><g fill="#ffd983"><path d="m0 0c1.023-1.413 2.446-4.917 1.717-5.447-.728-.531-3.607 1.91-4.63 3.323-1.022 1.413-.935 2.668-.131 3.254.804.587 2.02.283 3.044-1.13" transform="translate(10.783 34.819)"/><path d="m0 0c-1.022-1.414-3.901-3.855-4.631-3.322-.728.53.695 4.03 1.719 5.445 1.023 1.414 2.238 1.719 3.043 1.131.804-.586.89-1.841-.131-3.254" transform="translate(30.13 32.695)"/><path d="m0 0c-.001 1.746.898 5.421 1.801 5.421.898 0 1.798-3.675 1.797-5.42 0-1.747-.804-2.712-1.8-2.71-.994-.002-1.798.962-1.798 2.709" transform="translate(17.625 3.709)"/><path d="m0 0c-1.655.539-4.858 2.533-4.579 3.395.277.857 4.04.581 5.689.041 1.656-.54 2.322-1.606 2.01-2.556-.307-.949-1.468-1.42-3.123-.88" transform="translate(33.804 12.971)"/><path d="m0 0c1.655.54 5.414.817 5.694-.044.276-.857-2.928-2.853-4.581-3.392-1.654-.54-2.818-.07-3.123.88-.308.95.354 2.02 2.01 2.556" transform="translate(3.083 16.406)"/></g></g></g></svg>