<svg xmlns="http://www.w3.org/2000/svg" viewBox="0 0 47.5 47.5" enable-background="new 0 0 47.5 47.5"><defs><clipPath id="0"><path d="m0 38h38v-38h-38v38"/></clipPath></defs><g transform="matrix(1.25 0 0-1.25 0 47.5)"><g clip-path="url(#0)"><path d="m0 0c0-9.941-8.06-18-18-18-9.941 0-18 8.06-18 18 0 9.941 8.06 18 18 18 9.941 0 18-8.06 18-18" fill="#231f20" transform="translate(37 19)"/><g fill="#808285"><path d="m0 0c.7-.412 1.421-.79 2.178-1.106l6.576 14.615h-1.419l-7.335-13.509" transform="translate(9.896 3.491)"/><path d="m0 0h-1.42l6.577-14.615c.756.316 1.478.694 2.178 1.106l-7.335 13.509" transform="translate(20.77 17)"/></g><g fill="#58595b"><path d="m15 11h-2v-2h2v2"/><path d="m25 11h-2v-2h2v2"/></g><path d="m0 0c0-1.104-.896-2-2-2h-12c-1.104 0-2 .896-2 2v2c0 1.104.896 2 2 2h12c1.104 0 2-.896 2-2v-2" fill="#a7a9ac" transform="translate(27 12)"/><path d="m0 0h-12.727c-2.01 0-3.636-1.628-3.636-3.636v-9.364-3-1c0-1.104.895-2 2-2h16c1.104 0 2 .896 2 2v1 3 9.364c0 2.01-1.628 3.636-3.637 3.636" fill="#d1d3d4" transform="translate(25.363 31)"/><path d="m0 0v-3-1c0-1.104.896-2 2-2h16c1.104 0 2 .896 2 2v1 3 4h-20v-4" fill="#dd2e44" transform="translate(9 18)"/><path d="m0 0c0-1.104-.896-2-2-2h-12c-1.104 0-2 .896-2 2v7c0 1.104.896 2 2 2h12c1.104 0 2-.896 2-2v-7" fill="#58595b" transform="translate(27 20)"/><path d="m0 0c0-.552-.447-1-1-1h-10c-.552 0-1 .448-1 1v5c0 .552.448 1 1 1h10c.553 0 1-.448 1-1v-5" fill="#55acee" transform="translate(25 21)"/><g fill="#ffd983"><path d="m15 14h-4v2h4v-2"/><path d="m27 14h-4v2h4v-2"/></g><path d="m0 0c0-.552-.447-1-1-1h-2c-.552 0-1 .448-1 1 0 .552.448 1 1 1h2c.553 0 1-.448 1-1" fill="#808285" transform="translate(21 28)"/></g></g></svg>