<svg xmlns="http://www.w3.org/2000/svg" viewBox="0 0 47.5 47.5" enable-background="new 0 0 47.5 47.5"><defs><clipPath id="0"><path d="m0 38h38v-38h-38v38"/></clipPath></defs><g transform="matrix(1.25 0 0-1.25 0 47.5)"><g clip-path="url(#0)"><path d="m0 0c0-5.522-8.06-10-18-10-9.941 0-18 4.478-18 10 0 5.522 8.06 10 18 10 9.941 0 18-4.478 18-10" fill="#939598" transform="translate(37 12)"/><path d="m0 0c0-5.522-8.06-10-18-10-9.941 0-18 4.478-18 10 0 5.522 8.06 10 18 10 9.941 0 18-4.478 18-10" fill="#f1f2f2" transform="translate(37 14)"/><path d="m0 0c0-4.202-6.626-7.611-14.8-7.611-8.174 0-14.8 3.409-14.8 7.611 0 4.203 6.626 7.611 14.8 7.611 8.174 0 14.8-3.408 14.8-7.611" fill="#fff" transform="translate(33.8 14.389)"/><path d="m0 0c0 3.044.417 7.208.042 13.875.6 1.376 6.146 2.472 6.625 3.792 1.287 3.546-1.209 5.916 1.333 8.333 2.05 1.949 5 2 6-1 2 2 6 1 6-2 4 1 6-3 3-6 0-1-1-9-1-11 0-2-.208-1.792-5.208-2.792-5-1-16.792-3.208-16.792-3.208" fill="#e1e8ed" transform="translate(9 9)"/><path d="m0 0v12c0 0 21 7 21 2.458v-10.458l-21-4" fill="#ffac33" transform="translate(9 10)"/><path d="m0 0v10c0 0 12.375 4.208 20 4v-10l-20-4" fill="#ffd983" transform="translate(9 11)"/><path d="m0 0v1l21 4v-1l-21-4" fill="#ffac33" transform="translate(9 16)"/><path d="m0 0l9 9c2 0 8-1 11-5-9.872-1.975-9.872-1.975-20-4" fill="#e1e8ed" transform="translate(9 23)"/><path d="m0 0c1 1 1 5-3 4 0 1-2 4-5 2 0 1-5 2-6 0 10-3 14-6 14-6" fill="#fff" transform="translate(31 27)"/><path d="m0 0c-1.833.208-4.417 1.083-3.917 3.5.5 2.417 2.474 4.881 3.75 5.542 1.125.583 2.326.157 3.209-3.25.583-2.25 2.75-5.125-1.667-5.75-.458 0-1.375-.042-1.375-.042" fill="#dd2e44" transform="translate(18.959 26.542)"/><g fill="#f4abba"><path d="m0 0c-.152 0-.302.069-.4.2l-.5.667c-.166.22-.121.534.099.699.221.167.534.122.7-.1l.5-.666c.166-.221.122-.534-.099-.7-.091-.067-.196-.1-.3-.1" transform="translate(19.376 31.959)"/><path d="m0 0c-.042 0-.084.005-.127.016-.267.07-.427.343-.357.61l.25.958c.069.268.344.427.61.358.267-.07.427-.343.357-.61l-.25-.958c-.058-.225-.261-.374-.483-.374" transform="translate(16.959 28.459)"/><path d="m0 0c-.089 0-.18.023-.261.073l-.75.458c-.235.144-.309.452-.166.688.146.236.453.309.688.166l.75-.458c.235-.144.309-.452.166-.688-.095-.154-.259-.239-.427-.239" transform="translate(21.333 28.375)"/></g></g></g></svg>