<svg xmlns="http://www.w3.org/2000/svg" viewBox="0 0 47.5 47.5" enable-background="new 0 0 47.5 47.5"><defs><clipPath id="0"><path d="m0 38h38v-38h-38v38"/></clipPath></defs><g transform="matrix(1.25 0 0-1.25 0 47.5)"><g clip-path="url(#0)"><path d="m0 0c0-9.389-7.611-17-17-17-9.388 0-17 7.611-17 17 0 9.388 7.612 17 17 17 9.389 0 17-7.612 17-17" fill="#ffcc4d" transform="translate(36 19)"/><path d="m0 0c-.06.135-1.499 3.297-4.457 3.297-2.957 0-4.397-3.162-4.457-3.297-.092-.207-.032-.449.144-.591.177-.143.427-.147.61-.014.013.009 1.262.902 3.703.902 2.426 0 3.674-.881 3.702-.901.088-.066.194-.099.298-.099.11 0 .221.037.312.109.178.142.237.386.145.594" fill="#664500" transform="translate(16.457 20.18)"/><path d="m0 0c0-3.59-2.91-6.5-6.5-6.5-3.59 0-6.5 2.91-6.5 6.5 0 3.59 2.91 6.5 6.5 6.5 3.59 0 6.5-2.91 6.5-6.5" fill="#f5f8fa" transform="translate(32 22.482)"/><path d="m0 0c0-1.381-1.119-2.5-2.5-2.5-1.381 0-2.5 1.119-2.5 2.5 0 1.381 1.119 2.5 2.5 2.5 1.381 0 2.5-1.119 2.5-2.5" fill="#292f33" transform="translate(28 22.482)"/><path d="m0 0c0-3.964 4.596-9 11-9 6.404 0 11 5 11 9 0 0-10.333-2.756-22 0" fill="#664500" transform="translate(8 13.982)"/><path d="m0 0v-6.083c0-3 2-6 6-6 4 0 6 3 6 6v6.04c-6.292-1.292-12 .041-12 .041" fill="#e75a70" transform="translate(13 12.1)"/></g></g></svg>