<svg xmlns="http://www.w3.org/2000/svg" viewBox="0 0 47.5 47.5" enable-background="new 0 0 47.5 47.5"><defs><clipPath id="0"><path d="m0 38h38v-38h-38v38"/></clipPath></defs><g transform="matrix(1.25 0 0-1.25 0 47.5)"><g clip-path="url(#0)"><path d="m0 0c0-2.209-1.791-4-4-4h-28c-2.209 0-4 1.791-4 4v28c0 2.209 1.791 4 4 4h28c2.209 0 4-1.791 4-4v-28" fill="#dd2e44" transform="translate(37 5)"/><g fill="#fff"><path d="m0 0c0-.78-.52-1.48-1.34-1.48-.82 0-1.46.6-2.66.6-.861 0-1.641-.46-1.641-1.3 0-2.06 6.682-.74 6.682-5.901 0-2.861-2.361-4.642-5.122-4.642-1.54 0-4.861.361-4.861 2.241 0 .78.521 1.42 1.34 1.42.941 0 2.061-.78 3.361-.78 1.321 0 2.041.74 2.041 1.721 0 2.36-6.682.939-6.682 5.58 0 2.801 2.301 4.541 4.962 4.541 1.12 0 3.92-.419 3.92-2" transform="translate(10.762 24.482)"/><path d="m0 0c0 2.421-1.261 4.602-3.761 4.602-2.5 0-3.76-2.181-3.76-4.602 0-2.44 1.22-4.601 3.76-4.601 2.541 0 3.761 2.161 3.761 4.601m-10.643 0c0 4.161 2.801 7.362 6.882 7.362 4.02 0 6.881-3.3 6.881-7.362 0-4.141-2.78-7.361-6.881-7.361-4.061 0-6.882 3.22-6.882 7.361" transform="translate(22.763 19.12)"/><path d="m0 0c0-.78-.521-1.48-1.342-1.48-.82 0-1.459.6-2.66.6-.859 0-1.641-.46-1.641-1.3 0-2.06 6.682-.74 6.682-5.901 0-2.861-2.359-4.642-5.121-4.642-1.539 0-4.861.361-4.861 2.241 0 .78.521 1.42 1.341 1.42.94 0 2.061-.78 3.36-.78 1.32 0 2.041.74 2.041 1.721 0 2.36-6.682.939-6.682 5.58 0 2.801 2.301 4.541 4.961 4.541 1.121 0 3.922-.419 3.922-2" transform="translate(35.14 24.482)"/></g></g></g></svg>