<svg xmlns="http://www.w3.org/2000/svg" viewBox="0 0 47.5 47.5" enable-background="new 0 0 47.5 47.5" xmlns:xlink="http://www.w3.org/1999/xlink"><defs><path id="1" d="m0 0c0-.552.447-1 1-1 .553 0 1 .448 1 1 0 .552-.447 1-1 1-.553 0-1-.448-1-1" fill="#f4abba"/><clipPath id="0"><path d="m0 38h38v-38h-38v38"/></clipPath></defs><g transform="matrix(1.25 0 0-1.25 0 47.5)"><g clip-path="url(#0)"><path d="m0 0c0-2.209-1.791-4-4-4h-28c-2.209 0-4 1.791-4 4v23c0 2.209 1.791 4 4 4h28c2.209 0 4-1.791 4-4v-23" fill="#e1e8ed" transform="translate(37 5)"/><path d="m0 0h-3.277c.172-.295.277-.634.277-1 0-1.104-.896-2-2-2-1.104 0-2 .896-2 2 0 .366.105.705.277 1h-18.554c.172-.295.277-.634.277-1 0-1.104-.896-2-2-2-1.104 0-2 .896-2 2 0 .366.105.705.277 1h-3.277c-1.104 0-2-.896-2-2v-11h36v11c0 1.104-.896 2-2 2" fill="#dd2e44" transform="translate(35 37)"/><path d="m0 0h-1.695c-1.086 0-1.538.731-1.538 1.5 0 .792.566 1.5 1.538 1.5h3.21c.972 0 1.515-.701 1.515-1.605v-12.865c0-1.13-.558-1.762-1.53-1.762-.972 0-1.5.632-1.5 1.762v11.47" fill="#66757f" transform="translate(13 18)"/><g fill="#f5f8fa"><path d="m0 0c0-1.679-1.069-2.119-1.979-2.119-.689 0-1.839.27-1.839 1.14 0 .269.23.609.56.609.4 0 .75-.37 1.199-.37.56 0 .56.52.56.84v4.297c0 .5.32.78.749.78.431 0 .75-.28.75-.78v-4.397" transform="translate(6.49 27.999)"/><path d="m0 0c0 .5.32.78.75.78.43 0 .75-.28.75-.78v-3.488c0-.92.589-1.649 1.539-1.649.909 0 1.529.769 1.529 1.649v3.488c0 .5.319.78.749.78.43 0 .75-.28.75-.78v-3.568c0-1.679-1.38-2.949-3.03-2.949-1.669 0-3.039 1.25-3.039 2.949v3.568" transform="translate(7.272 32.397)"/><path d="m0 0c0 .5.32.78.75.78.429 0 .749-.28.749-.78v-5.02h1.779c.51 0 .73-.38.72-.72-.02-.33-.28-.659-.72-.659h-2.498c-.49 0-.78.319-.78.819v5.577" transform="translate(14.182 32.397)"/></g><use transform="translate(33 27)" xlink:href="#1"/><use transform="translate(33 30)" xlink:href="#1"/><use transform="translate(30 27)" xlink:href="#1"/><use transform="translate(30 30)" xlink:href="#1"/><use transform="translate(27 27)" xlink:href="#1"/><use transform="translate(27 30)" xlink:href="#1"/><use transform="translate(24 30)" xlink:href="#1"/><use transform="translate(24 27)" xlink:href="#1"/><path d="m0 0c.541.112 1.128.226 1.691.226 2.729 0 4.668-2.165 4.668-4.804 0-3.767-2.074-6.247-5.975-6.247-1.602 0-4.962 1.037-4.962 3.02 0 .835.699 1.534 1.533 1.534.902 0 1.985-1.443 3.496-1.443 1.578 0 2.391 1.533 2.391 2.954 0 1.354-.767 2.279-2.165 2.279-1.309 0-1.511-.746-2.661-.746-.88 0-1.331.677-1.331 1.061 0 .293.044.519.068.767l.563 4.758c.248 1.759.677 2.143 1.759 2.143h5.436c1.037 0 1.646-.609 1.646-1.421 0-1.557-1.173-1.579-1.579-1.579h-4.24l-.338-2.503" fill="#66757f" transform="translate(22.578 15.497)"/></g></g></svg>