<svg xmlns="http://www.w3.org/2000/svg" viewBox="0 0 47.5 47.5" enable-background="new 0 0 47.5 47.5"><defs><clipPath id="0"><path d="m0 38h38v-38h-38v38"/></clipPath></defs><g transform="matrix(1.25 0 0-1.25 0 47.5)"><g clip-path="url(#0)"><path d="m0 0c-3 0-3-1-6-1-3 0-3 1-6 1-4 0-9-2-9-9 0-11 6-20 10-20 3 0 3 1 5 1 2 0 2-1 5-1 4 0 10 9 10 20 0 7-5 9-9 9" fill="#dd2e44" transform="translate(25 30)"/><path d="m0 0c0 0 3 4 8 4 4 0 6-2 6-2 0 0-4-3-7-3-3 0-7 1-7 1" fill="#77b255" transform="translate(20 30)"/><path d="m0 0c-.552 0-1 .448-1 1 0 3.441 1.2 6.615 3.293 8.707.391.391 1.024.391 1.415 0 .39-.391.39-1.024 0-1.414-1.721-1.72-2.708-4.378-2.708-7.293 0-.552-.448-1-1-1" fill="#662113" transform="translate(19 27)"/></g></g></svg>