<svg xmlns="http://www.w3.org/2000/svg" viewBox="0 0 47.5 47.5" enable-background="new 0 0 47.5 47.5"><defs><clipPath id="3"><path d="m12.246 27.21c-4.159-4.161-4.158-10.905 0-15.06 4.161-4.159 10.905-4.159 15.06 0 4.159 4.159 4.159 10.903 0 15.06-2.08 2.079-4.806 3.119-7.532 3.119-2.726 0-5.452-1.04-7.532-3.119"/></clipPath><clipPath id="2"><path d="m8.05 35.588l-.935-4.04-4.04-.934c-2.174-.62-1.948-5.716 2.126-6.248l3.055-.399c4.074-.531 6.973 2.367 6.441 6.441l-.399 3.055c-.316 2.429-2.256 3.49-3.902 3.49-1.115 0-2.095-.486-2.345-1.364"/></clipPath><clipPath id="0"><path d="m0 38h38v-38h-38v38"/></clipPath><clipPath id="1"><path d="m23.795 8.428l.399-3.055c.531-4.074 5.628-4.3 6.248-2.126l.933 4.04 4.04.932c2.173.621 1.949 5.718-2.125 6.25l-3.055.398c-.324.042-.641.063-.949.063-3.564 0-5.981-2.755-5.492-6.504"/></clipPath></defs><g transform="matrix(1.25 0 0-1.25 0 47.5)"><g clip-path="url(#0)" fill="#dd2e44"><path d="m0 0c-.531 4.075-5.627 4.299-6.248 2.125l-.934-4.04-4.04-.933c-2.174-.621-1.949-5.717 2.126-6.248l3.054-.399c4.074-.531 6.973 2.367 6.441 6.441l-.398 3.055" transform="translate(14.298 33.462)"/><path d="m0 0c4.074-.531 4.299-5.629 2.125-6.249l-4.04-.933-.934-4.04c-.62-2.173-5.716-1.948-6.248 2.126l-.398 3.055c-.531 4.074 2.367 6.973 6.441 6.441l3.055-.398" transform="translate(33.29 14.471)"/></g><g clip-path="url(#1)"><path d="m0 0c-2.846-2.846-3.734-6.572-1.981-8.324 1.75-1.751 5.477-.864 8.323 1.982 2.846 2.846 3.733 6.573 1.982 8.324-1.752 1.752-5.478.864-8.324-1.982" fill="#be1931" transform="translate(22.554 16.902)"/></g><g clip-path="url(#2)"><path d="m0 0c-2.846-2.846-3.733-6.573-1.982-8.324 1.752-1.752 5.478-.864 8.324 1.982 2.847 2.846 3.734 6.572 1.982 8.324-1.751 1.751-5.478.864-8.324-1.982" fill="#be1931" transform="translate(10.662 28.794)"/></g><g clip-path="url(#0)"><path d="m0 0c-4.159-4.16-10.903-4.16-15.06 0-4.159 4.159-4.159 10.903 0 15.06 4.16 4.159 10.904 4.159 15.06 0 4.16-4.16 4.16-10.904 0-15.06" fill="#dd2e44" transform="translate(27.31 12.147)"/></g><g clip-path="url(#3)"><g fill="#f5f8fa"><path d="m0 0c-4.184-2.535-11.269-3.17-12.486 1.679-1.162-2.766-1.21-5.46.246-7.156 1.457-1.697 8.22-1.511 12.24 5.477" transform="translate(19.709 19.959)"/><g transform="translate(19.75 20)"><path d="m0 0c.643-4.85-2.532-12.04-7.461-11.212 2.066-2.175 4.514-3.3 6.652-2.646 2.14.653 5.596 7.372.809 13.858"/><path d="m0 0c4.65-.867 8.234-5.483 6.392-10.132 2.557 1.568 5.114 2.564 4.921 4.791-.192 2.227-3.969 8.669-11.313 5.341"/><path d="m0 0c1.541 3.333 8.285 6.246 12.168 3.096-.73 2.91-.734 5.42-2.918 5.904-2.183.484-10.226-.997-9.25-9"/></g><path d="m0 0c-3.875 2.042-5.792 8.04-1.792 11.04-3 0-6 0-7-2-1-2 .792-8.04 8.792-9.04" transform="translate(19.792 19.959)"/></g><path d="m0 0c-4.159-4.16-10.903-4.16-15.06 0-4.159 4.159-4.159 10.903 0 15.06 4.16 4.159 10.904 4.159 15.06 0 4.16-4.16 4.16-10.904 0-15.06" fill="none" stroke="#dd2e44" stroke-width="3" stroke-miterlimit="10" transform="translate(27.31 12.147)"/></g></g></svg>