<svg xmlns="http://www.w3.org/2000/svg" viewBox="0 0 47.5 47.5" enable-background="new 0 0 47.5 47.5"><defs><clipPath id="0"><path d="m0 38h38v-38h-38v38"/></clipPath></defs><g transform="matrix(1.25 0 0-1.25 0 47.5)"><g clip-path="url(#0)"><path d="m0 0c0-2.209-1.791-4-4-4h-28c-2.209 0-4 1.791-4 4v28c0 2.209 1.791 4 4 4h28c2.209 0 4-1.791 4-4v-28" fill="#3b88c3" transform="translate(37 5)"/><g fill="#fff"><path d="m0 0l2.829-2.829c-3.905-3.905-10.237-3.904-14.14.001-2.247 2.246-3.194 5.296-2.855 8.225l-4.04-.367c-.215-3.841 1.128-7.753 4.063-10.687 5.467-5.467 14.332-5.468 19.799 0l2.828-2.828.849 9.334-9.334-.849" transform="translate(23.24 14.758)"/><path d="m0 0c-5.468 5.467-14.331 5.467-19.799 0l-2.828 2.828-.849-9.334 9.334.849-2.829 2.828c3.906 3.906 10.237 3.906 14.14 0 2.248-2.247 3.194-5.297 2.855-8.225l4.04.366c.216 3.841-1.127 7.753-4.062 10.688" transform="translate(28.899 28.9)"/></g></g></g></svg>