<svg xmlns="http://www.w3.org/2000/svg" viewBox="0 0 47.5 47.5" enable-background="new 0 0 47.5 47.5"><defs><clipPath id="0"><path d="m0 38h38v-38h-38v38"/></clipPath></defs><g transform="matrix(1.25 0 0-1.25 0 47.5)"><g clip-path="url(#0)"><path d="m0 0c0-2.209-1.791-4-4-4h-28c-2.209 0-4 1.791-4 4v28c0 2.209 1.791 4 4 4h28c2.209 0 4-1.791 4-4v-28" fill="#f4900c" transform="translate(37 5)"/><g fill="#fff"><path d="m0 0c-1.513.06-3.773-.47-5.538-2.687-.534.294-1.202.317-1.778.004-.898-.489-1.23-1.613-.741-2.511.428-.785 1.31-1.645 2.504-1.698.039-.002.079-.003.119-.003.714 0 1.696.288 2.544 1.559 1.214 1.821 2.748 1.651 2.945 1.622.516-.099 1.022.032 1.42.318-.558.956-.344 2.441-1.475 3.396" transform="translate(15.431 12.309)"/><path d="m0 0c-.581.315-1.255.293-1.79-.005-1.698 2.128-3.849 2.692-5.357 2.678-1.156-.975-.912-2.499-1.514-3.451.373-.229.822-.336 1.281-.265.173.028 1.724.218 2.949-1.621.848-1.272 1.831-1.559 2.544-1.559.041 0 .08.001.119.003 1.194.053 2.077.912 2.504 1.698.49.898.162 2.033-.736 2.522" transform="translate(29.718 9.637)"/><path d="m0 0c-.508.508-1.291.576-1.872.201-.14.037-.516.187-1.128.799-2.031 2.031-4.096 2.859-5.466 3.199 1.348.45 2.455 1.456 3.086 2.759.742.09 1.319.715 1.319 1.481 0 .56-.31 1.042-.764 1.3-.15 2.898-2.433 5.2-5.236 5.2-2.802 0-5.085-2.302-5.235-5.2-.454-.258-.765-.74-.765-1.3 0-.766.578-1.391 1.32-1.481.631-1.303 1.739-2.309 3.086-2.759-1.37-.34-3.435-1.168-5.466-3.199-.612-.612-.988-.762-1.128-.799-.582.375-1.364.308-1.872-.201-.586-.586-.586-1.535 0-2.121.047-.048.712-.691 1.83-.691.856 0 1.979.378 3.291 1.691.408.408.809.731 1.202 1.019-.119-.494-.185-.988-.185-1.453 0-2.423 1.755-2.506 3.922-2.506 2.166 0 3.923.083 3.923 2.506 0 .465-.065.959-.185 1.453.393-.288.794-.611 1.202-1.019 1.312-1.314 2.434-1.691 3.291-1.691 1.117 0 1.782.643 1.83.691.586.586.586 1.535 0 2.121" transform="translate(29.06 18.06)"/></g></g></g></svg>