<svg xmlns="http://www.w3.org/2000/svg" viewBox="0 0 47.5 47.5" enable-background="new 0 0 47.5 47.5"><defs><clipPath id="0"><path d="m0 38h38v-38h-38v38"/></clipPath></defs><g transform="matrix(1.25 0 0-1.25 0 47.5)"><g clip-path="url(#0)"><path d="m0 0c0-9.389-7.611-17-17-17-9.388 0-17 7.611-17 17 0 9.388 7.612 17 17 17 9.389 0 17-7.612 17-17" fill="#ffcc4d" transform="translate(36 19)"/><g fill="#664500"><path d="m0 0c-.323 0-.64.156-.833.445-.306.46-.182 1.081.277 1.387.133.088 3.301 2.168 7.555 2.168.552 0 1-.448 1-1 0-.552-.448-1-1-1-3.655 0-6.418-1.814-6.445-1.832-.171-.114-.364-.168-.554-.168" transform="translate(8 22)"/><path d="m0 0c-.189 0-.382.054-.552.167-.028.018-2.819 1.833-6.447 1.833-.553 0-1 .448-1 1 0 .552.447 1 1 1 4.254 0 7.422-2.08 7.555-2.168.46-.306.584-.927.277-1.387-.192-.289-.51-.445-.833-.445" transform="translate(29.999 22)"/></g><path d="m0 0l7.977-3.626v-4.546l-6.238 1.135c.386-.782.822-1.532 1.318-2.24l4.92-.895v-1.363c0-1.104.895-2 2-2h14c1.104 0 2 .896 2 2v1.363l4.919.895c.497.708.933 1.458 1.318 2.24l-6.237-1.135v4.546l7.976 3.626c.004.156.024.308.024.465 0 .51-.033 1.012-.077 1.511l-7.923-3.602v1.091c0 1.105-.896 2-2 2h-14c-1.105 0-2-.895-2-2v-1.091l-7.924 3.602c-.044-.499-.076-1-.076-1.511 0-.157.019-.309.023-.465" fill="#f5f8fa" transform="translate(2.023 18.535)"/></g></g></svg>