<svg xmlns="http://www.w3.org/2000/svg" viewBox="0 0 47.5 47.5" enable-background="new 0 0 47.5 47.5" xmlns:xlink="http://www.w3.org/1999/xlink"><defs><clipPath id="0"><path d="m0 38h38v-38h-38v38"/></clipPath></defs><g transform="matrix(1.25 0 0-1.25 0 47.5)"><g clip-path="url(#0)"><path d="m0 0c0-5.522-3.806-10-8.5-10-4.694 0-8.5 4.478-8.5 10 0 5.523 3.806 10 8.5 10 4.694 0 8.5-4.477 8.5-10" fill="#e1e8ed" transform="translate(18 19)" id="1"/><use transform="translate(19)" xlink:href="#1"/><g fill="#292f33"><path d="m0 0c0-1.657-1.343-3-3-3-1.657 0-3 1.343-3 3 0 1.657 1.343 3 3 3 1.657 0 3-1.343 3-3" transform="translate(9 15)"/><path d="m0 0c0-1.657-1.344-3-3-3-1.656 0-3 1.343-3 3 0 1.657 1.344 3 3 3 1.656 0 3-1.343 3-3" transform="translate(28 15)"/></g></g></g></svg>