<svg xmlns="http://www.w3.org/2000/svg" viewBox="0 0 47.5 47.5" enable-background="new 0 0 47.5 47.5"><defs><clipPath id="0"><path d="m0 38h38v-38h-38v38"/></clipPath></defs><g transform="matrix(1.25 0 0-1.25 0 47.5)"><g clip-path="url(#0)"><path d="m0 0c0-2.209-1.791-4-4-4h-20c-2.209 0-4 1.791-4 4v28c0 2.209 1.791 4 4 4h20c2.209 0 4-1.791 4-4v-28" fill="#e6e7e8" transform="translate(33 5)"/><path d="m0 0c-2.519 0-4.583-1.87-4.929-4.293.731.79 1.768 1.293 2.929 1.293 2.209 0 4-1.791 4-4 0-2 1.497-2.198.707-2.929 2.423.346 2.293 2.41 2.293 4.929 0 2.761-2.239 5-5 5" fill="#dd2e44" transform="translate(12 30)"/><path d="M 0,0 C 0,2.209 1.791,4 4,4 5.161,4 6.198,3.497 6.929,2.707 6.583,5.13 4.52,7 2,7 -0.762,7 -3,4.761 -3,2 -3,-0.519 -3.131,-2.583 -0.707,-2.929 -1.497,-2.198 0,-2 0,0" fill="#55acee" transform="translate(24 23)"/><path d="m0 0c0 4.971 4 9 4 9 0 0 4-4.03 4-9 0-4.971-1.791-9-4-9-2.209 0-4 4.03-4 9" fill="#ffac33" transform="translate(15 25)"/><g fill="#553788"><path d="m0 0c.791-.73 1.293-1.768 1.293-2.929 0-2.209-1.791-4-4-4-1.161 0-2.198.503-2.928 1.293.345-2.424 2.409-4.293 4.928-4.293 2.762 0 5 2.239 5 5 0 2.52-1.869 4.583-4.293 4.929" transform="translate(12.707 15.929)"/><path d="m 0,0 c -2.209,0 -4,1.791 -4,4 0,1.161 0.503,2.198 1.293,2.929 C -5.131,6.583 -7,4.52 -7,2 c 0,-2.762 2.238,-5 5,-5 2.52,0 4.583,1.869 4.929,4.293 C 2.198,0.503 1.161,0 0,0" transform="translate(28 9)"/></g><path d="m0 0c0-4.971 3-9 4-9 1 0 4 4.03 4 9 0 4.971-1.791 9-4 9-2.209 0-4-4.03-4-9" fill="#9266cc" transform="translate(15 13)"/><path d="m0 0c0 3.866 3 4 5 4 2 0 5-.134 5-4 0-3.865-2.238-7-5-7-2.761 0-5 3.135-5 7" fill="#edbb9f" transform="translate(14 20)"/><g fill="#662113"><path d="m0 0c0-.552-.448-1-1-1-.552 0-1 .448-1 1 0 .552.448 1 1 1 .552 0 1-.448 1-1" transform="translate(18 20)"/><path d="m0 0c0-.552-.447-1-1-1-.552 0-1 .448-1 1 0 .552.448 1 1 1 .553 0 1-.448 1-1" transform="translate(22 20)"/><path d="m0 0c1.104 0 2 .896 2 2h-4c0-1.104.896-2 2-2" transform="translate(19 15)"/></g><path d="m0 0c0-.552-.448-1-1-1-.552 0-1 .448-1 1 0 .552.448 1 1 1 .552 0 1-.448 1-1" fill="#a0041e" transform="translate(8 26)"/><path d="m0 0c0-.552.447-1 1-1 .553 0 1 .448 1 1 0 .552-.447 1-1 1-.553 0-1-.448-1-1" fill="#269" transform="translate(30 26)"/><path d="m0 0c0 .552.448 1 1 1 .552 0 1-.448 1-1 0-.552-.448-1-1-1-.552 0-1 .448-1 1" fill="#dd2e44" transform="translate(18 34)"/></g></g></svg>