<svg xmlns="http://www.w3.org/2000/svg" viewBox="0 0 47.5 47.5" enable-background="new 0 0 47.5 47.5" xmlns:xlink="http://www.w3.org/1999/xlink"><defs><clipPath id="0"><path d="m0 38h38v-38h-38v38"/></clipPath></defs><g transform="matrix(1.25 0 0-1.25 0 47.5)"><g clip-path="url(#0)"><path d="m0 0c0-2.209-1.119-4-2.5-4-1.381 0-2.5 1.791-2.5 4 0 2.209 1.119 4 2.5 4 1.381 0 2.5-1.791 2.5-4" fill="#d79e84" transform="translate(6 16)" id="1"/><path d="m0 0c0 8.526 5.373 15.438 12 15.438 6.627 0 12-6.912 12-15.438 0-8.525-5.373-15.438-12-15.438-6.627 0-12 6.913-12 15.438" fill="#d79e84" transform="translate(4 18.438)"/><path d="m0 0c-.249 0-.478-.007-.713-.012-.097.002-.19.012-.287.012-10 0-17-4.582-17-9 0-4.418 6.373-4 13-4 4.442 0 7.648 0 9.966.086.012-.03.022-.056.034-.086l6-15h2c0 0 .343 3.055 1 7 1 6 .533 21-14 21" fill="#dd2e44" transform="translate(21 37)"/><use transform="translate(25)" xlink:href="#1"/><g fill="#662113"><path d="m0 0c-.552 0-1 .447-1 1v2c0 .552.448 1 1 1 .552 0 1-.448 1-1v-2c0-.553-.448-1-1-1" transform="translate(11 16)"/><path d="m0 0c-.553 0-1 .447-1 1v2c0 .552.447 1 1 1 .553 0 1-.448 1-1v-2c0-.553-.447-1-1-1" transform="translate(21 16)"/></g><path d="m0 0h-2c-.552 0-1 .447-1 1 0 .553.448 1 1 1h2c.552 0 1-.447 1-1 0-.553-.448-1-1-1" fill="#b7755e" transform="translate(17 11)"/><path d="m0 0c0 2-2.293.707-3 0-1-1-3-3-5-2-2.828 1.414-4 1-4 1 0 0-1.171.414-4-1-2-1-4 1-5 2-.707.707-3 2-3 0 0-2 1-2 1-2-1-2 1-3 1-3 0-3 3-3 3-3 0-3 4-2 4-2 1-1 3-1 3-1 0 0 2 0 3 1 0 0 4-1 4 2 0 0 3 0 3 3 0 0 2 1 1 3 0 0 1 0 1 2" fill="#e6e7e8" transform="translate(28 12)"/><path d="m0 0c7 0 4-2 0-2-4 0-7 2 0 2" fill="#d99e82" transform="translate(16 9)"/><path d="m0 0c0 2.209.896 4 2 4 1.104 0 2-1.791 2-4 0-2.209-.896-4-2-4-1.104 0-2 1.791-2 4" fill="#d1d3d4" transform="translate(2 23)" id="2"/><use transform="translate(23)" xlink:href="#2"/><g fill="#f1f2f2"><path d="m0 0c0-2.209 1.791-4 4-4 2.209 0 4 1.791 4 4 0 2.209-1.791 4-4 4-2.209 0-4-1.791-4-4" transform="translate(29 8)"/><path d="m0 0c0-1.104-.896-2-2-2h-25c-1.104 0-2 .896-2 2v1c0 1.104.896 2 2 2h25c1.104 0 2-.896 2-2v-1" transform="translate(30 25)"/></g></g></g></svg>