<svg xmlns="http://www.w3.org/2000/svg" viewBox="0 0 47.5 47.5" enable-background="new 0 0 47.5 47.5"><defs><clipPath id="0"><path d="m0 38h38v-38h-38v38"/></clipPath></defs><g transform="matrix(1.25 0 0-1.25 0 47.5)"><g clip-path="url(#0)"><path d="m0 0c-1.207-.267 1.054-1.529.684-2.739-.252-.838.225 0 1 0 0 0 .627-1.283.423-3.226-.207-1.94 2.472-2.616 2.677-.673.204 1.941-1.385 2.988-.511 4.5 2.092 3.619-4.273 2.138-4.273 2.138" fill="#d99e82" transform="translate(16.316 33.739)"/><path d="m0 0c-.553 0-1 .447-1 1 0 4.52-4.661 9.247-4.708 9.294-.389.391-.389 1.024.002 1.414.391.39 1.023.389 1.413 0 .216-.217 5.293-5.355 5.293-10.708 0-.553-.447-1-1-1" fill="#cc927a" transform="translate(25 16)"/><path d="m0 0c-1.104 0-2 .896-2 2v7c0 .348.091.69.264.992l4 7c.548.959 1.77 1.294 2.728.744.959-.548 1.292-1.769.744-2.728l-3.736-6.539v-6.469c0-1.104-.896-2-2-2" fill="#2a6797" transform="translate(17 2)"/><path d="m0 0c-.587 0-1.168.257-1.562.751l-4 5c-.201.249-.337.543-.4.856l-1 5c-.217 1.083.485 2.138 1.568 2.354 1.088.219 2.138-.486 2.354-1.568l.905-4.524 3.696-4.62c.69-.862.55-2.121-.313-2.811-.368-.294-.81-.438-1.248-.438" fill="#4289c1" transform="translate(26 5)"/><g fill="#292f33"><path d="m0 0l3.581-.092c-.34 3.01-1.645 2.043-3.738 2.096-2.094.053-3.816-.904-3.841-1.905.82-.019 1.591-.039 2.999-.076.305-.006.627-.014.999-.023" transform="translate(15.998 1.092)"/><path d="m0 0l2.503 2.564c-2.438 1.797-2.618.183-4.078-1.317-1.464-1.498-1.934-3.411-1.219-4.109.574.588 1.113 1.139 2.096 2.147.213.217.439.449.698.715" transform="translate(27.12 3.862)"/></g><path d="m0 0c0 0 0-1-2-1h-4c-2 6-.359 12 2 12 3 0 3-4 4-9" fill="#a0041e" transform="translate(24 18)"/><g fill="#d99e82"><path d="m0 0c0-.045-.066-4.552-3.6-7.203l.01-.014c-.243-.182-.41-.459-.41-.786 0-.553.448-1 1-1 .225 0 .423.088.59.214l.01-.014c4.35 3.262 4.4 8.575 4.4 8.8l-2 .003" transform="translate(19 25)"/><path d="m0 0c0-2.209-1.791-4-4-4-2.209 0-4 1.791-4 4 0 2.209 1.791 4 4 4 2.209 0 4-1.791 4-4" transform="translate(23 33)"/></g><path d="m0 0c0 0 0 4 5 4 4 0 4-4 4-4s0 2-3 2c-2 0-2-3-6-2" fill="#fdcb58" transform="translate(14 33)"/></g></g></svg>