<svg xmlns="http://www.w3.org/2000/svg" viewBox="0 0 47.5 47.5" enable-background="new 0 0 47.5 47.5"><defs><clipPath id="0"><path d="m0 38h38v-38h-38v38"/></clipPath></defs><g transform="matrix(1.25 0 0-1.25 0 47.5)"><g clip-path="url(#0)"><path d="m0 0c0 0 1.18-.215 1.18-1.256 0-1.043-1.042-1.256-2.084-1.256h-17.72c-2.084 0-5.915 4-7.915 4l-.592-4h-6.408v2.936c0 2.084-.881 2.285-.881 3.211 0 2.084.672 4.394.672 4.394l6.746-.31 9.463-7.231 17.539-.488" fill="#662113" transform="translate(35.539 3.512)"/><g fill="#c1694f"><path d="m0 0c3.036-.731 6.332-1.719 13.969-5.379 0 0 2-1.34 4.363-1.34h14.539c0 0 1.18.257 1.18 2.424 0 1.084-7.907 3.381-10.27 4.465-2.361 1.084-6.445 6.316-6.445 6.316 0 0-.17-13.634-7.258-6.05-7.088 7.588-4.378 6.44-6.741 6.44-.485 0-3.738-1.307-4.544-5.04-.115-.533.343-1.629 1.207-1.838" transform="translate(2.668 9.719)"/><path d="m0 0c0 0 1 2 1 4 0 2-1 17-1 17 0 0 4.917 1 10 1 5.084 0 7-1 7-1 0 0-6-15 2-23 2.55-2.55-2-7-2-7 0 0-1-2-4 0-3 2-13 9-13 9" transform="translate(3 15)"/></g><path d="m11 17h-2v20h2v-20" fill="#d99e82"/></g></g></svg>