<svg xmlns="http://www.w3.org/2000/svg" viewBox="0 0 47.5 47.5" enable-background="new 0 0 47.5 47.5" xmlns:xlink="http://www.w3.org/1999/xlink"><defs><path id="5" d="m0 0c0-3.866-3.134-7-7-7-3.866 0-7 3.134-7 7 0 3.866 3.134 7 7 7 3.866 0 7-3.134 7-7" fill="#3b88c3"/><clipPath id="3"><path d="m27.497 26.364l-6.232-6.232c-.624-.625-.624-1.639 0-2.265l6.232-6.231c.625-.625 1.641-.625 2.266 0l6.231 6.231c.625.626.625 1.64 0 2.265l-6.231 6.232c-.312.313-.722.469-1.133.469-.41 0-.82-.156-1.133-.469"/></clipPath><clipPath id="4"><path d="m17.867 35.994l-6.231-6.231c-.626-.626-.626-1.64 0-2.266l6.231-6.232c.625-.625 1.641-.625 2.266 0l6.232 6.232c.624.626.624 1.64 0 2.266l-6.232 6.231c-.313.313-.723.47-1.133.47-.41 0-.82-.157-1.133-.47"/></clipPath><clipPath id="2"><path d="m17.867 16.735l-6.231-6.232c-.626-.625-.626-1.642 0-2.265l6.231-6.232c.625-.625 1.641-.625 2.266 0l6.232 6.232c.624.623.624 1.64 0 2.265l-6.232 6.232c-.313.311-.723.467-1.133.467-.41 0-.82-.156-1.133-.467"/></clipPath><clipPath id="0"><path d="m0 38h38v-38h-38v38"/></clipPath><clipPath id="1"><path d="m8.237 26.364l-6.231-6.232c-.626-.625-.626-1.639 0-2.265l6.231-6.231c.626-.625 1.64-.625 2.266 0l6.231 6.231c.626.626.626 1.64 0 2.265l-6.231 6.232c-.313.313-.723.469-1.133.469-.41 0-.82-.156-1.133-.469"/></clipPath></defs><g transform="matrix(1.25 0 0-1.25 0 47.5)"><g clip-path="url(#0)" fill="#55acee"><path d="m0 0c.625-.626 1.64-.626 2.266 0l6.231 6.231c.625.626.625 1.64 0 2.266l-6.231 6.232c-.626.625-1.641.625-2.266 0l-6.231-6.232c-.626-.626-.626-1.64 0-2.266l6.231-6.231" transform="translate(17.867 21.266)"/><path d="m0 0l-6.231 6.231c-.624.626-1.641.626-2.266 0l-6.232-6.231c-.625-.626-.625-1.639 0-2.265l6.232-6.232c.625-.625 1.642-.625 2.266 0l6.231 6.232c.625.626.625 1.639 0 2.265" transform="translate(35.994 20.13)"/><path d="m0 0c-.625.624-1.64.624-2.266 0l-6.231-6.231c-.626-.625-.626-1.642 0-2.266l6.231-6.232c.626-.625 1.641-.625 2.266 0l6.231 6.232c.625.624.625 1.641 0 2.266l-6.231 6.231" transform="translate(20.13 16.734)"/><path d="m0 0l-6.231 6.231c-.626.626-1.64.626-2.266 0l-6.231-6.231c-.626-.626-.626-1.639 0-2.265l6.231-6.232c.626-.625 1.64-.625 2.266 0l6.231 6.232c.626.626.626 1.639 0 2.265" transform="translate(16.734 20.13)"/></g><g clip-path="url(#1)"><use transform="translate(26 19)" xlink:href="#5"/></g><g clip-path="url(#2)"><use transform="translate(26 19)" xlink:href="#5"/></g><g clip-path="url(#3)"><use transform="translate(26 19)" xlink:href="#5"/></g><g clip-path="url(#4)"><use transform="translate(26 19)" xlink:href="#5"/></g><g clip-path="url(#0)"><path d="m0 0c0-2.762-2.238-5-5-5-2.761 0-5 2.238-5 5 0 2.761 2.239 5 5 5 2.762 0 5-2.239 5-5" fill="#bbddf5" transform="translate(24 19)"/></g></g></svg>