<svg xmlns="http://www.w3.org/2000/svg" viewBox="0 0 47.5 47.5" enable-background="new 0 0 47.5 47.5"><defs><clipPath id="0"><path d="m0 38h38v-38h-38v38"/></clipPath></defs><g transform="matrix(1.25 0 0-1.25 0 47.5)"><g clip-path="url(#0)"><path d="m0 0v1.963c1 1.03 2.914 2.89 3.391 5.273.141-.079.054-.13.213-.13.757 0 1.255.984 1.255 2.198 0 1.194-.656 2.161-1.398 2.191.143.515.212 1.206.212 2.091 0 2.956-2.549 6.505-8.253 6.505-5.068 0-8.244-3.549-8.244-6.505 0-.858.051-1.562.142-2.107-.697-.105-1.247-1.033-1.247-2.175 0-1.214.615-2.198 1.373-2.198.158 0-.069.051.072.13.477-2.383 2.484-4.243 3.484-5.273v-1.847c-4-.492-7-2.628-7-4.764v-.644-.167c0-.812.823-.812 1.634-.812h8.554 1.624 8.552c.813 0 1.636 0 1.636.812v.167.644c0 2-3 3.996-6 4.648" fill="#66757f" transform="translate(30 16.272)"/><path d="m0 0v1.963c1 1.03 2.914 2.89 3.391 5.273.141-.079.054-.13.213-.13.757 0 1.255.984 1.255 2.198 0 1.194-.656 2.161-1.398 2.191.143.515.212 1.206.212 2.091 0 2.956-2.549 6.505-8.253 6.505-5.069 0-8.244-3.549-8.244-6.505 0-.858.051-1.562.142-2.107-.697-.105-1.247-1.033-1.247-2.175 0-1.214.615-2.198 1.373-2.198.158 0-.069.051.072.13.477-2.383 2.484-4.243 3.484-5.273v-1.847c-4-.492-7-2.628-7-4.764v-.644-.167c0-.812.823-.812 1.634-.812h8.554 1.624 8.552c.813 0 1.636 0 1.636.812v.167.644c0 2-3 3.996-6 4.648" fill="#292f33" transform="translate(18 8.272)"/></g></g></svg>