<svg xmlns="http://www.w3.org/2000/svg" viewBox="0 0 47.5 47.5" enable-background="new 0 0 47.5 47.5"><defs><clipPath id="0"><path d="m0 38h38v-38h-38v38"/></clipPath></defs><g transform="matrix(1.25 0 0-1.25 0 47.5)"><g clip-path="url(#0)"><path d="m0 0c-.491-1.981-1.376-2.514-3.356-2.02l-11.655 2.887c-1.98.491-.499 1.827-.008 3.808l1.555 6.276c.491 1.98-.195 3.855 1.785 3.364l11.656-2.888c1.979-.491 2.514-1.376 2.023-3.357l-2-8.07" fill="#eee" transform="translate(34.829 19.273)"/><path d="m0 0c-.073 0-.147.009-.221.027-.495.121-.798.622-.676 1.118l7.608 30.918c.122.496.622.798 1.118.676.495-.122.797-.622.675-1.117l-7.608-30.919c-.103-.421-.48-.703-.896-.703" fill="#99aab5" transform="translate(15.199 3.076)"/><path d="m0 0c-.43-1.733-2.183-2.79-3.915-2.36-1.733.429-2.791 2.182-2.361 3.915.429 1.733 2.183 2.79 3.916 2.36 1.732-.429 2.789-2.182 2.36-3.915" fill="#be1931" transform="translate(31.347 24.418)"/><path d="m0 0c.491-1.981 1.375-2.514 3.356-2.02l11.655 2.887c1.98.491.499 1.827.008 3.808l-1.556 6.276c-.49 1.98.196 3.855-1.785 3.364l-11.655-2.888c-1.98-.491-2.514-1.376-2.023-3.357l2-8.07" fill="#eee" transform="translate(3.369 19.273)"/><path d="m0 0c-.415 0-.792.282-.896.703l-7.608 30.919c-.121.495.181.995.676 1.117.499.121.996-.181 1.118-.676l7.607-30.918c.123-.496-.18-.997-.675-1.118-.075-.018-.149-.027-.222-.027" fill="#99aab5" transform="translate(22.999 3.076)"/><path d="m0 0c.43-1.733 2.183-2.79 3.916-2.36 1.732.429 2.79 2.182 2.36 3.915-.429 1.733-2.183 2.79-3.915 2.36-1.733-.429-2.79-2.182-2.361-3.915" fill="#be1931" transform="translate(6.852 24.418)"/></g></g></svg>