<svg xmlns="http://www.w3.org/2000/svg" viewBox="0 0 47.5 47.5" enable-background="new 0 0 47.5 47.5"><defs><clipPath id="0"><path d="m0 38h38v-38h-38v38"/></clipPath></defs><g transform="matrix(1.25 0 0-1.25 0 47.5)"><g clip-path="url(#0)"><path d="m0 0c.781-.781.781-2.047 0-2.828l-2.828-2.828c-.781-.782-2.048-.782-2.829-.001l-8.485 8.486c-.781.78-.781 2.047 0 2.828l2.829 2.828c.781.782 2.046.781 2.828 0l8.485-8.485" fill="#292f33" transform="translate(15.976 26.929)"/><path d="m0 0c7.07-4.243 13.488-2.886 13.488-2.886 0 0 1 0 .654 1 0 0-2.154 5.5-17.654 21-1 1-2.243.882-3.02.101l-6.39-6.101c-.781-.781-.781-2.047 0-2.828l12.926-10.286" fill="#ccd6dd" transform="translate(22.512 4.886)"/></g></g></svg>