<svg xmlns="http://www.w3.org/2000/svg" viewBox="0 0 47.5 47.5" enable-background="new 0 0 47.5 47.5"><defs><clipPath id="4"><path d="m9.86 9.972c2.366-2.736 3.55-4.102 6.099-4.288 2.55-.183 5.193.907 6.652 3.365-1.089 2.642-3.547 4.102-6.099 4.287-.171.012-.337.019-.499.019-2.24-.001-3.601-1.178-6.153-3.383"/></clipPath><clipPath id="5"><path d="m27.789 34.14c-2.431-1.023-3.138-2.751-4.549-6.203 3.453-1.411 5.179-2.117 7.614-1.097 2.432 1.023 4.354 3.26 4.548 6.204-1.368 1.175-3 1.705-4.62 1.705-1.026 0-2.048-.213-2.993-.609"/></clipPath><clipPath id="3"><path d="m15.645 19.387c2.377-3.038 3.565-4.558 6.272-4.889 2.709-.328 5.583.691 7.266 3.236-1.023 2.872-3.563 4.556-6.273 4.888-.297.037-.58.054-.852.054-2.207 0-3.708-1.174-6.413-3.289"/></clipPath><clipPath id="1"><path d="m9.49 27.768c.874-2.87 2.748-3.868 6.493-5.865 1.996 3.746 2.994 5.62 2.12 8.488-.876 2.874-3.187 5.307-6.495 5.866-2.433-2.31-2.994-5.617-2.118-8.489"/></clipPath><clipPath id="0"><path d="m0 38h38v-38h-38v38"/></clipPath><clipPath id="2"><path d="m3.943 23.462c-.963-2.154-.441-4.454.898-6.088 1.34-1.632 2.826-1.777 5.796-2.071.293 2.971.439 4.457-.899 6.087-1.09 1.33-2.722 2.215-4.533 2.215-.413 0-.835-.046-1.262-.143"/></clipPath></defs><g transform="matrix(1.25 0 0-1.25 0 47.5)"><g clip-path="url(#0)" fill="#77b255"><path d="m0 0c-2.706.331-3.895 1.852-6.272 4.889 3.039 2.376 4.558 3.565 7.265 3.235 2.71-.332 5.25-2.02 6.274-4.889-1.684-2.544-4.558-3.563-7.267-3.235" transform="translate(21.917 14.498)"/><path d="m0 0c-2.549.187-3.733 1.553-6.098 4.288 2.735 2.364 4.102 3.547 6.652 3.364 2.551-.185 5.01-1.644 6.098-4.287-1.459-2.458-4.101-3.548-6.652-3.365" transform="translate(15.959 5.684)"/><path d="m0 0c1.338-1.631 1.191-3.117.898-6.088-2.969.294-4.455.44-5.795 2.071-1.339 1.635-1.861 3.935-.898 6.089 2.301.523 4.456-.44 5.795-2.072" transform="translate(9.738 21.391)"/><path d="m0 0c-2.435-1.02-4.16-.314-7.613 1.097 1.411 3.453 2.118 5.18 4.549 6.203 2.434 1.021 5.377.825 7.612-1.096-.194-2.944-2.116-5.181-4.548-6.204" transform="translate(30.854 26.839)"/><path d="m0 0c.874-2.869-.124-4.742-2.119-8.488-3.745 1.996-5.619 2.994-6.494 5.864-.876 2.872-.315 6.18 2.118 8.49 3.308-.56 5.619-2.992 6.495-5.866" transform="translate(18.1 30.392)"/></g><g clip-path="url(#1)"><path d="m0 0c.082-2.994-8.905 3.805-9.151 5.741-.246 1.935-.441 5.669.998 7.391 1.439 1.723 2.329 3.268 3.163 2.362 1.162-1.263 4.907-12.499 4.99-15.494" fill="#a6d388" transform="translate(15.828 21.992)"/></g><g clip-path="url(#2)"><path d="m0 0c1.385-.98 6.194-6.339 7.315-8.515 1.121-2.176-3.188-2.283-5.154-.671-1.967 1.611-4.789 2.948-4.179 5.159.61 2.211 2.02 4.03 2.02 4.03" fill="#a6d388" transform="translate(3.322 23.818)"/></g><g clip-path="url(#3)"><path d="M 0,0 C 1.881,-0.107 11.15,-0.941 14.903,-2.691 18.657,-4.441 16.819,2.436 13.08,3.688 9.341,4.938 5.673,6.946 3.039,5.091 0.406,3.236 0,0 0,0" fill="#5c913b" transform="translate(16.03 19.748)"/></g><g clip-path="url(#4)"><path d="m0 0c2.567.24 9.02 1.328 14.514-1.412 5.498-2.74-.999 6.751-4.314 6.941-3.313.193-4.604 1.793-7.01-.368-2.41-2.163-3.186-5.161-3.186-5.161" fill="#5c913b" transform="translate(9.111 10.01)"/></g><g clip-path="url(#5)"><path d="M 0,0 C 1.507,0.989 10.404,5.679 13.838,5.379 17.27,5.078 9.706,-4.47 1.688,-2.247 -0.651,-1.599 0,0 0,0" fill="#a6d388" transform="translate(23.264 27.765)"/></g><g clip-path="url(#0)"><path d="m0 0c-.584.091-1.363.831-1.273 1.416.545 3.563 2.858 12.168 18.297 24.755.458.375.976.66 1.365.212.39-.446-.052-.949-.498-1.339-13.288-11.57-15.514-20.734-16.02-24.07-.091-.585-1.283-1.068-1.868-.979" fill="#a06253" transform="translate(5.751 1.94)"/></g></g></svg>