<svg xmlns="http://www.w3.org/2000/svg" viewBox="0 0 47.5 47.5" enable-background="new 0 0 47.5 47.5"><defs><clipPath id="0"><path d="m0 38h38v-38h-38v38"/></clipPath><clipPath id="1"><path d="m8.754 29.25c-6.831-6.831-9.393-17.93-5.123-25.615 7.685-4.27 18.784-1.708 25.615 5.123 6.831 6.831 9.393 17.931 5.123 25.615-2.562 1.424-5.502 2.088-8.538 2.087-6.071 0-12.524-2.656-17.08-7.21"/></clipPath></defs><g transform="matrix(1.25 0 0-1.25 0 47.5)"><g clip-path="url(#0)"><path d="m0 0c-6.831-6.831-17.931-9.393-25.615-5.123-4.27 7.685-1.708 18.785 5.123 25.615 6.83 6.831 17.93 9.393 25.615 5.123 4.27-7.684 1.708-18.784-5.123-25.615" fill="#662113" transform="translate(29.25 8.754)"/></g><g clip-path="url(#1)" fill="#e1e8ed"><path d="m0 0c-.391.391-1.024.391-1.415 0l-15.899-15.899c-.391-.392-.391-1.024 0-1.415.391-.391 1.023-.391 1.414 0l15.9 15.9c.39.391.39 1.023 0 1.414" transform="translate(27.657 27.657)"/><path d="m0 0c-.391-.391-1.023-.391-1.415 0l-2.828 2.829c-.39.39-.391 1.024 0 1.414.391.391 1.024.391 1.414 0l2.829-2.829c.391-.391.391-1.022 0-1.414" transform="translate(14.879 10.636)"/><path d="m0 0c-.391-.392-1.023-.392-1.414 0l-2.829 2.828c-.39.391-.39 1.024 0 1.414.391.391 1.024.391 1.415 0l2.828-2.828c.391-.391.391-1.023 0-1.414" transform="translate(18.707 14.465)"/><path d="m0 0c-.39-.391-1.023-.391-1.414 0l-2.828 2.828c-.391.391-.391 1.024 0 1.415.39.39 1.023.39 1.414 0l2.828-2.829c.392-.391.391-1.023 0-1.414" transform="translate(23.535 19.293)"/><path d="m0 0c-.391-.39-1.023-.391-1.414 0l-2.829 2.829c-.391.39-.391 1.024 0 1.414.39.39 1.024.39 1.414 0l2.829-2.828c.391-.392.391-1.024 0-1.415" transform="translate(27.364 23.12)"/><path d="m 0,0 -18.785,18.785 1.707,1.708 L 1.708,1.708 0,0 Z" transform="translate(16.439-2.347)"/><path d="m 0,0 -18.785,18.785 1.708,1.708 L 1.708,1.708 0,0 Z" transform="translate(38.639 19.854)"/></g></g></svg>