<svg xmlns="http://www.w3.org/2000/svg" viewBox="0 0 47.5 47.5" enable-background="new 0 0 47.5 47.5" xmlns:xlink="http://www.w3.org/1999/xlink"><defs><path id="1" d="m0 0h-6l1 13h4l1-13" fill="#be1931"/><clipPath id="0"><path d="m0 38h38v-38h-38v38"/></clipPath></defs><g transform="matrix(1.25 0 0-1.25 0 47.5)"><use transform="translate(12 19)" xlink:href="#1"/><use transform="translate(22 19)" xlink:href="#1"/><use transform="translate(32 19)" xlink:href="#1"/><path d="m0 0l-.154-2h5.231l-.154 2h-4.923" fill="#e6e7e8" transform="translate(6.539 26)"/><path d="m0 0l-.154-2h4.615l-.153 2h-4.308" fill="#e6e7e8" transform="translate(6.846 30)" id="2"/><g fill="#e6e7e8"><path d="m0 0l-.154 2h-5.538l-.154-2h5.846" transform="translate(11.923 20)"/><path d="m0 0l-.154-2h5.231l-.154 2h-4.923" transform="translate(16.539 26)"/></g><use transform="translate(10)" xlink:href="#2"/><path d="m0 0l-.153 2h-5.539l-.154-2h5.846" fill="#e6e7e8" transform="translate(21.923 20)" id="3"/><path d="m0 0l-.153-2h5.23l-.153 2h-4.924" fill="#e6e7e8" transform="translate(26.538 26)"/><use transform="translate(10)" xlink:href="#3"/><path d="m0 0l-.153-2h4.615l-.153 2h-4.309" fill="#e6e7e8" transform="translate(26.846 30)"/><g clip-path="url(#0)"><path d="m0 0c0-1.104-.896-2-2-2h-30c-1.104 0-2 .896-2 2v14c0 1.104.896 2 2 2h30c1.104 0 2-.896 2-2v-14" fill="#a0041e" transform="translate(36 3)"/><path d="m36 15h-34v2h34v-2" fill="#c1694f"/><g fill="#a7a9ac"><path d="m11 9h-4v4h4v-4"/><path d="m21 9h-4v4h4v-4"/><path d="m31 9h-4v4h4v-4"/><path d="m11 3h-4v4h4v-4"/><path d="m21 3h-4v4h4v-4"/><path d="m31 3h-4v4h4v-4"/></g><path d="m0 0c-1.104 0-2-.896-2-2 0-.457.159-.873.417-1.209-.247-.183-.417-.461-.417-.791 0-.552.448-1 1-1 .552 0 1 .448 1 1 1.104 0 2 .896 2 2 0 1.104-.896 2-2 2" fill="#d1d3d4" transform="translate(10 37)" id="4"/><use transform="translate(10)" xlink:href="#4"/><path d="m0 0c-1.104 0-2-.896-2-2 0-.457.159-.873.417-1.209-.247-.183-.417-.461-.417-.791 0-.552.447-1 1-1 .553 0 1 .448 1 1 1.104 0 2 .896 2 2 0 1.104-.896 2-2 2" fill="#d1d3d4" transform="translate(30 37)"/></g></g></svg>