<svg xmlns="http://www.w3.org/2000/svg" viewBox="0 0 47.5 47.5" enable-background="new 0 0 47.5 47.5"><defs><clipPath id="0"><path d="m0 38h38v-38h-38v38"/></clipPath></defs><g transform="matrix(1.25 0 0-1.25 0 47.5)"><g clip-path="url(#0)"><path d="m0 0c0-2.209-.791-4-3-4h-7c-4 0-4 14 0 14h7c2.209 0 3-1.791 3-4v-6" fill="#553788" transform="translate(16 6)"/><path d="m0 0h-1v10h1c.553 0 1 .447 1 1 0 .553-.447 1-1 1h-24c-4 0-4-14 0-14h24c.553 0 1 .447 1 1 0 .553-.447 1-1 1" fill="#9266cc" transform="translate(35 4)"/><path d="m0 0h-23.17c-2 0-2 10 0 10h23.17c1.104 0 1.104-10 0-10" fill="#ccd6dd" transform="translate(35.17 4)"/><path d="m0 0h23.35c-.135 1.175-.361 2-.678 2h-23.17c-1.651 0-1.938-6.808-.863-9.187-.392 2.958.062 7.187 1.363 7.187" fill="#99aab5" transform="translate(12.5 12)"/><path d="m0 0c0-2.209-1.791-4-4-4h-4c-4 0-4 11 0 11h4c2.209 0 4-1.791 4-4v-3" fill="#269" transform="translate(13 29)"/><path d="m0 0h-1v7h1c.553 0 1 .447 1 1 0 .553-.447 1-1 1h-24c-4 0-4-11 0-11h24c.553 0 1 .447 1 1 0 .553-.447 1-1 1" fill="#55acee" transform="translate(32 27)"/><path d="m0 0h-23.17c-2 0-2 7 0 7h23.17c1.104 0 1.104-7 0-7" fill="#ccd6dd" transform="translate(32.17 27)"/><path d="m0 0h23.925c-.114 1.125-.364 2-.753 2h-23.17c-1.193 0-1.669-2.489-1.438-4.5.156 1.358.631 2.5 1.438 2.5" fill="#99aab5" transform="translate(9 32)"/><path d="m0 0c0-2.209-1.791-4-4-4h-10c-4 0-4 9 0 9h10c2.209 0 4-1.791 4-4v-1" fill="#f4900c" transform="translate(21 20)"/><path d="m0 0h-1v5h1c.553 0 1 .447 1 1 0 .553-.447 1-1 1h-20c-4 0-4-9 0-9h20c.553 0 1 .447 1 1 0 .553-.447 1-1 1" fill="#ffac33" transform="translate(36 18)"/><path d="m0 0h-19.17c-2 0-2 5 0 5h19.17c1.104 0 1.104-5 0-5" fill="#ccd6dd" transform="translate(36.17 18)"/><path d="m0 0h19.984c-.064 1.062-.334 2-.812 2h-19.17c-1.274 0-1.733-2.027-1.383-3.5.198.839.657 1.5 1.383 1.5" fill="#99aab5" transform="translate(17 21)"/></g></g></svg>