<svg xmlns="http://www.w3.org/2000/svg" viewBox="0 0 47.5 47.5" enable-background="new 0 0 47.5 47.5"><defs><clipPath id="0"><path d="m0 38h38v-38h-38v38"/></clipPath></defs><g transform="matrix(1.25 0 0-1.25 0 47.5)"><g clip-path="url(#0)"><path d="m0 0c0-9.389-7.611-17-17-17-9.389 0-17 7.611-17 17 0 9.389 7.611 17 17 17 9.389 0 17-7.611 17-17" fill="#ffcc4d" transform="translate(36 19)"/><g fill="#664500"><path d="m0 0c0-1.657-.96-3-2.143-3-1.184 0-2.143 1.343-2.143 3 0 1.657.959 3 2.143 3 1.183 0 2.143-1.343 2.143-3" transform="translate(15 23)"/><path d="m0 0c0-1.547-.895-2.8-2-2.8-1.104 0-2 1.253-2 2.8 0 1.546.896 2.8 2 2.8 1.105 0 2-1.254 2-2.8" transform="translate(27 23.2)"/><path d="m0 0c0-2.763-1.792-5-4-5-2.21 0-4 2.237-4 5 0 2.761 1.79 5 4 5 2.208 0 4-2.239 4-5" transform="translate(23 12)"/></g></g></g></svg>