<svg xmlns="http://www.w3.org/2000/svg" viewBox="0 0 47.5 47.5" enable-background="new 0 0 47.5 47.5"><defs><clipPath id="0"><path d="m0 38h38v-38h-38v38"/></clipPath></defs><g transform="matrix(1.25 0 0-1.25 0 47.5)"><g clip-path="url(#0)"><path d="m0 0c7.361-7.359 9.35-17.304 4.443-22.21-4.907-4.907-14.85-2.918-22.21 4.441-.25.25-.478.51-.715.766l4.417 4.417c5.724-5.724 13.02-7.714 16.286-4.442 3.271 3.27 1.282 10.563-4.442 16.287l.023-.021c-.008.007-.015.015-.021.022-6.542 6.542-15.492 8.198-19.989 3.701-2.175-2.174-2.897-5.392-2.338-8.872-.858 4.082-.15 7.866 2.338 10.352 4.906 4.907 14.849 2.918 22.21-4.442" fill="#fdd888" transform="translate(29.865 29.866)"/><path d="m0 0c-.252 0-.503.077-.719.231l-5.076 3.641-5.076-3.641c-.433-.309-1.013-.309-1.443.005-.43.312-.611.865-.45 1.369l1.893 5.955-5.03 3.701c-.428.315-.606.869-.442 1.375.164.504.634.846 1.164.85l6.247.039 1.967 5.93c.168.504.639.844 1.17.844.531 0 1-.34 1.17-.844l1.967-5.93 6.246-.039c.532-.004 1-.346 1.165-.85.164-.506-.014-1.06-.441-1.375l-5.03-3.701 1.894-5.955c.162-.504-.021-1.057-.449-1.369-.217-.158-.471-.236-.725-.236" fill="#fcab40" transform="translate(20.403 3.701)"/></g></g></svg>