<svg xmlns="http://www.w3.org/2000/svg" viewBox="0 0 47.5 47.5" enable-background="new 0 0 47.5 47.5"><defs><clipPath id="0"><path d="m0 38h38v-38h-38v38"/></clipPath></defs><g transform="matrix(1.25 0 0-1.25 0 47.5)"><g clip-path="url(#0)"><path d="m0 0c0 4.155-3.169 7.568-7.221 7.96-.895 4.03-4.482 7.04-8.779 7.04-4.971 0-9-3.561-9-8.531 0-1.157.25-2.906 1.121-3.785-3.262-.184-8.03-.284-12.12.301 0 0 4.816-3.83 15.357-3.985-.15-.313-.253-1.43-.306-1.786-.248-.003-.594-.009-1.051-.009-8 0-14 .795-14 .795 0 0 3-3.234 15.406-4.106-.406-.128-.406-1.894-.406-1.894-8 0-15 1-15 1 3.362-2.802 6.724-4.03 9.03-4.574-.011-.142-.03-.281-.03-.426 0-3.313 2.687-5 6-5 .487 0 .958.064 1.412.174 1.597-2.507 4.395-4.174 7.588-4.174 4.971 0 9 4.03 9 9 0 1.788-.527 3.449-1.427 4.851 2.622 1.312 4.427 4.02 4.427 7.149" fill="#bdddf4" transform="translate(37 22)"/></g></g></svg>