<svg xmlns="http://www.w3.org/2000/svg" viewBox="0 0 47.5 47.5" enable-background="new 0 0 47.5 47.5" xmlns:xlink="http://www.w3.org/1999/xlink"><defs><clipPath id="0"><path d="m1 1h36v36h-36v-36"/></clipPath><clipPath id="1"><path d="m0 38h38v-38h-38v38"/></clipPath></defs><g transform="matrix(1.25 0 0-1.25 0 47.5)"><g clip-path="url(#0)"><path d="m0 0c-1.721 0-3.343-.406-4.793-1.111-.393.069-.795.111-1.207.111-3.866 0-7-3.134-7-7v-12h.018c.183-6.467 5.471-11.656 11.982-11.656 6.511 0 11.799 5.189 11.982 11.656h.018v9c0 6.075-4.925 11-11 11" fill="#642116" transform="translate(4 37)"/><path d="m0 0h-1-16-1c-2.209 0-4-1.791-4-4v-5h5 16 5v5c0 2.209-1.791 4-4 4" fill="#9268ca" transform="translate(12 10)"/><path d="m12 1h-1v4h1v-4" fill="#7450a8"/><g fill="#d79e84"><path d="m0 0v4.995h-6v-5c0-1.657 1.344-3 3-3 1.658 0 3 1.343 3 3 0 .002 0 .003 0 .005" transform="translate(6 9)"/><path d="m0 0h-5v-12c0-4.971 4.03-9 9-9 4.971 0 9 4.03 9 9v5.02c-11.11.376-13 6.981-13 6.981" transform="translate(-1 32)"/></g><path d="m0 0h-4-4c0 0 1-2 4-2 3 0 4 2 4 2" fill="#bb1a34" transform="translate(7 15)"/></g><g clip-path="url(#1)"><path d="m0 0c-.552 0-1 .448-1 1v1c0 .552.448 1 1 1 .552 0 1-.448 1-1v-1c0-.552-.448-1-1-1" fill="#292f33" transform="translate(7 21)"/><path d="m0 0h-2c-.276 0-.5.224-.5.5 0 .276.224.5.5.5h2c.276 0 .5-.224.5-.5 0-.276-.224-.5-.5-.5" fill="#bf6952" transform="translate(4 17.5)" id="2"/></g><g clip-path="url(#0)"><path d="m0 0c0-6.075-4.925-11-11-11-6.075 0-11 4.925-11 11 0 6.075 4.925 11 11 11 6.075 0 11-4.925 11-11" fill="#292f33" transform="translate(45 26)"/><g fill="#d79e84"><path d="m0 0v5h-6v-5h-2v-8h10v8h-2" transform="translate(38 10)"/><path d="m0 0v-7c-8.453 0-11.94 3.471-13.266 5.524-.42-1.803-1.437-4.699-3.734-5.368v-5.156c0-4.971 4.03-9 9-9 4.971 0 9 4.03 9 9v12h-1" transform="translate(43 32)"/></g><path d="m0 0h6l3-5 3 5.094 6-.094c2.209 0 4-1.791 4-4v-5h-5-16-5v5c0 2.209 1.791 4 4 4" fill="#4289c1" transform="translate(26 10)"/><path d="m26 1h1v4h-1v-4" fill="#2a6797"/><path d="m0 0h4 4c0 0-1-2-4-2-3 0-4 2-4 2" fill="#bf6952" transform="translate(31 15)"/></g><g clip-path="url(#1)"><path d="m0 0c-.553 0-1 .448-1 1v1c0 .552.447 1 1 1 .553 0 1-.448 1-1v-1c0-.552-.447-1-1-1" fill="#2a6797" transform="translate(31 21)"/><use transform="translate(32)" xlink:href="#2"/></g><g clip-path="url(#1)"><path d="m0 0c0 2.602-2.109 4.711-4.711 4.711-1.579 0-2.973-.78-3.828-1.972-.856 1.192-2.249 1.972-3.827 1.972-2.602 0-4.711-2.109-4.711-4.711 0-.369.047-.727.127-1.07.654-4.065 5.173-8.353 8.411-9.53 3.238 1.177 7.758 5.465 8.412 9.529.08.344.127.702.127 1.071" fill="#e75a70" transform="translate(27.08 32.29)"/></g></g></svg>