<svg xmlns="http://www.w3.org/2000/svg" viewBox="0 0 47.5 47.5" enable-background="new 0 0 47.5 47.5" xmlns:xlink="http://www.w3.org/1999/xlink"><defs><clipPath id="0"><path d="m0 38h38v-38h-38v38"/></clipPath></defs><g transform="matrix(1.25 0 0-1.25 0 47.5)"><g clip-path="url(#0)"><path d="m0 0c0-1.656 1.974-3-.512-3-2.485 0-7.988 2-7.988 3 0 1 3.515 3 6 3 2.485 0 2.5-1.343 2.5-3" fill="#ffac33" transform="translate(9.512 21)"/><path d="m0 0c-.098.18-.25.302-.418.391-1.597 1.706-.462 3.707-.462 3.707 0 .552 1 2 0 2l-1-1c-1-1-1-4-1-4h-2c-.553 0-1-.448-1-1 0-.553.447-1 1-1h1.108l-.222-.12c-.486-.263-.667-.87-.404-1.356.262-.486.869-.667 1.355-.404l2.639 1.427c.486.262.667.869.404 1.355" fill="#ffac33" transform="translate(28.88 3.902)" id="1"/><use transform="translate(-7)" xlink:href="#1"/><path d="m0 0c-1.342 0-7.904-4.613-11.553 5.375-.005.014-.011.024-.017.038-.996 3.595-4.047 6.327-7.813 6.858-2.696 2.416-6.834 2.544-6.834 1.104 0-.958 1.15-1.227 2.564-1.468-3.808-1.237-6.564-4.811-6.564-9.03 0-4.479 3.103-8.223 7.274-9.227 1-4.17 4.748-7.273 9.226-7.273 3.953 0 6.934 1.678 8.99 3.999.555.626.112-.603.842-.235 4.24 2.132 5.168 9.861 3.885 9.861" fill="#dd2e44" transform="translate(36.22 19.625)"/><path d="m0 0c0-1.104-.896-2-2-2-1.104 0-2 .896-2 2 0 1.104.896 2 2 2 1.104 0 2-.896 2-2" fill="#292f33" transform="translate(13 25)"/><path d="m0 0c0 0-2-10 10-10 1 0 0-2-4-2-4 0-9.999 5-7 11 .633 1.265 1 1 1 1" fill="#a0041e" transform="translate(22.811 21)"/></g></g></svg>