<svg xmlns="http://www.w3.org/2000/svg" viewBox="0 0 47.5 47.5" enable-background="new 0 0 47.5 47.5"><defs><clipPath id="0"><path d="m0 38h38v-38h-38v38"/></clipPath></defs><g transform="matrix(1.25 0 0-1.25 0 47.5)"><g clip-path="url(#0)"><path d="m0 0c0-7.456-8.06-12-18-12-9.941 0-18 4.544-18 12 0 7.456 8.06 15 18 15 9.941 0 18-7.544 18-15" fill="#c6e5b3" transform="translate(37 15)"/><path d="m0 0c1.368 1.1 2.245 2.785 2.245 4.676 0 3.313-2.686 6-6 6-2.861 0-5.25-2.01-5.85-4.685-1.289.483-2.684.758-4.15.758-1.465 0-2.861-.275-4.149-.758-.601 2.68-2.99 4.685-5.851 4.685-3.313 0-6-2.687-6-6 0-1.891.878-3.576 2.245-4.676-2.645-2.68-4.245-6.01-4.245-9.324 0-7.456 8.06-1 18-1 9.942 0 18-6.456 18 1 0 3.315-1.599 6.644-4.245 9.324" fill="#77b255" transform="translate(32.755 24.324)"/><path d="m0 0c0-1.933-1.567-3.5-3.5-3.5-1.933 0-3.5 1.567-3.5 3.5 0 1.933 1.567 3.5 3.5 3.5 1.933 0 3.5-1.567 3.5-3.5" fill="#fff" transform="translate(12 29.5)"/><path d="m0 0c0-.829-.671-1.5-1.5-1.5-.829 0-1.5.671-1.5 1.5 0 .829.671 1.5 1.5 1.5.829 0 1.5-.671 1.5-1.5" fill="#292f33" transform="translate(10 29.5)"/><path d="m0 0c0-1.933-1.566-3.5-3.5-3.5-1.934 0-3.5 1.567-3.5 3.5 0 1.933 1.566 3.5 3.5 3.5 1.934 0 3.5-1.567 3.5-3.5" fill="#fff" transform="translate(33 29.5)"/><path d="m0 0c0-.829-.672-1.5-1.5-1.5-.828 0-1.5.671-1.5 1.5 0 .829.672 1.5 1.5 1.5.828 0 1.5-.671 1.5-1.5" fill="#292f33" transform="translate(31 29.5)"/><g fill="#5c913b"><path d="m0 0c0-.553-.448-1-1-1-.552 0-1 .447-1 1 0 .553.448 1 1 1 .552 0 1-.447 1-1" transform="translate(16 17)"/><path d="m0 0c0-.553-.447-1-1-1-.553 0-1 .447-1 1 0 .553.447 1 1 1 .553 0 1-.447 1-1" transform="translate(24 17)"/></g></g></g></svg>