<svg xmlns="http://www.w3.org/2000/svg" viewBox="0 0 47.5 47.5" enable-background="new 0 0 47.5 47.5"><defs><clipPath id="0"><path d="m0 38h38v-38h-38v38"/></clipPath></defs><g transform="matrix(1.25 0 0-1.25 0 47.5)"><g clip-path="url(#0)"><path d="m0 0c0-2.209-1.791-4-4-4h-28c-2.209 0-4 1.791-4 4v28c0 2.209 1.791 4 4 4h28c2.209 0 4-1.791 4-4v-28" fill="#f4900c" transform="translate(37 5)"/><path d="m0 0c.832 0 1.093.26 1.093.963v3.718h-7.541v-4.681h6.448m1.093 6.501v3.25c0 .702-.261.962-1.093.962h-6.448v-4.212h7.541zm-16.641-1.82v-3.718c0-.703.234-.963 1.091-.963h5.981v4.681h-7.07m1.091 6.03c-.857 0-1.091-.26-1.091-.962v-3.25h7.07v4.212h-5.981m5.981 4.758c0 .494.39.78 1.014.78.624 0 1.014-.286 1.014-.78v-2.938h7.125c1.69 0 2.391-.676 2.391-2.288v-9.751c0-1.611-.701-2.314-2.391-2.314h-7.125v-5.278c0-.519-.39-.779-1.014-.779-.624 0-1.014.26-1.014.779v5.278h-6.656c-1.691 0-2.392.703-2.392 2.314v9.751c0 1.612.701 2.288 2.392 2.288h6.656v2.938" fill="#fff" transform="translate(26.22 14.74)"/></g></g></svg>