<svg xmlns="http://www.w3.org/2000/svg" viewBox="0 0 47.5 47.5" enable-background="new 0 0 47.5 47.5" xmlns:xlink="http://www.w3.org/1999/xlink"><defs><path id="1" d="m0 0c0-.828-.672-1.5-1.5-1.5-.828 0-1.5.672-1.5 1.5 0 .828.672 1.5 1.5 1.5.828 0 1.5-.672 1.5-1.5"/><clipPath id="0"><path d="m0 38h38v-38h-38v38"/></clipPath></defs><g transform="matrix(1.25 0 0-1.25 0 47.5)"><g clip-path="url(#0)"><path d="m0 0c-.112-.112-.197-.247-.268-.395l-.008.008-11.216-25.27.011-.011c-.208-.403.14-1.223.853-1.937.712-.712 1.532-1.06 1.935-.852l.01-.01 25.27 11.215-.008.009c.148.07.282.155.395.268 1.562 1.562-.971 6.627-5.657 11.313-4.686 4.687-9.752 7.219-11.314 5.657" fill="#dd2e44" transform="translate(12.626 29.512)"/><path d="m0 0l-12.584-20.506-.282-.635.011-.01c-.208-.404.14-1.223.853-1.937.232-.232.472-.408.709-.557l15.293 18.645-4 5" fill="#ea596e" transform="translate(14 25)"/><path d="m0 0c4.67-4.672 7.263-9.652 5.789-11.125-1.473-1.473-6.453 1.119-11.126 5.789-4.671 4.672-7.263 9.653-5.79 11.127 1.474 1.473 6.454-1.12 11.127-5.791" fill="#a0041e" transform="translate(24.01 23.934)"/><path d="m0 0c-.199-.161-.459-.245-.734-.215-.868.094-1.598.396-2.109.873-.541.505-.808 1.182-.735 1.862.128 1.192 1.324 2.286 3.363 2.065.793-.085 1.147.17 1.158.292.014.121-.277.446-1.069.532-.869.094-1.598.396-2.11.873-.541.505-.809 1.183-.735 1.862.13 1.192 1.325 2.286 3.362 2.065.578-.062.882.058 1.01.135.104.063.145.123.149.157.011.121-.276.446-1.071.532-.548.06-.946.552-.886 1.102.059.549.551.946 1.101.886 2.037-.219 2.973-1.542 2.844-2.735-.129-1.192-1.324-2.285-3.363-2.065-.578.063-.881-.057-1.01-.134-.103-.063-.145-.124-.149-.157-.013-.122.276-.447 1.071-.533 2.037-.219 2.973-1.542 2.844-2.735-.129-1.192-1.325-2.286-3.362-2.065-.578.062-.882-.057-1.012-.134-.103-.063-.143-.124-.147-.158-.013-.121.276-.446 1.07-.532.548-.059.947-.552.886-1.101-.029-.275-.168-.511-.367-.672" fill="#aa8dd8" transform="translate(19.59 23.391)"/><path d="m0 0c1.973.557 3.334-.323 3.658-1.478.324-1.154-.378-2.615-2.349-3.169-.77-.216-1-.584-.97-.702.034-.118.425-.312 1.193-.094 1.972.554 3.333-.326 3.657-1.48.327-1.155-.377-2.614-2.35-3.17-.769-.216-1-.585-.967-.702.033-.117.423-.31 1.192-.095.531.15 1.084-.16 1.234-.691.148-.532-.161-1.084-.694-1.234-1.97-.555-3.333.323-3.659 1.479-.324 1.154.379 2.613 2.353 3.169.769.217 1 .584.967.702-.033.117-.422.312-1.191.096-1.973-.556-3.334.322-3.659 1.478-.325 1.155.378 2.614 2.352 3.17.767.215.999.585.966.701-.034.119-.422.313-1.192.096-.532-.15-1.083.16-1.233.692-.15.531.16 1.083.692 1.232" fill="#77b255" transform="translate(31.661 14.14)"/><path d="m0 0c-.294 0-.584.129-.782.375-.345.432-.275 1.061.156 1.406.218.175 5.418 4.259 12.767 3.208.547-.078.926-.584.848-1.131-.078-.546-.58-.93-1.132-.848-6.493.922-11.187-2.754-11.233-2.791-.185-.148-.405-.219-.624-.219" fill="#aa8dd8" transform="translate(24 16.84)"/><path d="m0 0c-.095 0-.192.014-.288.042-.529.159-.829.717-.67 1.246 1.133 3.773 2.16 9.794.898 11.363-.142.178-.354.353-.842.316-.939-.071-.849-2.051-.848-2.071.042-.551-.372-1.031-.922-1.072-.559-.034-1.032.372-1.072.923-.104 1.379.326 4.04 2.691 4.214 1.056.08 1.933-.287 2.553-1.057 2.371-2.951-.036-11.507-.543-13.192-.13-.433-.527-.712-.957-.712" fill="#77b255" transform="translate(6.754 21)"/><use fill="#5c913b" transform="translate(28 27.5)" xlink:href="#1"/><path d="m0 0c0-1.104-.896-2-2-2-1.104 0-2 .896-2 2 0 1.104.896 2 2 2 1.104 0 2-.896 2-2" fill="#9266cc" transform="translate(5 19)"/><g fill="#5c913b"><use transform="translate(35 17.5)" xlink:href="#1"/><use transform="translate(26 5.5)" xlink:href="#1"/></g><g fill="#ffcc4d"><path d="m0 0c0-1.104-.896-2-2-2-1.104 0-2 .896-2 2 0 1.104.896 2 2 2 1.104 0 2-.896 2-2" transform="translate(31 33)"/><use transform="translate(35 28.5)" xlink:href="#1"/><use transform="translate(32 24.5)" xlink:href="#1"/><use transform="translate(10 13.5)" xlink:href="#1"/></g></g></g></svg>