<svg xmlns="http://www.w3.org/2000/svg" viewBox="0 0 47.5 47.5" enable-background="new 0 0 47.5 47.5"><defs><clipPath id="0"><path d="m0 38h38v-38h-38v38"/></clipPath></defs><g transform="matrix(1.25 0 0-1.25 0 47.5)"><g clip-path="url(#0)"><path d="m0 0c0-2.209-1.791-4-4-4h-28c-2.209 0-4 1.791-4 4v28c0 2.209 1.791 4 4 4h28c2.209 0 4-1.791 4-4v-28" fill="#3b88c3" transform="translate(37 5)"/><g fill="#fff"><path d="m0 0c0 1.2.768 1.872 1.8 1.872.456 0 1.2-.36 1.513-.792l7.608-10.153h.048v9.07c0 1.2.768 1.872 1.8 1.872 1.032 0 1.8-.672 1.8-1.872v-13.633c0-1.2-.768-1.872-1.8-1.872-.456 0-1.176.359-1.512.792l-7.609 10.03h-.047v-8.953c0-1.2-.768-1.872-1.801-1.872-1.032 0-1.8.672-1.8 1.872v13.633" transform="translate(3.508 26.361)"/><path d="m0 0c1.512 0 2.111-.768 2.111-2.305 0-4.632-3.02-8.112-7.824-8.112-4.873 0-8.257 3.864-8.257 8.833 0 4.992 3.361 8.833 8.257 8.833 3.623 0 6.6-1.705 6.6-3.385 0-1.032-.647-1.68-1.489-1.68-1.63 0-1.966 1.753-5.111 1.753-3 0-4.513-2.617-4.513-5.521 0-2.929 1.464-5.52 4.513-5.52 1.897 0 4.08 1.055 4.08 3.791h-2.447c-.984 0-1.682.697-1.682 1.681 0 1.01.77 1.632 1.682 1.632h4.08" transform="translate(32.91 21.13)"/></g></g></g></svg>