<svg xmlns="http://www.w3.org/2000/svg" viewBox="0 0 47.5 47.5" enable-background="new 0 0 47.5 47.5"><defs><clipPath id="0"><path d="m0 38h38v-38h-38v38"/></clipPath></defs><g transform="matrix(1.25 0 0-1.25 0 47.5)"><g clip-path="url(#0)"><path d="m0 0c-4.139 0-6-3.509-6-6 0-2.57 2.43-5 5-5 1.92 0 3.468 1.28 3.766 3.113.231 1.426-.437 3.165-2.45 3.836-.528.176-1.089-.109-1.264-.633-.175-.524.108-1.09.632-1.265 1.173-.391 1.166-1.261 1.107-1.618-.111-.69-.72-1.433-1.791-1.433-1.458 0-3 1.542-3 3 0 1.305.978 4 4 4 2.897 0 5-2.523 5-6v-15c0-3.576-1.352-5.685-4.285-6.544.11 1.017.193 2.223.24 3.655.604 3.163.103 7.131-1.776 10.889-1.865 3.727-5.926 5.939-10.02 5.695-.231 5.117-3.034 9.305-8.748 9.305-5.971 0-6.229-7-9.229-11.399-1.351-1.983 5.428-7.06 9.229-7.06.014 0 .029.002.043.002.352-.029.801.009 1.362.13.57.102 1.148.267 1.718.489 2.731.835 4.376.891 5.319.443-.712-3.368-3.822-6.228-5.849-9.607-3-5 1-8 3-8 3 0 3 3 2 3-2 0-2.632 3.103-2 5 .658 1.974 2.609 3.521 3.871 6.05-.263-1.68-.871-3.596-.871-5.05 0-4.568 1.17-6 6-6 .188 0 .36.034.541.052-.176-.031-.354-.052-.541-.052-4.694 0-5.5-.896-5.5-2 0-.809.5-1 1.5-1h7c.651 0 1.728.003 2.398 3.321 4.384.923 6.602 3.831 6.602 8.679v15c0 4.561-3.01 8-7 8" fill="#bf6952" transform="translate(30 36)"/><g fill="#d79e84"><path d="m0 0c0 2.099-1.702 3.799-3.8 3.799-2.099 0-3.801-1.7-3.801-3.799 0-.275.033-.542.088-.801-1.033-.378-1.996-1.145-2.655-2.4-.255-.486-.53-.956-.832-1.399-.711-1.044.83-2.944 3-4.51 1.956-1.409 5.996-.519 5.996 4.909 0 .29-.039.561-.097.822 1.239.625 2.097 1.896 2.097 3.379" transform="translate(12.178 29.2)"/><path d="m0 0c0-1.933-.255-3.5 1.678-3.5 1.934 0 3.5 1.567 3.5 3.5 0 1.933-1.566 3.5-3.5 3.5-1.933 0-1.678-1.567-1.678-3.5" transform="translate(14.822 30.5)"/></g><path d="m0 0c0-.899-.485-1.629-1.085-1.629-.601 0-1.086.73-1.086 1.629 0 .899.485 1.628 1.086 1.628.6 0 1.085-.729 1.085-1.628" fill="#292f33" transform="translate(8.435 28.629)"/><path d="m0 0c0-.552-2.17-2-3.085-2-.915 0-.915.448-.915 1h.915c1.086 0 3.085 1.552 3.085 1" fill="#642116" transform="translate(5 25)"/></g></g></svg>