<svg xmlns="http://www.w3.org/2000/svg" viewBox="0 0 47.5 47.5" enable-background="new 0 0 47.5 47.5" xmlns:xlink="http://www.w3.org/1999/xlink"><defs><clipPath id="0"><path d="m0 38h38v-38h-38v38"/></clipPath></defs><g transform="matrix(1.25 0 0-1.25 0 47.5)"><g clip-path="url(#0)"><path d="m0 0c0-1.104-.896-2-2-2h-10c-1.104 0-2 .896-2 2v2c0 1.104.896 2 2 2h10c1.104 0 2-.896 2-2v-2" fill="#58595b" transform="translate(31 21)"/><path d="m0 0c-2.209 0-4-1.791-4-4v-10c0-4.418 3.582-8 8-8h28v22h-32" fill="#f4900c" transform="translate(5 23)"/><path d="m0 0h35.413v2h-35.931c.087-.698.263-1.369.518-2" fill="#ffd983" transform="translate(1.587 6)"/><path d="m37 29h-36v6h36v-6" fill="#808285"/><path d="m37 31h-36v2h36v-2" fill="#414042"/><path d="m0 0h-10c-1.657 0-3-1.343-3-3 0-1.657 1.343-3 3-3h3v-4l-2-2h8l-2 2v4h3c1.657 0 3 1.343 3 3 0 1.657-1.343 3-3 3" fill="#a7a9ac" transform="translate(29 37)"/><path d="m15 8h22v15h-22v-15" fill="#3b88c3"/><path d="m0 0c0-1.104-.896-2-2-2h-4c-1.104 0-2 .896-2 2v6c0 1.104.896 2 2 2h4c1.104 0 2-.896 2-2v-6" fill="#58595b" transform="translate(13 12)"/><path d="m0 0c0-1.104-.896-2-2-2h-4c-1.104 0-2 .896-2 2v4c0 1.104.896 2 2 2h4c1.104 0 2-.896 2-2v-4" fill="#414042" transform="translate(25 14)" id="1"/><use transform="translate(10)" xlink:href="#1"/><path d="m0 0v-10c1.104 0 2 .896 2 2v6c0 1.104-.896 2-2 2" fill="#58595b" transform="translate(1 20)"/></g></g></svg>