<svg xmlns="http://www.w3.org/2000/svg" viewBox="0 0 47.5 47.5" enable-background="new 0 0 47.5 47.5"><defs><clipPath id="0"><path d="m0 38h38v-38h-38v38"/></clipPath></defs><g transform="matrix(1.25 0 0-1.25 0 47.5)"><g clip-path="url(#0)"><path d="m0 0c0-.256-.122-.486-.317-.682l-13.999-14c-.391-.39-1.024-.39-1.415 0-.391.391-.39 1.024 0 1.414l14 14c.39.391 1.036.378 1.426-.013.195-.194.305-.461.305-.719" fill="#4289c1" transform="translate(19.389 18.18)"/><path d="m0 0c0 4.841-3.924 8.764-8.764 8.764-2.937 0-5.53-1.451-7.121-3.667-1.59 2.216-4.183 3.667-7.12 3.667-4.841 0-8.765-3.923-8.765-8.764 0-.686.087-1.351.236-1.99 1.218-7.562 9.624-15.538 15.649-17.729 6.03 2.191 14.432 10.167 15.648 17.728.15.64.237 1.305.237 1.991" fill="#e75a70" transform="translate(33.885 22.887)"/><g fill="#5dadec"><path d="m0 0c.306-.42.592-1.257.592-1.934 0-1.964-.717-4.654-2.386-6.334l-3.872-2.955c-.275-.274-.788-.357-1.144-.21-.359.148-.814-.73-.814-.342v5.058c0 1.867 3.686 6.296 3.686 6.296.843.773 1.683 1.183 2.44 1.182.622.001 1.141-.271 1.498-.761" transform="translate(30.624 35.705)"/><path d="m0 0c0-.771-.417-1.837-1.204-2.695 0 0-4.509-4.451-6.41-4.451h-5.164c-.396 0 .513.92.363 1.286-.15.363-.066 1.125.214 1.405l3.124 3.271c1.711 1.7 4.619 3.115 6.62 3.115.689 0 1.255-.117 1.682-.426.499-.365.775-.871.775-1.505" transform="translate(36.629 29.15)"/></g><g fill="#2a6797"><path d="m0 0c0-.256-.122-.487-.317-.683l-14.999-15c-.391-.39-1.024-.39-1.415 0-.391.391-.39 1.024 0 1.414l15 15c.39.391 1.036.378 1.426-.012.195-.195.305-.462.305-.719" transform="translate(33.389 32.19)"/><path d="m0 0c-.259 0-.511.101-.701.286-.252.248-.355.611-.27.955l1.625 6.541c.113.452.521.73.989.759.465-.009.864-.337.961-.793.031-.144.833-3.636 4.051-4.01.477-.055.848-.44.884-.92.035-.478-.275-.915-.739-1.039l-6.542-1.75c-.085-.023-.172-.034-.258-.034" transform="translate(2.75 1.534)"/></g><path d="m0 0c-.488 0-.915.357-.988.854-.477 3.245-2.355 3.608-4.171 3.959l-.417.083c-.541.112-.889.641-.777 1.182.112.54.639.885 1.182.776l.392-.077c1.903-.368 5.086-.984 5.77-5.631.08-.547-.298-1.055-.844-1.135-.049-.008-.098-.011-.147-.011" fill="#da2f47" transform="translate(18.374 12.472)"/></g></g></svg>