<svg xmlns="http://www.w3.org/2000/svg" viewBox="0 0 47.5 47.5" enable-background="new 0 0 47.5 47.5"><defs><clipPath id="0"><path d="m0 38h38v-38h-38v38"/></clipPath></defs><g transform="matrix(1.25 0 0-1.25 0 47.5)"><g clip-path="url(#0)"><path d="m0 0c-4.687 3.515-6 6-8 6-2 0-2-1-3-1-1 0-1 1-3 1-2 0-3.313-2.485-8-6-4-3-7-3-7-5 0-2 5-6 8-9 2-2 5-4 10-4 5 0 8 2 10 4 3 3 8 7 8 9 0 2-3 2-7 5" fill="#e75a70" transform="translate(30 25)"/><path d="m0 0c-4.426 1.465-7.389 2.083-10.389 2.083-3 0-5.962-.618-10.388-2.083-3.778-1.25-6.612-.667-6.612-1.5 0-.834 9-5 17-5 8 0 17 4.166 17 5 0 .833-2.834.25-6.611 1.5" fill="#662113" transform="translate(29.389 21.5)"/><path d="m0 0c-4.426 1.465-7.389 2.083-10.389 2.083-3 0-5.962-.618-10.388-2.083-3.624-1.199-6.371-.715-6.59-1.408 2.454-.385 9.119.644 16.978.644 7.86 0 14.525-1.029 16.979-.644-.219.693-2.967.209-6.59 1.408" fill="#fff" transform="translate(29.389 21.5)"/></g></g></svg>