<svg xmlns="http://www.w3.org/2000/svg" viewBox="0 0 47.5 47.5" enable-background="new 0 0 47.5 47.5" xmlns:xlink="http://www.w3.org/1999/xlink"><defs><clipPath id="0"><path d="m0 38h38v-38h-38v38"/></clipPath></defs><g transform="matrix(1.25 0 0-1.25 0 47.5)"><g clip-path="url(#0)"><g fill="#292f33"><path d="m0 0c0-2.762-2.238-5-5-5-2.762 0-5 2.238-5 5 0 2.762 2.238 5 5 5 2.762 0 5-2.238 5-5" transform="translate(29 11)"/><path d="m0 0c0-2.762-2.239-5-5-5-2.761 0-5 2.238-5 5 0 2.762 2.239 5 5 5 2.761 0 5-2.238 5-5" transform="translate(19 11)"/><path d="m27 10h-16v16h16v-16"/><g transform="translate(19 18)"><path d="m0 0c0 4.418-3.582 8-8 8-4.111 0-7.494-3.103-7.945-7.093l-.004.002-2-12.36.004-.003c-.033-.178-.055-.359-.055-.546 0-1.657 1.343-3 3-3 .68 0 1.3.234 1.803.616l.009-.006 10.157 8.127c.059.047.119.093.177.142l.072.058-.006.002c1.705 1.467 2.788 3.636 2.788 6.06"/><path d="m0 0c0 4.418 3.582 8 8 8 4.111 0 7.494-3.103 7.945-7.093l.004.002 2-12.36-.004-.003c.033-.178.055-.359.055-.546 0-1.657-1.343-3-3-3-.68 0-1.3.234-1.803.616l-.009-.006-10.157 8.127c-.059.047-.119.093-.177.142l-.072.058.005.002c-1.703 1.467-2.787 3.636-2.787 6.06"/></g></g><path d="m0 0c0-2.761 2.24-5 5-5 2.762 0 5 2.239 5 5 0 2.761-2.238 5-5 5-2.76 0-5-2.239-5-5" fill="#f18f26" transform="translate(23 19)"/><path d="m0 0c0-1.657-1.343-3-3-3-1.657 0-3 1.343-3 3 0 1.657 1.343 3 3 3 1.657 0 3-1.343 3-3" fill="#67757f" transform="translate(27 11)" id="1"/><use transform="translate(-10)" xlink:href="#1"/><path d="m0 0c0-2.761 2.24-5 5-5 2.762 0 5 2.239 5 5 0 2.761-2.238 5-5 5-2.76 0-5-2.239-5-5" fill="#67757f" transform="translate(5 19)"/><g fill="#f18f26"><path d="m0 0c0-.829-.672-1.5-1.5-1.5-.828 0-1.5.671-1.5 1.5 0 .829.672 1.5 1.5 1.5.828 0 1.5-.671 1.5-1.5" transform="translate(29 21.5)"/><path d="m0 0c0-.828-.672-1.5-1.5-1.5-.828 0-1.5.672-1.5 1.5 0 .828.672 1.5 1.5 1.5.828 0 1.5-.672 1.5-1.5" transform="translate(32 18.5)"/></g><g fill="#292f33"><path d="m0 0c-.552 0-1 .448-1 1 0 2.025-.545 2.795-1.071 3.54-.435.615-.929 1.313-.929 2.46 0 2.588 2.448 3.843 2.552 3.895.493.249 1.093.047 1.342-.447.247-.494.047-1.094-.447-1.342-.009-.004-1.447-.764-1.447-2.106 0-.491.172-.755.562-1.306.606-.858 1.438-2.033 1.438-4.694 0-.552-.448-1-1-1" transform="translate(19 26)"/><path d="m0 0c0-1.104-.896-2-2-2h-8c-1.104 0-2 .896-2 2 0 1.104.896 2 2 2h8c1.104 0 2-.896 2-2" transform="translate(25 26)"/></g></g></g></svg>