<svg xmlns="http://www.w3.org/2000/svg" viewBox="0 0 47.5 47.5" enable-background="new 0 0 47.5 47.5"><defs><clipPath id="0"><path d="m0 38h38v-38h-38v38"/></clipPath></defs><g transform="matrix(1.25 0 0-1.25 0 47.5)"><g clip-path="url(#0)"><path d="m0 0c6 0 16-3 16-16 0-13 0-16-3-16-3 0-7 3-13 3-6 0-9.915-3-13-3-3.343 0-3 12-3 16 0 13 10 16 16 16" fill="#ffd983" transform="translate(20 33)"/><path d="m0 0c0 8.526 5.373 15.438 12 15.438 6.627 0 12-6.912 12-15.438 0-8.525-5.373-15.438-12-15.438-6.627 0-12 6.913-12 15.438" fill="#d99e82" transform="translate(8 17.438)"/><path d="m0 0c-2.347 0-3.575 1.16-3.707 1.293-.391.391-.391 1.023 0 1.414.387.388 1.013.39 1.404.01.052-.047.806-.717 2.303-.717 1.519 0 2.273.689 2.305.719.399.374 1.027.363 1.408-.03.379-.392.38-1.01-.006-1.396-.132-.133-1.36-1.293-3.707-1.293" fill="#dd2e44" transform="translate(20 6)"/><path d="m0 0h-2c-.552 0-1 .447-1 1 0 .553.448 1 1 1h2c.553 0 1-.447 1-1 0-.553-.447-1-1-1" fill="#c1694f" transform="translate(21 11)"/><path d="m0 0c-.03.325-.064.647-.064 1 0 5 3-.563 3 3 0 3.563 2 4 4 6l3 3c0 0 5-3 9-3 4 0 8-2 8-6 0-4 3 2 3-3 0-.355-.034-.673-.058-1h1.049c.009 1.477.009 3.132.009 5 0 13-10 18-16 18-6 0-16-5-16-18 0-1.158-.029-2.986.012-5h1.052" fill="#ffd983" transform="translate(5.065 12)"/><path d="m0 0h20v1l-3 1-2 3-3-1-2 2-2-2-3 1-2-3-3-1v-1" fill="#a7a9ac" transform="translate(10 31)"/><g fill="#f1f2f2"><path d="m0 0c0 .829.448 1.5 1 1.5.553 0 1-.671 1-1.5 0-.829-.447-1.5-1-1.5-.552 0-1 .671-1 1.5" transform="translate(19 33.501)"/><path d="m0 0c0 .552.448 1 1 1 .552 0 1-.448 1-1 0-.552-.448-1-1-1-.552 0-1 .448-1 1" transform="translate(15 33)"/><path d="m0 0c0 .552.447 1 1 1 .553 0 1-.448 1-1 0-.552-.447-1-1-1-.553 0-1 .448-1 1" transform="translate(23 33)"/></g><g fill="#3b88c3"><path d="m0 0c-.552 0-1 .447-1 1v2c0 .553.448 1 1 1 .552 0 1-.447 1-1v-2c0-.553-.448-1-1-1" transform="translate(15 14)"/><path d="m0 0c-.553 0-1 .447-1 1v2c0 .553.447 1 1 1 .553 0 1-.447 1-1v-2c0-.553-.447-1-1-1" transform="translate(25 14)"/></g></g></g></svg>