<svg xmlns="http://www.w3.org/2000/svg" viewBox="0 0 47.5 47.5" enable-background="new 0 0 47.5 47.5" xmlns:xlink="http://www.w3.org/1999/xlink"><defs><path id="1" d="m0 0c0-.553-.447-1-1-1h-18c-.552 0-1 .447-1 1 0 .553.448 1 1 1h18c.553 0 1-.447 1-1" fill="#c1694f"/><clipPath id="0"><path d="m0 38h38v-38h-38v38"/></clipPath></defs><g transform="matrix(1.25 0 0-1.25 0 47.5)"><g clip-path="url(#0)"><path d="m0 0h-22c-2.209 0-4-1.791-4-4v-24h-2c-2.209 0-4-1.791-4-4 0-2.209 1.791-4 4-4h24c2.209 0 4 1.791 4 4v24c2.209 0 4 1.791 4 4 0 2.209-1.791 4-4 4" fill="#ffd983" transform="translate(33 37)"/><path d="m0 0h24v2h-22l-2 1v-3" fill="#e39f3d" transform="translate(9 27)"/><path d="m0 0c-2.209 0-4-1.791-4-4v-24.555c-.59.344-1.268.555-2 .555-2.209 0-4-1.791-4-4 0-2.209 1.791-4 4-4 2.209 0 4 1.791 4 4v24.555c.59-.344 1.268-.555 2-.555 2.209 0 4 1.791 4 4 0 2.209-1.791 4-4 4" fill="#ffe8b6" transform="translate(11 37)"/><path d="m0 0c0-1.104-.896-2-2-2-1.104 0-2 .896-2 2 0 1.104.896 2 2 2 1.104 0 2-.896 2-2" fill="#c1694f" transform="translate(13 33)" id="2"/><use transform="translate(-6-28)" xlink:href="#2"/><path d="m0 0c0-.552-.447-1-1-1h-18c-.552 0-1 .448-1 1 0 .552.448 1 1 1h18c.553 0 1-.448 1-1" fill="#c1694f" transform="translate(31 22)"/><use transform="translate(31 18)" xlink:href="#1"/><use transform="translate(31 14)" xlink:href="#1"/><use transform="translate(31 10)" xlink:href="#1"/></g></g></svg>