<svg xmlns="http://www.w3.org/2000/svg" viewBox="0 0 47.5 47.5" enable-background="new 0 0 47.5 47.5"><defs><clipPath id="0"><path d="m0 38h38v-38h-38v38"/></clipPath></defs><g transform="matrix(1.25 0 0-1.25 0 47.5)"><g clip-path="url(#0)"><path d="m0 0c0-2.209 1.791-4 4-4h28c2.209 0 4 1.791 4 4v28c0 2.209-1.791 4-4 4h-28c-2.209 0-4-1.791-4-4v-28" fill="#88c9f9" transform="translate(1 5)"/><path d="m15 3h2v32h-2v-32" fill="#58595b"/><path d="m0 0c0 0 2 3 4 3 2 0 3-1 3-3 0-2-2-4-1-6 0 0-2 3-1 5 1.413 2.829-4 3-3 0 1.14-3.421-2 1-2 1" fill="#dd2e44" transform="translate(25 22)"/><g fill="#939598"><path d="m0 0c0-2 1-3 3-3 2 0 1 0 0 2-1 2-3 3-3 3v-2" transform="translate(29 11)"/><path d="m0 0c0-2 2-4 3-4 1 0 1 1 0 2-1 1-3 3-1 3 2 0 3 0 4 1 1 1 1 3-1 2-2-1-3-2-4-2-1 0-1-2-1-2" transform="translate(7 14)"/></g><path d="m0 0c-2 0-3 0-4 4-.767 3.068-4 4-7 3 0 0-2 1-1 0 1-1 0-1 0-3 0-2 0-5 1-5 2 0 2 3 2 3 0 0 1 0 1-2 0-1-1-2 1-5 0 0-3 0-4-1-1-1-1-3-1-4 0-1 1-3 2-3 1 0 1 1 1 2 0 1-2 0-1 2 1 2 1 1 2 1 1 0 3 1 4 1 1 0 3-1 5-1 2 0 4 2 6 0 2-2 5-2 6-3 1-1 1-2 1-3 0-1 2-2 3-2 1 0 1 1 0 2-1 1-2 0-2 2 0 2-1 3-2 3-1 0-1 4-1 5 0 1-2 5-5 5-3 0-5-1-7-1" fill="#f1f2f2" transform="translate(17 23)"/><path d="m0 0c.848-2.216 1.815-2.221 3.458-2.221 1.686 0 3.378.704 5.662.928.12-.304.233-.614.338-.928 1-3 0-5-5-5-2.762 0-5 2.239-5 5 0 .802.206 1.55.542 2.221" fill="#cbb7ea" transform="translate(13.542 25.22)"/><path d="m0 0c.19 0 .383.054.553.168.134.089 3.298 2.228 4.393 5.516.175.524-.108 1.09-.632 1.265-.528.176-1.089-.109-1.264-.633-.876-2.627-3.581-4.466-3.608-4.485-.458-.308-.581-.928-.274-1.387.192-.288.509-.444.832-.444" fill="#ffac33" transform="translate(10 18)"/><path d="m0 0c2 2 4.419 1.581 6 0 2-2 1-4 3-6 1.581-1.581-2 0-3 3-.707 2.121-4 3-6 3" fill="#dd2e44" transform="translate(6 30)"/></g></g></svg>