<svg xmlns="http://www.w3.org/2000/svg" viewBox="0 0 47.5 47.5" enable-background="new 0 0 47.5 47.5" xmlns:xlink="http://www.w3.org/1999/xlink"><defs><clipPath id="0"><path d="m0 38h38v-38h-38v38"/></clipPath></defs><g transform="matrix(1.25 0 0-1.25 0 47.5)"><g clip-path="url(#0)"><path d="m0 0c0-9.389-7.611-17-17-17-9.388 0-17 7.611-17 17 0 9.388 7.612 17 17 17 9.389 0 17-7.612 17-17" fill="#ffcc4d" transform="translate(36 19)"/><path d="m0 0c0-2.762-2.238-5-5-5-2.762 0-5 2.238-5 5 0 2.762 2.238 5 5 5 2.762 0 5-2.238 5-5" fill="#ff7892" transform="translate(34 15)" id="1"/><use transform="translate(-20)" xlink:href="#1"/><path d="m0 0c0-3.037-2.463-5.5-5.5-5.5-3.037 0-5.5 2.463-5.5 5.5 0 3.037 2.463 5.5 5.5 5.5 3.037 0 5.5-2.463 5.5-5.5" fill="#f5f8fa" transform="translate(31 20.5)" id="2"/><use transform="translate(-13)" xlink:href="#2"/><path d="m0 0c0-1.381-1.119-2.5-2.5-2.5-1.381 0-2.5 1.119-2.5 2.5 0 1.38 1.119 2.5 2.5 2.5 1.381 0 2.5-1.12 2.5-2.5" fill="#664500" transform="translate(15 20.5)" id="3"/><use transform="translate(13)" xlink:href="#3"/><g fill="#664500"><path d="m0 0h-8c-.552 0-1 .447-1 1 0 .553.448 1 1 1h8c.553 0 1-.447 1-1 0-.553-.447-1-1-1" transform="translate(23 7)"/><path d="m0 0c-.305 0-.605.138-.801.4-2.64 3.521-6.06 3.599-6.206 3.6-.55.006-.994.456-.991 1 .003.551.447.995.997.995.184 0 4.537-.05 7.8-4.4.332-.442.242-1.069-.2-1.4-.18-.135-.39-.2-.599-.2" transform="translate(31 26)"/><path d="m0 0c-.208 0-.419.065-.599.2-.442.331-.531.958-.2 1.4 3.262 4.35 7.616 4.4 7.8 4.4.552 0 1-.448 1-1 0-.551-.445-.998-.996-1-.155-.002-3.569-.086-6.204-3.6-.197-.262-.497-.4-.801-.4" transform="translate(6.999 26)"/></g></g></g></svg>