<svg xmlns="http://www.w3.org/2000/svg" viewBox="0 0 47.5 47.5" enable-background="new 0 0 47.5 47.5"><defs><clipPath id="0"><path d="m0 38h38v-38h-38v38"/></clipPath></defs><g transform="matrix(1.25 0 0-1.25 0 47.5)"><g clip-path="url(#0)"><path d="m0 0v-12.375c0-2.042 1.093-2.484 1.093-2.484 0 0 9.752-7.667 11.574-9.1 1.821-1.432 1.333 1.583 1.333 1.583v11.375l-14 11" fill="#662113" transform="translate(5 26)"/><path d="m0 0v-12.375c0-2.042-1.063-2.484-1.063-2.484 0 0-9.767-7.667-11.588-9.1-1.823-1.432-1.349 1.583-1.349 1.583v11.375l14 11" fill="#c1694f" transform="translate(33 26)"/><g fill="#d99e82"><path d="m0 0c-.753.61-1.988.61-2.742 0l-11.982-9.529c-.754-.61-.754-1.607 0-2.216l12.02-9.647c.755-.609 1.989-.609 2.743 0l12.1 9.731c.753.609.753 1.606 0 2.216l-12.146 9.445" transform="translate(20.289 36.5)"/><path d="m0 0c-.552 0-1 .482-1 1.078v12.927c0 .596.448 1.078 1 1.078.553 0 1-.482 1-1.078v-12.927c0-.596-.447-1.078-1-1.078" transform="translate(19 1.25)"/></g><path d="m0 0c0-1.104.104-1.646-1-2.442l-2.469-1.878c-1.104-.797-1.531-.113-1.531.992v2.961c0 .193-.026.4-.278.608-2.578 2.125-12.588 10.08-14.412 11.544l4.625 3.678c1.266-.926 10.753-8.252 14.721-11.377.198-.156.344-.328.344-.516v-3.57" fill="#99aab5" transform="translate(29 18.16)"/><g fill="#ccd6dd"><path d="m0 0c-3.969 3.125-13.456 10.451-14.722 11.377l-1.72-1.368-2.905-2.31c1.825-1.468 11.834-9.419 14.412-11.544.152-.125.217-.25.248-.371l4.934 3.966c-.06.087-.146.171-.247.25" transform="translate(28.656 22.25)"/><path d="m0 0v3.57c0 .188-.146.36-.344.516-3.968 3.125-13.455 10.451-14.721 11.377l-2.074-1.649c3.393-2.669 12.482-9.681 14.861-11.573.256-.204.278-.415.278-.608v-4.836l1 .761c1.104.796 1 1.338 1 2.442" transform="translate(29 18.16)"/></g><path d="m0 0c-3.969 3.125-13.456 10.451-14.722 11.377l-2.073-1.649c3.393-2.669 12.482-9.681 14.86-11.573.038-.03.06-.059.087-.089l2.095 1.684c-.06.087-.146.171-.247.25" fill="#e1e8ed" transform="translate(28.656 22.25)"/></g></g></svg>