<svg xmlns="http://www.w3.org/2000/svg" viewBox="0 0 47.5 47.5" enable-background="new 0 0 47.5 47.5"><defs><clipPath id="0"><path d="m0 38h38v-38h-38v38"/></clipPath><clipPath id="1"><path d="m5 16l9-7-4-8h18c0 0 4 9 0 9l-23 12v-6"/></clipPath></defs><g transform="matrix(1.25 0 0-1.25 0 47.5)"><g clip-path="url(#0)"><path d="m0 0c-1.721 0-3.343-.406-4.793-1.111-.393.069-.795.111-1.207.111-3.866 0-7-3.134-7-7v-12h.018c.183-6.467 5.471-11.656 11.982-11.656 6.511 0 11.799 5.189 11.982 11.656h.018v9c0 6.075-4.925 11-11 11" fill="#642116" transform="translate(20 37)"/><path d="m0 0h-1-16-1c-2.209 0-4-1.791-4-4v-5h5 16 5v5c0 2.209-1.791 4-4 4" fill="#9268ca" transform="translate(28 10)"/><path d="m0 0c0 0-.003-5.308-5-5.936v-6.06c0-4.971 4.03-9 9-9 4.971 0 9 4.03 9 9v5.02c-11.11.376-13 6.981-13 6.981" fill="#d79e84" transform="translate(15 32)"/><path d="m0 0c0-.553-.447-1-1-1-.553 0-1 .447-1 1 0 .553.447 1 1 1 .553 0 1-.447 1-1" fill="#bb1a34" transform="translate(20 15)"/><path d="m0 0l-15 9-2-1 14-8h3" fill="#7450a8" transform="translate(28 1)"/><path d="m0 0l-.075.363v.653c-.074 0-.144-.029-.217-.045-.275.445-.798.698-1.34.586-.693-.143-1.139-.822-.997-1.516l.554-2.675v-2.35c0-1.104.895-2 2-2h1 1v5c0 0-.856 1.895-1.925 1.984" fill="#bf6952" transform="translate(3.655 22.984)"/><path d="m0 0c-.552 0-1-.447-1-1l1-6v-5c0-.553.448-1 1-1h2v2l-.58 4-1.42 6c0 0-.447 1-1 1" fill="#d79e84" transform="translate(2.58 29)"/><path d="m0 0c4 0 0-9 0-9l-23 15v6l23-12" fill="#9268ca" transform="translate(28 10)"/></g><g clip-path="url(#1)"><path d="m0 0l-4 3-8-4 3-2 9 3m6-2l-16-10h-3l17 11 2-1" fill="#7450a8" transform="translate(23 13)"/></g><g clip-path="url(#0)"><path d="m0 0c-.541.112-1.064-.142-1.341-.586-.071.016-.141.045-.216.045v-.653l-.075-.363c-1.069-.089-1.925-1.984-1.925-1.984v-5h1 1c1.105 0 2 .895 2 2v2.35l.554 2.674c.142.695-.304 1.373-.997 1.517" fill="#bf6952" transform="translate(35.977 24.541)"/><path d="m0 0c.552 0 1-.447 1-1l-1-6v-5c0-.553-.448-1-1-1h-2v2l.58 4 1.42 6c0 0 .447 1 1 1" fill="#d79e84" transform="translate(35.42 29)"/><path d="m0 0v-9l23 15v6l-23-12" fill="#9268ca" transform="translate(10 10)"/><path d="m0 0h-2c-.276 0-.5.224-.5.5 0 .276.224.5.5.5h2c.276 0 .5-.224.5-.5 0-.276-.224-.5-.5-.5" fill="#bf6952" transform="translate(20 17.5)"/><g fill="#292f33"><path d="m0 0c-.552 0-1 .448-1 1v1c0 .552.448 1 1 1 .552 0 1-.448 1-1v-1c0-.552-.448-1-1-1" transform="translate(15 21)"/><path d="m0 0c-.553 0-1 .448-1 1v1c0 .552.447 1 1 1 .553 0 1-.448 1-1v-1c0-.552-.447-1-1-1" transform="translate(23 21)"/></g></g></g></svg>