<svg xmlns="http://www.w3.org/2000/svg" viewBox="0 0 47.5 47.5" enable-background="new 0 0 47.5 47.5"><defs><clipPath id="0"><path d="m0 38h38v-38h-38v38"/></clipPath></defs><g transform="matrix(1.25 0 0-1.25 0 47.5)"><g clip-path="url(#0)"><g fill="#e1e8ed"><path d="m0 0c-.003-.015-.004-.027-.005-.041.001-.11.02-.215.031-.322.009-.074.011-.151.021-.225.015-.069.032-.137.046-.2.617-2.893 4.333-5.119 8.842-5.119 4.505 0 8.224 2.226 8.838 5.119.018.066.035.131.046.199.012.074.015.152.022.227.012.106.031.211.033.321 0 .015-.005.028-.006.041.001.018.004.035.006.053h-.009c-.051 1.652-1.358 2.979-2.971 2.979-1.617 0-2.923-1.327-2.973-2.979h-.017c.001.031.009.06.009.093 0 1.696-1.334 3.072-2.98 3.072-1.644 0-2.978-1.374-2.979-3.072.001-.033.008-.063.011-.093h-.019c-.05 1.652-1.356 2.979-2.972 2.979-1.615 0-2.921-1.327-2.97-2.979l-.009.001c0-.019.005-.036.005-.054" transform="translate(1.01 6.907)"/><path d="m0 0c-.004-.015-.005-.027-.006-.041.001-.11.02-.215.031-.322.01-.074.011-.151.022-.225.014-.069.031-.137.046-.2.616-2.893 4.333-5.119 8.841-5.119 4.505 0 8.224 2.226 8.838 5.119.018.066.036.131.046.199.012.074.016.152.023.227.012.106.03.211.032.321 0 .015-.004.028-.006.041l.006.053h-.009c-.051 1.652-1.357 2.979-2.97 2.979-1.617 0-2.923-1.327-2.973-2.979h-.018c.001.031.009.06.009.093 0 1.696-1.334 3.072-2.979 3.072-1.644 0-2.978-1.374-2.98-3.072.002-.033.009-.063.012-.093h-.02c-.05 1.652-1.355 2.979-2.971 2.979-1.616 0-2.921-1.327-2.97-2.979l-.01.001c0-.019.006-.036.006-.054" transform="translate(19.09 6.782)"/></g><path d="m0 0c0-6.627-5.373-12-12-12-6.627 0-12 5.373-12 12 0 6.627 5.373 12 12 12 6.627 0 12-5.373 12-12" fill="#d99e82" transform="translate(31 16)"/><path d="m0 0c-7.444 0-13.5-6.06-13.5-13.5 0-1.9.396-3.751 1.178-5.499.092-.202.301-.317.526-.291.221.031.394.204.426.425.393 2.755 2.581 4.706 4.512 6.428 1.793 1.599 3.497 3.119 3.444 5.04 6.516-1.171 14.01-6.02 14.784-11.469.031-.221.205-.394.426-.425.023-.003.047-.005.069-.005.196 0 .375.114.456.296.783 1.748 1.179 3.599 1.179 5.499 0 7.444-6.06 13.5-13.5 13.5" fill="#c1694f" transform="translate(19 31.795)"/><path d="m0 0h8c0 0-1-2-4-2-3 0-4 2-4 2" fill="#642116" transform="translate(15 10)"/><g fill="#3b88c3"><path d="m0 0c0-.553-.448-1-1-1-.552 0-1 .447-1 1v2c0 .553.448 1 1 1 .552 0 1-.447 1-1v-2" transform="translate(17 15)"/><path d="m0 0c0-.553-.447-1-1-1-.553 0-1 .447-1 1v2c0 .553.447 1 1 1 .553 0 1-.447 1-1v-2" transform="translate(23 15)"/></g><path d="m0 0c-4.971 0-9 1.567-9 3.5 0 1.933 4.03 3.5 9 3.5 4.971 0 9-1.567 9-3.5 0-1.933-4.03-3.5-9-3.5m0 9c-6.627 0-12-2.687-12-6 0-3.313 5.373-6 12-6 6.627 0 12 2.687 12 6 0 3.313-5.373 6-12 6" fill="#8ccaf7" transform="translate(19 28)"/></g></g></svg>