<svg xmlns="http://www.w3.org/2000/svg" viewBox="0 0 47.5 47.5" enable-background="new 0 0 47.5 47.5"><defs><clipPath id="0"><path d="m0 38h38v-38h-38v38"/></clipPath></defs><g transform="matrix(1.25 0 0-1.25 0 47.5)"><g clip-path="url(#0)"><path d="m0 0c0 9.112 7.387 16.5 16.5 16.5 9.113 0 16.5-7.388 16.5-16.5 0-9.113-7.387-16.5-16.5-16.5-9.113 0-16.5 7.387-16.5 16.5" fill="#f4900c" transform="translate(4 17.5)"/><path d="m0 0c-.267.267-.797.197-1.355-.12-3.3 2.732-8.653 3.652-8.895 3.692-.546.09-1.059-.277-1.15-.821-.091-.544.276-1.06.821-1.151.053-.01 4.933-.854 7.821-3.16-.275-.525-.324-1.015-.07-1.268.39-.391 1.34-.074 2.121.707.781.781 1.098 1.731.707 2.121" fill="#662113" transform="translate(12.414 29.415)"/><path d="m0 0c0 0-3.106-4.318-7.02-5.273-2.979-.727-6.938-.797-7.333.122-.394.919 1.572 3.937 4.969 5.393 3.397 1.456 9.385-.242 9.385-.242" fill="#5c913b" transform="translate(22 36)"/></g></g></svg>