<svg xmlns="http://www.w3.org/2000/svg" viewBox="0 0 47.5 47.5" enable-background="new 0 0 47.5 47.5" xmlns:xlink="http://www.w3.org/1999/xlink"><defs><path id="1" d="m0 0c0-3.313-2.687-6-6-6-3.313 0-6 2.687-6 6 0 3.313 2.687 6 6 6 3.313 0 6-2.687 6-6" fill="#ffcc4d"/><clipPath id="0"><path d="m0 38h38v-38h-38v38"/></clipPath></defs><g transform="matrix(1.25 0 0-1.25 0 47.5)"><g clip-path="url(#0)"><use transform="translate(14 31)" xlink:href="#1"/><use transform="translate(25 7)" xlink:href="#1"/><path d="m0 0c0-2.209-1.791-4-4-4-2.209 0-4 1.791-4 4 0 2.209 1.791 4 4 4 2.209 0 4-1.791 4-4" fill="#dd2e44" transform="translate(23 7)"/><use transform="translate(36 31)" xlink:href="#1"/><path d="m0 0c0-2.209-1.791-4-4-4-2.209 0-4 1.791-4 4 0 2.209 1.791 4 4 4 2.209 0 4-1.791 4-4" fill="#e6aaaa" transform="translate(12 31)" id="2"/><use transform="translate(22)" xlink:href="#2"/><path d="m0 0c0-7-4.923-7-4.923-7h-22.15c0 0-4.923 0-4.923 7 0 0 1.231 22 16 22 14.77 0 16-22 16-22" fill="#ffcc4d" transform="translate(35 15)"/><path d="m0 0c0 0 0 2 2 2 2 0 2-2 2-2v-2c0 0 0-2-2-2-2 0-2 2-2 2v2" fill="#272b2b" transform="translate(12 20)" id="3"/><use transform="translate(10)" xlink:href="#3"/><path d="m0 0c-2.402 0-4.501-.953-5.678-2.378-1.177 1.425-3.277 2.378-5.678 2.378-10.322 0-10.279-.421-10.322-3.182-.087-5.61 6.631-6.9 10.322-6.818 2.401.053 4.501.989 5.678 2.397 1.177-1.408 3.277-2.344 5.678-2.397 3.691-.082 10.409 1.208 10.321 6.818-.043 2.761 0 3.182-10.321 3.182" fill="#fff" transform="translate(24.678 14)"/><g fill="#272b2b"><path d="m0 0c.204-.279.333-.588.339-.939.03-1.906-.745-3.303-1.915-4.328l-5.085-.491 6.661 5.758" transform="translate(34.66 11.758)"/><path d="m0 0c-1-1 2-4 3-4 1 0 4 3 3 4-1 1-5 1-6 0" transform="translate(16 12)"/><path d="m0 0c2.667-2 8-4 8-4 0 0 5.333 2 8 4l-8-1-8 1" transform="translate(11 34)"/><path d="M 0,0 C 0,0 1.652,0.62 3.576,1.514 2.48,1.822 1.295,2 0,2 -1.295,2 -2.48,1.822 -3.576,1.514 -1.652,0.62 0,0 0,0" transform="translate(19 35)"/><path d="m0 0c3-2 7-4 7-4 0 0 4 2 7 4l-7-1-7 1" transform="translate(12 28)"/><path d="m0 0l-4.645-3.715 6.01-.751c-.334 1.402-.777 2.929-1.361 4.466" transform="translate(32.645 25.715)"/><path d="m0 0l-5.556-5.556h5.835c.102.595.165 1.251.165 2 0 0-.081 1.43-.444 3.556" transform="translate(34.556 18.556)"/><path d="m0 0c-.363-2.126-.444-3.556-.444-3.556 0-.748.063-1.405.165-2h5.835l-5.556 5.556" transform="translate(3.444 18.556)"/><path d="m0 0c-.204-.279-.333-.588-.339-.939-.03-1.906.745-3.303 1.916-4.328l5.084-.491-6.661 5.758" transform="translate(3.339 11.758)"/><path d="m0 0l-4.644 3.715c-.585-1.537-1.028-3.064-1.361-4.465l6 .75" transform="translate(10 22)"/></g></g></g></svg>