<svg xmlns="http://www.w3.org/2000/svg" viewBox="0 0 47.5 47.5" enable-background="new 0 0 47.5 47.5"><defs><clipPath id="0"><path d="m0 38h38v-38h-38v38"/></clipPath><clipPath id="1"><path d="m12.575 35.34l-1.449-3.383-3.272-1.282c-1.35-.54-2.041-2.057-1.501-3.407l1.365-3.268-1.362-3.181c-.573-1.337-.033-2.686 1.304-3.259l3.259-1.395 1.265-3.306c.27-.675.759-1.247 1.378-1.512.619-.265 1.37-.225 2.046.047l3.266 1.364 3.307-1.417c1.337-.573 2.686-.032 3.258 1.305l1.364 3.182 3.271 1.282c1.35.541 2.042 2.057 1.5 3.406l-1.365 3.267 1.451 3.384c.571 1.338.032 2.686-1.305 3.258l-3.308 1.417-1.274 3.289c-.27.675-.766 1.23-1.384 1.494-.619.266-1.356.26-2.03-.011l-3.267-1.365-3.259 1.395c-.358.153-.716.227-1.06.227-.942 0-1.778-.552-2.198-1.531"/></clipPath></defs><g transform="matrix(1.25 0 0-1.25 0 47.5)"><g clip-path="url(#0)"><path d="m0 0c-2.554.89-8.111.429-9.938-1.331v11.772c0 .553-.447 1-1 1-.552 0-1-.447-1-1v-11.772c-1.826 1.76-7.383 2.221-9.937 1.331-.741-.259 5.264-8.749 9.507-4.507.168.168.306.33.43.49v-3.542c0-.552.448-1 1-1 .553 0 1 .448 1 1v3.542c.125-.16.263-.322.431-.49 4.243-4.242 10.248 4.248 9.507 4.507" fill="#77b255" transform="translate(29.938 9.559)"/><path d="m0 0c-.619.266-1.107.837-1.378 1.513l-1.266 3.305-3.258 1.395c-1.336.574-1.876 1.922-1.304 3.259l1.362 3.181-1.364 3.268c-.541 1.35.15 2.868 1.5 3.408l3.272 1.281 1.449 3.384c.573 1.336 1.921 1.876 3.258 1.304l3.258-1.396 3.267 1.366c.675.271 1.412.276 2.031.011.619-.265 1.114-.82 1.384-1.494l1.274-3.29 3.308-1.416c1.336-.573 1.875-1.921 1.305-3.258l-1.451-3.384 1.365-3.267c.541-1.35-.15-2.866-1.5-3.407l-3.271-1.282-1.364-3.182c-.572-1.336-1.921-1.877-3.257-1.305l-3.308 1.417-3.267-1.364c-.675-.272-1.426-.312-2.045-.047" fill="#ccd6dd" transform="translate(13.562 11.35)"/></g><g clip-path="url(#1)" fill="#e1e8ed"><path d="m0 0v-8.82l-2.94-.98-5.88 5.88-.98 3.92 5.635.98 4.165-.98" transform="translate(19 36.74)"/><path d="m0 0h7.84l.98-1.96-7.105-8.126-4.982 3.512c0 0 .082 5.635.246 5.553.163-.082 3.02 1.021 3.02 1.021" transform="translate(7.24 24)"/><path d="m0 0c0 0 .041-7.84 0-7.84-.041 0 4.818-2.452 5.063-2.41.246.042 4.41 3.185 4.574 3.308.163.122.694 1.47.694 1.47l-9.433 8.208-.898-2.736" transform="translate(19 19.1)"/><path d="m0 0c-.041-.123-5.921-4.982-5.921-4.982 0 0 .165-3.185.327-3.266.162-.082 9.718-.94 9.718-.94 0 0 2.491 7.555 2.368 7.473-.122-.082-4.818 1.633-4.695 1.633.122 0-1.797.082-1.797.082" transform="translate(27.697 32.616)"/></g><g clip-path="url(#0)"><path d="m0 0c0-2.761-2.238-5-5-5-2.761 0-5 2.239-5 5 0 2.761 2.239 5 5 5 2.762 0 5-2.239 5-5" fill="#f4900c" transform="translate(24 24)"/></g></g></svg>