<svg xmlns="http://www.w3.org/2000/svg" viewBox="0 0 47.5 47.5" enable-background="new 0 0 47.5 47.5" xmlns:xlink="http://www.w3.org/1999/xlink"><defs><clipPath id="0"><path d="m0 38h38v-38h-38v38"/></clipPath></defs><g transform="matrix(1.25 0 0-1.25 0 47.5)"><g clip-path="url(#0)"><path d="m0 0c0-1.104-.896-2-2-2h-2c-1.104 0-2 .896-2 2v7c0 1.104.896 2 2 2h2c1.104 0 2-.896 2-2v-7" fill="#292f33" transform="translate(12 3)" id="1"/><use transform="translate(20)" xlink:href="#1"/><g fill="#99aab5"><path d="m0 0c0-.553-.448-1-1-1h-1c-.552 0-1 .447-1 1v7c0 .552.448 1 1 1h1c.552 0 1-.448 1-1v-7" transform="translate(4 20)"/><path d="m0 0c0-.553-.447-1-1-1h-1c-.553 0-1 .447-1 1v7c0 .552.447 1 1 1h1c.553 0 1-.448 1-1v-7" transform="translate(37 20)"/><path d="m0 0c0-.552-.447-1-1-1h-32c-.552 0-1 .448-1 1 0 .552.448 1 1 1h32c.553 0 1-.448 1-1" transform="translate(36 26)"/><path d="m0 0c0-.553-.447-1-1-1h-32c-.552 0-1 .447-1 1 0 .553.448 1 1 1h32c.553 0 1-.447 1-1" transform="translate(36 22)"/></g><g fill="#ccd6dd"><path d="m0 0c0-1.104-.896-2-2-2h-8c-1.104 0-2 .896-2 2 0 1.104.896 2 2 2h8c1.104 0 2-.896 2-2" transform="translate(25 35)"/><path d="m0 0h-20c-2.209 0-4-1.791-4-4v-20-2-4h4 20 4v4 2 20c0 2.209-1.791 4-4 4" transform="translate(29 35)"/></g><path d="m33 5h-28v16h28v-16" fill="#ffcc4d"/><g fill="#66757f"><path d="m0 0c0-.553-.447-1-1-1h-28c-.552 0-1 .447-1 1v1c0 .553.448 1 1 1h28c.553 0 1-.447 1-1v-1" transform="translate(34 5)"/><path d="m0 0c0-1.657-1.343-3-3-3h-22c-1.657 0-3 1.343-3 3v7c0 1.657 1.343 3 3 3h22c1.657 0 3-1.343 3-3v-7" transform="translate(33 20)"/></g><path d="m0 0c0-1.104-.896-2-2-2h-20c-1.104 0-2 .896-2 2v5c0 1.104.896 1.999 2 1.999h20c1.104 0 2-.895 2-1.999v-5" fill="#88c9f9" transform="translate(31 21)"/><path d="m33 7h-28v5h28v-5" fill="#ffac33"/><g fill="#fff"><path d="m13 9h-6v3h6v-3"/><path d="m31 9h-6v3h6v-3"/></g><g fill="#dd2e44"><path d="m7 9h-2v3h2v-3"/><path d="m33 9h-2v3h2v-3"/></g><path d="m23 9h-8v3h8v-3" fill="#66757f"/><path d="m0 0c0-.829-.672-1.5-1.5-1.5h-5c-.829 0-1.5.671-1.5 1.5 0 .829.671 1.5 1.5 1.5h5c.828 0 1.5-.671 1.5-1.5" fill="#292f33" transform="translate(23 33.5)"/></g></g></svg>