<svg xmlns="http://www.w3.org/2000/svg" viewBox="0 0 47.5 47.5" enable-background="new 0 0 47.5 47.5"><defs><clipPath id="0"><path d="m0 38h38v-38h-38v38"/></clipPath></defs><g transform="matrix(1.25 0 0-1.25 0 47.5)"><g clip-path="url(#0)"><path d="m0 0c0-2.209-1.791-4-4-4h-28c-2.209 0-4 1.791-4 4v28c0 2.209 1.791 4 4 4h28c2.209 0 4-1.791 4-4v-28" fill="#269" transform="translate(37 5)"/><path d="m0 0l3.751-3.751h5.249v-5.249l3.751-3.751-3.751-3.751v-5.249h-5.249l-3.751-3.751-3.751 3.751h-5.249v5.249l-3.751 3.751 3.751 3.751v5.249h5.249l3.751 3.751" fill="#55acee" transform="translate(19 34.751)"/><path d="m0 0l2.234-5.069 4.852 1.417-1.418-4.851 6.486-2.235-6.486-2.235 1.418-4.85-4.852 1.417-2.234-12.155-2.235 12.155-4.85-1.417 1.417 4.85-6.487 2.235 6.487 2.235-1.417 4.851 4.85-1.417 2.235 5.069" fill="#ffd983" transform="translate(19 32.406)"/><path d="m0 0c0-1.657-1.343-3-3-3-1.657 0-3 1.343-3 3 0 1.657 1.343 3 3 3 1.657 0 3-1.343 3-3" fill="#f5f8fa" transform="translate(22 22)"/><g fill="#ffcc4d"><path d="m0 0c-.19 0-.383.054-.554.168l-6 4c-.459.306-.583.927-.277 1.387.306.46.927.584 1.387.277l6-4c.459-.306.583-.927.277-1.387-.193-.289-.51-.445-.833-.445" transform="translate(10.999 24)"/><path d="m0 0c-.323 0-.641.156-.833.445-.307.46-.183 1.081.277 1.387l6 4c.46.307 1.081.183 1.387-.277.307-.46.183-1.081-.277-1.387l-6-4c-.171-.114-.364-.168-.554-.168" transform="translate(27 24)"/><path d="m0 0c-.323 0-.64.156-.833.445-.306.46-.182 1.08.277 1.387l6 4c.46.308 1.08.183 1.387-.277.306-.46.182-1.08-.277-1.387l-6-4c-.171-.113-.364-.168-.554-.168" transform="translate(5 13)"/><path d="m0 0c-.168 0-.339.042-.495.132l-7 4c-.48.274-.647.885-.372 1.364.273.48.884.647 1.364.372l7-4c.48-.274.647-.885.372-1.364-.184-.323-.521-.504-.869-.504" transform="translate(33.999 13)"/><path d="m0 0c-.136 0-.273.027-.406.086-.504.225-.732.815-.507 1.32l4 9c.224.504.814.733 1.32.508.504-.225.732-.815.507-1.32l-4-9c-.165-.372-.531-.594-.914-.594" transform="translate(11 3)"/><path d="m0 0c-.384 0-.749.221-.915.594l-4 9c-.224.505.003 1.095.508 1.32.506.224 1.095-.004 1.32-.508l4-9c.224-.505-.003-1.095-.508-1.32-.132-.059-.269-.086-.405-.086" transform="translate(27 3)"/><path d="m0 0c-.367 0-.72.202-.896.553l-2 4c-.247.494-.046 1.094.448 1.342.494.247 1.094.046 1.342-.448l2-4c.247-.494.046-1.094-.448-1.342-.143-.071-.296-.105-.446-.105" transform="translate(16 29)"/><path d="m0 0c-.15 0-.303.034-.446.105-.494.248-.695.848-.448 1.342l2 4c.248.495.847.695 1.342.448.494-.248.695-.848.448-1.342l-2-4c-.176-.351-.529-.553-.896-.553" transform="translate(21.999 29)"/></g></g></g></svg>