<svg xmlns="http://www.w3.org/2000/svg" viewBox="0 0 47.5 47.5" enable-background="new 0 0 47.5 47.5" xmlns:xlink="http://www.w3.org/1999/xlink"><defs><clipPath id="0"><path d="m0 38h38v-38h-38v38"/></clipPath></defs><g transform="matrix(1.25 0 0-1.25 0 47.5)"><g clip-path="url(#0)"><path d="m0 0c0 0 6 0 4 6-1 3 1 1 2-1 1-2 2-8-5-7-7 1-1 2-1 2" fill="#662113" transform="translate(30 21.11)"/><path d="m0 0c.027.313.042.597.042.841 0 .658-.063 1-.171 1.123-.896 2.946-5.522 2.896-10.853 2.879-2.987.023-4.976 4.1-4.976 4.998 0 5-4.848 6.182-7.5 3-2.5-3-7.5.037-7.5-3 0-5 3.358-8 7.5-8 .648 0 1.736.149 3.01.381.941-1.647 1.39-3.881 1.49-4.381.024-.119.05-.235.075-.353.435-4.62 2.681-13.647 3.925-13.647 1.07 0 1.681 2.484 1.902 5.4.886-.26 1.91-.4 3.098-.4 1.112 0 2.137.247 3.078.659.205-3.03.82-5.659 1.922-5.659 1.292 0 4.544 11.5 4.956 16.14.001.006.001.01.002.015" fill="#d99e82" transform="translate(33.958 17.16)"/><g fill="#662113"><path d="m0 0c0-.829-1.171-1.5-2-1.5-.829 0-1.5 1.171-1.5 2 0 .829.671 1 1.5 1 2 0 2-.671 2-1.5" transform="translate(5 26.5)"/><path d="m0 0c0-3.038-1.344-3.5-3-3.5-1.657 0-3 .462-3 3.5 0 3.038.343 7 2 7 1.657 0 4-3.962 4-7" transform="translate(19 25)"/></g><path d="m0 0c0-.552-.448-1-1-1-.552 0-1 .448-1 1 0 .552.448 1 1 1 .552 0 1-.448 1-1" fill="#292f33" transform="translate(12 28)"/><path d="m0 0c0-1.38-1.343-2.5-3-2.5-1.657 0-3 1.12-3 2.5 0 1.381 1.343 2.5 3 2.5 1.657 0 3-1.119 3-2.5" fill="#c1694f" transform="translate(32 17.5)"/><path d="m0 0c0-.828-.672-1.5-1.5-1.5-.828 0-1.5.672-1.5 1.5 0 .828.672 1.5 1.5 1.5.828 0 1.5-.672 1.5-1.5" fill="#c1694f" transform="translate(25 18.5)" id="1"/><use transform="translate(2-5)" xlink:href="#1"/></g></g></svg>