<svg xmlns="http://www.w3.org/2000/svg" viewBox="0 0 47.5 47.5" enable-background="new 0 0 47.5 47.5"><defs><clipPath id="0"><path d="m0 38h38v-38h-38v38"/></clipPath></defs><g transform="matrix(1.25 0 0-1.25 0 47.5)"><g clip-path="url(#0)"><path d="m0 0c0-2.209-1.791-4-4-4h-26c-2.209 0-4 1.791-4 4v28c0 2.209 1.791 4 4 4h26c2.209 0 4-1.791 4-4v-28" fill="#ccd6dd" transform="translate(36 5)"/><path d="m27 11h5v-5h-5v5m-7 0h5v-5h-5v5m-7 0h5v-5h-5v5m-7 0h5v-5h-5v5m5 16h-5v5h5v-5m7 0h-5v5h5v-5m7 0h-5v5h5v-5m2 5h5v-5h-5v5m0-7h5v-5h-5v5m0-7h5v-5h-5v5m-7 0h5v-5h-5v5m-7 0h5v-5h-5v5m-2-5h-5v5h5v-5m0 7h-5v5h5v-5m9 5h5v-5h-5v5m-2-5h-5v5h5v-5m15 14h-28c-.553 0-1-.448-1-1v-28c0-.553.447-1 1-1h28c.553 0 1 .447 1 1v28c0 .552-.447 1-1 1" fill="#e1e8ed"/><path d="m0 0c-.32 0-.645.076-.946.239-.973.524-1.337 1.737-.813 2.709l7 13c.3.557.845.939 1.47 1.031.627.092 1.259-.118 1.705-.565l6.076-6.076 9.738 18.59c.512.978 1.721 1.357 2.7.843.978-.512 1.356-1.721.843-2.699l-11-21c-.294-.563-.84-.953-1.469-1.05-.627-.09-1.266.114-1.716.564l-6.1 6.099-5.725-10.633c-.361-.671-1.051-1.052-1.763-1.052" fill="#3e721d" transform="translate(5.998 4)"/></g></g></svg>