<svg xmlns="http://www.w3.org/2000/svg" viewBox="0 0 47.5 47.5" enable-background="new 0 0 47.5 47.5"><defs><clipPath id="0"><path d="m0 38h38v-38h-38v38"/></clipPath></defs><g transform="matrix(1.25 0 0-1.25 0 47.5)"><g clip-path="url(#0)"><path d="m0 0c-.799.597-1.498 1.484-2.035 2.592l-.228.47-.46-.249c-.975-.529-1.913-.859-2.744-.969l-.202 3.756-3.636-.968c-.157.854-.125 1.887.097 3.02l.102.526-.532.066c-1.242.154-2.305.526-3.103 1.08l1.521 2.917-2.988 1.524c.319.944.947 1.881 1.834 2.734l.377.363-.379.36c-.804.764-1.408 1.554-1.77 2.311l3.51 1.353-2.045 3.159c.741.402 1.694.686 2.789.831l.518.069-.091.514c-.216 1.211-.172 2.338.124 3.288l3.308-.523.524 3.307c.988-.012 2.08-.325 3.164-.907l.462-.247.226.473c.478 1 1.044 1.824 1.653 2.404l2.372-2.92 2.372 2.92c.609-.58 1.175-1.401 1.653-2.404l.226-.473.462.247c1.085.581 2.177.894 3.164.906l.523-3.308 3.31.525c.296-.951.339-2.078.124-3.288l-.092-.515.518-.069c1.095-.145 2.048-.43 2.789-.832l-2.046-3.155 3.51-1.355c-.361-.758-.965-1.548-1.769-2.311l-.379-.36.377-.363c.888-.854 1.515-1.793 1.835-2.736l-2.985-1.52 1.522-2.984c-.812-.574-1.871-.964-3.094-1.134l-.517-.072.095-.514c.201-1.089.226-2.083.074-2.909l-3.634.97-.204-3.757c-.83.11-1.768.44-2.743.968l-.459.249-.228-.47c-.539-1.108-1.237-1.994-2.036-2.591l-2.368 2.368-2.368-2.368" fill="#fff" transform="translate(16.632 2.339)"/><g fill="#ea596e"><path d="m0 0c-.53 1.489-.698 2.97-.432 4.2l2.368-.375.987-.156.157.988.375 2.367c1.26-.127 2.612-.742 3.861-1.705.119.337.245.662.383.967-1.552 1.135-3.223 1.763-4.731 1.763-.123 0-.244-.004-.365-.012l-.511-3.224-3.224.51c-.6-1.487-.565-3.415.085-5.393.335.038.685.061 1.047.07" transform="translate(8.092 26.322)"/><path d="m0 0c1.248.962 2.6 1.578 3.86 1.705l.376-2.368.157-.988.987.156 2.369.376c.266-1.23.098-2.71-.432-4.199.362-.01.711-.033 1.046-.071.652 1.979.686 3.907.085 5.394l-3.224-.512-.511 3.224c-.12.009-.242.012-.365.012-1.507.001-3.179-.627-4.731-1.762.139-.304.265-.63.383-.967" transform="translate(22.593 31.641)"/><path d="m0 0h.035c.067 0 .156.604.259.947-.098-.004-.196-.046-.294-.046-1.496 0-2.826.303-3.83.89l1.089 2.128.453.887-.89.452-2.136 1.088c.508 1.151 1.515 2.249 2.818 3.142-.287.219-.56.442-.81.67-1.686-1.218-2.845-2.756-3.235-4.31l2.909-1.483-1.482-2.843c1.221-1.023 3.049-1.522 5.114-1.522" transform="translate(8.368 10)"/><path d="m0 0c-.39 1.555-1.548 3.093-3.234 4.311-.25-.228-.523-.451-.81-.669 1.304-.893 2.31-1.993 2.817-3.145l-2.135-1.088-.891-.453.454-.892 1.089-2.136c-1-.587-2.332-.905-3.828-.905-.099 0-.199.01-.299.013.103-.344.192-.682.26-1.01.013 0 .026-.002.039-.002 2.065 0 3.892.564 5.112 1.587l-1.482 2.909 2.908 1.481" transform="translate(36.17 15.846)"/><path d="m0 0c-.447-1.517-1.181-2.813-2.119-3.651l-1.695 1.694-.707.707-.708-.707-1.694-1.694c-.939.838-1.673 2.135-2.12 3.652-.296-.206-.593-.397-.886-.563.636-1.981 1.741-3.559 3.1-4.41l2.308 2.308 2.307-2.308c1.359.851 2.464 2.428 3.101 4.409-.294.167-.59.358-.887.563" transform="translate(23.522 6.664)"/><path d="m0 0l-2.308-2.841-2.307 2.841c-1.989-1.533-3.421-4.993-3.647-9.112-1.616.429-3.192.636-4.632.636-2.11.001-3.929-.445-5.161-1.288l1.99-3.073-3.415-1.317c.842-2.366 3.69-4.797 7.539-6.283-2.241-3.465-3.116-7.106-2.407-9.516l3.537.942.197-3.655c2.511.071 5.703 2.028 8.306 5.229 2.603-3.201 5.796-5.158 8.306-5.229l.198 3.656 3.535-.944c.71 2.412-.165 6.05-2.404 9.517 3.849 1.485 6.696 3.917 7.538 6.283l-3.415 1.318 1.99 3.07c-1.233.845-3.052 1.29-5.164 1.29-1.438 0-3.01-.207-4.63-.636-.224 4.12-1.657 7.58-3.646 9.112m-.189-4.991c.425-1.146.748-2.596.84-4.284l.201-3.683 3.564.947c1.32.35 2.655.535 3.86.535.161 0 .319-.003.474-.01l-1.827-2.819 3.139-1.211c-.958-.759-2.238-1.513-3.815-2.122l-3.441-1.328 2-3.099c.918-1.42 1.508-2.782 1.838-3.96l-3.245.865-.181-3.357c-1.019.677-2.132 1.66-3.198 2.973l-2.328 2.862-2.328-2.862c-1.067-1.312-2.179-2.295-3.198-2.972l-.18 3.353-3.248-.864c.329 1.178.921 2.54 1.839 3.961l2 3.099-3.442 1.329c-1.578.609-2.856 1.363-3.815 2.121l3.135 1.209-1.827 2.823c.156.006.314.009.473.009 1.206 0 2.541-.185 3.862-.536l3.564-.947.202 3.683c.092 1.688.414 3.138.84 4.284l2.118-2.608 2.119 2.609" transform="translate(21.308 36.31)"/></g></g></g></svg>