<svg xmlns="http://www.w3.org/2000/svg" viewBox="0 0 47.5 47.5" enable-background="new 0 0 47.5 47.5" xmlns:xlink="http://www.w3.org/1999/xlink"><defs><clipPath id="0"><path d="m0 38h38v-38h-38v38"/></clipPath></defs><g transform="matrix(1.25 0 0-1.25 0 47.5)"><g fill="#ccd6dd"><path d="m0 0l-5 3 2-6-1-2 6-5 7-2 3 11-12 1" transform="translate(7 14)"/><path d="m0 0l5 3-2-6 1-2-6-5-7-2-3 11 12 1" transform="translate(32 14)"/></g><g clip-path="url(#0)"><g fill="#66757f"><path d="m0 0c0-3.866-3.03-7-6.771-7-3.739 0-1.128 14-1.128 14 0 0 7.899-3.134 7.899-7" transform="translate(12 30)"/><path d="m0 0c0-3.313-2.687-6-6-6-3.313 0-6 2.687-6 6 0 3.313 2.687 6 6 6 3.313 0 6-2.687 6-6" transform="translate(25 7)"/></g><path d="m0 0c0-2.209-1.791-4-4-4-2.209 0-4 1.791-4 4 0 2.209 1.791 4 4 4 2.209 0 4-1.791 4-4" fill="#dd2e44" transform="translate(23 7)"/><path d="m0 0c-3.739 0-6.771 3.134-6.771 7 0 3.866 7.9 7 7.9 7 0 0 2.61-14-1.129-14" fill="#66757f" transform="translate(32.771 23)"/><g fill="#e6aaaa"><path d="m0 0c0-2.209-1.791-4-4-4-2.209 0 0 8 0 8 0 0 4-1.791 4-4" transform="translate(10 29)"/><path d="m0 0c-2.209 0-4 1.791-4 4 0 2.209 4 4 4 4 0 0 2.209-8 0-8" transform="translate(32 25)"/></g><path d="m0 0c0-7-6.923-7-6.923-7h-18.15c0 0-6.923 0-6.923 7 0 0 1.231 19 16 19 14.77 0 16-19 16-19" fill="#66757f" transform="translate(35 15)"/><path d="m0 0c0 0 0 2 2 2 2 0 2-2 2-2v-2c0 0 0-2-2-2-2 0-2 2-2 2v2" fill="#272b2b" transform="translate(12 20)" id="1"/><use transform="translate(10)" xlink:href="#1"/><path d="m0 0l1.229 3.162-2.628-2.666c-.388.1-.823.191-1.316.27v4.396l-2.518-4.121c-1.101.076-2.351.121-3.804.121-3.483 0-1-4.451-5.762-4.949-4.759.498-2.28 4.949-5.762 4.949-1.38 0-2.582-.04-3.643-.108l-2.511 4.108v-4.366c-.509-.077-.947-.169-1.348-.267l-2.596 2.633 1.203-3.093c-1.689-.778-1.502-1.864-.427-2.907 5.999-5.818 9-6 9.322-6 2.46 0 4.603.998 5.762 2.481 1.159-1.483 3.303-2.481 5.762-2.481.322 0 3.323.182 9.322 6 1.044 1.013 1.247 2.066-.285 2.838" fill="#ccd6dd" transform="translate(33.715 12.838)"/><path d="m0 0c-1-1 0-4 3-4 3 0 4 3 3 4-1 1-5 1-6 0" fill="#272b2b" transform="translate(16 12)"/></g></g></svg>