<svg xmlns="http://www.w3.org/2000/svg" viewBox="0 0 47.5 47.5" enable-background="new 0 0 47.5 47.5" xmlns:xlink="http://www.w3.org/1999/xlink"><defs><path id="1" d="m0 0v1c0 0 0 1 2 1 2 0 2-1 2-1v-1h-4" fill="#292f33"/><path id="2" d="m0 0c0-.276-.224-.5-.5-.5-.276 0-.5.224-.5.5 0 .276.224.5.5.5.276 0 .5-.224.5-.5" fill="#664500"/><clipPath id="0"><path d="m0 38h38v-38h-38v38"/></clipPath></defs><g transform="matrix(1.25 0 0-1.25 0 47.5)"><g clip-path="url(#0)"><path d="m0 0c-1.264 0-2.435-.393-3.402-1.061-.196.03-.393.061-.598.061-2.208 0-4-1.791-4-4v-6c0-3.866 3.134-7 7-7 3.867 0 7 3.134 7 7v4.999c0 3.314-2.686 6-6 6" fill="#642116" transform="translate(12 37)"/><g fill="#d79e84"><path d="m10 2h-3v8h3v-8"/><path d="m15 2h-3v8h3v-8"/></g><use transform="translate(6 1)" xlink:href="#1"/><use transform="translate(12 1)" xlink:href="#1"/><g fill="#d79e84"><path d="m0 0c-.164 0-.331.04-.485.126-.482.269-.657.877-.388 1.359l5 9c.268.482.876.657 1.36.388.482-.268.657-.877.388-1.36l-5-8.999c-.183-.329-.523-.515-.875-.515" transform="translate(1.999 11)"/><path d="m0 0c-.352 0-.692.186-.875.515l-5 8.999c-.269.483-.094 1.092.388 1.36.484.269 1.092.094 1.36-.388l5-9c.269-.482.095-1.09-.389-1.359-.153-.086-.32-.126-.484-.126" transform="translate(20 11)"/></g><path d="m0 0h12l-2 6v4h2v1c0 1.104-.896 2-2 2h-2-4-2c-1.105 0-2-.896-2-2v-1h2v-4l-2-6" fill="#e75a70" transform="translate(5 10)"/><path d="m15 16h-8v2h8v-2" fill="#da2f47"/><path d="m0 0v-4c0-1.104.896-2 2-2 1.104 0 2 .896 2 2v4h-4" fill="#d79e84" transform="translate(9 26)" id="3"/><path d="m0 0l-4-.019v-3.981c0 0 2-1 4 0v4" fill="#bf6952" transform="translate(13 26)" id="4"/><path d="m0 0h-10v-6c0-2.763 2.238-5 5-5 2.761 0 5 2.237 5 5v6" fill="#d79e84" transform="translate(16 34)"/><path d="m0 0c0 0 0-4 8-4v4h-8" fill="#642116" transform="translate(9 34)" id="5"/><path d="m0 0c0 0 0-4-4-4v4h4" fill="#642116" transform="translate(9 34)" id="6"/><path d="m0 0h-2-2c0 0 0-1 2-1 2 0 2 1 2 1" fill="#c1694f" transform="translate(13 25)" id="7"/><use transform="translate(9 28.5)" xlink:href="#2"/><use transform="translate(14 28.5)" xlink:href="#2"/><path d="m0 0h1 1c0 0 0-1-1-1-1 0-1 1-1 1" fill="#c1694f" transform="translate(10 27)"/><path d="m0 0c0 3.314-2.687 6-6 6-1.264 0-2.436-.393-3.402-1.061-.197.03-.393.061-.598.061-2.209 0-4-1.791-4-4v-6h4.686c.949-.631 2.087-1 3.314-1 1.226 0 2.364.369 3.314 1h2.686v4.999" fill="#642116" transform="translate(34 30.999)"/><g fill="#d79e84"><path d="m26 2h-3v8h3v-8"/><path d="m31 2h-3v8h3v-8"/></g><use transform="translate(22 1)" xlink:href="#1"/><use transform="translate(28 1)" xlink:href="#1"/><g fill="#d79e84"><path d="m0 0c-.164 0-.331.04-.485.126-.482.269-.657.877-.388 1.359l5 9c.268.482.878.657 1.359.388.484-.268.658-.877.389-1.36l-5-8.999c-.183-.329-.523-.515-.875-.515" transform="translate(17.999 11)"/><path d="m0 0c-.352 0-.692.186-.875.515l-5 8.999c-.269.483-.095 1.092.389 1.36.482.269 1.091.094 1.359-.388l5-9c.269-.482.095-1.09-.389-1.359-.153-.086-.32-.126-.484-.126" transform="translate(36 11)"/></g><path d="m0 0v1c0 1.104-.896 2-2 2h-2-4-2c-1.104 0-2-.896-2-2v-1h2v-4l-2-6h12l-2 6v4h2" fill="#9268ca" transform="translate(33 20)"/><path d="m31 16h-8v2h8v-2" fill="#aa8ed6"/><use transform="translate(16)" xlink:href="#3"/><use transform="translate(16)" xlink:href="#4"/><path d="m0 0h-10v-6c0-2.763 2.238-5 5-5 2.762 0 5 2.237 5 5v6" fill="#d79e84" transform="translate(32 34)"/><use transform="translate(16)" xlink:href="#5"/><use transform="translate(16)" xlink:href="#6"/><use transform="translate(16)" xlink:href="#7"/><use transform="translate(25 28.5)" xlink:href="#2"/><use transform="translate(30 28.5)" xlink:href="#2"/><path d="m0 0h1 1c0 0 0-1-1-1-1 0-1 1-1 1" fill="#c1694f" transform="translate(26 27)"/></g></g></svg>