<svg xmlns="http://www.w3.org/2000/svg" viewBox="0 0 47.5 47.5" enable-background="new 0 0 47.5 47.5"><defs><clipPath id="0"><path d="m0 38h38v-38h-38v38"/></clipPath></defs><g transform="matrix(1.25 0 0-1.25 0 47.5)"><path d="m0 0v7h-2v-7h-3v-5h8v5h-3" fill="#58595b" transform="translate(20 25)"/><g clip-path="url(#0)"><path d="m0 0h-16c-2.209 0-4-1.791-4-4v-14c0-2.209 1.791-4 4-4h16c2.209 0 4 1.791 4 4v14c0 2.209-1.791 4-4 4" fill="#dd2e44" transform="translate(27 23)"/><path d="m31 10h-24v9h24v-9" fill="#88c9f9"/><path d="m0 0l-29.943 8.02c-.534.144-.85.692-.707 1.226.142.533.691.85 1.224.707l29.944-8.02c.534-.144.85-.692.707-1.225-.143-.534-.691-.852-1.225-.708" fill="#6d6e71" transform="translate(34.21 26.02)"/><path d="m0 0l-1.933.518.259.964-5.795 1.553-.259-.965-1.932.518c-1.067.285-2.163-.348-2.449-1.415-.287-1.067.347-2.163 1.414-2.449l9.66-2.588c1.066-.286 2.163.347 2.449 1.414.285 1.066-.348 2.164-1.414 2.45" fill="#a7a9ac" transform="translate(24.348 32.639)"/><g fill="#808285"><path d="m0 0c-.286-1.066-1.383-1.7-2.45-1.414-1.066.286-1.7 1.383-1.414 2.449.286 1.068 1.383 1.7 2.449 1.415 1.067-.286 1.701-1.383 1.415-2.45" transform="translate(14.877 32.07)"/><path d="m0 0c-.286-1.067-1.383-1.7-2.449-1.414-1.068.286-1.7 1.382-1.414 2.449.285 1.068 1.382 1.7 2.449 1.414 1.066-.286 1.7-1.383 1.414-2.449" transform="translate(26.469 28.964)"/></g><path d="m0 0c-.343-.59-.555-1.268-.555-2h24c0 .732-.211 1.41-.554 2h-22.891" fill="#55acee" transform="translate(7.555 21)"/><g fill="#231f20"><path d="m15 10h-2v11h2v-11"/><path d="m24 10h-2v11h2v-11"/></g></g></g></svg>