<svg xmlns="http://www.w3.org/2000/svg" viewBox="0 0 47.5 47.5" enable-background="new 0 0 47.5 47.5" xmlns:xlink="http://www.w3.org/1999/xlink"><defs><path id="1" d="m0 0c0-.276-.224-.5-.5-.5-.276 0-.5.224-.5.5 0 .276.224.5.5.5.276 0 .5-.224.5-.5" fill="#fff"/><path id="2" d="m0 0c0-.552-.447-1-1-1-.553 0-1 .448-1 1 0 .552.447 1 1 1 .553 0 1-.448 1-1" fill="#fff"/><clipPath id="0"><path d="m5 37c-2.209 0-4-1.791-4-4v-28c0-2.209 1.791-4 4-4h28c2.209 0 4 1.791 4 4v28c0 2.209-1.791 4-4 4h-28"/></clipPath></defs><g transform="matrix(1.25 0 0-1.25 0 47.5)"><g clip-path="url(#0)"><path d="m37-1h-38v38h38v-38" fill="#004a77"/><g fill="#fe5011"><path d="m0 0v2c.117.049 11.263 4.451 18 16l2-1c-7.089-12.153-19.497-16.794-20-17" transform="translate(-1 10)"/><path d="m0 0c0 0 0 2-2 2-2 0-2-2-2-2v-28h4v28" transform="translate(21 28)"/><path d="m37 6h-36v4h36v-4"/><path d="m0 0v2c-.117.049-11.264 4.451-18 16l-2-1c7.09-12.153 19.497-16.794 20-17" transform="translate(39 10)"/><path d="m11 9h2v11h-2v-11"/><path d="m27 9h-2v11h2v-11"/><path d="m5 9h2v6h-2v-6"/><path d="m33 8h-2v7h2v-7"/></g><path d="m0 0c-1.381 0-2.5 1.119-2.5 2.5 0 1.13.755 2.074 1.784 2.383-.251.069-.511.117-.784.117-1.657 0-3-1.343-3-3 0-1.657 1.343-3 3-3 .959 0 1.803.458 2.353 1.159-.268-.097-.552-.159-.853-.159" fill="#fff" transform="translate(7.5 30)"/><use transform="translate(12 34.5)" xlink:href="#1"/><use transform="translate(28 25.5)" xlink:href="#1"/><use transform="translate(9 25.5)" xlink:href="#1"/><path d="m0 0c0-.552-.447-1-1-1-.553 0-1 .448-1 1 0 .552.447 1 1 1 .553 0 1-.448 1-1" fill="#fff" transform="translate(24 32)"/><use transform="translate(6 20)" xlink:href="#2"/><use transform="translate(14 30)" xlink:href="#2"/><use transform="translate(34 20)" xlink:href="#2"/><use transform="translate(28 31.5)" xlink:href="#1"/><use transform="translate(33 34)" xlink:href="#2"/><use transform="translate(33 29.5)" xlink:href="#1"/></g></g></svg>