<svg xmlns="http://www.w3.org/2000/svg" viewBox="0 0 47.5 47.5" enable-background="new 0 0 47.5 47.5" xmlns:xlink="http://www.w3.org/1999/xlink"><defs><path id="1" d="m0 0c0-.553-.447-1-1-1h-8c-.552 0-1 .447-1 1 0 .553.448 1 1 1h8c.553 0 1-.447 1-1" fill="#99aab5"/><clipPath id="0"><path d="m0 38h38v-38h-38v38"/></clipPath></defs><g transform="matrix(1.25 0 0-1.25 0 47.5)"><g clip-path="url(#0)"><path d="m0 0h-29c4 0 3 9 3 9 0 2.209 1.791 15 4 15h21c0 0 4 0 4-4v-17c0 0 0-3-3-3" fill="#99aab5" transform="translate(34 1)"/><path d="m0 0c0-3 3-3 3-3h-30c0 0-3 0-3 4v28c0 2.209 1.791 4 4 4h22c2.209 0 4-1.791 4-4v-29" fill="#ccd6dd" transform="translate(31 4)"/><use transform="translate(28 17)" xlink:href="#1"/><use transform="translate(28 21)" xlink:href="#1"/><use transform="translate(28 25)" xlink:href="#1"/><path d="m0 0c0-.553-.447-1-1-1h-22c-.552 0-1 .447-1 1 0 .553.448 1 1 1h22c.553 0 1-.447 1-1" fill="#99aab5" transform="translate(28 13)"/><path d="m0 0c0-.553-.447-1-1-1h-22c-.552 0-1 .447-1 1 0 .553.448 1 1 1h22c.553 0 1-.447 1-1" fill="#99aab5" transform="translate(28 9)" id="2"/><use transform="translate(0-4)" xlink:href="#2"/><path d="m0 0c0 0 2 0 2 2v2c0 0 0 2-2 2h-20c0 0-2 0-2-2v-2c0 0 0-2 2-2h20" fill="#99aab5" transform="translate(26 28)"/><path d="m0 0c0 0 2 0 2 2v6c0 0 0 2-2 2h-8c0 0-2 0-2-2v-6c0 0 0-2 2-2h8" fill="#55acee" transform="translate(14 16)"/></g></g></svg>