<svg xmlns="http://www.w3.org/2000/svg" viewBox="0 0 47.5 47.5" enable-background="new 0 0 47.5 47.5" xmlns:xlink="http://www.w3.org/1999/xlink"><defs><path id="1" d="m0 0h-16c-1.104 0-2-.896-2-2h20c0 1.104-.896 2-2 2" fill="#808285"/><clipPath id="0"><path d="m0 38h38v-38h-38v38"/></clipPath></defs><g transform="matrix(1.25 0 0-1.25 0 47.5)"><g clip-path="url(#0)"><g fill="#d1d3d4"><path d="m0 0c0-1.104-.896-2-2-2h-8c-1.104 0-2 .896-2 2v8c0 1.104.896 2 2 2h8c1.104 0 2-.896 2-2v-8" transform="translate(25 27)"/><path d="m0 0v-20c0-1.104.896-2 2-2h32c1.104 0 2 .896 2 2v20h-36" transform="translate(1 23)"/></g><use transform="translate(19 25)" xlink:href="#1"/><use transform="translate(35 25)" xlink:href="#1"/><g fill="#55acee"><path d="m35 11h-32v4h32v-4"/><path d="m35 17h-32v4h32v-4"/><path d="m35 5h-32v4h32v-4"/></g><path d="m29 1h-20v24h20v-24" fill="#e6e7e8"/><g fill="#55acee"><path d="m27 13h-16v4h16v-4"/><path d="m27 19h-16v4h16v-4"/><path d="m27 7h-16v4h16v-4"/></g><path d="m24 1h-10v4h10v-4" fill="#3b88c3"/><path d="m0 0h-3v3h-2v-3h-3v-2h3v-3h2v3h3v2" fill="#dd2e44" transform="translate(23 33)"/><use transform="translate(27 27)" xlink:href="#1"/></g></g></svg>