<svg xmlns="http://www.w3.org/2000/svg" viewBox="0 0 47.5 47.5" enable-background="new 0 0 47.5 47.5"><defs><clipPath id="0"><path d="m0 38h38v-38h-38v38"/></clipPath></defs><g transform="matrix(1.25 0 0-1.25 0 47.5)"><g clip-path="url(#0)"><path d="m0 0c-5.523 0-10-4.477-10-10v-10h4v10c0 3.313 2.687 6 6 6 3.313 0 6-2.687 6-6v-10h4v10c0 5.523-4.477 10-10 10" fill="#bcbec0" transform="translate(14 33)"/><path d="m0 0c0-2.209-1.791-4-4-4h-16c-2.209 0-4 1.791-4 4v10c0 2.209 1.791 4 4 4h16c2.209 0 4-1.791 4-4v-10" fill="#ffac33" transform="translate(26 5)"/><g fill="#c1694f"><path d="m0 0c-1.104 0-2 .896-2 2 0 1.104.896 2 2 2 1.104 0 2-.896 2-2 0-1.104-.896-2-2-2m0 6c-4.971 0-9-4.03-9-9 0-4.971 4.03-9 9-9 4.971 0 9 4.03 9 9 0 4.971-4.03 9-9 9" transform="translate(27 31)"/><path d="m0 0v7c0 1.104-.896 2-2 2-.748 0-1.393-.416-1.735-1.024-1.269-.12-2.265-1.176-2.265-2.476v-17c0-1.381 1.119-2.5 2.5-2.5 1.213 0 2.223.864 2.45 2.01.018-.001.032-.01.05-.01.553 0 1 .447 1 1v1c0 .553-.447 1-1 1v1c.553 0 1 .447 1 1v2c0 .553-.447 1-1 1v2.277c.596.347 1 .985 1 1.723" transform="translate(30 15)"/></g></g></g></svg>