<svg xmlns="http://www.w3.org/2000/svg" viewBox="0 0 47.5 47.5" enable-background="new 0 0 47.5 47.5"><defs><clipPath id="0"><path d="m0 38h38v-38h-38v38"/></clipPath></defs><g transform="matrix(1.25 0 0-1.25 0 47.5)"><g clip-path="url(#0)"><path d="m0 0c0-2.209-1.791-4-4-4h-28c-2.209 0-4 1.791-4 4v28c0 2.209 1.791 4 4 4h28c2.209 0 4-1.791 4-4v-28" fill="#f4900c" transform="translate(37 5)"/><path d="m0 0c.312 0 .571-.13.754-.312 1.065-1.326 1.897-2.574 2.573-3.9.078-.156.105-.312.105-.442 0-.365-.208-.676-.573-.858-.156-.078-.338-.131-.494-.131-.338 0-.649.157-.832.443-.65 1.326-1.404 2.626-2.391 3.874-.079.13-.13.286-.13.442 0 .26.13.52.441.728.182.104.364.156.547.156m-1.509 7.332h-3.067v-4.523h3.067v4.523zm0 6.24h-3.067v-4.42h3.067v4.42m-4.186-13.65c.416 0 .703-.182.832-.546.494-1.3.91-2.678 1.17-3.926.026-.078.026-.182.026-.261 0-.416-.312-.727-.806-.832-.13-.025-.234-.051-.364-.051-.416 0-.754.234-.806.65-.181 1.222-.597 2.678-1.013 3.926-.027.078-.053.182-.053.26 0 .364.26.65.676.728.131.026.234.052.338.052m-.623 7.41h-2.991v-4.523h2.991v4.523zm0 6.24h-2.991v-4.42h2.991v4.42m-4.759-13.702c.416 0 .728-.234.806-.599.312-1.299.494-2.807.598-4.133v-.078c0-.468-.39-.781-.936-.832h-.13c-.494 0-.884.286-.91.728-.052 1.222-.208 2.704-.468 4.03v.13c0 .364.312.65.78.728.078.026.182.026.26.026m0 7.462h-2.964v-4.523h2.964v4.523zm0 6.24h-2.964v-4.42h2.964v4.42m-3.562-14.482c0-.104-.026-.208-.078-.338-.598-1.482-1.508-2.99-2.522-4.134-.26-.261-.546-.39-.858-.39-.26 0-.494.078-.728.26-.235.182-.364.416-.364.701 0 .208.078.443.286.651.91.91 1.716 2.158 2.314 3.614.13.338.416.52.78.52.13 0 .286-.026.442-.078.468-.13.728-.442.728-.806m-1.222 11.622c0 .703.078 1.456.208 2.184-.676-.78-1.404-1.481-2.159-2.158-.233-.155-.467-.259-.701-.259-.26 0-.52.129-.728.363-.13.182-.208.39-.208.573 0 .312.156.624.494.832 1.872 1.43 3.432 3.432 4.55 5.693.182.287.442.416.78.416.156 0 .338-.025.52-.103.364-.13.572-.416.572-.729 0-.155-.052-.337-.156-.493-.364-.598-.78-1.197-1.248-1.768.962.051 1.872.078 2.808.078h13.572c.468 0 .703-.364.703-.91 0-.494-.235-.859-.703-.859h-2.158v-4.42h3.095c.468 0 .727-.364.727-.91 0-.52-.259-.91-.727-.91h-3.095v-4.523h2.444c.468 0 .703-.365.703-.885 0-.494-.235-.91-.703-.91h-21.11c-.469 0-.702.39-.702.91 0 .494.233.885.702.885h2.522v4.523h-3.12c-.442 0-.703.39-.703.91 0 .52.261.91.703.91h3.12v1.56z" fill="#fff" transform="translate(26.775 12.744)"/></g></g></svg>