<svg xmlns="http://www.w3.org/2000/svg" viewBox="0 0 47.5 47.5" enable-background="new 0 0 47.5 47.5"><defs><clipPath id="0"><path d="m0 38h38v-38h-38v38"/></clipPath></defs><g transform="matrix(1.25 0 0-1.25 0 47.5)"><g clip-path="url(#0)"><path d="m0 0c0-1.104-.896-2-2-2h-18c-1.104 0-2 .896-2 2v32c0 1.104.896 2 2 2h18c1.104 0 2-.896 2-2v-32" fill="#292f33" transform="translate(30 3)"/><path d="m0 0h22.602c4.082 3.3 5.699 8.342 5.699 14 0 5.658-1.616 10.7-5.698 14h-22.604c-4.082-3.3-5.698-8.342-5.698-14 0-5.658 1.616-10.7 5.699-14" fill="#be1931" transform="translate(7.699 5)"/><g fill="#dd2e44"><path d="m0 0c.108-.682.245-1.35.415-2h32.568c.17.65.307 1.318.415 2h-33.398" transform="translate(2.301 15)"/><path d="m0 0h33.855c.048.657.073 1.324.073 2h-34c0-.676.024-1.343.072-2" transform="translate(2.072 17)"/><path d="m0 0c.363.64.684 1.306.956 2h-31.27c.272-.694.593-1.36.956-2h29.354" transform="translate(33.677 9)"/><path d="m0 0c-.254-.646-.471-1.313-.651-2h32.569c-.18.687-.397 1.354-.651 2h-31.27" transform="translate(3.366 27)"/><path d="m0 0c-.104-.654-.179-1.321-.229-2h33.856c-.049.679-.125 1.346-.229 2h-33.398" transform="translate(2.301 23)"/><path d="m0 0h-26.629c.591-.721 1.259-1.391 2.01-2h22.602c.754.609 1.422 1.279 2.01 2" transform="translate(32.31 7)"/><path d="m0 0c-.515-.627-.964-1.298-1.363-2h29.356c-.398.702-.848 1.373-1.362 2h-26.631" transform="translate(5.685 31)"/></g></g></g></svg>