<svg xmlns="http://www.w3.org/2000/svg" viewBox="0 0 47.5 47.5" enable-background="new 0 0 47.5 47.5"><defs><clipPath id="0"><path d="m0 38h38v-38h-38v38"/></clipPath></defs><g transform="matrix(1.25 0 0-1.25 0 47.5)"><g clip-path="url(#0)" fill="#67757f"><path d="m0 0l-10.141 6.389c-.904.569-1.644.181-1.644-.865v-1.873h-11.05v1.873c0 1.046-.74 1.434-1.644.865l-10.141-6.389c-.904-.57-.922-1.527-.037-2.127l10.215-6.932c.884-.602 1.607-.234 1.607.811v1.899h11.05v-1.899c0-1.046.722-1.412 1.607-.811l10.215 6.932c.885.6.867 1.557-.037 2.127" transform="translate(36.31 30.348)"/><path d="m0 0c0 2.635-1.372 5.01-4.094 5.01-2.721 0-4.094-2.375-4.094-5.01 0-2.656 1.33-5.01 4.094-5.01 2.765 0 4.094 2.352 4.094 5.01m-11.584 0c0 4.529 3.048 8.01 7.49 8.01 4.377 0 7.491-3.594 7.491-8.01 0-4.506-3.03-8.01-7.491-8.01-4.42 0-7.49 3.508-7.49 8.01" transform="translate(12.788 9.01)"/><path d="m0 0c0 1.089.696 1.699 1.632 1.699.415 0 1.09-.327 1.373-.72l6.902-9.21h.045v8.231c0 1.089.694 1.699 1.633 1.699.936 0 1.633-.61 1.633-1.699v-12.368c0-1.088-.697-1.697-1.633-1.697-.415 0-1.067.326-1.372.716l-6.903 9.102h-.044v-8.121c0-1.088-.698-1.697-1.634-1.697-.936 0-1.632.609-1.632 1.697v12.368" transform="translate(17.413 15.198)"/><path d="m0 0c0 .914.673 1.48 1.567 1.48.871 0 1.568-.587 1.568-1.48v-8.384c0-.893-.697-1.479-1.568-1.479-.894 0-1.567.564-1.567 1.479v8.384m-.131-12.848c0 .936.762 1.7 1.698 1.7.936 0 1.699-.764 1.699-1.7 0-.935-.763-1.699-1.699-1.699-.936 0-1.698.764-1.698 1.699" transform="translate(33.557 15.547)"/></g></g></svg>