<svg xmlns="http://www.w3.org/2000/svg" viewBox="0 0 47.5 47.5" enable-background="new 0 0 47.5 47.5"><defs><clipPath id="0"><path d="m0 38h38v-38h-38v38"/></clipPath></defs><g transform="matrix(1.25 0 0-1.25 0 47.5)"><g clip-path="url(#0)"><path d="m0 0l-22.418-2.587c-.985-.114-1.791-1.017-1.791-2.01v-.197-4.198-14.387c-.91.371-1.925.585-3 .585-3.865 0-7-2.686-7-6 0-3.315 3.135-6 7-6 3.865 0 7 2.685 7 6v18.461l18 2.077v-13.12c-.91.371-1.925.585-3 .585-3.865 0-7-2.686-7-6 0-3.315 3.135-6 7-6 3.865 0 7 2.685 7 6v20.802 4.395c0 .992-.806 1.71-1.791 1.596" fill="#5dadec" transform="translate(35.21 36.794)"/></g></g></svg>