<svg xmlns="http://www.w3.org/2000/svg" viewBox="0 0 47.5 47.5" enable-background="new 0 0 47.5 47.5"><defs><clipPath id="0"><path d="m0 38h38v-38h-38v38"/></clipPath></defs><g transform="matrix(1.25 0 0-1.25 0 47.5)"><g clip-path="url(#0)"><path d="m0 0c0-2.209-1.791-4-4-4h-28c-2.209 0-4 1.791-4 4v28c0 2.209 1.791 4 4 4h28c2.209 0 4-1.791 4-4v-28" fill="#3b88c3" transform="translate(37 5)"/><g fill="#fff"><path d="m0 0c1.425 0 2.109 1.444 2.109 2.754 0 1.311-.665 2.793-2.109 2.793-1.501 0-2.166-1.482-2.166-2.793 0-1.31.684-2.754 2.166-2.754m4.844-.608c0-.703 0-1.786-1.311-1.786-.798 0-1.12.437-1.31 1.159-.703-.836-1.558-1.273-2.603-1.273-2.565 0-4.521 2.185-4.521 5.262 0 3 2.01 5.301 4.521 5.301 1.01 0 1.995-.399 2.603-1.254.076.665.646 1.14 1.31 1.14 1.311 0 1.311-1.083 1.311-1.786v-6.763z" transform="translate(11.828 22.28)"/><path d="m0 0c-.684 0-1.292.532-2.166.532-1.558 0-2.298-1.386-2.298-2.793 0-1.348.817-2.755 2.298-2.755.684 0 1.71.571 2.033.571.646 0 1.177-.551 1.177-1.198 0-1.405-2.355-1.879-3.343-1.879-2.945 0-4.901 2.412-4.901 5.261 0 2.774 2.01 5.3 4.901 5.3 1.083 0 3.343-.398 3.343-1.728 0-.57-.398-1.311-1.044-1.311" transform="translate(15.182 11.295)"/><path d="m0 0c1.425 0 2.128 1.481 2.128 2.754 0 1.292-.703 2.793-2.128 2.793-1.463 0-2.146-1.368-2.146-2.697 0-1.33.645-2.85 2.146-2.85m-4.882 10.828c0 .912.57 1.52 1.367 1.52.798 0 1.369-.608 1.369-1.52v-3.723c.721.627 1.652.95 2.602.95 2.944 0 4.407-2.755 4.407-5.414 0-2.584-1.747-5.149-4.503-5.149-.929 0-1.994.418-2.506 1.254-.171-.722-.609-1.14-1.369-1.14-.797 0-1.367.608-1.367 1.52v11.702z" transform="translate(26.21 22.28)"/><path d="m0 0c-1.425 0-2.128-1.501-2.128-2.793 0-1.272.703-2.755 2.128-2.755 1.501 0 2.147 1.521 2.147 2.85 0 1.33-.684 2.698-2.147 2.698m4.882-6.421c0-.912-.57-1.52-1.367-1.52-.76 0-1.198.418-1.368 1.139-.513-.835-1.578-1.253-2.507-1.253-2.755 0-4.503 2.565-4.503 5.148 0 2.66 1.463 5.414 4.407 5.414.95 0 1.881-.322 2.603-.949v3.722c0 .913.57 1.521 1.368 1.521.797 0 1.367-.608 1.367-1.521v-11.701z" transform="translate(25.79 11.827)"/></g></g></g></svg>