<svg xmlns="http://www.w3.org/2000/svg" viewBox="0 0 47.5 47.5" enable-background="new 0 0 47.5 47.5"><defs><clipPath id="0"><path d="m0 38h38v-38h-38v38"/></clipPath></defs><g transform="matrix(1.25 0 0-1.25 0 47.5)"><g clip-path="url(#0)"><path d="m0 0c-3.382 0-11.9-3.549-15.751-7.158v12.158c0 .553-.447 1-1 1-.552 0-1-.447-1-1v-12.341c-3.753 3.672-12.509 7.341-15.948 7.341-.929 0 10.861-13.992 15.948-12.599v-.401c0-.553.448-1 1-1 .553 0 1 .447 1 1v.356c5.188-.994 16.668 12.644 15.751 12.644" fill="#77b255" transform="translate(35.751 15)"/><path d="m0 0c0-6.351-1.707-9.583-7-9.583-5.293 0-7 3.232-7 9.583 0 6.351 5 13.417 7 13.417 2 0 7-7.07 7-13.417" fill="#ea596e" transform="translate(26 23.584)"/><path d="m0 0c-.48 0-4.106-14.271-4.803-19.279-.746 5.01-4.511 19.279-4.992 19.279-1 0-6-9-6-13 0-4 5.707-8 11-8 5.293 0 10.795 4 10.795 8 0 4-5 13-6 13" fill="#f4abba" transform="translate(23.795 35)"/></g></g></svg>