<svg xmlns="http://www.w3.org/2000/svg" viewBox="0 0 47.5 47.5" enable-background="new 0 0 47.5 47.5"><defs><clipPath id="0"><path d="m0 38h38v-38h-38v38"/></clipPath></defs><g transform="matrix(1.25 0 0-1.25 0 47.5)"><g clip-path="url(#0)"><path d="m0 0l-3.711 3.711c1.396 1.962 2.226 4.354 2.226 6.945 0 6.628-5.373 12-12 12-6.628 0-12-5.372-12-12 0-6.627 5.372-12 12-12 2.591 0 4.984.83 6.945 2.227l3.712-3.711 2.828 2.828" fill="#9aaab4" transform="translate(26.485 14.344)"/><path d="m0 0c0-4.418-3.582-8-8-8-4.418 0-8 3.582-8 8 0 4.418 3.582 8 8 8 4.418 0 8-3.582 8-8" fill="#bdddf4" transform="translate(21 25)"/><path d="m0 0l-8.485 8.484c-.782.782-2.047.782-2.828 0l-2.829-2.828c-.781-.781-.781-2.047 0-2.828l2.829-2.828 5.656-5.656c1.562-1.563 4.095-1.563 5.658 0 1.562 1.56 1.561 4.093-.001 5.656" fill="#67757f" transform="translate(35.728 7.828)"/></g></g></svg>