<svg xmlns="http://www.w3.org/2000/svg" viewBox="0 0 47.5 47.5" enable-background="new 0 0 47.5 47.5"><defs><clipPath id="0"><path d="m0 38h38v-38h-38v38"/></clipPath></defs><g transform="matrix(1.25 0 0-1.25 0 47.5)"><g clip-path="url(#0)"><path d="m0 0c0-9.389-7.611-17-17-17-9.388 0-17 7.611-17 17 0 9.388 7.612 17 17 17 9.389 0 17-7.612 17-17" fill="#ffcc4d" transform="translate(36 19)"/><path d="m0 0h-18c-2.2 0-4 1.8-4 4 0 2.2 1.8 4 4 4h18c2.2 0 4-1.8 4-4 0-2.2-1.8-4-4-4" fill="#664500" transform="translate(28 10)"/><g fill="#f5f8fa"><path d="m25 16h-5v-4h5v4"/><path d="m13 12h5v4h-5v-4"/><path d="m0 0h-1c-1.104 0-2-.896-2-2 0-1.104.896-2 2-2h1v4" transform="translate(11 16)"/><path d="m0 0h-1v-4h1c1.104 0 2 .896 2 2 0 1.104-.896 2-2 2" transform="translate(28 16)"/></g><g fill="#664500"><path d="m0 0c-.419 0-.809.265-.949.684-.203.599-1.017 2.316-2.051 2.316-1.062 0-1.888-1.827-2.051-2.316-.175-.524-.739-.808-1.265-.632-.524.174-.808.74-.633 1.264.126.377 1.304 3.684 3.949 3.684 2.645 0 3.823-3.307 3.949-3.684.175-.524-.109-1.09-.633-1.264-.105-.035-.211-.052-.316-.052" transform="translate(17 20)"/><path d="m0 0c-.419 0-.809.265-.948.684-.203.599-1.019 2.316-2.052 2.316-1.062 0-1.889-1.827-2.052-2.316-.175-.524-.736-.808-1.264-.632-.524.174-.807.74-.632 1.264.125.377 1.303 3.684 3.948 3.684 2.645 0 3.823-3.307 3.948-3.684.175-.524-.108-1.09-.632-1.264-.105-.035-.211-.052-.316-.052" transform="translate(27 20)"/></g></g></g></svg>