<svg xmlns="http://www.w3.org/2000/svg" viewBox="0 0 47.5 47.5" enable-background="new 0 0 47.5 47.5" xmlns:xlink="http://www.w3.org/1999/xlink"><defs><clipPath id="0"><path d="m0 38h38v-38h-38v38"/></clipPath></defs><g transform="matrix(1.25 0 0-1.25 0 47.5)"><g clip-path="url(#0)"><path d="m0 0c0-5.522-8.06-10-18-10-9.941 0-18 4.478-18 10 0 5.522 8.06 10 18 10 9.941 0 18-4.478 18-10" fill="#939598" transform="translate(37 12)"/><path d="m0 0c0-5.522-8.06-10-18-10-9.941 0-18 4.478-18 10 0 5.522 8.06 10 18 10 9.941 0 18-4.478 18-10" fill="#f1f2f2" transform="translate(37 14)"/><path d="m0 0c0-4.54-6.626-8.223-14.8-8.223-8.174 0-14.8 3.683-14.8 8.223 0 4.541 6.626 8.222 14.8 8.222 8.174 0 14.8-3.681 14.8-8.222" fill="#ccd6dd" transform="translate(33.8 15)"/><path d="m0 0c0-3.068-4.926-5.556-11-5.556-6.075 0-11 2.488-11 5.556 0 3.068 4.925 5.556 11 5.556 6.074 0 11-2.488 11-5.556" fill="#8a4b38" transform="translate(30 15)"/><path d="m0 0c0-3.891-6-7.04-13.403-7.04-7.403 0-13.404 3.153-13.404 7.04 0 3.889 6 7.04 13.404 7.04 7.402 0 13.403-3.154 13.403-7.04" fill="#ad5540" transform="translate(32.403 14.957)"/><path d="m0 0c0-9-26-9-26 0v8h26v-8" fill="#662113" transform="translate(32 16)"/><path d="m0 0c0-3.89-6-7.04-13.403-7.04-7.403 0-13.404 3.153-13.404 7.04 0 3.89 6 7.04 13.404 7.04 7.402 0 13.403-3.153 13.403-7.04" fill="#ad5540" transform="translate(32.403 24.957)"/><path d="m0 0c-.552 0-1 .448-1 1v7c0 .552.448 1 1 1 .552 0 1-.448 1-1v-7c0-.552-.448-1-1-1" fill="#88c9f9" transform="translate(12 24)" id="1"/><use transform="translate(7-3)" xlink:href="#1"/><path d="m0 0c-.553 0-1 .448-1 1v7c0 .552.447 1 1 1 .553 0 1-.448 1-1v-7c0-.552-.447-1-1-1" fill="#88c9f9" transform="translate(26 24)"/><g fill="#ffac33"><path d="m0 0c-1.062 0-1.896.486-2.233 1.299-.292.706-.438 2.238 1.879 4.555.196.195.512.195.708 0 2.317-2.317 2.171-3.849 1.879-4.555-.337-.813-1.171-1.299-2.233-1.299" transform="translate(26 30.5)"/><path d="m0 0c-1.062 0-1.896.486-2.233 1.299-.293.706-.437 2.238 1.879 4.555.196.195.512.195.708 0 2.317-2.317 2.171-3.849 1.879-4.555-.337-.813-1.171-1.299-2.233-1.299" transform="translate(19 27.5)"/><path d="m0 0c-1.062 0-1.896.486-2.233 1.299-.293.706-.437 2.238 1.879 4.555.196.195.512.195.708 0 2.316-2.317 2.172-3.849 1.879-4.555-.337-.813-1.171-1.299-2.233-1.299" transform="translate(12 30.5)"/></g></g></g></svg>