<svg xmlns="http://www.w3.org/2000/svg" viewBox="0 0 47.5 47.5" enable-background="new 0 0 47.5 47.5"><defs><clipPath id="0"><path d="m0 38h38v-38h-38v38"/></clipPath></defs><g transform="matrix(1.25 0 0-1.25 0 47.5)"><g clip-path="url(#0)"><path d="m0 0c-.277 3.307 2.17 4.72 2.17 4.72-3.199-.113-4.894-2.825-4.894-2.825-.752 1.299.946 4.01 2.169 4.719-3.198-.113-3.67-2.12-3.67-2.12-1.503 2.601-1.029 4.608-1.029 4.608-1.121-.648-1.767-2.113-2.142-3.513l-2.318 2.671c-.23-1.046.156-3.176.572-4.962-3.054 1.791-5.902.151-5.902.151 3.95-1.187 5.45-3.787 5.45-3.787 0 0-3.948 1.187-5.645-1.527 2.596.092 4.5-.499 5.856-1.229-1.163-.289-3.145.236-4.355-1.371 0 0 3.198.113 3.851-1.055-2.172-.614-3.574-2.251-3.574-2.251 4.422.818 9.123-1.668 9.123-1.668l6.118 3.532c-1.029 4.607 2.642 6.727 2.642 6.727-2.725 1.893-4.422-.82-4.422-.82" fill="#5c913b" transform="translate(19.241 27.367)"/><path d="m0 0c2.488-4.309 1.218-9.7-2.837-12.04-4.055-2.341-9.359-.746-11.846 3.562l-1.589 2.753c-2.489 4.31-1.218 9.699 2.837 12.04 4.055 2.342 9.359.747 11.846-3.562l1.589-2.752" fill="#ffac33" transform="translate(30.561 14.12)"/><path d="m0 0l-1.951.828.828 1.95 1.951-.827-.828-1.951m-1.656-3.901l-1.95.827.828 1.952 1.95-.828-.828-1.951zm-1.657-3.904l-1.951.828.828 1.952 1.952-.829-.829-1.951m-4.197 6.388l.828 1.952 1.952-.829-.829-1.952-1.951.829m.294-4.73l-1.95.828.828 1.95 1.95-.829-.828-1.949m-4.196 6.386l.829 1.951 1.951-.827-.828-1.952-1.952.828m.295-4.73l-1.951.827.828 1.951 1.951-.828-.828-1.95m-4.196 6.386l.828 1.952 1.951-.828-.828-1.953-1.951.829m2.484 5.852l1.951-.828-.829-1.949-1.95.828.828 1.949m3.902-1.655l1.95-.828-.828-1.951-1.95.828.828 1.951m1.656 3.902l1.952-.828-.829-1.952-1.952.828.829 1.952m4.197-6.387l-.828-1.95-1.952.827.829 1.952 1.951-.829zm-.294 4.731l1.95-.829-.828-1.95-1.951.828.829 1.951m6.213-7.243c-.209.847-.54 1.684-1 2.484l-.187.323v-.001l-1.951.828.624 1.471-.075.131c-2.025 3.51-5.92 5.217-9.486 4.466l-.819-1.926-1.884.799c-3.28-2.122-4.567-6.318-3.262-10.128l1.01-.427-.401-.946c.055-.106.102-.212.162-.315l1.59-2.753c.685-1.188 1.59-2.161 2.617-2.91l.229.538 1.951-.828-.324-.763c.665-.278 1.357-.465 2.06-.573l.215.507 1.404-.594c1.144.047 2.28.335 3.342.882l-.016.007.828 1.951 1.188-.504c.523.522.973 1.104 1.334 1.737l-1.693.72.828 1.951 1.667-.707c.191.7.301 1.426.316 2.167l-1.155.49.828 1.951.066-.028" fill="#ffcc4d" transform="translate(28.718 10.541)"/></g></g></svg>