<svg xmlns="http://www.w3.org/2000/svg" viewBox="0 0 47.5 47.5" enable-background="new 0 0 47.5 47.5" xmlns:xlink="http://www.w3.org/1999/xlink"><defs><clipPath id="0"><path d="m0 38h38v-38h-38v38"/></clipPath></defs><g transform="matrix(1.25 0 0-1.25 0 47.5)"><g clip-path="url(#0)"><path d="m0 0c-6 0-5.127 6.449-5 7l10-2c-.183-2.391-2.562-5-5-5m6 18h-11c-1.104 0-2-.896-2-2h-6c0 1.104-.896 2-2 2h-1c-1.104 0-2-.896-2-2h-1v-3-2c0-1.104.896-2 2-2h10v-1-3c0-3.865 3.134-7 7-7 3.581 0 6.585 2.53 7 6h1c1.104 0 2 .896 2 2v8c-2.209 0-4 1.791-4 4" fill="#9aaab4" transform="translate(20 15)"/><path d="m0 0l3 5c0 0 5 0 6-9l1-6c0 0 0-4-4-4h-2c-4 0-4 4-4 4v10" fill="#bf6952" transform="translate(27 19)"/><g fill="#9aaab4"><path d="m0 0c-1.104 0-2 .896-2 2 0 2.814 1.864 7 7 7 1.104 0 2-.896 2-2 0-1.104-.896-2-2-2-2.855 0-3-2.499-3-3 0-1.104-.896-2-2-2" transform="translate(28 23)"/><path d="m0 0c0-1 0-3-1-4-1-1 2-1 3 1 1 2 1 2 1 3s-3 0-3 0" transform="translate(20 22)"/></g><path d="m0 0c0-2.209-1.791-4-4-4h-5.995c-2.209 0-2 1.791-2 4h-.005c0 2.209-.204 4 2 4h5.995c2.209 0 4-1.791 4-4" fill="#67757f" transform="translate(26 27)"/><path d="m0 0h-5c-.552 0-1 .448-1 1 0 .552.448 1 1 1h5c.553 0 1-.448 1-1 0-.552-.447-1-1-1" fill="#ccd6dd" transform="translate(21 28)" id="1"/><use transform="translate(0-4)" xlink:href="#1"/></g></g></svg>