<svg xmlns="http://www.w3.org/2000/svg" viewBox="0 0 47.5 47.5" enable-background="new 0 0 47.5 47.5"><defs><clipPath id="0"><path d="m0 38h38v-38h-38v38"/></clipPath></defs><g transform="matrix(1.25 0 0-1.25 0 47.5)"><g clip-path="url(#0)"><path d="m0 0c0-2.209-1.791-4-4-4h-28c-2.209 0-4 1.791-4 4v28c0 2.209 1.791 4 4 4h28c2.209 0 4-1.791 4-4v-28" fill="#dd2e44" transform="translate(37 5)"/><path d="m0 0h5.891l-2.883 8.992h-.062l-2.946-8.992m-.341 11.256c.528 1.426 1.737 2.573 3.318 2.573 1.643 0 2.791-1.085 3.317-2.573l6.078-16.867c.185-.496.248-.931.248-1.148 0-1.209-.993-2.046-2.139-2.046-1.303 0-1.954.682-2.264 1.612l-.93 2.915h-8.62l-.93-2.884c-.31-.961-.962-1.643-2.233-1.643-1.24 0-2.294.93-2.294 2.17 0 .496.155.868.217 1.024l6.232 16.867z" fill="#fff" transform="translate(16.09 16.619)"/></g></g></svg>