<svg xmlns="http://www.w3.org/2000/svg" viewBox="0 0 47.5 47.5" enable-background="new 0 0 47.5 47.5"><defs><clipPath id="0"><path d="m0 38h38v-38h-38v38"/></clipPath></defs><g transform="matrix(1.25 0 0-1.25 0 47.5)"><g clip-path="url(#0)"><path d="m0 0c-7.562-4.875-20.06.437-18.375 8.06 1.479 6.684 9.419 4.763 11.225 3.861 1.805-.902.713 3.889-3.475 5.327-5.673 1.947-12.618 1.535-14.812-8.25-1.5-6.687 1.437-16.06 12.718-16.187 11.282-.125 12.719 7.187 12.719 7.187" fill="#269" transform="translate(34.398 13.322)"/><path d="m0 0c0 2.146-2.754 2.334-4 1.119-2.994-2.919-7.402-4.01-13.298-2.861-10.25 2-10.342 14.01-3.333 17.441 3.791 1.855 8.288-.341 9.999-1.655 1.488-1.143 4.334-2.66 4.185-.751-.319 4.061-8.28 12.761-18.946 7.261-10.667-5.5-10.595-17.913-10.595-20.16v-7.25c0-2.209 1.814-3.948 4.02-3.948h28c2.209 0 3.977 1.739 3.977 3.948 0 0-.004 6.853-.012 6.859" fill="#55acee" transform="translate(36.988 11.807)"/></g></g></svg>