<svg xmlns="http://www.w3.org/2000/svg" viewBox="0 0 47.5 47.5" enable-background="new 0 0 47.5 47.5"><defs><clipPath id="0"><path d="m0 38h38v-38h-38v38"/></clipPath></defs><g transform="matrix(1.25 0 0-1.25 0 47.5)"><g clip-path="url(#0)"><path d="m0 0c-4.971 0-9-4.03-9-9v-11h4v11c0 2.761 2.239 5 5 5 2.761 0 5-2.239 5-5v-11h4v11c0 4.971-4.03 9-9 9" fill="#ccd6dd" transform="translate(14 37)"/><path d="m0 0c0-2.209-1.791-4-4-4h-18c-2.209 0-4 1.791-4 4v12c0 2.209 1.791 4 4 4h18c2.209 0 4-1.791 4-4v-12" fill="#fdcb58" transform="translate(27 5)"/><path d="m0 0l-16 4-11-7h12.184c.413 1.163 1.511 2 2.816 2 1.656 0 3-1.343 3-3 0-1.657-1.344-3-3-3-1.305 0-2.403.837-2.816 2h-12.184l11-7 16 4-1 4 1 4" fill="#9aaab4" transform="translate(33 15)"/><path d="m0 0h-3c-.55 0-1.201-.402-1.447-.894l-3.106-6.211c-.246-.492-.246-1.297 0-1.789l3.106-6.211c.246-.492.897-.895 1.447-.895h3v16" fill="#292f33" transform="translate(37 19)"/></g></g></svg>