<svg xmlns="http://www.w3.org/2000/svg" viewBox="0 0 47.5 47.5" enable-background="new 0 0 47.5 47.5" xmlns:xlink="http://www.w3.org/1999/xlink"><defs><path id="1" d="m0 0c0-.552-.447-1-1-1h-18c-.552 0-1 .448-1 1 0 .552.448 1 1 1h18c.553 0 1-.448 1-1" fill="#99aab5"/><clipPath id="0"><path d="m0 38h38v-38h-38v38"/></clipPath></defs><g transform="matrix(1.25 0 0-1.25 0 47.5)"><g clip-path="url(#0)"><path d="m0 0c0-2.209-1.791-4-4-4h-20c-2.209 0-4 1.875-4 8v24c0 2.209 1.791 4 4 4h20c2.209 0 4-1.791 4-4v-28" fill="#ccd6dd" transform="translate(29 5)"/><path d="m0 0h-27c4 0 4 8 4 8 0 2.209 1.791 4 4 4h20c2.209 0 4-2 4-4 0 0 .25-8-5-8" fill="#e1e8ed" transform="translate(32 1)"/><use transform="translate(25 30)" xlink:href="#1"/><use transform="translate(25 26)" xlink:href="#1"/><use transform="translate(25 22)" xlink:href="#1"/><path d="m0 0c0-.553-.447-1-1-1h-18c-.552 0-1 .447-1 1 0 .553.448 1 1 1h18c.553 0 1-.447 1-1" fill="#99aab5" transform="translate(25 18)"/></g></g></svg>