<svg xmlns="http://www.w3.org/2000/svg" viewBox="0 0 47.5 47.5" enable-background="new 0 0 47.5 47.5"><defs><clipPath id="0"><path d="m0 38h38v-38h-38v38"/></clipPath><clipPath id="1"><path d="m19.514 17.55c-.376-.78.601-1.874 1.47-.483.869 1.39 6.741 13.697 6.741 13.697l-1.98 1.335c0 0-5.923-13.911-6.231-14.549"/></clipPath><clipPath id="2"><path d="m17.468 34.733c-.336-1.48 1.528-4.291 7.891-7.343 4.216-2.02 6.661-2.447 7.97-2.447 1.475 0 2.039.551 2.253 1.014.215.465.145.99-.184 1.419-1.02 1.582-5.397 7.694-5.586 7.956-.187.262-.49.418-.812.418-1.459 0-4.763.016-7.234.029-1.48.007-2.662.012-2.974.012-.648 0-1.18-.425-1.324-1.058"/></clipPath></defs><g transform="matrix(1.25 0 0-1.25 0 47.5)"><g clip-path="url(#0)"><path d="m0 0c0 0 8 .213 9.651 4.075 1.07 2.501-.609 9.554-.609 13.93 0 1.481-1.167 2.25-3.416 2.25h-6.124-1.125-1.125-6.123c-1.125 0-3.329.262-3.329-2.125 0-4.284-1.765-11.341-.634-13.815 1.876-4.102 9.834-4.315 9.834-4.315v-3.123c0 0-4.584-2.34-5.498-2.883-.984-.562-.33-1.462.063-1.617.657-.258 2.254-1.102 6.781-1.102 4.64 0 6.202.914 6.764 1.102.217.072 1.347.932.011 1.723-2.378 1.408-5.121 2.777-5.121 2.777v3.123" fill="#8899a6" transform="translate(20 9.745)"/><g fill="#ccd6dd"><path d="m0 0c0-1.621-2.547-2.935-10.623-2.935-8.08 0-10.623 1.314-10.623 2.935 0 1.622 2.547 2.935 10.623 2.935 8.08 0 10.623-1.313 10.623-2.935" transform="translate(29 28.558)"/><path d="m0 0c2.042-9.5-2.417-13.583 2.083-15.167 5.432-1.911 8.542-1.592 13.459 0 4.5 1.459 1.5 6.875 2.125 14.792.161 2.037-17.667.375-17.667.375" transform="translate(9.459 28.417)"/></g><path d="m0 0c-.083-1.083-1.09-6.129-.625-7.292.5-1.25 1.75-3.25 8.917-3.25 5.25 0 8.583 1.584 9.125 3.584.47 1.74-.25 5.583-.334 7" fill="#f4900c" transform="translate(10.04 22.417)"/><path d="m0 0c0-.829-3.806-1.5-8.5-1.5-4.694 0-8.5.671-8.5 1.5 0 .829 3.806 1.5 8.5 1.5 4.694 0 8.5-.671 8.5-1.5" fill="#ffcc4d" transform="translate(27 22.5)"/><path d="m0 0c0 0-5.922-13.911-6.231-14.549-.376-.781.601-1.874 1.47-.484.868 1.391 6.741 13.698 6.741 13.698l-1.98 1.335" fill="#c1694f" transform="translate(25.745 32.1)"/><path d="m0 0c-4.292 0-7.672 1.01-8.943 1.604-.501.234-.716.829-.481 1.329.234.501.829.716 1.329.481.074-.035 7.707-3.276 16.552.111.514.2 1.094-.059 1.291-.575.198-.516-.06-1.095-.576-1.292-3.222-1.234-6.389-1.658-9.172-1.658" fill="#fff" transform="translate(18.311 25.325)"/><path d="m0 0c-2.333 0-9.375.042-10.208.042-1 0-.325-2.987 7-6.5 7.125-3.417 9.501-2.334 8.792-1.5-.958 1.5-5.584 7.958-5.584 7.958" fill="#77b255" transform="translate(29 35.75)"/></g><g clip-path="url(#1)"><path d="m0 0c1-.5 1.875-.625 2.792-.5.917.125.75-.667-.25-.875-1-.208-2.833-.375-4-.292-1.167.084 1.458 1.667 1.458 1.667" fill="#ffac33" transform="translate(21.375 22.75)"/><path d="m0 0c1.167 0 3.75.167 4.458.333.709.167.417-6.207-1.916-6.166-2.334.041-4.792-.876-4.292 1.208.5 2.083 1.75 4.625 1.75 4.625" fill="#cc6f00" transform="translate(19.459 21)"/></g><g clip-path="url(#0)"><path d="m0 0h-.001c-1.309 0-3.754.424-7.97 2.446-6.363 3.052-8.228 5.863-7.891 7.343.144.633.676 1.059 1.324 1.059.312 0 1.494-.006 2.975-.014 2.47-.012 5.774-.028 7.233-.028.322 0 .625-.156.812-.417.189-.263 4.566-6.375 5.585-7.957.33-.429.4-.953.185-1.419-.214-.462-.778-1.013-2.252-1.013" fill="#77b255" transform="translate(33.33 24.944)"/></g><g clip-path="url(#2)"><path d="M 0,0 C 0.916,-1.875 3.541,-8.708 -4.292,-8.458 -0.834,-11.75 -1.416,-17 3,-13.875 7.416,-10.75 9.874,-5.25 7.416,-3.292 4.958,-1.333 0,0 0,0" fill="#5c913b" transform="translate(30.584 35.04)"/></g><g clip-path="url(#0)"><path d="m0 0c0-.932-.756-1.687-1.687-1.687-.932 0-1.688.755-1.688 1.687 0 .932.756 1.687 1.688 1.687.931 0 1.687-.755 1.687-1.687" fill="#3e721d" transform="translate(30.875 35.31)"/></g></g></svg>