<svg xmlns="http://www.w3.org/2000/svg" viewBox="0 0 47.5 47.5" enable-background="new 0 0 47.5 47.5" xmlns:xlink="http://www.w3.org/1999/xlink"><defs><clipPath id="0"><path d="m0 38h38v-38h-38v38"/></clipPath></defs><g transform="matrix(1.25 0 0-1.25 0 47.5)"><g clip-path="url(#0)"><path d="m0 0c0-6.075-4.925-11-11-11h-12c-6.075 0-11 4.925-11 11 0 6.075 4.925 11 11 11h12c6.075 0 11-4.925 11-11" fill="#e6aaaa" transform="translate(36 19)"/><path d="m0 0c0-3.313-1.791-6-4-6-2.209 0-4 2.687-4 6 0 3.313 1.791 6 4 6 2.209 0 4-2.687 4-6" fill="#662113" transform="translate(15 19)" id="1"/><use transform="translate(16)" xlink:href="#1"/></g></g></svg>