<svg xmlns="http://www.w3.org/2000/svg" viewBox="0 0 47.5 47.5" enable-background="new 0 0 47.5 47.5"><defs><clipPath id="0"><path d="m0 38h38v-38h-38v38"/></clipPath></defs><g transform="matrix(1.25 0 0-1.25 0 47.5)"><g clip-path="url(#0)"><path d="m0 0c0 .687-2.895.5-3.125 1-.23.5 3.208 4.584 2.708 5.5-.5.917-5.086-1.166-5.375-.708-.288.458.292 3.5-.208 3.875-.5.375-5.25-4.916-5.917-4.292-.666.625 1.542 10.5 1.086 10.699-.456.198-3.419-1.366-3.793-1.282-.374.083-2.694 6.125-3.376 6.125-.682 0-3-6.04-3.376-6.125-.374-.084-3.337 1.48-3.793 1.282-.456-.199 1.752-10.07 1.086-10.699-.667-.624-5.417 4.667-5.917 4.292-.5-.375.08-3.417-.208-3.875-.289-.458-4.875 1.625-5.375.708-.5-.916 2.938-5 2.708-5.5-.23-.5-3.125-.313-3.125-1 0-.687 8.438-5.235 9-5.771.562-.535-2.914-2.801-2.417-3.229.576-.496 3.84.83 10.417.957v-6.04c0-.553.448-1 1-1 .553 0 1 .447 1 1v6.04c6.577-.127 9.841-1.453 10.417-.957.496.428-2.98 2.694-2.417 3.229.562.536 9 5.084 9 5.771" fill="#dd2e44" transform="translate(37 16.08)"/></g></g></svg>