<svg xmlns="http://www.w3.org/2000/svg" viewBox="0 0 47.5 47.5" enable-background="new 0 0 47.5 47.5"><defs><clipPath id="0"><path d="m0 38h38v-38h-38v38"/></clipPath></defs><g transform="matrix(1.25 0 0-1.25 0 47.5)"><g clip-path="url(#0)"><path d="m0 0c0 0-2.861 15.271-2.941 15.824-.256 1.78-2.057 3.078-4.243 3.049 0 0-11.774.002-17.774.002-6 0-6.04-2.308-6.04-7.85l.08-13.555c-.023-.537-.038-1.078-.038-1.57 0-2 3-7 3-10.501 0-2.5 1.021-2.5 3.521-2.5 1.933 0 2.51 3 2.51 5.5 0 1.041-.65 3.667-1.207 5.728l16.218.772c6.749.209 7.374 2.876 6.916 5.101" fill="#d99e82" transform="translate(35 18.13)"/><path d="m0 0c-.516.295-10.509-.517-14.409-.852-.025.013-.042.034-.068.044-.057.023-1.391.564-1.444 1.859-.043 1.072.502 1.735.788 2.01l13.528.87c.55.036.968.511.933 1.062-.036.551-.496.981-1.062.934l-11.678-.751c-.815.501-1.74 1.25-1.754 2.079-.012.794.786 1.57 1.269 1.938l10.935.445c.552.023.981.488.958 1.04-.022.552-.459.976-1.04.958l-10.528-.428c-.041.012-.076.037-.12.043-.371.054-.588.217-.704.529-.182.487-.036 1.124.214 1.413.088.101.123.094.136.091.54-.116 1.072.227 1.188.767.116.54-.228 1.072-.768 1.188-.764.164-1.521-.105-2.069-.738-.761-.88-.997-2.287-.575-3.42.122-.328.311-.603.527-.852-.674-.661-1.439-1.691-1.423-2.994.011-.858.362-1.662 1.033-2.41-.309-.223-1.883-1.476-1.786-3.854.041-1.01.44-1.772.919-2.335-.989-.52-2-1.582-1.833-3.464.112-1.243.555-2.163 1.316-2.734.636-.477 1.321-.572 1.768-.572.181 0 .323.015.407.028l13.252 1.067c.551.045.961.528.917 1.078-.044.549-.511.951-1.077.917l-13.385-1.084c-.006 0-.397-.058-.694.175-.351.275-.472.861-.511 1.303-.119 1.32.924 1.631 1.191 1.687 1.735.224 14.164 1.082 15.09 1.102.361-.013.727.158.923.496.279.477.117 1.089-.361 1.367" fill="#c1694f" transform="translate(33.92 21.766)"/></g></g></svg>