<svg xmlns="http://www.w3.org/2000/svg" viewBox="0 0 47.5 47.5" enable-background="new 0 0 47.5 47.5"><defs><clipPath id="0"><path d="m0 38h38v-38h-38v38"/></clipPath></defs><g transform="matrix(1.25 0 0-1.25 0 47.5)"><g clip-path="url(#0)"><path d="m0 0c-.766-.766-2.01-.766-2.771 0l-20.1 20.1c-.766.766-.766 2.01 0 2.773.765.765 2.01.765 2.772 0l20.1-20.1c.766-.763.766-2 0-2.771" fill="#ffac33" transform="translate(36.07 1.934)"/><path d="m0 0c0-7.576-6.142-13.72-13.72-13.72-7.577 0-13.719 6.144-13.719 13.72 0 7.578 6.142 13.72 13.719 13.72 7.578 0 13.72-6.142 13.72-13.72" fill="#dd2e44" transform="translate(28.8 22.92)"/><path d="m0 0c.161.086.288.211.376.356-.071-.565-.406-1.09-.946-1.378-.297-.158-.637-.19-.957-.093-.321.098-.585.314-.743.611-.209.393-.06.884.333 1.094.067.036.14.053.212.053.161 0 .318-.087.399-.239.255-.478.848-.66 1.326-.404m1.325-12.548c-1.459-.092-2.938.065-4.379.503-3.155.961-5.748 3.092-7.3 6-1.217 2.282-1.473 4.901-.719 7.375.752 2.474 2.424 4.508 4.706 5.724 1.781.95 3.822 1.15 5.752.561 1.929-.586 3.514-1.89 4.463-3.67.734-1.377.888-2.958.433-4.451-.454-1.494-1.462-2.721-2.84-3.456-1.056-.562-2.267-.682-3.412-.333-1.144.348-2.085 1.123-2.648 2.178-.879 1.648-.253 3.704 1.395 4.583.593.317 1.272.384 1.915.187.231-.07.447-.171.644-.3-.672.328-1.486.34-2.194-.037-1.347-.718-1.858-2.399-1.14-3.746.404-.758 1.079-1.313 1.901-1.564.822-.25 1.692-.165 2.45.24 1.836.98 2.534 3.271 1.555 5.107-.562 1.055-1.502 1.828-2.645 2.175-1.143.348-2.353.23-3.408-.332-2.602-1.388-3.59-4.633-2.202-7.236.809-1.517 2.161-2.629 3.806-3.13 1.646-.5 3.388-.33 4.906.479 1.839.98 3.187 2.62 3.794 4.614.606 1.994.4 4.105-.58 5.945-1.195 2.241-3.193 3.883-5.622 4.623-2.432.74-5 .489-7.245-.707-2.744-1.464-4.754-3.908-5.66-6.883-.905-2.976-.598-6.125.866-8.869.917-1.721 2.151-3.202 3.623-4.392 1.923-1.028 4.12-1.615 6.454-1.615 1.152 0 2.263.157 3.331.424" fill="#f4900c" transform="translate(17.09 22.17)"/><path d="m0 0c-.054-.143-.16-.255-.297-.318-.554-.249-.8-.9-.55-1.453.119-.265.328-.458.576-.562-.202.016-.402.061-.597.134-.54.204-.969.606-1.206 1.133-.166.366-.179.777-.036 1.154.142.376.423.676.791.841.129.059.267.088.405.088.118 0 .236-.021.349-.064.247-.094.442-.276.551-.517.063-.14.067-.294.014-.436m9.859 6c-1.569 3.473-6.117 7.313-11.772 7.935-.212.023-.422.033-.633.047-3.6-.52-6.743-2.429-8.871-5.176 3.382 2.808 6.776 3.214 9.264 2.943 4.837-.532 8.695-3.751 10.01-6.654 2.01-4.448.023-9.702-4.424-11.71-1.669-.755-3.534-.813-5.247-.165-1.715.646-3.075 1.923-3.829 3.594-1.195 2.647-.015 5.774 2.632 6.97 2.01.906 4.38.01 5.286-1.996.564-1.251.19-2.691-.822-3.524.263.27.47.593.607.956.261.692.237 1.444-.067 2.118-.35.775-.981 1.368-1.777 1.669-.797.301-1.663.274-2.437-.077-.903-.407-1.593-1.141-1.943-2.068-.35-.927-.319-1.934.089-2.837.479-1.061 1.343-1.872 2.432-2.284 1.09-.412 2.276-.373 3.336.105 2.599 1.174 3.76 4.246 2.586 6.847-1.404 3.111-5.083 4.497-8.195 3.095-3.752-1.696-5.425-6.128-3.731-9.88.997-2.206 2.792-3.891 5.056-4.745 1.041-.394 2.124-.59 3.205-.59 1.268 0 2.534.27 3.725.808 5.551 2.509 8.03 9.07 5.523 14.619" fill="#ffcc4d" transform="translate(15.656 22.498)"/></g></g></svg>