<svg xmlns="http://www.w3.org/2000/svg" viewBox="0 0 47.5 47.5" enable-background="new 0 0 47.5 47.5" xmlns:xlink="http://www.w3.org/1999/xlink"><defs><clipPath id="0"><path d="m0 38h38v-38h-38v38"/></clipPath></defs><g transform="matrix(1.25 0 0-1.25 0 47.5)"><g clip-path="url(#0)"><g fill="#99aab5"><path d="m0 0c0-4.695-3.805-8.5-8.5-8.5-4.695 0-8.5 3.805-8.5 8.5 0 4.695 3.805 8.5 8.5 8.5 4.695 0 8.5-3.805 8.5-8.5" transform="translate(18 27.5)"/><path d="m0 0c0-4.695-3.806-8.5-8.5-8.5-4.694 0-8.5 3.805-8.5 8.5 0 4.695 3.806 8.5 8.5 8.5 4.694 0 8.5-3.805 8.5-8.5" transform="translate(37 27.5)"/></g><g fill="#f4abba"><path d="m0 0c0-3.228-2.617-5.844-5.844-5.844-3.227 0-5.844 2.616-5.844 5.844 0 3.227 2.617 5.844 5.844 5.844 3.227 0 5.844-2.617 5.844-5.844" transform="translate(14.813 26.969)"/><path d="m0 0c0-3.228-2.617-5.844-5.844-5.844-3.226 0-5.844 2.616-5.844 5.844 0 3.227 2.618 5.844 5.844 5.844 3.227 0 5.844-2.617 5.844-5.844" transform="translate(34.875 26.969)"/></g><path d="m0 0c0-7.18-8-15-12-15-4 0-12 7.82-12 15 0 7.18 7 9 12 9 5 0 12-1.82 12-9" fill="#99aab5" transform="translate(31 19)"/><path d="m0 0c0-1.604-2.01-3.352-2.905-3.352-.894 0-2.906 1.748-2.906 3.352 0 1.605 1.788 1.956 2.906 1.956 1.117 0 2.905-.351 2.905-1.956" fill="#f4abba" transform="translate(21.905 7.352)"/><g fill="#66757f"><path d="m0 0c-.175 0-.353.046-.514.143-4.628 2.777-11.278 1.877-11.344 1.867-.56-.079-1.053.303-1.13.849-.078.547.301 1.053.847 1.131.301.042 7.412 1.014 12.657-2.133.473-.284.627-.898.342-1.372-.187-.312-.518-.485-.858-.485" transform="translate(35.999 4.84)"/><path d="m0 0c-.305 0-.604.138-.801.4-2.728 3.637-8.308 4.604-8.364 4.614-.545.09-.913.606-.822 1.15.09.545.606.92 1.15.822.262-.044 6.433-1.115 9.636-5.386.332-.442.242-1.069-.2-1.4-.18-.135-.39-.2-.599-.2" transform="translate(33 1.84)"/><path d="m0 0c-.34 0-.671.173-.858.485-.285.474-.131 1.088.342 1.372 5.245 3.147 12.355 2.175 12.657 2.133.546-.078.925-.584.848-1.131-.078-.546-.582-.929-1.131-.849-.066.009-6.717.909-11.344-1.867-.161-.097-.339-.143-.514-.143" transform="translate(2 4.84)"/><path d="m0 0c-.208 0-.419.065-.599.2-.442.331-.531.958-.2 1.4 3.203 4.271 9.375 5.342 9.635 5.386.549.097 1.06-.276 1.151-.821.091-.544-.277-1.06-.82-1.151-.057-.01-5.649-.992-8.366-4.614-.197-.262-.497-.4-.801-.4" transform="translate(4.999 1.84)"/></g><path d="m0 0c0 0 0 2 2 2 2 0 2-2 2-2v-2c0 0 0-2-2-2-2 0-2 2-2 2v2" fill="#272b2b" transform="translate(13 16)" id="1"/><use transform="translate(8)" xlink:href="#1"/></g></g></svg>