<svg xmlns="http://www.w3.org/2000/svg" viewBox="0 0 47.5 47.5" enable-background="new 0 0 47.5 47.5"><defs><clipPath id="0"><path d="m0 38h38v-38h-38v38"/></clipPath></defs><g transform="matrix(1.25 0 0-1.25 0 47.5)"><g clip-path="url(#0)"><path d="m0 0c-.957-.956-2.509-.956-3.464 0-.956.956-.956 2.507 0 3.464.955.956 2.507.956 3.464 0 .956-.957.956-2.508 0-3.464m1.731 5.195c-4.303 4.305-11.282 4.305-15.586 0-3.391-3.391-4.098-8.439-2.144-12.535l-3.916-3.915c-.64-.641-.841-1.543-.626-2.359l-1.973-1.972c-.478.481-1.252.481-1.731 0l-1.732-1.732c-.478-.479-.478-1.253 0-1.732l-.866-.864c-.478.478-1.253.478-1.731 0l-.866-.867c-.478-.479-.478-1.253 0-1.732.015-.015.036-.02.051-.033-.794-1.189-.668-2.812.382-3.863 1.195-1.195 3.134-1.195 4.329 0l13.874 13.874c4.097-1.955 9.144-1.247 12.535 2.145 4.303 4.303 4.303 11.282 0 15.585" fill="#c1694f" transform="translate(31.883 28.391)"/></g></g></svg>