<svg xmlns="http://www.w3.org/2000/svg" viewBox="0 0 47.5 47.5" enable-background="new 0 0 47.5 47.5" xmlns:xlink="http://www.w3.org/1999/xlink"><defs><path id="1" d="m0 0c0-.847-.726-1.533-1.621-1.533-.895 0-1.621.686-1.621 1.533 0 .847.726 1.533 1.621 1.533.895 0 1.621-.686 1.621-1.533" fill="#fff"/><clipPath id="0"><path d="m0 38h38v-38h-38v38"/></clipPath></defs><g transform="matrix(1.25 0 0-1.25 0 47.5)"><g clip-path="url(#0)"><path d="m0 0c0-9.389-7.611-17-17-17-9.389 0-17 7.611-17 17 0 9.389 7.611 17 17 17 9.389 0 17-7.611 17-17" transform="translate(35.999 19)"/><g fill="#fff"><path d="m0 0c0-1.933-1.344-3.5-3-3.5-1.656 0-3 1.567-3 3.5 0 1.933 1.344 3.5 3 3.5 1.656 0 3-1.567 3-3.5" transform="translate(24 29.5)"/><path d="m0 0c0 0 0 2-2 2h-7c-1 0-2-1-2-1l-2-2h-4c0 0-1 0-1-1 0-1 1-1 1-1h3 2l2 1.171v-16.17c0 0 0-1 1-1h1c0 0 1 0 1 1v8c0 0 0 1 1 1 1 0 1-1 1-1v-8c0 0 0-1 1-1h1c0 0 1 0 1 1v9c0 0 2 0 2 2v7" transform="translate(27 24)"/></g><use transform="translate(10.242 17.533)" xlink:href="#1"/><use transform="translate(14.242 14.533)" xlink:href="#1"/><use transform="translate(12.242 10.533)" xlink:href="#1"/><path d="m0 0c0 3.968 1.453 7.592 3.845 10.388l22.543-22.544c-2.796-2.391-6.42-3.844-10.388-3.844-8.836 0-16 7.164-16 16m32 0c0-3.968-1.453-7.591-3.845-10.388l-22.543 22.543c2.797 2.392 6.42 3.845 10.388 3.845 8.837 0 16-7.164 16-16m-16 18c-9.941 0-18-8.06-18-18 0-9.941 8.06-18 18-18 9.941 0 18 8.06 18 18 0 9.941-8.06 18-18 18" fill="#dd2e44" transform="translate(3 19)"/></g></g></svg>