<svg xmlns="http://www.w3.org/2000/svg" viewBox="0 0 47.5 47.5" enable-background="new 0 0 47.5 47.5" xmlns:xlink="http://www.w3.org/1999/xlink"><defs><clipPath id="0"><path d="m0 38h38v-38h-38v38"/></clipPath></defs><g transform="matrix(1.25 0 0-1.25 0 47.5)"><g clip-path="url(#0)"><path d="m0 0h-28c-2.209 0-4-1.791-4-4v-15c0-2.209 1.791-4 4-4h11.416c.52-.596 1.477-1 2.584-1 1.107 0 2.064.404 2.584 1h11.416c2.209 0 4 1.791 4 4v15c0 2.209-1.791 4-4 4" fill="#269" transform="translate(33 30)"/><path d="m0 0c0-1.104-.896-2-2-2-1.104 0-2 .896-2 2v18c0 1.104.896 2 2 2 1.104 0 2-.896 2-2v-18" fill="#292f33" transform="translate(21 10)"/><path d="m0 0c0-1.104-.896-2-2-2h-12c-1.104 0-2 .896-2 2v18c0 1.104.896 2 2 2h12c1.104 0 2-.896 2-2v-18" fill="#99aab5" transform="translate(19 11)" id="1"/><path d="m0 0c-.999 1.998-3.657 2-4 2-2 0-5-2-8-2-1 0-2 .896-2 2v16c0 1.104 1 2 2 2 3.255 0 6 2 8 2 3 0 4-1.896 4-3v-19" fill="#e1e8ed" transform="translate(19 11)"/><use transform="translate(16)" xlink:href="#1"/><path d="m0 0c.999 1.998 3.657 2 4 2 2 0 5-2 8-2 1 0 2 .896 2 2v16c0 1.104-1 2-2 2-3.256 0-6 2-8 2-3 0-4-1.896-4-3v-19" fill="#ccd6dd" transform="translate(19 11)"/></g></g></svg>