<svg xmlns="http://www.w3.org/2000/svg" viewBox="0 0 47.5 47.5" enable-background="new 0 0 47.5 47.5" xmlns:xlink="http://www.w3.org/1999/xlink"><defs><path id="1" d="m0 0c0 .553-.896 1-2 1-1.104 0-2-.447-2-1 0-.553.896-1 2-1 1.104 0 2 .447 2 1" fill="#3e721d"/><clipPath id="0"><path d="m0 38h38v-38h-38v38"/></clipPath></defs><g transform="matrix(1.25 0 0-1.25 0 47.5)"><g clip-path="url(#0)"><path d="m0 0c0-2.209-1.791-3-4-3-2.209 0-4 .791-4 3l1 9c0 2.209.791 2 3 2 2.209 0 3 .209 3-2l1-9" fill="#662113" transform="translate(23 4)"/><path d="m0 0c0-8.837-7.163-12-16-12-8.836 0-16 3.163-16 12 0 8.836 9 17 16 17 7 0 16-8.164 16-17" fill="#5c913b" transform="translate(35 20)"/><use transform="translate(9 16)" xlink:href="#1"/><use transform="translate(33 16)" xlink:href="#1"/><use transform="translate(13 12)" xlink:href="#1"/><use transform="translate(17 15)" xlink:href="#1"/><use transform="translate(13 21)" xlink:href="#1"/><use transform="translate(10 25)" xlink:href="#1"/><use transform="translate(32 25)" xlink:href="#1"/><use transform="translate(17 27)" xlink:href="#1"/><use transform="translate(25 27)" xlink:href="#1"/><use transform="translate(29 21)" xlink:href="#1"/><use transform="translate(21 20)" xlink:href="#1"/><use transform="translate(25 15)" xlink:href="#1"/><use transform="translate(21 11)" xlink:href="#1"/><use transform="translate(29 12)" xlink:href="#1"/></g></g></svg>