<svg xmlns="http://www.w3.org/2000/svg" viewBox="0 0 47.5 47.5" enable-background="new 0 0 47.5 47.5" xmlns:xlink="http://www.w3.org/1999/xlink"><defs><clipPath id="0"><path d="m0 38h38v-38h-38v38"/></clipPath></defs><g transform="matrix(1.25 0 0-1.25 0 47.5)"><g clip-path="url(#0)"><path d="m0 0c-.943-2.125-1.472-4.466-1.472-6.928 0-9.665 8.06-17.5 18-17.5 7.746 0 14.33 4.767 16.868 11.441l-33.396 12.987" fill="#5c913b" transform="translate(3.472 30.428)"/><path d="m0 0c-.853-1.902-1.332-3.998-1.332-6.205 0-8.59 7.164-15.555 16-15.555 6.905 0 12.77 4.26 15.01 10.218l-29.681 11.542" fill="#ffe8b6" transform="translate(5.332 29.705)"/><path d="m0 0c-.761-1.678-1.191-3.53-1.191-5.481 0-7.518 6.268-13.612 14-13.612 6.06 0 11.21 3.753 13.156 8.995l-25.965 10.1" fill="#dd2e44" transform="translate(7.191 28.981)"/><path d="m0 0c-.307-.46-.741-.708-.971-.555-.23.154-.168.65.139 1.11.307.46.741.708.971.554.23-.153.168-.649-.139-1.109" transform="translate(10.916 22.723)" id="1"/><use transform="translate(6-1)" xlink:href="#1"/><path d="m0 0c.05-.551-.132-1.016-.406-1.041-.276-.025-.538.4-.588.951-.051.551.132 1.016.406 1.04.276.027.538-.398.588-.95" transform="translate(21.998 17.04)"/><path d="m0 0c.05-.551-.132-1.016-.406-1.041-.276-.025-.538.4-.588.951-.05.551.132 1.016.406 1.04.276.027.538-.398.588-.95" transform="translate(12.998 19.04)"/><path d="m0 0c-.333-.441-.78-.663-1-.497-.222.166-.129.658.204 1.099.334.441.781.663 1 .497.222-.166.13-.658-.204-1.099" transform="translate(16.899 13.699)"/><path d="m0 0c.272-.481.299-.979.06-1.115-.242-.137-.657.142-.929.624-.274.48-.299.978-.059 1.115.241.138.655-.142.928-.624" transform="translate(24.936 13.245)"/><path d="m0 0c.303-.463.362-.958.131-1.109-.231-.153-.663.099-.966.562-.303.462-.361.958-.131 1.109.231.153.663-.098.966-.562" transform="translate(17.918 18.273)"/><path d="m0 0c-.333-.441-.78-.663-1-.497-.221.166-.129.658.205 1.099.333.442.78.663 1 .497.222-.166.131-.658-.204-1.099" transform="translate(26.899 16.699)"/></g></g></svg>