<svg xmlns="http://www.w3.org/2000/svg" viewBox="0 0 47.5 47.5" enable-background="new 0 0 47.5 47.5"><defs><clipPath id="0"><path d="m0 38h38v-38h-38v38"/></clipPath></defs><g transform="matrix(1.25 0 0-1.25 0 47.5)"><g clip-path="url(#0)"><path d="m0 0c0-9.389-7.611-17-17-17-9.389 0-17 7.611-17 17 0 9.389 7.611 17 17 17 9.389 0 17-7.611 17-17" fill="#ffcc4d" transform="translate(36 19)"/><g fill="#664500"><path d="m0 0c-.012.044-1.146 4.379-5.485 4.379-4.341 0-5.475-4.335-5.485-4.379-.053-.213.043-.431.231-.544.188-.112.433-.086.596.06.01.007 1.014.863 4.658.863 3.589 0 4.617-.83 4.656-.863.095-.09.219-.137.344-.137.084 0 .169.021.246.064.196.112.294.339.239.557" transform="translate(24.485 8.121)"/><path d="m0 0c-.013-.009-1.262-.902-3.703-.902-2.442 0-3.69.893-3.699.9-.195.145-.467.132-.644-.037-.177-.167-.208-.438-.073-.64.061-.091 1.515-2.223 4.416-2.223 2.901 0 4.356 2.132 4.416 2.223.135.201.104.469-.071.637-.176.17-.448.185-.642.042" transform="translate(16.703 19.402)"/><path d="m0 0c-.175.169-.447.186-.643.042-.011-.01-1.261-.902-3.702-.902-2.441 0-3.69.892-3.7.9-.193.145-.466.131-.643-.037-.177-.168-.207-.438-.073-.641.061-.091 1.515-2.222 4.416-2.222 2.901 0 4.356 2.131 4.416 2.222.135.202.104.47-.071.638" transform="translate(29.345 19.36)"/><path d="m0 0c-.305 0-.605.138-.801.4-2.64 3.521-6.06 3.599-6.206 3.6-.55.006-.994.456-.991 1 .003.551.447.995.997.995.184 0 4.537-.05 7.8-4.4.332-.442.242-1.069-.2-1.4-.18-.135-.39-.2-.599-.2" transform="translate(32 21)"/><path d="m0 0c-.208 0-.419.065-.599.2-.442.331-.531.958-.2 1.4 3.262 4.35 7.616 4.4 7.8 4.4.552 0 1-.448 1-1 0-.551-.445-.998-.996-1-.155-.002-3.568-.086-6.204-3.6-.197-.262-.497-.4-.801-.4" transform="translate(5.999 21)"/></g><path d="m0 0c6.211 0 13-4 13-9 0-4-3-4-3-4-8 0-1 9-10 13" fill="#5dadec" transform="translate(24 14)"/></g></g></svg>