<svg xmlns="http://www.w3.org/2000/svg" viewBox="0 0 47.5 47.5" enable-background="new 0 0 47.5 47.5"><defs><clipPath id="0"><path d="m0 38h38v-38h-38v38"/></clipPath><clipPath id="1"><path d="m1 19c0-9.941 8.06-18 18-18 9.941 0 18 8.06 18 18 0 9.941-8.06 18-18 18-9.941 0-18-8.06-18-18"/></clipPath></defs><g transform="matrix(1.25 0 0-1.25 0 47.5)"><g clip-path="url(#0)"><path d="m0 0c0-9.941-8.06-18-18-18-9.941 0-18 8.06-18 18 0 9.941 8.06 18 18 18 9.941 0 18-8.06 18-18" fill="#88c9f9" transform="translate(37 19)"/></g><g clip-path="url(#1)" fill="#5c913b"><path d="m0 0c2.325-.436 3.438 0 4.312-.312.875-.313.063-.75.688-1.125.625-.375.812-.313 1.312-.125.5.187.875.889 1.25.625.375-.265 1.688-.029 2-.5.312-.472.75-.842 1.437-.5.688.341 3.313.661 4 .236.688-.424 2.437-.5 3.125-.612.687-.111 2.437-.17 2.187-.46-.25-.29.688-.102.188-.79-.5-.687-2.438-2.124-2.625-1.937-.188.188-.375 1.063-1 1-.625-.062-1.5.125-1.562-.625-.063-.75-1-1.687-.313-1.687.688 0 1.375.687 1.562 0 .188-.688.063-1.063-.125-1.438-.187-.375.25-.375-.749-.625-1-.25-.563.562-1-.25-.438-.813-1.438-1.063-1.188-1.75.25-.688.438-1.063.5-1.625.063-.563-.625-1.25-1-1.75-.375-.5-.812-1-1.375-1.125-.562-.125-1-.25-1.312-1.062-.313-.813.341-2-.58-1.875-.92.125-1.42.687-1.483 1.125-.062.437-1 1.312-1.063 1.562-.062.25-1.25 1.125-1.25 1.125 0 0-.75-.75-.75-1.625 0-.875.25-1.937.25-1.937 0 0-.312-.438-.937.062-.625.5-1.312.625-1.625 1.313-.312.687-.687 1.874-.687 2.312 0 .437-.751 1.375-1.063 1.375-.313 0-1.875-.188-2-.438-.125-.25-.5-.687-.812-1-.313-.312-1.188-1.437-1.501-1.25-.312.188-1.562.875-1.562 1.5 0 .625-.875.25-.937 1.25-.063 1-.5 1.875-.625.938-.125-.938-.063-1.25.312-2.375.375-1.125.625-1.5 1.188-1.75.562-.25.25-.687 1.187-.562.937.125 1.5.437 1.562.062.063-.375.563-1.08-.375-1.696-.937-.616-.812-.679-1.375-1.241-.562-.563-1.124-.375-1.124-1.563 0-1.187 0-1.375.062-2.375.063-1 .188-1.937-.687-2.437-.875-.5-3.751 3-4 5-.25 2-1.312 8.687-.937 10.249.375 1.563 2.375 6.376 3.188 7.313.812.937 5.312 3.75 7.312 3.375" transform="translate(8.688 35.13)"/><path d="m0 0c0-.687-.5-1.437 0-2.125.5-.688.937-.688 1.375-.75.437-.063 1.688 0 .688.812-1 .813-1.563.188-1.438 1.126.125.937-.625.937-.625.937" transform="translate(16.938 15.688)"/><path d="m0 0c0-.687-.5-1.437 0-2.125.5-.688-1-1.25-.562-1.313.437-.062 2.312.188 1.312 1-1 .813-.25.563-.125 1.501.125.937-.625.937-.625.937" transform="translate(23.938 25.688)"/><path d="m0 0c.437.826.934.812 1.434.437.5-.375 2-1.062 1.188-1.374-.813-.313-.573-1-1.193-.313-.62.688-1.926.313-1.429 1.25" transform="translate(19.378 14.75)"/><path d="m0 0c.339-.175.875-.741 1.625-.679.75.063.688-.785 1.438-.767.75.017 1.437-.17 1.749-.545.313-.375 1.684-.938.905-1-.78-.063-1.092.5-1.904.75-.813.25-.875-.438-1.75.062-.876.5-1.813-.222-2.063.733-.25.955-.737 1.826 0 1.446" transform="translate(23.313 14.241)"/><path d="m0 0c.574.558.972.937 1.847 1.375.875.437 2.375 1.063 2.75 1.125.375.063.813.235 1.063-.26.25-.495.562-.678 1.062-.495.5.184 1.087.076 1.462-.24.375-.317 1.288-.88 1.601-1.505.312-.625.937-.5.75-1.25-.188-.75.062-1.938-.625-2.563-.688-.624-1.125-1.374-1.875-1.749-.75-.375-2.73.562-2.73 1.125 0 .562-.72 1.025-1.268 1.525-.549.5-.874.412-1.374.037-.5-.375-.316-.75-.941-.875-.625-.125-2.289-1.437-2.226-.437.062.999.907 2.75.504 3.312-.403.563-.898.001 0 .875" transform="translate(16.715 9.5)"/></g></g></svg>