<svg xmlns="http://www.w3.org/2000/svg" viewBox="0 0 47.5 47.5" enable-background="new 0 0 47.5 47.5"><defs><clipPath id="0"><path d="m0 38h38v-38h-38v38"/></clipPath></defs><g transform="matrix(1.25 0 0-1.25 0 47.5)"><g clip-path="url(#0)"><path d="m0 0c.458 1.372 7.41 7.525 13.286 10.22 1.528.701 5.188 2.066 6.936 2.503 3.604.902 7.747 2.319 5.327-.459-3.525-4.047-3.943-14.02-8.03-21.17-2.68-4.213-4.233-6.423-10.365-3.357-6.132 3.065-9.197 6.131-7.154 12.263" fill="#c1694f" transform="translate(10.441 22.405)"/><path d="m0 0c3.816-3.768 4.498-9.263 1.524-12.276-2.973-3.01-8.477-2.4-12.294 1.365-3.815 3.768-4.498 9.265-1.524 12.276 2.974 3.01 8.478 2.402 12.294-1.365" fill="#f4900c" transform="translate(23.491 22.24)"/><g fill="#8a4b38"><path d="m0 0c1.14-.57 2.703-3.605 2.703-4.506 0-.901-.901.901-2.703 2.704-1.803 1.802-1.803 2.703 0 1.802" transform="translate(27.96 30.623)"/><path d="m0 0c.606-.578 1.01-2.787.836-3.354-.173-.567-.395.739-1.183 2.22-.789 1.479-.615 2.047.347 1.134" transform="translate(28.14 22.593)"/></g><path d="m0 0c0-2.209-4.477-4-10-4-5.523 0-10 2-10 4 0 .371-.203 2.6.083 2.958 1.257 1.573 5.419 1.042 9.917 1.042 4.908 0 9.133.865 9.979-1 .107-.233.021-2.754.021-3" fill="#c1694f" transform="translate(22 5)"/><path d="m0 0c0-2.209-4.477-4-10-4-5.523 0-10 1.791-10 4 0 2.209 4.477 4 10 4 5.523 0 10-1.791 10-4" fill="#fca43a" transform="translate(22 8)"/></g></g></svg>