<svg xmlns="http://www.w3.org/2000/svg" viewBox="0 0 47.5 47.5" enable-background="new 0 0 47.5 47.5"><defs><clipPath id="0"><path d="m0 38h38v-38h-38v38"/></clipPath></defs><g transform="matrix(1.25 0 0-1.25 0 47.5)"><g fill="#6d6e71"><path d="m17 1h-2v29h2v-29"/><path d="m19 16h-3v2h3v-2"/><path d="m19 22h-3v2h3v-2"/></g><g clip-path="url(#0)"><path d="m0 0c0-.553-.447-1-1-1h-9c-.553 0-1 .447-1 1v14c0 .552.447 1 1 1h9c.553 0 1-.448 1-1v-14" fill="#bcbec0" transform="translate(30 13)"/><path d="m0 0v3c0 .552-.447 1-1 1h-9c-.553 0-1-.448-1-1v-3h11" fill="#be1931" transform="translate(30 24)"/><g fill="#6d6e71"><path d="m0 0h-12l-1-1v-1h14v1l-1 1" transform="translate(22 3)"/><path d="m0 0h-8l-1-1v-1h10v1l-1 1" transform="translate(20 5)"/></g><path d="m0 0c0 2.209 1.791 4 4 4 2.209 0 4-1.791 4-4 0-2.209-1.791-4-4-4-2.209 0-4 1.791-4 4" fill="#be1931" transform="translate(12 33)"/><path d="m24 21h-3v3h3v-3" fill="#808285"/><g fill="#f4900c"><path d="m24 17h-3v3h3v-3"/><path d="m24 13h-3v3h3v-3"/></g><g fill="#808285"><path d="m28 21h-3v3h3v-3"/><path d="m28 17h-3v3h3v-3"/></g><path d="m28 13h-3v3h3v-3" fill="#f4900c"/><g fill="#dd2e44"><path d="m18 31h-4v4h4v-4"/><path d="m28 25h-7v2h7v-2"/></g></g></g></svg>