<svg xmlns="http://www.w3.org/2000/svg" viewBox="0 0 47.5 47.5" enable-background="new 0 0 47.5 47.5"><defs><clipPath id="0"><path d="m0 38h38v-38h-38v38"/></clipPath></defs><g transform="matrix(1.25 0 0-1.25 0 47.5)"><g clip-path="url(#0)"><path d="m0 0c0 4.558-4.435 8.267-10 8.479v.021h-16v-.021c-5.565-.212-10-3.921-10-8.479 0-1.861.747-3.576 2-4.976v-12.524c0-2.209 1.791-4 4-4h24c2.209 0 4 1.791 4 4v12.524c1.253 1.4 2 3.115 2 4.976" fill="#d99e82" transform="translate(37 23.5)"/><path d="m0 0c0 3.461-3.538 6.291-8 6.489-.166.007-2.332.011-2.5.011-4.694 0-8.5-2.91-8.5-6.5 0-1.595.754-3.053 2-4.184v-12.316c0-1.657 1.343-3 3-3h9c1.657 0 3 1.343 3 3v12.321c1.244 1.131 2 2.586 2 4.179" fill="#ffe8b6" transform="translate(22 23.5)"/></g></g></svg>