<svg xmlns="http://www.w3.org/2000/svg" viewBox="0 0 47.5 47.5" enable-background="new 0 0 47.5 47.5" xmlns:xlink="http://www.w3.org/1999/xlink"><defs><clipPath id="0"><path d="m0 38h38v-38h-38v38"/></clipPath></defs><g transform="matrix(1.25 0 0-1.25 0 47.5)"><g clip-path="url(#0)"><path d="m0 0c-1.32 0-9.241.826-10.707 2.293-.215.216-.321.518-.287.82.035.303.205.574.464.735 4.563 2.852 6.825 7.968 6.541 14.796-.007.161-.011.281-.011.356 0 .552.448 1 1 1h9c.522 0 .957-.402.997-.923.841-10.931-2.468-15.783-3.93-17.361-1.024-1.107-2.113-1.716-3.067-1.716" fill="#99aab5" transform="translate(18 1)"/><path d="m0 0c-.552 0-1 .448-1 1v3c0 .552.448 1 1 1 .552 0 1-.448 1-1v-3c0-.552-.448-1-1-1" fill="#3e721d" transform="translate(19 19)"/><path d="m0 0c0-4.418-3.582-5-8-5-4.418 0-8 .582-8 5 0 4.418 3.582 8 8 8 4.418 0 8-3.582 8-8" fill="#77b255" transform="translate(27 27)"/><path d="m0 0c-.552 0-1 .448-1 1v2c0 .552.448 1 1 1 .552 0 1-.448 1-1v-2c0-.552-.448-1-1-1" fill="#3e721d" transform="translate(19 33)"/><path d="m0 0c0-1.104-.896-2-2-2-1.104 0-2 .896-2 2 0 1.104.896 2 2 2 1.104 0 2-.896 2-2" fill="#fff" transform="translate(21 16)" id="1"/><use transform="translate(-1-6)" xlink:href="#1"/><path d="m0 0c0-.828-.896-1.5-2-1.5-1.104 0-2 .672-2 1.5 0 .828.896 1.5 2 1.5 1.104 0 2-.672 2-1.5" fill="#fff" transform="translate(17 4.5)"/></g></g></svg>