<svg xmlns="http://www.w3.org/2000/svg" viewBox="0 0 47.5 47.5" enable-background="new 0 0 47.5 47.5"><defs><clipPath id="0"><path d="m0 38h38v-38h-38v38"/></clipPath></defs><g transform="matrix(1.25 0 0-1.25 0 47.5)"><g clip-path="url(#0)"><path d="m0 0h12c0 0-1-3-6-3-5 0-6 3-6 3" fill="#553788" transform="translate(13 34)"/><path d="m0 0l4.441 5.823c-4 2-11 8-11 8 0 0-2-4-6-4-4 0-6 4-6 4 0 0-7-6-11-8l4.44-5.824 4.56 1.824c0 0 .25-16-3-19 0 0 5-1 11-1 6 0 11 1 11 1-3.25 3-3 19-3 19l4.559-1.823" fill="#aa8dd8" transform="translate(31.559 20.18)"/><g fill="#9266cc"><path d="m0 0c-.293 0-.584.128-.781.375l-4 5c-.345.432-.276 1.061.156 1.406.43.345 1.061.275 1.405-.156l4-5c.345-.432.276-1.061-.156-1.406-.184-.147-.405-.219-.624-.219" transform="translate(7 20)"/><path d="m0 0c-.219 0-.439.072-.624.219-.431.345-.501.974-.156 1.406l4 5c.346.431.973.501 1.406.156.431-.345.501-.974.156-1.406l-4-5c-.198-.247-.488-.375-.782-.375" transform="translate(30.999 20)"/><path d="m0 0c0 0-3-3-6-3-3 0-6 3-6 3l2-7 3 2.25v-26.25c0-.553.448-1 1-1 .552 0 1 .447 1 1v26.25l3-2.25 2 7" transform="translate(25 34)"/></g></g></g></svg>