<svg xmlns="http://www.w3.org/2000/svg" viewBox="0 0 47.5 47.5" enable-background="new 0 0 47.5 47.5"><defs><clipPath id="0"><path d="m0 38h38v-38h-38v38"/></clipPath></defs><g transform="matrix(1.25 0 0-1.25 0 47.5)"><g clip-path="url(#0)"><path d="m0 0l-16.218.772c.557 2.061 1.207 4.687 1.207 5.728 0 2.5-.577 5.5-2.51 5.5-2.5 0-3.521 0-3.521-2.5 0-3.5-3-8.501-3-10.501 0-.491.015-1.032.038-1.57l-.08-13.555c0-5.542 1-7.85 7-7.85 6 0 16.816.002 16.816.002 2.186-.029 3.987 1.269 4.243 3.049.08.553 2.941 15.824 2.941 15.824.458 2.225-.167 4.892-6.916 5.101" fill="#d99e82" transform="translate(28.08 25)"/><path d="m0 0c-.196.338-.555.514-.923.496-.924.02-13.351.878-15.04 1.094-.14.025-1.364.281-1.237 1.694.04.443.161 1.028.512 1.303.289.227.669.18.675.179l13.404-1.087c.567-.057 1.033.366 1.077.916.044.551-.366 1.033-.917 1.077l-13.253 1.069c-.291.041-1.283.123-2.174-.545-.762-.571-1.205-1.491-1.316-2.734-.168-1.874.835-2.934 1.837-3.459-.481-.564-.882-1.326-.923-2.34-.095-2.328 1.416-3.581 1.77-3.842-.66-.735-1.01-1.525-1.017-2.375-.016-1.327.777-2.356 1.46-3-.233-.257-.435-.546-.564-.891-.423-1.133-.186-2.539.574-3.419.443-.512 1.019-.786 1.629-.786.145 0 .293.015.441.048.54.116.883.647.767 1.187-.115.54-.647.886-1.187.768-.014.002-.049-.01-.136.09-.25.289-.396.926-.214 1.413.116.312.333.475.703.53.192.027.35.121.489.237l10.16-.249h.042c.533 0 .976.233.998.772.022.551-.406.831-.958.853l-10.937.445c-.472.36-1.277 1.141-1.267 1.936.01.828.932 1.579 1.746 2.081l11.685-.752c.023-.001.044-.002.066-.002.523 0 .963.406.997.936.035.551-.383 1.027-.934 1.062l-13.526.87c-.292.278-.833.941-.789 2.01.053 1.295 1.387 1.836 1.436 1.857.028.01.046.032.072.044 3.28-.28 11.03-.914 13.593-.914.452 0 .743.02.82.065.477.277.639.889.361 1.367" fill="#c1694f" transform="translate(34.28 17.628)"/></g></g></svg>