<svg xmlns="http://www.w3.org/2000/svg" viewBox="0 0 47.5 47.5" enable-background="new 0 0 47.5 47.5"><defs><clipPath id="0"><path d="m0 38h38v-38h-38v38"/></clipPath></defs><g transform="matrix(1.25 0 0-1.25 0 47.5)"><g clip-path="url(#0)"><path d="m0 0v-2h-12.707c-.867 0-1.835-.896-2.161-2l-3.542-12c-.326-1.104.306-2 1.41-2h18c1.104 0 2 .896 2 2v9 1c0 1.861 1.278 3.412 3 3.858v2.142h-6" fill="#a7a9ac" transform="translate(27 19)"/><g fill="#e6e7e8"><path d="m0 0c0-3.521-4.478-7.125-10-7.125-5.523 0-10 3.604-10 7.125 0 1.875.833 1.875 10 1.875 9.166 0 10 0 10-1.875" transform="translate(23 15.13)"/><path d="m0 0c0-.553-.447-1-1-1h-18c-.552 0-1 .447-1 1 0 .553.448 1 1 1h18c.553 0 1-.447 1-1" transform="translate(23 18)"/></g><g fill="#939598"><path d="m0 0h-12c-1.104 0-2-.896-2-2h16c0 1.104-.896 2-2 2" transform="translate(19 21)"/><path d="m0 0v-16c1.104 0 2 .896 2 2v12c0 1.104-.896 2-2 2" transform="translate(21 37)"/></g><path d="m0 0c0 1.104-.896 2-2 2h-8c-1.104 0-2-.896-2-2v-1-13c0-1.104.896-2 2-2h8c1.104 0 2 .896 2 2v13 1" fill="#e6e7e8" transform="translate(35 33)"/><path d="m0 0c0-1.104-.896-2-2-2-1.104 0-2 .896-2 2 0 1.104.896 2 2 2 1.104 0 2-.896 2-2" fill="#d1d3d4" transform="translate(23 21)"/><path d="m35 31h-12v2h12v-2" fill="#bcbec0"/><path d="m0 0c0-.553-.447-1-1-1h-21c-.552 0-1 .447-1 1 0 .553.448 1 1 1h21c.553 0 1-.447 1-1" fill="#a7a9ac" transform="translate(26 16)"/></g></g></svg>