<svg xmlns="http://www.w3.org/2000/svg" viewBox="0 0 47.5 47.5" enable-background="new 0 0 47.5 47.5" xmlns:xlink="http://www.w3.org/1999/xlink"><defs><path id="1" d="m0 0c0-1.104-.896-2-2-2-1.104 0-2 .896-2 2 0 1.104.896 2 2 2 1.104 0 2-.896 2-2" fill="#5b6876"/><clipPath id="0"><path d="m0 38h38v-38h-38v38"/></clipPath></defs><g transform="matrix(1.25 0 0-1.25 0 47.5)"><g clip-path="url(#0)"><path d="m0 0c0-9.94-8.06-18-18-18-9.941 0-18 8.06-18 18 0 9.941 8.06 18 18 18 9.94 0 18-8.06 18-18" fill="#66757f" transform="translate(37 19)"/><g fill="#5b6876"><path d="m0 0c0-1.933-1.566-3.5-3.5-3.5-1.934 0-3.5 1.567-3.5 3.5 0 1.933 1.566 3.5 3.5 3.5 1.934 0 3.5-1.567 3.5-3.5" transform="translate(14 29.5)"/><path d="m0 0c0-1.934-1.566-3.5-3.5-3.5-1.934 0-3.5 1.566-3.5 3.5 0 1.934 1.566 3.5 3.5 3.5 1.934 0 3.5-1.566 3.5-3.5" transform="translate(29 8.5)"/></g><use transform="translate(25 32)" xlink:href="#1"/><g fill="#5b6876"><path d="m0 0c0-.553.448-1 1-1 .552 0 1 .447 1 1 0 .552-.448 1-1 1-.552 0-1-.448-1-1" transform="translate(3 19)"/><path d="m0 0c0-.553.447-1 1-1 .553 0 1 .447 1 1 0 .552-.447 1-1 1-.553 0-1-.448-1-1" transform="translate(30 28)"/><path d="m0 0c0-.553.447-1 1-1 .553 0 1 .447 1 1 0 .553-.447 1-1 1-.553 0-1-.447-1-1" transform="translate(16 6)"/></g><use transform="translate(35 18)" xlink:href="#1"/><use transform="translate(9 11)" xlink:href="#1"/><path d="m0 0c-7 0-9 2.618-9 1.381 0-1.238 4-4.477 9-4.477 5 0 9 3.239 9 4.477 0 1.237-2-1.381-9-1.381" fill="#4f585d" transform="translate(19 12.1)"/><path d="m0 0c0-1.657-1.344-3-3-3-1.656 0-3 1.343-3 3 0 1.657 1.344 3 3 3 1.656 0 3-1.343 3-3" fill="#4f585d" transform="translate(28 22)" id="2"/><use transform="translate(-12)" xlink:href="#2"/></g></g></svg>