<svg xmlns="http://www.w3.org/2000/svg" viewBox="0 0 47.5 47.5" enable-background="new 0 0 47.5 47.5"><defs><clipPath id="0"><path d="m0 38h38v-38h-38v38"/></clipPath></defs><g transform="matrix(1.25 0 0-1.25 0 47.5)"><g clip-path="url(#0)"><path d="m0 0c2.122 2.122 5-14.313-3-21-2.757-2.305-6-2.969-8-2.969-2.371 0-10.03-.031-13-.031-7.18 0-8 4.925-8 11 0 6.075.82 11 8 11 6 0 10-2 13-3.996 4.977-3.312 5.992-3.861 8-2 3.213 2.97 1 6 3 8" fill="#744eaa" transform="translate(33 25)"/><path d="m0 0c-.465-3.727-2.041-7.523-5-10-2.757-2.305-6-2.969-8-2.969-2.371 0-10.03-.031-13-.031-4.04 0-6.06 1.555-7.06 3.996-.781 1.902 3.062-.996 14.06-.996 14 0 17 5 19 10" fill="#aa8dd8" transform="translate(35 14)"/><path d="m0 0c4.123 0 4 5 4 7 0 2-2-1-5-2-3-1-7 2-6 0 1-2 3-5 7-5" fill="#744eaa" transform="translate(33 23)"/><g fill="#55acee"><path d="m0 0c0-2.209-.896-6-2-6-1.104 0-2 3.791-2 6 0 2.209.896 2 2 2 1.104 0 2 .209 2-2" transform="translate(11 30)"/><g transform="translate(9 32)"><path d="m0 0c0 3-6 2-6 0 0-2 3-1 4-3 1-2 2 3 2 3"/><path d="m0 0c0 3 6 2 6 0 0-2-3-1-4-3-1-2-2 3-2 3"/></g></g><path d="m0 0c0-.828-.671-1.5-1.5-1.5-.829 0-1.5.672-1.5 1.5 0 .828.671 1.5 1.5 1.5.829 0 1.5-.672 1.5-1.5" fill="#292f33" transform="translate(9 11.5)"/></g></g></svg>