<svg xmlns="http://www.w3.org/2000/svg" viewBox="0 0 47.5 47.5" enable-background="new 0 0 47.5 47.5"><defs><clipPath id="0"><path d="m0 38h38v-38h-38v38"/></clipPath></defs><g transform="matrix(1.25 0 0-1.25 0 47.5)"><g clip-path="url(#0)"><path d="m0 0c0-6.075-3.667-18.333-11-18.333-7.333 0-11 12.258-11 18.333 0 7.181 8.25 3.667 11 3.667 2.712 0 11 3.552 11-3.667" fill="#a6d388" transform="translate(23 32.413)"/><g fill="#5c913b"><path d="m0 0c4.583-2.75 7.333-2.75 11 0 2.75 1.833-1.833-6.417-5.5-6.417-3.667 0-8.25 8.25-5.5 6.417" transform="translate(6.5 25.08)"/><path d="m0 0c-.138 0-.278.031-.41.097-.452.227-.636.777-.409 1.23.636 1.273 1.933 2.15 3.303 2.236.839.046 2.458-.156 3.779-2.138.281-.421.167-.99-.254-1.271-.423-.28-.991-.167-1.271.255-.611.915-1.355 1.373-2.14 1.323-.73-.045-1.428-.526-1.778-1.225-.16-.321-.484-.507-.82-.507" transform="translate(4.666 28.746)"/><path d="m0 0c-.336 0-.66.186-.82.507-.35.699-1.048 1.18-1.778 1.225-.776.042-1.529-.408-2.14-1.323-.282-.422-.85-.535-1.271-.255-.421.281-.535.85-.254 1.271 1.32 1.983 2.931 2.186 3.779 2.138 1.37-.086 2.667-.963 3.303-2.236.227-.453.043-1-.409-1.23-.132-.066-.272-.097-.41-.097" transform="translate(19.334 28.746)"/></g><path d="m0 0c0-6.075-3.667-18.333-11-18.333-7.333 0-11 12.258-11 18.333 0 7.181 8.25 3.667 11 3.667 2.713 0 11 3.552 11-3.667" fill="#cbb7ea" transform="translate(37 19.334)"/><g fill="#9266cc"><path d="m0 0c-3.5 2.151-5.5 2.151-9 0-2.75-1.833.833 4.417 4.5 4.417 3.667 0 7.25-6.25 4.5-4.417" transform="translate(30.5 6.849)"/><path d="m0 0c-.138 0-.278.031-.41.097-.452.226-.636.777-.409 1.23.699 1.4 2.403 2.49 4.051 2.592 1.489.1 2.814-.585 3.698-1.91.281-.422.167-.99-.254-1.272-.421-.281-.99-.167-1.271.254-.522.782-1.215 1.148-2.059 1.099-1.121-.069-2.164-.86-2.526-1.583-.16-.321-.484-.507-.82-.507" transform="translate(18 15.08)"/><path d="m0 0c-.337 0-.66.186-.821.508-.361.722-1.404 1.512-2.525 1.582-.841.047-1.539-.317-2.059-1.099-.281-.421-.851-.535-1.272-.254-.421.282-.535.85-.254 1.272.884 1.325 2.188 2.01 3.7 1.91 1.648-.103 3.351-1.193 4.05-2.593.226-.452.042-1-.411-1.229-.131-.066-.27-.097-.408-.097" transform="translate(34 15.08)"/></g></g></g></svg>