<svg xmlns="http://www.w3.org/2000/svg" viewBox="0 0 47.5 47.5" enable-background="new 0 0 47.5 47.5" xmlns:xlink="http://www.w3.org/1999/xlink"><defs><clipPath id="0"><path d="m0 38h38v-38h-38v38"/></clipPath></defs><g transform="matrix(1.25 0 0-1.25 0 47.5)"><g clip-path="url(#0)"><g fill="#553788"><path d="m0 0c3-5 0-10.692-3-9.692-3 1-4-2-1-3 3-1 9.465.464 13 4 1 1 2 1 2 1l-11 7.692" transform="translate(11 25)"/><path d="m0 0c-3-5 0-10.692 3-9.692 3 1 4-2 1-3-3-1-9.465.464-13 4-1 1-2 1-2 1l11 7.692" transform="translate(27 25)"/></g><g fill="#744eaa"><path d="m0 0c-3-5 0-10.692 3-9.692 3 1 4-2 1-3-3-1-9.465.464-13 4-1 1-2 1-2 1l11 7.692" transform="translate(31.19 21)"/><path d="m0 0c3-5 0-10.692-3-9.692-3 1-4-2-1-3 3-1 9.465.464 13 4 1 1 2 1 2 1l-11 7.692" transform="translate(6.812 21)"/></g><path d="m0 0c-2.729-.91-6.425 5.626-4.812 10.578 1.646 3.243 2.624 6.857 2.624 9.797 0 7.18-5.821 11-13 11-7.18 0-13-3.82-13-11 0-2.94.977-6.554 2.623-9.797 1.613-4.952-2.082-11.488-4.812-10.578-3 1-4-3-1-4 3-1 8.31.627 12 4 2.189 2 4.189 2 4.189 2 0 0 2 0 4.188-2 3.69-3.373 9-5 12-4 3 1 2 5-1 4" fill="#9266cc" transform="translate(34.19 5.625)"/><path d="m0 0c0-1.104-.896-2-2-2-1.104 0-2 .896-2 2 0 1.104.896 2 2 2 1.104 0 2-.896 2-2" fill="#292f33" transform="translate(17 16)" id="1"/><use transform="translate(8)" xlink:href="#1"/></g></g></svg>