<svg xmlns="http://www.w3.org/2000/svg" viewBox="0 0 47.5 47.5" enable-background="new 0 0 47.5 47.5"><defs><clipPath id="0"><path d="m0 38h38v-38h-38v38"/></clipPath></defs><g transform="matrix(1.25 0 0-1.25 0 47.5)"><g clip-path="url(#0)"><path d="m0 0c0 7-2 13-7 16-5 3-10 .784-10 .784v-.034l-.001.034c0 0-4.999 2.216-9.999-.784-5-3-7-8.998-7-16 0-7-1-18-1-18h18 18c0 0-1 10.998-1 18" fill="#e6e7e8" transform="translate(36 19)"/><path d="m0 0c4.876 0 13-2.438 13-13 0-10.564 0-13-2.438-13-2.437 0-5.687 2.437-10.563 2.437-4.875 0-8.06-2.437-10.563-2.437-2.716 0-2.438 9.751-2.438 13 0 10.563 8.126 13 13 13" fill="#662113" transform="translate(18.999 34.19)"/><path d="m0 0v1c0 3.313-2.687 6-6 6h-16c-3.313 0-6-2.687-6-6v-1h28" fill="#fff" transform="translate(33 1)"/><path d="m0 0c0 6.928-4.366 12.544-9.751 12.544-5.385 0-9.75-5.616-9.75-12.544 0-5.581 2.834-10.305 6.751-11.934v-1.611h-3v-5h12v5h-3v1.613c3.916 1.629 6.75 6.352 6.75 11.932" fill="#d79e84" transform="translate(28.75 21.545)"/><path d="m0 0c-1.982 0-3.03.992-3.145 1.105-.391.39-.391 1.024-.001 1.415.387.386 1.01.39 1.402.012.044-.039.615-.532 1.744-.532 1.15 0 1.721.512 1.745.533.4.37 1.029.357 1.406-.036.376-.393.378-1.01-.006-1.392-.114-.113-1.163-1.105-3.145-1.105" fill="#be1931" transform="translate(18.999 12.06)"/><path d="m0 0h-2c-.552 0-1 .447-1 1 0 .553.448 1 1 1h2c.553 0 1-.447 1-1 0-.553-.447-1-1-1" fill="#c1694f" transform="translate(20 16)"/><g fill="#662113"><path d="m0 0c-.025 0-.052.59-.052.876 0 4.063 2.437-.425 2.437 2.47 0 2.895 1.625 3.266 3.25 4.891.813.812 2.438 2.446 2.438 2.446 0 0 4.063-2.434 7.314-2.434 3.25 0 6.5-1.624 6.5-4.874 0-3.25 2.437 1.563 2.437-2.5 0-.289-.027-.875-.047-.875h.853c.007 1 .007 2.608.007 4.126 0 10.563-8.125 14.658-13 14.658-4.876 0-13-4.11-13-14.674 0-.941-.023-2.11.01-4.11h.855" transform="translate(6.863 17)"/><path d="m0 0c-.552 0-1 .448-1 1v1c0 .552.448 1 1 1 .552 0 1-.448 1-1v-1c0-.552-.448-1-1-1" transform="translate(15 19)"/><path d="m0 0c-.553 0-1 .448-1 1v1c0 .552.447 1 1 1 .553 0 1-.448 1-1v-1c0-.552-.447-1-1-1" transform="translate(23 19)"/></g><path d="m0 0c-.477.564-.981 1.079-1.516 1.535-1.441-.339-4.536-.574-8.131-.574-3.592 0-6.683.234-8.126.572-.535-.456-1.04-.971-1.517-1.534 1.871-.619 5.487-1.038 9.643-1.038 4.159 0 7.777.42 9.647 1.039" fill="#fff" transform="translate(28.648 31.04)"/></g></g></svg>