<svg xmlns="http://www.w3.org/2000/svg" viewBox="0 0 47.5 47.5" enable-background="new 0 0 47.5 47.5"><defs><clipPath id="0"><path d="m0 38h38v-38h-38v38"/></clipPath></defs><g transform="matrix(1.25 0 0-1.25 0 47.5)"><g clip-path="url(#0)" fill="#5dadec"><path d="m0 0l-14.98-6.266 12.537-9.733c2.632-2.224 6.377-2.937 9.769-1.518 4.826 2.02 7.096 7.577 5.072 12.413-2.02 4.838-7.574 7.123-12.398 5.104" transform="translate(23.856 36.24)"/><path d="m0 0l-10.843 8.398-1.913-13.246c-.534-2.855.502-5.902 2.958-7.802 3.493-2.705 8.518-2.067 11.224 1.425 2.705 3.493 2.067 8.518-1.426 11.225" transform="translate(13.893 18.318)"/><path d="m0 0l-8.156 4.689-.033-9.222c-.088-2 .904-3.981 2.75-5.04 2.63-1.512 5.976-.594 7.478 2.051 1.5 2.644.59 6.01-2.039 7.523" transform="translate(29.23 11.303)"/></g></g></svg>