<svg xmlns="http://www.w3.org/2000/svg" viewBox="0 0 47.5 47.5" enable-background="new 0 0 47.5 47.5"><defs><clipPath id="0"><path d="m0 38h38v-38h-38v38"/></clipPath></defs><g transform="matrix(1.25 0 0-1.25 0 47.5)"><g clip-path="url(#0)"><path d="m0 0c0-9.389-7.611-17-17-17-9.389 0-17 7.611-17 17 0 9.389 7.611 17 17 17 9.389 0 17-7.611 17-17" fill="#ffcc4d" transform="translate(36 19)"/><g fill="#664500"><path d="m0 0c-.153.132-.368.159-.551.069l-4-2c-1.871-.935-6.727-.947-6.776-.947-.277 0-.5-.224-.5-.5 0-.184.1-.347.25-.433.002-.001.002-.001.002-.001.071-.041.153-.064.24-.066h.008 7c2.658 0 4.089 2.186 4.474 3.342.064.192.006.403-.147.536" transform="translate(25.327 13.378)"/><path d="m0 0c-.305 0-.605.138-.801.4-2.64 3.521-6.06 3.599-6.206 3.6-.55.006-.994.456-.991 1 .003.551.447.995.997.995.184 0 4.537-.05 7.8-4.4.332-.442.242-1.069-.2-1.4-.18-.135-.39-.2-.599-.2" transform="translate(32 21)"/><path d="m0 0c-.208 0-.419.065-.599.2-.442.331-.531.958-.2 1.4 3.262 4.35 7.616 4.4 7.8 4.4.552 0 1-.448 1-1 0-.551-.445-.998-.996-1-.155-.002-3.568-.086-6.204-3.6-.197-.262-.497-.4-.801-.4" transform="translate(5.999 21)"/><path d="m0 0c.023.052.059.096.073.154.134.536-.192 1.079-.727 1.213-.181.045-4.468 1.08-7.798-1.138-.459-.307-.583-.928-.277-1.387.193-.289.51-.446.833-.446.19 0 .383.055.554.168 1.092.73 2.362.995 3.468 1.062-.009-.077-.023-.151-.023-.23 0-1.104.896-2 2-2 1.105 0 2 .896 2 2 0 .212-.042.413-.103.604" transform="translate(16.897 19.604)"/><path d="m0 0c.023.052.059.095.073.152.135.537-.191 1.079-.727 1.213-.18.045-4.466 1.08-7.797-1.138-.46-.306-.584-.927-.278-1.387.193-.289.51-.445.834-.445.19 0 .382.055.553.168 1.092.729 2.362.994 3.469 1.06-.009-.076-.023-.15-.023-.228 0-1.104.895-2 2-2 1.104 0 2 .896 2 2 0 .212-.042.413-.104.605" transform="translate(28.897 19.605)"/></g></g></g></svg>