<svg xmlns="http://www.w3.org/2000/svg" viewBox="0 0 47.5 47.5" enable-background="new 0 0 47.5 47.5"><defs><clipPath id="0"><path d="m0 38h38v-38h-38v38"/></clipPath></defs><g transform="matrix(1.25 0 0-1.25 0 47.5)"><path d="m0 0v2h-30-6v-2-5-2-5-2-5-2-5-2h6 30v2h-30v5h30v2h-30v5h30v2h-30v5h30v2h-30v5h30" fill="#9aaab4" transform="translate(37 32)"/><g clip-path="url(#0)"><path d="m0 0c.653.943 1.452 1.837 2.431 2.718l.339-1.739c-.717-.362-1.322-.901-1.801-1.611-.552-.82-.846-1.726-.872-2.717.016-.913.308-1.736.871-2.451.565-.708 1.294-1.18 2.169-1.4l.12-.03.122.029c.537.127.594.471.594.613 0 .345-.224.621-.579.72-.368.17-.637.417-.821.758-.202.368-.308.713-.308.994 0 .475.17.903.515 1.303.214.242.432.431.655.572l1.092-5.508c-.381-.081-.733-.132-1.046-.152-1.383.045-2.517.5-3.369 1.349-.433.443-.747.907-.958 1.423-.213.516-.327 1.059-.341 1.584.03 1.273.429 2.465 1.187 3.545m4.945 11.479c-.18-.526-.429-1.056-.743-1.576-.306-.517-.629-.973-.959-1.359-.105-.126-.202-.231-.288-.322-.078.353-.128.745-.149 1.164.015.685.116 1.364.304 2.081.17.661.409 1.26.696 1.756.304.468.621.705.944.705.115 0 .196-.029.259-.087.07-.071.119-.208.15-.454.03-.134.047-.304.047-.494 0-.443-.088-.918-.261-1.414m1.159-18.639l-1.047 5.149c.26-.055.502-.146.726-.276.397-.224.703-.529.946-.939.241-.389.391-.837.456-1.302 0-1.246-.355-2.115-1.081-2.632m3.122 5.178c-.223.646-.543 1.226-.948 1.722-.411.513-.925.928-1.529 1.233-.61.309-1.259.459-1.981.459-.086 0-.208-.009-.367-.026l-.533 2.594c.613.602 1.156 1.299 1.616 2.076.499.847.885 1.771 1.145 2.741.268.978.399 1.942.399 2.945 0 2.106-.542 3.94-1.627 5.475-.158.197-.288.344-.386.431-.395.356-.788.412-1.704-.266-.47-.352-.883-.86-1.224-1.506-.352-.644-.608-1.366-.786-2.2-.186-.826-.283-1.722-.292-2.684.041-1.352.234-2.7.576-4.01-.77-.779-1.392-1.43-1.881-1.951-.52-.569-1.038-1.222-1.539-1.943-.495-.71-.91-1.493-1.233-2.323-.318-.807-.497-1.693-.534-2.655.008-.982.196-1.944.561-2.864.365-.903.884-1.727 1.546-2.45.665-.718 1.448-1.288 2.325-1.695 1.231-.569 2.644-.749 4.02-.51.063-.288.146-.629.244-1.022.157-.648.274-1.172.349-1.56.074-.39.11-.765.11-1.122 0-.541-.059-.955-.198-1.3-.049-.203-.184-.413-.401-.621-.233-.226-.508-.401-.839-.533-.468-.183-.922-.231-1.289-.18.195.105.375.241.537.405.433.443.653.988.653 1.622 0 .447-.11.875-.328 1.282-.215.375-.508.684-.886.929-.378.224-.779.341-1.226.341h-.006c-.511-.035-.954-.196-1.3-.471-.361-.266-.647-.619-.853-1.051-.193-.406-.307-.847-.338-1.362.04-1.04.478-1.885 1.306-2.508.786-.581 1.709-.877 2.74-.877.743 0 1.435.164 2.053.487.634.327 1.148.796 1.529 1.403.37.601.559 1.291.559 2.046 0 .495-.043.96-.129 1.419-.085.458-.211 1.08-.384 1.869-.124.535-.219.987-.288 1.349.965.428 1.712 1.049 2.225 1.85.577.898.868 1.908.868 3 0 .665-.112 1.342-.332 2.02" fill="#131516" transform="translate(19.602 18.42)"/></g></g></svg>