<svg xmlns="http://www.w3.org/2000/svg" viewBox="0 0 47.5 47.5" enable-background="new 0 0 47.5 47.5"><defs><clipPath id="0"><path d="m0 38h38v-38h-38v38"/></clipPath></defs><g transform="matrix(1.25 0 0-1.25 0 47.5)"><g clip-path="url(#0)"><path d="m0 0c0-9.389-7.611-17-17-17-9.389 0-17 7.611-17 17 0 9.389 7.611 17 17 17 9.389 0 17-7.611 17-17" transform="translate(35.999 19)"/><g fill="#fff"><path d="m0 0c-1 0-1-1-1-1v-4h-6v4c0 0-.021 1-1.021 1-1 0-.979-1-.979-1v-8c0 0 0-2 2-2h6c2 0 2 2 2 2v8c0 0 0 1-1 1" transform="translate(18 18)"/><path d="m0 0h-9v4 1c0 0 0 1-1 1-1 0-1-1-1-1v-1-4c-6 0-6-6-6-6v-1c0-1 1-1 1-1h2c0 0 1 0 1 1v.207.793c0 2 2 2 2 2h11c1 0 1 1 1 1v2c0 0 0 1-1 1" transform="translate(29 27)"/><path d="m0 0h-2c-.552 0-1-.448-1-1 0-.552.448-1 1-1h2c.552 0 1 .448 1 1 0 .552-.448 1-1 1" transform="translate(17 32)"/><path d="m0 0h2c.553 0 1 .448 1 1 0 .552-.447 1-1 1h-2c-.553 0-1-.448-1-1 0-.552.447-1 1-1" transform="translate(21 30)"/></g><path d="m0 0c0 3.968 1.453 7.592 3.845 10.388l22.543-22.544c-2.796-2.391-6.42-3.844-10.388-3.844-8.836 0-16 7.164-16 16m32 0c0-3.968-1.453-7.591-3.845-10.388l-22.543 22.543c2.797 2.392 6.42 3.845 10.388 3.845 8.837 0 16-7.164 16-16m-16 18c-9.941 0-18-8.06-18-18 0-9.941 8.06-18 18-18 9.941 0 18 8.06 18 18 0 9.941-8.06 18-18 18" fill="#dd2e44" transform="translate(3 19)"/></g></g></svg>