<svg xmlns="http://www.w3.org/2000/svg" viewBox="0 0 47.5 47.5" enable-background="new 0 0 47.5 47.5"><defs><clipPath id="0"><path d="m0 38h38v-38h-38v38"/></clipPath></defs><g transform="matrix(1.25 0 0-1.25 0 47.5)"><g clip-path="url(#0)"><path d="m0 0c0-9.389-7.611-17-17-17-9.388 0-17 7.611-17 17 0 9.388 7.612 17 17 17 9.389 0 17-7.612 17-17" fill="#ffcc4d" transform="translate(36 19)"/><g fill="#664500"><path d="m0 0c-.207.09-.451.03-.592-.148-.01-.012-.979-1.202-3.335-1.844-.775-.212-1.531-.319-2.244-.319-.993 0-1.559.212-1.562.213-.21.084-.453.014-.587-.17-.135-.184-.128-.435.016-.611.071-.088 1.779-2.148 4.124-2.148.351 0 .702.048 1.043.14 2.854.779 3.41 4.209 3.432 4.354.034.224-.088.442-.295.533" transform="translate(17.664 26.457)"/><path d="m0 0c-.138.181-.38.245-.59.159-.006-.003-.633-.256-1.737-.256-.661 0-1.359.09-2.073.266-2.37.582-3.37 1.748-3.377 1.758-.146.176-.388.233-.596.137-.207-.095-.323-.318-.283-.542.026-.145.668-3.56 3.539-4.267.31-.076.629-.115.946-.115 2.397 0 4.099 2.159 4.17 2.252.139.178.138.428.001.608" transform="translate(28.639 24.302)"/><path d="m0 0c-.448 0-.855.303-.969.757-.134.535.19 1.077.724 1.212.036.01 3.593.962 5.352 4.478.247.494.846.696 1.342.448.494-.247.694-.848.447-1.342-2.181-4.362-6.471-5.478-6.652-5.523-.082-.021-.163-.03-.244-.03" transform="translate(10.999 27)"/><path d="m0 0c-.08 0-.161.01-.242.03-.182.045-4.472 1.161-6.653 5.523-.247.494-.046 1.095.448 1.342.493.247 1.093.046 1.342-.448 1.757-3.517 5.315-4.468 5.351-4.478.533-.137.858-.68.722-1.215-.115-.452-.521-.754-.968-.754" transform="translate(27 27)"/><path d="m0 0c-3.623 0-6.03-.422-9-1-.679-.131-2 0-2 2 0 4 4.595 9 11 9 6.404 0 11-5 11-9 0-2-1.321-2.132-2-2-2.973.578-5.377 1-9 1" transform="translate(19 8.04)"/></g><path d="m0 0c0 0 3 1 8 1 5 0 8-1 8-1 0 0-2 4-8 4-6 0-8-4-8-4" fill="#fff" transform="translate(11 12)"/></g></g></svg>