<svg xmlns="http://www.w3.org/2000/svg" viewBox="0 0 47.5 47.5" enable-background="new 0 0 47.5 47.5" xmlns:xlink="http://www.w3.org/1999/xlink"><defs><clipPath id="0"><path d="m0 38h38v-38h-38v38"/></clipPath></defs><g transform="matrix(1.25 0 0-1.25 0 47.5)"><g clip-path="url(#0)"><path d="m0 0c0 4.939-6.772 4.457-9.169 4.132-2.433 1.789-5.387 2.868-8.831 2.868-3.438 0-6.388-1.081-8.818-2.869-2.385.325-9.182.817-9.182-4.131 0-2.891 1.563-4.732 2.433-5.533-.947-2.727-1.433-5.642-1.433-8.467 0-5.48 3.041-8.866 6.941-10.804l-1.585-4.196h7.644l.738 2.215c1.125-.146 2.227-.215 3.262-.215.737 0 1.509.035 2.298.106l.702-2.106h8l-1.648 3.847c4.234 1.861 7.648 5.311 7.648 11.153 0 2.835-.483 5.75-1.426 8.473.871.805 2.426 2.644 2.426 5.527" fill="#bf6952" transform="translate(37 30)"/><path d="m0 0c0 3.866-3.134 7-7 7-1.96 0-3.729-.808-5-2.105-1.271 1.297-3.04 2.105-5 2.105-3.866 0-7-3.134-7-7 0-3.631 2.765-6.615 6.304-6.965-1.424-1.325-2.304-3.12-2.304-5.04 0-3.866 3.582-7 8-7 4.419 0 8 3.134 8 7 0 1.915-.88 3.709-2.304 5.04 3.539.35 6.304 3.334 6.304 6.965" fill="#d79e84" transform="translate(31 23)"/><path d="m0 0c0-1.657-.896-3-2-3-1.104 0-2 1.343-2 3 0 1.657.896 3 2 3 1.104 0 2-1.343 2-3" fill="#292f33" transform="translate(16 21)" id="1"/><use transform="translate(10)" xlink:href="#1"/><path d="m0 0c-4.114 0-6.267 6.3-6.267 9.677 0 .623.076 1.129.225 1.505.283.712.774.818 1.042.818 1.926 0 3.268-1.835 3.823-2.765.994.677 3.392 2.113 5.844 2.113 1.455 0 2.695-.502 3.687-1.494 1.442-1.443 2.02-2.893 1.71-4.311-.583-2.692-4.194-4.235-4.806-4.48-.353-.274-1.678-1.063-5.258-1.063" fill="#d79e84" transform="translate(14 3.5)"/><path d="m0 0c-.317 0-1.1-.11-1.506-1.134-.173-.434-.261-1-.261-1.689 0-3.552 2.325-10.177 6.767-10.177 3.501 0 4.98.748 5.501 1.122.871.35 4.43 1.942 5.05 4.816.345 1.594-.276 3.199-1.846 4.769-1.089 1.089-2.448 1.641-4.04 1.641-2.275 0-4.49-1.16-5.696-1.919-.722 1.057-2.086 2.571-3.971 2.571m0-1c2.236 0 3.656-3 3.656-3 0 0 3.01 2.348 6.01 2.348 1.172 0 2.342-.357 3.333-1.348 5-5-3-8-3-8 0 0-1-1-5-1-5 0-7 11-5 11" fill="#bf6952" transform="translate(9 16)"/><path d="m0 0c-3.663 0-4.965.825-5.281 1.082-.536.278-4.314 2.342-4.809 5.397-.245 1.506.34 2.978 1.736 4.375.881.879 1.992 1.326 3.303 1.326 2.728 0 5.613-1.943 6.81-2.849.407.991 1.374 2.669 3.241 2.669.268 0 .759-.106 1.042-.818.148-.376.225-.882.225-1.505 0-3.377-2.153-9.677-6.267-9.677" fill="#d79e84" transform="translate(23 3.5)"/><g fill="#bf6952"><path d="m0 0c-1.448 0-2.678-.495-3.656-1.473-1.517-1.516-2.148-3.134-1.877-4.807.522-3.217 4.33-5.368 5.03-5.74.472-.359 1.929-1.16 5.552-1.16 4.443 0 6.767 6.625 6.767 10.177 0 .687-.088 1.255-.261 1.69-.406 1.023-1.188 1.133-1.506 1.133-1.701 0-2.817-1.206-3.445-2.403-1.438 1.015-4.071 2.583-6.606 2.583m0-1c3.337 0 7.05-3.18 7.05-3.18 0 0 .764 3 3 3 2 0 0-11-5-11-4 0-5 1-5 1 0 0-8 4-3 9 .856.856 1.883 1.18 2.949 1.18" transform="translate(17.949 16.18)"/><path d="m0 0c-.095 0-.191.027-.277.084l-5.755 3.837c-.23.153-.292.464-.138.693.152.231.462.292.693.139l5.755-3.837c.229-.153.292-.464.139-.693-.097-.145-.255-.223-.417-.223" transform="translate(19 7.5)"/><path d="m0 0c-.096 0-.192.027-.277.084l-5.462 3.641c-.23.153-.292.463-.138.693.152.229.462.293.693.139l5.461-3.641c.23-.153.292-.464.139-.693-.097-.145-.255-.223-.416-.223" transform="translate(21 10.5)"/></g></g></g></svg>