<svg xmlns="http://www.w3.org/2000/svg" viewBox="0 0 47.5 47.5" enable-background="new 0 0 47.5 47.5"><defs><clipPath id="0"><path d="m0 38h38v-38h-38v38"/></clipPath></defs><g transform="matrix(1.25 0 0-1.25 0 47.5)"><g clip-path="url(#0)"><path d="m0 0c0-1.657-1.343-3-3-3-1.657 0-3 1.343-3 3 0 1.657 1.343 3 3 3 1.657 0 3-1.343 3-3" fill="#9aaab4" transform="translate(21 17)"/><g fill="#da2f47"><path d="m0 0c-.259-.485-.868-.671-1.353-.412l-12.354 6.588c-.485.259-.67.867-.411 1.353l2.823 5.295c.259.485.868.67 1.353.411l12.353-6.588c.485-.258.671-.867.412-1.353l-2.823-5.294" transform="translate(20.235 19.941)"/><path d="m0 0c-.259-.485-.868-.671-1.354-.412l-9.705 5.176c-.485.258-.67.868-.412 1.353l1.882 3.529c.259.485.868.67 1.354.412l9.705-5.176c.485-.259.671-.868.412-1.354l-1.882-3.528" transform="translate(32.18 14.707)"/></g><path d="M 0,0 -1.765,0.941 1.059,6.235 2.823,5.295 0,0 Z" fill="#bb1a34" transform="translate(22 19)"/><path d="M 0,0 -3.529,1.882 -0.706,7.177 2.823,5.294 0,0 Z" fill="#9d0522" transform="translate(33.471 12.883)"/><g fill="#292f33"><path d="m0 0l1.882 3.53-.881.47c-.001 0-.001 0-.001 0l-4.412 2.353c-.485.259-1.094.074-1.353-.412l-2.823-5.295c-.259-.485-.074-1.094.411-1.353l3.529-1.881 1.766-.942.47.882c0 0 0 0 0 .001l1.412 2.647" transform="translate(9.294 29.18)"/><path d="m0 0c0-1.104-.896-2-2-2h-8c-1.104 0-2 .896-2 2 0 1.104.896 2 2 2h8c1.104 0 2-.896 2-2" transform="translate(24 12)"/></g><g fill="#9aaab4"><path d="m0 0l3.344 7.152c.468 1 .036 2.192-.965 2.659-1 .468-2.191.037-2.658-.965l-4.137-8.846h4.416" transform="translate(10.467 1)"/><path d="m0 0h4.416l-4.137 8.846c-.466 1-1.658 1.433-2.658.965-1-.467-1.433-1.659-.965-2.659l3.344-7.152" transform="translate(25.532 1)"/><path d="m0 0v8c0 1.104-.896 2-2 2-1.104 0-2-.896-2-2v-8h4" transform="translate(20 1)"/></g></g></g></svg>