<svg xmlns="http://www.w3.org/2000/svg" viewBox="0 0 47.5 47.5" enable-background="new 0 0 47.5 47.5"><defs><clipPath id="0"><path d="m0 38h38v-38h-38v38"/></clipPath></defs><g transform="matrix(1.25 0 0-1.25 0 47.5)"><g clip-path="url(#0)"><path d="m0 0c-1.721 0-3.343-.406-4.793-1.111-.393.069-.795.111-1.207.111-3.866 0-7-3.134-7-7v-12h.018c.183-6.467 5.471-11.656 11.982-11.656 6.511 0 11.799 5.189 11.982 11.656h.018v9c0 6.075-4.925 11-11 11" fill="#642116" transform="translate(20 37)"/><path d="m0 0h-1-16-1c-2.209 0-4-1.791-4-4v-5h5 16 5v5c0 2.209-1.791 4-4 4" fill="#9268ca" transform="translate(28 10)"/><g fill="#7450a8"><path d="m28 1h-1v4h1v-4"/><path d="m11 1h-1v4h1v-4"/></g><g fill="#d79e84"><path d="m0 0v-4c0-1.657 1.343-3 3-3 1.657 0 3 1.343 3 3v4h-6" transform="translate(16 13)"/><path d="m0 0c0 0-.003-5.308-5-5.936v-6.06c0-4.971 4.03-9 9-9 4.971 0 9 4.03 9 9v5.02c-11.11.376-13 6.981-13 6.981" transform="translate(15 32)"/></g><path d="m0 0h-4-4c0 0 1-2 4-2 3 0 4 2 4 2" fill="#bb1a34" transform="translate(23 16)"/><g fill="#9268ca"><path d="m0 0l4 9-3 10 3 12h-5c0 0-4-8-4-12 0-4 5-19 5-19" transform="translate(6 1)"/><path d="m0 0l-4 9 3 10-3 12h5c0 0 4-8 4-12 0-4-5-19-5-19" transform="translate(32 1)"/></g><path d="m0 0c-.144.693-.822 1.139-1.517.997l-2.674-.554h-2.35c-1.105 0-2-.895-2-2v-1-1.42h5c0 0 1.899 1.257 1.985 2.345l.362.075h.653c0 .075-.029.144-.045.217.444.275.698.798.586 1.34" fill="#bf6952" transform="translate(13.541 35.977)"/><path d="m0 0c0 .552-.447 1-1 1l-6-1h-5c-.553 0-1-.448-1-1v-2.42h5l2 1 5 1.42c0 0 1 .447 1 1" fill="#d79e84" transform="translate(18 35.42)"/><path d="m0 0h-2.35l-2.674.554c-.695.141-1.373-.304-1.517-.997-.112-.542.142-1.065.586-1.341-.017-.072-.045-.142-.045-.216h.653l.363-.075c.089-1.069 1.984-1.925 1.984-1.925h5v1 1c0 1.104-.896 2-2 2" fill="#bf6952" transform="translate(31 36.42)"/><path d="m0 0c0 .552.447 1 1 1l6-1h5c.553 0 1-.448 1-1v-2.42h-5l-2 1-5 1.42c0 0-1 .447-1 1" fill="#d79e84" transform="translate(20 35.42)"/><path d="m0 0h-2c-.276 0-.5.224-.5.5 0 .276.224.5.5.5h2c.276 0 .5-.224.5-.5 0-.276-.224-.5-.5-.5" fill="#bf6952" transform="translate(20 17.5)"/><g fill="#292f33"><path d="m0 0c-.552 0-1 .448-1 1v1c0 .552.448 1 1 1 .552 0 1-.448 1-1v-1c0-.552-.448-1-1-1" transform="translate(15 21)"/><path d="m0 0c-.553 0-1 .448-1 1v1c0 .552.447 1 1 1 .553 0 1-.448 1-1v-1c0-.552-.447-1-1-1" transform="translate(23 21)"/></g></g></g></svg>