<svg xmlns="http://www.w3.org/2000/svg" viewBox="0 0 47.5 47.5" enable-background="new 0 0 47.5 47.5"><defs><clipPath id="0"><path d="m0 38h38v-38h-38v38"/></clipPath></defs><g transform="matrix(1.25 0 0-1.25 0 47.5)"><g clip-path="url(#0)"><path d="m0 0c-1.656 0-3.221-.376-4.629-1.032-4.676-.324-8.371-4.21-8.371-8.968 0-3.218 1.694-6.03 4.233-7.624 2.01-2.653 5.183-4.376 8.767-4.376 6.075 0 11 4.925 11 11 0 6.075-4.925 11-11 11" fill="#292f33" transform="translate(20 33)"/><path d="m0 0h-1-16-1c0 0-9 0-9-7 0-3.156 4-7 4-7h1 1 4 16 4 1 1c0 0 4 3.844 4 7 0 7-9 7-9 7" fill="#4289c1" transform="translate(28 15)"/><path d="m0 0c0-1.657-1.343-3-3-3-1.657 0-3 1.343-3 3 0 1.657 1.343 3 3 3 1.657 0 3-1.343 3-3" fill="#bf6952" transform="translate(22 9)"/><g fill="#d79e84"><path d="m0 0c0 0-.003-5.308-5-5.936v-4.064c0-4.971 4.03-9 9-9 4.971 0 9 4.03 9 9v3.02c-11.11.376-13 6.981-13 6.981" transform="translate(15 26)"/><path d="m0 0l-5 1-2 1h-3l-1-4h5 6c1 0 1 1 1 1 0 .553-1 1-1 1" transform="translate(18 3)"/><path d="m0 0l-2-1-5-1c0 0-1-.447-1-1 0 0 0-1 1-1h6 5l-1 4h-3" transform="translate(27 5)"/></g><g fill="#292f33"><path d="m0 0c-.553 0-1 .447-1 1v1c0 .553.447 1 1 1 .553 0 1-.447 1-1v-1c0-.553-.447-1-1-1" transform="translate(23 15)"/><path d="m0 0c-.552 0-1 .447-1 1v1c0 .553.448 1 1 1 .552 0 1-.447 1-1v-1c0-.553-.448-1-1-1" transform="translate(15 15)"/></g><path d="m0 0h-2c-.276 0-.5.224-.5.5 0 .276.224.5.5.5h2c.276 0 .5-.224.5-.5 0-.276-.224-.5-.5-.5" fill="#bf6952" transform="translate(20 10.5)"/><g fill="#5dadec"><path d="m0 0c-.208 0-.419.065-.599.2l-4 3c-.442.331-.531.958-.2 1.4.332.442.958.531 1.4.2l4-3c.442-.331.531-.958.2-1.4-.197-.262-.497-.4-.801-.4" transform="translate(6.999 29)"/><path d="m0 0c-.323 0-.64.156-.833.445l-2 3c-.306.46-.182 1.081.277 1.387.46.307 1.08.182 1.387-.277l2-3c.306-.46.182-1.081-.277-1.387-.171-.114-.364-.168-.554-.168" transform="translate(10 32)"/><path d="m0 0c-.305 0-.604.138-.801.4-.332.442-.242 1.069.2 1.4l4 3c.441.333 1.069.242 1.4-.2.332-.442.242-1.069-.2-1.4l-4-3c-.18-.135-.39-.2-.599-.2" transform="translate(32 29)"/><path d="m0 0c-.19 0-.383.054-.554.168-.46.306-.584.927-.277 1.387l2 3c.306.459.925.584 1.387.277.46-.306.584-.927.277-1.387l-2-3c-.192-.289-.51-.445-.833-.445" transform="translate(28.999 32)"/></g></g></g></svg>