<svg xmlns="http://www.w3.org/2000/svg" viewBox="0 0 47.5 47.5" enable-background="new 0 0 47.5 47.5"><defs><clipPath id="0"><path d="m0 38h38v-38h-38v38"/></clipPath><clipPath id="1"><path d="m1 19c0-9.941 8.06-18 18-18 9.941 0 18 8.06 18 18 0 9.941-8.06 18-18 18-9.941 0-18-8.06-18-18"/></clipPath></defs><g transform="matrix(1.25 0 0-1.25 0 47.5)"><g clip-path="url(#0)"><path d="m0 0c0-9.941-8.06-18-18-18-9.941 0-18 8.06-18 18 0 9.941 8.06 18 18 18 9.941 0 18-8.06 18-18" fill="#f4900c" transform="translate(37 19)"/><g fill="#231f20"><path d="m20 1h-2v36h2v-36"/><path d="m1 20h36v-2h-36v2"/></g></g><g clip-path="url(#1)" fill="#231f20"><path d="m0 0c-4.318 0-7-4.598-7-12 0-7.402 2.682-12 7-12 4.318 0 7 4.598 7 12 0 7.402-2.682 12-7 12m0-26c-4.351 0-9 3.678-9 14 0 10.322 4.649 14 9 14 4.351 0 9-3.678 9-14 0-10.322-4.649-14-9-14" transform="translate(3 31)"/><path d="m0 0c-4.317 0-7-4.598-7-12 0-7.402 2.683-12 7-12 4.317 0 7 4.598 7 12 0 7.402-2.683 12-7 12m0-26c-4.351 0-9 3.678-9 14 0 10.322 4.649 14 9 14 4.351 0 9-3.678 9-14 0-10.322-4.649-14-9-14" transform="translate(35 31)"/></g></g></svg>