<svg xmlns="http://www.w3.org/2000/svg" viewBox="0 0 47.5 47.5" enable-background="new 0 0 47.5 47.5" xmlns:xlink="http://www.w3.org/1999/xlink"><defs><clipPath id="0"><path d="m0 38h38v-38h-38v38"/></clipPath></defs><g transform="matrix(1.25 0 0-1.25 0 47.5)"><g clip-path="url(#0)"><path d="m0 0h20c0 0 3 0 3 4 0 2 0 6-1 7-1 1-8 7-11 7h-6c-3 0-10-7-10-7l-4-1c0 0-3-1-3-3v-3c0 0-1-.338-1-1.957 0-2.043 2-2.043 2-2.043h11" fill="#dd2e44" transform="translate(14 8)"/><g fill="#bbddf5"><path d="m0 0h-2c-2 0-8-6-8-6 0 0 4.997.263 10 .519v5.481" transform="translate(21 24)"/><path d="m0 0c-1 1-5 3-7 3h-1v-5.379c4.01.204 7.582.379 8 .379 1 0 1 1 0 2" transform="translate(31 21)"/></g><path d="m0 0c0-2.209-1.791-4-4-4-2.209 0-4 1.791-4 4 0 2.209 1.791 4 4 4 2.209 0 4-1.791 4-4" fill="#292f33" transform="translate(15 9)" id="1"/><path d="m0 0c0-1.104-.896-2-2-2-1.104 0-2 .896-2 2 0 1.104.896 2 2 2 1.104 0 2-.896 2-2" fill="#ccd6dd" transform="translate(13 9)" id="2"/><use transform="translate(17)" xlink:href="#1"/><use transform="translate(17)" xlink:href="#2"/></g></g></svg>