<svg xmlns="http://www.w3.org/2000/svg" viewBox="0 0 47.5 47.5" enable-background="new 0 0 47.5 47.5" xmlns:xlink="http://www.w3.org/1999/xlink"><defs><clipPath id="0"><path d="m0 38h38v-38h-38v38"/></clipPath></defs><g transform="matrix(1.25 0 0-1.25 0 47.5)"><g clip-path="url(#0)"><path d="m0 0c0-1.104-.896-2-2-2-1.104 0-2 .896-2 2v4c0 1.104.896 2 2 2 1.104 0 2-.896 2-2v-4" fill="#ffac33" transform="translate(21 31)" id="1"/><use transform="translate(0-28)" xlink:href="#1"/><path d="m0 0c1.104 0 2-.896 2-2 0-1.104-.896-2-2-2h-4c-1.104 0-2 .896-2 2 0 1.104.896 2 2 2h4" fill="#ffac33" transform="translate(7 21)" id="2"/><use transform="translate(28)" xlink:href="#2"/><g fill="#ffac33"><path d="m0 0c.781.78 2.047.781 2.828 0 .781-.78.781-2.048 0-2.828l-2.828-2.829c-.781-.78-2.048-.78-2.828 0-.781.781-.781 2.048 0 2.828l2.828 2.829" transform="translate(9.101 11.929)"/><path d="m0 0c.781.781 2.047.782 2.828 0 .781-.78.781-2.047 0-2.828l-2.828-2.828c-.781-.781-2.048-.781-2.828-.001-.781.782-.781 2.048 0 2.829l2.828 2.828" transform="translate(28.899 31.728)"/><path d="m0 0c-.78.781-.781 2.047 0 2.828.78.781 2.048.781 2.828 0l2.829-2.828c.78-.781.78-2.048 0-2.828-.781-.781-2.048-.781-2.828 0l-2.829 2.828" transform="translate(26.07 9.101)"/><path d="m0 0c-2.761 0-5 2.238-5 5 0 2.761 2.239 5 5 5 2.762 0 5-2.239 5-5 0-2.762-2.238-5-5-5m0 14c-4.971 0-9-4.03-9-9 0-4.971 4.03-9 9-9 4.971 0 9 4.03 9 9 0 4.97-4.03 9-9 9" transform="translate(19 14)"/><path d="m0 0c-.781.781-.782 2.047 0 2.828.78.781 2.047.781 2.828 0l2.828-2.828c.781-.781.781-2.048.001-2.828-.782-.781-2.048-.781-2.829 0l-2.828 2.828" transform="translate(6.273 28.899)"/></g></g></g></svg>