<svg xmlns="http://www.w3.org/2000/svg" viewBox="0 0 47.5 47.5" enable-background="new 0 0 47.5 47.5"><defs><clipPath id="0"><path d="m0 38h38v-38h-38v38"/></clipPath><clipPath id="1"><path d="m3 33.31v-13.498c0-4.499 11.375.9 14.974 4.499 3.6 3.6-.063 5.399-.063 6.299 0 .646-7.692 5.47-12.03 5.471-1.701 0-2.884-.742-2.884-2.771"/></clipPath><clipPath id="2"><path d="m20.257 30.608c0-.9-3.495-2.699.105-6.299 3.599-3.599 14.638-8.998 14.638-4.499v13.498c0 2.029-1.17 2.771-2.852 2.771-4.286-.001-11.891-4.825-11.891-5.471"/></clipPath></defs><g transform="matrix(1.25 0 0-1.25 0 47.5)"><g clip-path="url(#0)" fill="#dd2e44"><path d="m0 0c-.263 0-.519.104-.707.293-2.343 2.342-6.293 19.811-6.293 21.707 0 .282.101 1.687 2.094 1.687 2.113 0 5.878-1.587 6.3-1.768.368-.157.606-.519.606-.919 0-1.489 4.406-10.733 7.857-16.485.229-.382.179-.869-.124-1.195-.301-.326-.783-.413-1.18-.215l-5.258 2.629c-.441-.725-.931-1.868-1.376-2.906-.333-.778-.678-1.582-1.024-2.275-.144-.287-.417-.489-.735-.54-.054-.009-.107-.013-.16-.013" transform="translate(24 1)"/><path d="m0 0c-.053 0-.107.004-.16.013-.318.051-.59.253-.735.54-.346.693-.691 1.497-1.024 2.275-.445 1.038-.935 2.181-1.376 2.906l-5.258-2.629c-.398-.2-.878-.11-1.181.215-.302.326-.352.813-.123 1.195 3.451 5.752 7.857 14.996 7.857 16.485 0 .4.238.762.606.919.422.181 4.187 1.768 6.3 1.768 1.993 0 2.094-1.405 2.094-1.687 0-1.896-3.951-19.365-6.293-21.707-.189-.189-.444-.293-.707-.293" transform="translate(13 1)"/><path d="m0 0v-13.499c0-4.499 11.375.9 14.974 4.5 3.6 3.6-.063 5.399-.063 6.299 0 .9-14.911 9.899-14.911 2.7" transform="translate(3 33.31)"/></g><g clip-path="url(#1)"><path d="m0 0c-13.499 0-17.1-5.399-17.1-7.199 0-1.8 9.899-5.4 12.598-2.699 2.7 2.699 4.5 9.898 4.5 9.898" fill="#a0041e" transform="translate(19.9 25.21)"/></g><g clip-path="url(#0)"><path d="m0 0v-13.499c0-4.499-10.99.9-14.59 4.5-3.599 3.6-.129 5.399-.129 6.299 0 .9 14.719 9.899 14.719 2.7" fill="#dd2e44" transform="translate(35 33.31)"/></g><g clip-path="url(#2)"><path d="m0 0c13.499 0 17.1-5.399 17.1-7.199 0-1.8-9.9-5.4-12.599-2.699-2.7 2.699-4.5 9.898-4.5 9.898" fill="#a0041e" transform="translate(18.771 25.21)"/></g><g clip-path="url(#0)"><path d="m0 0c0-1.988-1.611-3.6-3.599-3.6h-1.802c-1.988 0-3.599 1.612-3.599 3.6v3.801c0 1.988 1.611 3.599 3.599 3.599h1.802c1.988 0 3.599-1.611 3.599-3.599v-3.801" fill="#ea596e" transform="translate(23 25.6)"/></g></g></svg>