<svg xmlns="http://www.w3.org/2000/svg" viewBox="0 0 47.5 47.5" enable-background="new 0 0 47.5 47.5"><defs><clipPath id="0"><path d="m0 38h38v-38h-38v38"/></clipPath></defs><g transform="matrix(1.25 0 0-1.25 0 47.5)"><path d="m0 0h32l-11 17h-10l-11-17" fill="#a7a9ac" transform="translate(3 1)"/><path d="m0 0h26l-10 17h-6l-10-17" fill="#58595b" transform="translate(6 1)"/><path d="m0 0h20l-9 17h-2l-9-17" fill="#808285" transform="translate(9 1)"/><g clip-path="url(#0)"><g fill="#a7a9ac"><path d="m0 0c0-.553-.447-1-1-1h-18c-.552 0-1 .447-1 1 0 .553.448 1 1 1h18c.553 0 1-.447 1-1" transform="translate(29 2)"/><path d="m0 0c0-.553-.447-1-1-1h-14c-.552 0-1 .447-1 1 0 .553.448 1 1 1h14c.553 0 1-.447 1-1" transform="translate(27 6)"/><path d="m0 0c0-.553-.447-1-1-1h-10c-.552 0-1 .447-1 1 0 .553.448 1 1 1h10c.553 0 1-.447 1-1" transform="translate(25 10)"/></g><path d="m0 0c1.125-1.226 2.617-2.18 4.119-2.18h8c1.501 0 2.994.955 4.119 2.18l-2.549 3.938c-1.359-.097-3.148-.118-5.57-.118-2.466 0-4.274-.023-5.642.008l-2.477-3.828" fill="#58595b" transform="translate(10.881 13.18)"/><path d="m0 0c0-.552-.448-1-1-1-.552 0-1 .448-1 1v1c0 .552.448 1 1 1 .552 0 1-.448 1-1v-1" fill="#414042" transform="translate(20 35)"/><path d="m0 0c0-1.104-.896-2-2-2h-4c-1.104 0-2 .896-2 2 0 1.104.896 2 2 2h4c1.104 0 2-.896 2-2" fill="#6d6e71" transform="translate(23 33)"/><path d="m0 0c0-2.209-3.791-5-6-5h-8c-2.209 0-6 2.791-6 5v11c0 2.209 1.791 4 4 4h12c2.209 0 4-1.791 4-4v-11" fill="#d1d3d4" transform="translate(29 19)"/><path d="m0 0c0-2.209-1.791-4-4-4h-6c-2.209 0-4 1.791-4 4v5c0 2.209 1.791 4 4 4h6c2.209 0 4-1.791 4-4v-5" fill="#808285" transform="translate(26 21)"/><path d="m0 0h6c2.209 0 4 1.791 4 4v2h-14v-2c0-2.209 1.791-4 4-4" fill="#55acee" transform="translate(16 22)"/><path d="m0 0c-7 0-8.754 1.801-10 3.242v-1.242c0-2.209 3-6 6-6h8c3 0 6 3.791 6 6v1.891c-1.246-1.73-3-3.891-10-3.891" fill="#5c913b" transform="translate(19 17)"/><g fill="#ffd983"><path d="m0 0c0-.828-.672-1.5-1.5-1.5-.829 0-1.5.672-1.5 1.5 0 .829.671 1.5 1.5 1.5.828 0 1.5-.671 1.5-1.5" transform="translate(16 19.5)"/><path d="m0 0c0-.828-.672-1.5-1.5-1.5-.828 0-1.5.672-1.5 1.5 0 .829.672 1.5 1.5 1.5.828 0 1.5-.671 1.5-1.5" transform="translate(25 19.5)"/></g><path d="m0 0v2c0 1.104-.896 2-2 2h-10c-1.104 0-2-.896-2-2v-2h14" fill="#292f33" transform="translate(26 28)"/><path d="m0 0c0-.552-.447-1-1-1h-4c-.552 0-1 .448-1 1 0 .552.448 1 1 1h4c.553 0 1-.448 1-1" fill="#6d6e71" transform="translate(22 30)"/></g></g></svg>