<svg xmlns="http://www.w3.org/2000/svg" viewBox="0 0 47.5 47.5" enable-background="new 0 0 47.5 47.5" xmlns:xlink="http://www.w3.org/1999/xlink"><defs><clipPath id="0"><path d="m0 38h38v-38h-38v38"/></clipPath></defs><g transform="matrix(1.25 0 0-1.25 0 47.5)"><g clip-path="url(#0)"><path d="m0 0c0-.552.896-1 2-1 1.104 0 2 .448 2 1 0 .552-.896 1-2 1-1.104 0-2-.448-2-1" fill="#99aab5" transform="translate(31 21)"/><path d="m0 0c-.553 0-1 .447-1 1v16c0 1.582-1.962 2-3 2-1.038 0-3-.418-3-2 0-.552-.447-1-1-1-.553 0-1 .448-1 1 0 2.626 2.516 4 5 4 2.484 0 5-1.374 5-4v-16c0-.553-.447-1-1-1" fill="#ccd6dd" transform="translate(34 16)"/><path d="m0 0c0-1.104-1.343-1-3-1-1.657 0-3-.104-3 1 0 1.104 1.343 2 3 2 1.657 0 3-.896 3-2" fill="#99aab5" transform="translate(29 31)"/><path d="m0 0c0-.552-.447-1-1-1h-6c-.553 0-1 .448-1 1 0 .552.447 1 1 1h6c.553 0 1-.448 1-1" fill="#ccd6dd" transform="translate(30 30)"/><path d="m0 0c0-1.104-.896-2-2-2-1.104 0-2 .896-2 2 0 1.104.896 2 2 2 1.104 0 2-.896 2-2" fill="#99aab5" transform="translate(15 3)" id="1"/><use transform="translate(16)" xlink:href="#1"/><path d="m0 0h-18c-5 0-10 6-11 14-.248 1.984.812 1 3.02 1 0 0 12.979-2 25.979-2 2 0 5 1.209 5-1 0 0-1-12-5-12" fill="#ccd6dd" transform="translate(31 3)"/><path d="m0 0c0-.553-.447-1-1-1l-34 2c-.552 0-1 .447-1 1 0 .553.448 1 1 1l34-2c.553 0 1-.447 1-1" fill="#99aab5" transform="translate(37 16)"/></g></g></svg>