<svg xmlns="http://www.w3.org/2000/svg" viewBox="0 0 47.5 47.5" enable-background="new 0 0 47.5 47.5"><defs><clipPath id="0"><path d="m0 38h38v-38h-38v38"/></clipPath></defs><g transform="matrix(1.25 0 0-1.25 0 47.5)"><g clip-path="url(#0)"><path d="m0 0h6c7 0 11-7.887 11-16 0-15-9-15-17-15s-17 0-17 15c0 9.958 6 16 11 16h6" fill="#f18f26" transform="translate(19 32)"/><path d="m0 0c-.035-.669-.352-1.405-.972-2.129-1.605-1.873-3.386-1.481-4.04.82-1.224-.194-2.549-.32-3.961-.32-7 0-12 3-12 3 0-2.673 1.015-4.438 2.465-5.624.148.32.345.634.635.924 1.485 1.485 3.105.675 3.601-1.8.077-.389.099-.733.096-1.057 2.052-.44 4.062-.443 5.203-.443 3 0 12 0 12 8 0 0-1.121-.667-3.03-1.371" fill="#642116" transform="translate(27.972 12.629)"/><path d="m0 0c.069-.42-.222-.764-.647-.764h-4.452c-.425 0-.717.344-.647.764l.746 4.472c.07.42.476.764.901.764h2.452c.425 0 .832-.344.901-.764l.746-4.472" fill="#3f7123" transform="translate(21.873 31.764)"/><path d="m0 0c0 0 2 5 8 5 5 0 7-5 7-5h-15" fill="#5c913b" transform="translate(17 31)"/><g fill="#642116"><path d="m0 0c.793 1.479 2.093 1.479 2.887-.001l2.163-4.03c.795-1.479-.306-2.689-2.446-2.689h-2.324c-2.139 0-3.239 1.21-2.446 2.689l2.166 4.03" transform="translate(9.691 25.891)"/><path d="m0 0c.794 1.479 2.093 1.479 2.887-.001l2.164-4.03c.794-1.479-.307-2.689-2.447-2.689h-2.324c-2.138 0-3.239 1.21-2.445 2.689l2.165 4.03" transform="translate(25.423 25.891)"/><path d="m0 0c-.586-1.091-1.544-1.091-2.131 0l-1.597 2.977c-.586 1.092.226 1.985 1.805 1.985h1.715c1.58 0 2.393-.893 1.806-1.985l-1.598-2.977" transform="translate(20.2 14.04)"/></g></g></g></svg>