<svg xmlns="http://www.w3.org/2000/svg" viewBox="0 0 47.5 47.5" enable-background="new 0 0 47.5 47.5"><defs><clipPath id="0"><path d="m0 38h38v-38h-38v38"/></clipPath><clipPath id="1"><path d="m18.583 27.833c-2.957-.231-5.666 2.542-4.666 7.04-3.239-2.386-3.332-6.403-2.333-9 1.041-2.708-.042-4.958-2.584-5.208-2.839-.28-4.416 3.042-2.962 8.333-2.518-2.965-4.04-6.805-4.04-11 0-9.389 7.611-17 17-17 9.389 0 17 7.611 17 17 0 2.063-.367 4.04-1.04 5.868-.46-5.388-3.333-8.157-6.335-6.868-2.812 1.208-.917 5.917-.777 8.164.236 3.809-.012 8.169-6.931 11.794 2.875-5.499.333-8.917-2.334-9.125"/></clipPath></defs><g transform="matrix(1.25 0 0-1.25 0 47.5)"><g clip-path="url(#0)"><path d="m0 0c0 2.063-.367 4.04-1.04 5.868-.46-5.389-3.333-8.157-6.335-6.868-2.813 1.208-.917 5.917-.777 8.164.236 3.809-.012 8.169-6.931 11.794 2.875-5.5.333-8.916-2.334-9.125-2.958-.23-5.666 2.542-4.666 7.04-3.238-2.386-3.333-6.402-2.334-9 1.042-2.708-.041-4.958-2.583-5.208-2.839-.28-4.417 3.041-2.962 8.333-2.518-2.965-4.04-6.805-4.04-11 0-9.389 7.611-17 17-17 9.389 0 17 7.611 17 17" fill="#f4900c" transform="translate(36 18)"/></g><g clip-path="url(#1)"><path d="m0 0c0 2.187-.584 4.236-1.605 6 .147-3.084-2.562-4.293-4.02-3.709-2.105.843-1.541 2.291-2.083 5.291-.542 3-2.625 5.084-5.709 6 2.25-6.333-1.247-8.667-3.08-9.08-1.872-.426-3.753.001-3.968 4.01-2.183-2.174-3.535-5.182-3.535-8.506 0-6.627 5.373-12 12-12 6.627 0 12 5.373 12 12" fill="#ffcc4d" transform="translate(31 7)"/></g></g></svg>