<svg xmlns="http://www.w3.org/2000/svg" viewBox="0 0 47.5 47.5" enable-background="new 0 0 47.5 47.5"><defs><clipPath id="0"><path d="m0 38h38v-38h-38v38"/></clipPath><clipPath id="1"><path d="m5 37c0 0-4 0-4-4v-28c0-4 4-4 4-4h28c4 0 4 4 4 4v28c0 0 0 4-4 4h-28"/></clipPath><clipPath id="2"><path d="m15 24c-2-4-14-13-14-13v-6c0-4 4-4 4-4h28c4 0 4 4 4 4v6c0 0-9 5-14 13-.75 1.199-2-2-4-2-1.6 0-2.56 2.56-3.392 2.56-.208 0-.408-.16-.608-.56"/></clipPath></defs><g transform="matrix(1.25 0 0-1.25 0 47.5)"><g clip-path="url(#0)"><path d="m0 0c0 0 0-4-4-4h-28c0 0-4 0-4 4v28c0 4 4 4 4 4h28c4 0 4-4 4-4v-28" fill="#c1694f" transform="translate(37 5)"/></g><g clip-path="url(#1)"><path d="m0 0c0 0 12 9 14 13 1 2 2-2 4-2 2 0 3.25 3.199 4 2 5-8 14-13 14-13v-10h-36v10" fill="#662213" transform="translate(1 11)"/></g><g clip-path="url(#2)"><path d="m0 0l-10-10c0 0 7.105 7.789 8 6 .558-1.116-2.11-3.881-4.437-4.938-2.282-1.035-2.67-2.838-1.344-3.281.829-.276 2.983.175 4.03 2.456 1.321 2.887 4.276 5.989 4.965 5.538 1.532-1-2.367-7.244-5.149-10.494-1.283-1.499-.204-3.072.938-3.281 1.875-.344 3.5 1.469 3.807 4.14.442 3.847 1.62 7.502 3.349 7.423 2.904-.133.719-8.03 4.719-7.03 1.411.353 1.766 2.231.281 3.469-1.477 1.232-2.423 3.733-.802 5.354.353.353 2-.691 2.802-2.198 1.515-2.844 3.208.951 1.911 1.987-.781.623 4.933-3.143 4.933-3.143l-11 9-7-1" fill="#be1931" transform="translate(15 24)"/></g><g clip-path="url(#0)"><path d="m0 0c0-1.104-1.791-2-4-2-2.209 0-4 .896-4 2 0 1.104 1.791 2 4 2 2.209 0 4-.896 4-2" fill="#ffcc4d" transform="translate(23 24)"/><path d="m0 0c-1.562 0-1.5 2.031-5 4-2.756 1.55-5.5.531-7.438-2.063-2.154-2.884-5.564.066-1.562 3.063 6.469 4.844 10.687-1.594 12.313-.875.811.359-.809 3.053-3.32 4.192-2.199.998-3.432 2.683-1.93 3.183 2.999 1 5.125-2.719 6.125-4.719.999-2 2.124-1.156 3.843 1.5 1 1.545 2.65 3.141 4.063 3.386 2.094.364 4.625-2.042 1.875-2.167-2.311-.105-4.969-1.5-5.969-3.5-1-2 1.386-1.01 3.312.125 4.03 2.375 9.688 1.875 8.688-1.125-1-3-3.286 3.02-11.312-1.531-2.46-1.396-2.126-3.469-3.688-3.469" fill="#ffac33" transform="translate(19 24)"/></g></g></svg>