<svg xmlns="http://www.w3.org/2000/svg" viewBox="0 0 47.5 47.5" enable-background="new 0 0 47.5 47.5"><defs><clipPath id="0"><path d="m0 38h38v-38h-38v38"/></clipPath></defs><g transform="matrix(1.25 0 0-1.25 0 47.5)"><g clip-path="url(#0)" fill="#bdddf4"><path d="m0 0c0 3.866-3.134 7-7 7-1.167 0-2.265-.29-3.232-.794-2.082 2.827-5.425 4.669-9.206 4.669-5.132 0-9.474-3.38-10.922-8.04-2.658-.617-4.64-2.994-4.64-5.839 0-2.979 2.174-5.445 5.02-5.913.216-3.949 3.477-7.087 7.479-7.087 2.176 0 4.13.933 5.5 2.413 1.37-1.48 3.323-2.413 5.5-2.413 4.143 0 7.5 3.357 7.5 7.5 0 .71-.105 1.394-.289 2.045 2.519 1.059 4.289 3.55 4.289 6.455" transform="translate(36 25)"/><path d="m0 0c0-1.657-1.343-3-3-3-1.657 0-3 1.343-3 3 0 1.657 1.343 3 3 3 1.657 0 3-1.343 3-3" transform="translate(8 6)"/></g></g></svg>