<svg xmlns="http://www.w3.org/2000/svg" viewBox="0 0 47.5 47.5" enable-background="new 0 0 47.5 47.5" xmlns:xlink="http://www.w3.org/1999/xlink"><defs><path id="1" d="m0 0c0-1.381-1.119-2.5-2.5-2.5h-1c-1.381 0-2.5 1.119-2.5 2.5 0 1.381 1.119 2.5 2.5 2.5h1c1.381 0 2.5-1.119 2.5-2.5" fill="#ea596e"/><path id="2" d="m0 0c-.231 1.142-1.239 2-2.449 2h-1c-1.21 0-2.218-.858-2.45-2h5.899" fill="#fff"/><clipPath id="0"><path d="m0 38h38v-38h-38v38"/></clipPath></defs><g transform="matrix(1.25 0 0-1.25 0 47.5)"><g clip-path="url(#0)"><path d="m0 0c0-2.209-1.791-4-4-4h-28c-2.209 0-4 1.791-4 4v28c0 2.209 1.791 4 4 4h28c2.209 0 4-1.791 4-4v-28" fill="#88c9f9" transform="translate(37 5)"/><path d="m0 0c-6.076 0-11 4.925-11 11 0 6.075 4.924 11 11 11 6.075 0 11-4.925 11-11 0-6.075-4.925-11-11-11m0 24c-7.18 0-13-5.82-13-13 0-7.18 5.82-13 13-13 7.18 0 13 5.82 13 13 0 7.18-5.82 13-13 13" fill="#ffe8b6" transform="translate(19 10)"/><use transform="translate(22 30.5)" xlink:href="#1"/><use transform="translate(13 27.5)" xlink:href="#1"/><use transform="translate(31 27.5)" xlink:href="#1"/><use transform="translate(34 18.5)" xlink:href="#1"/><use transform="translate(10 18.5)" xlink:href="#1"/><use transform="translate(13 10.5)" xlink:href="#1"/><use transform="translate(31 10.5)" xlink:href="#1"/><use transform="translate(22 6.5)" xlink:href="#1"/><path d="m0 0c-.231 1.142-1.239 2-2.449 2h-1c-1.21 0-2.218-.858-2.45-2h5.899" fill="#fff" transform="translate(21.949 7)"/><use transform="translate(12.949 11)" xlink:href="#2"/><use transform="translate(9.949 19)" xlink:href="#2"/><path d="m0 0c-.231 1.142-1.239 2-2.449 2h-1c-1.209 0-2.218-.858-2.449-2h5.898" fill="#fff" transform="translate(33.949 19)"/><path d="m0 0c-.231 1.142-1.239 2-2.449 2h-1c-1.209 0-2.218-.858-2.449-2h5.898" fill="#fff" transform="translate(30.949 11)" id="3"/><use transform="translate(0 17)" xlink:href="#3"/><use transform="translate(21.949 31)" xlink:href="#2"/><use transform="translate(12.949 28)" xlink:href="#2"/><g fill="#414042"><path d="m0 0c-.376 0-.735.212-.906.574l-7.095 15.08-7.096-15.08c-.236-.5-.831-.713-1.33-.479-.5.235-.715.831-.479 1.331l8 17c.165.35.518.574.905.574.387 0 .74-.224.905-.574l8-17c.235-.5.021-1.096-.479-1.331-.138-.065-.282-.095-.425-.095" transform="translate(27 3)"/><path d="m0 0c0 1.657 1.343 3 3 3 1.657 0 3-1.343 3-3 0-1.657-1.343-3-3-3-1.657 0-3 1.343-3 3" transform="translate(16 21)"/></g></g></g></svg>