<svg xmlns="http://www.w3.org/2000/svg" viewBox="0 0 47.5 47.5" enable-background="new 0 0 47.5 47.5" xmlns:xlink="http://www.w3.org/1999/xlink"><defs><clipPath id="0"><path d="m0 38h38v-38h-38v38"/></clipPath></defs><g transform="matrix(1.25 0 0-1.25 0 47.5)"><g clip-path="url(#0)"><path d="m0 0c1.072 6.084 1.262 15.05 0 15.864-1.262.815-10.07-2.217-11.914-6.263-1.01.267-3.086.399-3.086.399 0 0-2.01-.132-3.02-.399-1.842 4.046-10.721 7.078-11.982 6.263-1.262-.816-1.074-9.78 0-15.864 0 0-.967-1.979-.967-8.95l16 3.967v.837l16-4.837c0 7-1.033 8.983-1.033 8.983" fill="#ffcb4e" transform="translate(34 20)"/><path d="m0 0c-2.085 0-4.273-.477-5.913-1.281-1.639.804-3.827 1.281-5.912 1.281-9.932 0-10.09-5.1-10.09-6.664 0-1.559 1.967-10.03 15.967-10.03 14 0 16.03 8.441 16.03 10 0 1.564-.156 6.697-10.09 6.697" fill="#ffd882" transform="translate(24.946 17.718)"/><g fill="#f28f20"><path d="M 0,0 C 2.17,2.383 6.681,4.172 7.607,3.945 8.359,3.764 8.242,-2.441 7.639,-5.992 5.076,-1.742 0,0 0,0" transform="translate(24.406 28.946)"/><path d="m0 0c-2.168 2.383-6.68 4.172-7.605 3.945-.754-.181-.637-6.386-.032-9.937 2.563 4.25 7.637 5.992 7.637 5.992" transform="translate(13.66 28.946)"/></g><path d="m0 0c0 4.693-1.809 13-4.04 13-2.231 0-4.04-8.307-4.04-13 0-4.695 1.809-2 4.04-2 2.231 0 4.04-2.695 4.04 2" fill="#faaa35" transform="translate(23.04 17)"/><path d="m0 0c0-1.105-.904-2-2.02-2-1.115 0-2.02.895-2.02 2 0 1.104.904 1.998 2.02 1.998 1.116 0 2.02-.894 2.02-1.998" fill="#2a2f33" transform="translate(16.02 20)" id="1"/><use transform="translate(10.02-.001)" xlink:href="#1"/><g fill="#f28f20"><path d="m0 0c-.553 0-1 .447-1 1v2.875c0 .553.447 1 1 1 .553 0 1-.447 1-1v-2.875c0-.553-.447-1-1-1" transform="translate(19.02 8.125)"/><path d="m0 0c-4 0-4.957 2.761-5 2.896-.172.525.114 1.09.64 1.261.523.172 1.078-.109 1.256-.624.043-.116.876-2.137 4.838-1.345.547.112 1.07-.244 1.177-.785.109-.542-.243-1.068-.784-1.176-.789-.159-1.495-.227-2.126-.227" transform="translate(23.07 5.918)"/><path d="m0 0c-.632 0-1.337.068-2.127.227-.541.108-.893.634-.784 1.176.107.541.629.898 1.177.785 4-.798 4.848 1.27 4.882 1.359.196.508.767.777 1.278.591.511-.186.785-.738.61-1.252-.046-.136-1.034-2.886-5.04-2.886" transform="translate(14.931 5.918)"/></g><path d="m0 0c0-1.758-3.216-3.979-4.02-3.979-.802 0-4.02 2.221-4.02 3.979 0 1.76 2.244 1.592 4.02 1.592 1.776 0 4.02.168 4.02-1.592" fill="#292f33" transform="translate(23.02 15.408)"/><g fill="#f39120"><path d="m0 0c-.277 0-.553.115-.751.339-.03.035-3.181 3.502-10.41 4.624-.546.085-.92.596-.835 1.141.085.546.597.916 1.142.835.366-.056.723-.119 1.072-.186 7.242-1.404 10.399-4.94 10.536-5.096.362-.416.319-1.048-.097-1.411-.189-.165-.424-.246-.657-.246" transform="translate(35.02 5.065)"/><path d="m0 0c-.406 0-.789.25-.938.653-.192.519.074 1.094.591 1.285 5.477 2.024 12.161.189 12.451.109.532-.149.842-.699.695-1.231-.147-.532-.697-.842-1.23-.697-.064.018-6.358 1.739-11.222-.057-.115-.042-.232-.062-.347-.062" transform="translate(24.01 10.02)"/><path d="m0 0c.277 0 .553.115.751.339.03.035 3.181 3.502 10.41 4.624.546.085.92.596.835 1.141-.085.546-.597.916-1.142.835-.366-.056-.723-.119-1.072-.186-7.242-1.404-10.399-4.94-10.536-5.096-.362-.416-.319-1.048.097-1.411.189-.165.424-.246.657-.246" transform="translate(2.988 5.065)"/><path d="m0 0c.406 0 .789.25.938.653.192.519-.074 1.094-.591 1.285-5.477 2.024-12.161.189-12.451.109-.532-.149-.842-.699-.695-1.231.147-.532.697-.842 1.23-.697.064.018 6.358 1.739 11.222-.057.115-.042.232-.062.347-.062" transform="translate(13.996 10.02)"/></g></g></g></svg>