<svg xmlns="http://www.w3.org/2000/svg" viewBox="0 0 47.5 47.5" enable-background="new 0 0 47.5 47.5"><defs><clipPath id="0"><path d="m0 38h38v-38h-38v38"/></clipPath></defs><g transform="matrix(1.25 0 0-1.25 0 47.5)"><g clip-path="url(#0)"><path d="m0 0c0-4-4-4-4-4h-28c-4 0-4 4-4 4v28c0 4 4 4 4 4h28c0 0 4 0 4-4v-28" fill="#f4900c" transform="translate(37 5)"/><g fill="#fff"><path d="m0 0c-.15.39-.21.69-.21 1.11 0 1.26 1.109 2.16 2.311 2.16 1.019 0 1.649-.66 2.039-1.47l4.65-12.479 4.649 12.479c.391.81 1.021 1.47 2.04 1.47 1.201 0 2.31-.9 2.31-2.16 0-.42-.059-.72-.209-1.11l-6.57-16.71c-.39-.959-.9-1.738-2.22-1.738-1.32 0-1.83.779-2.221 1.738l-6.569 16.71" transform="translate(2.501 26.59)"/><path d="m0 0c0-1.17-.781-2.22-2.01-2.22-1.23 0-2.191.9-3.99.9-1.291 0-2.461-.69-2.461-1.95 0-3.089 10.02-1.11 10.02-8.849 0-4.291-3.539-6.961-7.68-6.961-2.309 0-7.289.541-7.289 3.361 0 1.17.779 2.129 2.01 2.129 1.41 0 3.089-1.17 5.04-1.17 1.978 0 3.058 1.11 3.058 2.58 0 3.541-10.02 1.41-10.02 8.369 0 4.202 3.449 6.811 7.439 6.811 1.68 0 5.881-.63 5.881-3" transform="translate(34.15 27.04)"/></g></g></g></svg>