<svg xmlns="http://www.w3.org/2000/svg" viewBox="0 0 47.5 47.5" enable-background="new 0 0 47.5 47.5" xmlns:xlink="http://www.w3.org/1999/xlink"><defs><clipPath id="0"><path d="m0 38h38v-38h-38v38"/></clipPath></defs><g transform="matrix(1.25 0 0-1.25 0 47.5)"><g clip-path="url(#0)"><g fill="#ccd6dd"><path d="m0 0h-2-2-2-2-2-2-2-2-2-2-2c-.552 0-1-.448-1-1 0-.552.448-1 1-1h2v-2h2v2h2v-2h2v2h2v-2h2v2h2v-2h2v2h2v-2h2v2h2c.553 0 1 .448 1 1 0 .552-.447 1-1 1" transform="translate(36 32)"/><path d="m0 0c0-.552-.447-1-1-1h-22c-.552 0-1 .448-1 1 0 .552.448 1 1 1h22c.553 0 1-.448 1-1" transform="translate(37 27)"/></g><path d="m0 0h-10-8c0 0 .041 2-2.979 2h-5.875c-5.146 0-5.146-7.959-5.146-7.959v-7.04c0-2.209 1.791-4 4-4h28c2.209 0 4 1.791 4 4v9c0 2.209-1.791 4-4 4" fill="#dd2e44" transform="translate(33 26)"/><path d="m35 18h-32v-3h32v3" fill="#f5f8fa"/><path d="m0 0c0-2.209-1.791-4-4-4-2.209 0-4 1.791-4 4 0 2.209 1.791 4 4 4 2.209 0 4-1.791 4-4" transform="translate(12 9)" id="1"/><path d="m0 0c0-1.104-.896-2-2-2-1.104 0-2 .896-2 2 0 1.104.896 2 2 2 1.104 0 2-.896 2-2" fill="#8899a6" transform="translate(10 9)" id="2"/><use transform="translate(21)" xlink:href="#1"/><use transform="translate(21)" xlink:href="#2"/><g fill="#55acee"><path d="m0 0h-5c0 0 0 6 3 6h2v-6" transform="translate(8 20)"/><path d="m0 0h-3v6h1c1 0 2-1 2-2v-4" transform="translate(13 20)"/></g><path d="m0 0c0-.552-.448-1-1-1h-2c-.552 0-1 .448-1 1 0 .552.448 1 1 1h2c.552 0 1-.448 1-1" fill="#ffac33" transform="translate(9 29)"/><path d="m0 0c0-.552-.448-1-1-1h-2c-.552 0-1 .448-1 1 0 .552.448 1 1 1h2c.552 0 1-.448 1-1" fill="#3b88c3" transform="translate(11 29)"/></g></g></svg>