<svg xmlns="http://www.w3.org/2000/svg" viewBox="0 0 47.5 47.5" enable-background="new 0 0 47.5 47.5"><defs><clipPath id="0"><path d="m0 38h38v-38h-38v38"/></clipPath></defs><g transform="matrix(1.25 0 0-1.25 0 47.5)"><g clip-path="url(#0)"><g fill="#292f33"><path d="m0 0h-26c-2.209 0-4-1.791-4-4v-6-16-6c0-2.209 1.791-4 4-4h26c2.209 0 4 1.791 4 4v6 16 6c0 2.209-1.791 4-4 4" transform="translate(32 37)"/><path d="m0 0c0-2.209-1.791-4-4-4h-1c-2.209 0-4 1.791-4 4v2c0 2.209 1.791 4 4 4h1c2.209 0 4-1.791 4-4v-2" transform="translate(15 26)"/></g><g fill="#be1931"><path d="m0 0c0-1.104-.896-2-2-2h-15c-1.104 0-2 .896-2 2v8c0 1.104.896 2 2 2h15c1.104 0 2-.896 2-2v-8" transform="translate(23 10)"/><path d="m0 0c0 1.104-.896 2-2 2h-5c-1.104 0-2-.896-2-2v-8c0-1.104.896-2 2-2h5c1.104 0 2 .896 2 2v8" transform="translate(34 18)"/><path d="m0 0c0 1.104.896 2 2 2h13c1.104 0 2-.896 2-2v-9c0-1.104-.896-2-2-2h-13c-1.104 0-2 .896-2 2v9" transform="translate(17 33)"/><path d="m0 0c0-1.104-.896-2-2-2h-7c-1.104 0-2 .896-2 2v9c0 1.104.896 2 2 2h7c1.104 0 2-.896 2-2v-9" transform="translate(15 24)"/></g><g fill="#dd2e44"><path d="m0 0c0-1.104-.896-2-2-2h-7c-1.104 0-2 .896-2 2v6c0 1.104.896 2 2 2h7c1.104 0 2-.896 2-2v-6" transform="translate(15 24)"/><path d="m0 0c0-1.104-.896-2-2-2h-13c-1.104 0-2 .896-2 2v6c0 1.104.896 2 2 2h13c1.104 0 2-.896 2-2v-6" transform="translate(34 24)"/></g><path d="m0 0c0-1.104-.896-2-2-2h-15c-1.104 0-2 .896-2 2v5c0 1.104.896 2 2 2h15c1.104 0 2-.896 2-2v-5" fill="#e1e8ed" transform="translate(23 10)"/><path d="m0 0c0-1.104-.896-2-2-2h-5c-1.104 0-2 .896-2 2v5c0 1.104.896 2 2 2h5c1.104 0 2-.896 2-2v-5" fill="#dd2e44" transform="translate(34 10)"/><path d="m0 0c1.315-1.478 1.908-3.098 1.322-3.619l-1.058-.941c-.585-.522-2.126.255-3.441 1.733l-3.571 4.01c-1.314 1.479-1.907 3.099-1.321 3.62l1.059.941c.586.521 2.124-.255 3.439-1.733l3.571-4.01" fill="#ffac33" transform="translate(28.01 27.76)"/><g fill="#ffd983"><path d="m0 0c-.598-1.539-1.477-2.633-1.961-2.444l-.877.341c-.485.188-.392 1.589.205 3.126l1.625 4.178c.599 1.538 1.477 2.632 1.962 2.444l.876-.341c.485-.189.394-1.589-.205-3.127l-1.625-4.177" transform="translate(23.28 25.924)"/><path d="m0 0c-1.562-.535-2.965-.568-3.133-.076l-.305.891c-.168.492.962 1.324 2.523 1.858l4.242 1.45c1.562.533 2.964.567 3.133.074l.304-.889c.169-.493-.961-1.325-2.523-1.858l-4.241-1.45" transform="translate(24.11 25.464)"/></g><g fill="#5c913b"><path d="m0 0c.373 4.106 4.907.961 7.135-1.049-1.34-1.485-7.587-3.93-7.135 1.049" transform="translate(7.442 29.13)"/><path d="m0 0c3.739 1.737 3.293-3.763 2.672-6.698-1.956.414-7.206 4.59-2.672 6.698" transform="translate(7.585 29.22)"/></g><path d="m0 0c-1.2 1.6 1 5 6 5 1-1-3-9-6-5" fill="#77b255" transform="translate(6 29)"/><g fill="#b2c2cc"><path d="m0 0c-.256 0-.512.098-.707.293-.391.391-.391 1.023 0 1.414l1 1c.391.391 1.023.391 1.414 0 .391-.391.391-1.023 0-1.414l-1-1c-.195-.195-.451-.293-.707-.293" transform="translate(7 10)"/><path d="m0 0c-.256 0-.512.098-.707.293l-1 1c-.39.391-.39 1.023 0 1.414.391.391 1.024.391 1.415 0l1-1c.391-.391.391-1.023 0-1.414-.195-.195-.451-.293-.707-.293" transform="translate(19.417 9.501)"/><path d="m0 0c-.255 0-.511.098-.707.292l-.459.458c-.39.391-.391 1.023-.001 1.414.389.392 1.023.392 1.415.002l.459-.458c.39-.391.391-1.023.001-1.414-.195-.196-.452-.294-.708-.294" transform="translate(13.251 13.792)"/></g><path d="m0 0c.707-.848.592-2.109-.257-2.816l-2.305-1.921c-.847-.707-2.109-.592-2.816.257l-1.921 2.304c-.707.848-.592 2.11.257 2.817l2.305 1.921c.847.707 2.109.591 2.816-.257l1.921-2.305" fill="#b26304" transform="translate(33.15 13.588)"/><path d="m0 0c.707-.848.592-2.109-.257-2.816l-2.305-1.921c-.847-.707-2.109-.592-2.816.257l-1.921 2.304c-.707.848-.592 2.11.257 2.817l2.305 1.921c.847.707 2.109.591 2.816-.257l1.921-2.305" fill="#f4900c" transform="translate(33.15 15.588)"/><g fill="#ccd6dd"><path d="m0 0c0-.553-.448-1-1-1-.552 0-1 .447-1 1 0 .553.448 1 1 1 .552 0 1-.447 1-1" transform="translate(14 11)"/><path d="m0 0c0-.553-.447-1-1-1-.553 0-1 .447-1 1 0 .553.447 1 1 1 .553 0 1-.447 1-1" transform="translate(22 15)"/></g></g></g></svg>