<svg xmlns="http://www.w3.org/2000/svg" viewBox="0 0 47.5 47.5" enable-background="new 0 0 47.5 47.5"><defs><clipPath id="0"><path d="m0 38h38v-38h-38v38"/></clipPath></defs><g transform="matrix(1.25 0 0-1.25 0 47.5)"><g clip-path="url(#0)"><g fill="#ffac33"><path d="m0 0c-.097.18-.25.302-.417.391-1.597 1.706-.463 3.707-.463 3.707 0 .552 1 2 0 2l-1-1c-1-1-1-4-1-4h-2c-.553 0-1-.448-1-1 0-.553.447-1 1-1h1.108l-.222-.12c-.486-.263-.667-.87-.404-1.356.262-.486.869-.667 1.355-.404l2.639 1.427c.486.262.667.869.404 1.355" transform="translate(18.38 3.902)"/><path d="m0 0h-2c0 0 0 3-1 4l-1 1c-1 0 0-1.447 0-2 0 0 1.135-2-.462-3.707-.168-.089-.32-.211-.418-.391-.263-.486-.082-1.092.404-1.355l2.639-1.427c.486-.263 1.093-.082 1.356.404.262.487.082 1.093-.405 1.356l-.221.12h1.107c.553 0 1 .447 1 1 0 .553-.447 1-1 1" transform="translate(24.5 5)"/></g><path d="m0 0c-1 2-3 5-4 10h-.008c.001.052.008.102.008.154 0 5.944-4.324 10.865-9.996 11.82 1.189.259 2.031.508.996 1.026-1.115.558-2.23-.129-2.999-.846h-.002c-.769.717-1.883 1.404-2.999.846-1.035-.518-.193-.767.996-1.026-5.671-.955-9.996-5.876-9.996-11.82 0-.052.007-.102.008-.154h-.008c-1-5-3-8-4-10-.447-.895 0-3 2-2 1.191.596 2.377 1.912 3.357 3.715 1.545-4.654 4.709-8.715 10.643-8.715 5.934 0 9.1 4.061 10.643 8.715.98-1.803 2.166-3.119 3.357-3.715 2-1 2.447 1.105 2 2" fill="#ffcc4d" transform="translate(35 13)"/><path d="m0 0c0-1.657-1.343-2-3-2-1.657 0-3 .343-3 2 0 1.657 1.343 3 3 3 1.657 0 3-1.343 3-3" fill="#f4900c" transform="translate(22 23)"/><g fill="#662113"><path d="m0 0c0-.829-.671-1.5-1.5-1.5-.829 0-1.5.671-1.5 1.5 0 .829.671 1.5 1.5 1.5.829 0 1.5-.671 1.5-1.5" transform="translate(14 25.5)"/><path d="m0 0c0-.829-.672-1.5-1.5-1.5-.828 0-1.5.671-1.5 1.5 0 .829.672 1.5 1.5 1.5.828 0 1.5-.671 1.5-1.5" transform="translate(27 25.5)"/></g></g></g></svg>