<svg xmlns="http://www.w3.org/2000/svg" viewBox="0 0 47.5 47.5" enable-background="new 0 0 47.5 47.5"><defs><clipPath id="0"><path d="m0 38h38v-38h-38v38"/></clipPath></defs><g transform="matrix(1.25 0 0-1.25 0 47.5)"><g clip-path="url(#0)"><path d="m0 0h36v25c0 0-6 10-9 10-3 0-9.999-9-11.999-11-2-2-4.5-.5-6 1-1.5 1.5-3 3-4 3-1 0-5-7-5-7v-21" fill="#77b255" transform="translate(1 1)"/><path d="m0 0c0 0-3-2-3-3 0-1 4-4 5-5 1-1 3-1 2 1-1 2-4 7-4 7" fill="#ad846f" transform="translate(20 21)"/><path d="m0 0c0 0 1.173-.789 1.962.385.789 1.174 1.365-1.771 1.365-1.771 0 0-2.558-2.539-4.521-2.924-1.963-.384-1.174.789-.385 1.962.79 1.174 1.579 2.348 1.579 2.348" fill="#269" transform="translate(21.634 13.98)"/><g fill="#292f33"><path d="m0 0c-2.761 0-5 2.238-5 5 0 2.762 2.239 5 5 5 2.761 0 5-2.238 5-5 0-2.762-2.239-5-5-5m0 12c-3.866 0-7-3.134-7-7 0-3.866 3.134-7 7-7 3.866 0 7 3.134 7 7 0 3.866-3.134 7-7 7" transform="translate(8 3)"/><path d="m0 0c-2.761 0-5 2.238-5 5 0 2.762 2.239 5 5 5 2.762 0 5-2.238 5-5 0-2.762-2.238-5-5-5m0 12c-3.865 0-7-3.134-7-7 0-3.866 3.135-7 7-7 3.867 0 7 3.134 7 7 0 3.866-3.133 7-7 7" transform="translate(30 3)"/></g><g fill="#be1931"><path d="m0 0c0 .553-.484 1-1.083 1h-10.834c-.598 0-1.083-.447-1.083-1 0-.553.485-1 1.083-1h10.834c.599 0 1.083.447 1.083 1" transform="translate(23 17)"/><path d="m0 0c0 .553-.447 1-1 1h-11c-.552 0-1-.447-1-1 0-.553.448-1 1-1h11c.553 0 1 .447 1 1" transform="translate(31 8)"/><path d="m0 0l-4.166-11.664c-.185-.52.086-1.092.606-1.277.111-.04.225-.059.336-.059.411 0 .796.255.942.664l4.406 12.336h-2.124" transform="translate(22.22 20)"/><path d="m0 0c-.33 0-.654.164-.845.463l-7 10.999c-.297.467-.159 1.085.307 1.381.467.297 1.084.159 1.381-.306l7-11c.297-.466.159-1.084-.307-1.381-.167-.105-.352-.156-.536-.156" transform="translate(30 7)"/><path d="m0 0l-8.387 6.523c-.435.341-1.063.262-1.403-.174-.339-.437-.26-1.065.176-1.404l9-7c.182-.142.398-.211.613-.211h.001v2.266" transform="translate(20 11.266)"/><path d="m0 0c-.104 0-.211.017-.316.052-.524.174-.808.74-.633 1.264l2.772 8.317-3.423 2.568c-.442.331-.531.958-.2 1.4.331.44.957.531 1.4.199l4.577-3.433-3.228-9.683c-.14-.419-.53-.684-.949-.684" transform="translate(8 7)"/></g><g fill="#292f33"><path d="m0 0c-.03 0-.059.002-.089.006l-5.672.708c-.372.047-.643.374-.62.748.024.374.333.664.707.665.041 0 4.068.018 5.989 1.299.25.168.582.157.825-.026.239-.185.337-.501.241-.788l-.709-2.127c-.097-.293-.37-.485-.672-.485" transform="translate(27.383 18)"/><path d="m0 0h-5c-.552 0-1 .448-1 1 0 .552.448 1 1 1h5c.552 0 1-.448 1-1 0-.552-.448-1-1-1" transform="translate(12 19)"/></g><path d="m0 0l-3.999-3 3-3 .999 6" fill="#dd2e44" transform="translate(22.999 24)"/><path d="m0 0c0 0-2-3-2-4 0-1 1-4 1-7 0-3 2-3 2-2 0 1 1.581 5.418 0 7-1 1 2 4 2 4l-3 2" fill="#d99e82" transform="translate(20.999 20)"/><path d="m0 0l-3-4 4-3c0 0 5 5 5 7 0 2-3 3-3 3l-3-3" fill="#ffac33" transform="translate(22.999 24)"/><path d="m0 0c-1-1 0-2 0-3 0-1 2 0 2 0 0 0 1 1 2-1 1-2 4-1 3 1-1 2-4 1-4 3 0 2-3 0-3 0" fill="#d99e82" transform="translate(11 32)"/><path d="m0 0c0-1 0-4-1-4-1 0-1 1-2 2-1 1 3 2 3 2" fill="#b39155" transform="translate(16 34)"/><path d="m0 0c0-2-3-5-4-5-1 0-2 0-2-1 0-1 0-1 2-1 2 0 4 2 5 3 1 1 2 3 2 4 0 1 1 1 2 0 1-1 2-2 3-2 1 0 6 4 6 4-3 1-4.103 2.368-6 3-3 1-5.586.414-7-1-1-1-1-2-1-4" fill="#744eaa" transform="translate(14 25)"/><path d="m0 0l-2.744.784c-.446-1.956-3.01-4.45-3.926-4.45-1 0-2 0-2-1 0-1 0-1 2-1 2 0 4 2 5 3 .649.65 1.295 1.72 1.67 2.666" fill="#d99e82" transform="translate(16.67 23.666)"/><path d="m0 0c0 0 1-1 2 0 1 1 1-2 1-2 0 0-3-2-5-2-2 0-1 1 0 2l2 2" fill="#3b88c3" transform="translate(20 8)"/><path d="m0 0c2 1 6 0 4-2-1-1-7-2-7-2 0 1 1 3 3 4" fill="#744eaa" transform="translate(12 35)"/></g></g></svg>