<svg xmlns="http://www.w3.org/2000/svg" viewBox="0 0 47.5 47.5" enable-background="new 0 0 47.5 47.5"><defs><clipPath id="0"><path d="m0 38h38v-38h-38v38"/></clipPath></defs><g transform="matrix(1.25 0 0-1.25 0 47.5)"><g clip-path="url(#0)" fill="#be1931"><path d="m0 0l-1.625 3.1 1.55.812c2.393 1.255 4.982 2.778 5.413 4.982.335 1.714-.611 3.903-2.812 6.505l-1.13 1.336 2.672 2.261 1.131-1.337c2.961-3.502 4.131-6.589 3.574-9.437-.789-4.04-4.975-6.231-7.223-7.41l-1.55-.812" transform="translate(3.638 13.179)"/><path d="m0 0l-.812 1.55c-1.255 2.393-2.778 4.982-4.982 5.413-1.713.336-3.903-.611-6.506-2.812l-1.336-1.13-2.26 2.672 1.336 1.13c3.502 2.962 6.585 4.134 9.437 3.574 4.04-.788 6.231-4.973 7.41-7.222l.813-1.55-3.1-1.625" transform="translate(21.93 2.053)"/><path d="m0 0l-1.13 1.336c-2.962 3.502-4.131 6.589-3.574 9.437.788 4.04 4.974 6.231 7.223 7.41l1.549.812 1.625-3.099-1.549-.813c-2.394-1.255-4.983-2.778-5.414-4.981-.334-1.715.612-3.904 2.812-6.506l1.13-1.336-2.672-2.26" transform="translate(30.461 6.075)"/><path d="m0 0c-.471 0-.935.045-1.393.134-4.04.789-6.231 4.975-7.41 7.223l-.812 1.55 3.099 1.625.813-1.55c1.255-2.393 2.778-4.982 4.981-5.413 1.711-.334 3.903.611 6.506 2.812l1.336 1.13 2.26-2.672-1.336-1.131c-2.939-2.485-5.586-3.708-8.04-3.708" transform="translate(22.753 25.663)"/></g></g></svg>