<svg xmlns="http://www.w3.org/2000/svg" viewBox="0 0 47.5 47.5" enable-background="new 0 0 47.5 47.5"><defs><clipPath id="0"><path d="m0 38h38v-38h-38v38"/></clipPath></defs><g transform="matrix(1.25 0 0-1.25 0 47.5)"><g clip-path="url(#0)" fill="#292f33"><path d="m0 0c-.256 0-.512.098-.707.293-.391.391-.391 1.023 0 1.414l16.02 16.02c.391.391 1.023.391 1.414 0 .391-.39.391-1.024 0-1.414l-16.02-16.02c-.195-.195-.451-.293-.707-.293" transform="translate(8.5 12.484)"/><path d="m0 0c-.219 0-.438.071-.623.218-.431.344-.502.971-.161 1.403.113.144 2.572 3.361.971 7.571-.196.517.063 1.094.58 1.29.517.196 1.093-.063 1.29-.579 2.02-5.307-1.139-9.357-1.275-9.527-.197-.247-.488-.376-.782-.376" transform="translate(16.782 24.22)"/><path d="m0 0c-.221 0-.441.072-.626.221-.429.345-.499.969-.156 1.4.137.172 3.434 4.196 9.323 2.725.536-.134.862-.677.728-1.213-.134-.534-.679-.861-1.212-.727-4.623 1.157-7.172-1.905-7.279-2.036-.197-.244-.487-.37-.778-.37" transform="translate(20.672 20.335)"/><path d="m0 0c-1.096 0-2.301.186-3.58.671-.516.196-.775.774-.579 1.29.195.517.775.775 1.289.58 4.22-1.604 7.439.866 7.574.972.434.338 1.063.266 1.403-.166.342-.432.271-1.058-.159-1.401-.129-.103-2.494-1.946-5.948-1.946" transform="translate(7.454 18.489)"/><path d="m0 0c-1.829 0-4.968.482-7.542 3.332-.37.41-.337 1.042.073 1.412.41.371 1.043.337 1.412-.072 3.02-3.348 7.01-2.619 7.184-2.587.539.105 1.067-.246 1.174-.787.107-.54-.241-1.064-.781-1.173-.069-.015-.645-.125-1.52-.125" transform="translate(9.02 26.555)"/><path d="m0 0c-.066 0-.132.006-.199.02-.541.109-.89.635-.783 1.175.034.173.76 4.162-2.587 7.184-.41.371-.442 1-.072 1.413.37.409 1 .443 1.413.072 4.214-3.806 3.25-8.849 3.207-9.06-.096-.475-.513-.802-.979-.802" transform="translate(10.341 26.659)"/><path d="m0 0c-.448 0-.855.303-.969.758-1.473 5.895 2.553 9.185 2.726 9.323.431.344 1.06.273 1.405-.159.343-.431.274-1.058-.156-1.402-.14-.115-3.187-2.667-2.035-7.278.134-.535-.192-1.078-.727-1.212-.082-.02-.163-.03-.244-.03" transform="translate(14.289 8.03)"/><path d="m0 0c-2.96 2.959-6.095 3.569-8.915 2.069-.157 1.873-1.166 4.01-2.521 5.363-1.488 1.487-3.01 1.653-4.405 1.044 1.058 2.464.6 5.43-.826 6.856-1.842 1.842-4.594.411-7.174-2.169-2.58-2.58-4.01-5.33-2.168-7.174 1.426-1.426 4.391-1.883 6.857-.825-.61-1.397-.445-2.918 1.043-4.405 1.355-1.355 3.489-2.363 5.363-2.521-1.5-2.82-.891-5.954 2.069-8.915 3.75-3.749 12.204-5.527 14.204-3.527 2 2 .223 10.455-3.527 14.204" transform="translate(30.844 17.833)"/></g></g></svg>