<svg xmlns="http://www.w3.org/2000/svg" viewBox="0 0 47.5 47.5" enable-background="new 0 0 47.5 47.5"><defs><clipPath id="0"><path d="m0 38h38v-38h-38v38"/></clipPath></defs><g transform="matrix(1.25 0 0-1.25 0 47.5)"><g clip-path="url(#0)"><path d="m0 0c0-2.209-1.791-4-4-4h-28c-2.209 0-4 1.791-4 4v28c0 2.209 1.791 4 4 4h28c2.209 0 4-1.791 4-4v-28" fill="#269" transform="translate(37 5)"/><g fill="#f5f8fa"><path d="m0 0h-1v-13h1c1.104 0 2 .896 2 2v9c0 1.104-.896 2-2 2" transform="translate(27 20)"/><path d="m0 0c-1.104 0-2-.896-2-2v-9c0-1.104.896-2 2-2h1v13h-1" transform="translate(11 20)"/><path d="m0 0c0 .553.448 1 1 1h2c.553 0 1-.447 1-1v-1h-4v1m6-1v2c0 1.104-.896 2-2 2h-4c-1.104 0-2-.896-2-2v-2h-1v-13h10v13h-1z" transform="translate(17 21)"/><path d="m0 0c0-.553-.447-1-1-1h-26c-.552 0-1 .447-1 1v18c0 .553.448 1 1 1h26c.553 0 1-.447 1-1v-18m0 21h-28c-1.104 0-2-.896-2-2v-20c0-1.104.896-2 2-2h28c1.104 0 2 .896 2 2v20c0 1.104-.896 2-2 2" transform="translate(33 6)"/><path d="m0 0c-.829 0-1.5.671-1.5 1.5 0 .829.671 1.5 1.5 1.5.829 0 1.5-.671 1.5-1.5 0-.829-.671-1.5-1.5-1.5m10.5 3h-6.35c-.563 1.179-1.756 2-3.15 2-1.933 0-3.5-1.567-3.5-3.5 0-1.933 1.567-3.5 3.5-3.5 1.762 0 3.205 1.306 3.45 3h1.719c.247-.926.747-2 1.331-2 .584 0 1.084 1.074 1.331 2h.669c0-1.104.448-2 1-2 .552 0 1 1 1 3 0 1.104-.448 1-1 1" transform="translate(14.5 30)"/></g></g></g></svg>