<svg xmlns="http://www.w3.org/2000/svg" viewBox="0 0 47.5 47.5" enable-background="new 0 0 47.5 47.5"><defs><clipPath id="0"><path d="m0 38h38v-38h-38v38"/></clipPath></defs><g transform="matrix(1.25 0 0-1.25 0 47.5)"><g clip-path="url(#0)"><path d="m0 0c-3-11-5.02-14-13-14-8 0-10 3-13 14-2.035 7.46 2 14 13 14 11 0 15.03-6.54 13-14" fill="#f4900c" transform="translate(32 15)"/><path d="m0 0c2-4-3-8-11-8-8 0-13 4-11 8 1.482 2.964 4.373 6 11 6 6.627 0 9.519-3.036 11-6" fill="#be1931" transform="translate(30 26)"/><path d="m0 0c0-4-5.373-6-12-6-6.627 0-12 2-12 6 0 3.313 5.373 6 12 6 6.627 0 12-2.687 12-6" fill="#ffac33" transform="translate(31 26)"/><path d="m0 0c1-1 2-2 2-3 0-1-1-3-2-2 0 0 2.948-1.154 2-4-1-3-4-2-4 0 0 2-1.553 3.342-2 2-1-3-3-3-4-2-1 1-1 2-1 2 0 0-3 0-2 2 1 2 0 2 0 2 0 0 0 1 1 1 1 0 7 1 8 2 1 1 2 0 2 0" fill="#ffe8b6" transform="translate(28 27)"/><path d="m0 0c0-2.608-4.477-4.722-10-4.722-5.523 0-10 2.114-10 4.722 0 2.608 4.477 4.278 10 4.278 5.523 0 10-1.67 10-4.278" fill="#662113" transform="translate(29 27.722)"/><path d="m0 0c4.548 0 8.379 1.435 9.593 3.396-.193.202-.392.403-.593.604 0 0-2 2-3 1-1-1-6-1-7-1-1 0-2-1-2-1 0 0 1.587-2.01 1.397-2.934.523-.04 1.056-.066 1.603-.066" fill="#f4900c" transform="translate(19 23)"/><path d="m0 0c0-1.933-3.582-3.5-8-3.5-4.418 0-8 1.567-8 3.5 0 1.933 3.582 5.5 8 5.5 4.418 0 8-3.567 8-5.5" fill="#ffcc4d" transform="translate(27 28.5)"/><path d="m0 0c0-.828-.896-1.5-2-1.5-1.104 0-2 .672-2 1.5 0 .828.896 1.5 2 1.5 1.104 0 2-.672 2-1.5" fill="#f4900c" transform="translate(21 34.5)"/><path d="m0 0c.725-2.457 1.425-4.436 2.204-6.01 3.111-2.577 8.111-2.577 10.111-2.577 2 0 7 0 10.11 2.576.781 1.577 1.483 3.556 2.208 6.01-2.705-1.562-7.202-2.59-12.314-2.59-5.112 0-9.61 1.028-12.315 2.59" fill="#ffcc4d" transform="translate(6.685 12.59)"/></g></g></svg>