<svg xmlns="http://www.w3.org/2000/svg" viewBox="0 0 47.5 47.5" enable-background="new 0 0 47.5 47.5"><defs><clipPath id="0"><path d="m0 38h38v-38h-38v38"/></clipPath></defs><g transform="matrix(1.25 0 0-1.25 0 47.5)"><g clip-path="url(#0)"><path d="m0 0c0-5.522-8.06-10-18-10-9.941 0-18 4.478-18 10 0 5.522 8.06 10 18 10 9.941 0 18-4.478 18-10" fill="#292f33" transform="translate(37 11)"/><path d="m0 0c0-5.522-8.06-10-18-10-9.941 0-18 4.478-18 10 0 5.522 8.06 10 18 10 9.941 0 18-4.478 18-10" fill="#66757f" transform="translate(37 13)"/><path d="m0 0c-14.958 0-17 15-17 19h34c0-2-1.958-19-17-19" fill="#e1e8ed" transform="translate(19 6)"/><path d="m0 0c0-5.216-7.611-9.444-17-9.444-9.389 0-17 4.228-17 9.444 0 5.216 7.611 8.444 17 8.444 9.389 0 17-3.228 17-8.444" fill="#77b255" transform="translate(36 24.944)"/></g><g clip-path="url(#0)"><path d="m0 0c0-3.866-6.716-7-15-7-8.284 0-15 3.134-15 7 0 3.866 6.716 7 15 7 8.284 0 15-3.134 15-7" fill="#a6d388" transform="translate(34 24)"/></g></g></svg>