<svg xmlns="http://www.w3.org/2000/svg" viewBox="0 0 47.5 47.5" enable-background="new 0 0 47.5 47.5" xmlns:xlink="http://www.w3.org/1999/xlink"><defs><clipPath id="0"><path d="m0 38h38v-38h-38v38"/></clipPath></defs><g transform="matrix(1.25 0 0-1.25 0 47.5)"><g clip-path="url(#0)"><path d="m0 0h36v25c0 0-6 10-9 10-3 0-9.999-9-11.999-11-2-2-4.5-.5-6 1-1.5 1.5-3 3-4 3-1 0-5-7-5-7v-21" fill="#d1d3d4" transform="translate(1 2)"/><path d="m37 1h-36v2h36v-2" fill="#939598"/><path d="m0 0c0 1.657-1.343 3-3 3-1.657 0-3-1.343-3-3 0-1.657 1.343-3 3-3 1.657 0 3 1.343 3 3" fill="#58595b" transform="translate(15 5)"/><path d="m0 0c0 1.105-.896 2-2 2-1.104 0-2-.895-2-2 0-1.105.896-2 2-2 1.104 0 2 .895 2 2" fill="#292f33" transform="translate(14 5)"/><path d="m0 0c0 1.657-1.344 3-3 3-1.657 0-3-1.343-3-3 0-1.657 1.343-3 3-3 1.656 0 3 1.343 3 3" fill="#58595b" transform="translate(23 5)"/><path d="m0 0c0 1.105-.896 2-2 2-1.105 0-2-.895-2-2 0-1.105.895-2 2-2 1.104 0 2 .895 2 2" fill="#292f33" transform="translate(22 5)"/><path d="m0 0h-29c-2.209 0-4-1.791-4-4v-10c0-2.209 1.791-4 4-4h29v18" fill="#ffe8b6" transform="translate(37 23)"/><path d="m0 0h-29c-1.477 0-2.752-.81-3.445-2h32.445v2" fill="#77b255" transform="translate(37 23)"/><path d="m0 0h-33c0-2.209 1.791-4 4-4h29v4" fill="#5c913b" transform="translate(37 9)"/><path d="m37 11h-33v-2h33v2" fill="#ffac33"/><path d="m10 13h-6v5h6v-5" fill="#55acee"/><path d="m0 0c0-.553-.447-1-1-1h-2c-.552 0-1 .447-1 1v2c0 .553.448 1 1 1h2c.553 0 1-.447 1-1v-2" fill="#55acee" transform="translate(16 15)" id="1"/><use transform="translate(5)" xlink:href="#1"/><path d="m0 0c0-.553-.447-1-1-1h-2c-.553 0-1 .447-1 1v2c0 .553.447 1 1 1h2c.553 0 1-.447 1-1v-2" fill="#55acee" transform="translate(28 15)" id="2"/><use transform="translate(7)" xlink:href="#2"/><path d="m0 0c-.275 0-.5-.224-.5-.5v-10c0-.275.225-.5.5-.5h5c.275 0 .5.225.5.5v10c0 .276-.225.5-.5.5h-5m5-12h-5c-.827 0-1.5.673-1.5 1.5v10c0 .827.673 1.5 1.5 1.5h5c.827 0 1.5-.673 1.5-1.5v-10c0-.827-.673-1.5-1.5-1.5" fill="#66757f" transform="translate(23.5 19)"/></g></g></svg>