<svg xmlns="http://www.w3.org/2000/svg" viewBox="0 0 47.5 47.5" enable-background="new 0 0 47.5 47.5"><defs><clipPath id="0"><path d="m0 38h38v-38h-38v38"/></clipPath></defs><g transform="matrix(1.25 0 0-1.25 0 47.5)"><g clip-path="url(#0)"><path d="m0 0c0-9.389-7.611-17-17-17-9.389 0-17 7.611-17 17 0 9.389 7.611 17 17 17 9.389 0 17-7.611 17-17" fill="#ffcc4d" transform="translate(36 19)"/><g fill="#664500"><path d="m0 0c0-2.763-1.791-3-4-3-2.21 0-4 .237-4 3 0 2.761 1.79 6 4 6 2.209 0 4-3.239 4-6" transform="translate(23 10)"/><path d="m0 0c-.124 0-.25.023-.371.072-5.229 2.091-7.372 5.24-7.461 5.374-.307.459-.183 1.08.277 1.387.459.306 1.078.183 1.385-.274.019-.028 1.93-2.786 6.541-4.63.513-.205.763-.787.558-1.3-.156-.391-.533-.629-.929-.629" transform="translate(31 22)"/><path d="m0 0c-.397 0-.772.238-.929.629-.205.513.044 1.095.557 1.3 4.612 1.844 6.523 4.602 6.542 4.63.308.456.929.577 1.387.27.456-.308.58-.925.275-1.383-.089-.134-2.233-3.283-7.461-5.374-.122-.049-.247-.072-.371-.072" transform="translate(7 22)"/></g><path d="m0 0l4 .046v18.953h-4v-18.999m16 19h4v-19l-4 .046v18.954" fill="#5dadec" transform="translate(9 2)"/><g fill="#664500"><path d="m0 0c-.15 0-.303.034-.446.105-3.512 1.757-7.07.019-7.106 0-.495-.248-1.094-.046-1.342.448-.247.494-.046 1.095.448 1.342.182.089 4.498 2.196 8.894 0 .494-.247.695-.848.448-1.342-.176-.351-.529-.553-.896-.553" transform="translate(15.999 19)"/><path d="m0 0c-.15 0-.303.034-.446.105-3.513 1.756-7.07.019-7.106 0-.494-.247-1.094-.047-1.342.448-.247.494-.046 1.095.448 1.342.181.089 4.501 2.196 8.894 0 .494-.247.695-.848.447-1.342-.175-.351-.528-.553-.895-.553" transform="translate(29.999 19)"/></g><path d="m0 0c0-1.104-8.06-2-18-2-9.941 0-18 .896-18 2 0 1.104 8.06 2 18 2 9.941 0 18-.896 18-2" fill="#5dadec" transform="translate(37 3)"/><path d="m0 0c0-1.657-1.343-2-3-2-1.657 0-3 .343-3 2 0 1.657 1.343 2 3 2 1.657 0 3-.343 3-2" fill="#e75a70" transform="translate(22 10)"/></g></g></svg>