<svg xmlns="http://www.w3.org/2000/svg" viewBox="0 0 47.5 47.5" enable-background="new 0 0 47.5 47.5"><g transform="matrix(1.25 0 0-1.25 0 47.5)"><g fill="#3b88c3"><path d="m0 0h-10.182v-4.568l-6.181-29.11 7.727-2.318 6.409 23.18 2.227 12.818" transform="translate(21.18 37)"/><path d="m0 0h10.182v-4.568l6.181-29.11-7.727-2.318-6.409 23.18-2.227 12.818" transform="translate(16.818 37)"/></g><g fill="#269"><path d="m27 33h-16v2h16v-2"/><path d="m0 0h-2l-4 2h10l-4-2" transform="translate(20 25)"/><path d="m13 34h2v3h-2v-3"/><path d="m23 34h2v3h-2v-3"/><path d="m17 26h2v7h-2v-7"/></g></g></svg>