<svg xmlns="http://www.w3.org/2000/svg" viewBox="0 0 47.5 47.5" enable-background="new 0 0 47.5 47.5"><path d="m0 0h-6l-7-9h10l3 9" fill="#bdddf4" transform="matrix(1.25 0 0-1.25 17.5 5)"/><path d="m0 0l-7 9h-6l3-9h10" fill="#5dadec" transform="matrix(1.25 0 0-1.25 46.25 16.25)"/><path d="m0 0h10l-18-21 8 21" fill="#4289c1" transform="matrix(1.25 0 0-1.25 33.75 16.25)"/><g fill="#8ccaf7"><path d="m0 0h-10l18-21-8 21" transform="matrix(1.25 0 0-1.25 13.75 16.25)"/><path d="m0 0l-3-9h16l-3 9h-10" transform="matrix(1.25 0 0-1.25 17.5 5)"/></g><path d="m0 0l-8 21h16l-8-21" fill="#5dadec" transform="matrix(1.25 0 0-1.25 23.75 42.5)"/></svg>