<svg xmlns="http://www.w3.org/2000/svg" viewBox="0 0 47.5 47.5" enable-background="new 0 0 47.5 47.5"><defs><clipPath id="0"><path d="m0 38h38v-38h-38v38"/></clipPath></defs><g transform="matrix(1.25 0 0-1.25 0 47.5)"><g clip-path="url(#0)"><path d="m0 0c-14.958 0-17 14-17 18h34c0-2-1.958-18-17-18" fill="#ccd6dd" transform="translate(19 1)"/><path d="m0 0c0-5.216-7.611-9.444-17-9.444-9.389 0-17 4.228-17 9.444 0 5.216 7.611 8.444 17 8.444 9.389 0 17-3.228 17-8.444" fill="#99aab5" transform="translate(36 19.944)"/><g fill="#ea596e"><path d="m0 0h-2.5c-.276 0-.5.224-.5.5 0 .276.224.5.5.5h2v3h-4v-1h3c.276 0 .5-.224.5-.5 0-.276-.224-.5-.5-.5h-3.5c-.276 0-.5.224-.5.5v2c0 .276.224.5.5.5h5c.276 0 .5-.224.5-.5v-4c0-.276-.224-.5-.5-.5" transform="translate(20.5 4)"/><path d="m0 0c-.198 0-.386.119-.464.314-.102.256.022.547.278.65l2.176.871-.065 2.249-3.925-.975v-.949c.734.206 1.958.553 2.858.819.262.077.543-.072.621-.337.079-.265-.073-.543-.337-.621-1.378-.408-3.507-1-3.507-1-.155-.042-.313-.011-.438.083-.124.094-.197.242-.197.398v2c0 .229.156.43.38.485l4.906 1.219c.144.036.303.004.422-.087.121-.092.193-.232.198-.384l.094-3.218c.006-.21-.119-.402-.314-.479l-2.5-1c-.061-.024-.124-.036-.186-.036" transform="translate(26 5)"/><path d="m0 0c-.112 0-.201.03-.288.078-.158.088-.285.31-.285.491v2.563c0 .184.102.354.265.441.59.314 1.28.727 1.838 1.061.39.233.718.429.911.533.149.078.33.077.476-.003.148-.081.245-.231.258-.4.034-.438-.113-1.545-.144-1.763-.02-.153-.112-.289-.247-.366l-1.203-.688c-.238-.132-.545-.053-.683.187-.136.239-.053.545.187.682l.987.564c.018.14.035.293.052.444-.026-.015-.054-.032-.08-.048-.49-.293-1.078-.645-1.617-.942v-1.625c.173.094.407.229.723.427l.339-.379.19-.471c-.949-.589-1.391-.786-1.679-.786" transform="translate(30.573 7.712)"/><path d="m0 0c-.051 0-.103.008-.152.023l-3.219 1.032c-.263.085-.408.366-.324.629.084.263.367.404.629.324l2.585-.828.064 2.355-2.856.836-.026-.735 1.585-.537c.261-.089.401-.372.313-.634-.089-.262-.372-.4-.635-.314l-1.937.657c-.209.071-.347.27-.339.491l.062 1.75c.006.154.082.298.208.388.125.09.283.118.433.074l3.843-1.125c.218-.064.366-.267.36-.493l-.094-3.407c-.004-.157-.083-.303-.211-.394-.085-.061-.186-.092-.289-.092" transform="translate(12.875 4.719)"/><path d="m0 0c-.091 0-.181.024-.262.074l-1.375.844c-.235.144-.309.452-.164.687.144.236.451.311.688.165l.608-.374-.009 1.624-1.33.75v-.425l.743-.449c.236-.142.312-.449.17-.685-.143-.236-.449-.312-.687-.17l-.984.594c-.15.09-.242.253-.242.428v1.562c0 .178.094.342.248.432.153.089.343.091.498.004l2.328-1.313c.156-.088.253-.253.254-.433l.016-2.812c.001-.182-.097-.35-.254-.439-.077-.043-.162-.064-.246-.064" transform="translate(6.844 7.5)"/></g><path d="m0 0c0-3.866-6.716-7-15-7-8.284 0-15 3.134-15 7 0 3.866 6.716 7 15 7 8.284 0 15-3.134 15-7" fill="#ffac33" transform="translate(34 19)"/><g fill="#ffd983"><path d="m0 0c-1.18 0-2.122.196-2.801.584-.767.438-1.207 1.143-1.207 1.933 0 1.855 2.34 3.483 5.01 3.483.553 0 1-.448 1-1 0-.553-.447-1-1-1-1.872 0-3.01-1.03-3.01-1.483 0-.077.153-.169.199-.197.21-.119.724-.32 1.809-.32 2.404 0 5 1.529 5 4 0 .721-.939 1.183-1.343 1.348-2.02.825-5.291.579-6.944-1.104-1.441-1.468-3.792-1.956-6.29-1.302-1.538.402-3.319 1.339-3.705 2.761-.197.725.008 1.437.575 2 2.293 2.293 6.578 2.293 9.707 2.293.553 0 1-.448 1-1 0-.552-.447-1-1-1-2.779 0-6.586 0-8.293-1.707-.052-.053-.064-.081-.064-.082.024-.156.571-.763 1.807-1.189 1.571-.541 3.676-.559 4.837.623 2.318 2.361 6.46 2.644 9.127 1.554 1.644-.672 2.586-1.838 2.586-3.199 0-3.706-3.634-6-7-6" transform="translate(23 13)"/><path d="m0 0c-7.605 0-10 5.457-10 7 0 .552.448 1 1 1 .551 0 .998-.445 1-.995.036-.663 1.701-5 8-5 .552 0 1-.447 1-1 0-.553-.448-1-1-1" transform="translate(16 13)"/></g><g fill="#aa695b"><path d="m0 0l-23-.886c-.55-.049-1.036.357-1.085.907-.05.55.356 1.036.906 1.085l22.915 1.882c.551.05 1.037-.356 1.086-.906.049-.55-.266-2.032-.817-2.082" transform="translate(36.09 33.947)"/><path d="m0 0l-23 1c-.552 0-1 .448-1 1 0 .552.448 1 1 1h23c.553 0 1-.448 1-1 0-.552-.447-2-1-2" transform="translate(36 29)"/></g><g fill="#ffd983"><path d="m0 0c-.552 0-1 .448-1 1v12c0 .552.448 1 1 1 .552 0 1-.448 1-1v-12c0-.552-.448-1-1-1" transform="translate(15 22)"/><path d="m0 0c-.552 0-1 .448-1 1v15c0 .552.448 1 1 1 .552 0 1-.448 1-1v-15c0-.552-.448-1-1-1" transform="translate(19 20)"/></g></g></g></svg>