<svg xmlns="http://www.w3.org/2000/svg" viewBox="0 0 47.5 47.5" enable-background="new 0 0 47.5 47.5"><defs><clipPath id="0"><path d="m0 38h38v-38h-38v38"/></clipPath></defs><g transform="matrix(1.25 0 0-1.25 0 47.5)"><g clip-path="url(#0)"><path d="m0 0c-.162.292-.353.538-.588.709-.234.171-.528.276-.856.341.228.244.403.502.493.778.09.276.099.588.059.919.302-.142.602-.228.892-.228.29 0 .59.086.894.228-.041-.331-.032-.643.058-.919.09-.276.265-.534.492-.778-.327-.065-.621-.17-.855-.341-.235-.171-.427-.417-.589-.709m13.298-.47c4.197 1.364 5.03 3.182 4.191 6.416-.952-.308-2.105.001-2.272.518-.168.513.581 1.443 1.533 1.753-1.223 3.107-2.964 4.089-7.161 2.727-1.607-.522-3.238-1.492-4.655-2.634.648 1.7 1.066 3.552 1.066 5.241 0 4.412-1.473 5.765-4.807 5.968 0-1-.652-2-1.193-2-.541 0-1.194 1-1.194 2-3.334-.203-4.806-1.556-4.806-5.968 0-1.689.417-3.541 1.066-5.241-1.416 1.142-3.049 2.111-4.655 2.633-4.197 1.364-5.938.381-7.162-2.727.951-.31 1.701-1.238 1.534-1.753-.167-.515-1.32-.826-2.271-.518-.837-3.233-.005-5.05 4.19-6.415 1.607-.521 3.497-.697 5.314-.605-1.524-.994-2.95-2.247-3.943-3.613-2.594-3.571-2.197-5.531.381-7.655.588.809 1.703 1.236 2.142.917.437-.317.378-1.511-.21-2.32 2.816-1.795 4.802-1.566 7.396 2 .993 1.366 1.743 3.111 2.218 4.867.475-1.757 1.226-3.501 2.218-4.867 2.594-3.57 4.58-3.798 7.397-2-.587.809-.649 2-.21 2.321.437.318 1.553-.107 2.142-.917 2.577 2.123 2.973 4.083.381 7.654-.993 1.366-2.42 2.619-3.944 3.613 1.817-.092 3.707.084 5.314.605" fill="#f4abba" transform="translate(19 16.663)"/><g fill="#fff"><path d="m0 0c-.12-.54-.653-.88-1.193-.76l-5.857 1.302c-.539.12-.879.653-.76 1.193.121.539.655.879 1.194.759l5.857-1.302c.539-.119.879-.653.759-1.192" transform="translate(17.795 18.315)"/><g transform="translate(18.771 18.1)"><path d="m0 0c.12.54.654.88 1.193.76l5.857-1.302c.54-.12.879-.653.76-1.193-.12-.538-.654-.879-1.193-.759l-5.858 1.302c-.539.119-.879.654-.759 1.192"/><path d="m0 0c-.466-.296-1.083-.159-1.38.308l-3.222 5.061c-.296.466-.159 1.084.307 1.381.466.296 1.084.159 1.38-.307l3.222-5.062c.296-.466.159-1.084-.307-1.381"/></g><path d="m0 0c.466.296 1.084.159 1.38-.307l3.223-5.062c.295-.467.159-1.083-.308-1.381-.466-.296-1.084-.159-1.381.307l-3.221 5.062c-.297.466-.158 1.084.307 1.381" transform="translate(19.568 16.845)"/><path d="m0 0c-.539.12-.879.654-.759 1.193l1.302 5.857c.119.539.652.88 1.192.76.54-.12.879-.655.759-1.194l-1.301-5.857c-.12-.539-.654-.879-1.193-.759" transform="translate(18.988 19.07)"/><path d="m0 0c.54-.119.879-.653.759-1.192l-1.3-5.858c-.121-.54-.654-.88-1.194-.76-.538.121-.879.655-.76 1.194l1.303 5.857c.119.539.653.879 1.192.759" transform="translate(18.771 18.1)"/><g transform="translate(18.772 18.1)"><path d="m0 0c-.297.466-.159 1.083.307 1.38l5.062 3.221c.466.296 1.084.16 1.38-.307.297-.465.159-1.083-.307-1.38l-5.062-3.221c-.466-.297-1.084-.16-1.38.307"/><path d="m0 0c.296-.467.159-1.084-.307-1.381l-5.062-3.222c-.466-.295-1.083-.16-1.381.308-.296.465-.159 1.083.307 1.38l5.062 3.222c.467.297 1.085.159 1.381-.307"/></g></g><g fill="#ea596e"><path d="m0 0c.932.592 2.168.317 2.762-.614.592-.932.318-2.168-.615-2.762-.931-.593-2.168-.318-2.761.614-.592.932-.318 2.168.614 2.762" transform="translate(23.01 11.434)"/><path d="m0 0c-.932-.593-2.168-.319-2.761.613-.593.932-.318 2.168.614 2.762.932.592 2.168.317 2.761-.614.593-.932.318-2.169-.614-2.761" transform="translate(15.55 23.16)"/><path d="m0 0c1.078-.241 1.758-1.31 1.52-2.388-.24-1.078-1.309-1.758-2.388-1.518-1.078.24-1.758 1.308-1.518 2.386.24 1.079 1.308 1.758 2.386 1.52" transform="translate(17.47 12.241)"/><path d="m0 0c-1.078.239-1.758 1.308-1.519 2.386.24 1.078 1.308 1.758 2.386 1.519 1.078-.24 1.759-1.308 1.519-2.386-.24-1.079-1.308-1.759-2.386-1.519" transform="translate(20.507 25.906)"/><path d="m0 0c.592-.933.317-2.169-.614-2.763-.931-.592-2.168-.318-2.761.616-.593.93-.319 2.167.613 2.76.932.592 2.168.318 2.762-.613" transform="translate(14.494 15.376)"/><path d="m0 0c-.593.932-.317 2.168.614 2.761.932.593 2.168.318 2.761-.614.593-.931.317-2.168-.613-2.761-.933-.593-2.169-.318-2.762.614" transform="translate(23.833 21.319)"/><path d="m0 0c.24 1.079 1.309 1.759 2.387 1.52 1.078-.241 1.758-1.309 1.518-2.387-.24-1.078-1.308-1.758-2.386-1.519-1.079.24-1.758 1.308-1.519 2.386" transform="translate(24.628 16.795)"/><path d="m0 0c-.24-1.079-1.308-1.758-2.386-1.519-1.078.24-1.759 1.309-1.519 2.387.239 1.078 1.308 1.757 2.386 1.518 1.079-.24 1.758-1.308 1.519-2.386" transform="translate(11.938 19.616)"/></g><path d="m0 0c0-2.209-1.791-4-4-4-2.209 0-4 1.791-4 4 0 2.209 1.791 4 4 4 2.209 0 4-1.791 4-4" fill="#ffcc4d" transform="translate(23 18.18)"/></g></g></svg>