<svg xmlns="http://www.w3.org/2000/svg" viewBox="0 0 47.5 47.5" enable-background="new 0 0 47.5 47.5"><defs><clipPath id="0"><path d="m0 38h38v-38h-38v38"/></clipPath></defs><g transform="matrix(1.25 0 0-1.25 0 47.5)"><g clip-path="url(#0)"><path d="m0 0c0-9.389-7.611-17-17-17-9.389 0-17 7.611-17 17 0 9.389 7.611 17 17 17 9.389 0 17-7.611 17-17" fill="#ffcc4d" transform="translate(36 19)"/><g fill="#664500"><path d="m0 0c-.055 0-.109.004-.165.014-.545.091-.913.606-.822 1.151.393 2.364 2.57 6.835 7.986 6.835.553 0 1-.448 1-1 0-.552-.447-1-1-1-5.095 0-5.979-4.954-6.01-5.165-.081-.488-.505-.835-.985-.835" transform="translate(21 24)"/><path d="m0 0c-.479 0-.902.345-.985.833-.037.211-.955 5.167-6.01 5.167-.552 0-1 .448-1 1 0 .552.448 1 1 1 5.416 0 7.592-4.471 7.986-6.835.091-.545-.277-1.06-.821-1.151-.056-.01-.112-.014-.166-.014" transform="translate(16.999 24)"/><path d="m0 0c-2.335 0-3.87.997-3.964 1.06-.46.306-.584.927-.278 1.387.306.46.927.585 1.387.277.099-.064 2.602-1.636 5.998.063.495.247 1.095.046 1.342-.448.247-.494.047-1.094-.447-1.341-1.494-.747-2.867-.998-4.04-.998" transform="translate(12.41 19.11)"/><path d="m0 0c-1.172 0-2.545.251-4.04.998-.494.247-.694.847-.447 1.341.248.495.847.695 1.341.448 3.401-1.7 5.9-.126 6-.059.46.298 1.081.17 1.382-.289.302-.459.179-1.074-.278-1.379-.095-.063-1.63-1.06-3.964-1.06" transform="translate(25.591 19.11)"/><path d="m0 0c-.305 0-.605.138-.801.4-.025.034-2.782 3.6-7.2 3.6-4.418 0-7.174-3.566-7.202-3.602-.333-.438-.961-.526-1.4-.195-.44.332-.529.956-.198 1.397.135.179 3.362 4.4 8.8 4.4 5.437 0 8.665-4.221 8.8-4.4.332-.442.242-1.069-.2-1.4-.18-.135-.39-.2-.599-.2" transform="translate(27 10)"/></g><g fill="#f5f8fa"><path d="m0 0c-.453.195-.979.027-1.239-.39l-5-8c-.193-.308-.203-.697-.027-1.014.177-.319.511-.516.875-.516h3c.459 0 .859.313.97.758l2 8c.119.476-.126.97-.579 1.162" transform="translate(16.391 16.92)"/><path d="m0 0l-5 8c-.262.418-.787.584-1.238.39-.453-.193-.699-.686-.579-1.162l2-8c.111-.446.51-.758.969-.758h3c.364 0 .698.197.875.515.176.318.166.706-.027 1.015" transform="translate(27.848 8.53)"/></g><g fill="#e1e8ed"><path d="m0 0c.003.06.018.117.018.178 0 1.656-1.344 3-3 3-1.028 0-1.932-.518-2.473-1.305-.471.194-.986.305-1.527.305-2.209 0-4-1.791-4-4 0-2.209 1.791-4 4-4 1.365 0 2.568.686 3.29 1.731.479-1.02 1.507-1.731 2.71-1.731 1.657 0 3 1.343 3 3 0 1.311-.846 2.414-2.02 2.822" transform="translate(32.982 6.822)"/><path d="m0 0c-.542 0-1.056-.11-1.527-.305-.541.787-1.446 1.305-2.473 1.305-1.656 0-3-1.344-3-3 0-.061.014-.118.018-.178-1.172-.408-2.02-1.51-2.02-2.822 0-1.657 1.343-3 3-3 1.202 0 2.231.711 2.709 1.731.723-1.044 1.925-1.731 3.291-1.731 2.209 0 4 1.791 4 4 0 2.209-1.791 4-4 4" transform="translate(12 9)"/></g></g></g></svg>