<svg xmlns="http://www.w3.org/2000/svg" viewBox="0 0 47.5 47.5" enable-background="new 0 0 47.5 47.5" xmlns:xlink="http://www.w3.org/1999/xlink"><defs><clipPath id="0"><path d="m0 38h38v-38h-38v38"/></clipPath></defs><g transform="matrix(1.25 0 0-1.25 0 47.5)"><g clip-path="url(#0)"><path d="m0 0c0-1.657 1.974-2-.512-2-2.485 0-6 1-6 2 0 1 1.527 3 4.01 3 2.485 0 2.5-1.343 2.5-3" fill="#f4900c" transform="translate(9.512 21.07)"/><path d="m0 0c-.098.18-.25.302-.418.391-1.597 1.706-.462 3.707-.462 3.707 0 .552 1 2 0 2l-1-1c-1-1-1-4-1-4h-2c-.553 0-1-.448-1-1 0-.553.447-1 1-1h1.108l-.222-.12c-.486-.263-.667-.87-.404-1.356.262-.486.869-.667 1.355-.404l2.639 1.427c.486.262.667.869.404 1.355" fill="#ffac33" transform="translate(28.88 3.973)" id="1"/><use transform="translate(-7)" xlink:href="#1"/><path d="m0 0c-1.342 0-7.904-4.613-11.553 5.375-.005.014-.011.024-.017.038-.956 3.453-3.809 6.113-7.367 6.789-.013.014-.025.028-.037.042 2.146 1.377 2.757.354 2.757 1.131 0 1.179-2.083 1.303-4-.012-1.916 1.315-4 1.191-4 .012 0-.761.584.208 2.624-1.044-4.836-.443-8.624-4.505-8.624-9.456 0-4.479 3.103-8.223 7.274-9.227 1-4.17 4.748-7.273 9.226-7.273 3.953 0 6.934 1.678 8.99 3.999.555.626.112-.603.842-.235 4.24 2.132 5.168 9.861 3.885 9.861" fill="#ffcc4d" transform="translate(36.22 19.695)"/><path d="m0 0c0-.828-.672-1.5-1.5-1.5-.828 0-1.5.672-1.5 1.5 0 .828.672 1.5 1.5 1.5.828 0 1.5-.672 1.5-1.5" fill="#662113" transform="translate(15 23.57)"/><path d="m0 0c0 0-2-10 10-10 1 0 0-2-4-2-4 0-9.999 5-7 11 .633 1.265 1 1 1 1" fill="#ffac33" transform="translate(22.811 21.07)"/></g></g></svg>