<svg xmlns="http://www.w3.org/2000/svg" viewBox="0 0 47.5 47.5" enable-background="new 0 0 47.5 47.5"><defs><clipPath id="0"><path d="m0 38h38v-38h-38v38"/></clipPath></defs><g transform="matrix(1.25 0 0-1.25 0 47.5)"><g clip-path="url(#0)" fill="#ffac33"><path d="m0 0c-1.239.01-1.241-1.205-1.241-1.205h-5.396-9.09v.025c-.166-.008-.331-.025-.5-.025-5.246 0-9.5 4.254-9.5 9.5 0 5.246 4.254 9.5 9.5 9.5 5.246 0 9.5-4.254 9.5-9.5 0-3.063-1.466-5.765-3.718-7.5h5.434c1.44 2.145 2.284 4.723 2.284 7.5 0 7.455-6.04 13.5-13.5 13.5-7.455 0-13.5-6.04-13.5-13.5 0-7.455 6.04-13.5 13.5-13.5.169 0 .333.019.5.025v-.025h14.483c0 0-.003-1.127 1.241-1.139 1.238-.011 1.228 1.245 1.228 1.245l.013 3.822c0 0 .001 1.266-1.241 1.277" transform="translate(35.724 7.205)"/><path d="m0 0c1.014 1.831 2.378 3.438 4 4.739v.521c0 5 5 7 5 8 0 1-1 1-1 1h-12c-1 0-1-1-1-1 0-1 5-3.333 5-7.69v-5.57" transform="translate(6 22.74)"/></g></g></svg>