<svg xmlns="http://www.w3.org/2000/svg" viewBox="0 0 47.5 47.5" enable-background="new 0 0 47.5 47.5"><defs><clipPath id="0"><path d="m0 38h38v-38h-38v38"/></clipPath></defs><g transform="matrix(1.25 0 0-1.25 0 47.5)"><g clip-path="url(#0)"><path d="m0 0c0 0-4 0-4 4v28c0 0 0 4 4 4h26c1 0 2-1 2-1l3-3c0 0 1-1 1-2v-26c0 0 0-4-4-4h-28" fill="#292f33" transform="translate(5 1)"/><path d="m0 0v1c0 0 0 2 2 2h21c2 0 2-2 2-2v-1h-25" fill="#55acee" transform="translate(6 18)"/><g fill="#e1e8ed"><path d="m0 0v13.02h25v-13c0 0 0-2-2-2h-21c-2 0-2 1.979-2 1.979" transform="translate(6 4.979)"/><path d="m23 24h5v10h-5v-10m-12 10c0 0 0 1 1 1h18c1.048 0 1-1 1-1v-10c0 0 0-1-1-1h-18c0 0-1 0-1 1v10"/></g></g></g></svg>