<svg xmlns="http://www.w3.org/2000/svg" viewBox="0 0 47.5 47.5" enable-background="new 0 0 47.5 47.5"><defs><clipPath id="0"><path d="m0 38h38v-38h-38v38"/></clipPath></defs><g transform="matrix(1.25 0 0-1.25 0 47.5)"><g clip-path="url(#0)"><g fill="#f18f26"><path d="m0 0h-2c0 3.314-2.63 6-5.875 6-3.244 0-5.875-2.686-5.875-6h-6.25c0 1.104-.896 2-2 2-1.104 0-2-.896-2-2-1.104 0-2-.896-2-2 0-1.104.896-2 2-2h24c1.104 0 2 .896 2 2 0 1.104-.896 2-2 2" transform="translate(31 5)"/><path d="m0 0v-4c3.866 0 7-3.134 7-7 0-3.866-3.134-7-7-7h-8.485c2.02-2.443 5.069-4 8.485-4 6.075 0 11 4.925 11 11 0 6.075-4.925 11-11 11" transform="translate(21 27)"/><path d="m0 0c-.781-.781-2.047-.78-2.828 0-.781.781-.781 2.047 0 2.828l2.121 2.121c.781.781 2.049.782 2.83.001.779-.78.779-2.048-.002-2.829l-2.121-2.121" transform="translate(29.04 27.929)"/></g><g fill="#fdcb58"><path d="m0 0c-.781-.781-2.049-.781-2.83 0l-4.242 4.243c-.782.78-.782 2.048 0 2.829.781.781 2.049.781 2.828 0l4.244-4.243c.781-.781.781-2.048 0-2.829" transform="translate(34.699 29.343)"/><path d="m0 0c-.389-.389-1.025-.39-1.414 0l-4.243 4.243c-.388.389-.388 1.026 0 1.414l12.02 12.02c.389.388 1.026.388 1.414 0l4.243-4.243c.39-.389.388-1.026 0-1.414l-12.02-12.02" transform="translate(17.728 13.787)"/></g><path d="M 0,0 -5.657,5.657 -4.242,7.071 1.415,1.415 0,0 Z" fill="#f18f26" transform="translate(19.14 15.201)"/><g fill="#67757f"><path d="m0 0c-.781-.781-2.047-.781-2.828 0l-9.9 9.9c-.781.782-.781 2.047 0 2.829.781.781 2.047.781 2.829 0l9.899-9.901c.781-.781.781-2.047 0-2.828" transform="translate(17.414 6.586)"/><path d="m0 0c.391-.391.391-1.023 0-1.414-.391-.391-1.024-.391-1.414 0l-4.243 4.242c-.391.391-.39 1.024 0 1.414.39.391 1.024.391 1.415 0l4.242-4.242" transform="translate(9.95 7.465)"/></g></g></g></svg>