<svg xmlns="http://www.w3.org/2000/svg" viewBox="0 0 47.5 47.5" enable-background="new 0 0 47.5 47.5" xmlns:xlink="http://www.w3.org/1999/xlink"><defs><clipPath id="0"><path d="m0 38h38v-38h-38v38"/></clipPath></defs><g transform="matrix(1.25 0 0-1.25 0 47.5)"><g clip-path="url(#0)"><path d="m0 0c0-2.209-1.119-4-2.5-4-1.381 0-2.5 1.791-2.5 4 0 2.209 1.119 4 2.5 4 1.381 0 2.5-1.791 2.5-4" fill="#d99e82" transform="translate(7 17)" id="1"/><use transform="translate(29)" xlink:href="#1"/><path d="m0 0c0 8.526 6.268 15.438 14 15.438 7.732 0 14-6.912 14-15.438 0-8.525-6.268-14.438-14-14.438-7.732 0-14 5.913-14 14.438" fill="#d99e82" transform="translate(5 16.438)"/><g fill="#662113"><path d="m0 0c-.552 0-1 .447-1 1v2c0 .552.448 1 1 1 .552 0 1-.448 1-1v-2c0-.553-.448-1-1-1" transform="translate(13 15)"/><path d="m0 0c-.553 0-1 .447-1 1v2c0 .552.447 1 1 1 .553 0 1-.448 1-1v-2c0-.553-.447-1-1-1" transform="translate(25 15)"/></g><g fill="#c1694f"><path d="m0 0c-4.188 0-6.357 1.061-6.447 1.105-.494.248-.695.848-.448 1.342.247.492.843.693 1.338.449.051-.024 1.925-.896 5.557-.896 3.665 0 5.54.888 5.559.897.496.242 1.093.035 1.336-.457.243-.493.044-1.088-.448-1.335-.091-.044-2.26-1.105-6.447-1.105" transform="translate(19 7)"/><path d="m0 0h-2c-.552 0-1 .447-1 1 0 .553.448 1 1 1h2c.553 0 1-.447 1-1 0-.553-.447-1-1-1" transform="translate(20 12)"/></g><path d="m0 0c-9.23 0-15-6.462-15-11.846 0-5.385 1.154-7.539 2.308-5.385 1.154 2.154 2.307 4.308 2.307 4.308 0 0 3.792.124 6.099 2.278 0 0-1.071-4 6.595-.125 0 0-.166-3.875 5.191.125 0 0 4.04-1.201 5.191-6.586.321-1.494 2.309 0 2.309 5.385 0 5.384-4.615 11.846-15 11.846" fill="#662113" transform="translate(19 36.646)"/></g></g></svg>