<svg xmlns="http://www.w3.org/2000/svg" viewBox="0 0 47.5 47.5" enable-background="new 0 0 47.5 47.5" xmlns:xlink="http://www.w3.org/1999/xlink"><defs><path id="1" d="m0 0v1c0 0 0 1 2 1 2 0 2-1 2-1v-1h-4" fill="#292f33"/><path id="2" d="m0 0c0-.276-.224-.5-.5-.5-.276 0-.5.224-.5.5 0 .276.224.5.5.5.276 0 .5-.224.5-.5" fill="#664500"/><clipPath id="0"><path d="m0 38h38v-38h-38v38"/></clipPath></defs><g transform="matrix(1.25 0 0-1.25 0 47.5)"><path d="m0 0h-2-3v-12h3v8h2v-8h3v12h-3" fill="#664500" transform="translate(12 14)"/><g clip-path="url(#0)"><use transform="translate(6 1)" xlink:href="#1"/><use transform="translate(12 1)" xlink:href="#1"/><path d="m0 0c-1.187 0-2.282-.379-3.181-1.018-1.846-.096-3.319-1.611-3.319-3.482 0-1.542.007-3.484 2.038-4.208.998-1.386 2.623-2.292 4.462-2.292 3.037 0 5.5 2.462 5.5 5.499 0 3.038-2.463 5.501-5.5 5.501" fill="#292f33" transform="translate(11.5 37)"/><g fill="#d79e84"><path d="m0 0c-.164 0-.331.04-.485.126-.482.269-.657.877-.388 1.359l5 9c.268.482.876.657 1.36.388.482-.268.657-.877.388-1.36l-5-8.999c-.183-.329-.523-.515-.875-.515" transform="translate(1.999 11)"/><path d="m0 0c-.352 0-.692.186-.875.515l-5 8.999c-.269.483-.094 1.092.388 1.36.484.269 1.092.094 1.36-.388l5-9c.269-.482.095-1.09-.389-1.359-.153-.086-.32-.126-.484-.126" transform="translate(20 11)"/></g><path d="m0 0c0 1.104-.896 2-2 2h-2-4-2c-1.104 0-2-.896-2-2v-1h2v-7h8v7h2v1" fill="#4289c1" transform="translate(17 21)"/><path d="m0 0v-4c0-1.104.896-2 2-2 1.104 0 2 .896 2 2v4h-4" fill="#d79e84" transform="translate(9 26)" id="3"/><path d="m0 0l-4-.019v-3.981c0 0 2-1 4 0v4" fill="#bf6952" transform="translate(13 26)" id="4"/><path d="m0 0h-10v-6c0-2.763 2.238-5 5-5 2.762 0 5 2.237 5 5v6" fill="#d79e84" transform="translate(16 34)" id="5"/><path d="m0 0h-3v-4c2.333 0 2.85 2.412 2.965 3.488.039-1.076.814-3.488 7.04-3.488v4h-7" fill="#292f33" transform="translate(9 34)"/><path d="m0 0h-2-2c0 0 0-1 2-1 2 0 2 1 2 1" fill="#c1694f" transform="translate(13 25)" id="6"/><use transform="translate(9 28.5)" xlink:href="#2"/><use transform="translate(14 28.5)" xlink:href="#2"/><path d="m0 0h1 1c0 0 0-1-1-1-1 0-1 1-1 1" fill="#c1694f" transform="translate(10 27)"/><path d="m0 0h-2-3v-12h3v8h2v-8h3v12h-3" fill="#67757f" transform="translate(28 14)"/><use transform="translate(22 1)" xlink:href="#1"/><use transform="translate(28 1)" xlink:href="#1"/><path d="m0 0c0 1.871-1.473 3.386-3.319 3.482-.899.639-1.994 1.018-3.181 1.018-3.037 0-5.5-2.463-5.5-5.501 0-3.037 2.463-5.499 5.5-5.499 1.84 0 3.464.906 4.462 2.292 2.031.724 2.038 2.666 2.038 4.208" fill="#642116" transform="translate(33 32.5)"/><g fill="#d79e84"><path d="m0 0c-.164 0-.331.04-.485.126-.482.269-.657.877-.388 1.359l5 9c.268.482.878.657 1.359.388.484-.268.658-.877.389-1.36l-5-8.999c-.183-.329-.523-.515-.875-.515" transform="translate(17.999 11)"/><path d="m0 0c-.352 0-.692.186-.875.515l-5 8.999c-.269.483-.095 1.092.389 1.36.482.269 1.091.094 1.359-.388l5-9c.269-.482.095-1.09-.389-1.359-.153-.086-.32-.126-.484-.126" transform="translate(36 11)"/></g><path d="m0 0c0 1.104-.896 2-2 2h-2-4-2c-1.104 0-2-.896-2-2v-1h2v-7h8v7h2v1" fill="#fdcb58" transform="translate(33 21)"/><use transform="translate(16)" xlink:href="#3"/><use transform="translate(16)" xlink:href="#4"/><use transform="translate(16)" xlink:href="#5"/><path d="m0 0h-7v-4c6.221 0 6.996 2.412 7.04 3.488.115-1.076.632-3.488 2.965-3.488v4h-3" fill="#642116" transform="translate(29 34)"/><use transform="translate(16)" xlink:href="#6"/><use transform="translate(25 28.5)" xlink:href="#2"/><use transform="translate(30 28.5)" xlink:href="#2"/><path d="m0 0h1 1c0 0 0-1-1-1-1 0-1 1-1 1" fill="#c1694f" transform="translate(26 27)"/></g></g></svg>