<svg xmlns="http://www.w3.org/2000/svg" viewBox="0 0 47.5 47.5" enable-background="new 0 0 47.5 47.5"><defs><clipPath id="0"><path d="m0 38h38v-38h-38v38"/></clipPath><clipPath id="1"><path d="m1.963 36.25h34.07v-26.607h-34.07v26.607"/></clipPath></defs><g transform="matrix(1.25 0 0-1.25 0 47.5)"><g clip-path="url(#0)"><g fill="#292f33"><path d="m0 0h-5-2-5c0 0-5-6-5-10 0-4 11-11 11-11 0 0 11 7 11 11 0 4-5 10-5 10" transform="translate(25 23)"/><path d="m0 0c-.901.704-2.377.704-3.278 0l-14.722-11.497c-.902-.703-.902-1.856 0-2.559l14.721-11.495c.902-.704 2.377-.704 3.278 0l14.723 11.495c.901.703.901 1.856 0 2.559l-14.722 11.497" transform="translate(20.64 35.72)"/></g><g clip-path="url(#1)" opacity=".25"><path d="m0 0c-.901.704-2.377.704-3.278 0l-14.722-11.497c-.902-.703-.902-1.856 0-2.559l14.721-11.495c.902-.704 2.377-.704 3.278 0l14.723 11.495c.901.703.901 1.856 0 2.559l-14.722 11.497" fill="#67757f" transform="translate(20.64 35.72)"/></g><path d="m0 0c0 0-2-2-2-3v-6c0 0 0-2 2-2 2 0 2 2 2 2v6c0 1-2 3-2 3" fill="#fcab40" transform="translate(9 12)"/><path d="m0 0c0-1.658-1.343-3-3-3-1.657 0-3 1.342-3 3 0 1.658 1.343 3 3 3 1.657 0 3-1.342 3-3" fill="#fdd888" transform="translate(12 11)"/><path d="m0 0c-.552 0-1 .447-1 1v3.958c-.042.634.187 2.036 1.317 2.884l9.02 7.91c.416.365 1.048.323 1.411-.093.365-.415.323-1.047-.092-1.411l-9.08-7.958c-.603-.456-.577-1.272-.577-1.28l.001-4.01c0-.553-.448-1-1-1" fill="#fcab40" transform="translate(9 10)"/><path d="m0 0c0-1.657-1.343-3-3-3-1.657 0-3 1.343-3 3 0 1.657 1.343 3 3 3 1.657 0 3-1.343 3-3" fill="#292f33" transform="translate(22 24)"/></g></g></svg>