<svg xmlns="http://www.w3.org/2000/svg" viewBox="0 0 47.5 47.5" enable-background="new 0 0 47.5 47.5"><defs><clipPath id="0"><path d="m0 38h38v-38h-38v38"/></clipPath></defs><g transform="matrix(1.25 0 0-1.25 0 47.5)"><g clip-path="url(#0)"><path d="m0 0c0-2.209-1.791-4-4-4h-26c-2.209 0-4 1.791-4 4v28c0 2.209 1.791 4 4 4h26c2.209 0 4-1.791 4-4v-28" fill="#ccd6dd" transform="translate(36 5)"/><path d="m27 11h5v-5h-5v5m-7 0h5v-5h-5v5m-7 0h5v-5h-5v5m-7 0h5v-5h-5v5m5 16h-5v5h5v-5m7 0h-5v5h5v-5m7 0h-5v5h5v-5m2 5h5v-5h-5v5m0-7h5v-5h-5v5m0-7h5v-5h-5v5m-7 0h5v-5h-5v5m-7 0h5v-5h-5v5m-2-5h-5v5h5v-5m0 7h-5v5h5v-5m9 5h5v-5h-5v5m-2-5h-5v5h5v-5m15 14h-28c-.553 0-1-.448-1-1v-28c0-.553.447-1 1-1h28c.553 0 1 .447 1 1v28c0 .552-.447 1-1 1" fill="#e1e8ed"/><path d="m0 0c-.721 0-1.416.39-1.773 1.072l-9.739 18.59-6.076-6.076c-.446-.447-1.076-.66-1.704-.565-.626.092-1.171.474-1.471 1.031l-7 13c-.524.972-.16 2.185.813 2.709.974.523 2.186.159 2.709-.813l5.725-10.633 6.1 6.099c.45.45 1.089.659 1.716.563.629-.096 1.175-.485 1.47-1.049l11-21c.512-.979.134-2.187-.844-2.699-.296-.156-.614-.229-.926-.229" fill="#dd2e44" transform="translate(32 4)"/></g></g></svg>