<svg xmlns="http://www.w3.org/2000/svg" viewBox="0 0 47.5 47.5" enable-background="new 0 0 47.5 47.5"><defs><clipPath id="0"><path d="m0 38h38v-38h-38v38"/></clipPath></defs><g transform="matrix(1.25 0 0-1.25 0 47.5)"><g clip-path="url(#0)"><path d="m0 0c0-2.209-8-2.209-8 0v10c0 2.209 1.791 4 4 4 2.209 0 4-1.791 4-4v-10" fill="#c1694f" transform="translate(23 4)"/><path d="m0 0c-4.418 0-8-3.582-8-8v-12h16v12c0 4.418-3.582 8-8 8" fill="#292f33" transform="translate(11 34)"/><path d="m0 0c0-1.236-1.065-2.239-2.293-2.239h-15.414c-1.229 0-2.293 1-2.293 2.239v10.521c0 1.237 1.064 2.24 2.293 2.24h15.414c1.228 0 2.293-1 2.293-2.24v-10.521" fill="#ccd6dd" transform="translate(21 18.239)"/><g fill="#99aab5"><path d="m0 0l-6.538-6.572c.113-.376.316-.716.596-.984l6.729 6.764c.216.219.216.573 0 .792-.219.219-.57.219-.787 0" transform="translate(7.637 24.2)"/><path d="m0 0c-.218.219-.569.219-.787 0-.217-.219-.217-.573 0-.792l6.728-6.764c.28.268.483.608.596.984l-6.537 6.572" transform="translate(14.364 24.2)"/><path d="m0 0h-15.414c-1.229 0-2.293-1-2.293-2.239v-1.419l8.07-8.114c1.052-1.061 2.768-1.061 3.822 0l8.105 8.126v1.407c0 1.236-1.065 2.239-2.293 2.239" transform="translate(18.707 31)"/></g><path d="m0 0h-15.414c-1.166 0-2.172-.906-2.273-2.055l8.407-8.396c.869-.874 2.277-.84 3.145.035l8.41 8.346c-.093 1.156-1.105 2.07-2.275 2.07" fill="#e1e8ed" transform="translate(18.707 31)"/><path d="m0 0h-16c4.418 0 8-3.582 8-8v-12h8 8v12c0 4.418-3.582 8-8 8" fill="#99aab5" transform="translate(27 34)"/><path d="m0 0h-4c-1.104 0-2-.896-2-2v-2-10c0-1.104.896-2 2-2 1.104 0 2 .896 2 2v8h2c1.104 0 2 .896 2 2v2c0 1.104-.896 2-2 2" fill="#dd2e44" transform="translate(27 36)"/></g></g></svg>