<svg xmlns="http://www.w3.org/2000/svg" viewBox="0 0 47.5 47.5" enable-background="new 0 0 47.5 47.5"><defs><clipPath id="0"><path d="m0 38h38v-38h-38v38"/></clipPath><clipPath id="1"><path d="m5 37c-4 0-4-4-4-4v-28c0-4 4-4 4-4h28c4 0 4 4 4 4v28c0 4-4 4-4 4h-28"/></clipPath></defs><g transform="matrix(1.25 0 0-1.25 0 47.5)"><g clip-path="url(#0)"><path d="m0 0c0 0 0 4 4 4h28c0 0 4 0 4-4v-28c0 0 0-4-4-4h-28c0 0-4 0-4 4v28" fill="#88c9f9" transform="translate(1 33)"/></g><g clip-path="url(#1)"><path d="m0 0c0 19.882 16.12 36 36 36 19.882 0 36-16.12 36-36 0-19.882-16.12-36-36-36-19.882 0-36 16.12-36 36" fill="#ed1c24" transform="translate(1 1)"/><path d="m0 0c0 18.203 14.756 32.958 32.958 32.958 18.203 0 32.959-14.755 32.959-32.958 0-18.202-14.756-32.959-32.959-32.959-18.202 0-32.958 14.757-32.958 32.959" fill="#f4900c" transform="translate(4.04 1)"/><path d="m0 0c0 16.546 13.413 29.958 29.958 29.958 16.545 0 29.959-13.412 29.959-29.958 0-16.545-13.414-29.959-29.959-29.959-16.545 0-29.958 13.414-29.958 29.959" fill="#ffcc4d" transform="translate(7.04 1)"/><path d="m0 0c0 14.889 12.07 26.958 26.958 26.958 14.888 0 26.959-12.07 26.959-26.958 0-14.888-12.07-26.959-26.959-26.959-14.888 0-26.958 12.07-26.958 26.959" fill="#5c913b" transform="translate(10.04 1)"/><path d="m0 0c0 13.231 10.727 23.958 23.958 23.958 13.232 0 23.959-10.727 23.959-23.958 0-13.231-10.727-23.959-23.959-23.959-13.231 0-23.958 10.728-23.958 23.959" fill="#269" transform="translate(13.04 1)"/><path d="m0 0c0 11.574 9.384 20.958 20.958 20.958 11.575 0 20.959-9.384 20.959-20.958 0-11.574-9.384-20.959-20.959-20.959-11.574 0-20.958 9.385-20.958 20.959" fill="#9266cc" transform="translate(16.04 1)"/><path d="m0 0c0 9.917 8.04 17.958 17.958 17.958 9.918 0 17.959-8.04 17.959-17.958 0-9.918-8.04-17.959-17.959-17.959-9.916 0-17.958 8.04-17.958 17.959" fill="#88c9f9" transform="translate(19.04 1)"/></g></g></svg>