<svg xmlns="http://www.w3.org/2000/svg" viewBox="0 0 47.5 47.5" enable-background="new 0 0 47.5 47.5"><defs><clipPath id="0"><path d="m0 38h38v-38h-38v38"/></clipPath></defs><g transform="matrix(1.25 0 0-1.25 0 47.5)"><g clip-path="url(#0)"><path d="m0 0c-4.418 0-8 3.582-8 8 0 4.418 3.582 8 8 8 4.418 0 8-3.582 8-8 0-4.418-3.582-8-8-8m0 20c-6.627 0-12-5.373-12-12 0-6.627 5.373-12 12-12 6.627 0 12 5.373 12 12 0 6.627-5.373 12-12 12" fill="#9aaab4" transform="translate(19 5)"/><path d="m0 0l-4 5h-7-7l-4-5 11-9 11 9" fill="#5dadec" transform="translate(30 32)"/><path d="m0 0l-4 5h-7-7l-4-5h11 11" fill="#8ccaf7" transform="translate(30 32)"/><path d="m0 0l-4 5h-6-1v-5h1 10" fill="#5dadec" transform="translate(30 32)"/><path d="m0 0h11l-11-9v9" fill="#8ccaf7" transform="translate(19 32)"/><path d="m0 0c0-1.657-1.343-3-3-3h-8c-1.657 0-3 1.343-3 3 0 1.657 1.343 3 3 3h8c1.657 0 3-1.343 3-3" fill="#9aaab4" transform="translate(26 24)"/></g></g></svg>