<svg xmlns="http://www.w3.org/2000/svg" viewBox="0 0 47.5 47.5" enable-background="new 0 0 47.5 47.5"><defs><clipPath id="0"><path d="m0 38h38v-38h-38v38"/></clipPath></defs><g transform="matrix(1.25 0 0-1.25 0 47.5)"><g clip-path="url(#0)" fill="#67757f"><path d="m0 0c-.884.601-.868 1.558.038 2.127l10.14 6.39c.904.569 1.644.18 1.644-.866v-13.771c0-1.047-.723-1.413-1.607-.811l-10.215 6.931" transform="translate(1.652 28.22)"/><path d="m0 0c0-1.104-.896-2-2-2h-24c-1.104 0-2 .896-2 2v6c0 1.104.896 2 2 2h24c1.104 0 2-.896 2-2v-6" transform="translate(37 26)"/><path d="m0 0h1.788c.818 0 1.424.47 1.424 1.318 0 .712-.545 1.198-1.606 1.198h-1.606v-2.516m0 4.516h1.182c.742 0 1.227.439 1.227 1.196 0 .713-.56 1.076-1.227 1.076h-1.182v-2.272m-2.273 3.135c0 .728.5 1.137 1.197 1.137h2.909c1.576 0 2.849-1.06 2.849-2.667 0-1.06-.439-1.772-1.409-2.226v-.031c1.288-.182 2.303-1.258 2.303-2.576 0-2.137-1.424-3.288-3.515-3.288h-3.122c-.697 0-1.212.439-1.212 1.151v8.5z" transform="translate(3.297 3.165)"/><path d="m0 0h2.879l-1.41 4.395h-.03l-1.439-4.395m-.168 5.501c.258.696.85 1.257 1.621 1.257.805 0 1.365-.53 1.621-1.257l2.971-8.243c.092-.242.121-.454.121-.561 0-.591-.484-1-1.045-1-.637 0-.955.333-1.107.788l-.453 1.424h-4.213l-.455-1.409c-.151-.47-.469-.803-1.09-.803-.607 0-1.122.454-1.122 1.061 0 .242.076.424.107.5l3.044 8.243z" transform="translate(12.682 5.377)"/><path d="m0 0c1.106 0 3.258-.363 3.258-1.696 0-.546-.379-1.016-.94-1.016-.621 0-1.046.53-2.318.53-1.879 0-2.849-1.59-2.849-3.439 0-1.803.986-3.349 2.849-3.349 1.272 0 1.788.637 2.409.637.682 0 1-.682 1-1.03 0-1.455-2.288-1.788-3.409-1.788-3.076 0-5.212 2.439-5.212 5.576 0 3.151 2.121 5.575 5.212 5.575" transform="translate(24.06 12.135)"/><path d="m0 0c0 .621.455 1.121 1.137 1.121.651 0 1.136-.424 1.136-1.121v-3.272l3.727 3.969c.167.182.455.424.879.424.576 0 1.121-.439 1.121-1.091 0-.393-.242-.712-.742-1.212l-2.863-2.818 3.5-3.651c.363-.365.636-.698.636-1.153 0-.712-.561-1.045-1.182-1.045-.44 0-.727.258-1.152.712l-3.924 4.243v-3.864c0-.591-.455-1.091-1.136-1.091-.652 0-1.137.424-1.137 1.091v8.758" transform="translate(28.531 10.923)"/></g></g></svg>