<svg xmlns="http://www.w3.org/2000/svg" viewBox="0 0 47.5 47.5" enable-background="new 0 0 47.5 47.5"><defs><clipPath id="0"><path d="m0 38h38v-38h-38v38"/></clipPath></defs><g transform="matrix(1.25 0 0-1.25 0 47.5)"><g clip-path="url(#0)"><path d="m0 0c-2.209 0-4 1.791-4 4v28c0 2.209 1.791 4 4 4h28c2.209 0 4-1.791 4-4v-28c0-2.209-1.791-4-4-4h-28" fill="#3b88c3" transform="translate(5 1)"/><g fill="#fff"><path d="m0 0l6 7.2h-4v8c0 5.523-4.477 10-10 10-1.414 0-2.758-.297-3.978-.827l2.75-3.3c.396.083.807.127 1.228.127 3.314 0 6-2.686 6-6v-8h-4l6-7.2" transform="translate(27 6.8)"/><path d="m0 0l-2.749 3.301c-.397-.083-.807-.127-1.228-.127-3.313 0-6 2.686-6 6v8h4l-6 7.2-6-7.2h4v-8c0-5.523 4.478-10 10-10 1.414 0 2.758.297 3.977.826" transform="translate(22.977 6.826)"/></g></g></g></svg>