<svg xmlns="http://www.w3.org/2000/svg" viewBox="0 0 47.5 47.5" enable-background="new 0 0 47.5 47.5"><defs><clipPath id="0"><path d="m0 38h38v-38h-38v38"/></clipPath><clipPath id="1"><path d="m15 34c-5-4-13-15-13-23 0-9.389 7.609-9 17-9 9.391 0 17-.389 17 9 0 5-6 18-13 23-1.427 1.019-2.732 1.519-4.02 1.519-1.306 0-2.596-.513-3.979-1.519"/></clipPath></defs><g transform="matrix(1.25 0 0-1.25 0 47.5)"><g clip-path="url(#0)"><path d="m0 0c0-9.389-7.609-9-17-9-9.391 0-17-.389-17 9 0 8 8 19 13 23 2.75 2 5.129 2.051 8 0 7-5 13-18 13-23" fill="#eee" transform="translate(36 11)"/><g fill="#ccd6dd"><path d="m0 0c-.461-.316-1.091-.199-1.406.263-.316.46-.198 1.091.261 1.406l1.67 1.144c.46.315 1.089.198 1.406-.263.315-.46.198-1.091-.263-1.405l-1.668-1.145" transform="translate(28.26 7.358)"/><path d="m0 0c-.512.207-.758.792-.549 1.303.209.511.793.758 1.304.549l1.852-.755c.511-.208.757-.791.549-1.303-.208-.512-.792-.758-1.303-.549l-1.853.755" transform="translate(30.696 14.453)"/><path d="m0 0c-.519.21-.768.801-.555 1.318.209.517.801.766 1.317.556l1.875-.764c.515-.211.764-.8.553-1.318-.211-.517-.799-.766-1.318-.555l-1.872.763" transform="translate(26.2 19.709)"/><path d="m0 0c-.517.21-.766.801-.554 1.318.21.517.801.766 1.318.556l1.873-.764c.517-.211.765-.8.555-1.318-.211-.518-.801-.767-1.318-.556l-1.874.764" transform="translate(5.201 12.709)"/><path d="m0 0c-.461-.316-1.091-.199-1.406.264-.316.46-.198 1.09.261 1.405l1.67 1.144c.46.315 1.089.198 1.406-.263.315-.46.198-1.091-.263-1.406l-1.668-1.144" transform="translate(8.758 18.858)"/><path d="m0 0c-.768.312-1.137 1.188-.824 1.956.314.766 1.189 1.135 1.956.823l2.778-1.133c.767-.312 1.136-1.186.824-1.954-.312-.767-1.188-1.136-1.956-.824l-2.778 1.132" transform="translate(17.786 15.12)"/><path d="m0 0c.522.199 1.106-.062 1.306-.586.197-.519-.067-1.105-.588-1.303l-1.892-.72c-.518-.2-1.103.063-1.302.586-.2.523.063 1.106.585 1.306l1.891.717" transform="translate(11.602 9.07)"/></g></g><g clip-path="url(#1)"><path d="m0 0c0-1.104-.896-2-2-2h-12c-1.104 0-2 .896-2 2v12c0 1.104.896 2 2 2h12c1.104 0 2-.896 2-2v-12" fill="#292f33" transform="translate(27 2)"/></g></g></svg>