<svg xmlns="http://www.w3.org/2000/svg" viewBox="0 0 47.5 47.5" enable-background="new 0 0 47.5 47.5" xmlns:xlink="http://www.w3.org/1999/xlink"><defs><clipPath id="0"><path d="m0 38h38v-38h-38v38"/></clipPath></defs><g transform="matrix(1.25 0 0-1.25 0 47.5)"><g clip-path="url(#0)"><path d="m0 0v-6c0-1.657 1.343-3 3-3h30c1.657 0 3 1.343 3 3v6h-36" fill="#77b255" transform="translate(1 14)"/><path d="m0 0c-.226 0-.453.076-.64.232-.424.353-.481.984-.128 1.408 5.186 6.224 12.326 7.307 12.626 7.35.047.007.095.01.142.01h3c.553 0 1-.447 1-1 0-.552-.447-1-1-1h-2.919c-.689-.118-6.878-1.318-11.312-6.64-.198-.237-.482-.36-.769-.36" fill="#6d6e71" transform="translate(16 24)"/><path d="m26 23h-14v4h14v-4" fill="#a7a9ac"/><path d="m0 0v8c0 1.657-1.343 3-3 3h-30c-1.657 0-3-1.343-3-3v-8h36" fill="#e6e7e8" transform="translate(37 14)"/><g fill="#5c913b"><path d="m37 12h-36v2h36v-2"/><path d="m0 0c-3.063 0-5.586-2.298-5.95-5.263.525-.453 1.201-.737 1.95-.737h10c0 3.313-2.687 6-6 6" transform="translate(8 11)"/><path d="m0 0c-.364 2.965-2.887 5.263-5.95 5.263-3.314 0-6-2.687-6-6h10c.749 0 1.425.284 1.95.737" transform="translate(35.95 5.737)"/></g><path d="m0 0c0-2.209-1.791-4-4-4-2.209 0-4 1.791-4 4 0 2.209 1.791 4 4 4 2.209 0 4-1.791 4-4" transform="translate(12 5)" id="1"/><path d="m0 0c0-1.104-.896-2-2-2-1.104 0-2 .896-2 2 0 1.104.896 2 2 2 1.104 0 2-.896 2-2" fill="#99aab5" transform="translate(10 5)" id="2"/><use transform="translate(22)" xlink:href="#1"/><use transform="translate(22)" xlink:href="#2"/><path d="m0 0c0-.553-.447-1-1-1h-3c-.553 0-1 .447-1 1v3c0 .552.447 1 1 1h3c.553 0 1-.448 1-1v-3" fill="#55acee" transform="translate(28 17)" id="3"/><use transform="translate(7)" xlink:href="#3"/><g fill="#55acee"><path d="m0 0c0-.553-.448-1-1-1h-3c-.552 0-1 .447-1 1v3c0 .552.448 1 1 1h3c.552 0 1-.448 1-1v-3" transform="translate(14 17)"/><path d="m0 0c0-.553-.447-1-1-1h-3c-.552 0-1 .447-1 1v3c0 .552.448 1 1 1h3c.553 0 1-.448 1-1v-3" transform="translate(21 17)"/><path d="m0 0h-5v-7h5c.552 0 1 .447 1 1v5c0 .552-.448 1-1 1" transform="translate(6 21)"/></g><path d="m2 9h-1v2h1v-2" fill="#ffe8b6"/><path d="m37 9h-1v2h1v-2" fill="#ea596e"/><path d="m37 14h-1v-2h1v2" fill="#f4abba"/></g></g></svg>