<svg xmlns="http://www.w3.org/2000/svg" viewBox="0 0 47.5 47.5" enable-background="new 0 0 47.5 47.5" xmlns:xlink="http://www.w3.org/1999/xlink"><defs><path id="1" d="m0 0c0-.553-.447-1-1-1h-20c-.552 0-1 .447-1 1 0 .553.448 1 1 1h20c.553 0 1-.447 1-1" fill="#99aab5"/><clipPath id="0"><path d="m0 38h38v-38h-38v38"/></clipPath></defs><g transform="matrix(1.25 0 0-1.25 0 47.5)"><g clip-path="url(#0)"><path d="m0 0c0-2.209-1.791-4-4-4h-22c-2.209 0-4 1.791-4 4v28c0 2.209 1.791 4 4 4h22c2.209 0 4-1.791 4-4v-28" fill="#ccd6dd" transform="translate(32 5)"/><use transform="translate(28 13)" xlink:href="#1"/><g fill="#99aab5"><path d="m0 0c0-.553-.448-1-1-1h-4c-.552 0-1 .447-1 1 0 .553.448 1 1 1h4c.552 0 1-.447 1-1" transform="translate(12 9)"/><path d="m0 0c0-.552-.447-1-1-1h-20c-.552 0-1 .448-1 1 0 .552.448 1 1 1h20c.553 0 1-.448 1-1" transform="translate(28 29)"/></g><use transform="translate(28 25)" xlink:href="#1"/><use transform="translate(28 21)" xlink:href="#1"/><use transform="translate(28 17)" xlink:href="#1"/><path d="m0 0c-.827.535-1.837.579-2.521.022l-.792-.645-1.484-1.211-.099-.08-2.376-1.938-11.879-9.686c-.437-.357-.793-1.218-1.173-2.074-.379-.849-.969-2.851-1.443-4.39-.149-.25-1.065-1.846-.551-2.454.519-.615 2.326-.009 2.568.077 1.626.173 3.731.373 4.648.58.925.211 1.854.394 2.291.752.008.005.01.017.018.023l11.857 9.666.792.646.144.117v10.595" fill="#66757f" transform="translate(32 30.728)"/><path d="m0 0c0 0-1.274 1.881-2.117 2.553-.672.843-2.55 2.116-2.55 2.116-.448.446-1.191.48-1.628.043-.437-.438-.793-1.366-1.174-2.291-.471-1.146-1.276-4.154-1.768-5.752-.083-.273.517.45.504.21-.01-.187.026-.394.073-.581-.085-.093-.145-.158-.145-.158.056-.019.128-.042.209-.068.025-.082.05-.154.068-.21 0 0 .066.061.159.146.187-.047.394-.084.581-.074.24.013-.483-.587-.211-.503 1.598.493 4.608 1.296 5.753 1.767.924.381 1.854.737 2.291 1.174.437.437.404 1.18-.045 1.628" fill="#d99e82" transform="translate(19.14 14.474)"/><path d="m0 0c-.876-.875-.876-2.293 0-3.168l3.167-3.168c.876-.874 2.294-.874 3.168 0l3.169 3.168c.874.875.874 2.293 0 3.168l-3.169 3.167c-.874.875-2.292.875-3.168 0l-3.167-3.167" fill="#ea596e" transform="translate(26.313 32.649)"/><path d="m0 0c0 0 .795-.795 3.17-3.17 2.374-2.374 3.164-3.166 3.164-3.166l11.881 11.879-6.337 6.336-11.878-11.879" fill="#ffcc4d" transform="translate(12.849 19.19)"/><path d="m0 0c0 0-2.06-1.133-2.616-.576-.557.557.581 2.611.581 2.611 0 0 1.952-.036 2.035-2.035" fill="#292f33" transform="translate(12.298 10.258)"/><path d="m0 0l6.336-6.336-3.959-3.96-6.337 6.336 3.96 3.96" fill="#ccd6dd" transform="translate(28.688 35.02)"/><g fill="#99aab5"><path d="m0 0l6.336-6.335.793.791-6.336 6.336-.793-.792" transform="translate(27.1 33.441)"/><path d="m0 0l6.336-6.336.791.792-6.335 6.336-.792-.792" transform="translate(25.521 31.857)"/></g></g></g></svg>