<svg xmlns="http://www.w3.org/2000/svg" viewBox="0 0 47.5 47.5" enable-background="new 0 0 47.5 47.5"><defs><clipPath id="0"><path d="m0 38h38v-38h-38v38"/></clipPath><clipPath id="1"><path d="m8 25c0-3.515.677-6.419 2-10 2.418-6.542 0-14 9-14 9 0 6.581 7.458 9 14 1.323 3.581 2 6.485 2 10 0 6-4.373 10-11 10-6.628 0-11-4-11-10"/></clipPath></defs><g transform="matrix(1.25 0 0-1.25 0 47.5)"><g clip-path="url(#0)"><g fill="#c1694f"><path d="m0 0c0-3.038-.619-8-2-8-1.381 0-3-.038-3 3 0 3.038-1.5 10-1 10 .5 0 6-1.962 6-5" transform="translate(13 32)"/><path d="m0 0c0-3.038.619-8 2-8 1.381 0 3-.038 3 3 0 3.038 1.5 10 1 10-.5 0-6-1.962-6-5" transform="translate(25 32)"/></g><g fill="#662113"><path d="m0 0c0-1.657-.448-3-1-3-.552 0-1 1.343-1 3 0 1.657-.552 3 0 3 .552 0 2-1.343 2-3" transform="translate(11 31)"/><path d="m0 0c0-1.657.447-3 1-3 .553 0 1 1.343 1 3 0 1.657.553 3 0 3-.553 0-2-1.343-2-3" transform="translate(27 31)"/></g><path d="m0 0c0-3.516-.677-6.42-2-10-2.419-6.542 0-14-9-14-9 0-6.582 7.458-9 14-1.323 3.58-2 6.484-2 10 0 6 4.373 10 11 10 6.627 0 11-4 11-10" fill="#c1694f" transform="translate(30 25)"/></g><g clip-path="url(#1)"><path d="m0 0c4.16-6.24-2.478-8.5-8-8.5-5.523 0-12.983 2.895-8 8.5 4 4.5 6-.5 8-.5 2 0 5 5 8 .5" fill="#ccd6dd" transform="translate(27 9.5)"/></g><g clip-path="url(#0)"><path d="m0 0c0-9.941-1.451-22-4-22-2.549 0-4 12.06-4 22 0 2 1.451 4 4 4 2.549 0 4-2 4-4" fill="#d99e82" transform="translate(23 31)"/><g fill="#66757f"><path d="m0 0c0-1.104-.671-2-1.5-2-.829 0-1.5.896-1.5 2 0 1.104.671 2 1.5 2 .829 0 1.5-.896 1.5-2" transform="translate(16 8)"/><path d="m0 0c0-1.104-.672-2-1.5-2-.828 0-1.5.896-1.5 2 0 1.104.672 2 1.5 2 .828 0 1.5-.896 1.5-2" transform="translate(25 8)"/></g><g fill="#292f33"><path d="m0 0c0-.829-.671-1.5-1.5-1.5-.829 0-1.5.671-1.5 1.5v2c0 .829.671 1.5 1.5 1.5.829 0 1.5-.671 1.5-1.5v-2" transform="translate(12 22.5)"/><path d="m0 0c0-.829-.672-1.5-1.5-1.5-.828 0-1.5.671-1.5 1.5v2c0 .829.672 1.5 1.5 1.5.828 0 1.5-.671 1.5-1.5v-2" transform="translate(29 22.5)"/></g><path d="m0 0c1-2 0-6-4-8-.544-.272 3 3 1 4-.842.421-2.174-3.042-2-2 1 6-5 4-4 7 .524 1.572 2.343 2 4 2 2.75 0 4.259-1.518 5-3" fill="#662113" transform="translate(24 34)"/></g></g></svg>