<svg xmlns="http://www.w3.org/2000/svg" viewBox="0 0 47.5 47.5" enable-background="new 0 0 47.5 47.5"><defs><clipPath id="0"><path d="m0 38h38v-38h-38v38"/></clipPath></defs><g transform="matrix(1.25 0 0-1.25 0 47.5)"><g clip-path="url(#0)"><path d="m0 0c.217 2.391-.513 4.558-2.057 6.102l-16.263 16.262c-.391.391-1.024.391-1.414.001-.391-.391-.391-1.024 0-1.415l16.263-16.263c1.117-1.117 1.642-2.716 1.479-4.505-.159-1.748-.957-3.456-2.188-4.687-1.23-1.23-2.937-2.027-4.685-2.186-1.781-.162-3.39.362-4.506 1.478l-18.384 18.385c-.981.981-1.059 2.204-.953 3.058.15 1.196.754 2.401 1.66 3.307 1.7 1.7 4.616 2.453 6.363.706l14.85-14.848c1.119-1.121.026-2.803-.708-3.537-.733-.735-2.417-1.826-3.535-.707l-11.314 11.314c-.39.391-1.024.39-1.414 0-.391-.39-.39-1.023 0-1.414l11.314-11.314c1.859-1.858 4.608-1.049 6.363.707 1.758 1.757 2.566 4.507.708 6.365l-14.85 14.848c-2.62 2.62-6.812 1.674-9.191-.706-1.215-1.214-2.027-2.845-2.231-4.472-.229-1.833.313-3.51 1.524-4.721l18.384-18.385c1.365-1.365 3.218-2.094 5.281-2.094.27 0 .544.013.82.037 2.206.202 4.363 1.209 5.918 2.765 1.557 1.556 2.565 3.713 2.766 5.919" fill="#99aab5" transform="translate(36.35 11.746)"/></g></g></svg>