<svg xmlns="http://www.w3.org/2000/svg" viewBox="0 0 47.5 47.5" enable-background="new 0 0 47.5 47.5"><defs><clipPath id="0"><path d="m0 38h38v-38h-38v38"/></clipPath></defs><g transform="matrix(1.25 0 0-1.25 0 47.5)"><g clip-path="url(#0)"><path d="m0 0c0-4-4-4-4-4h-28c-4 0-4 4-4 4v28c0 4 4 4 4 4h28c0 0 4 0 4-4v-28" fill="#f4900c" transform="translate(37 5)"/><path d="m0 0v-4h-14v20h14v-16h2v18c0 3-3 3-3 3h-12c-3 0-3-3-3-3v-24c0-3 3-3 3-3h12c3 0 3 3 3 3v6h-2" fill="#fff" transform="translate(20 13)"/><path d="m0 0c0 0 1 2 4 2 5 0 5-5 5-5 0-6-9-11-9-11 0 0-9 5-9 11 0 0 0 5 5 5 3 0 4-2 4-2" fill="#f4900c" transform="translate(24 23)"/><path d="m0 0c-3.955 0-4-3.837-4-4 0-4.584 6.196-8.729 8-9.837 1.804 1.108 8 5.253 8 9.837-.004.405-.147 4-4 4-2.299 0-3.08-1.401-3.112-1.46-.177-.329-.53-.542-.9-.533-.373.006-.716.212-.883.546-.025.046-.806 1.447-3.105 1.447m4-16c-.167 0-.335.042-.485.126-.389.216-9.515 5.36-9.515 11.874 0 2.075 1.254 6 6 6 1.979 0 3.25-.75 4-1.437.75.687 2.02 1.437 4 1.437 4.746 0 6-3.925 6-6 0-6.514-9.126-11.658-9.515-11.874-.15-.084-.318-.126-.485-.126" fill="#fff" transform="translate(20 24)"/></g></g></svg>