<svg xmlns="http://www.w3.org/2000/svg" viewBox="0 0 47.5 47.5" enable-background="new 0 0 47.5 47.5"><defs><clipPath id="0"><path d="m0 38h38v-38h-38v38"/></clipPath></defs><g transform="matrix(1.25 0 0-1.25 0 47.5)"><g clip-path="url(#0)"><path d="m0 0c-2.75 0-2 6-2 6 0 1.104 2.646 2 3.75 2 1.104 0 3.25.104 3.25-1 0 0-2.25-7-5-7" fill="#292f33" transform="translate(26 2)"/><path d="m0 0c-2.75 0-2 6-2 6 0 1.104 2.646 2 3.75 2 1.104 0 3.25.104 3.25-1 0 0-2.25-7-5-7" fill="#66757f" transform="translate(29 1)"/><path d="m0 0c-2.75 0-4 6-4 6 0 1.104 2.646 2 3.75 2 1.104 0 3.25.104 3.25-1 0 0-.25-7-3-7" fill="#292f33" transform="translate(15 2)"/><path d="m0 0c-2.75 0-4 6-4 6 0 1.104 2.646 2 3.75 2 1.104 0 3.25.104 3.25-1 0 0-.25-7-3-7" fill="#66757f" transform="translate(18 1)"/><path d="m0 0c0-7.782-4.495-11.408-14.519-11.408-10.02 0-13.481 3.626-13.481 11.408 0 7.783 3.458 11.407 13.481 11.407 10.02 0 14.519-3.624 14.519-11.407" fill="#e1e8ed" transform="translate(36.75 15.616)"/><path d="m0 0c0-9.333-4.655-11.333-8.958-11.333-4.304 0-7.04 6.64-7.04 11.333 0 4.694 2.738 5.667 7.04 5.667 4.303 0 8.958-.973 8.958-5.667" fill="#99aab5" transform="translate(18 19.333)"/><path d="m0 0c0-.828-.671-1.5-1.5-1.5-.829 0-1.5.672-1.5 1.5 0 .828.671 1.5 1.5 1.5.829 0 1.5-.672 1.5-1.5" fill="#292f33" transform="translate(7 16.5)"/><path d="m0 0c-1.75-3.25-2.128-2.606-7.128-4.606-3.077-1.231-8.622-.894-8.622 3.856 0 1.933 3.687 2.5 7 2.5 3.313 0 10.409 1.332 8.75-1.75" fill="#e1e8ed" transform="translate(16.75 24.25)"/><path d="m0 0c3.353-2.427 5.43-6.139 3.724-11.09-1.368-3.967-6.817-3.116-9.617-1.127-2.798 1.988-2.642 4.792-1.733 6.291.909 1.497 4.158 1.228 6.02-.097.934-.663.288-1.56-.72-1.068-2.292 1.118-3.037-1.444-1.246-2.882 1.265-1.016 3.274-1.049 3.655 1.01.671 3.629-3.505 6.274-7.465 5.301 2.378 1.357 4.539 5.716 7.378 3.661" fill="#ffcc4d" transform="translate(17 23.304)"/></g></g></svg>