<svg xmlns="http://www.w3.org/2000/svg" viewBox="0 0 47.5 47.5" enable-background="new 0 0 47.5 47.5"><defs><clipPath id="0"><path d="m0 38h38v-38h-38v38"/></clipPath></defs><g transform="matrix(1.25 0 0-1.25 0 47.5)"><g clip-path="url(#0)"><path d="m0 0c0-.828-.672-1.5-1.5-1.5h-33c-.829 0-1.5.672-1.5 1.5 0 .828.671 1.5 1.5 1.5h33c.828 0 1.5-.672 1.5-1.5" fill="#ccd6dd" transform="translate(37 2.5)"/><path d="m0 0c0 0-.522-.063-1.05-2.158-.526-2.089-.342-4.063-.344-6.656-.001-.671 1.045-1.082 1.045-1.082l33.519-.041c0 0 1.048.443 1.048 1.079.003 1.354-.67 5.237-5.071 5.237-1.047 0-5.27-.049-8.537 2.341-1.208.882-5.86 2.852-7.953 3.934-2.094 1.084-2.184-3.748-6.374-3.742-4.189.006-4.188 1.084-6.283 1.088" fill="#55acee" transform="translate(2.452 13.613)"/><g fill="#269"><path d="m0 0l-.61 1.783c2.696.923 3.617 2.688 3.655 2.762l1.691-.831c-.05-.103-1.261-2.525-4.736-3.714" transform="translate(13.312 9.98)"/><path d="m0 0l-.611 1.783c2.697.924 3.642 2.737 3.651 2.754l1.695-.824c-.051-.103-1.262-2.523-4.735-3.713" transform="translate(18.04 7.697)"/></g><path d="m0 0h-34c-.552 0-1 .447-1 1 0 .553.448 1 1 1h34c.553 0 1-.447 1-1 0-.553-.447-1-1-1" fill="#3b88c3" transform="translate(36 3)"/></g></g></svg>