<svg xmlns="http://www.w3.org/2000/svg" viewBox="0 0 47.5 47.5" enable-background="new 0 0 47.5 47.5"><defs><clipPath id="0"><path d="m0 38h38v-38h-38v38"/></clipPath></defs><g transform="matrix(1.25 0 0-1.25 0 47.5)"><g clip-path="url(#0)"><path d="m0 0c0-9.389-7.611-17-17-17-9.388 0-17 7.611-17 17 0 9.388 7.612 17 17 17 9.389 0 17-7.612 17-17" fill="#ffcc4d" transform="translate(36 19)"/><g fill="#664500"><path d="m0 0c-.059.135-1.499 3.297-4.457 3.297-2.957 0-4.397-3.162-4.457-3.297-.092-.207-.032-.449.144-.591.175-.142.426-.147.611-.014.012.009 1.262.902 3.702.902 2.426 0 3.674-.881 3.702-.901.088-.066.194-.099.298-.099.11 0 .221.037.312.109.177.142.238.386.145.594" transform="translate(29.457 19.2)"/><path d="m0 0c-.06.135-1.499 3.297-4.457 3.297-2.957 0-4.397-3.162-4.457-3.297-.092-.207-.032-.449.144-.591.176-.142.427-.147.61-.014.013.009 1.262.902 3.703.902 2.426 0 3.674-.881 3.702-.901.088-.066.194-.099.298-.099.11 0 .221.037.312.109.178.142.237.386.145.594" transform="translate(17.457 19.2)"/><path d="m0 0c-.396 0-.772.238-.929.629-1.778 4.445-6.222 5.381-6.267 5.391-.541.108-.893.635-.784 1.176.108.542.634.891 1.176.784.226-.044 5.556-1.168 7.733-6.608.205-.513-.045-1.095-.558-1.3-.121-.049-.247-.072-.371-.072" transform="translate(32 21)"/><path d="m0 0c-.124 0-.249.023-.371.072-.513.205-.762.787-.557 1.3 2.176 5.44 7.507 6.564 7.732 6.608.544.107 1.069-.242 1.177-.784.108-.54-.242-1.066-.781-1.176-.185-.038-4.507-.98-6.271-5.391-.157-.391-.532-.628-.929-.629" transform="translate(6 21)"/><path d="m0 0c-3.623 0-6.03.422-9 1-.679.131-2 0-2-2 0-4 4.595-9 11-9 6.404 0 11 5 11 9 0 2-1.321 2.132-2 2-2.973-.578-5.377-1-9-1" transform="translate(19 15)"/></g><path d="m0 0c0 0 3-1 9-1 6 0 9 1 9 1 0 0-2-4-9-4-7 0-9 4-9 4" fill="#fff" transform="translate(10 14)"/><g fill="#5dadec"><path d="m0 0c-.68-2.677-3.4-4.295-6.077-3.615-2.676.678-4.295 3.399-3.615 6.076.679 2.677 6.337 8.708 7.307 8.462.968-.246 3.064-8.246 2.385-10.923" transform="translate(11.847 8.771)"/><path d="m0 0c.68-2.677 3.4-4.295 6.077-3.615 2.677.678 4.296 3.399 3.616 6.076-.679 2.677-6.338 8.708-7.307 8.462-.969-.246-3.065-8.246-2.386-10.923" transform="translate(26.13 8.771)"/></g></g></g></svg>