<svg xmlns="http://www.w3.org/2000/svg" viewBox="0 0 47.5 47.5" enable-background="new 0 0 47.5 47.5"><defs><clipPath id="0"><path d="m0 38h38v-38h-38v38"/></clipPath></defs><g transform="matrix(1.25 0 0-1.25 0 47.5)"><g clip-path="url(#0)"><path d="m0 0c0-9.389-7.611-17-17-17-9.388 0-17 7.611-17 17 0 9.388 7.612 17 17 17 9.389 0 17-7.612 17-17" fill="#ffcc4d" transform="translate(36 19)"/><g fill="#664500"><path d="m0 0c0-3.314-2.238-6-5-6-2.762 0-5 2.686-5 6 0 3.313 2.238 6 5 6 2.762 0 5-2.687 5-6" transform="translate(24 10)"/><path d="m0 0c-.208 0-.419.065-.599.2-.442.331-.531.958-.2 1.4 3.262 4.35 7.616 4.4 7.8 4.4.552 0 1-.448 1-1 0-.551-.445-.998-.996-1-.155-.002-3.569-.086-6.204-3.6-.197-.262-.497-.4-.801-.4" transform="translate(6.999 26)"/><path d="m0 0c-.305 0-.605.138-.801.4-2.64 3.521-6.06 3.599-6.206 3.6-.55.006-.994.456-.991 1 .003.551.447.995.997.995.184 0 4.537-.05 7.8-4.4.332-.442.242-1.069-.2-1.4-.18-.135-.39-.2-.599-.2" transform="translate(31 26)"/><path d="m0 0l1.793 1.793c.391.391.391 1.023 0 1.414-.391.391-1.023.391-1.414 0l-1.793-1.793-1.793 1.793c-.391.391-1.023.391-1.414 0-.391-.391-.391-1.023 0-1.414l1.793-1.793-1.793-1.793c-.391-.391-.391-1.023 0-1.414.195-.195.451-.293.707-.293.256 0 .512.098.707.293l1.793 1.793 1.793-1.793c.195-.195.451-.293.707-.293.256 0 .512.098.707.293.391.391.391 1.023 0 1.414l-1.793 1.793" transform="translate(14.914 21.5)"/><path d="m0 0l1.793 1.793c.391.391.391 1.023 0 1.414-.391.391-1.024.391-1.414 0l-1.793-1.793-1.793 1.793c-.391.391-1.024.391-1.414 0-.391-.391-.391-1.023 0-1.414l1.793-1.793-1.793-1.793c-.391-.391-.391-1.023 0-1.414.195-.195.451-.293.707-.293.256 0 .512.098.707.293l1.793 1.793 1.793-1.793c.195-.195.451-.293.707-.293.256 0 .512.098.707.293.391.391.391 1.023 0 1.414l-1.793 1.793" transform="translate(25.914 21.5)"/></g></g></g></svg>