<svg xmlns="http://www.w3.org/2000/svg" viewBox="0 0 47.5 47.5" enable-background="new 0 0 47.5 47.5"><defs><clipPath id="0"><path d="m0 38h38v-38h-38v38"/></clipPath></defs><g transform="matrix(1.25 0 0-1.25 0 47.5)"><g clip-path="url(#0)" fill="#ffac33"><path d="m0 0c0-11 5-10 5-15 0 0 0-2-2-2h-26c-2 0-2 2-2 2 0 5 5 4 5 15 0 5.522 4.478 10 10 10 5.522 0 10-4.478 10-10" transform="translate(29 24)"/><path d="m0 0c0 1.657-1.344 3-3 3-1.657 0-3-1.343-3-3 0-1.657 1.343-3 3-3 1.656 0 3 1.343 3 3" transform="translate(22 34)"/><path d="m0 0c2.209 0 4 1.791 4 4h-8c0-2.209 1.791-4 4-4" transform="translate(19 1)"/></g></g></svg>