<svg xmlns="http://www.w3.org/2000/svg" viewBox="0 0 47.5 47.5" enable-background="new 0 0 47.5 47.5"><defs><clipPath id="0"><path d="m0 38h38v-38h-38v38"/></clipPath></defs><g transform="matrix(1.25 0 0-1.25 0 47.5)"><g clip-path="url(#0)"><path d="m0 0c0 0 .094 2.362-1.791 3.068-1.667.625-2.309-.622-2.309-.622 0 0 .059 1.914-1.941 2.622-1.885.668-2.75-.958-2.75-.958 0 0-.307 1.871-2.292 2.417-1.671.459-2.917-1.167-2.917-1.167v12.208c0 .959-.542 2.575-2.542 2.577-2 .001-2.458-1.66-2.458-2.577v-16.5-4c0-1-1-1-1 0v2.666c0 3.792-2.037 6.142-2.75 6.792-.713.65-1.667.98-2.82.735-1.956-.416-1.529-1.92-.974-3.198 1.336-3.078 2.253-7.463 2.532-9.538.791-5.857 5.809-10.375 11.884-10.38 6.626-.004 12.12 5.297 12.13 11.923v3.932" fill="#d99e82" transform="translate(31 16.856)"/></g></g></svg>