<svg xmlns="http://www.w3.org/2000/svg" viewBox="0 0 47.5 47.5" enable-background="new 0 0 47.5 47.5"><defs><clipPath id="0"><path d="m0 38h38v-38h-38v38"/></clipPath><clipPath id="1"><path d="m8.719 17c0-6.133 4.603-13 10.281-13 5.679 0 10.281 6.867 10.281 13 0 6.133-4.602 8.923-10.281 8.923-5.678 0-10.281-2.79-10.281-8.923"/></clipPath></defs><g transform="matrix(1.25 0 0-1.25 0 47.5)"><g clip-path="url(#0)" fill="#292f33"><path d="m0 0c0-1.657-.447-3-1-3-.552 0-1 1.343-1 3 0 1.657.448 3 1 3 .553 0 1-1.343 1-3" transform="translate(20 4)"/><path d="m0 0c-.586.586-1.693.428-2.475-.354-.611-.611-1.948-2.53-2.222-3.619-.884.195-1.93.22-3.056.22-1.125 0-2.172-.025-3.055-.219-.275 1.089-1.611 3.01-2.223 3.618-.781.782-1.888.94-2.474.354-.586-.586-.428-1.693.353-2.475.511-.51 1.937-1.529 3.03-2.01-.82-.533-1.315-1.451-1.315-3.03 0-3.589 2.546-7.312 5.687-7.312 3.142 0 5.688 3.723 5.688 7.312 0 1.581-.496 2.499-1.316 3.03 1.091.482 2.517 1.5 3.03 2.01.782.782.94 1.889.354 2.475" transform="translate(26.753 35.753)"/><path d="m0 0c0-6.134-4.603-13-10.281-13-5.678 0-10.281 6.866-10.281 13 0 6.133 4.603 8.923 10.281 8.923 5.678 0 10.281-2.79 10.281-8.923" transform="translate(29.28 17)"/></g><g clip-path="url(#1)"><g fill="#ffcc4d"><path d="m30 18h-22v4h22v-4"/><path d="m30 10h-22v4h22v-4"/><path d="m30 2h-22v4h22v-4"/></g><g fill="#292f33" transform="translate(19 23)"><path d="m0 0c0-2.647-7.858-10-12-10-4.142 0-6 5.354-6 8 0 2.646 1.858 1.584 6 1.584 4.143 0 12 3.061 12 .416"/><path d="m0 0c0-2.647 7.857-10 12-10 4.143 0 6 5.354 6 8 0 2.646-1.857 1.584-6 1.584-4.143 0-12 3.061-12 .416"/></g></g><g clip-path="url(#0)"><g fill="#ccd6dd" transform="translate(19 23.495)"><path d="m0 0c0-2.647-7.858-8.584-12-8.584-4.142 0-6 2.443-6 5.089 0 2.646 1.858 4.495 6 4.495 4.143 0 12 1.645 12-1"/><path d="m0 0c0-2.647 7.857-8.584 12-8.584 4.143 0 6 2.443 6 5.089 0 2.646-1.857 4.495-6 4.495-4.143 0-12 1.645-12-1"/></g><g fill="#99aab5"><path d="m0 0c-.552 0-1 .447-1 1 0 .551.446.999.998 1 .048 0 4.948.07 13.596 3.914.505.227 1.095-.002 1.32-.508.224-.505-.003-1.095-.508-1.32-9.09-4.04-14.193-4.086-14.406-4.086" transform="translate(3 18)"/><path d="m0 0c-.213 0-5.316.047-14.406 4.086-.505.225-.732.815-.508 1.32.225.505.817.732 1.32.508 8.648-3.844 13.548-3.914 13.597-3.914.551-.003.997-.452.996-1-.002-.551-.448-.997-.999-.997" transform="translate(35 18)"/></g></g></g></svg>