<svg xmlns="http://www.w3.org/2000/svg" viewBox="0 0 47.5 47.5" enable-background="new 0 0 47.5 47.5" xmlns:xlink="http://www.w3.org/1999/xlink"><defs><clipPath id="0"><path d="m0 38h38v-38h-38v38"/></clipPath></defs><g transform="matrix(1.25 0 0-1.25 0 47.5)"><g clip-path="url(#0)"><path d="m0 0c0-9.389-7.611-17-17-17-9.388 0-17 7.611-17 17 0 9.388 7.612 17 17 17 9.389 0 17-7.612 17-17" fill="#ffcc4d" transform="translate(36 19)"/><path d="m0 0c0-1.934-1.119-3.5-2.5-3.5-1.381 0-2.5 1.566-2.5 3.5 0 1.933 1.119 3.5 2.5 3.5 1.381 0 2.5-1.567 2.5-3.5" fill="#664500" transform="translate(15 20.5)" id="1"/><use transform="translate(13)" xlink:href="#1"/><g fill="#664500"><path d="m0 0c-.208 0-.419.065-.599.2-.442.331-.531.958-.2 1.4 3.262 4.35 7.616 4.4 7.8 4.4.552 0 1-.448 1-1 0-.551-.445-.998-.996-1-.155-.002-3.569-.086-6.204-3.6-.197-.262-.497-.4-.801-.4" transform="translate(6.999 24)"/><path d="m0 0c-.305 0-.605.138-.801.4-2.64 3.521-6.06 3.599-6.206 3.6-.55.006-.994.456-.991 1 .003.551.447.995.997.995.184 0 4.537-.05 7.8-4.4.332-.442.242-1.069-.2-1.4-.18-.135-.39-.2-.599-.2" transform="translate(31 24)"/><path d="m0 0c-.012.044-1.146 4.379-5.485 4.379-4.341 0-5.475-4.335-5.485-4.379-.053-.213.043-.431.231-.544.188-.112.433-.086.596.06.01.007 1.014.863 4.658.863 3.589 0 4.617-.83 4.656-.863.095-.09.219-.137.344-.137.084 0 .169.021.246.064.196.112.294.339.239.557" transform="translate(24.485 9.121)"/></g><path d="m0 0c0-2.762-2.238-5-5-5-2.762 0-5 2.238-5 5 0 2.762 4 10 5 10 1 0 5-7.238 5-10" fill="#5dadec" transform="translate(17 5)"/></g></g></svg>