<svg xmlns="http://www.w3.org/2000/svg" viewBox="0 0 47.5 47.5" enable-background="new 0 0 47.5 47.5"><defs><clipPath id="0"><path d="m0 38h38v-38h-38v38"/></clipPath></defs><g transform="matrix(1.25 0 0-1.25 0 47.5)"><g clip-path="url(#0)"><path d="m0 0c.374.11.758.166 1.143.166 1.779 0 3.372-1.193 3.875-2.901.628-2.138-.599-4.39-2.738-5.02-.372-.111-.757-.166-1.141-.166-1.779 0-3.372 1.193-3.875 2.902-.63 2.138.598 4.39 2.736 5.02m18.998-10.515c-.13.437-.422.799-.821 1.015-.802.436-1.879.117-2.317-.682-1.797-3.296-4.77-5.695-8.372-6.757-3.563-1.051-7.436-.634-10.697 1.144-2.558 1.393-4.42 3.699-5.242 6.493-.74 2.513-.495 5.02.552 7.03-.363-1.605-.313-3.284.164-4.907.737-2.507 2.407-4.575 4.701-5.823 2.733-1.493 5.989-1.841 8.978-.961 3.03.891 5.522 2.906 7.03 5.671 1.832 3.359 2.246 7.229 1.165 10.898-1.08 3.669-3.525 6.698-6.883 8.529-4.053 2.208-8.873 2.725-13.299 1.42-4.477-1.318-8.173-4.301-10.407-8.398-.45-.826-.145-1.865.682-2.317.803-.44 1.883-.117 2.319.682 1.795 3.295 4.768 5.694 8.371 6.755 3.563 1.049 7.438.635 10.699-1.142 2.556-1.393 4.416-3.7 5.239-6.495.742-2.514.497-5.02-.551-7.03.363 1.604.314 3.285-.162 4.911-.74 2.504-2.41 4.572-4.703 5.823-2.734 1.49-5.99 1.839-8.98.959-3.02-.89-5.518-2.904-7.03-5.671-1.832-3.357-2.246-7.227-1.165-10.897 1.081-3.671 3.525-6.7 6.883-8.529 2.568-1.401 5.451-2.141 8.341-2.141 1.669 0 3.337.242 4.958.72 4.477 1.317 8.173 4.3 10.406 8.398.219.401.269.864.139 1.303" fill="#55acee" transform="translate(17.784 22.998)"/></g></g></svg>