<svg xmlns="http://www.w3.org/2000/svg" viewBox="0 0 47.5 47.5" enable-background="new 0 0 47.5 47.5"><defs><clipPath id="0"><path d="m0 38h38v-38h-38v38"/></clipPath></defs><g transform="matrix(1.25 0 0-1.25 0 47.5)"><g clip-path="url(#0)"><path d="m0 0c0-9.389-7.611-17-17-17-9.388 0-17 7.611-17 17 0 9.388 7.612 17 17 17 9.389 0 17-7.612 17-17" fill="#ffcc4d" transform="translate(36 19)"/><path d="m0 0c-3.623 0-6.03.422-9 1-.679.131-2 0-2-2 0-4 4.595-9 11-9 6.404 0 11 5 11 9 0 2-1.321 2.132-2 2-2.973-.578-5.377-1-9-1" fill="#664500" transform="translate(19 15)"/><path d="m0 0c0 0 3-1 9-1 6 0 9 1 9 1 0 0-2-4-9-4-7 0-9 4-9 4" fill="#fff" transform="translate(10 14)"/><g fill="#664500"><path d="m0 0c-.114.085-1.931 1.426-4.646 2.344.027.115.046.233.046.356 0 .369-.138.703-.359.964 1.803.521 3.334.536 3.361.536.551.002.998.45.997 1-.001.551-.447.998-.999.998-.22 0-5.451-.037-8.707-3.293-.286-.286-.372-.716-.216-1.09.154-.373.519-.617.923-.617 4.59 0 8.364-2.772 8.402-2.801.18-.133.389-.198.597-.198.305 0 .606.139.802.401.33.442.24 1.067-.201 1.398" transform="translate(31.6 18.8)"/><path d="m0 0c-3.255 3.255-8.486 3.293-8.707 3.293-.552 0-.999-.447-.999-.999-.001-.551.446-1 .998-1 .026 0 1.558-.016 3.36-.536-.22-.261-.359-.595-.359-.964 0-.123.019-.241.047-.356-2.716-.918-4.533-2.259-4.647-2.344-.442-.331-.531-.958-.2-1.4.196-.262.497-.4.801-.4.208 0 .419.065.599.2.037.028 3.787 2.8 8.4 2.8.404 0 .769.244.924.617.155.374.069.804-.217 1.09" transform="translate(16.707 21.707)"/></g></g></g></svg>