<svg xmlns="http://www.w3.org/2000/svg" viewBox="0 0 47.5 47.5" enable-background="new 0 0 47.5 47.5"><defs><clipPath id="0"><path d="m0 38h38v-38h-38v38"/></clipPath></defs><g transform="matrix(1.25 0 0-1.25 0 47.5)"><g clip-path="url(#0)"><g fill="#ffcc4d"><path d="m0 0c-1.853 0-4.235-1.849-6.22-4.826-2.322-3.483-1.069-5.988-.062-8 .155-.31.459-.517.804-.548.031-.003.061-.004.09-.004.313 0 .611.147.8.4 2.395 3.192 6.211 8.196 6.907 8.893.188.187.293.441.293.707 0 2.492-1.349 3.38-2.612 3.38" transform="translate(22.388 36.38)"/><path d="m0 0c-1.21 0-2.575-1.132-4.565-3.785-2.124-2.832-2.462-5.314-1.095-8.05.151-.301.444-.506.779-.545.039-.005.077-.007.115-.007.295 0 .578.131.769.359 1.719 2.064 5.173 6.168 5.938 6.934.188.187.293.442.293.707 0 1.084 0 4.385-2.234 4.385" transform="translate(24.766 27.385)"/></g><path d="m0 0c-.268.482-.878.654-1.359.385-7.171-3.983-13.784-14.15-16.367-19.609.838 10.195 5.569 20.04 13.559 28.03.391.391.391 1.023 0 1.414-.391.391-1.023.391-1.414 0-7.963-7.963-12.827-17.717-14-27.881-.674 5.698-.977 13.91 1.626 19.768.224.505-.003 1.096-.508 1.32-.505.226-1.096-.003-1.32-.508-1.325-2.983-1.945-6.501-2.161-10.01-.885 1.884-1.924 3.602-3.453 3.602h-.046c-.91 0-1.691-.466-2.321-1.725-.247-.495-.046-.922.448-1.169.495-.248 1.094-.047 1.342.447.311.622.524.769.521.792.636-.196 1.744-2.696 2.162-3.642.196-.443.374-.842.527-1.15.148-.296.425-.478.728-.529.026-4.958.698-9.531 1.163-12.09l.02-.111c.087-.483.508-.822.983-.822.059 0 .119.005.179.016.122.022.23.071.331.132.147-.085.308-.148.491-.148.183 0 .344.063.492.148.144-.085.302-.148.482-.148h.025c.531 0 .972.448 1 .981.057 1.037 2.494 6.01 6.143 11.04.103.014.207.033.304.082.244.122.517.272.808.432.933.517 2.494 1.38 3.106 1.02.15-.088.639-.534.639-2.558 0-.553.447-1 1-1 .553 0 1 .447 1 1 0 2.236-.53 3.636-1.622 4.28-.783.461-1.668.424-2.54.174 2.32 2.715 4.938 5.165 7.647 6.671.484.268.658.875.389 1.358" fill="#77b255" transform="translate(30.874 25.483)"/></g></g></svg>