<svg xmlns="http://www.w3.org/2000/svg" viewBox="0 0 47.5 47.5" enable-background="new 0 0 47.5 47.5"><defs><clipPath id="0"><path d="m0 38h38v-38h-38v38"/></clipPath></defs><g transform="matrix(1.25 0 0-1.25 0 47.5)"><g clip-path="url(#0)"><path d="m0 0c1.587 3.151 7.698 1.916 11.958-2.171 2.698-2.586 8.06-1.498 11.499-4.804 3.493-3.354 3.258-9.361-3.053-15.767-5.085-5.161-12.09-5.161-16.25-1.545-4.388 3.81-2.475 8.61-4.411 13.585-1.937 4.976-4.324 10.424.257 10.702" fill="#a6d388" transform="translate(8.681 27.903)"/><path d="m0 0c-.43-.448-1.114-.489-1.527-.093-3.208 3.079-3.918 7.545-3.946 7.776-.074.587.348 1.157.938 1.278.593.121 1.132-.256 1.205-.841.006-.05.658-3.997 3.36-6.591.413-.397.4-1.081-.03-1.529" fill="#662113" transform="translate(9.178 27.466)"/></g></g></svg>