<svg xmlns="http://www.w3.org/2000/svg" viewBox="0 0 47.5 47.5" enable-background="new 0 0 47.5 47.5"><defs><clipPath id="0"><path d="m0 38h38v-38h-38v38"/></clipPath></defs><g transform="matrix(1.25 0 0-1.25 0 47.5)"><g clip-path="url(#0)"><path d="m0 0c1.688-18.224-10.312-31.22-29.535-29.536 8.199-7.717 21.09-7.588 29.11.429 8.02 8.02 8.147 20.909.428 29.11" fill="#ccd6dd" transform="translate(31.31 36.22)"/><g fill="#b8c5cd"><path d="m0 0c-.453-.454-.453-1.189 0-1.644.454-.453 1.189-.453 1.644 0 .454.455.455 1.19 0 1.644-.455.454-1.19.454-1.644 0" transform="translate(31.705 21.09)"/><path d="m0 0c-.682-.681-.682-1.783 0-2.465.68-.681 1.784-.681 2.464 0 .681.682.681 1.784 0 2.465-.68.682-1.784.682-2.464 0" transform="translate(15.683 6.705)"/><path d="m0 0c-1.135-1.135-2.974-1.135-4.108 0-1.135 1.135-1.135 2.975 0 4.107 1.134 1.136 2.973 1.136 4.108 0 1.135-1.132 1.135-2.972 0-4.107" transform="translate(29.651 8.852)"/></g></g></g></svg>