<svg xmlns="http://www.w3.org/2000/svg" viewBox="0 0 47.5 47.5" enable-background="new 0 0 47.5 47.5"><defs><clipPath id="0"><path d="m0 38h38v-38h-38v38"/></clipPath></defs><g transform="matrix(1.25 0 0-1.25 0 47.5)"><g clip-path="url(#0)"><path d="m0 0c-8 0-8-6-8-6v11h-4v-11c0 0 0 6-8 6-4 0-7 2-7 2 0 0 0-9 9-9h6c0 0 0-2 2-2 2 0 2 2 2 2h6c9 0 9 9 9 9 0 0-3-2-7-2" fill="#3e721d" transform="translate(29 10)"/><path d="m0 0c-.328 0-.651.097-.927.283l-2.323 1.575-2.322-1.575c-.277-.186-.601-.283-.929-.283-.144 0-.287.018-.429.057-.462.123-.85.441-1.06.874l-1.224 2.527-2.798-.204c-.039-.002-.079-.004-.118-.004-.438 0-.86.174-1.17.484-.34.342-.516.811-.482 1.288l.201 2.8-2.523 1.225c-.432.209-.751.598-.875 1.061-.125.464-.042.958.228 1.356l1.573 2.323-1.573 2.322c-.27.398-.353.893-.228 1.358.124.462.443.85.875 1.06l2.523 1.224-.201 2.798c-.034.48.142.951.482 1.288.309.312.732.485 1.17.485.039 0 .079 0 .118-.003l2.798-.201 1.224 2.523c.21.432.598.751 1.06.876.142.037.285.057.429.057.328 0 .651-.098.929-.285l2.322-1.574 2.323 1.574c.276.187.599.285.927.285.144 0 .29-.02.428-.057.465-.125.853-.444 1.062-.876l1.225-2.523 2.8.201c.037.003.078.003.116.003.437 0 .858-.173 1.172-.485.338-.337.514-.808.48-1.288l-.204-2.798 2.527-1.224c.433-.21.751-.598.874-1.06.124-.465.043-.96-.226-1.358l-1.575-2.322 1.575-2.323c.269-.398.35-.892.226-1.356-.123-.463-.441-.852-.874-1.061l-2.527-1.225.204-2.8c.034-.477-.142-.946-.48-1.288-.314-.31-.735-.484-1.172-.484-.038 0-.079.002-.116.004l-2.8.204-1.225-2.527c-.209-.433-.597-.751-1.062-.874-.139-.039-.284-.057-.428-.057" fill="#ffac33" transform="translate(22.13 9.338)"/><path d="m0 0c0 3.866-3.135 7-7 7-3.866 0-7-3.134-7-7 0-3.866 3.134-7 7-7 3.865 0 7 3.134 7 7" fill="#732700" transform="translate(26 23)"/></g></g></svg>