<svg xmlns="http://www.w3.org/2000/svg" viewBox="0 0 47.5 47.5" enable-background="new 0 0 47.5 47.5"><defs><clipPath id="0"><path d="m0 38h38v-38h-38v38"/></clipPath></defs><g transform="matrix(1.25 0 0-1.25 0 47.5)"><g clip-path="url(#0)"><path d="m0 0c0-2.209-8-2.209-8 0v10c0 2.209 1.791 4 4 4 2.209 0 4-1.791 4-4v-10" fill="#c1694f" transform="translate(23 4)"/><path d="m0 0h-16v-20h8 8 8v12c0 4.418-3.582 8-8 8" fill="#99aab5" transform="translate(27 34)"/><path d="m0 0c-4.418 0-8-3.582-8-8v-12h16v12c0 4.418-3.582 8-8 8" fill="#292f33" transform="translate(11 34)"/><path d="m0 0c-3.866 0-7-3.582-7-8v-12h14v12c0 4.418-3.134 8-7 8" fill="#99aab5" transform="translate(10 34)"/><path d="m0 0h-4c-1.104 0-2-.896-2-2v-2-10c0-1.104.896-2 2-2 1.104 0 2 .896 2 2v8h2c1.104 0 2 .896 2 2v2c0 1.104-.896 2-2 2" fill="#dd2e44" transform="translate(27 36)"/></g></g></svg>