<svg xmlns="http://www.w3.org/2000/svg" viewBox="0 0 47.5 47.5" enable-background="new 0 0 47.5 47.5"><defs><clipPath id="0"><path d="m0 38h38v-38h-38v38"/></clipPath></defs><g transform="matrix(1.25 0 0-1.25 0 47.5)"><g clip-path="url(#0)"><path d="m0 0c-.719 0-2.295-2.243-3.567-1.029-.44.42 1.817 1.279 1.727 2.02-.076.608-2.843 1.52-1.876 2.099.967.578 2.418-.841 3.513-.866 2.382-.054 4.212.853 4.238.866.541.274 1.195.052 1.464-.496.27-.547.051-1.213-.488-1.486-.13-.066-2.225-1.105-5.01-1.105" fill="#dd2e44" transform="translate(12.84 29.366)"/><path d="m0 0c-3.967 0-8.182 2.912-8.182 8.308 0 1.374-.889 1.661-1.636 1.661-.746 0-1.637-.287-1.637-1.661 0-5.396-4.215-8.308-8.182-8.308-3.966 0-8.181 2.77-8.181 8.308 0 13.292 14.181 15.13 14.181 13.292 0-1.835-7.636 1.108-7.636-12.185 0-2.215.89-2.769 1.636-2.769.747 0 1.637.288 1.637 1.662 0 5.395 4.215 8.307 8.182 8.307 3.965 0 8.181-2.912 8.181-8.307 0-1.374.89-1.662 1.637-1.662.747 0 1.636.288 1.636 1.662v16.615c0 3.855-3.417 4.431-5.454 4.431 0 0-3.273-1.108-6.546-1.108-3.273 0-4.364 2.596-4.364 4.431 0 1.835 4.364 3.323 10.91 3.323 6.546 0 12-4.451 12-11.08v-16.615c0-5.396-4.216-8.308-8.182-8.308" fill="#77b255" transform="translate(28.818 1)"/><path d="m0 0c0-.552-.447-1-1-1-.553 0-1 .448-1 1 0 .552.447 1 1 1 .553 0 1-.448 1-1" fill="#292f33" transform="translate(21 34)"/></g></g></svg>