<svg xmlns="http://www.w3.org/2000/svg" viewBox="0 0 47.5 47.5" enable-background="new 0 0 47.5 47.5"><defs><clipPath id="0"><path d="m0 38h38v-38h-38v38"/></clipPath></defs><g transform="matrix(1.25 0 0-1.25 0 47.5)"><g clip-path="url(#0)"><path d="m0 0c0-9.389-7.611-17-17-17-9.389 0-17 7.611-17 17 0 9.389 7.611 17 17 17 9.389 0 17-7.611 17-17" fill="#ffcc4d" transform="translate(36 19)"/><g fill="#ff7892"><path d="m0 0c0-2.762-2.239-5-5-5-2.761 0-5 2.238-5 5 0 2.761 2.239 5 5 5 2.761 0 5-2.239 5-5" transform="translate(13 19)"/><path d="m0 0c0-2.762-2.238-5-5-5-2.762 0-5 2.238-5 5 0 2.761 2.238 5 5 5 2.762 0 5-2.239 5-5" transform="translate(35 19)"/></g><g fill="#664500"><path d="m0 0c-.178.161-.444.171-.635.029-.039-.029-3.922-2.9-8.7-2.9-4.766 0-8.662 2.871-8.7 2.9-.191.142-.457.13-.635-.029-.177-.16-.217-.424-.094-.628.129-.215 3.217-5.243 9.429-5.243 6.212 0 9.301 5.03 9.429 5.243.123.205.084.468-.094.628" transform="translate(28.335 15.371)"/><path d="m0 0c-.15 0-.303.034-.446.105-.494.248-.695.849-.448 1.342.053.105 1.319 2.553 4.895 2.553 3.577 0 4.842-2.449 4.894-2.553.248-.494.047-1.094-.447-1.342-.491-.244-1.085-.048-1.336.437-.043.079-.83 1.458-3.111 1.458-2.317 0-3.099-1.433-3.105-1.447-.176-.351-.529-.553-.896-.553" transform="translate(8.999 22)"/><path d="m0 0c-.367-.001-.72.202-.896.553-.025.046-.806 1.447-3.105 1.447-2.299 0-3.08-1.401-3.112-1.46-.26-.481-.86-.67-1.345-.42-.485.252-.682.838-.438 1.327.052.104 1.318 2.553 4.895 2.553 3.577 0 4.843-2.449 4.894-2.553.248-.494.047-1.094-.447-1.342-.143-.071-.296-.105-.446-.105" transform="translate(29 22)"/></g></g></g></svg>