<svg xmlns="http://www.w3.org/2000/svg" viewBox="0 0 47.5 47.5" enable-background="new 0 0 47.5 47.5"><defs><clipPath id="0"><path d="m0 38h38v-38h-38v38"/></clipPath></defs><g transform="matrix(1.25 0 0-1.25 0 47.5)"><g clip-path="url(#0)"><path d="m0 0c0-9.389-7.611-17-17-17-9.389 0-17 7.611-17 17 0 9.389 7.611 17 17 17 9.389 0 17-7.611 17-17" fill="#ffcc4d" transform="translate(36 19)"/><g fill="#664500"><path d="m0 0c-.012.044-1.146 4.379-5.485 4.379-4.341 0-5.475-4.335-5.485-4.379-.053-.213.043-.431.231-.544.188-.112.433-.086.596.06.01.007 1.014.863 4.658.863 3.589 0 4.617-.83 4.656-.863.095-.09.219-.137.344-.137.084 0 .169.021.246.064.196.112.294.339.239.557" transform="translate(24.485 8.121)"/><path d="m0 0c-.341.093-.692.14-1.043.14-2.345 0-4.053-2.06-4.125-2.147-.143-.176-.148-.426-.017-.609.134-.184.374-.253.586-.174.005.002.573.215 1.565.215.714 0 1.468-.108 2.244-.32 2.342-.637 3.313-1.818 3.334-1.843.098-.124.243-.192.394-.192.066 0 .133.014.197.041.209.09.331.31.297.534-.023.147-.578 3.577-3.432 4.355" transform="translate(26.78 21.359)"/><path d="m0 0c-.317 0-.636-.039-.947-.116-2.87-.707-3.513-4.121-3.539-4.266-.04-.223.076-.444.281-.54.068-.032.14-.047.211-.047.145 0 .287.063.385.179.01.012 1.01 1.178 3.379 1.761.715.176 1.413.265 2.073.265 1.104 0 1.732-.253 1.735-.254.067-.028.131-.04.207-.04.272-.012.509.221.509.5 0 .165-.08.311-.203.402-.367.435-1.953 2.156-4.091 2.156" transform="translate(12.226 21.488)"/></g></g></g></svg>