<svg xmlns="http://www.w3.org/2000/svg" viewBox="0 0 47.5 47.5" enable-background="new 0 0 47.5 47.5"><defs><clipPath id="0"><path d="m0 38h38v-38h-38v38"/></clipPath></defs><g transform="matrix(1.25 0 0-1.25 0 47.5)"><g clip-path="url(#0)"><path d="m0 0c-.448 0-.855.303-.969.758-.036.136-.926 3.435-4.272 4.272-4.704 1.176-4.758 7.693-4.758 7.97 0 .552.447.998.998.999.554-.034 1-.445 1-.997 0-.053.054-5.234 3.242-6.03 4.53-1.132 5.682-5.54 5.728-5.728.134-.535-.192-1.078-.728-1.212-.081-.02-.163-.03-.243-.03" fill="#fcab40" transform="translate(28.999 1)"/><g fill="#bb1a34"><path d="m0 0c-1.1 0-1.598.805-1.105 1.789l1.21 2.422c.493.984 1.297.984 1.79 0l1.21-2.422c.493-.984-.005-1.789-1.105-1.789h-2" transform="translate(19 12)"/><path d="m0 0c0-6-7-12-9-12-2 0-9 6-9 12 0 5.799 4.582 9 9 9 4.418 0 9-3.201 9-9" transform="translate(29 28)"/></g><path d="m0 0h-2c-.552 0-1 .447-1 1 0 .553.448 1 1 1h2c.553 0 1-.447 1-1 0-.553-.447-1-1-1" fill="#fcab40" transform="translate(21 15)"/></g></g></svg>