<svg xmlns="http://www.w3.org/2000/svg" viewBox="0 0 47.5 47.5" enable-background="new 0 0 47.5 47.5" xmlns:xlink="http://www.w3.org/1999/xlink"><defs><clipPath id="0"><path d="m0 38h38v-38h-38v38"/></clipPath></defs><g transform="matrix(1.25 0 0-1.25 0 47.5)"><g clip-path="url(#0)"><path d="m0 0c0 1-1 4-4 4h-13.494-2.506-5.599c-3.401 0-9.401-12-9.401-15v-6c0-2.209 1.791-4 4-4h28c2.209 0 4 1.791 4 4v10c0 1.027-1 7-1 7" fill="#ccd6dd" transform="translate(36 29)"/><path d="m37 13h-36v3h36v-3" fill="#66757f"/><g fill="#e1e8ed"><path d="m0 0c-3.267 0-5.918-2.612-5.993-5.861.319-.081.648-.139.993-.139h11c0 3.313-2.687 6-6 6" transform="translate(10 14)"/><path d="m0 0c-.075 3.248-2.726 5.86-5.993 5.86-3.313 0-6-2.686-6-6h11c.345 0 .674.058.993.14" transform="translate(33.993 8.14)"/></g><g fill="#99aab5"><path d="m0 0h6.629c-.95.631-2.088 1-3.314 1-1.226 0-2.366-.368-3.315-1" transform="translate(6.686 13)"/><path d="m0 0h6.629c-.949.632-2.089 1-3.316 1-1.224 0-2.363-.369-3.313-1" transform="translate(24.687 13)"/></g><path d="m0 0c0-2.209-1.791-4-4-4-2.209 0-4 1.791-4 4 0 2.209 1.791 4 4 4 2.209 0 4-1.791 4-4" fill="#292f33" transform="translate(14 8)" id="1"/><path d="m0 0c0-1.104-.896-2-2-2-1.104 0-2 .896-2 2 0 1.104.896 2 2 2 1.104 0 2-.896 2-2" fill="#99aab5" transform="translate(12 8)" id="2"/><use transform="translate(18)" xlink:href="#1"/><use transform="translate(18)" xlink:href="#2"/><g fill="#55acee"><path d="m0 0h6v-7h-9l3 7" transform="translate(6 26)"/><path d="m22 19h-8v7h8v-7"/><path d="m0 0v-7h13v3c0 .525-.262 2.347-.518 4h-12.482" transform="translate(24 26)"/></g><path d="m0 0h-26c-.552 0-1 .448-1 1 0 .552.448 1 1 1h26c.553 0 1-.448 1-1 0-.552-.447-1-1-1" fill="#99aab5" transform="translate(34 28)"/></g></g></svg>