<svg xmlns="http://www.w3.org/2000/svg" viewBox="0 0 47.5 47.5" enable-background="new 0 0 47.5 47.5"><defs><clipPath id="0"><path d="m0 38h38v-38h-38v38"/></clipPath><clipPath id="1"><path d="m3.442 21.978c-.178-.067-.333-.181-.447-.332-1.24-1.634-2.614-8.116 1-11.646 3.556-3.468 6.822-4.304 8.778-4.495.032-.003.107-.007.14-.007 2.458 0 18.332 10.76 19.524 13.235 1.372 2.842 1.281 8.399-1.98 10.297-.395.231-.914.338-1.633.338-5.581 0-24.581-7.089-25.387-7.39"/></clipPath></defs><g transform="matrix(1.25 0 0-1.25 0 47.5)"><g clip-path="url(#0)"><path d="m0 0c-.033 0-.108.004-.14.007-1.957.191-6.02 1.362-8.778 5.495-2 3-2.245 9.01-1 10.646.114.151.268.266.445.332.807.302 19.807 7.39 25.388 7.39.719 0 1.238-.107 1.633-.337 3.261-1.899 3.352-7.456 1.98-10.299-1.192-2.473-17.07-13.234-19.524-13.234" fill="#eee" transform="translate(12.918 5.498)"/></g><g clip-path="url(#1)"><path d="M 0,0 C -1,-3 -3,-14 2,-16 7,-18 26,-4.083 24,1.458 22,7 17,12 13,9 9,6 0,0 0,0" fill="#ccd6dd" transform="translate(14 18)"/></g><g clip-path="url(#0)"><path d="m0 0c-.227.213-.541.309-.846.257l-29.376-4.833c-.492-.081-.85-.514-.837-1.013.027-1.01.019-1.746.01-2.574-.005-.46-.01-.948-.01-1.525 0-.297.132-.579.361-.769 2.033-1.687 8.714-6.157 10.233-6.917.142-.07.295-.105.447-.105.217 0 .432.07.61.207 2.556 1.966 16.483 9.929 18.664 10.875.335.146.564.463.598.827.125 1.373.458 4.741.458 4.742.03.309-.084.616-.312.828" fill="#a0041e" transform="translate(33.02 30.48)"/><path d="m0 0c-2.02 2.295-9.627 5.574-10.917 5.63-.081.004-.159-.003-.238-.018-10.11-2.01-16.719-7.806-19.21-9.987l-.416-.362c-.232-.2-.359-.496-.345-.802.013-.306.167-.589.416-.768.338-.243 8.316-5.96 10.257-7.06.154-.086.323-.129.492-.129.24 0 .479.087.667.254 3.914 3.499 17.1 10.961 18.897 11.644.307.117.537.376.616.695.079.318-.003.655-.22.901" fill="#dd2e44" transform="translate(33.09 30.411)"/><g fill="none" stroke="#ea596e" stroke-linejoin="round" stroke-linecap="round" stroke-width="2" stroke-miterlimit="10"><path d="m0 0c.875-2.667 1.333-5.417 1.75-7.833" transform="translate(8.417 28.417)"/><path d="m0 0c1.042-2.833 2.167-9.333 2.25-11" transform="translate(13.959 31.834)"/><path d="m0 0c1-3 1.592-7.763 1.834-9.375" transform="translate(20 34)"/><path d="m0 0c.5-1.417.833-2.833 1.041-4.917" transform="translate(26.459 32.959)"/></g><g fill="#292f33"><path d="m0 0c-1.714 1.235-4.055 2-6.636 2-2.581 0-4.922-.765-6.635-2h-2.865v-5c0-3.859 4.262-7 9.5-7 5.239 0 9.5 3.141 9.5 7v5h-2.864" transform="translate(33.14 14)"/><path d="m0 0c-5.238 0-9.5-3.141-9.5-7 0-3.859 4.262-7 9.5-7 5.238 0 9.5 3.141 9.5 7 0 3.859-4.262 7-9.5 7" transform="translate(26.5 21)"/></g><path d="m0 0c0-2.762-3.171-5-7.083-5-3.912 0-7.084 2.238-7.084 5 0 2.762 3.172 5 7.084 5 3.912 0 7.083-2.238 7.083-5" fill="#e1e8ed" transform="translate(33.583 14)"/><path d="m0 0c0-2.762-3.171-5-7.083-5-3.912 0-7.084 2.238-7.084 5 0 2.762 3.172 5 7.084 5 3.912 0 7.083-2.238 7.083-5" fill="none" stroke="#e1e8ed" stroke-linejoin="round" stroke-linecap="round" stroke-width="1.667" stroke-miterlimit="10" transform="translate(33.583 14)"/><path d="m0 0c0 .422 1.806.335 4.291.335 2.485 0 4.209.546 4.209.124 0-1.775-1.724-3.552-4.209-3.552-2.485 0-4.291 1.318-4.291 3.093" fill="#77b255" transform="translate(22.21 14.458)"/><path d="m0 0c0 .422 1.806.335 4.291.335 2.485 0 4.209.546 4.209.124 0-1.775-1.724-3.552-4.209-3.552-2.485 0-4.291 1.318-4.291 3.093" fill="none" stroke="#77b255" stroke-miterlimit="10" transform="translate(22.21 14.458)"/><path d="m0 0c0 0-2 1-5 0-2.357-.786-4-2.561-4-.785 0 1.775 2.01 3.213 4.5 3.213 2.485 0 4.5-1.428 4.5-2.428" fill="#f4900c" transform="translate(31 15)"/><path d="m0 0c0 0-2 1-5 0-2.357-.786-4-2.561-4-.785 0 1.775 2.01 3.213 4.5 3.213 2.485 0 4.5-1.428 4.5-2.428" fill="none" stroke="#f4900c" stroke-linejoin="round" stroke-linecap="round" stroke-miterlimit="10" transform="translate(31 15)"/></g></g></svg>