<svg xmlns="http://www.w3.org/2000/svg" viewBox="0 0 47.5 47.5" enable-background="new 0 0 47.5 47.5"><defs><clipPath id="0"><path d="m0 38h38v-38h-38v38"/></clipPath></defs><g transform="matrix(1.25 0 0-1.25 0 47.5)"><g clip-path="url(#0)"><path d="m0 0c-2-3-2 1-5-2-3 2-3-3-6 0 .899-2.699 3.419-4.574 6.1-4.926-.277-1.789.202-3.946-2.1-6.073-2.01-1.857-3.02-.312-8 2.999-3 1.996-5 4-10 3-5.883-1.177-11-5.999-11-7.999 0-2 3-13.969 21-13.969 2 0 5.243.664 8 2.969 5.955 4.978 5.882 15.349 4.58 19.456 1.78 1.127 2.42 4.15 2.42 6.543" fill="#3b88c3" transform="translate(37 29.999)"/><path d="m0 0c.149.165.289.338.429.511 1.879 2.35 2.902 5.348 3.355 8.29-1.999-4.996-3.01-9.988-13.998-9.988-11 0-15 13-20 11 0-2 3-13.969 21-13.969 2 0 5.243.664 8 2.969.318.265.612.553.9.848.106.111.211.224.314.339" fill="#55acee" transform="translate(31.21 5.188)"/><path d="m0 0c0-.828-.671-1.5-1.5-1.5-.829 0-1.5.672-1.5 1.5 0 .828.671 1.5 1.5 1.5.829 0 1.5-.672 1.5-1.5" fill="#292f33" transform="translate(9 15.5)"/></g></g></svg>