<svg xmlns="http://www.w3.org/2000/svg" viewBox="0 0 47.5 47.5" enable-background="new 0 0 47.5 47.5"><defs><clipPath id="0"><path d="m0 38h38v-38h-38v38"/></clipPath></defs><g transform="matrix(1.25 0 0-1.25 0 47.5)"><g clip-path="url(#0)"><g fill="#d99e82"><path d="m0 0c-1.207-.267 0-2.138-.37-3.348-.252-.837 1.474-.941 1.474-.941 0 0 1.207.267 1-1.676-.207-1.94 2.472-2.616 2.677-.673.204 1.941-1.385 2.988-.511 4.5 2.092 3.619-4.273 2.138-4.273 2.138" transform="translate(15.316 32.739)"/><path d="m0 0c-.367 0-.72.202-.896.553-1.788 3.575-7.366 5.48-7.422 5.499-.523.176-.806.742-.631 1.265.175.523.735.809 1.264.632.261-.087 6.418-2.181 8.579-6.502.247-.494.046-1.094-.448-1.342-.143-.071-.296-.105-.446-.105" transform="translate(28 19)"/></g><path d="m0 0c-.182 0-.367.025-.55.078-1.062.304-1.678 1.41-1.374 2.473l2 7c.124.434.392.814.76 1.077l7 5c.897.642 2.148.435 2.789-.465.643-.898.435-2.147-.464-2.789l-6.431-4.595-1.808-6.328c-.251-.878-1.052-1.45-1.922-1.451" fill="#2a6797" transform="translate(13 2.999)"/><path d="m0 0c-.3 0-.605.067-.893.211l-6 3c-.677.339-1.105 1.031-1.105 1.789v5c0 1.104.895 2 2 2 1.104 0 2-.896 2-2v-3.764l4.894-2.447c.989-.494 1.389-1.695.895-2.684-.351-.701-1.057-1.105-1.791-1.105" fill="#4289c1" transform="translate(27.998 6)"/><g fill="#292f33"><path d="m0 0l3.396-1.141c.56 2.977-.972 2.437-2.957 3.103-1.985.666-3.912.259-4.231-.69.779-.26 1.509-.506 2.844-.955.289-.096.595-.199.948-.317" transform="translate(10.645 2.99)"/><path d="m0 0l.68 3.518c-3.03.159-2.286-1.289-2.683-3.343-.397-2.057.263-3.913 1.244-4.103.156.807.303 1.564.57 2.947.058.298.119.616.189.981" transform="translate(29.891 6.08)"/></g><path d="m0 0c0 0 0-2-2-2-2 0-4 1-4 1-2 6-4 9-.152 10.914 2.985 1.484 5.152-4.914 6.152-9.914" fill="#a0041e" transform="translate(25 18)"/><path d="m0 0c-1.316-.175-1.073 1.199-.316 1.825 1.067.884 3.521.83 4.589-.055 1.068-.885 1.068-2.656 0-3.54-.755-.625-1.068-1.77-1.068 0 0 1.77-1.07-.001-1.07.884 0 .886-2.135.886-2.135.886" fill="#b39155" transform="translate(15.316 32.18)"/><path d="m0 0c0-2.209-1.791-4-4-4-2.209 0-4 1.791-4 4 0 2.209 1.791 4 4 4 2.209 0 4-1.791 4-4" fill="#d99e82" transform="translate(21 32)"/><path d="m0 0c0 0 0 4 5 4 4 0 4-4 4-4s0 2-3 2c-2 0-2-3-6-2" fill="#fdcb58" transform="translate(12 32)"/><path d="m0 0c-.028-.046-2.825-4.631-7.339-5.534l.004-.02c-.457-.092-.808-.476-.808-.961 0-.552.448-1 1-1 .069 0 .128.026.193.039l.004-.019c5.372 1.074 8.529 6.246 8.661 6.466l-1.715 1.029" fill="#d99e82" transform="translate(17.14 24.515)"/></g></g></svg>