<svg xmlns="http://www.w3.org/2000/svg" viewBox="0 0 47.5 47.5" enable-background="new 0 0 47.5 47.5"><defs><clipPath id="0"><path d="m0 38h38v-38h-38v38"/></clipPath></defs><g transform="matrix(1.25 0 0-1.25 0 47.5)"><g clip-path="url(#0)"><path d="m0 0c0-2.209-1.791-4-4-4h-28c-2.209 0-4 1.791-4 4v28c0 2.209 1.791 4 4 4h28c2.209 0 4-1.791 4-4v-28" fill="#269" transform="translate(37 5)"/><g fill="#f5f8fa"><path d="m0 0c0-3.313-2.687-6-6-6-3.313 0-6 2.687-6 6h12" transform="translate(32 26)"/><path d="m0 0h-12c-.553 0-1-.448-1-1 0-.182.049-.569.134-1.01-.045.002-.088.007-.134.007-1.104 0-2-.448-2-1 0-.552.896-1 2-1 .37 0 .684.003.971.008.009-.002.019-.008.029-.008h12c.553 0 1 2.448 1 3 0 .552-.447 1-1 1" transform="translate(32 32)"/><path d="m0 0c-5.01 0-7.558 3.731-7.664 3.891-.613.919-.364 2.161.555 2.773.919.615 2.16.364 2.773-.555.049-.069 1.509-2.109 4.336-2.109 2.85 0 4.322 2.088 4.336 2.109.612.919 1.853 1.17 2.773.555.919-.612 1.167-1.854.555-2.773-.105-.16-2.651-3.891-7.664-3.891" transform="translate(16 11)"/><path d="m0 0h-7c-1.104 0-2-.896-2-2v-7l9 9" transform="translate(29 18)"/><path d="m0 0l-11.82-11.82c0-1.105.895-2 2-2h8c1.104 0 2 .895 2 2v11c0 .293-.067.569-.18.82" transform="translate(31.82 16.82)"/><path d="m0 0l-6-1.43c-.154-.044-.295-.125-.426-.224l5.426-1.266c.552-.157 1-.733 1-1.285v-5.795c.552.157 1 .732 1 1.285v8c0 .553-.448.872-1 .715" transform="translate(13 33.96)"/><path d="m0 0c0-.553-.448-.872-1-.715l-5 1.43c-.552.157-1 .732-1 1.285v8c0 .553.448.872 1 .715l5-1.43c.552-.157 1-.733 1-1.285v-8" transform="translate(11 20.245)"/></g></g></g></svg>