<svg xmlns="http://www.w3.org/2000/svg" viewBox="0 0 47.5 47.5" enable-background="new 0 0 47.5 47.5" xmlns:xlink="http://www.w3.org/1999/xlink"><defs><clipPath id="0"><path d="m0 38h38v-38h-38v38"/></clipPath></defs><g transform="matrix(1.25 0 0-1.25 0 47.5)"><g clip-path="url(#0)"><g fill="#99aab5"><path d="m0 0c0 0-4-2-4-11 0 0 6 1 7 3 0 0 2 12.25-3 8" transform="translate(5 29)"/><path d="m0 0c0 0 4-2 4-11 0 0-6 1-7 3 0 0-2 12.25 3 8" transform="translate(32.995 28.957)"/></g><g fill="#ffe8b6"><path d="m0 0c-1.01-.99 1-8 5-9 4-1 4 5 3 5-4 0-5.958 6-8 4" transform="translate(2 36)"/><path d="m0 0c1.01-.99-1-8-5-9-4-1-4 5-3 5 4 0 5.959 6 8 4" transform="translate(36.3 36)"/></g><path d="m0 0h-7.951c-5.536 0-10.02 4.488-10.02 10.02v8.951c0 5.537 4.489 10.02 10.03 10.02h7.951c5.536 0 10.02-4.488 10.02-10.02v-8.951c0-5.536-4.488-10.02-10.02-10.02" fill="#ccd6dd" transform="translate(22.976 6)"/><path d="m0 0c0-5.522-4.478-8-10-8h-14c-5.523 0-10 2.478-10 8 0 5.522 4.477 10 10 10h14c5.522 0 10-4.478 10-10" fill="#e6aaaa" transform="translate(36 9)"/><g fill="#c1694f"><path d="m0 0c0-1.657-.671-3-1.5-3-.829 0-1.5 1.343-1.5 3 0 1.657.671 3 1.5 3 .829 0 1.5-1.343 1.5-3" transform="translate(12 11)"/><path d="m0 0c0-1.657-.672-3-1.5-3-.828 0-1.5 1.343-1.5 3 0 1.657.672 3 1.5 3 .828 0 1.5-1.343 1.5-3" transform="translate(29 11)"/></g><path d="m0 0c0 0 0 2 2 2 2 0 2-2 2-2v-2c0 0 0-2-2-2-2 0-2 2-2 2v2" fill="#272b2b" transform="translate(12 25)" id="1"/><use transform="translate(10)" xlink:href="#1"/></g></g></svg>