<svg xmlns="http://www.w3.org/2000/svg" viewBox="0 0 47.5 47.5" enable-background="new 0 0 47.5 47.5"><defs><clipPath id="0"><path d="m0 38h38v-38h-38v38"/></clipPath><clipPath id="1"><path d="m5 37c0 0-4 0-4-4v-28c0-4 4-4 4-4h28c4 0 4 4 4 4v28c0 0 0 4-4 4h-28"/></clipPath></defs><g transform="matrix(1.25 0 0-1.25 0 47.5)"><g clip-path="url(#0)"><path d="m0 0c0 0 0-4-4-4h-28c0 0-4 0-4 4v28c0 4 4 4 4 4h28c4 0 4-4 4-4v-28" fill="#88c9f9" transform="translate(37 5)"/></g><g clip-path="url(#1)" fill="#3e721d"><path d="m0 0c1 0 2-3 3-3 1 0 3 0 3-1 0-1-3-1-3-2 0-1-1-1-2-1-1 0-3 0-3 1 0 1 2 0 2 1 0 1-1 5 0 5" transform="translate(25 35)"/><path d="m0 0c0 1 2 1 2 1 0 0 1-2 0-2-1 0-2 1-2 1" transform="translate(22 27)"/><path d="m0 0c-1 0-1-2-1-3 0-1 0-3-1-3-1 0-2-1-2-2 0-1-1-2-2-2-1 0-2-2-2-2 0 0-4-1-5-1-1 0-3 0-3-1 0-1-3-2-1-2 2 0 2 1 3 1h2c0 0 3 1 3 0 0-1 0-2 1-2 1 0 2 1 2 2 0 1 1 1 2 1 1 0 2 0 2 1 0 1 1 2 2 2 1 0 1 2 1 3 0 1 0 3 1 3 1 0 2 3 1 3-1 0-2 0-2 1 0 1-1 1-1 1" transform="translate(24 25)"/><path d="m0 0c0 1 0 2 1 2h3c1 0 1 0 0-1-1-1-1 0-2 0-1 0 0-2-1-2-1 0-1 1-1 1" transform="translate(9 7)"/><path d="m0 0c0 1 1 1 1 2 0 1-1 0-1 1 0 1 1 1 2 1 1 0 1-1 1-2 0-1-1-1-1-2 0-1-1-1-1-1 0 0-1 0-1 1" transform="translate(5 4)"/></g></g></svg>