<svg xmlns="http://www.w3.org/2000/svg" viewBox="0 0 47.5 47.5" enable-background="new 0 0 47.5 47.5"><defs><clipPath id="0"><path d="m0 38h38v-38h-38v38"/></clipPath><clipPath id="1"><path d="m24 10.1c0-2.422-2.573-5.102-4.995-5.102h-.715l4.96-2.133c1.998-.889 4.338.048 5.229 2.046l8.06 18.11c.891 1.998.003 4.358-1.995 5.247l-10.546 4.705v-22.871"/></clipPath><clipPath id="2"><path d="m5.227 37c-2.334 0-4.227-1.893-4.227-4.227v-21.546c0-2.334 1.893-4.227 4.227-4.227h12.545c2.336 0 4.228 1.893 4.228 4.227v21.546c0 2.334-1.892 4.227-4.228 4.227h-12.545"/></clipPath></defs><g transform="matrix(1.25 0 0-1.25 0 47.5)"><g clip-path="url(#0)"><path d="m0 0l-10.546 4.705v-22.872c0-2.421-2.573-5.101-4.995-5.101h-.715l4.96-2.133c1.998-.889 4.338.048 5.229 2.046l8.06 18.11c.891 1.998.003 4.358-1.995 5.247" fill="#dd2e44" transform="translate(34.546 28.27)"/></g><g clip-path="url(#1)"><path d="m0 0c-.99 1.98-3.959 4.95-12.87 4.95-8.91 0-2.97-5.94-1.98-8.909.99-2.971 4.248-5.94 7.631-5.94 3.383 0 6.229 0 7.219 2.969.99 2.971 0 6.93 0 6.93" transform="translate(30.885 10.1)"/></g><g clip-path="url(#0)"><path d="m0 0c0-2.335-1.893-4.228-4.228-4.228h-12.544c-2.335 0-4.228 1.893-4.228 4.228v21.545c0 2.335 1.893 4.227 4.228 4.227h12.544c2.335 0 4.228-1.892 4.228-4.227v-21.545" fill="#dd2e44" transform="translate(22 11.228)"/></g><g clip-path="url(#2)"><path d="m0 0c3 2 16 7 21 1 6.925-8.31 5-3 2-6-3-3-12-5-16-4-4 1-8-.708-8 1.917 0 2.625 1 7.083 1 7.083" transform="translate(1 14)"/></g><g clip-path="url(#0)" fill="#fff"><path d="m0 0c0 3.488-2.828 6.315-6.315 6.315-3.488 0-6.315-2.827-6.315-6.315 0-3.487 2.827-6.316 6.315-6.316 3.487 0 6.315 2.829 6.315 6.316" transform="translate(16.795 26.588)"/><path d="m0 0v-10.526c2.688.265 4.795 2.506 4.795 5.263 0 2.758-2.107 4.998-4.795 5.263" transform="translate(24 28.851)"/></g></g></svg>