<svg xmlns="http://www.w3.org/2000/svg" viewBox="0 0 47.5 47.5" enable-background="new 0 0 47.5 47.5"><defs><clipPath id="0"><path d="m0 38h38v-38h-38v38"/></clipPath></defs><g transform="matrix(1.25 0 0-1.25 0 47.5)"><g clip-path="url(#0)"><path d="m0 0c-5.523 0-10-4.477-10-10v-10h4v10c0 3.313 2.687 6 6 6 3.313 0 6-2.687 6-6v-10h4v10c0 5.523-4.477 10-10 10" fill="#bcbec0" transform="translate(19 33)"/><path d="m0 0c0-2.209-1.791-4-4-4h-16c-2.209 0-4 1.791-4 4v10c0 2.209 1.791 4 4 4h16c2.209 0 4-1.791 4-4v-10" fill="#ffac33" transform="translate(31 5)"/></g></g></svg>