<svg xmlns="http://www.w3.org/2000/svg" viewBox="0 0 47.5 47.5" enable-background="new 0 0 47.5 47.5" xmlns:xlink="http://www.w3.org/1999/xlink"><defs><path id="1" d="m0 0c0-2.209-.791-3-3-3h-4c-2.209 0-3 .791-3 3v12c0 2.209.791 3 3 3h4c2.209 0 3-.791 3-3v-12" fill="#ccd6dd"/><path id="2" d="m0 0c.111.157.184.324.184.5 0 .828-1.344 1.5-3 1.5-1.657 0-3-.672-3-1.5 0-.176.072-.343.183-.5h5.633" fill="#f4900c"/><clipPath id="0"><path d="m0 38h38v-38h-38v38"/></clipPath></defs><g transform="matrix(1.25 0 0-1.25 0 47.5)"><g clip-path="url(#0)"><path d="m0 0c0-2.209-1.791-4-4-4h-28c-2.209 0-4 1.791-4 4v18c0 2.209 1.791 4 4 4h28c2.209 0 4-1.791 4-4v-18" fill="#292f33" transform="translate(37 10)"/><use transform="translate(12 13)" xlink:href="#1"/><use transform="translate(24 13)" xlink:href="#1"/><use transform="translate(36 13)" xlink:href="#1"/><g fill="#e1e8ed"><path d="m12 14h-10v10h10v-10"/><path d="m24 14h-10v10h10v-10"/><path d="m36 14h-10v10h10v-10"/></g><path d="m0 0h-2.816c-.594 0-.814.385-.814.759 0 .385.209.759.814.759h3.983c.562 0 .792-.506.792-.792 0-.22-.121-.451-.253-.726l-2.728-5.545c-.308-.616-.429-.836-.925-.836-.605 0-.912.463-.912.781 0 .133.033.231.109.385l2.75 5.215" fill="#be1931" transform="translate(31.795 21.315)"/><path d="m0 0h-2.816c-.594 0-.814.385-.814.759 0 .385.209.759.814.759h3.983c.561 0 .791-.506.791-.792 0-.22-.121-.451-.252-.726l-2.729-5.545c-.308-.616-.429-.836-.924-.836-.605 0-.913.463-.913.781 0 .133.033.231.11.385l2.75 5.215" fill="#be1931" transform="translate(19.795 21.315)" id="3"/><use transform="translate(-12)" xlink:href="#3"/><path d="m0 0c-.04-.162-.061-.329-.061-.5 0-1.381 1.344-2.5 3-2.5 1.657 0 3 1.119 3 2.5 0 .171-.021.338-.06.5h-5.879" fill="#9266cc" transform="translate(4.061 28)" id="4"/><use transform="translate(12)" xlink:href="#4"/><path d="m0 0c-.039-.162-.061-.329-.061-.5 0-1.381 1.344-2.5 3-2.5 1.657 0 3 1.119 3 2.5 0 .171-.021.338-.06.5h-5.879" fill="#9266cc" transform="translate(28.06 28)"/><use transform="translate(9.816 10)" xlink:href="#2"/><use transform="translate(21.816 10)" xlink:href="#2"/><use transform="translate(33.816 10)" xlink:href="#2"/></g></g></svg>