<svg xmlns="http://www.w3.org/2000/svg" viewBox="0 0 47.5 47.5" enable-background="new 0 0 47.5 47.5" xmlns:xlink="http://www.w3.org/1999/xlink"><defs><clipPath id="0"><path d="m0 38h38v-38h-38v38"/></clipPath></defs><g transform="matrix(1.25 0 0-1.25 0 47.5)"><g clip-path="url(#0)"><path d="m0 0c0-5.523-7.163-10-16-10-8.836 0-16 4.477-16 10 0 5.523 7.164 10 16 10 8.837 0 16-4.477 16-10" fill="#2a6797" transform="translate(35 27)"/><path d="m0 0v4h-24v-4c-1.657 0-3-1.791-3-4 0-2.209 1.343-4 3-4 0-6.629 5.373-12 12-12 6.628 0 12 5.371 12 12 1.656 0 3 1.791 3 4 0 2.209-1.344 4-3 4" fill="#c28b6e" transform="translate(31 22)"/><path d="m0 0c-.087.162-.256.264-.44.264h-12c-.185 0-.354-.102-.441-.264-.087-.163-.077-.36.025-.514.087-.132 2.196-3.222 6.416-3.222 4.218 0 6.328 3.09 6.416 3.222.102.154.112.351.024.514" fill="#805723" transform="translate(25.44 8.236)"/><path d="m0 0c0 0 1-2 3-2 2 0 3 2 3 2 0 0 0-3-3-3-3 0-3 3-3 3" fill="#664500" transform="translate(16 13)"/><path d="m0 0c0-1.104-1.567-2-3.5-2-1.933 0-3.5.896-3.5 2 0 1.104 1.567 2 3.5 2 1.933 0 3.5-.896 3.5-2" fill="#f5f8fa" transform="translate(28 16)" id="1"/><use transform="translate(-11)" xlink:href="#1"/><path d="m0 0c0-.828-.672-1.5-1.5-1.5-.828 0-1.5.672-1.5 1.5 0 .828.672 1.5 1.5 1.5.828 0 1.5-.672 1.5-1.5" fill="#292f33" transform="translate(26 16.5)" id="2"/><use transform="translate(-11)" xlink:href="#2"/><path d="m0 0h-24v4c0 0 5 3 12 3 7 0 12-3 12-3v-4" fill="#4289c1" transform="translate(31 25)"/><path d="m0 0c0 0-5 1-12 1-7 0-12-1-12-1v-7c0 0 1.336 3.341 1.824 5.654 1.901-1.162 5.288-2.654 10.176-2.654 4.889 0 8.275 1.492 10.177 2.654.487-2.313 1.823-5.654 1.823-5.654v7" fill="#292f33" transform="translate(31 25)"/><path d="m0 0c-.001 0-.002 0-.003 0l-.001-.001c-.311-.001-.577-.152-.76-.376-.376-.092-.889-.112-1.544.094-.18.174-.422.283-.692.283-.27 0-.512-.109-.692-.283-.655-.206-1.169-.186-1.544-.094-.183.224-.45.376-.761.377h-.001c0 0 0 0 0 0s-.001 0-.002 0c-.552 0-1-.448-1-1 0-.552.448-1 1-1 .001 0 .001 0 .001 0h.001c0-4 1.998-5 2.998-5 1 0 2.997 1 2.997 5 .001 0 .002 0 .003 0 .553 0 1 .448 1 1 0 .552-.447 1-1 1" fill="#fdcb58" transform="translate(22 35)"/><path d="m0 0h-6c-.276 0-.5.224-.5.5 0 .276.224.5.5.5h6c.276 0 .5-.224.5-.5 0-.276-.224-.5-.5-.5" fill="#fff" transform="translate(22 7)"/></g></g></svg>