<svg xmlns="http://www.w3.org/2000/svg" viewBox="0 0 47.5 47.5" enable-background="new 0 0 47.5 47.5"><defs><clipPath id="0"><path d="m0 38h38v-38h-38v38"/></clipPath></defs><g transform="matrix(1.25 0 0-1.25 0 47.5)"><g clip-path="url(#0)"><path d="m0 0c-.324 1.768-1.937 3.37-3.912 3.37h-21c-1 0-5.325-.035-6-2l-2.309-6.305c-.675-1.964.309-4.782 2.336-4.782 1.15 0 2.595.029 3.997.052 2.992-4.01 5.874-11.965 6.976-11.965.849 0 1.572 3.414 1.862 6h11.25c.235-2.528.843-6 1.888-6 .954 0 2.976 4.301 4.136 10.917.43 1.901.725 4.418.824 7.647.024-.172.04-.356.04-.564v-9c0-.553.447-1 1-1 .553 0 1 .447 1 1v9c0 1.807-.749 3.053-2.088 3.63" fill="#c1694f" transform="translate(34.912 22.63)"/><path d="m0 0c-2-2-4.791 1-7 1-2.209 0-3 .434-3 .969 0 .535 1.791.969 4 .969 2.209 0 8-.938 6-2.938" fill="#ccd6dd" transform="translate(11 25)"/><path d="m0 0c0-.552-.448-1-1-1-.552 0-1 .448-1 1 0 .552.448 1 1 1 .552 0 1-.448 1-1" fill="#292f33" transform="translate(8 21)"/></g></g></svg>