<svg xmlns="http://www.w3.org/2000/svg" viewBox="0 0 47.5 47.5" enable-background="new 0 0 47.5 47.5"><defs><clipPath id="0"><path d="m0 38h38v-38h-38v38"/></clipPath></defs><g transform="matrix(1.25 0 0-1.25 0 47.5)"><g clip-path="url(#0)"><path d="m0 0c-.864 7.3-5.729 10.447-13.93 10.447-.39 0-.762-.017-1.138-.031-.013.009-.023.021-.036.031-4.694 3.521-15.258 2.347-17.604-1.174-3.256-4.883-1.174-22.3 0-24.646 1.173-2.349 4.694-3.521 5.867-2.349 1.174 1.176 0 1.176-1.173 3.521-.85 1.701-.466 5.86.255 8.471.028-.168.068-.322.1-.486.389-2.871 1.992-7.412 1.992-9.744 0-3.565 2.102-4.108 4.695-4.108 2.593 0 4.695.543 4.695 4.108 0 .24-.008.462-.012.695.757-.065 1.535-.108 2.359-.108.497 0 .977.016 1.449.04-.004-.209-.013-.411-.013-.627 0-3.565 2.102-4.108 4.694-4.108 2.593 0 4.696.543 4.696 4.108 0 1.8 1.192 4.625 2.039 6.982.159.353.291.732.419 1.117.118-1.308.193-2.707.193-4.207 0-.553.447-1 1-1 .553 0 1 .447 1 1 0 5.152-.772 9.248-1.547 12.07" fill="#99aab5" transform="translate(35.453 21.427)"/><path d="m0 0c0 0 3.65-5.515.65-10.515-3-5-7.837-5-11-5-2 0-1-2 0-2 1.414 0 8.395-1.211 12 6 3 6-1.65 11.515-1.65 11.515" fill="#66757f" transform="translate(20.35 31.874)"/><path d="m0 0c0-.829-.671-1.5-1.5-1.5-.829 0-1.5.671-1.5 1.5 0 .829.671 1.5 1.5 1.5.829 0 1.5-.671 1.5-1.5" fill="#292f33" transform="translate(9 22.859)"/></g></g></svg>