<svg xmlns="http://www.w3.org/2000/svg" viewBox="0 0 47.5 47.5" enable-background="new 0 0 47.5 47.5"><defs><clipPath id="0"><path d="m0 38h38v-38h-38v38"/></clipPath></defs><g transform="matrix(1.25 0 0-1.25 0 47.5)"><g clip-path="url(#0)"><path d="m0 0c0 4 4 4 4 4h28c0 0 4 0 4-4v-28c0 0 0-4-4-4h-28c0 0-4 0-4 4v28" fill="#99aab5" transform="translate(1 33)"/><g fill="#fff"><path d="m0 0c0-1.933-1.344-3.5-3-3.5-1.656 0-3 1.567-3 3.5 0 1.933 1.344 3.5 3 3.5 1.656 0 3-1.567 3-3.5" transform="translate(27 29.5)"/><path d="m0 0c0 0 0 2-2 2h-7c-1 0-2-1-2-1l-2-2h-4c0 0-1 0-1-1 0-1 1-1 1-1h3 2l2 2v-17c0 0 0-1 1-1h1c0 0 1 0 1 1v8c0 0 0 1 1 1 1 0 1-1 1-1v-8c0 0 0-1 1-1h1c0 0 1 0 1 1v9c0 0 2 0 2 2v7" transform="translate(30 24)"/><path d="m0 0c0 0-1 0-1 1 0 1 1 1 1 1s2 0 2-2v-8h6v8c0 2 2 2 2 2 0 0 1 0 1-1 0-1-1-1-1-1v-8c0 0 0-2-2-2h-6c0 0-2 0-2 2v8" transform="translate(7 15)"/><path d="m0 0c0-1.104-.896-2-2-2-1.104 0-2 .896-2 2 0 1.104.896 2 2 2 1.104 0 2-.896 2-2" transform="translate(14 17)"/></g></g></g></svg>