<svg xmlns="http://www.w3.org/2000/svg" viewBox="0 0 47.5 47.5" enable-background="new 0 0 47.5 47.5" xmlns:xlink="http://www.w3.org/1999/xlink"><defs><clipPath id="0"><path d="m0 38h38v-38h-38v38"/></clipPath></defs><g transform="matrix(1.25 0 0-1.25 0 47.5)"><g clip-path="url(#0)"><path d="m0 0c4.04-3.913 4.083-10.935 3.062-10.935-1.022 0-4.116 1.852-6.069 3.937-1.953 2.085-1.75 6.779-1.75 6.779l1.586 4.32c0 0-.869-.188 3.171-4.101" fill="#662113" transform="translate(30.96 13.913)" id="1"/><use transform="translate(-3)" xlink:href="#1"/><path d="m0 0c-1 0-1 7 3 11 4 4 3 4 3 4l2-4c0 0 0-5-2-7-2-2-5-4-6-4" fill="#662113" transform="translate(4 3)" id="2"/><use transform="translate(3)" xlink:href="#2"/><g fill="#d99e82"><path d="m0 0c-.571 2.134-2.116 3.575-3.45 3.217-1.334-.357-1.95-2.377-1.379-4.51.571-2.135 2.116-3.575 3.45-3.217 1.334.357 1.951 2.377 1.379 4.51" transform="translate(7.914 18.647)"/><path d="m0 0c.571 2.134-.046 4.154-1.38 4.512-1.333.356-2.878-1.083-3.449-3.218-.572-2.134.045-4.153 1.379-4.511 1.334-.357 2.879 1.083 3.45 3.217" transform="translate(34.915 17.353)"/><path d="m0 0c0 9.389-5.82 16-13 16-7.18 0-13-6.611-13-16 0-9.389 5.82-15 13-15 7.18 0 13 5.611 13 15" transform="translate(32 18)"/></g><path d="m0 0c-2.42 0-4.274.687-4.352.715-.517.194-.778.771-.584 1.288.194.518.769.779 1.286.585.016-.006 1.609-.588 3.65-.588 2.041 0 3.635.582 3.65.588.516.194 1.094-.071 1.286-.587.193-.517-.068-1.092-.584-1.286-.078-.028-1.931-.715-4.352-.715" fill="#dd2e44" transform="translate(19 9.349)"/><path d="m0 0h-2c-.552 0-1 .447-1 1 0 .553.448 1 1 1h2c.553 0 1-.447 1-1 0-.553-.447-1-1-1" fill="#c1694f" transform="translate(20 14)"/><g fill="#662113"><path d="m0 0c-.552 0-1 .447-1 1v2c0 .552.448 1 1 1 .552 0 1-.448 1-1v-2c0-.553-.448-1-1-1" transform="translate(13 17)"/><path d="m0 0c-.553 0-1 .447-1 1v2c0 .552.447 1 1 1 .553 0 1-.448 1-1v-2c0-.553-.447-1-1-1" transform="translate(25 17)"/><g transform="translate(19 34)"><path d="m0 0v-5c0 0-1-4-6-4-5 0-7-5.999-7-9 0 0-2.648 5.231-1 11 2 7 7 9 10 9 2 0 4-2 4-2"/><path d="m0 0v-5c0 0 .786-4 5.786-4 5 0 7.214-5.999 7.214-9 0 0 2.648 5.231 1 11-2 7-7 9-10 9-2 0-4-2-4-2"/></g></g></g></g></svg>