<svg xmlns="http://www.w3.org/2000/svg" viewBox="0 0 47.5 47.5" enable-background="new 0 0 47.5 47.5" xmlns:xlink="http://www.w3.org/1999/xlink"><defs><path id="1" d="m0 0c0-2.198-1.337-3.98-2.985-3.98-1.649 0-2.986 1.782-2.986 3.98 0 2.198 1.337 3.98 2.986 3.98 1.648 0 2.985-1.782 2.985-3.98" fill="#ffe8b6"/><clipPath id="0"><path d="m0 38h38v-38h-38v38"/></clipPath></defs><g transform="matrix(1.25 0 0-1.25 0 47.5)"><g clip-path="url(#0)"><path d="m0 0c0-2.469-2.031-4.471-4.5-4.471-2.469 0-4.5 2-4.5 4.471v11.941c0 2.469 2.031 5.588 4.5 5.588 2.469 0 4.5-3.119 4.5-5.588v-11.941" fill="#77b255" transform="translate(33 6.471)"/><use transform="translate(22.456 31.412)" xlink:href="#1"/><path d="m0 0c0-2.469-2.031-4.471-4.5-4.471-2.469 0-4.5 2-4.5 4.471v24.941c0 2.469 2.031 5.588 4.5 5.588 2.469 0 4.5-3.119 4.5-5.588v-24.941" fill="#77b255" transform="translate(24 6.471)"/><use transform="translate(22.456 31.412)" xlink:href="#1"/><path d="m0 0c0-2.199-1.337-3.98-2.985-3.98-1.649 0-2.986 1.781-2.986 3.98 0 2.198 1.337 3.98 2.986 3.98 1.648 0 2.985-1.782 2.985-3.98" fill="#ffe8b6" transform="translate(31.456 18.412)"/><path d="m0 0c0-2.469-2.031-4.471-4.5-4.471-2.469 0-4.5 2-4.5 4.471v18.941c0 2.469 2.031 5.588 4.5 5.588 2.469 0 4.5-3.119 4.5-5.588v-18.941" fill="#77b255" transform="translate(15 6.471)"/><use transform="translate(13.456 25.412)" xlink:href="#1"/><path d="m0 0c0-.553-.447-1-1-1h-9c-.552 0-1 .447-1 1 0 .553.448 1 1 1h9c.553 0 1-.447 1-1" fill="#5c913b" transform="translate(25 15)" id="2"/><path d="m0 0c0-.552-.447-1-1-1h-9c-.552 0-1 .448-1 1 0 .552.448 1 1 1h9c.553 0 1-.448 1-1" fill="#5c913b" transform="translate(25 23)"/><use transform="translate(-9 4)" xlink:href="#2"/><path d="m0 0c0-1.381-1.119-2.5-2.5-2.5h-28c-1.381 0-2.5 1.119-2.5 2.5 0 1.381 1.119 2.5 2.5 2.5h28c1.381 0 2.5-1.119 2.5-2.5" fill="#d99e82" transform="translate(36 4.5)"/><path d="m0 0c0 0-1.229.565-3.272 1.176-.645-1.426-1.299-2.785-1.561-3.426-.52-1.27-1.125-.875-.925.169.102.532.461 2.616.737 3.729-1.987.487-4.45.909-7.162.996-.15-1.727-.402-3.219-.484-4.144-.125-1.417-1.5-1.333-1.625-.042-.067.702-.163 2.683-.26 4.171-2.026-.092-4.149-.399-6.292-1.016.091-1.013.304-2.884.386-3.53.186-1.469-.554-1.086-.834-.291-.178.507-.819 2.217-1.266 3.259-.816-.301-1.631-.646-2.442-1.051-2-1-4-3-4-4v-1h4 25 4v1c0 1-2 3-4 4" fill="#5c913b" transform="translate(32 10)"/></g></g></svg>