<svg xmlns="http://www.w3.org/2000/svg" viewBox="0 0 47.5 47.5" enable-background="new 0 0 47.5 47.5"><defs><clipPath id="0"><path d="m0 38h38v-38h-38v38"/></clipPath></defs><g transform="matrix(1.25 0 0-1.25 0 47.5)"><g clip-path="url(#0)" fill="#67757f"><path d="m0 0l-10.141 6.389c-.904.569-1.644.181-1.644-.865v-1.873h-21.526c-1.104 0-2-.895-2-2v-6c0-1.104.896-2 2-2h21.526v-1.899c0-1.046.722-1.412 1.607-.811l10.215 6.932c.885.6.867 1.557-.037 2.127" transform="translate(36.31 30.348)"/><path d="m0 0c0-.537-.357-1.018-.921-1.018-.563 0-1 .413-1.826.413-.591 0-1.126-.317-1.126-.893 0-1.414 4.587-.509 4.587-4.052 0-1.964-1.621-3.187-3.516-3.187-1.058 0-3.338.248-3.338 1.539 0 .535.357.975.92.975.646 0 1.415-.536 2.308-.536.907 0 1.401.509 1.401 1.182 0 1.62-4.588.644-4.588 3.832 0 1.923 1.58 3.118 3.407 3.118.769 0 2.692-.288 2.692-1.373" transform="translate(7.303 9.737)"/><path d="m0 0c0 1.661-.866 3.159-2.583 3.159-1.716 0-2.582-1.498-2.582-3.159 0-1.676.838-3.159 2.582-3.159 1.745 0 2.583 1.483 2.583 3.159m-7.307 0c0 2.855 1.922 5.05 4.724 5.05 2.761 0 4.726-2.268 4.726-5.05 0-2.844-1.91-5.056-4.726-5.056-2.788 0-4.724 2.212-4.724 5.056" transform="translate(15.823 6.06)"/><path d="m0 0c0 1.661-.864 3.159-2.581 3.159-1.718 0-2.582-1.498-2.582-3.159 0-1.676.838-3.159 2.582-3.159 1.743 0 2.581 1.483 2.581 3.159m-7.306 0c0 2.855 1.923 5.05 4.725 5.05 2.76 0 4.725-2.268 4.725-5.05 0-2.844-1.91-5.056-4.725-5.056-2.789 0-4.725 2.212-4.725 5.056" transform="translate(25.744 6.06)"/><path d="m0 0c0 .687.439 1.072 1.03 1.072.261 0 .687-.206.866-.454l4.353-5.809h.028v5.191c0 .687.44 1.072 1.032 1.072.588 0 1.029-.385 1.029-1.072v-7.802c0-.687-.441-1.072-1.029-1.072-.263 0-.675.206-.867.454l-4.354 5.741h-.027v-5.123c0-.687-.44-1.072-1.031-1.072-.591 0-1.03.385-1.03 1.072v7.802" transform="translate(28.662 9.956)"/></g></g></svg>