<svg xmlns="http://www.w3.org/2000/svg" viewBox="0 0 47.5 47.5" enable-background="new 0 0 47.5 47.5"><defs><clipPath id="0"><path d="m0 38h38v-38h-38v38"/></clipPath></defs><g transform="matrix(1.25 0 0-1.25 0 47.5)"><g clip-path="url(#0)"><path d="m0 0h-3v28c0 2.209-1.791 4-4 4h-18c-2.209 0-4-1.791-4-4v-28h-3c-1.104 0-2-.896-2-2 0-1.104.896-2 2-2h32c1.104 0 2 .896 2 2 0 1.104-.896 2-2 2" fill="#bcbec0" transform="translate(35 5)"/><path d="m0 0c0-1.657-1.343-3-3-3h-16c-1.657 0-3 1.343-3 3v28c0 1.657 1.343 3 3 3h16c1.657 0 3-1.343 3-3v-28" fill="#be1931" transform="translate(30 4)"/><path d="m0 0c0-1.38-1.119-2.5-2.5-2.5-1.381 0-2.5 1.12-2.5 2.5 0 1.381 1.119 2.5 2.5 2.5 1.381 0 2.5-1.119 2.5-2.5" fill="#f4900c" transform="translate(15 17.5)"/><path d="m0 0c0-.828-.671-1.5-1.5-1.5-.829 0-1.5.672-1.5 1.5 0 .829.671 1.5 1.5 1.5.829 0 1.5-.671 1.5-1.5" fill="#ffd983" transform="translate(14 17.5)"/><path d="m0 0h-4c-.553 0-1 .448-1 1 0 .552.447 1 1 1h3v7c0 .552.447 1 1 1 .553 0 1-.448 1-1v-8c0-.552-.447-1-1-1" fill="#ea596e" transform="translate(27 21)"/><path d="m0 0c-.553 0-1 .448-1 1v8c0 .552.447 1 1 1h4c.553 0 1-.448 1-1 0-.552-.447-1-1-1h-3v-7c0-.552-.447-1-1-1" fill="#a0041e" transform="translate(21 23)"/><path d="m0 0h-4c-.552 0-1 .448-1 1 0 .552.448 1 1 1h3v7c0 .552.448 1 1 1 .552 0 1-.448 1-1v-8c0-.552-.448-1-1-1" fill="#ea596e" transform="translate(17 21)"/><path d="m0 0c-.552 0-1 .448-1 1v8c0 .552.448 1 1 1h4c.552 0 1-.448 1-1 0-.552-.448-1-1-1h-3v-7c0-.552-.448-1-1-1" fill="#a0041e" transform="translate(11 23)"/><path d="m0 0h-4c-.553 0-1 .447-1 1 0 .553.447 1 1 1h3v6c0 .553.447 1 1 1 .553 0 1-.447 1-1v-7c0-.553-.447-1-1-1" fill="#ea596e" transform="translate(27 3)"/><path d="m0 0c-.553 0-1 .447-1 1v7c0 .553.447 1 1 1h4c.553 0 1-.447 1-1 0-.553-.447-1-1-1h-3v-6c0-.553-.447-1-1-1" fill="#a0041e" transform="translate(21 5)"/><path d="m0 0h-4c-.552 0-1 .447-1 1 0 .553.448 1 1 1h3v6c0 .553.448 1 1 1 .552 0 1-.447 1-1v-7c0-.553-.448-1-1-1" fill="#ea596e" transform="translate(17 3)"/><path d="m0 0c-.552 0-1 .447-1 1v7c0 .553.448 1 1 1h4c.552 0 1-.447 1-1 0-.553-.448-1-1-1h-3v-6c0-.553-.448-1-1-1" fill="#a0041e" transform="translate(11 5)"/></g></g></svg>