<svg xmlns="http://www.w3.org/2000/svg" viewBox="0 0 47.5 47.5" enable-background="new 0 0 47.5 47.5" xmlns:xlink="http://www.w3.org/1999/xlink"><defs><path id="1" d="m0 0c0-.553-.447-1-1-1-.553 0-1 .447-1 1 0 .553.447 1 1 1 .553 0 1-.447 1-1" fill="#642116"/><clipPath id="0"><path d="m0 38h38v-38h-38v38"/></clipPath></defs><g transform="matrix(1.25 0 0-1.25 0 47.5)"><g clip-path="url(#0)"><path d="m0 0c-1.693 1.692-3.594 2.587-5.497 2.587-1.626 0-3.19-.668-4.402-1.88-1.519-1.519-1.728-2.39-1.866-2.966-.07-.295-.105-.421-.255-.57-.105-.106-.155-.256-.14-.406.015-.149.1-.286.225-.369.013-.009.324-.22.368-.651.039-.394-.13-1.08-1.16-2.11-.629-.629-1.252-.948-1.85-.948-.981 0-1.649.87-1.653.876-.111.15-.295.227-.481.197-.185-.029-.337-.158-.396-.335-.221-.663-.251-.668-.535-.709-.59-.086-1.578-.23-3.624-2.276-1.675-1.674-2.265-3.766-1.708-6.05.395-1.618 1.408-3.359 2.708-4.66 1.408-1.408 3.803-2.912 6.301-2.912 1.655 0 3.137.643 4.406 1.912 2.046 2.046 2.189 3.034 2.275 3.624.041.285.046.314.709.535.178.059.307.212.336.396.03.184-.046.369-.196.481-.008.005-.805.619-.873 1.527-.047.638.27 1.302.944 1.975.963.963 1.622 1.166 2 1.166.504 0 .746-.358.752-.367.08-.13.215-.216.368-.234.142-.016.302.035.411.143.149.15.275.185.57.255.576.139 1.446.348 2.965 1.867 2.287 2.287 2.956 6.235-.707 9.899" fill="#f18f26" transform="translate(24.912 24.913)"/><path d="M 0,0 -13.878,-15 -16,-12.879 -1,1 0,0 Z" fill="#292f33" transform="translate(33 32)"/><path d="m0 0c.437-.438.437-1.155-.001-1.592l-3.187-3.186c-.438-.438-1.155-.438-1.592 0l-1.39 1.389c-.437.438-.437 1.155.001 1.593l3.187 3.186c.438.437 1.155.437 1.592-.001l1.39-1.389" fill="#f18f26" transform="translate(35.704 34.31)"/><path d="m0 0c0-.552-.447-1-1-1-.553 0-1 .448-1 1 0 .552.447 1 1 1 .553 0 1-.448 1-1" fill="#642116" transform="translate(35 29)"/><use transform="translate(37 31)" xlink:href="#1"/><use transform="translate(30 34)" xlink:href="#1"/><use transform="translate(32 36)" xlink:href="#1"/><path d="m0 0l4 5c0 0 .999 0 2-1 1-1 1-2 1-2l-5-4-2 2" fill="#292f33" transform="translate(3 5)"/><path d="m0 0c-.256 0-.512.098-.707.293l-3 3c-.391.391-.391 1.023 0 1.414.391.391 1.023.391 1.414 0l3-3c.391-.391.391-1.023 0-1.414-.195-.195-.451-.293-.707-.293" fill="#fee7b8" transform="translate(14 10)"/></g></g></svg>