<svg xmlns="http://www.w3.org/2000/svg" viewBox="0 0 47.5 47.5" enable-background="new 0 0 47.5 47.5"><defs><clipPath id="0"><path d="m0 38h38v-38h-38v38"/></clipPath></defs><g transform="matrix(1.25 0 0-1.25 0 47.5)"><g clip-path="url(#0)"><path d="m0 0c0 5.45-4.418 9.868-9.867 9.868-3.308 0-6.227-1.633-8.02-4.129-1.79 2.496-4.71 4.129-8.02 4.129-5.45 0-9.868-4.418-9.868-9.868 0-.772.098-1.52.266-2.241 1.371-8.512 10.835-17.494 17.619-19.96 6.783 2.466 16.249 11.448 17.617 19.96.17.721.268 1.469.268 2.241" fill="#e75a70" transform="translate(36.885 25.17)"/><g fill="#fdcb58"><path d="m0 0l-3.824 1.416-1.416 3.824c-.145.393-.52.654-.938.654-.418 0-.793-.261-.937-.654l-1.416-3.824-3.824-1.416c-.393-.145-.654-.52-.654-.937 0-.418.261-.793.654-.938l3.824-1.416 1.416-3.824c.144-.393.519-.654.937-.654.418 0 .793.261.938.654l1.416 3.824 3.824 1.416c.393.145.653.52.653.938 0 .417-.26.792-.653.937" transform="translate(35.35 13.11)"/><path d="m0 0l-2.365.875-.875 2.365c-.146.393-.52.653-.938.653-.419 0-.793-.26-.938-.653l-.876-2.365-2.364-.875c-.393-.146-.653-.52-.653-.938 0-.418.26-.792.653-.938l2.364-.875.876-2.365c.145-.393.519-.653.938-.653.418 0 .792.26.938.653l.875 2.365 2.365.875c.393.146.653.52.653.938 0 .418-.26.792-.653.938" transform="translate(12.347 29.11)"/></g></g></g></svg>