<svg xmlns="http://www.w3.org/2000/svg" viewBox="0 0 47.5 47.5" enable-background="new 0 0 47.5 47.5"><defs><clipPath id="0"><path d="m0 38h38v-38h-38v38"/></clipPath></defs><g transform="matrix(1.25 0 0-1.25 0 47.5)"><g clip-path="url(#0)"><path d="m0 0c-1.721 0-3.343-.406-4.793-1.111-.393.069-.795.111-1.207.111-3.866 0-7-3.134-7-7v-12h.018c.183-6.467 5.471-11.656 11.982-11.656 6.511 0 11.799 5.189 11.982 11.656h.018v9c0 6.075-4.925 11-11 11" fill="#642116" transform="translate(20 37)"/><path d="m0 0h-17v-9h21v5c0 2.209-1.791 4-4 4" fill="#9268ca" transform="translate(28 10)"/><g fill="#d79e84"><path d="m0 0v-6c0-1.657 1.343-3 3-3 1.657 0 3 1.343 3 3v6h-6" transform="translate(16 15)"/><path d="m0 0v-12c0-4.971 4.03-9 9-9 4.971 0 9 4.03 9 9v12h-18" transform="translate(10 32)"/></g><path d="m0 0v1h-18.999v-1-6c6 0 6 6 6 6s2-7 14-7v7h-1" fill="#642116" transform="translate(27.999 32)"/><path d="m28 1h-1v4h1v-4" fill="#7450a8"/><path d="m0 0h-4-4c0 0 1-2 4-2 3 0 4 2 4 2" fill="#bb1a34" transform="translate(23 15)"/><path d="m0 0c-.591.389-1.387.224-1.776-.367l-.645-.982v2.284c0 1.105-.896 2-2 2h-4c-1.105 0-2-.895-2-2v-8c0 0 0-1 1-1h6l1 1v1.043l2.788 4.246c.39.592.225 1.387-.367 1.776" fill="#d79e84" transform="translate(13.421 34.06)"/><g fill="#c1694f"><path d="m6 32h-1v5h1v-5"/><path d="m9 32h-1v5h1v-5"/></g><path d="m0 0h1v-9c-8 0-8 9-8 9v17h8l-1-17" fill="#9268ca" transform="translate(10 10)"/><path d="m0 0h-2c-.276 0-.5.224-.5.5 0 .276.224.5.5.5h2c.276 0 .5-.224.5-.5 0-.276-.224-.5-.5-.5" fill="#bf6952" transform="translate(20 17.5)"/><g fill="#292f33"><path d="m0 0c-.552 0-1 .448-1 1v1c0 .552.448 1 1 1 .552 0 1-.448 1-1v-1c0-.552-.448-1-1-1" transform="translate(15 21)"/><path d="m0 0c-.553 0-1 .448-1 1v1c0 .552.447 1 1 1 .553 0 1-.448 1-1v-1c0-.552-.447-1-1-1" transform="translate(23 21)"/></g></g></g></svg>