<svg xmlns="http://www.w3.org/2000/svg" viewBox="0 0 47.5 47.5" enable-background="new 0 0 47.5 47.5"><defs><clipPath id="0"><path d="m0 38h38v-38h-38v38"/></clipPath></defs><g transform="matrix(1.25 0 0-1.25 0 47.5)"><g clip-path="url(#0)"><path d="m0 0c0 9.389-7.611 17-17 17-9.388 0-16.999-7.611-16.999-17 0-9.389 7.611-17 16.999-17 9.389 0 17 7.611 17 17" transform="translate(36 19)"/><g fill="#fff"><path d="m0 0c0-8.07 3.666-7.225 3.666-10.89 0 0 0-1.36-1.468-1.36h-19.07c-1.466 0-1.466 1.36-1.466 1.36 0 3.665 3.667 2.879 3.667 10.945 0 4.049 3.283 7.306 7.333 7.306 4.05 0 7.334-3.311 7.334-7.361" transform="translate(26.334 23.25)"/><path d="m0 0c0 1.215-.987 2.2-2.201 2.2-1.216 0-2.2-.985-2.2-2.2 0-1.215.984-2.2 2.2-2.2 1.214 0 2.201.985 2.201 2.2" transform="translate(21.2 30.584)"/><path d="m0 0c1.621 0 2.933.933 2.933 2.933h-5.867c0-2 1.314-2.933 2.934-2.933" transform="translate(19 6.067)"/></g></g><g clip-path="url(#0)" fill="#dd2e44"><path d="m0 0c-8.836 0-16-7.163-16-16 0-8.837 7.164-16 16-16 8.837 0 16 7.163 16 16 0 8.837-7.163 16-16 16m18-16c0-9.941-8.06-18-18-18-9.94 0-18 8.06-18 18 0 9.941 8.06 18 18 18 9.941 0 18-8.06 18-18" transform="translate(19 35)"/><path d="m 0,0 -24.5,24.5 1.768,1.768 24.5,-24.5 L 0,0 Z" transform="translate(29.616 5.616)"/></g></g></svg>