<svg xmlns="http://www.w3.org/2000/svg" viewBox="0 0 47.5 47.5" enable-background="new 0 0 47.5 47.5"><defs><clipPath id="0"><path d="m0 38h38v-38h-38v38"/></clipPath></defs><g transform="matrix(1.25 0 0-1.25 0 47.5)"><g clip-path="url(#0)"><path d="m0 0c0 4.667-3.134 6.533-7 6.533-1.621 0-3.285-.354-4.676-1.027-1.801 1.229-3.919 1.965-6.324 1.965-2.405 0-4.523-.736-6.324-1.965-1.391.673-3.055 1.027-4.676 1.027-3.866 0-7-1.866-7-6.533 0-3.844 2.128-6.417 5.04-7.206-.043-.536-.068-1.073-.068-1.611 0-5.729 4.519-7.675 8.581-8.327 1.098-.81 2.681-1.323 4.449-1.323 1.768 0 3.351.513 4.449 1.323 4.062.652 8.581 2.597 8.581 8.327 0 .538-.025 1.075-.068 1.611 2.91.789 5.04 3.362 5.04 7.206" fill="#99aab5" transform="translate(37 23.467)"/><g fill="#66757f"><path d="m0 0c-.318.033-.637.054-.954.054-3.093 0-5.6-1.493-5.6-5.226 0-2.155.838-3.808 2.138-4.825.473 3.798 2 7.417 4.416 9.997" transform="translate(10.554 27.15)"/><path d="m0 0c-.317 0-.637-.021-.955-.054 2.412-2.58 3.943-6.199 4.416-9.997 1.301 1.017 2.139 2.67 2.139 4.824 0 3.733-2.507 5.227-5.6 5.227" transform="translate(28.4 27.2)"/></g><g fill="#292f33"><path d="m0 0c0-3.346-1.728-4.193-3.728-4.193-2 0-3.727.847-3.727 4.193 0 3.345 1.727 6.06 3.727 6.06 2 0 3.728-2.712 3.728-6.06" transform="translate(22.728 12.193)"/><path d="m0 0c0-.828-.671-1.5-1.5-1.5-.829 0-1.5.672-1.5 1.5 0 .828.671 1.5 1.5 1.5.829 0 1.5-.672 1.5-1.5" transform="translate(15 17.13)"/><path d="m0 0c0-.828-.672-1.5-1.5-1.5-.828 0-1.5.672-1.5 1.5 0 .828.672 1.5 1.5 1.5.828 0 1.5-.672 1.5-1.5" transform="translate(26 17.13)"/></g></g></g></svg>