<svg xmlns="http://www.w3.org/2000/svg" viewBox="0 0 47.5 47.5" enable-background="new 0 0 47.5 47.5" xmlns:xlink="http://www.w3.org/1999/xlink"><defs><path id="1" d="m0 0c0-.276-.224-.5-.5-.5-.276 0-.5.224-.5.5 0 .276.224.5.5.5.276 0 .5-.224.5-.5" fill="#664500"/><clipPath id="0"><path d="m0 38h38v-38h-38v38"/></clipPath></defs><g transform="matrix(1.25 0 0-1.25 0 47.5)"><path d="m0 0h-3l1 9.712h3l-1-9.712" fill="#d79e84" transform="translate(8 2)" id="2"/><g clip-path="url(#0)"><path d="m0 0l-1.833 1.333c0 0 3.166 3.01 2.531 3.994-.636.982-3.782 1.688-3.782 1.688l1.918 2.306c0 0 3.958-1.904 4.77-3.333.826-1.451-3.604-5.988-3.604-5.988" fill="#d79e84" transform="translate(13.876 3.208)"/><path d="m0 0v1c0 0 0 1 2 1 2 0 2-1 2-1v-1h-4" fill="#292f33" transform="translate(4 1)" id="3"/><path d="m0 0l.421.908c0 0 .419.907-1.396 1.747-1.813.841-2.233-.066-2.233-.066l-.42-.907 3.628-1.682" fill="#292f33" transform="translate(14.553 1.517)"/><g fill="#d79e84"><path d="m0 0c-.256 0-.512.098-.707.293l-3 3c-.36.36-.392.934-.074 1.332l4 3.288c.345.432.975.501 1.406.156.431-.345.501-.974.156-1.406l-3.441-2.589 2.367-2.367c.391-.391.391-1.023 0-1.414-.195-.195-.451-.293-.707-.293" transform="translate(5 10.712)"/><path d="m0 0c-.256 0-.512.098-.707.293-.391.391-.391 1.023 0 1.414l2.367 2.367-3.441 2.589c-.345.432-.275 1.061.156 1.406.431.345 1.061.276 1.406-.156l4-3.288c.319-.398.286-.972-.074-1.332l-3-3c-.195-.195-.451-.293-.707-.293" transform="translate(15 10.712)"/></g><path d="m0 0c0 1.104-.896 2-2 2h-2-4-2c-1.104 0-2-.896-2-2v-1h2v-1.288-1-3l3-2h2l3 2v3 1 1.288h2v1" fill="#292f33" transform="translate(16 18)" id="4"/><path d="m0 0c0 3.314-2.687 6-6 6-1.264 0-2.435-.393-3.402-1.061-.197.03-.393.061-.598.061-2.209 0-4-1.791-4-4v-6h4.686c.949-.631 2.088-1 3.314-1 1.226 0 2.364.369 3.314 1h2.686v4.999" fill="#ffd983" transform="translate(17 27.999)"/><path d="m0 0v3h-4v-3h-1v-1c0 0 0-3 3-3 3 0 3 3 3 3v1h-1" fill="#d79e84" transform="translate(12 20)" id="5"/><path d="m0 0l-4-.019v-3.981c0 0 2-1 4 0v4" fill="#bf6952" transform="translate(12 23)" id="6"/><path d="m0 0h-10v-6c0-2.763 2.238-5 5-5 2.761 0 5 2.237 5 5v6" fill="#d79e84" transform="translate(15 31)"/><path d="m0 0c0 0 0-4 8-4v4h-8" fill="#ffd983" transform="translate(8 31)" id="7"/><path d="m0 0c0 0 0-4-4-4v4h4" fill="#ffd983" transform="translate(8 31)" id="8"/><path d="m0 0h-2-2c0 0 0-1 2-1 2 0 2 1 2 1" fill="#c1694f" transform="translate(12 22)" id="9"/><use transform="translate(8 25.5)" xlink:href="#1"/><use transform="translate(13 25.5)" xlink:href="#1"/><path d="m0 0h1 1c0 0 0-1-1-1-1 0-1 1-1 1" fill="#c1694f" transform="translate(9 24)"/><path d="m0 0c2.625.219 3.75-2.875 3-4.25-1.969 0-3.937 1.812-3 4.25" fill="#292f33" transform="translate(4.688 35.875)" id="A"/><path d="m0 0c-2.625.219-3.75-2.875-3-4.25 1.969 0 3.937 1.812 3 4.25" fill="#292f33" transform="translate(14.675 35.813)" id="B"/><path d="m0 0c1.812 1.437 4.344 1.062 5.156-.156.031-.313-.37-1.178-.687-1.031-.813.375-2.188.937-4.063.062-.094.063-.441 1.098-.406 1.125" fill="#292f33" transform="translate(7.313 32.75)" id="C"/><use transform="translate(16)" xlink:href="#2"/><path d="m0 0l-1.833 1.333c0 0 3.167 3.01 2.531 3.994-.636.982-3.782 1.688-3.782 1.688l1.918 2.306c0 0 3.958-1.904 4.77-3.333.826-1.451-3.604-5.988-3.604-5.988" fill="#d79e84" transform="translate(29.875 3.208)"/><path d="m0 0l.422.908c0 0 .418.907-1.397 1.747-1.812.841-2.232-.066-2.232-.066l-.42-.907 3.627-1.682" fill="#292f33" transform="translate(30.553 1.517)"/><use transform="translate(16)" xlink:href="#3"/><g fill="#d79e84"><path d="m0 0c-.256 0-.512.098-.707.293l-3 3c-.36.36-.392.934-.074 1.332l4 3.288c.345.432.975.501 1.406.156.432-.345.501-.974.156-1.406l-3.441-2.589 2.367-2.367c.391-.391.391-1.023 0-1.414-.195-.195-.451-.293-.707-.293" transform="translate(21 10.712)"/><path d="m0 0c-.256 0-.512.098-.707.293-.391.391-.391 1.023 0 1.414l2.367 2.367-3.441 2.589c-.345.432-.276 1.061.156 1.406.431.345 1.061.276 1.406-.156l4-3.288c.319-.398.286-.972-.074-1.332l-3-3c-.195-.195-.451-.293-.707-.293" transform="translate(31 10.712)"/></g><use transform="translate(16)" xlink:href="#4"/><path d="m0 0c0 3.314-2.687 6-6 6-1.264 0-2.436-.393-3.402-1.061-.197.03-.393.061-.598.061-2.209 0-4-1.791-4-4v-6h4.686c.949-.631 2.087-1 3.314-1 1.226 0 2.364.369 3.314 1h2.686v4.999" fill="#ffd983" transform="translate(33 27.999)"/><use transform="translate(16)" xlink:href="#5"/><use transform="translate(16)" xlink:href="#6"/><path d="m0 0h-10v-6c0-2.763 2.238-5 5-5 2.762 0 5 2.237 5 5v6" fill="#d79e84" transform="translate(31 31)"/><use transform="translate(16)" xlink:href="#7"/><use transform="translate(16)" xlink:href="#8"/><use transform="translate(16)" xlink:href="#9"/><use transform="translate(24 25.5)" xlink:href="#1"/><use transform="translate(29 25.5)" xlink:href="#1"/><path d="m0 0h1 1c0 0 0-1-1-1-1 0-1 1-1 1" fill="#c1694f" transform="translate(25 24)"/><use transform="translate(16.09)" xlink:href="#A"/><use transform="translate(16.09)" xlink:href="#B"/><use transform="translate(16.09)" xlink:href="#C"/></g></g></svg>