<svg xmlns="http://www.w3.org/2000/svg" viewBox="0 0 47.5 47.5" enable-background="new 0 0 47.5 47.5"><defs><clipPath id="0"><path d="m0 38h38v-38h-38v38"/></clipPath></defs><g transform="matrix(1.25 0 0-1.25 0 47.5)"><g clip-path="url(#0)"><path d="m0 0c-2.2 0-4.362-2.17-4 0l2.342 16.05c.362 2.171 2.458 3.946 4.658 3.946h18c2.2 0 4.296-1.775 4.657-3.946l2.343-16.05c.361-2.17-1.8 0-4 0h-24" fill="#dd2e44" transform="translate(7 12)"/><path d="m0 0c.196 1.171 1.45 2.234 2.679 2.234h9v-21h-12c-.615 0-2.472-3.854-3-4l3.321 22.766" fill="#ea596e" transform="translate(7.321 27.766)"/><path d="m0 0c0 0-2 0-2 2 0 1 1 6 1 6h34c0 0 1-5 1-6 0-2-2-2-2-2" fill="#99aab5" transform="translate(3 4)"/></g></g></svg>