<svg xmlns="http://www.w3.org/2000/svg" viewBox="0 0 47.5 47.5" enable-background="new 0 0 47.5 47.5"><defs><clipPath id="0"><path d="m0 38h38v-38h-38v38"/></clipPath></defs><g transform="matrix(1.25 0 0-1.25 0 47.5)"><g clip-path="url(#0)"><path d="m0 0c1.668 0 7.43-4.345 7.427-9.701.003-5.359-14.853-5.359-14.854.001.001 5.355 5.759 9.7 7.427 9.7" fill="#99aab5" transform="translate(11.746 15.48)"/><path d="m0 0c8.839-8.84 17.337-5.163 20.03-2.469 2.695 2.697-.158 9.916-6.371 16.13-6.215 6.214-13.435 9.07-16.13 6.372-2.696-2.695-6.372-11.194 2.468-20.03" fill="#ccd6dd" transform="translate(9.541 11.818)"/><path d="m0 0c6.214-6.214 13.435-9.07 16.13-6.372 2.695 2.696-.158 9.916-6.371 16.13-6.215 6.213-13.435 9.07-16.13 6.371-2.695-2.694.158-9.916 6.371-16.13" fill="#66757f" transform="translate(13.443 15.722)"/><g fill="#ccd6dd"><path d="m0 0c.443-.444.443-1.163 0-1.607l-7.233-7.231c-.444-.444-1.163-.444-1.607 0-.445.443-.445 1.163 0 1.607l7.232 7.231c.445.445 1.163.445 1.608 0" transform="translate(23.2 25.479)"/><path d="m0 0c.887-.887.887-2.327 0-3.214-.888-.888-2.327-.888-3.215 0-.887.887-.887 2.327 0 3.214.888.888 2.327.888 3.215 0" transform="translate(24.809 27.09)"/></g><g fill="#ffac33"><path d="m0 0c-.017 0-.034 0-.051.001-.552.028-.976.498-.949 1.049.001.016.063 2.157-1.58 3.8-1.638 1.637-3.773 1.579-3.801 1.58-.55-.033-1.02.398-1.049.948-.027.552.398 1.022.95 1.049.122.012 3.03.123 5.314-2.163 2.287-2.287 2.17-5.191 2.164-5.314-.027-.534-.469-.95-.998-.95" transform="translate(29.29 23.922)"/><path d="m0 0c-.109 0-.221.019-.33.057-.522.182-.796.753-.613 1.274.034.107.892 2.877-2.196 5.963-3.126 3.127-6.126 2.415-6.252 2.383-.529-.137-1.077.184-1.215.715-.14.531.171 1.074.701 1.217.17.046 4.205 1.078 8.18-2.901 4.02-4.01 2.726-7.875 2.668-8.04-.143-.412-.53-.67-.943-.67" transform="translate(32.846 24.478)"/></g><path d="m0 0c-2.9 0-5.543.658-7.566 1.737-.008-.146-.029-.29-.029-.437.001-5.36 14.857-5.36 14.854-.001 0 .09-.014.177-.017.265-1.978-.976-4.496-1.564-7.242-1.564" fill="#66757f" transform="translate(11.914 4.48)"/></g></g></svg>