<svg xmlns="http://www.w3.org/2000/svg" viewBox="0 0 47.5 47.5" enable-background="new 0 0 47.5 47.5"><defs><clipPath id="0"><path d="m0 38h38v-38h-38v38"/></clipPath></defs><g transform="matrix(1.25 0 0-1.25 0 47.5)"><path d="m37 9h-36v4h36v-4" fill="#6d6e71"/><g fill="#939598"><path d="m37 11h-36v4h36v-4"/><path d="m11 1h-4v8h4v-8"/><path d="m21 1h-4v8h4v-8"/><path d="m31 1h-4v8h4v-8"/></g><g fill="#6d6e71"><path d="m11 7h-4v3h4v-3"/><path d="m21 7h-4v3h4v-3"/><path d="m31 7h-4v3h4v-3"/></g><g clip-path="url(#0)"><path d="m0 0h-6c-1.104 0-2-.896-2-2v-2c0-1.104.896-2 2-2h6v6" fill="#bcbec0" transform="translate(37 37)"/><path d="m0 0v-5h-18c-3 0-7 5-7 5h25" fill="#d1d3d4" transform="translate(37 17)"/><path d="m0 0c0 0 .751-.937 1.844-2h23.16v2h-25" fill="#bcbec0" transform="translate(12 17)"/><path d="m0 0h-26c-3 0-7 3-7 6 0 5 16 12 18 12h15v-18" fill="#e6e7e8" transform="translate(37 17)"/><path d="m0 0c-.461-.687-.742-1.36-.742-2 0-1.655 1.221-3.308 2.816-4.459 15.416 4.459 30.19 4.459 30.19 4.459v2h-32.26" fill="#5c913b" transform="translate(4.741 25)"/><g fill="#55acee"><path d="m0 0h-5.553c-3.327-1.524-7.344-3.738-9.899-6h15.452c1.104 0 2 .896 2 2v2c0 1.104-.896 2-2 2" transform="translate(22 33)"/><path d="m0 0c0-.552-.447-1-1-1-.553 0-1 .448-1 1v4c0 .552.447 1 1 1 .553 0 1-.448 1-1v-4" transform="translate(27 28)"/><path d="m0 0c0-.552-.447-1-1-1h-4c-.553 0-1 .448-1 1v4c0 .552.447 1 1 1h4c.553 0 1-.448 1-1v-4" transform="translate(35 28)"/></g></g></g></svg>