<svg xmlns="http://www.w3.org/2000/svg" viewBox="0 0 47.5 47.5" enable-background="new 0 0 47.5 47.5"><defs><clipPath id="0"><path d="m0 38h38v-38h-38v38"/></clipPath></defs><g transform="matrix(1.25 0 0-1.25 0 47.5)"><g clip-path="url(#0)" fill="#ffac33"><path d="m0 0c-3.313 0-6 2.686-6 6 0 3.313 2.687 6 6 6 3.313 0 6-2.687 6-6 0-3.314-2.687-6-6-6m0 16c-5.523 0-10-4.478-10-10 0-5.523 4.477-10 10-10 5.523 0 10 4.477 10 10 0 5.522-4.477 10-10 10" transform="translate(19 13)"/><path d="m0 0c0 1.104-.896 2-2 2-1.104 0-2-.896-2-2 0-1.104.896-2 2-2 1.104 0 2 .896 2 2" transform="translate(21 32)"/><path d="m0 0c0-1.104-.896-2-2-2-1.104 0-2 .896-2 2 0 1.104.896 2 2 2 1.104 0 2-.896 2-2" transform="translate(21 6)"/><path d="m0 0c-.781.781-2.047.781-2.828 0-.781-.781-.781-2.047 0-2.828.781-.781 2.047-.781 2.828 0 .781.781.781 2.047 0 2.828" transform="translate(11.222 29.606)"/><path d="m0 0c.781-.78.781-2.048 0-2.828-.781-.781-2.047-.78-2.828 0-.781.781-.781 2.047 0 2.828.781.78 2.047.781 2.828 0" transform="translate(29.606 11.222)"/><path d="m0 0c-1.104 0-2-.896-2-2 0-1.104.896-2 2-2 1.104 0 2 .896 2 2 0 1.104-.896 2-2 2" transform="translate(6 21)"/><path d="m0 0c1.104 0 2-.896 2-2 0-1.104-.896-2-2-2-1.104 0-2 .896-2 2 0 1.104.896 2 2 2" transform="translate(32 21)"/><path d="m0 0c.781.781.781 2.047.001 2.828-.781.781-2.048.781-2.829 0-.78-.781-.781-2.047 0-2.828.781-.781 2.048-.781 2.828 0" transform="translate(29.606 26.778)"/><path d="m0 0c-.781-.781-2.047-.781-2.828 0-.781.781-.781 2.047 0 2.828.781.781 2.047.781 2.828 0 .781-.781.781-2.047 0-2.828" transform="translate(11.222 8.394)"/></g></g></svg>