<svg xmlns="http://www.w3.org/2000/svg" viewBox="0 0 47.5 47.5" enable-background="new 0 0 47.5 47.5" xmlns:xlink="http://www.w3.org/1999/xlink"><defs><clipPath id="0"><path d="m0 38h38v-38h-38v38"/></clipPath></defs><g transform="matrix(1.25 0 0-1.25 0 47.5)"><g clip-path="url(#0)"><path d="m0 0h-1v1c0 .552-.447 1-1 1-.553 0-1-.448-1-1v-1h-1c-.553 0-1-.448-1-1 0-.552.447-1 1-1h1v-6c0-.552.447-1 1-1 .553 0 1 .448 1 1v6h1c.553 0 1 .448 1 1 0 .552-.447 1-1 1" fill="#bcbec0" transform="translate(21 35)"/><path d="m0 0l-5.143-4h.143v-9h10v9h.143l-5.143 4" fill="#f4abba" transform="translate(19 28)"/><path d="m0 0c0 1.104-.896 2-1.999 2-1.105 0-2-.896-2-2v-.01-6.99h4v7" fill="#662113" transform="translate(20.999 22)" id="1"/><path d="m0 0l-13.999-8v-1-1-7c0-.553.448-1 1-1h26c.553 0 1 .447 1 1v7 1 1l-14 8" fill="#f4abba" transform="translate(18.999 19)"/><g fill="#dd2e44"><path d="m0 0c-.168 0-.339.042-.495.132l-13.504 7.717-13.504-7.717c-.478-.277-1.09-.108-1.364.372-.274.479-.108 1.09.372 1.364l14 8c.307.176.684.176.992 0l14-8c.48-.274.647-.885.372-1.364-.184-.323-.521-.504-.869-.504" transform="translate(32.998 10)"/><path d="m0 0c-.219 0-.439.072-.624.219l-4.376 3.5-4.374-3.5c-.432-.343-1.062-.275-1.406.156-.345.432-.275 1.061.156 1.406l4.999 4c.365.292.884.292 1.25 0l5-4c.431-.345.501-.974.156-1.406-.198-.247-.488-.375-.782-.375" transform="translate(23.999 23)"/></g><path d="m0 0c0 1.104-.896 2-1.999 2-1.105 0-2-.896-2-2v-.01-4.99h4v5" fill="#662113" transform="translate(13.999 6)" id="2"/><use transform="translate(0-14)" xlink:href="#1"/><use transform="translate(14)" xlink:href="#2"/><path d="m0 0c0 2.761 3.963 4 5 0 1.121 4 5 2.761 5 0 0-3-5-6-5-6 0 0-5 3-5 6" fill="#ea596e" transform="translate(2 31)" id="3"/><use transform="translate(24)" xlink:href="#3"/></g></g></svg>