<svg xmlns="http://www.w3.org/2000/svg" viewBox="0 0 47.5 47.5" enable-background="new 0 0 47.5 47.5"><defs><clipPath id="0"><path d="m0 38h38v-38h-38v38"/></clipPath></defs><g transform="matrix(1.25 0 0-1.25 0 47.5)"><g clip-path="url(#0)"><path d="m0 0l-3.496 3.496c-1.93 1.93-5.06 1.93-6.989 0-.719-.718-1.167-1.602-1.352-2.528-5.765 1.078-11.372 6.662-11.721 11.653.948.176 1.854.628 2.587 1.36 1.93 1.931 1.93 5.061 0 6.991l-3.495 3.495c-1.93 1.93-5.06 1.93-6.99 0-10.485-10.486 20.971-41.942 31.456-31.456 1.93 1.929 1.93 5.059 0 6.989" fill="#292f33" transform="translate(35.06 10.593)"/></g></g></svg>