<svg xmlns="http://www.w3.org/2000/svg" viewBox="0 0 47.5 47.5" enable-background="new 0 0 47.5 47.5"><defs><clipPath id="0"><path d="m0 38h38v-38h-38v38"/></clipPath></defs><g transform="matrix(1.25 0 0-1.25 0 47.5)"><g clip-path="url(#0)"><path d="m0 0c0-3.803-3.082-6.885-6.885-6.885-3.802 0-6.884 3.082-6.884 6.885 0 3.802 3.082 6.884 6.884 6.884 3.803 0 6.885-3.082 6.885-6.884" fill="#939598" transform="translate(36.999 25.08)"/><path d="m0 0c-.336-.336-.881-.336-1.217 0l-9.127 9.128c-.336.336-.336.881 0 1.217l1.217 1.217c.336.336.881.336 1.217 0l9.127-9.128c.336-.336.336-.881 0-1.217l-1.217-1.217" fill="#58595b" transform="translate(33.81 18.432)"/><path d="m0 0l-4.325 4.327c-.779.778-1.995.733-2.719-.101l-9.158-10.575c-1.219-1.408-1.462-3.353-.711-4.73l-4.911-4.912 1.409-1.409 4.877 4.877c1.382-.84 3.411-.61 4.863.648l10.574 9.157c.833.724.88 1.941.101 2.718" fill="#414042" transform="translate(27.739 18.296)"/><g fill="#55acee"><path d="m0 0v-8.122c-.314.075-.648.122-1 .122-1.657 0-3-.895-3-2 0-1.104 1.343-2 3-2 1.656 0 2.999.896 3 2v6.111l5-2.222v-5.01c-.314.075-.648.122-1 .122-1.657 0-3-.895-3-2 0-1.104 1.343-2 3-2 1.656 0 2.999.896 3 2v9l-9 4" transform="translate(5 31)"/><path d="m0 0v-8.123c-.314.075-.647.123-1 .123-1.657 0-3-.895-3-2 0-1.104 1.343-2 3-2 1.656 0 3 .896 3 2v10h-2" transform="translate(19 36)"/></g></g></g></svg>