<svg xmlns="http://www.w3.org/2000/svg" viewBox="0 0 47.5 47.5" enable-background="new 0 0 47.5 47.5"><defs><clipPath id="0"><path d="m0 38h38v-38h-38v38"/></clipPath></defs><g transform="matrix(1.25 0 0-1.25 0 47.5)"><g clip-path="url(#0)"><path d="m0 0c-2.209 0-4 1.791-4 4 0 2.209 1.791 4 4 4 2.209 0 4-1.791 4-4 0-2.209-1.791-4-4-4m0 10c-3.313 0-6-2.687-6-6 0-3.313 2.687-6 6-6 3.313 0 6 2.687 6 6 0 3.313-2.687 6-6 6" fill="#3b88c3" transform="translate(15 8)"/><path d="m0 0v-.021c-1-.218-1.783-1.895-1.783-3.956 0-2.06.782-3.737 1.783-3.956v-.02l28.701-7.972v23.884l-28.701-7.959" fill="#55acee" transform="translate(2.783 22.977)"/><path d="m0 0c0-6.627-2.238-12-5-12-2.762 0-5 5.373-5 12 0 6.627 2.238 12 5 12 2.762 0 5-5.373 5-12" fill="#269" transform="translate(37 19)"/></g></g></svg>