<svg xmlns="http://www.w3.org/2000/svg" viewBox="0 0 47.5 47.5" enable-background="new 0 0 47.5 47.5"><defs><clipPath id="0"><path d="m0 38h38v-38h-38v38"/></clipPath></defs><g transform="matrix(1.25 0 0-1.25 0 47.5)"><g clip-path="url(#0)"><g fill="#e1e8ed"><path d="m0 0c0-1.183-.959-2.143-2.143-2.143-1.183 0-2.143.96-2.143 2.143 0 1.184.96 2.144 2.143 2.144 1.184 0 2.143-.96 2.143-2.144" transform="translate(21.14 4.785)"/><path d="m0 0c0 5.326-4.318 9.643-9.643 9.643-5.325 0-9.643-4.317-9.643-9.643 0-5.357-1.071-16.572-1.071-16.572 0-1.182.96-2.142 2.143-2.142 1.183 0 2.143.96 2.143 2.142 0-1.182.959-2.142 2.143-2.142 1.183 0 2.142.96 2.142 2.142h4.286c0-1.182.96-2.142 2.144-2.142 1.182 0 2.142.96 2.142 2.142 0-1.182.959-2.142 2.143-2.142 1.183 0 2.142.96 2.142 2.142 0 0-1.071 11.215-1.071 16.572" transform="translate(28.643 21.357)"/></g><g fill="#dd2e44"><path d="m0 0c0-2.209-1.447-6-2-6-.552 0-2 3.791-2 6 0 2.209 1.448 3 2 3 .553 0 2-.791 2-3" transform="translate(21 34)"/><path d="m0 0c0 2.612 1.711 8 2.365 8 .654 0 2.365-5.388 2.365-8 0-2.612-1.712-3-2.365-3-.654 0-2.365.388-2.365 3" transform="translate(16.635 4)"/></g><path d="m0 0c0-1.5-4.791-4.5-7-4.5-2.209 0-7 3-7 4.5 0 1.5 4.791 4.5 7 4.5 2.209 0 7-3 7-4.5" fill="#f4900c" transform="translate(26 14.5)"/><path d="m0 0c0-1.5-14-1.5-14 0 0 1.5 4.791 4.5 7 4.5 2.209 0 7-3 7-4.5" fill="#ffac33" transform="translate(26 14.5)"/><g fill="#292f33"><path d="m0 0c0-.828-.671-1.5-1.5-1.5-.829 0-1.5.672-1.5 1.5 0 .829.671 1.5 1.5 1.5.829 0 1.5-.671 1.5-1.5" transform="translate(14 18.5)"/><path d="m0 0c0-.828-.672-1.5-1.5-1.5-.828 0-1.5.672-1.5 1.5 0 .829.672 1.5 1.5 1.5.828 0 1.5-.671 1.5-1.5" transform="translate(27 18.5)"/></g></g></g></svg>