<svg xmlns="http://www.w3.org/2000/svg" viewBox="0 0 47.5 47.5" enable-background="new 0 0 47.5 47.5"><defs><clipPath id="0"><path d="m0 38h38v-38h-38v38"/></clipPath></defs><g transform="matrix(1.25 0 0-1.25 0 47.5)"><g clip-path="url(#0)"><path d="m0 0h-24c-.552 0-1 .447-1 1 0 .553.448 1 1 1h24c2.542 0 4 1.367 4 3.75 0 1.537-1.643 3.25-4 3.25h-7c-.553 0-1 .447-1 1 0 .553.447 1 1 1h7c3.589 0 6-2.715 6-5.25 0-3.493-2.355-5.75-6-5.75" fill="#ea596e" transform="translate(31 1)"/><g fill="#66757f"><path d="m0 0c0 3.037 3.604 5.937 1 7.5-3.407 2.044-6.879-4.293-9-5-3-1-4-3.407-4-5 0-1.838 1.986-1.725 5-2 1.906-.175 5.594-.125 9-1 2.942-.756-2 2.462-2 5.5" transform="translate(13 12.5)"/><path d="m0 0c0 8.5-3.753 12.5-9 12.5-10 0-14-7-14-14 0-5.247 6.753-6 12-6 5.247 0 11 2.253 11 7.5" transform="translate(34 13.5)"/><path d="m0 0c0 2.594-2.375 3.219-1.187 5.03.706 1.078 2.587.635 3.051.582-.037-1.332 1.605-1.876 2.054-1.05.378-.371.71-.83.962-1.36.914-1.924-.461-4.49-1.958-5.201-1.496-.711-2.922-.132-2.922 1.998" transform="translate(10.781 19.16)"/></g><path d="m0 0c.084-1.279-.481-2.67-1.396-2.915-.914-.246-1.277.727-1.608 1.961-.331 1.234-.95 2.686-.036 2.932.915.246 2.931-.317 3.04-1.978" fill="#e6aaaa" transform="translate(14.633 20.86)"/><path d="m0 0c0-.553-.448-1-1-1-.552 0-1 .447-1 1 0 .553.448 1 1 1 .552 0 1-.447 1-1" fill="#292f33" transform="translate(10 14)"/><g fill="#66757f"><path d="m0 0c-1.26 1.717-2.833 1.977-4.49 1.979-.729.001-.687-.479-.104-.542 1.076-.115 1.963-.405 2.077-.666.076-.175-.702.041-1.431.041-1.167 0-1.041-.297-.167-.521 1.875-.478 1.834-1.219 2.896-1.187 1.063.033 1.219.896 1.219.896" transform="translate(11.594 18.688)"/><path d="m0 0c-1.65.616-3.942 2.241-6.192 1.991-.751-.083-.462-.518 0-.625.609-.14 1.437-.704 1.731-.932.281-.219-2.314.557-4.065-.109-.872-.332-.514-.563.031-.5.816.093 1.609-.172 2.641-.797 1.031-.625 6.931.57 5.854.972" transform="translate(27.442 25.675)"/></g></g></g></svg>