<svg xmlns="http://www.w3.org/2000/svg" viewBox="0 0 47.5 47.5" enable-background="new 0 0 47.5 47.5"><defs><clipPath id="0"><path d="m0 38h38v-38h-38v38"/></clipPath></defs><g transform="matrix(1.25 0 0-1.25 0 47.5)"><g clip-path="url(#0)"><path d="m0 0c0-2.209-1.791-4-4-4h-28c-2.209 0-4 1.791-4 4v28c0 2.209 1.791 4 4 4h28c2.209 0 4-1.791 4-4v-28" fill="#fcab40" transform="translate(37 5)"/><g fill="#f5f8fa"><path d="m0 0l11.485-20.04 12.365 20.04-23.85.007m11.476-23.287c-1.01 0-1.928.588-2.516 1.615l-11.673 20.374c-.602 1.05-.66 2.149-.159 3.01.473.817 1.363 1.285 2.441 1.285h24.816c1.09 0 1.979-.473 2.439-1.296.485-.87.396-1.962-.242-2.997l-12.631-20.468c-.597-.969-1.499-1.526-2.475-1.526" transform="translate(7.524 26.13)"/><path d="m0 0l23.85-.007-12.37 20.04-11.48-20.04m24.381-3.01h-24.816c-1.079 0-1.968.469-2.441 1.285-.501.866-.444 1.963.158 3.01l11.674 20.374c.588 1.026 1.505 1.614 2.515 1.614.976 0 1.879-.556 2.476-1.527l12.63-20.466c.639-1.035.728-2.127.242-2.996-.46-.824-1.348-1.297-2.438-1.297" transform="translate(7.528 12.507)"/><path d="m0 0c0-2.209-1.791-4-4-4-2.209 0-4 1.791-4 4 0 2.209 1.791 4 4 4 2.209 0 4-1.791 4-4" transform="translate(23 19)"/></g></g></g></svg>