<svg xmlns="http://www.w3.org/2000/svg" viewBox="0 0 47.5 47.5" enable-background="new 0 0 47.5 47.5"><defs><clipPath id="0"><path d="m0 38h38v-38h-38v38"/></clipPath></defs><g transform="matrix(1.25 0 0-1.25 0 47.5)"><g clip-path="url(#0)"><path d="m0 0c0-5.522-8.06-10-18-10-9.941 0-18 4.478-18 10 0 5.522 8.06 10 18 10 9.941 0 18-4.478 18-10" fill="#939598" transform="translate(37 14)"/><path d="m0 0c0-5.522-8.06-10-18-10-9.941 0-18 4.478-18 10 0 5.522 8.06 10 18 10 9.941 0 18-4.478 18-10" fill="#f1f2f2" transform="translate(37 16)"/><path d="m0 0c0-3.988-5.82-7.223-13-7.223-7.18 0-13 3.235-13 7.223 0 3.988 5.82 7.222 13 7.222 7.18 0 13-3.234 13-7.222" fill="#c1694f" transform="translate(32 17)"/><path d="m0 0c0-3.068-4.926-5.556-11-5.556-6.075 0-11 2.488-11 5.556 0 3.068 4.925 5.556 11 5.556 6.074 0 11-2.488 11-5.556" fill="#8a4b38" transform="translate(30 17)"/><path d="m0 0c3.383 0 4.724-2 5.921-2 1.691 0 2.537-2 4.228-9 .698-2.885-4.228-6-10.149-6-5.92 0-10.846 3.115-10.149 6 1.691 7 2.537 9 4.229 9 1.195 0 2.537 2 5.92 2" fill="#ffcc4d" transform="translate(19 30)"/><path d="m0 0c0-2.209-3.408-4-7.612-4-4.204 0-7.612 1.791-7.612 4 0 2.209 3.408 4 7.612 4 4.204 0 7.612-1.791 7.612-4" fill="#662113" transform="translate(26.612 26)"/></g></g></svg>