<svg xmlns="http://www.w3.org/2000/svg" viewBox="0 0 47.5 47.5" enable-background="new 0 0 47.5 47.5"><defs><clipPath id="0"><path d="m0 38h38v-38h-38v38"/></clipPath></defs><g transform="matrix(1.25 0 0-1.25 0 47.5)"><g clip-path="url(#0)"><path d="m0 0c0-2.209-1.791-4-4-4h-28c-2.209 0-4 1.791-4 4v28c0 2.209 1.791 4 4 4h28c2.209 0 4-1.791 4-4v-28" fill="#78b159" transform="translate(37.04 5)"/><g fill="#f5f8fa"><path d="m0 0h-4.104c-.688 0-1.227.327-1.227.985 0 .661.539.991 1.227.991h2.875l-4.792 7.399c-.297.448-.449.775-.449 1.194 0 .571.571.991 1.049.991.481 0 .958-.21 1.378-.839l5.36-8.06 5.363 8.06c.419.629.897.839 1.378.839.477 0 1.046-.42 1.046-.991 0-.419-.149-.746-.449-1.194l-4.792-7.399h2.875c.69 0 1.229-.33 1.229-.991 0-.658-.539-.985-1.229-.985h-4.101v-2.126h4.101c.69 0 1.229-.332 1.229-.99 0-.658-.539-.988-1.229-.988h-4.101v-4.611c0-.868-.539-1.41-1.32-1.41-.778 0-1.317.542-1.317 1.41v4.611h-4.104c-.688 0-1.227.33-1.227.988 0 .658.539.99 1.227.99h4.104v2.126" transform="translate(10.897 22.13)"/><path d="m0 0c-.68 0-1.342.346-1.717.971-.568.947-.261 2.175.686 2.744l5 3c.501.3 1.109.366 1.661.182l4.678-1.559 3.129 3.911c.549.689 1.483.933 2.304.608l3.03-1.212 2.33 6.987c.098.295.263.563.483.782l5 5c.781.781 2.047.781 2.828 0 .781-.781.781-2.047 0-2.828l-4.666-4.666-2.85-8.553c-.174-.522-.557-.95-1.056-1.181-.499-.231-1.072-.247-1.585-.043l-3.622 1.449-3.073-3.841c-.524-.654-1.4-.912-2.194-.648l-5.128 1.709-4.211-2.527c-.322-.193-.677-.285-1.027-.285" transform="translate(5 3)"/></g></g></g></svg>