<svg xmlns="http://www.w3.org/2000/svg" viewBox="0 0 47.5 47.5" enable-background="new 0 0 47.5 47.5"><defs><clipPath id="0"><path d="m0 38h38v-38h-38v38"/></clipPath></defs><g transform="matrix(1.25 0 0-1.25 0 47.5)"><g clip-path="url(#0)"><path d="m0 0c0-2.209-1.791-4-4-4h-28c-2.209 0-4 1.791-4 4v28c0 2.209 1.791 4 4 4h28c2.209 0 4-1.791 4-4v-28" fill="#9266cc" transform="translate(37 5)"/><g fill="#fff"><path d="m0 0c0 1.55.992 2.418 2.325 2.418 1.333 0 2.325-.868 2.325-2.418v-17.611c0-1.551-.992-2.418-2.325-2.418-1.333 0-2.325.867-2.325 2.418v17.611" transform="translate(6.717 27.844)"/><path d="m0 0h3.132c4 0 5.828 2.945 5.828 6.666 0 3.969-1.859 6.852-6.138 6.852h-2.822v-13.518m-4.65 15.409c0 1.427.992 2.388 2.387 2.388h5.147c6.946 0 10.914-4.465 10.914-11.348 0-6.511-4.216-10.728-10.604-10.728h-5.395c-1.024 0-2.449.558-2.449 2.325v17.363z" transform="translate(18.807 12.279)"/></g></g></g></svg>