<svg xmlns="http://www.w3.org/2000/svg" viewBox="0 0 47.5 47.5" enable-background="new 0 0 47.5 47.5"><defs><clipPath id="0"><path d="m0 38h38v-38h-38v38"/></clipPath></defs><g transform="matrix(1.25 0 0-1.25 0 47.5)"><g clip-path="url(#0)"><path d="m0 0c0-2.209-1.791-4-4-4h-28c-2.209 0-4 1.791-4 4v28c0 2.209 1.791 4 4 4h28c2.209 0 4-1.791 4-4v-28" fill="#ea596e" transform="translate(37 5)"/><path d="m0 0l-7.04 4.4c.752.636 1.246 1.662 1.246 2.828 0 1.933-1.344 3.5-3 3.5-1.657 0-3-1.567-3-3.5 0-1.166.493-2.192 1.245-2.828l-7.04-4.4c-.703-.439-.916-1.364-.477-2.067.439-.703 1.364-.915 2.067-.477l4.354 2.722-3.149-9.45h4v-6c0-1.105.896-2 2-2 1.105 0 2 .895 2 2v6h4l-3.15 9.45 4.355-2.722c.247-.155.522-.228.794-.228.5 0 .988.25 1.274.705.438.703.224 1.628-.478 2.067" fill="#fff" transform="translate(27.795 21.273)"/></g></g></svg>