<svg xmlns="http://www.w3.org/2000/svg" viewBox="0 0 47.5 47.5" enable-background="new 0 0 47.5 47.5"><defs><clipPath id="0"><path d="m0 38h38v-38h-38v38"/></clipPath></defs><g transform="matrix(1.25 0 0-1.25 0 47.5)"><g clip-path="url(#0)" fill="#8899a6"><path d="m0 0l6 6c0 0 6 6 12 0 6-6 0-12 0-12l-8-8c0 0-6-6-12 0-1.125 1.125-1.822 2.62-1.822 2.62l3.353 3.348c0 0-.135-1.364 1.469-2.968 0 0 3-3 6 0l8 8c0 0 3 3 0 6-3 3-6 0-6 0l-3.729-3.729c0 0-1.854 1.521-5.646.354l.375.375" transform="translate(16 28)"/><path d="m0 0l-6-6c0 0-6-6-12 0-6 6 0 12 0 12l8 8c0 0 6 6 12 0 1.125-1.125 1.822-2.62 1.822-2.62l-3.353-3.349c0 0 .135 1.365-1.469 2.969 0 0-3 3-6 0l-8-8c0 0-3-3 0-6 3-3 6 0 6 0l3.729 3.729c0 0 1.854-1.52 5.646-.354l-.375-.375" transform="translate(21.845 10)"/></g></g></svg>