<svg xmlns="http://www.w3.org/2000/svg" viewBox="0 0 47.5 47.5" enable-background="new 0 0 47.5 47.5" xmlns:xlink="http://www.w3.org/1999/xlink"><defs><path id="1" d="m0 0c0-1.104-.896-2-2-2-1.104 0-2 .896-2 2 0 1.104.896 2 2 2 1.104 0 2-.896 2-2"/><clipPath id="0"><path d="m0 38h38v-38h-38v38"/></clipPath></defs><g transform="matrix(1.25 0 0-1.25 0 47.5)"><g clip-path="url(#0)"><path d="m0 0c0-1.997-1.619-2.712-3.616-2.712-1.997 0-3.616.715-3.616 2.712l.904 8.136c0 1.996.715 1.807 2.712 1.807 1.997 0 2.712.189 2.712-1.807l.904-8.136" fill="#662113" transform="translate(23.09 4.17)"/><path d="m0 0c-6.294 5.392-8.843 13.11-12.12 13.11-3.276 0-5.824-7.72-12.12-13.11-2.644-2.266-1.385-3.577 2.241-3.314 3.232.232 6.255.965 9.877.965 3.622 0 6.645-.733 9.876-.965 3.627-.263 4.887 1.048 2.242 3.314" fill="#5c913b" transform="translate(31.59 9.325)"/><path d="m0 0c-4.837 4.435-7.555 10.787-10.07 10.787-2.517 0-5.237-6.352-10.07-10.787-3.844-3.524 5.04-4.315 10.07 0 5.03-4.315 13.917-3.524 10.07 0" fill="#3e721d" transform="translate(29.546 11.462)"/><path d="m0 0c-4.837 4.144-7.555 10.08-10.07 10.08-2.517 0-5.237-5.933-10.07-10.08-3.844-3.292 5.04-4.03 10.07 0 5.03-4.03 13.917-3.292 10.07 0" fill="#5c913b" transform="translate(29.546 15.05)"/><path d="m0 0c-3.775 3.235-5.897 7.868-7.864 7.868-1.966 0-4.089-4.633-7.865-7.868-3-2.57 3.933-3.146 7.865 0 3.93-3.146 10.865-2.57 7.864 0" fill="#3e721d" transform="translate(27.336 17.997)"/><path d="m0 0c-3.775 3.235-5.897 7.867-7.864 7.867-1.966 0-4.089-4.632-7.865-7.867-3-2.571 3.933-3.147 7.865 0 3.93-3.147 10.865-2.571 7.864 0" fill="#5c913b" transform="translate(27.336 20.689)"/><path d="m0 0c-3.047 2.61-4.76 6.349-6.347 6.349-1.586 0-3.299-3.739-6.347-6.349-2.422-2.075 3.174-2.54 6.347 0 3.173-2.54 8.77-2.075 6.347 0" fill="#3e721d" transform="translate(25.818 23.08)"/><path d="m0 0c-3.047 2.61-4.76 6.349-6.347 6.349-1.586 0-3.299-3.739-6.347-6.349-2.422-2.075 3.174-2.54 6.347 0 3.173-2.54 8.77-2.075 6.347 0" fill="#5c913b" transform="translate(25.818 25.11)"/><path d="m0 0c-2.317 1.986-3.621 4.831-4.829 4.831-1.207 0-2.511-2.845-4.83-4.831-1.842-1.579 2.415-1.933 4.83 0 2.414-1.933 6.673-1.579 4.829 0" fill="#3e721d" transform="translate(24.301 28.09)"/><path d="m0 0c-2.317 1.986-3.621 4.832-4.829 4.832-1.207 0-2.511-2.846-4.83-4.832-1.842-1.579 2.415-1.933 4.83 0 2.414-1.933 6.673-1.579 4.829 0" fill="#5c913b" transform="translate(24.301 29.17)"/><g fill="#ffcc4d"><path d="m0 0c0-.829-.671-1.5-1.5-1.5-.829 0-1.5.671-1.5 1.5 0 .829.671 1.5 1.5 1.5.829 0 1.5-.671 1.5-1.5" transform="translate(19 24.958)"/><use transform="translate(23 12)" xlink:href="#1"/></g><g fill="#dd2e44"><path d="m0 0c0-1.381-1.12-2.5-2.5-2.5-1.38 0-2.5 1.119-2.5 2.5 0 1.381 1.12 2.5 2.5 2.5 1.38 0 2.5-1.119 2.5-2.5" transform="translate(26 21.5)"/><use transform="translate(13 11)" xlink:href="#1"/></g><g fill="#a6d388"><use transform="translate(17 18)" xlink:href="#1"/><use transform="translate(29 14)" xlink:href="#1"/></g><path d="m0 0c.143-.275.512-.549.817-.609l1.379-.269c.305-.059.377-.29.159-.512l-.983-1.01c-.217-.222-.365-.656-.326-.965l.17-1.394c.038-.308-.159-.448-.439-.31l-1.256.625c-.28.138-.739.144-1.021.012l-1.273-.594c-.283-.13-.476.014-.431.322l.205 1.39c.046.307-.09.745-.302.973l-.958 1.028c-.212.227-.135.457.172.509l1.385.234c.307.051.681.316.832.588l.682 1.229c.151.272.393.269.537-.006l.651-1.246" fill="#ffac33" transform="translate(20.379 35.32)"/></g></g></svg>