<svg xmlns="http://www.w3.org/2000/svg" viewBox="0 0 47.5 47.5" enable-background="new 0 0 47.5 47.5"><defs><clipPath id="0"><path d="m0 38h38v-38h-38v38"/></clipPath></defs><g transform="matrix(1.25 0 0-1.25 0 47.5)"><g clip-path="url(#0)"><path d="m0 0c0-9.389-7.611-17-17-17-9.388 0-17 7.611-17 17 0 9.388 7.612 17 17 17 9.389 0 17-7.612 17-17" fill="#ffcc4d" transform="translate(36 19)"/><g fill="#664500"><path d="m0 0c0-1.934-1.119-3.5-2.5-3.5-1.381 0-2.5 1.566-2.5 3.5 0 1.933 1.119 3.5 2.5 3.5 1.381 0 2.5-1.567 2.5-3.5" transform="translate(15 21.5)"/><path d="m0 0c-.06.135-1.499 3.297-4.457 3.297-2.957 0-4.397-3.162-4.457-3.297-.092-.207-.032-.449.144-.591.175-.142.426-.147.611-.014.012.009 1.262.902 3.702.902 2.426 0 3.674-.881 3.702-.901.088-.066.193-.099.298-.099.11 0 .221.036.311.109.178.142.239.386.146.594" transform="translate(29.457 19.2)"/><path d="m0 0c-.208 0-.419.065-.599.2-.442.331-.531.958-.2 1.4 3.262 4.35 7.616 4.4 7.8 4.4.552 0 1-.448 1-1 0-.551-.445-.998-.996-1-.155-.002-3.568-.086-6.204-3.6-.197-.262-.497-.4-.801-.4" transform="translate(6.999 26)"/><path d="m0 0c-.305 0-.604.138-.801.4-2.592 3.456-6.961 2.628-7 2.62-.547-.111-1.068.243-1.176.784-.109.541.243 1.068.784 1.176.23.048 5.657 1.072 8.996-3.38.332-.442.242-1.069-.2-1.4-.18-.135-.39-.2-.599-.2" transform="translate(30 23)"/><path d="m0 0c1.335.412 2.629 1.156 2.629 2.5 0 2.619-4.912 2.968-5.472 2.999-.274.026-.51-.193-.527-.468-.017-.273.19-.51.464-.53.035-.002 3.535-.299 3.535-2 0-1.702-3.5-1.999-3.535-2-.014-.001-.025-.009-.037-.011-.053-.006-.101-.017-.147-.04-.007-.003-.012-.008-.018-.011-.047-.026-.089-.056-.125-.097-.014-.015-.024-.031-.036-.048-.023-.032-.044-.063-.059-.102-.012-.029-.018-.06-.025-.091-.004-.024-.016-.044-.017-.068-.001-.01.004-.02.004-.031 0-.011-.005-.021-.004-.031.001-.025.013-.045.018-.069.006-.031.011-.06.023-.089.013-.031.031-.057.049-.084.017-.025.032-.05.052-.072.023-.023.051-.041.078-.06.025-.017.046-.034.074-.047.032-.015.066-.021.1-.027.024-.006.045-.018.07-.02.035-.002 3.535-.299 3.535-2 0-1.702-3.5-1.999-3.535-2-.274-.02-.481-.257-.464-.53.017-.265.237-.469.498-.469.01 0 .019 0 .029.001.56.031 5.472.38 5.472 2.999 0 1.344-1.294 2.088-2.629 2.5" transform="translate(21.871 9)"/></g><path d="m0 0c.739 1.516.11 3.347-1.405 4.086-.922.449-1.956.391-2.793-.06-.16.937-.75 1.789-1.67 2.238-1.518.74-3.348.109-4.087-1.407-.106-.214-.18-.436-.231-.659-.774-2.555.64-6.341 2.193-7.948 2.222-.234 6.077.979 7.615 3.161.145.179.273.374.378.589" fill="#e75a70" transform="translate(36.404 9.778)"/></g></g></svg>