<svg xmlns="http://www.w3.org/2000/svg" viewBox="0 0 47.5 47.5" enable-background="new 0 0 47.5 47.5"><defs><clipPath id="0"><path d="m0 38h38v-38h-38v38"/></clipPath></defs><g transform="matrix(1.25 0 0-1.25 0 47.5)"><path d="m37 3h-36v-2h36v2" fill="#939598"/><g clip-path="url(#0)"><path d="m0 0h33v29h-15c-4 0-5-2-5-2l-4-6c0 0-12-5-12-9.999 0-4 6-6 6-6l-3-5" fill="#d1d3d4" transform="translate(4 2)"/><path d="m0 0l2 3h20v-3h-22" fill="#231f20" transform="translate(15 2)"/><g fill="#3b88c3"><path d="m0 0c0-4 6-6 6-6v12.875c-3-1.875-6-4.375-6-6.875" transform="translate(1 13)"/><path d="m0 0v.001-.001" transform="translate(7 7)"/></g><path d="m0 0l-3-5h33v5h-30" fill="#269" transform="translate(7 7)"/><path d="m0 0l4 6h12v-6h-16" fill="#3b88c3" transform="translate(21 7)"/><path d="m0 0h-10l-4-6h10.842c.476 0 1.108.448 1.412 1l2.197 4c.303.552.102 1-.451 1" fill="#55acee" transform="translate(27 29)"/><path d="m0 0l.549 1c.303.552.101 1-.451 1h-10l-1.333-2h11.236" fill="#3b88c3" transform="translate(26.902 27)"/></g></g></svg>