<svg xmlns="http://www.w3.org/2000/svg" viewBox="0 0 47.5 47.5" enable-background="new 0 0 47.5 47.5"><defs><clipPath id="0"><path d="m0 38h38v-38h-38v38"/></clipPath></defs><g transform="matrix(1.25 0 0-1.25 0 47.5)"><g clip-path="url(#0)"><path d="m0 0c-2.229 0-8.468-.785-10.07-1.832-1.601 1.047-7.84 1.832-10.07 1.832-2.565 0-1.161-1.039-1.161-2.322 0-1.282-1.404-2.323 1.161-2.323 2.229 0 8.468.786 10.07 1.832 1.6-1.046 7.839-1.832 10.07-1.832 2.565 0 1.161 1.041 1.161 2.323 0 1.283 1.404 2.322-1.161 2.322" fill="#ffac33" transform="translate(29.07 5.645)"/><path d="m0 0c-1.25 2.499-3.152 4.995-4.942 6.723-2.452 5.432-6.03 9.143-8.788 9.143-2.759 0-6.337-3.71-8.788-9.142-1.791-1.729-3.693-4.224-4.943-6.724-2.438-4.876-3.116-11.426-2.078-11.944.873-.437 2.324 1.551 4.208 5.082.268-10.876 7.05-10.95 11.601-10.95 4.552 0 11.333.074 11.6 10.948 1.884-3.529 3.335-5.517 4.207-5.08 1.038.518.361 7.07-2.077 11.944" fill="#292f33" transform="translate(32.731 21.13)"/><path d="m0 0c-.85-.607-2.172-1.186-3.675-1.186-1.503 0-2.825.579-3.675 1.186-3.302-2.137-5.615-7.06-5.615-12.799 0-7.695 4.159-13.935 9.29-13.935 5.132 0 9.291 6.24 9.291 13.935 0 5.738-2.313 10.662-5.616 12.799" fill="#f5f8fa" transform="translate(22.675 30.06)"/><path d="m0 0h-5.808c-3.847 0-4.644.78-4.644 1.743 0 .962-.364 1.741 3.483 1.741 5.808 0 8.13-3.484 6.969-3.484" fill="#ffac33" transform="translate(29.452 31)"/><path d="m0 0c0-.642-.52-1.162-1.161-1.162-.642 0-1.161.52-1.161 1.162 0 .641.519 1.161 1.161 1.161.641 0 1.161-.52 1.161-1.161" fill="#f5f8fa" transform="translate(17.839 33.517)"/></g></g></svg>