<svg xmlns="http://www.w3.org/2000/svg" viewBox="0 0 47.5 47.5" enable-background="new 0 0 47.5 47.5"><defs><clipPath id="0"><path d="m0 38h38v-38h-38v38"/></clipPath></defs><g transform="matrix(1.25 0 0-1.25 0 47.5)"><path d="m0 0h-2l1 8h2l-1-8" fill="#5c913b" transform="translate(34 10)"/><g clip-path="url(#0)"><path d="m0 0c9.05-.053 11-1 17-2 2.959-.493 7-1 11-1 2 0 4-1 4-4 0-2 .534-3.186-5.433-3.814-3.977-.419-14.567 1.814-18.567 3.814-6 3-9 7.01-8 7" fill="#dd2e44" transform="translate(2 23)"/><path d="m37 13h-36v-12h36v12" fill="#55acee"/><path d="m0 0c4 0 11 0 18-1 7-1 10-1 10-3v-3c0-1.414-6.869-.447-10 0-7 1-14 3-18 4-4.047 1.01-7 3 0 3" fill="#ffcc4d" transform="translate(6 24)"/><path d="m0 0c2.122.539 2.403 1.307 2.418 2.361-1.263-.619-3.699-.32-5.886-.047-7.96.996-16.481 2.936-24.721 5.609 1.043-1.04 2.584-2.29 4.568-3.484 6.706-1.901 13.484-3.306 19.905-4.109 1.258-.157 2.529-.311 3.716-.33" fill="#a0041e" transform="translate(31.592 12.678)"/><path d="m0 0c3 2 7 5 6 3-1-2-1-3 1-2 2 1 5 2 4 0-1-2 2-1 3 0 1 1 4 0 3-1-1-1-9-2-12-2-3 0-5 2-5 2" fill="#55acee" transform="translate(13 13)"/><path d="m0 0h-1c-1.104 0-2-.896-2-2h1c.553 0 1-.447 1-1v-1h1c1.104 0 2-.104 2 1 0 1.104-.896 3-2 3" fill="#5c913b" transform="translate(35 21)"/><path d="m0 0c.97-.243 0-2-1-3-1-1-10 1-10 1l2 3c0 0 5 0 9-1" fill="#c1694f" transform="translate(31 21)"/><path d="m0 0c.328.328.645.737.899 1.147-1.474.764-3.629 1.386-6.079 1.665-1.249.142-2.441.178-3.527.127l-1.293-1.939c0 0 9-2 10-1" fill="#a0041e" transform="translate(30 18)"/><path d="m0 0v1l-4-1-2-2 4-1 2 3" fill="#55acee" transform="translate(22 22)"/><path d="m0 0c-.553 0-1-1.343-1-3 0-.612.062-1.181.167-1.655.502-.128 1.035-.221 1.592-.278.148.523.241 1.193.241 1.933 0 1.657-.447 3-1 3" fill="#292f33" transform="translate(24 23)"/></g></g></svg>