<svg xmlns="http://www.w3.org/2000/svg" viewBox="0 0 47.5 47.5" enable-background="new 0 0 47.5 47.5"><defs><clipPath id="0"><path d="m0 38h38v-38h-38v38"/></clipPath></defs><g transform="matrix(1.25 0 0-1.25 0 47.5)"><g clip-path="url(#0)"><path d="m0 0c0-9.389-7.611-17-17-17-9.388 0-17 7.611-17 17 0 9.388 7.612 17 17 17 9.389 0 17-7.612 17-17" fill="#fdcb58" transform="translate(36 19)"/><g fill="#664500"><path d="m0 0c-.045.179-1.168 4.379-7.485 4.379-6.318 0-7.441-4.2-7.485-4.379-.055-.217.043-.442.237-.554.195-.111.439-.078.599.077.019.019 1.954 1.856 6.649 1.856 4.694 0 6.63-1.837 6.648-1.856.096-.094.224-.144.352-.144.084 0 .169.021.246.064.196.112.294.339.239.557" transform="translate(26.485 9.121)"/><path d="m0 0c-.305 0-.604.138-.801.4-2.431 3.244-6.513.846-6.685.743-.475-.285-1.089-.13-1.372.342-.285.474-.131 1.088.342 1.372 1.998 1.199 6.514 2.477 9.315-1.257.332-.442.242-1.069-.2-1.4-.18-.135-.39-.2-.599-.2" transform="translate(30 23)"/><path d="m0 0c-.208 0-.419.065-.599.2-.442.331-.531.958-.2 1.4 2.801 3.734 7.318 2.456 9.315 1.257.473-.284.627-.898.342-1.372-.283-.473-.896-.628-1.37-.343-.178.106-4.274 2.475-6.687-.742-.197-.262-.497-.4-.801-.4" transform="translate(7.999 23)"/><path d="m0 0c0 .552-.447 1-1 1h-7c-.553 0-1-.448-1-1 0-.552.447-1 1-1h5.092c.207-.581.756-1 1.408-1 .828 0 1.5.671 1.5 1.5 0 .11-.014.217-.036.321.012.06.036.116.036.179" transform="translate(30 21)"/><path d="m0 0c0 .552-.448 1-1 1h-7c-.552 0-1-.448-1-1 0-.552.448-1 1-1h5.092c.207-.581.756-1 1.408-1 .828 0 1.5.671 1.5 1.5 0 .11-.014.217-.036.321.011.06.036.116.036.179" transform="translate(17 21)"/></g></g></g></svg>