<svg xmlns="http://www.w3.org/2000/svg" viewBox="0 0 47.5 47.5" enable-background="new 0 0 47.5 47.5"><defs><clipPath id="0"><path d="m0 38h38v-38h-38v38"/></clipPath></defs><g transform="matrix(1.25 0 0-1.25 0 47.5)"><g clip-path="url(#0)"><path d="m0 0c-2 0-2-2-2-2v-20c0 0 0-2 2-2h32c2 0 2 2 2 2v20c0 0 0 2-2 2h-32" fill="#c6e4b5" transform="translate(3 32)"/><path d="m24 7.938h-10v24.06h10v-24.06" fill="#9aaab4"/><path d="m0 0c0-.658-1.474-1.447-3.301-1.447-2.42 0-3.877 1.68-4.361 3.742h-1.294c-.315 0-.571.255-.571.569 0 .316.256.571.571.571h1.129c-.008.135-.029.269-.029.405 0 .3.026.597.064.889h-1.164c-.315 0-.571.256-.571.572 0 .314.256.569.571.569h1.416c.593 1.835 2.03 3.257 4.313 3.257 1.84 0 3.01-.993 3.01-1.52 0-.336-.204-.612-.526-.612-.584 0-.876 1.023-2.482 1.023-1.51 0-2.428-.943-2.891-2.148h3.326c.315 0 .571-.255.571-.569 0-.316-.256-.572-.571-.572h-3.621c-.043-.295-.071-.594-.071-.889 0-.134.015-.27.025-.405h3.667c.315 0 .571-.255.571-.571 0-.314-.256-.569-.571-.569h-3.486c.389-1.43 1.345-2.631 2.977-2.631 1.564 0 2.25.934 2.79.934.307 0 .511-.234.511-.598" fill="#67757f" transform="translate(12.527 11.447)"/></g></g></svg>