<svg xmlns="http://www.w3.org/2000/svg" viewBox="0 0 47.5 47.5" enable-background="new 0 0 47.5 47.5"><defs><clipPath id="0"><path d="m0 38h38v-38h-38v38"/></clipPath></defs><g transform="matrix(1.25 0 0-1.25 0 47.5)"><g clip-path="url(#0)"><path d="m0 0c-.113 0-.217-.003-.32-.005v.415c4.804.479 8.548 4.264 8.548 7.301 0 3.249 0-1.47-9.562-1.47-9.558 0-9.558 4.719-9.558 1.47 0-3.043 3.757-6.838 8.572-7.305v-.411c-.104.002-.207.005-.321.005-2.553 0-6.603 2.05-6.603 1.32 0-.645 4.186-4.02 6.924-4.796v-6.166c0-.552.447-1 1-1 .552 0 1 .448 1 1v6.166c2.738.78 6.924 4.151 6.924 4.796 0 .73-4.05-1.32-6.604-1.32" fill="#3e721d" transform="translate(20.32 11.642)"/><path d="m0 0c-3.887 4.412 1.506 5.882-2.592 5.882-.713 0-1.921-.44-3.29-1.189-.694 1.572-1.622 2.66-2.645 2.66-2.051 0-3.726-4.342-3.873-8.27-1.109-1.542-1.855-3.234-1.855-4.965 0-6.092 2.59-8.824 6.479-8.824 7.776 0 13.643 8.05 7.776 14.706" fill="#a0041e" transform="translate(27.527 29.647)"/><path d="m0 0c0-6.092-2.59-8.823-6.479-8.823-7.776 0-13.644 8.05-7.776 14.705 3.888 4.412-1.506 5.883 2.592 5.883 2.592 0 11.663-5.674 11.663-11.765" fill="#be1931" transform="translate(24.728 23.765)"/></g></g></svg>