<svg xmlns="http://www.w3.org/2000/svg" viewBox="0 0 47.5 47.5" enable-background="new 0 0 47.5 47.5"><defs><clipPath id="0"><path d="m0 38h38v-38h-38v38"/></clipPath></defs><g transform="matrix(1.25 0 0-1.25 0 47.5)"><g clip-path="url(#0)"><path d="m0 0c0-8.318-6.744-15.06-15.06-15.06-8.318 0-15.06 6.745-15.06 15.06 0 8.318 6.744 15.06 15.06 15.06 8.319 0 15.06-6.745 15.06-15.06" fill="#8ccaf7" transform="translate(34 21.938)"/><path d="m0 0c0-1.104-.896-2-2-2h-20c-1.104 0-2 .896-2 2v4c0 1.104.896 2 2 2h20c1.104 0 2-.896 2-2v-4" fill="#bf6952" transform="translate(31 5)"/><g fill="#5dadec"><path d="m0 0c0-2.209-1.791-4-4-4-2.209 0-4 1.791-4 4 0 2.209 1.791 4 4 4 2.209 0 4-1.791 4-4" transform="translate(28 24)"/><path d="m0 0c0-1.657-1.343-3-3-3-1.657 0-3 1.343-3 3 0 1.657 1.343 3 3 3 1.657 0 3-1.343 3-3" transform="translate(19 18)"/><path d="m0 0c0-1.105-.895-2-2-2-1.105 0-2 .895-2 2 0 1.105.895 2 2 2 1.105 0 2-.895 2-2" transform="translate(19 31)"/></g></g></g></svg>