<svg xmlns="http://www.w3.org/2000/svg" viewBox="0 0 47.5 47.5" enable-background="new 0 0 47.5 47.5"><defs><clipPath id="0"><path d="m0 38h38v-38h-38v38"/></clipPath></defs><g transform="matrix(1.25 0 0-1.25 0 47.5)"><g clip-path="url(#0)"><path d="m0 0c0 0-2 0-2-2v-12c0-2 2-2 2-2h6l8-8c0 0 1-1 2-1h1c0 0 1 0 1 1v32c0 0 0 1-1 1h-1c-1 0-2-1-2-1l-8-8h-6" fill="#8899a6" transform="translate(3 27)"/><path d="m0 0l8-8c0 0 1-1 2-1h1c0 0 1 0 1 1v32c0 0 0 1-1 1h-1c-1 0-2-1-2-1l-8-8v-16" fill="#ccd6dd" transform="translate(9 11)"/><g fill="#8899a6"><path d="m0 0c-.267 0-.533.113-.72.332-.339.398-.292.995.106 1.334 3.602 3.071 5.668 7.551 5.668 12.29 0 4.739-2.067 9.219-5.669 12.29-.398.339-.445.936-.106 1.334.339.399.936.444 1.334.106 4.02-3.431 6.333-8.436 6.333-13.73 0-5.294-2.308-10.299-6.332-13.729-.178-.153-.396-.227-.614-.227" transform="translate(30 4.981)"/><path d="m0 0c-.269 0-.533.115-.717.338-.327.395-.27.98.125 1.307 2.792 2.303 4.394 5.699 4.394 9.314 0 3.573-1.572 6.943-4.311 9.245-.392.33-.443.916-.113 1.308.33.394.915.444 1.309.114 3.16-2.656 4.972-6.543 4.972-10.667 0-4.172-1.847-8.089-5.069-10.746-.173-.144-.382-.213-.59-.213" transform="translate(27.27 8.04)"/><path d="m0 0c-.289 0-.576.124-.773.365-.351.427-.289 1.057.137 1.407 1.861 1.529 2.927 3.784 2.927 6.187 0 2.435-1.089 4.708-2.988 6.236-.431.347-.498.976-.153 1.406.348.429.977.499 1.407.152 2.373-1.91 3.734-4.751 3.734-7.794 0-3-1.333-5.822-3.657-7.731-.186-.154-.411-.228-.634-.228" transform="translate(24.709 11.04)"/></g></g></g></svg>