<svg xmlns="http://www.w3.org/2000/svg" viewBox="0 0 47.5 47.5" enable-background="new 0 0 47.5 47.5"><defs><clipPath id="0"><path d="m0 38h38v-38h-38v38"/></clipPath></defs><g transform="matrix(1.25 0 0-1.25 0 47.5)"><g clip-path="url(#0)"><path d="m0 0c0-2.209-1.791-4-4-4h-28c-2.209 0-4 1.791-4 4v28c0 2.209 1.791 4 4 4h28c2.209 0 4-1.791 4-4v-28" fill="#f4900c" transform="translate(37 5)"/><path d="m0 0c0 .52-.261.676-.806.676h-10.634c-.52 0-.832-.156-.832-.676v-3.432h12.272v3.432m-12.272-5.382c-.027-1.456-.027-2.938-.183-4.395h12.455v4.395h-12.272zm-.416-6.344c-.469-3.276-1.457-5.877-3.329-8.04-.234-.26-.545-.39-.858-.39-.26 0-.52.078-.754.26-.286.208-.416.52-.416.807 0 .233.104.493.286.702 2.861 3.119 3.432 7.227 3.432 14.534v4.238c0 1.586.78 2.236 2.341 2.236h11.7c1.534 0 2.314-.65 2.314-2.236v-17.889c0-1.69-.702-2.444-3.354-2.444-1.015 0-2 .104-2.834.286-.494.104-.806.416-.806.936 0 .078 0 .182.026.286.129.546.468.78.832.78.078 0 .156 0 .234-.026.676-.182 1.482-.285 2.288-.285 1.352 0 1.586.207 1.586 1.039v5.201h-12.688" fill="#fff" transform="translate(25.657 27.28)"/></g></g></svg>