<svg xmlns="http://www.w3.org/2000/svg" viewBox="0 0 47.5 47.5" enable-background="new 0 0 47.5 47.5" xmlns:xlink="http://www.w3.org/1999/xlink"><defs><clipPath id="0"><path d="m0 38h38v-38h-38v38"/></clipPath></defs><g transform="matrix(1.25 0 0-1.25 0 47.5)"><g clip-path="url(#0)"><g fill="#414042"><path d="m0 0c0 0 0-4-4-4h-26c-4 0-4 4-4 4v19c0 4 4 4 4 4h26c0 0 4 0 4-4v-19" transform="translate(36 6)"/><path d="m0 0c.391-.391.391-1.023 0-1.414-.391-.391-1.023-.391-1.414 0l-9.192 9.192c-.391.391-.391 1.024 0 1.414.391.391 1.023.391 1.414 0l9.192-9.192" transform="translate(22.303 26.611)"/><path d="m0 0c-.391-.391-.391-1.023 0-1.414.391-.391 1.023-.391 1.414 0l9.192 9.192c.391.391.391 1.024 0 1.414-.391.391-1.023.391-1.414 0l-9.192-9.192" transform="translate(15.697 26.611)"/></g><path d="m0 0c8 0 10-1 11-2 1-1 2-3 2-8 0-5-1-7-2-8-1-1-3-2-11-2-8 0-10 1-11 2-1 1-2 3-2 8 0 5 1 7 2 8 1 1 3 2 11 2" fill="#55acee" transform="translate(19 26)"/><path d="m0 0c0 .829.671 1.5 1.5 1.5.829 0 1.5-.671 1.5-1.5 0-.829-.671-1.5-1.5-1.5-.829 0-1.5.671-1.5 1.5" fill="#66757f" transform="translate(31 5.5)" id="1"/><use transform="translate(-27)" xlink:href="#1"/></g></g></svg>