<svg xmlns="http://www.w3.org/2000/svg" viewBox="0 0 47.5 47.5" enable-background="new 0 0 47.5 47.5"><defs><clipPath id="0"><path d="m0 38h38v-38h-38v38"/></clipPath></defs><g transform="matrix(1.25 0 0-1.25 0 47.5)"><g clip-path="url(#0)"><path d="m0 0c0 0 1.18-.215 1.18-1.256 0-1.043-1.042-1.256-2.084-1.256h-17.72c-2.084 0-2.084 3.34-5.212 9.594-3.127 6.255-6.253 2-6.253 2l-1.042-12.595h-2.408v13.936c0 2.084-.881 4.285-.881 5.211 0 2.084.672 4.395.672 4.395l6.746-2.311 27-17.719" fill="#292f33" transform="translate(35.539 5.512)"/><path d="m0 0c3.036-.732 10.291-3.88 13.969-17.379 0 0 0-1.34 2.363-1.34h16.539c0 0 1.18.257 1.18 2.424 0 1.084-5.907 3.38-8.27 4.464-2.361 1.084-4.445 4.317-4.445 4.317 0 0-4.17-1.635-11.258 5.952-7.088 7.587-4.378 10.438-6.741 10.438-.485 0-3.738-3.307-4.544-7.04-.115-.533.343-1.63 1.207-1.838" fill="#9266cc" transform="translate(2.668 23.719)"/></g></g></svg>