<svg xmlns="http://www.w3.org/2000/svg" viewBox="0 0 47.5 47.5" enable-background="new 0 0 47.5 47.5" xmlns:xlink="http://www.w3.org/1999/xlink"><defs><path id="1" d="m0 0c0-.552-.447-1-1-1-.553 0-1 .448-1 1 0 .552.447 1 1 1 .553 0 1-.448 1-1" fill="#3e721d"/><path id="2" d="m0 0c0-.553-.447-1-1-1-.553 0-1 .447-1 1 0 .553.447 1 1 1 .553 0 1-.447 1-1" fill="#3e721d"/><clipPath id="0"><path d="m0 38h38v-38h-38v38"/></clipPath></defs><g transform="matrix(1.25 0 0-1.25 0 47.5)"><g clip-path="url(#0)"><path d="m0 0c-2.209 0-4-1.791-4-4v-9.125c0-1.086-.887-1.96-2-2.448v13.573c0 3.313-2.687 6-6 6-3.313 0-6-2.687-6-6v-17.629c-1.122.475-2 1.371-2 2.504v5.125c0 2.209-1.791 4-4 4-2.209 0-4-1.791-4-4v-7c0-2.209 1.75-3.875 3.375-4.812 1.244-.718 4.73-1.6 6.625-1.652v-3.536c0-3.313 12-3.313 12 0v7.549c1.981.119 5.291.953 6.479 1.639 1.625.937 3.521 2.603 3.521 4.812v11c0 2.209-1.791 4-4 4" fill="#77b255" transform="translate(31 33)"/><path d="m0 0c0-.552-.448-1-1-1-.552 0-1 .448-1 1 0 .552.448 1 1 1 .552 0 1-.448 1-1" fill="#3e721d" transform="translate(14 31)"/><use transform="translate(25 34)" xlink:href="#1"/><use transform="translate(23 28)" xlink:href="#1"/><use transform="translate(16 21)" xlink:href="#1"/><path d="m0 0c0-.553-.447-1-1-1-.553 0-1 .447-1 1 0 .553.447 1 1 1 .553 0 1-.447 1-1" fill="#3e721d" transform="translate(22 17)"/><use transform="translate(15 11)" xlink:href="#2"/><use transform="translate(7 10)" xlink:href="#2"/><use transform="translate(11 17)" xlink:href="#2"/><use transform="translate(4 19)" xlink:href="#2"/><use transform="translate(36 29)" xlink:href="#2"/><use transform="translate(30 26)" xlink:href="#2"/><use transform="translate(34 21)" xlink:href="#2"/><use transform="translate(31 13)" xlink:href="#2"/><use transform="translate(24 7)" xlink:href="#2"/></g></g></svg>