<svg xmlns="http://www.w3.org/2000/svg" viewBox="0 0 47.5 47.5" enable-background="new 0 0 47.5 47.5"><defs><clipPath id="0"><path d="m5 37c-2.209 0-4-1.791-4-4v-28c0-2.209 1.791-4 4-4h28c2.209 0 4 1.791 4 4v28c0 2.209-1.791 4-4 4h-28"/></clipPath></defs><g transform="matrix(1.25 0 0-1.25 0 47.5)"><g clip-path="url(#0)"><path d="m38 0h-38v38h38v-38" fill="#88c9f9"/><g fill="#66757f"><path d="m0 0v29l4 4h2l4-4v-29h-10" transform="translate(11 1)"/><path d="m0 0c0 1-1.286 1-1.286 1h-6.428c0 0-1.286.001-1.286-1v-25h9v25" transform="translate(34 26)"/></g><g fill="#292f33"><path d="m0 0c0 1-1 1-1 1h-8c-1 0-1-1-1-1v-19h10v19" transform="translate(29 20)"/><path d="m0 0c0 0 0 1-1 1h-5v-23h6v22" transform="translate(7 23)"/><path d="m0 0c0 0 0 1-1 1h-6c0 0-1 .001-1-1v-16h8v16" transform="translate(13 17)"/></g><g fill="#ffcc4d"><path d="m11 6h-2v2h2v-2"/><path d="m11 14h-2v2h2v-2"/><path d="m9 10h-2v2h2v-2"/><path d="m19 26h-2v2h2v-2"/><path d="m19 22h-2v2h2v-2"/><path d="m17 18h-2v2h2v-2"/><path d="m27 17h-2v2h2v-2"/><path d="m25 13h-2v2h2v-2"/><path d="m23 7h-2v2h2v-2"/><path d="m32 23h-2v2h2v-2"/><path d="m32 19h-2v2h2v-2"/></g><path d="m0 0c-2.125 0-3.928-1.33-4.652-3.198-.786 1.311-2.207 2.198-3.848 2.198-.763 0-1.47-.207-2.099-.542-.629.931-1.694 1.542-2.901 1.542-1.524 0-2.808-.981-3.288-2.342-.528.218-1.105.342-1.712.342-1.757 0-3.263-1.018-4-2.486-.604.3-1.275.486-1.996.486-1.183 0-2.25-.466-3.054-1.213-.767.961-1.934 1.588-3.258 1.588-2.313 0-4.188-1.875-4.188-4.187 0-2.313 1.875-4.188 4.188-4.188.995 0 1.897.361 2.616.942.812-1.171 2.162-1.942 3.696-1.942.561 0 1.092.115 1.587.303.433-.192.909-.303 1.413-.303 1.4 0 2.599.828 3.159 2.02 1.132.041 2.155.494 2.924 1.22.546-.746 1.421-1.236 2.417-1.236 1.09 0 2.035.587 2.561 1.456.588-.284 1.241-.456 1.939-.456 1.831 0 3.399 1.098 4.103 2.668.839-1.58 2.483-2.668 4.397-2.668 2.762 0 5 2.238 5 5 0 2.762-2.238 5-5 5" fill="#e1e8ed" transform="translate(35 17)"/><path d="m0 0c-2.926 0-5.429-1.796-6.475-4.344-.175.019-.345.053-.525.053-.702 0-1.369-.147-1.976-.409-.733.855-1.809 1.409-3.02 1.409-2.209 0-4-1.791-4-4 0-.05.013-.097.015-.146-.326.085-.662.146-1.015.146-.876 0-1.679-.289-2.338-.767-.597.473-1.342.767-2.162.767-.198 0-.388-.026-.577-.059-.637 1.78-2.321 3.059-4.319 3.059-2.542 0-4.604-2.062-4.604-4.605 0-2.542 2.062-4.604 4.604-4.604.783 0 1.509.214 2.154.558.64-.816 1.624-1.349 2.742-1.349.546 0 1.057.136 1.517.359.733-.827 1.791-1.359 2.983-1.359 1.729 0 3.188 1.103 3.747 2.639.546-.398 1.213-.639 1.94-.639.387 0 .752.079 1.097.2.871-.738 1.985-1.2 3.216-1.2 1.299 0 2.472.508 3.36 1.32 1.062-.648 2.305-1.029 3.64-1.029 3.866 0 7 3.134 7 7 0 3.866-3.134 7-7 7" fill="#ccd6dd" transform="translate(31 13.291)"/></g></g></svg>