<svg xmlns="http://www.w3.org/2000/svg" viewBox="0 0 47.5 47.5" enable-background="new 0 0 47.5 47.5"><defs><clipPath id="0"><path d="m0 38h38v-38h-38v38"/></clipPath></defs><g transform="matrix(1.25 0 0-1.25 0 47.5)"><g clip-path="url(#0)"><path d="m0 0c0 8.284-5.373 15-12 15-6.627 0-12-6.716-12-15 0-8.284 5.373-15 12-15 6.627 0 12 6.716 12 15" fill="#58595b" transform="translate(31 16)"/><path d="m0 0c0 7.03-4.478 12.727-10 12.727-5.523 0-10-5.698-10-12.727 0-7.03 4.477-12.728 10-12.728 5.522 0 10 5.699 10 12.728" fill="#d99e82" transform="translate(29 16)"/><g fill="#662113"><path d="m0 0c-.552 0-1 .447-1 1v2c0 .553.448 1 1 1 .552 0 1-.447 1-1v-2c0-.553-.448-1-1-1" transform="translate(15 10)"/><path d="m0 0c-.553 0-1 .447-1 1v2c0 .553.447 1 1 1 .553 0 1-.447 1-1v-2c0-.553-.447-1-1-1" transform="translate(23 10)"/></g><path d="m0 0h-4c-.552 0-1 .447-1 1 0 .553.448 1 1 1h4c.553 0 1-.447 1-1 0-.553-.447-1-1-1" fill="#c1694f" transform="translate(21 5)"/><path d="m0 0c0 3-2.134 5-5 5h-14c-3 0-5-2-5-5v-15c0-2.209 1.791-4 4-4h16c2.209 0 4 1.791 4 4v15" transform="translate(31 32)"/><path d="m0 0c0-.553-.448-1-1-1-.552 0-1 .447-1 1 0 .553.448 1 1 1 .552 0 1-.447 1-1" fill="#c1694f" transform="translate(20 10)"/></g></g></svg>