<svg xmlns="http://www.w3.org/2000/svg" viewBox="0 0 47.5 47.5" enable-background="new 0 0 47.5 47.5"><defs><clipPath id="0"><path d="m0 38h38v-38h-38v38"/></clipPath></defs><g transform="matrix(1.25 0 0-1.25 0 47.5)"><g clip-path="url(#0)"><path d="m0 0c0-4.5-8.06-11.5-18-11.5-9.941 0-18 7-18 11.5 0 1.5 3-1.5 18-1.5 15 0 18 3 18 1.5" fill="#662113" transform="translate(37 29.5)"/><path d="m0 0c-6 0-11 1-11 1v-12c0-6.075 4.925-11 11-11 6.075 0 11 4.925 11 11v12c0 0-5-1-11-1" fill="#ea596e" transform="translate(19 26)"/><path d="m0 0c0-.553-.448-1-1-1-.552 0-1 .447-1 1v16c0 .552.448 1 1 1 .552 0 1-.448 1-1v-16" fill="#dd2e44" transform="translate(20 8)"/></g></g></svg>