<svg xmlns="http://www.w3.org/2000/svg" viewBox="0 0 47.5 47.5" enable-background="new 0 0 47.5 47.5"><defs><clipPath id="0"><path d="m0 38h38v-38h-38v38"/></clipPath></defs><g transform="matrix(1.25 0 0-1.25 0 47.5)"><g clip-path="url(#0)"><path d="m0 0h-6.967c-1.1 0-2 .9-2 2v6.968c0 1.099.636 1.363 1.414.586l8.139-8.14c.777-.777.513-1.414-.586-1.414m18.14-5.172l-32.28 32.28c-1.555 1.556-2.828 1.029-2.828-1.171v-29.935c0-2.2 1.8-4 4-4h29.934c2.2 0 2.728 1.272 1.172 2.828" fill="#ffcc4d" transform="translate(17.967 9)"/></g></g></svg>