<svg xmlns="http://www.w3.org/2000/svg" viewBox="0 0 47.5 47.5" enable-background="new 0 0 47.5 47.5"><defs><clipPath id="0"><path d="m0 38h38v-38h-38v38"/></clipPath></defs><g transform="matrix(1.25 0 0-1.25 0 47.5)"><g clip-path="url(#0)"><path d="m0 0h-13c-3.668 0-5 2.99-5 5v2h-4c-3 0-3-3-3-3 0 0-2 1-3 1-1 0-1-1-1-1v-10c0 0 0-1 1-1 1 0 3 1 3 1v-7c0-4 4-4 4-4h18c4 0 4 4 4 4v13.11c-.347-.069-.686-.106-1-.106" fill="#292f33" transform="translate(30 19)"/><g fill="#66757f"><path d="m0 0c-.559 0-2.05-.934-3.26-1.76-.327.826-1.066 1.76-2.74 1.76h-11c0 0-5 0-5-5v-2c0 0 0-3 3-3h13c0 0 2.075.006 2.771 1.739 1.205-.821 2.675-1.739 3.229-1.739 1 0 1 1 1 1v8c0 0 0 1-1 1" transform="translate(36 31)"/><path d="m0 0v9c0 0 0 3 2.75 3h10.25c0 0 3 0 3-3v-9h-2v9c0 0 0 1-1 1h-10c0 0-1 0-1-1v-9h-2" transform="translate(10 2)"/></g></g></g></svg>