<svg xmlns="http://www.w3.org/2000/svg" viewBox="0 0 47.5 47.5" enable-background="new 0 0 47.5 47.5" xmlns:xlink="http://www.w3.org/1999/xlink"><defs><path id="1" d="m0 0l.34-.688.759-.11-.549-.536.129-.756-.679.357-.679-.357.13.756-.55.536.76.11.339.688" fill="#ffd983"/><clipPath id="0"><path d="m0 38h38v-38h-38v38"/></clipPath></defs><g transform="matrix(1.25 0 0-1.25 0 47.5)"><g clip-path="url(#0)"><path d="m0 0c0-2.209-1.791-4-4-4h-28c-2.209 0-4 1.791-4 4v18c0 2.209 1.791 4 4 4h28c2.209 0 4-1.791 4-4v-18" fill="#dd2e44" transform="translate(37 10)"/><path d="m0 0l.929-2.67 2.826-.059-2.253-1.708.819-2.706-2.321 1.615-2.321-1.615.819 2.706-2.253 1.708 2.826.059.929 2.67" fill="#ffd983" transform="translate(8 26.05)"/><use transform="translate(14 29.472)" xlink:href="#1"/><use transform="translate(16 25.472)" xlink:href="#1"/><use transform="translate(16 21.472)" xlink:href="#1"/><path d="m0 0l.34-.688.759-.111-.549-.535.129-.757-.679.357-.679-.357.13.757-.55.535.76.111.339.688" fill="#ffd983" transform="translate(14 17.473)"/></g></g></svg>