<svg xmlns="http://www.w3.org/2000/svg" viewBox="0 0 47.5 47.5" enable-background="new 0 0 47.5 47.5"><defs><clipPath id="0"><path d="m0 38h38v-38h-38v38"/></clipPath></defs><g transform="matrix(1.25 0 0-1.25 0 47.5)"><g clip-path="url(#0)"><g fill="#553788"><path d="m0 0c0 0-4-1-11-1-7 0-11 1-11 1 0 0 6-5 11-5 5 0 11 5 11 5" transform="translate(30 12)"/><path d="m0 0c-5.514 0-10 4.515-10 10.06 0 2.858 1.214 5.591 3.331 7.499l1.338-1.485c-1.696-1.53-2.669-3.722-2.669-6.01 0-4.446 3.589-8.06 8-8.06 4.411 0 8 3.617 8 8.06 0 2.292-.973 4.483-2.669 6.01l1.34 1.485c2.115-1.908 3.329-4.641 3.329-7.498 0-5.548-4.486-10.06-10-10.06" transform="translate(19 19.14)"/></g><g fill="#744eaa"><path d="M 0,0 C 0,0 -5.417,3.856 -7.732,11.33 -7.917,11.148 -12.15,5.665 -9.941,1.133 -7.732,-3.398 0,0 0,0" transform="translate(17.625 20.14)"/><path d="M 0,0 C 0,0 5.478,4.731 7.732,11.33 7.894,11.023 12.15,5.665 9.941,1.133 7.732,-3.398 0,0 0,0" transform="translate(20.44 20.14)"/><path d="m0 0c0 0-4-3-11-3-7 0-11 3-11 3 0 0 7.208-5.625 9-11h4c1.958 6.625 9 11 9 11" transform="translate(30 12)"/></g></g></g></svg>