<svg xmlns="http://www.w3.org/2000/svg" viewBox="0 0 47.5 47.5" enable-background="new 0 0 47.5 47.5"><defs><clipPath id="0"><path d="m0 38h38v-38h-38v38"/></clipPath></defs><g transform="matrix(1.25 0 0-1.25 0 47.5)"><g clip-path="url(#0)"><path d="m0 0c.203.378.538.985 1.806.602 1.916-.58.194-1.602.194-1.602 0 0 2-1 2-4 0-3-1-1.838-1-5 0-2-2 0-2 0l-3-3c-4-4-6 1-5 3 1 2 0 2 0 4 0 2 2 2 2 4 0 2 2 3 3 3 1 0 2-1 2-1" fill="#662113" transform="translate(17 36)"/><path d="m0 0c0-1.657 1.176-3 2.625-3 1.45 0 2.625 1.343 2.625 3 0 1.657-1.175 3-2.625 3-1.449 0-2.625-1.343-2.625-3" fill="#d99e82" transform="translate(13 32)"/><path d="m0 0c-.927 0-1.727-.306-2.158-.755-1.103.207-.478-1.517-1.342-3.245-1-2 1-4 1-3 0 1 0 4 2 4h.5c1.381 0 2.5.671 2.5 1.5 0 .829-1.119 1.5-2.5 1.5" fill="#662113" transform="translate(15.5 36)"/><g fill="#d99e82"><path d="m0 0c-.373.373-1.806 1.217-7.03 1.286l-.432 3.883c-.061.55-.562.948-1.104.884-.549-.061-.945-.555-.884-1.104l.406-3.656h-4.584l-5.917.986c-.55.091-1.061-.278-1.151-.821-.091-.545.277-1.061.821-1.151l6-1c.055-.01.11-.014.165-.014h2.749c.009-.262.086-.588.251-1 1-2.5 3-8 3-8 2.209 0 3 5.01 3 7.5 0 .603-.048 1.06-.15 1.407 1.206-.088 2.027-.223 2.567-.351l-2.217-2.956c-.331-.442-.242-1.069.2-1.4.18-.135.39-.2.599-.2.305 0 .604.138.801.4l3 4c.299.398.259.955-.093 1.307" transform="translate(23.707 26.707)"/><path d="m0 0c-.489 0-.917.359-.988.858l-1 7c-.078.547.301 1.054.848 1.132.548.073 1.054-.302 1.131-.848l1-7c.078-.547-.302-1.054-.848-1.132-.048-.007-.096-.01-.143-.01" transform="translate(16.999 4)"/><path d="m0 0c-.472 0-.892.335-.982.815-.101.543.256 1.066.799 1.167l15.999 3c.552.102 1.067-.256 1.167-.799.103-.542-.254-1.065-.797-1.167l-16-2.999c-.062-.012-.124-.018-.185-.018" transform="translate(16.999 16)"/></g><g fill="#dd2e44"><path d="m0 0c0 0 1-1 1-3 0-2 0-3-2-6-2-3-4-3-5-5-1-2 0-2 2-1 2 1 1-4 4-4 3 0 2 3 4 3 2 0 3-3 5-3 2 0 2.581 2.419 1 4-1 1 2 3 3 2 1.581-1.581 3.236.764 1 3-1 1-1.789 2.105 0 3 2 1 2.5 5 0 4-3.344-1.338-8-3.161-8 0v4c0 0-2 0-2 3 0 0-1.25-4-3.25 0 0 0 1.25-3-.75-4" transform="translate(13 24)"/><path d="m0 0c-.552 0-1 .447-1 1v3c0 .553.448 1 1 1 .552 0 1-.447 1-1v-3c0-.553-.448-1-1-1" transform="translate(17 1)"/><path d="m0 0c-.22 0-.441.072-.626.221-.431.347-.498.976-.151 1.406l1.781 2.212c.346.428.975.498 1.405.151.431-.346.498-.976.152-1.406l-1.782-2.211c-.197-.246-.486-.373-.779-.373" transform="translate(33.429 18.37)"/></g></g></g></svg>