<svg xmlns="http://www.w3.org/2000/svg" viewBox="0 0 47.5 47.5" enable-background="new 0 0 47.5 47.5"><defs><clipPath id="0"><path d="m0 38h38v-38h-38v38"/></clipPath></defs><g transform="matrix(1.25 0 0-1.25 0 47.5)"><g clip-path="url(#0)"><path d="m0 0c0-4.068-6.597-7.367-14.733-7.367-8.138 0-14.734 3.299-14.734 7.367 0 4.069 1.134 8.634 14.734 8.634 13.599 0 14.733-4.565 14.733-8.634" fill="#d1d3d4" transform="translate(33.733 26.367)"/><path d="m0 0c-.318 0-.619-.103-.904-.258-1.36 7.616-6.777 12.725-13.263 12.725-6.487 0-11.903-5.109-13.263-12.724-.285.154-.586.257-.903.257-1.565 0-2.834-2.03-2.834-4.534 0-2.504 1.269-4.533 2.834-4.533.38 0 .743.124 1.074.342 1.595-7.383 6.845-12.809 13.09-12.809 6.247 0 11.497 5.426 13.09 12.81.332-.219.695-.343 1.076-.343 1.564 0 2.833 2.029 2.833 4.533 0 2.504-1.269 4.534-2.833 4.534" fill="#d99e82" transform="translate(33.17 23.534)"/><g fill="#662113"><path d="m0 0c-.367 0-.72.203-.896.553-.247.494-.046 1.094.448 1.342l2.266 1.132c.495.247 1.095.046 1.342-.447.247-.494.047-1.095-.447-1.342l-2.267-1.133c-.143-.071-.296-.105-.446-.105" transform="translate(12.201 18)"/><path d="m0 0c-.15 0-.303.034-.446.105l-2.267 1.133c-.494.247-.694.848-.447 1.342.246.493.848.695 1.342.447l2.266-1.132c.494-.248.695-.848.448-1.342-.175-.35-.529-.553-.896-.553" transform="translate(25.799 18)"/></g><g fill="#d1d3d4"><path d="m0 0h-3c-.553 0-1 .448-1 1 0 .552.447 1 1 1h3c.553 0 1-.448 1-1 0-.552-.447-1-1-1" transform="translate(27 23)"/><path d="m0 0h-3c-.552 0-1 .448-1 1 0 .552.448 1 1 1h3c.552 0 1-.448 1-1 0-.552-.448-1-1-1" transform="translate(14 23)"/></g><g fill="#c1694f"><path d="m0 0c-2.474 0-4.879 1.187-4.98 1.238-.494.247-.694.846-.448 1.34.246.495.848.693 1.341.45.021-.01 2.093-1.028 4.087-1.028 2.01 0 4.065 1.017 4.086 1.027.493.244 1.096.047 1.342-.447.247-.494.047-1.095-.448-1.342-.101-.051-2.505-1.238-4.98-1.238" transform="translate(19 6.667)"/><path d="m0 0h-2c-.552 0-1 .447-1 1 0 .553.448 1 1 1h2c.553 0 1-.447 1-1 0-.553-.447-1-1-1" transform="translate(20 12)"/></g></g></g></svg>