<svg xmlns="http://www.w3.org/2000/svg" viewBox="0 0 47.5 47.5" enable-background="new 0 0 47.5 47.5" xmlns:xlink="http://www.w3.org/1999/xlink"><defs><clipPath id="0"><path d="m0 38h38v-38h-38v38"/></clipPath></defs><g transform="matrix(1.25 0 0-1.25 0 47.5)"><g clip-path="url(#0)"><path d="m0 0c0-9.389-7.611-17-17-17-9.388 0-17 7.611-17 17 0 9.388 7.612 17 17 17 9.389 0 17-7.612 17-17" fill="#ffcc4d" transform="translate(36 19)"/><path d="m0 0c0-1.934-1.119-3.5-2.5-3.5-1.381 0-2.5 1.566-2.5 3.5 0 1.933 1.119 3.5 2.5 3.5 1.381 0 2.5-1.567 2.5-3.5" fill="#664500" transform="translate(15 20.5)" id="1"/><use transform="translate(13)" xlink:href="#1"/><path d="m0 0c-.012.044-1.146 4.379-5.485 4.379-4.34 0-5.474-4.335-5.485-4.379-.053-.213.044-.431.232-.544.187-.112.433-.086.596.06.01.007 1.014.863 4.657.863 3.589 0 4.617-.83 4.656-.863.095-.09.219-.137.344-.137.084 0 .169.021.246.064.196.112.294.339.239.557" fill="#664500" transform="translate(24.485 9.121)"/><path d="m0 0c0-2.762-2.238-5-5-5-2.762 0-5 2.238-5 5 0 2.762 4 10 5 10 1 0 5-7.238 5-10" fill="#5dadec" transform="translate(11 8)"/><path d="m0 0c-9.388 0-17-7.612-17-17 0-.539.03-1.07.08-1.596 2.5 5.01 9.123 8.596 16.92 8.596 7.798 0 14.42-3.586 16.92-8.596.05.526.08 1.057.08 1.596 0 9.388-7.611 17-17 17" fill="#bdddf4" transform="translate(19 36)"/><g fill="#664500"><path d="m0 0c-5.554 0-7.802 4.367-7.895 4.553-.247.494-.046 1.095.448 1.342.492.246 1.092.047 1.34-.444.074-.145 1.82-3.451 6.107-3.451.553 0 1-.448 1-1 0-.552-.447-1-1-1" transform="translate(31 25)"/><path d="m0 0c-.552 0-1 .448-1 1 0 .552.448 1 1 1 5.083 0 5.996 3.12 6.03 3.253.145.528.69.848 1.219.709.53-.139.851-.673.718-1.205-.049-.194-1.266-4.757-7.97-4.757" transform="translate(7 25)"/></g></g></g></svg>