<svg xmlns="http://www.w3.org/2000/svg" viewBox="0 0 47.5 47.5" enable-background="new 0 0 47.5 47.5"><defs><clipPath id="0"><path d="m0 38h38v-38h-38v38"/></clipPath></defs><g transform="matrix(1.25 0 0-1.25 0 47.5)"><g clip-path="url(#0)"><path d="m0 0c0-9.389-7.611-17-17-17-9.389 0-17 7.611-17 17 0 9.389 7.611 17 17 17 9.389 0 17-7.611 17-17" fill="#ffcc4d" transform="translate(36 19)"/><path d="m0 0l5-5c1.728-1.728 5-2 7 0 2 2 1.903 4.962.175 6.691l-4.175 4.309c-3-5-8-6-8-6" fill="#e75a70" transform="translate(22 8)"/><g fill="#664500"><path d="m0 0c-6.461 0-8.738 3.305-8.832 3.445-.306.46-.182 1.08.277 1.387.457.305 1.073.184 1.382-.268.085-.123 1.879-2.564 7.173-2.564 8.08 0 9.955 6.949 10.03 7.245.138.534.679.859 1.215.723.534-.135.859-.676.725-1.21-.022-.088-2.301-8.758-11.97-8.758" transform="translate(19 6)"/><path d="m0 0c-.15 0-.303.034-.446.105-.494.248-.695.849-.448 1.342.053.105 1.319 2.553 4.895 2.553 3.578 0 4.842-2.449 4.894-2.553.248-.494.047-1.094-.447-1.342-.491-.246-1.085-.048-1.336.437-.044.08-.831 1.458-3.111 1.458-2.317 0-3.099-1.433-3.105-1.447-.176-.351-.529-.553-.896-.553" transform="translate(7.999 20)"/><path d="m0 0c-.404 0-.786.248-.936.649-.194.518.068 1.094.584 1.288l8 3c.518.191 1.095-.068 1.289-.585.193-.517-.069-1.094-.585-1.288l-8-3c-.117-.043-.235-.064-.352-.064" transform="translate(23 20)"/></g></g></g></svg>