<svg xmlns="http://www.w3.org/2000/svg" viewBox="0 0 47.5 47.5" enable-background="new 0 0 47.5 47.5" xmlns:xlink="http://www.w3.org/1999/xlink"><defs><path id="1" d="m0 0c0-2.209-1.791-4-4-4-2.209 0-4 1.791-4 4 0 2.209 1.791 4 4 4 2.209 0 4-1.791 4-4" fill="#292f33"/><clipPath id="0"><path d="m0 38h38v-38h-38v38"/></clipPath></defs><g transform="matrix(1.25 0 0-1.25 0 47.5)"><g clip-path="url(#0)"><path d="m0 0h-6-3-11v1c0 2.209-1.791 4-4 4h-3c-2.209 0-4-1.791-4-4v-3c0-2.209 1.791-4 4-4h2 1 14 1 7 1 2c2.209 0 4 1.791 4 4v2h-5" fill="#99aab5" transform="translate(32 11)"/><path d="m0 0h-2.854c-3.146 0-4.146-2-4.146-2l-3-5.959v-5.04h13v3 2 5c0 1.657-1.343 3-3 3" fill="#ffcc4d" transform="translate(11 24)"/><path d="m0 0h-7l2 4c0 0 1 2 3 2h2v-6" fill="#55acee" transform="translate(10 16)"/><use transform="translate(11 5)" xlink:href="#1"/><path d="m0 0c0-1.104-.896-2-2-2-1.104 0-2 .896-2 2 0 1.104.896 2 2 2 1.104 0 2-.896 2-2" fill="#ccd6dd" transform="translate(9 5)"/><use transform="translate(35 5)" xlink:href="#1"/><path d="m0 0c0-1.104-.896-2-2-2-1.104 0-2 .896-2 2 0 1.104.896 2 2 2 1.104 0 2-.896 2-2" fill="#ccd6dd" transform="translate(33 5)" id="2"/><use transform="translate(25 5)" xlink:href="#1"/><use transform="translate(-10)" xlink:href="#2"/><path d="m0 0h-13c-2.209 0-4-1.791-4-4v-13h21v13c0 2.209-1.791 4-4 4" fill="#77b255" transform="translate(33 28)"/></g></g></svg>