<svg xmlns="http://www.w3.org/2000/svg" viewBox="0 0 47.5 47.5" enable-background="new 0 0 47.5 47.5"><defs><clipPath id="0"><path d="m0 38h38v-38h-38v38"/></clipPath></defs><g transform="matrix(1.25 0 0-1.25 0 47.5)"><g clip-path="url(#0)"><g fill="#55acee"><path d="m0 0c0-.552-.448-1-1-1h-5c-.552 0-1 .448-1 1 0 .552.448 1 1 1h5c.552 0 1-.448 1-1" transform="translate(8 25)"/><path d="m0 0c0-.552-.448-1-1-1h-3c-.552 0-1 .448-1 1 0 .552.448 1 1 1h3c.552 0 1-.448 1-1" transform="translate(6 20)"/><path d="m0 0c0-.553-.448-1-1-1h-1c-.552 0-1 .447-1 1 0 .553.448 1 1 1h1c.552 0 1-.447 1-1" transform="translate(4 15)"/></g><path d="m0 0c-.626-2.209-2.925-4-5.134-4h-20c-2.209 0-3.492 1.791-2.866 4l3.398 12c.626 2.209 2.924 4 5.133 4h20c2.209 0 3.493-1.791 2.867-4l-3.398-12" fill="#ccd6dd" transform="translate(33.3 12)"/><g fill="#99aab5"><path d="m0 0l-12.952-9.313c-.034-.028-.054-.063-.085-.091.179-.571.518-1.043.992-1.384.035.023.073.033.107.059l12.952 9.315c.501.391.68 1.022.401 1.414-.281.391-.913.391-1.415 0" transform="translate(18.336 19.364)"/><path d="m0 0c-.015.028-.016.063-.034.09l-7.674 9.314c-.281.391-.913.391-1.416 0-.501-.391-.68-1.023-.4-1.414l7.675-9.314c.019-.027.051-.037.073-.06.667.34 1.274.814 1.776 1.384" transform="translate(32.15 9.96)"/><path d="m0 0c.626 2.209-.658 4-2.867 4h-20c-2.21 0-4.508-1.791-5.133-4l-.021-.074 8.806-8.451c1.631-1.584 3.787-1.475 5.725-.371l13.226 7.964.264.932" transform="translate(36.699 24)"/></g><path d="m0 0h-20c-1.578 0-3.189-.921-4.217-2.248l9.217-8.794c.749-.719 2.434-.729 3.656 0l14.294 8.768c-.266 1.341-1.362 2.274-2.95 2.274" fill="#e1e8ed" transform="translate(33.832 28)"/></g></g></svg>