<svg xmlns="http://www.w3.org/2000/svg" viewBox="0 0 47.5 47.5" enable-background="new 0 0 47.5 47.5"><defs><clipPath id="0"><path d="m0 38h38v-38h-38v38"/></clipPath></defs><g transform="matrix(1.25 0 0-1.25 0 47.5)"><g clip-path="url(#0)"><path d="m0 0c0-2.209-1.791-4-4-4h-4c-2.209 0-4 1.791-4 4 0 2.209 1.791 4 4 4h4c2.209 0 4-1.791 4-4" fill="#ccd6dd" transform="translate(25 33)"/><path d="m0 0c0-2.209-1.791-4-4-4h-16c-2.209 0-4 1.791-4 4v24c0 2.209 1.791 4 4 4h16c2.209 0 4-1.791 4-4v-24" fill="#e1e8ed" transform="translate(31 5)"/><path d="m31 5h-24v24h24v-24" fill="#78b159"/><g fill="#f5f8fa"><path d="m0 0h-3v3c0 .552-.447 1-1 1h-2c-.552 0-1-.448-1-1v-3h-3c-.553 0-1-.448-1-1v-2c0-.553.447-1 1-1h3v-3c0-.553.448-1 1-1h2c.553 0 1 .447 1 1v3h3c.553 0 1 .447 1 1v2c0 .552-.447 1-1 1" transform="translate(24 23)"/><path d="m0 0c-.553 0-1 .447-1 1v2c0 .553.447 1 1 1h10c.553 0 1-.447 1-1v-2c0-.553-.447-1-1-1h-10" transform="translate(14 7)"/></g></g></g></svg>