<svg xmlns="http://www.w3.org/2000/svg" viewBox="0 0 47.5 47.5" enable-background="new 0 0 47.5 47.5"><defs><clipPath id="0"><path d="m0 38h38v-38h-38v38"/></clipPath></defs><g transform="matrix(1.25 0 0-1.25 0 47.5)"><g clip-path="url(#0)"><g fill="#ffac33"><path d="m0 0c-.098.18-.25.302-.418.391-1.597 1.706-.462 3.707-.462 3.707 0 .552 1 2 0 2l-1-1c-1-1-1-4-1-4h-2c-.553 0-1-.448-1-1 0-.553.447-1 1-1h1.108l-.222-.12c-.486-.263-.667-.87-.404-1.356.262-.486.869-.667 1.355-.404l2.639 1.427c.486.262.667.869.404 1.355" transform="translate(25.88 3.903)"/><path d="m0 0c-.097.18-.25.302-.417.391-1.597 1.706-.463 3.707-.463 3.707 0 .552 1 2 0 2l-1-1c-1-1-1-4-1-4h-2c-.553 0-1-.448-1-1 0-.553.447-1 1-1h1.108l-.222-.12c-.486-.263-.667-.87-.404-1.356.262-.486.869-.667 1.355-.404l2.639 1.427c.486.262.667.869.404 1.355" transform="translate(18.88 3.903)"/><path d="m0 0c0-1.104-1.119-2-2.5-2-1.381 0-3.5 1-3.5 2 0 1 2.119 2 3.5 2 1.381 0 2.5-.896 2.5-2" transform="translate(8.516 27)"/></g><path d="m0 0c-2 1-3-1-3-1 0 0 0 3-3 3-3 0-3-3-3-3 0 0-3 .938-3-2 0-1.482 1.101-2.411 2.484-2.387v-4.613c0-1 .264-3-.736-4-1-1-2.485-4 .515-4 3 0 3 4 3 7 1-1 4-1 4 4 0 .867-.213 1.512-.55 2h1.287c4 0 4 4 2 5" fill="#dd2e44" transform="translate(14.516 35)"/><path d="m0 0c4-10 0-22-13-22-7.732 0-13 6-14 11-1.177 5.883-1 8-1 12 0 2.738 2.118 4.824 5 4 7-2 5-10 12-10 10 0 8.23 11.923 11 5" fill="#e1e8ed" transform="translate(33.516 28)"/><path d="m0 0c0-.552-.447-1-1-1-.553 0-1 .448-1 1 0 .552.447 1 1 1 .553 0 1-.448 1-1" fill="#292f33" transform="translate(9.516 29)"/></g></g></svg>