<svg xmlns="http://www.w3.org/2000/svg" viewBox="0 0 47.5 47.5" enable-background="new 0 0 47.5 47.5"><defs><clipPath id="0"><path d="m0 38h38v-38h-38v38"/></clipPath></defs><g transform="matrix(1.25 0 0-1.25 0 47.5)"><g clip-path="url(#0)" fill="#ffcc4d"><path d="m0 0c0 0-.008-.001-.01-.001l.01-.003v.004" transform="translate(8 14.734)"/><path d="m0 0c.004.001.007.002.01.003-.002 0-.01.001-.01.001v-.004" transform="translate(30.06 14.731)"/><path d="m0 0c-1.774-1.072-3.839-1.978-6.833-2.653.018-.002.082-.009.046-.02-.268-.068-.411-.135-.687-.197-1.046-.204-2.587-.296-2.08 1.095l2.131 2.906.518-.518 4.5 4.5-4.5 4.5-4.5-4.5 2.551-2.551-2.221-3.03-.002.002c-1.672-2-4.781-1.328-4.781 1.078h-.047v6l5.5 5.5-7.5 7.5-7.5-7.5 5.5-5.5v-6.19c-.164-2.246-3.14-2.832-4.766-.888l-.002-.002-2.247 3.065 2.515 2.515-4.5 4.5-4.5-4.5 4.5-4.5.553.554 2.158-2.942c.507-1.391-1.035-1.299-2.081-1.095-.274.062-.418.129-.686.197-.036.011.028.018.045.02-2.994.675-5.058 1.581-6.832 2.653-.008-.151-.095-.301-.095-.455 0-3.482 6.245-10.923 14.623-12.586l3.315-3.33 3.345 3.33c8.379 1.663 14.655 9.104 14.655 12.586 0 .154-.087.304-.095.455" transform="translate(36.905 17.387)"/></g></g></svg>