<svg xmlns="http://www.w3.org/2000/svg" viewBox="0 0 47.5 47.5" enable-background="new 0 0 47.5 47.5" xmlns:xlink="http://www.w3.org/1999/xlink"><defs><clipPath id="0"><path d="m0 38h38v-38h-38v38"/></clipPath></defs><g transform="matrix(1.25 0 0-1.25 0 47.5)"><g clip-path="url(#0)"><path d="m0 0c0-2.209-1.791-4-4-4h-28c-2.209 0-4 1.791-4 4v18c0 2.209 1.791 4 4 4h28c2.209 0 4-1.791 4-4v-18" fill="#eee" transform="translate(37 10)"/><path d="m0 0c-2.714 1.9-6.455 1.24-8.356-1.474-.95-1.356-.621-3.227.737-4.178 1.357-.95 3.227-.619 4.178.737.95 1.356 2.822 1.686 4.177.736 1.358-.95 1.688-2.821.738-4.177 1.901 2.713 1.241 6.454-1.474 8.356" fill="#c60c30" transform="translate(22.441 23.915)"/><path d="m0 0c-1.355.95-3.228.62-4.178-.736-.95-1.357-2.821-1.687-4.177-.738-1.358.952-1.687 2.823-.737 4.179-1.902-2.716-1.241-6.456 1.473-8.356 2.715-1.902 6.455-1.242 8.356 1.473.95 1.357.62 3.228-.737 4.178" fill="#003478" transform="translate(23.18 19.736)"/><g fill="#292f33"><path d="m0 0l-1.929-2.299.766-.642 1.929 2.298-.766.643" transform="translate(27.26 13.725)"/><path d="m0 0l.766-.643 1.927 2.297-.765.644-1.928-2.298" transform="translate(27.906 14.49)"/><path d="m0 0l-1.928-2.298.766-.643 1.928 2.297-.766.644" transform="translate(28.795 12.439)"/><path d="m0 0l.766-.644 1.929 2.298-.766.643-1.929-2.297" transform="translate(29.438 13.205)"/><path d="m0 0l-1.929-2.298.767-.642 1.929 2.297-.767.643" transform="translate(30.33 11.152)"/><path d="m0 0l.767-.643 1.927 2.298-.765.643-1.929-2.298" transform="translate(30.97 11.919)"/><path d="m0 0l-.766-.643 1.929-2.298.767.642-1.93 2.299" transform="translate(31.736 26.725)"/><path d="m0 0l-1.928 2.299-.765-.643 1.927-2.299.766.643" transform="translate(31.09 27.49)"/></g><path d="m0 0l-4.5 5.362.767.643 4.499-5.362-.766-.643" fill="#292f33" transform="translate(31.367 22.498)" id="1"/><g fill="#292f33"><path d="m0 0l-1.928 2.298-.765-.644 1.927-2.298.766.644" transform="translate(28.03 24.92)"/><path d="m0 0l-.766-.644 1.929-2.296.767.642-1.93 2.298" transform="translate(28.672 24.15)"/><path d="m0 0l-4.499 5.363.765.643 4.5-5.362-.766-.644" transform="translate(11.899 10.782)"/><path d="m0 0l-1.928 2.299-.766-.644 1.928-2.298.766.643" transform="translate(8.562 13.204)"/><path d="m0 0l-.766-.644 1.929-2.297.766.642-1.929 2.299" transform="translate(9.205 12.439)"/></g><use transform="translate(-22.532-14.286)" xlink:href="#1"/><g fill="#292f33"><path d="m0 0l-4.499-5.362-.767.642 4.5 5.363.766-.643" transform="translate(9.6 29.15)"/><path d="m0 0l-4.5-5.362-.766.642 4.499 5.363.767-.643" transform="translate(11.133 27.86)"/><path d="m0 0l-4.499-5.362-.767.643 4.5 5.362.766-.643" transform="translate(12.664 26.575)"/></g></g></g></svg>