<svg xmlns="http://www.w3.org/2000/svg" viewBox="0 0 47.5 47.5" enable-background="new 0 0 47.5 47.5" xmlns:xlink="http://www.w3.org/1999/xlink"><defs><path id="1" d="m0 0c0-.828-.671-1.5-1.5-1.5-.829 0-1.5.672-1.5 1.5 0 .828.671 1.5 1.5 1.5.829 0 1.5-.672 1.5-1.5" fill="#292f33"/><clipPath id="0"><path d="m0 38h38v-38h-38v38"/></clipPath></defs><g transform="matrix(1.25 0 0-1.25 0 47.5)"><g clip-path="url(#0)"><path d="m0 0c-.391-.391-.391-1.023 0-1.414.391-.391 1.023-.391 1.414 0l9.192 9.192c.391.39.391 1.023 0 1.414-.391.391-1.023.391-1.414 0l-9.192-9.192" fill="#414042" transform="translate(3.697 24.611)"/><path d="m0 0c0-4-4-4-4-4h-28c0 0-4 0-4 4v18c0 0 0 4 4 4h28c4 0 4-4 4-4v-18" fill="#99aab5" transform="translate(37 5)"/><path d="m0 0c-.391-.391-1.023-.391-1.414 0l-.707.707c-.391.391-.391 1.023 0 1.414.391.391 1.023.391 1.414 0l.707-.707c.391-.391.391-1.023 0-1.414" fill="#414042" transform="translate(16.561 33.94)"/><g fill="#292f33"><path d="m0 0c0-3.038-2.462-5.5-5.5-5.5-3.038 0-5.5 2.462-5.5 5.5 0 3.038 2.462 5.5 5.5 5.5 3.038 0 5.5-2.462 5.5-5.5" transform="translate(34 18.5)"/><path d="m0 0c0-1.934-1.566-3.5-3.5-3.5-1.934 0-3.5 1.566-3.5 3.5 0 1.934 1.566 3.5 3.5 3.5 1.934 0 3.5-1.566 3.5-3.5" transform="translate(32 7.5)"/></g><g fill="#66757f"><path d="m0 0c0-1.934-1.566-3.5-3.5-3.5-1.934 0-3.5 1.566-3.5 3.5 0 1.934 1.566 3.5 3.5 3.5 1.934 0 3.5-1.566 3.5-3.5" transform="translate(32 18.5)"/><path d="m0 0c0-.829-.671-1.5-1.5-1.5-.829 0-1.5.671-1.5 1.5 0 .829.671 1.5 1.5 1.5.829 0 1.5-.671 1.5-1.5" transform="translate(30 7.5)"/></g><use transform="translate(13 11.5)" xlink:href="#1"/><use transform="translate(8 11.5)" xlink:href="#1"/><use transform="translate(13 16.5)" xlink:href="#1"/><use transform="translate(18 16.5)" xlink:href="#1"/><use transform="translate(18 11.5)" xlink:href="#1"/><use transform="translate(18 6.5)" xlink:href="#1"/><use transform="translate(8 6.5)" xlink:href="#1"/><use transform="translate(8 16.5)" xlink:href="#1"/><use transform="translate(13 21.5)" xlink:href="#1"/><use transform="translate(18 21.5)" xlink:href="#1"/><use transform="translate(8 21.5)" xlink:href="#1"/><use transform="translate(13 6.5)" xlink:href="#1"/></g></g></svg>