<svg xmlns="http://www.w3.org/2000/svg" viewBox="0 0 47.5 47.5" enable-background="new 0 0 47.5 47.5"><defs><clipPath id="0"><path d="m0 38h38v-38h-38v38"/></clipPath></defs><g transform="matrix(1.25 0 0-1.25 0 47.5)"><g clip-path="url(#0)"><path d="m0 0c2.684 1.342 5-4 3-13-1.106-4.977-5-9-9-12-4-3-11 1-7 5 4 4 8 7 10 13 1.304 3.912 1 6 3 7" fill="#ffe8b6" transform="translate(29 35)"/><path d="m0 0c0-3-1-9-4-13-3-4-7-5-4-1 3 4 5 7 6 11 1 4 2 7 2 3" fill="#ffd983" transform="translate(32 29)"/><path d="m0 0c-.296-.592 1 3-1 5-.169-.168-.338-.368-.521-.593-.1.705-.592 1.15-1.479 1.593-2 1-10-1-4-1 3 0 4-1.999 2-4-.292-.291-.489-.603-.623-.911-.416-.347-.872-.71-1.377-1.089-2.263-1.697-5.84-4.227-10-7-3-2-4-3-4-4 0-3 9-3 14-1 5 2 10 7 10 7l4 4c-3 4-7 2-7 2" fill="#ffcc4d" transform="translate(23 17)"/><path d="m0 0c0 0 1 5-3 7-4 2-8 1-11-1-3-2-2-3.999-3-5-1-1 1-2 3 0 2 2 8.315 4.895 11 4 3-1 2-2.999 3-5" fill="#ffe8b6" transform="translate(23 17)"/><path d="m0 0c3 0 8-3 7-9-1-6-5-7-7-7h-4c-2 0-3-1-4-1-1 0-2 2 0 2 2 0 4 0 5 1 1 1 5 0 5 6 0 3-4 7-6 7 0 0 2 1 4 1" fill="#a6d388" transform="translate(27 18)"/><path d="m0 0c0-.553-.448-1-1-1-.552 0-1 .447-1 1 0 .553.448 1 1 1 .552 0 1-.447 1-1" fill="#3e721d" transform="translate(20 2)"/><path d="m0 0c3 0 8-3 7-9-1-6-5-7-7-7h-4c-2 0 0 1 1 2 1 1 5 0 5 6 0 3-4 7-6 7 0 0 2 1 4 1" fill="#ffcc4d" transform="translate(27 18)"/><path d="m0 0c3 0 8-3 7-9-1-6-5-7-7-7h-2c-2 0-1 1 0 2 1 1 4 0 4 6 0 3-4 7-6 7 0 0 2 1 4 1" fill="#ffe8b6" transform="translate(27 18)"/><path d="m0 0c3 0 5-1 3-3-1.581-1.581-6-5-10-6-4-1-8-1-5 1 3 2 9.764 8 12 8" fill="#ffd983" transform="translate(18 16)"/><path d="m0 0c1 0 1 0 1-.667 0-.666 0-1.333-1-1.333-1 0-1 1.333-1 1.333 0 0 0 .667 1 .667" fill="#c1694f" transform="translate(3 6)"/></g></g></svg>