<svg xmlns="http://www.w3.org/2000/svg" viewBox="0 0 47.5 47.5" enable-background="new 0 0 47.5 47.5"><defs><clipPath id="0"><path d="m0 38h38v-38h-38v38"/></clipPath></defs><g transform="matrix(1.25 0 0-1.25 0 47.5)"><g clip-path="url(#0)"><g fill="#ea596e"><path d="m0 0c1.957 0 3.633-1.135 4.455-2.772l3.477 1.739c-1.444 2.975-4.486 5.03-8.02 5.03-1.302 0-2.535-.285-3.649-.787l1.668-3.67c.631.287 1.326.457 2.065.457" transform="translate(8 13)"/><path d="m0 0c1.467 0 2.772-.643 3.688-1.648l2.897 2.634c-1.633 1.845-4.01 3.01-6.669 3.01-3.576 0-6.652-2.111-8.07-5.15l3.648-1.722c.802 1.692 2.512 2.872 4.509 2.872" transform="translate(30 13)"/></g><g fill="#292f33"><path d="m0 0c-2.761 0-5 2.238-5 5 0 2.762 2.239 5 5 5 2.761 0 5-2.238 5-5 0-2.762-2.239-5-5-5m0 12c-3.866 0-7-3.134-7-7 0-3.866 3.134-7 7-7 3.866 0 7 3.134 7 7 0 3.866-3.134 7-7 7" transform="translate(8 3)"/><path d="m0 0c-2.761 0-5 2.238-5 5 0 2.762 2.239 5 5 5 2.762 0 5-2.238 5-5 0-2.762-2.238-5-5-5m0 12c-3.865 0-7-3.134-7-7 0-3.866 3.135-7 7-7 3.867 0 7 3.134 7 7 0 3.866-3.133 7-7 7" transform="translate(30 3)"/></g><g fill="#dd2e44"><path d="m0 0c-.005.067-.021.132-.04.198-.02.066-.04.126-.071.186-.013.024-.015.052-.03.075l-7 10.999c-.296.466-.914.604-1.38.307-.299-.19-.445-.513-.446-.843h-9.02c-.553 0-1-.447-1-1 0-.553.447-1 1-1h10c.027 0 .049.014.077.016l5.1-8.02h-9.177c-.553 0-1-.447-1-1 0-.553.447-1 1-1h11 .001c.116 0 .23.028.342.069.035.013.065.028.097.043.031.017.065.025.097.044.03.02.048.051.075.072.055.044.103.089.147.143.041.049.075.099.105.154.03.056.055.111.075.172.022.067.033.132.04.201.004.035.021.066.021.102 0 .027-.014.051-.016.078" transform="translate(30.984 8.08)"/><path d="m0 0l-2.899-8.117-5.929 6.775c-.364.415-.996.459-1.411.094-.416-.364-.458-.995-.094-1.411l6.664-7.615-.854-2.39c-.185-.52.086-1.092.606-1.277.111-.04.224-.059.336-.059.411 0 .796.255.942.664l4.763 13.336h-2.124" transform="translate(22.581 21)"/><path d="m0 0c-.15 0-.303.034-.446.105-.494.248-.695.848-.448 1.342l3.062 6.107c.019.027 1.833 2.795 1.833 5.446 0 3.241-2.293 4.04-2.316 4.051-.524.175-.808.741-.633 1.265.175.523.739.809 1.265.632.151-.05 3.684-1.281 3.684-5.948 0-3.068-1.836-6.04-2.131-6.498l-2.974-5.949c-.176-.351-.529-.553-.896-.553" transform="translate(8 7)"/></g><g fill="#292f33"><path d="m0 0c-.054 0-.11.004-.166.014l-6 1c-.544.09-.912.606-.821 1.151.091.543.601.913 1.151.821l6-1c.544-.09.912-.606.821-1.151-.081-.488-.505-.835-.985-.835" transform="translate(15.612 23.337)"/><path d="m0 0c-.03 0-.059.002-.089.006l-5.672.708c-.372.047-.643.374-.62.748.024.374.333.664.707.665.041 0 4.068.018 5.989 1.299.25.168.582.157.825-.026.239-.185.337-.501.241-.788l-.709-2.127c-.097-.293-.37-.485-.672-.485" transform="translate(27.383 20)"/></g><path d="m0 0c0-1.104-.895-2-2-2-1.104 0-2 .896-2 2 0 1.104.896 2 2 2 1.105 0 2-.896 2-2" fill="#66757f" transform="translate(21 8)"/></g></g></svg>