<svg xmlns="http://www.w3.org/2000/svg" viewBox="0 0 47.5 47.5" enable-background="new 0 0 47.5 47.5"><defs><clipPath id="0"><path d="m0 38h38v-38h-38v38"/></clipPath></defs><g transform="matrix(1.25 0 0-1.25 0 47.5)"><g clip-path="url(#0)"><path d="m0 0c-.623 0-1.227-.078-1.809-.213l-10.383 10.383c.134.582.213 1.186.213 1.809 0 4.43-3.592 8.02-8.02 8.02-.903 0-2.104-.917-1.104-1.917l3-3c0 0 1-2-1-4-2-2-4-1-4-1l-3 3c-1 1-1.917-.196-1.917-1.104 0-4.43 3.591-8.02 8.02-8.02.623 0 1.226.078 1.808.212l10.383-10.383c-.134-.582-.212-1.185-.212-1.808 0-4.43 3.591-8.02 8.02-8.02.902 0 2.104.917 1.104 1.917l-3 3c0 0-1 2 1 4 2 2 4 1 4 1l3-3c1-1 1.917.196 1.917 1.104 0 4.429-3.591 8.02-8.02 8.02" fill="#8899a6" transform="translate(29.1 16.917)"/></g></g></svg>