<svg xmlns="http://www.w3.org/2000/svg" viewBox="0 0 47.5 47.5" enable-background="new 0 0 47.5 47.5"><defs><clipPath id="0"><path d="m0 38h38v-38h-38v38"/></clipPath></defs><g transform="matrix(1.25 0 0-1.25 0 47.5)"><g clip-path="url(#0)"><path d="m0 0c0-9.389-7.611-17-17-17-9.389 0-17 7.611-17 17 0 9.389 7.611 17 17 17 9.389 0 17-7.611 17-17" fill="#ffcc4d" transform="translate(36 19)"/><g fill="#664500"><path d="m0 0c0-1.934-1.345-3.5-3-3.5-1.657 0-3 1.566-3 3.5 0 1.932 1.343 3.5 3 3.5 1.655 0 3-1.568 3-3.5" transform="translate(22 11.5)"/><path d="m0 0c-.305 0-.605.138-.801.4-2.64 3.521-6.06 3.599-6.206 3.6-.55.006-.994.456-.991 1 .003.551.447.995.997.995.184 0 4.537-.05 7.8-4.4.332-.442.242-1.069-.2-1.4-.18-.135-.39-.2-.599-.2" transform="translate(31.5 25.5)"/><path d="m0 0c-.208 0-.419.065-.599.2-.442.331-.531.958-.2 1.4 3.262 4.35 7.616 4.4 7.8 4.4.552 0 1-.448 1-1 0-.551-.445-.998-.996-1-.155-.002-3.568-.086-6.204-3.6-.197-.262-.497-.4-.801-.4" transform="translate(6.499 25.5)"/><path d="m0 0c0-1.657-.96-3-2.143-3-1.184 0-2.143 1.343-2.143 3 0 1.657.959 3 2.143 3 1.183 0 2.143-1.343 2.143-3" transform="translate(15 22)"/><path d="m0 0c0-1.547-.895-2.8-2-2.8-1.104 0-2 1.253-2 2.8 0 1.546.896 2.8 2 2.8 1.105 0 2-1.254 2-2.8" transform="translate(27 22.2)"/></g></g></g></svg>