<svg xmlns="http://www.w3.org/2000/svg" viewBox="0 0 47.5 47.5" enable-background="new 0 0 47.5 47.5"><defs><clipPath id="0"><path d="m0 38h38v-38h-38v38"/></clipPath></defs><g transform="matrix(1.25 0 0-1.25 0 47.5)"><g clip-path="url(#0)"><path d="m0 0c0 4.142-2 11-1 11 1 0 7-4 5-11-1.138-3.983-.896-4-2-4-1.104 0-2-.142-2 4" fill="#99aab5" transform="translate(10 26)"/><path d="m0 0c0 3.414-1.297 9.06-.648 9.06.648 0 4.538-3.296 3.241-9.06-.738-3.282-.58-3.296-1.297-3.296-.716 0-1.296-.118-1.296 3.296" fill="#f4abba" transform="translate(10.55 25.296)"/><path d="m0 0c-1.062 4-4.755 10.119-3.789 10.375.967.257 7.792-2.07 7.655-9.349-.077-4.141.161-4.096-.907-4.379-1.067-.283-1.897-.65-2.959 3.353" fill="#99aab5" transform="translate(5.789 24.625)"/><path d="m0 0c-.876 3.299-3.579 8.429-2.953 8.595.627.167 5.232-2.02 5.459-7.93.129-3.361.285-3.335-.407-3.519-.693-.183-1.223-.445-2.099 2.854" fill="#f4abba" transform="translate(6.501 24.09)"/><path d="m0 0c0-1.933-1.567-3.5-3.5-3.5-1.933 0-3.5 1.567-3.5 3.5 0 1.933 1.567 3.5 3.5 3.5 1.933 0 3.5-1.567 3.5-3.5" fill="#ccd6dd" transform="translate(37 8.5)"/><path d="m0 0c1.493 1.383 2.267 3.519 2.267 6.736 0 7.18-6.821 11-14 11-2.058 0-3.829-.157-5.324-.539-1.085 1.13-2.859 1.539-5.276 1.539-4.265 0-8.4-4.069-8.4-8.333 0-4.13 3.88-4.636 7.998-4.664l.002-.003c3-5 1-10 3-10 1.588 0 1.914 2.217 1.981 4.375 1.068-.663 2.258-1.191 3.531-1.577-.878-.523-1.512-1.068-1.512-1.298 0-1.381 2-1.5 5-1.5 5.522 0 13 0 11 4-.054.108-.152.191-.267.264" fill="#99aab5" transform="translate(31.733 5.264)"/><path d="m0 0c0-.553-.448-1-1-1-.552 0-1 .447-1 1 0 .552.448 1 1 1 .552 0 1-.448 1-1" fill="#292f33" transform="translate(8 19)"/><path d="m0 0c0-1.104-.5-2-1-2-.5 0-1 .896-1 2 0 1.104.448 1 1 1 .552 0 1 .104 1-1" fill="#f4abba" transform="translate(3 16)"/></g></g></svg>