<svg xmlns="http://www.w3.org/2000/svg" viewBox="0 0 47.5 47.5" enable-background="new 0 0 47.5 47.5"><defs><clipPath id="0"><path d="m0 38h38v-38h-38v38"/></clipPath></defs><g transform="matrix(1.25 0 0-1.25 0 47.5)"><g fill="#edbb9f"><path d="m12 1h-8v10h8v-10"/><path d="m34 1h-8v10h8v-10"/></g><g clip-path="url(#0)"><g fill="#d79e84"><path d="m0 0c0 0-3-2-8-1v5h8v-4" transform="translate(34 7)"/><path d="m0 0c0 0 3-2 8-1v5h-8v-4" transform="translate(4 7)"/><path d="m13 11h-8v8h8v-8"/><path d="m33 11h-8v8h8v-8"/></g><g fill="#edbb9f"><path d="m0 0c0 0 .003 1.225 1.227 1.222 1.226-.004 1.222-1.229 1.222-1.229l-.018-5.684c.194.09.399.171.612.241l.025 7.889c0 0 .005 1.225 1.227 1.221 1.225-.003 1.222-1.229 1.222-1.229l-.022-7.42c.199.017.404.032.61.041l.028 8.602c0 0 .003 1.225 1.228 1.221 1.225-.005 1.22-1.229 1.22-1.229l-.028-8.601c.21-.011.411-.033.614-.051l.025 8.04c0 0 .005 1.225 1.227 1.22 1.225-.003 1.219-1.227 1.219-1.227l-.024-8.501-.003-.681v-.611c-3.674.009-6.133-3.042-6.144-6.104 0-.612.612-.616.612-.616.01 3.678 2.467 6.115 6.142 6.105l1.8 4.188c0 0 .395 1.158 1.556.762 1.158-.392.765-1.553.765-1.553l-.893-3.104c-.354-1.235-.684-2.477-.859-3.744-.498-3.584-3.58-6.34-7.299-6.331-4.055.017-7.335 3.315-7.322 7.371.001.213.014.418.034.61l-.032.004.029 9.18" transform="translate(1.373 25.16)"/><path d="m0 0c0 0-.003 1.225-1.227 1.222-1.226-.004-1.222-1.229-1.222-1.229l.018-5.684c-.194.09-.399.171-.612.241l-.025 7.889c0 0-.004 1.225-1.227 1.221-1.225-.003-1.222-1.229-1.222-1.229l.022-7.42c-.198.017-.403.032-.61.041l-.028 8.602c0 0-.004 1.225-1.228 1.221-1.225-.005-1.22-1.229-1.22-1.229l.028-8.601c-.21-.011-.412-.033-.614-.051l-.025 8.04c0 0-.005 1.225-1.228 1.22-1.224-.003-1.219-1.227-1.219-1.227l.025-8.501.003-.681v-.611c3.674.009 6.132-3.042 6.144-6.104 0-.612-.612-.616-.612-.616-.011 3.678-2.468 6.115-6.142 6.105l-1.8 4.188c0 0-.395 1.158-1.556.762-1.157-.392-.765-1.553-.765-1.553l.893-3.104c.353-1.235.684-2.477.859-3.744.498-3.584 3.58-6.34 7.299-6.331 4.055.017 7.336 3.315 7.322 7.371-.001.213-.013.418-.034.61l.032.004-.029 9.18" transform="translate(36.617 25.16)"/></g><g fill="#ffac33"><path d="m0 0c-.213 0-.429.068-.61.208-.438.338-.518.966-.18 1.403l2.978 3.855c.335.436.965.52 1.403.18.437-.337.517-.965.18-1.402l-2.979-3.855c-.196-.255-.492-.389-.792-.389" transform="translate(24.541 30.542)"/><path d="m0 0c-.299 0-.595.134-.792.389l-2.979 3.855c-.337.437-.256 1.065.181 1.402.437.337 1.064.258 1.402-.18l2.979-3.855c.337-.437.257-1.065-.18-1.403-.182-.14-.397-.208-.611-.208" transform="translate(13.521 30.542)"/><path d="m0 0c-.552 0-1 .448-1 1v4c0 .552.448 1 1 1 .553 0 1-.448 1-1v-4c0-.552-.447-1-1-1" transform="translate(19 31)"/></g></g></g></svg>