<svg xmlns="http://www.w3.org/2000/svg" viewBox="0 0 47.5 47.5" enable-background="new 0 0 47.5 47.5"><defs><clipPath id="0"><path d="m0 38h38v-38h-38v38"/></clipPath><clipPath id="1"><path d="m4 22.5c0-.11.015-.221.017-.332-.002-.057-.017-.111-.017-.168l.043-.346c.044-.769.133-1.546.291-2.327l1.666-13.327c0-2.209 1.791-4 4-4h18c2.209 0 4 1.791 4 4l1.839 14.714c.035.215.058.428.081.642l.08.644c0 .071-.018.135-.02.206.002.097.02.197.02.294 0 8.01-6.716 12.5-15 12.5-8.285 0-15-4.492-15-12.5"/></clipPath><clipPath id="2"><path d="m3 36v-16c0 1.104.895 1 2 1 1.105 0 3 .104 3-1 0-2.761 4.372-5 11-5 6.627 0 11 2.239 11 5 0 1.104 1.895 1 3 1 1.105 0 2 .104 2-1h1v16h-33"/></clipPath></defs><g transform="matrix(1.25 0 0-1.25 0 47.5)"><g clip-path="url(#0)"><path d="m0 0c0 .07-.018.136-.021.206.003.097.021.197.021.294 0 8.01-6.716 12.5-15 12.5-8.284 0-15-4.492-15-12.5 0-.109.015-.222.017-.332-.002-.057-.017-.11-.017-.168l.043-.346c.044-.77.133-1.547.291-2.328l1.666-13.326c0-2.209 1.791-4 4-4h18c2.209 0 4 1.791 4 4l1.839 14.713c.035.216.057.429.081.643l.08.644" fill="#dd2e44" transform="translate(34 22)"/></g><g clip-path="url(#1)"><path d="m0 0v-16c0 1.104.896 1 2 1 1.104 0 3 .104 3-1 0-2.762 4.373-5 11-5 6.627 0 11 2.238 11 5 0 1.104 1.896 1 3 1 1.104 0 2 .104 2-1h1v16h-33" fill="#be1931" transform="translate(3 36)"/></g><g clip-path="url(#2)"><g fill="#f4900c"><path d="m0 0c-.115 0-.232.013-.349.041-.806.191-1.303 1-1.111 1.807l5 21c.191.805 1 1.301 1.806 1.111.806-.192 1.303-1 1.112-1.807l-5-21c-.165-.688-.78-1.152-1.458-1.152" transform="translate(11 5.5)"/><path d="m0 0c-1-1-4-4-2-6 2-2-1-8 2-6 3 2 4 5 4 7 0 2 1 5-1 5h-3" transform="translate(26 27)"/><path d="m0 0c-1 0-3-2-3-3 0-1 0-6 3-5 3 1 3 3 2 5-1 2-2 3-2 3" transform="translate(18 28)"/><path d="m0 0c-.761 0-1.413.577-1.491 1.351l-2 20c-.082.824.519 1.559 1.344 1.642.816.083 1.558-.519 1.641-1.344l2-20c.083-.824-.518-1.559-1.343-1.641-.05-.006-.101-.008-.151-.008" transform="translate(20.998 6.5)"/><path d="m0 0c-.067 0-.136.004-.205.014-.82.112-1.396.868-1.283 1.689l3 22c.111.82.858 1.395 1.689 1.283.82-.111 1.396-.868 1.283-1.689l-3-22c-.102-.752-.746-1.297-1.484-1.297" transform="translate(22 6.5)"/><path d="m0 0c-.613 0-1.188.378-1.41.987l-8 22c-.283.779.119 1.639.897 1.923.778.283 1.639-.118 1.923-.897l8-22c.282-.779-.119-1.64-.897-1.923-.17-.062-.343-.09-.513-.09" transform="translate(19 5.5)"/><path d="m0 0c-.157 0-.317.024-.475.077-.786.262-1.21 1.111-.948 1.898l6 17.999c.261.787 1.112 1.214 1.898.949.786-.262 1.21-1.111.948-1.897l-6-18c-.209-.628-.795-1.025-1.423-1.025" transform="translate(23 8.5)"/><path d="m0 0c-.613 0-1.188.378-1.41.987l-4 11c-.283.779.119 1.639.897 1.923.778.282 1.639-.118 1.923-.897l4-11c.282-.779-.119-1.64-.897-1.923-.169-.062-.343-.09-.513-.09" transform="translate(20 10.5)"/><path d="m0 0c-.72 0-1.355.52-1.478 1.253l-2 12c-.136.818.416 1.59 1.233 1.726.815.14 1.59-.415 1.726-1.232l2-12c.137-.817-.415-1.591-1.232-1.726-.084-.014-.167-.021-.249-.021" transform="translate(9.998 10.5)"/><path d="m0 0c-.056 0-.111.003-.168.009-.823.092-1.416.834-1.325 1.657l1 9c.092.823.831 1.418 1.657 1.325.823-.092 1.416-.833 1.325-1.657l-1-9c-.086-.767-.735-1.334-1.489-1.334" transform="translate(30 13.5)"/></g><g fill="#ffcc4d"><path d="m0 0c-.738 0-1.382.545-1.484 1.297l-3 22c-.113.821.463 1.578 1.283 1.689.825.115 1.577-.462 1.689-1.283l3-22c.113-.821-.463-1.577-1.283-1.689-.069-.01-.138-.014-.205-.014" transform="translate(29.998 5.5)"/><path d="m0 0c-.779 0-1.437.604-1.494 1.394l-1 13.999c-.06.826.562 1.544 1.39 1.603.822.066 1.542-.563 1.602-1.389l1-14c.06-.826-.562-1.544-1.39-1.602-.036-.003-.072-.004-.108-.004" transform="translate(22.998 11.5)"/><path d="m0 0c-.058 0-.117.003-.176.01-.823.096-1.412.841-1.316 1.664l1.542 13.209c.096.823.843 1.411 1.663 1.316.823-.096 1.412-.841 1.316-1.664l-1.541-13.209c-.089-.764-.738-1.326-1.488-1.326" transform="translate(10 9.5)"/><path d="m0 0c-.701 0-1.327.493-1.469 1.206l-4 20c-.163.812.364 1.603 1.177 1.765.814.164 1.602-.365 1.764-1.177l4-20c.163-.813-.364-1.603-1.177-1.765-.099-.019-.198-.029-.295-.029" transform="translate(18.999 9.5)"/></g></g><g clip-path="url(#0)"><path d="m0 0c0-2.209-1.791-4-4-4-2.209 0-4 1.791-4 4 0 2.209 1.791 4 4 4 2.209 0 4-1.791 4-4" fill="#be1931" transform="translate(23 9)"/></g></g></svg>