<svg xmlns="http://www.w3.org/2000/svg" viewBox="0 0 47.5 47.5" enable-background="new 0 0 47.5 47.5" xmlns:xlink="http://www.w3.org/1999/xlink"><defs><clipPath id="0"><path d="m0 38h38v-38h-38v38"/></clipPath></defs><g transform="matrix(1.25 0 0-1.25 0 47.5)"><g clip-path="url(#0)"><path d="m0 0c.77.782.767 2.039-.01 2.817l-13.556 13.557c-.782.78-2.048.78-2.829 0l-3-3c-.781-.782-.781-2.048 0-2.829l13.556-13.556c.781-.781 2.048-.781 2.829 0l.182.181c1.936-1.949 3.223-3.834 3.223-6.64v-6.707c0-1.105.895-2 2-2 1.104 0 2 .895 2 2v6.707c0 4.429-2.21 7.273-4.395 9.47" fill="#66757f" transform="translate(32.543 19.47)"/><path d="m0 0c-.781-.78-2.048-.78-2.829 0l-17.556 17.557c-.781.78-.781 2.047 0 2.828.781.781 2.047.781 2.828 0l17.557-17.556c.78-.781.78-2.048 0-2.829" fill="#99aab5" transform="translate(33.1 16.03)"/><path d="m0 0c.391-.391.391-1.023 0-1.414l-15.707-15.707c-.39-.391-1.023-.391-1.414 0-.391.391-.39 1.024 0 1.414l15.707 15.707c.391.391 1.023.391 1.414 0" fill="#55acee" transform="translate(18.414 21.414)"/><path d="m0 0c.391-.391.391-1.023 0-1.414l-12.707-12.707c-.39-.391-1.023-.391-1.414 0-.391.391-.39 1.024 0 1.414l12.707 12.707c.391.391 1.023.391 1.414 0" fill="#55acee" transform="translate(15.414 24.414)" id="1"/><path d="m0 0c.391-.391.391-1.023 0-1.414l-9.414-9.414c-.391-.391-1.024-.391-1.415 0-.39.39-.39 1.024 0 1.414l9.415 9.414c.391.391 1.023.391 1.414 0" fill="#55acee" transform="translate(12.414 27.414)" id="2"/><use transform="translate(6-6)" xlink:href="#1"/><use transform="translate(12-12)" xlink:href="#2"/></g></g></svg>