<svg xmlns="http://www.w3.org/2000/svg" viewBox="0 0 47.5 47.5" enable-background="new 0 0 47.5 47.5" xmlns:xlink="http://www.w3.org/1999/xlink"><defs><path id="1" d="m0 0c0-.828-.672-1.5-1.5-1.5-.828 0-1.5.672-1.5 1.5 0 .828.672 1.5 1.5 1.5.828 0 1.5-.672 1.5-1.5" fill="#ffac33"/><clipPath id="0"><path d="m0 38h38v-38h-38v38"/></clipPath></defs><g transform="matrix(1.25 0 0-1.25 0 47.5)"><g clip-path="url(#0)"><path d="m0 0c-.26.171-.544.329-.855.484-2 1-5 0-9 0-2 0-4.902 3-10 3-.802 0-2.256-.634-4.341-.89-.039 1.053-.615 1.89-1.326 1.89-.737 0-1.333-.895-1.333-2 0-.051.007-.099.01-.15-2.82-.766-6.01-4.438-6.01-6.225 0-2 2-3.625 2-3.625 0 0 .999 0 3 2 1.581 1.581 5 1 5 1l1-12c0 0-1-1-2-1-1 0-1-2-1-2h6l1 9h3c2 0 7 1 7 1 2-3 4-4 4-4v-3l-2-1c-2-1-1-2-1-2h6c0 0 1 8 2 13v-5c0-.552.447-1 1-1 .552 0 1 .448 1 1v7c0 2.666-1.358 3.929-3.145 4.516" fill="#ffcc4d" transform="translate(33.856 20.516)"/><g fill="#292f33"><path d="m0 0c0-.553-.448-1-1-1-.552 0-1 .447-1 1 0 .552.448 1 1 1 .552 0 1-.448 1-1" transform="translate(6 20)"/><path d="m0 0c0 0 0-2 1-2s1 2 1 2c0 0-1 1-2 0" transform="translate(1 17)"/></g><path d="m0 0c0-.828-.672-1.5-1.5-1.5-.829 0-1.5.672-1.5 1.5 0 .829.671 1.5 1.5 1.5.828 0 1.5-.671 1.5-1.5" fill="#ffac33" transform="translate(13 20.5)" id="2"/><path d="m0 0c-.551 0-1-.449-1-1 0-.551.449-1 1-1 .551 0 1 .449 1 1 0 .551-.449 1-1 1m0-3c-1.103 0-2 .897-2 2 0 1.103.897 2 2 2 1.103 0 2-.897 2-2 0-1.103-.897-2-2-2" fill="#f4900c" transform="translate(11.5 21.5)"/><use transform="translate(7)" xlink:href="#2"/><path d="m0 0c-.551 0-1-.449-1-1 0-.551.449-1 1-1 .552 0 1 .449 1 1 0 .551-.448 1-1 1m0-3c-1.103 0-2 .897-2 2 0 1.103.897 2 2 2 1.103 0 2-.897 2-2 0-1.103-.897-2-2-2" fill="#f4900c" transform="translate(18.5 21.5)"/><path d="m0 0c0-.828-.672-1.5-1.5-1.5-.829 0-1.5.672-1.5 1.5 0 .828.671 1.5 1.5 1.5.828 0 1.5-.672 1.5-1.5" fill="#ffac33" transform="translate(17 15.5)"/><path d="m0 0c-.551 0-1-.448-1-1 0-.552.449-1 1-1 .551 0 1 .448 1 1 0 .552-.449 1-1 1m0-3c-1.103 0-2 .897-2 2 0 1.103.897 2 2 2 1.103 0 2-.897 2-2 0-1.103-.897-2-2-2" fill="#f4900c" transform="translate(15.5 16.5)"/><use transform="translate(24 13.5)" xlink:href="#1"/><path d="m0 0c-.552 0-1-.448-1-1 0-.552.448-1 1-1 .552 0 1 .448 1 1 0 .552-.448 1-1 1m0-3c-1.103 0-2 .897-2 2 0 1.103.897 2 2 2 1.103 0 2-.897 2-2 0-1.103-.897-2-2-2" fill="#f4900c" transform="translate(22.5 14.5)"/><use transform="translate(27 18.5)" xlink:href="#1"/><path d="m0 0c-.552 0-1-.449-1-1 0-.552.448-1 1-1 .552 0 1 .448 1 1 0 .551-.448 1-1 1m0-3c-1.103 0-2 .897-2 2 0 1.103.897 2 2 2 1.103 0 2-.897 2-2 0-1.103-.897-2-2-2" fill="#f4900c" transform="translate(25.5 19.5)" id="3"/><path d="m0 0c0-.829-.671-1.5-1.5-1.5-.829 0-1.5.671-1.5 1.5 0 .829.671 1.5 1.5 1.5.829 0 1.5-.671 1.5-1.5" fill="#ffac33" transform="translate(31 13.5)"/><path d="m0 0c-.552 0-1-.448-1-1 0-.552.448-1 1-1 .552 0 1 .448 1 1 0 .552-.448 1-1 1m0-3c-1.103 0-2 .897-2 2 0 1.103.897 2 2 2 1.103 0 2-.897 2-2 0-1.103-.897-2-2-2" fill="#f4900c" transform="translate(29.5 14.5)"/><use transform="translate(34 18.5)" xlink:href="#1"/><use transform="translate(7)" xlink:href="#3"/></g></g></svg>