<svg xmlns="http://www.w3.org/2000/svg" viewBox="0 0 47.5 47.5" enable-background="new 0 0 47.5 47.5"><defs><clipPath id="0"><path d="m0 38h38v-38h-38v38"/></clipPath></defs><g transform="matrix(1.25 0 0-1.25 0 47.5)"><g clip-path="url(#0)"><path d="m0 0c0 0 11.458 11.04 12.583 12.01 1.125.964-.708 2.25-2.957 2.25h-10.124-1.125-1.125-10.123c-1.125 0-4.483-.73-2.796-2.417 1.204-1.203 12.667-11.838 12.667-11.838v-10.123c0 0-4.584-2.34-5.498-2.883-.984-.562-.33-1.462.063-1.617.657-.258 2.254-1.102 6.781-1.102 4.64 0 6.202.914 6.764 1.102.217.072 1.347.932.011 1.723-2.378 1.408-5.121 2.777-5.121 2.777v10.123" fill="#8899a6" transform="translate(20 16.745)"/><g fill="#ccd6dd"><path d="m0 0c0-1.621-6.547-2.935-14.623-2.935-8.08 0-14.623 1.314-14.623 2.935 0 1.622 6.547 2.935 14.623 2.935 8.08 0 14.623-1.313 14.623-2.935" transform="translate(33 29.558)"/><path d="m0 0c1.265-1.232 8.537-7.235 11.699-9.835.9-.742 2.134-.623 2.801-.123.667.5 11.167 9.583 11.167 9.583l-25.667.375" transform="translate(5.459 29.417)"/></g></g><g clip-path="url(#0)"><path d="m0 0c-.237.125-.05.8.249 1.328l7.448 14.518c.3.529.97.715 1.498.416.529-.299.714-.969.416-1.498l-8.668-13.885c-.15-.264-.673-1.02-.943-.879" fill="#662113" transform="translate(17.868 20.468)"/><path d="m0 0c1.133-.639 1.996-2.636 1.2-4.046-.797-1.411-2.954-1.699-4.087-1.058-1.132.639-2.065 2.514-1.199 4.045.865 1.532 2.953 1.699 4.086 1.059" fill="#5c913b" transform="translate(22.745 29.14)"/><path d="m0 0c-3.775 0-7.361.49-10.737 1.471l-.129.037c-.53.154-.836.708-.683 1.239.153.53.705.836 1.238.683l.132-.038c6.533-1.899 13.943-1.855 22.02.132.543.13 1.079-.196 1.21-.732.132-.537-.195-1.079-.732-1.21-4.288-1.055-8.403-1.582-12.317-1.582" fill="#fff" transform="translate(17.797 26.24)"/></g></g></svg>