<svg xmlns="http://www.w3.org/2000/svg" viewBox="0 0 47.5 47.5" enable-background="new 0 0 47.5 47.5" xmlns:xlink="http://www.w3.org/1999/xlink"><defs><path id="1" d="m0 0c0-3.865-3.135-7-7-7-3.865 0-7 3.135-7 7 0 3.865 3.135 7 7 7 3.865 0 7-3.135 7-7"/><clipPath id="0"><path d="m0 38h38v-38h-38v38"/></clipPath></defs><g transform="matrix(1.25 0 0-1.25 0 47.5)"><g clip-path="url(#0)"><path d="m0 0c-.15 0-.303.034-.446.105-4.381 2.191-7.484 7.527-8.502 10.579-.175.524.109 1.09.633 1.265.525.176 1.09-.11 1.265-.633.877-2.631 3.688-7.517 7.498-9.421.494-.248.695-.848.448-1.342-.176-.351-.529-.553-.896-.553" fill="#77b255" transform="translate(10.999 25)"/><use fill="#553788" transform="translate(27 8)" xlink:href="#1"/><use fill="#9266cc" transform="translate(18 22)" xlink:href="#1"/><use fill="#aa8dd8" transform="translate(27 25)" xlink:href="#1"/><g fill="#744eaa"><use transform="translate(35 19)" xlink:href="#1"/><use transform="translate(17 11)" xlink:href="#1"/></g><g fill="#9266cc"><use transform="translate(26 16)" xlink:href="#1"/><use transform="translate(37 8)" xlink:href="#1"/></g></g></g></svg>