<svg xmlns="http://www.w3.org/2000/svg" viewBox="0 0 47.5 47.5" enable-background="new 0 0 47.5 47.5" xmlns:xlink="http://www.w3.org/1999/xlink"><defs><clipPath id="0"><path d="m0 38h38v-38h-38v38"/></clipPath></defs><g transform="matrix(1.25 0 0-1.25 0 47.5)"><g clip-path="url(#0)"><path d="m0 0v-7c0-1.657 1.343-3 3-3h30c1.657 0 3 1.343 3 3v7h-36" fill="#808285" transform="translate(1 15)"/><path d="m0 0v9c0 1.657-3.343 3-5 3h-20c-8 0-11-2.343-11-4v-8h36" fill="#ccd6dd" transform="translate(37 14)"/><path d="m37 11h-36v3h36v-3" fill="#939598"/><g fill="#bcbec0"><path d="m0 0c-3.063 0-5.586-2.298-5.95-5.263.525-.453 1.201-.737 1.95-.737h10c0 3.313-2.687 6-6 6" transform="translate(8 11)"/><path d="m0 0c-.364 2.965-2.887 5.263-5.95 5.263-3.314 0-6-2.687-6-6h10c.749 0 1.425.284 1.95.737" transform="translate(35.95 5.737)"/></g><path d="m0 0c0-2.209-1.791-4-4-4-2.209 0-4 1.791-4 4 0 2.209 1.791 4 4 4 2.209 0 4-1.791 4-4" transform="translate(12 5)" id="1"/><path d="m0 0c0-1.104-.896-2-2-2-1.104 0-2 .896-2 2 0 1.104.896 2 2 2 1.104 0 2-.896 2-2" fill="#99aab5" transform="translate(10 5)" id="2"/><use transform="translate(22)" xlink:href="#1"/><use transform="translate(22)" xlink:href="#2"/><g fill="#f4900c"><path d="m2 9h-1v2h1v-2"/><path d="m37 11h-1v2h1v-2"/></g><path d="m37 13h-35v10h35v-10" fill="#58595b"/><path d="m0 0h-1.658c-.232-.344-.342-.685-.342-1v-11h2c1.104 0 2 .896 2 2v8c0 1.104-.896 2-2 2" fill="#292f33" transform="translate(3 23)"/><path d="m0 0c0-.553-.447-1-1-1h-23c-.552 0-1 .447-1 1v4c0 .552.448 1 1 1h23c.553 0 1-.448 1-1v-4" fill="#55acee" transform="translate(32 16)"/><path d="m37 17h-1v-2h1v2" fill="#ffac33"/><path d="m0 0h-1v-8h1c.552 0 1 .447 1 1v6c0 .552-.448 1-1 1" fill="#55acee" transform="translate(2 21)"/></g></g></svg>