<svg xmlns="http://www.w3.org/2000/svg" viewBox="0 0 47.5 47.5" enable-background="new 0 0 47.5 47.5" xmlns:xlink="http://www.w3.org/1999/xlink"><defs><clipPath id="0"><path d="m0 38h38v-38h-38v38"/></clipPath><clipPath id="1"><path d="m19 36c-1-1-1-2-1-4 0-2 1-4 1-5 0-3-4-5-4-9.08 0-3.333 2-9.916 3-11.916h3 3c1 2 3 8.583 3 11.916 0 4.084-4 6.084-4 9.08 0 1 1 3 1 5 0 2 0 3-1 4-1 1-2 1-2 1 0 0-1 0-2-1"/></clipPath><clipPath id="2"><path d="m29 33c-1-1-1-2-1-4 0-2 1-4 1-5 0-3-4-5-4-9.08 0-3.333 2-9.916 3-11.916h3 3c1 2 3 8.583 3 11.916 0 4.084-4 6.084-4 9.08 0 1 1 3 1 5 0 2 0 3-1 4-1 1-2 1-2 1 0 0-1 0-2-1"/></clipPath></defs><g transform="matrix(1.25 0 0-1.25 0 47.5)"><g clip-path="url(#0)"><path d="m0 0c0 1 1 3 1 5 0 2 0 3-1 4-1 1-2 1-2 1 0 0-1 0-2-1-1-1-1-2-1-4 0-2 1-4 1-5 0-3-4-5-4-9.08 0-3.333 2-9.916 3-11.916h3 3c1 2 3 8.583 3 11.916 0 4.084-4 6.084-4 9.08" fill="#ccd6dd" transform="translate(23 27)" id="3"/></g><g clip-path="url(#1)" fill="#be1931"><path d="m24 27h-6v2h6v-2"/><path d="m25 23h-8v2h8v-2"/></g><g clip-path="url(#0)"><use transform="translate(10-3)" xlink:href="#3"/></g><g clip-path="url(#2)" fill="#be1931"><path d="m34 24h-6v2h6v-2"/><path d="m35 20h-8v2h8v-2"/></g><g clip-path="url(#0)"><path d="m 0,0 c -6.938,0 -12.562,5.624 -12.562,12.563 0,6.937 5.624,12.562 12.562,12.562 6.938,0 12.563,-5.625 12.563,-12.562 C 12.563,5.624 6.938,0 0,0" fill="#3a4449" transform="translate(13.562 1)"/><path d="m0 0c0-1.279-1.037-2.316-2.315-2.316-1.28 0-2.316 1.037-2.316 2.316 0 1.279 1.036 2.315 2.316 2.315 1.278 0 2.315-1.036 2.315-2.315" transform="translate(16.231 18.21)"/><path d="m0 0c0-1.279-1.037-2.316-2.316-2.316-1.279 0-2.315 1.037-2.315 2.316 0 1.279 1.036 2.315 2.315 2.315 1.279 0 2.316-1.036 2.316-2.315" transform="translate(9.82 16.06)"/><path d="m0 0c0-1.279-1.037-2.316-2.316-2.316-1.279 0-2.315 1.037-2.315 2.316 0 1.278 1.036 2.315 2.315 2.315 1.279 0 2.316-1.037 2.316-2.315" transform="translate(14.747 8.947)"/></g></g></svg>