<svg xmlns="http://www.w3.org/2000/svg" viewBox="0 0 47.5 47.5" enable-background="new 0 0 47.5 47.5"><defs><clipPath id="0"><path d="m0 38h38v-38h-38v38"/></clipPath></defs><g transform="matrix(1.25 0 0-1.25 0 47.5)"><g clip-path="url(#0)"><path d="m0 0c0-2.209-1.791-4-4-4h-28c-2.209 0-4 1.791-4 4v28c0 2.209 1.791 4 4 4h28c2.209 0 4-1.791 4-4v-28" fill="#269" transform="translate(37 5)"/><path d="m0 0h3.063c2.02 0 3.296 1.465 3.296 3.385 0 1.92-1.279 3.391-3.296 3.391h-3.063v-6.776m-5 8.504c0 1.504.896 2.496 2.496 2.496h5.664c4.703 0 8.192-2.944 8.192-7.52 0-4.67-3.618-7.48-8-7.48h-3.352v-5.479c0-1.599-1.024-2.496-2.4-2.496-1.376 0-2.6.897-2.6 2.496v17.983z" fill="#fff" transform="translate(17 19)"/></g></g></svg>