<svg xmlns="http://www.w3.org/2000/svg" viewBox="0 0 47.5 47.5" enable-background="new 0 0 47.5 47.5"><defs><clipPath id="0"><path d="m0 38h38v-38h-38v38"/></clipPath></defs><g transform="matrix(1.25 0 0-1.25 0 47.5)"><g clip-path="url(#0)"><g fill="#fdd888"><path d="m0 0c-.599 6.618-3.898 9.938-3.898 9.938l-6 8h-1-3-3-1l-6-8c0 0-1.419-1.432-2.568-4.275-1.988-.66-3.432-2.514-3.432-4.725 0-1.448.625-2.742 1.609-3.655-.376-.702-.609-1.492-.609-2.345 0-1.958 1.136-3.635 2.775-4.456 1.283-1.921 2.997-2.544 4.225-2.544h16c1.378 0 3.373.78 4.677 3.31 1.932.691 3.323 2.521 3.323 4.69 0 1.678-.834 3.155-2.102 4.062" transform="translate(32.898 13.06)"/><path d="m0 0c.55 0 1.058.158 1.5.416.443-.258.951-.416 1.5-.416 1.657 0 4 2.344 4 4 0 0 0 2-2 2-.788 0-1-1-2-1-1 0-1 1-3 1-2 0-2-1-3-1-1 0-1.211 1-2 1-2 0-2-2-2-2 0-1.656 2.344-4 4-4 .549 0 1.057.158 1.5.416.443-.258.951-.416 1.5-.416" transform="translate(19 31)"/></g><path d="m0 0c0-.552-.447-1-1-1h-10c-.552 0-1 .448-1 1 0 .552.448 1 1 1h10c.553 0 1-.448 1-1" fill="#bf6952" transform="translate(25 31)"/><path d="m0 0c0 4.477-8.581 4.185-8.581 6.886 0 1.308 1.302 1.947 2.812 1.947 2.538 0 2.99-1.568 4.139-1.568.814 0 1.205.493 1.205 1.046 0 1.283-2.024 2.255-3.965 2.592v1.239c0 .773-.65 1.4-1.454 1.4-.805 0-1.456-.627-1.456-1.4v-1.284c-2.117-.463-3.937-1.875-3.937-4.176 0-4.299 8.579-4.124 8.579-7.145 0-1.047-1.178-2.093-3.111-2.093-2.901 0-3.867 1.889-5.04 1.889-.574 0-1.087-.464-1.087-1.164 0-1.113 1.937-2.451 4.602-2.824 0-.003-.001-.006-.001-.01v-1.398c0-.773.652-1.401 1.456-1.401.804 0 1.455.628 1.455 1.401v1.398c0 .017-.007.03-.008.045 2.397.431 4.397 1.933 4.397 4.62" fill="#67757f" transform="translate(24.901 12.458)"/></g></g></svg>