<svg xmlns="http://www.w3.org/2000/svg" viewBox="0 0 47.5 47.5" enable-background="new 0 0 47.5 47.5" xmlns:xlink="http://www.w3.org/1999/xlink"><defs><path id="1" d="m0 0c-.256 0-.512.098-.707.293-.391.391-.391 1.023 0 1.414l12 12c.391.39 1.023.39 1.414 0 .391-.391.391-1.024 0-1.415l-12-12c-.195-.195-.451-.293-.707-.293" fill="#99aab5"/><clipPath id="0"><path d="m0 38h38v-38h-38v38"/></clipPath></defs><g transform="matrix(1.25 0 0-1.25 0 47.5)"><g clip-path="url(#0)"><path d="m0 0c0 1.414.717.707 1.424 1.414 1.416 1.414 2.128 3.536.714 4.95-1.415 1.414-3.534.697-4.949-.718-.707-.707.003-1.424-1.411-1.424h-5.657l.707-.698c0 0 3.536-4.944 4.243-4.236-.707-.708 4.232-4.24 4.232-4.24l.697-.705v5.657" fill="#ffac33" transform="translate(34 29.778)"/><path d="m0 0l-4.949 4.95-4.95 4.949c-.707-.707-4.243 0-5.657-1.414l-.707-.707-2.122-2.121-10.899-10.899c-1.562-1.563-1.562-4.096 0-5.657l8.485-8.486c1.562-1.561 4.095-1.561 5.657 0l9.9 9.9 3.121 3.121c.217.217.446.447.707.707 1.414 1.415.707 4.95 1.414 5.657" fill="#ccd6dd" transform="translate(31.899 22)"/><path d="m0 0c-.977-.977-1.852-1.684-2.828-.707l-9.193 9.192c-.976.977-.269 1.852.708 2.829.976.976 2.558.976 3.535 0l7.778-7.778c.977-.977.977-2.559 0-3.536" fill="#55acee" transform="translate(33.667 22.354)"/><use transform="translate(14 5)" xlink:href="#1"/><use transform="translate(10 9)" xlink:href="#1"/><use transform="translate(6 13)" xlink:href="#1"/></g></g></svg>