<svg xmlns="http://www.w3.org/2000/svg" viewBox="0 0 47.5 47.5" enable-background="new 0 0 47.5 47.5"><defs><clipPath id="0"><path d="m0 38h38v-38h-38v38"/></clipPath></defs><g transform="matrix(1.25 0 0-1.25 0 47.5)"><g clip-path="url(#0)"><path d="m0 0c0-9.389-7.611-17-17-17-9.388 0-17 7.611-17 17 0 9.388 7.612 17 17 17 9.389 0 17-7.612 17-17" fill="#ffcc4d" transform="translate(36 19)"/><g fill="#664500"><path d="m0 0c-.176.143-.427.147-.61.014-.013-.01-1.261-.902-3.702-.902-2.441 0-3.69.892-3.701.9-.182.136-.434.133-.611-.009-.178-.142-.238-.386-.146-.594.061-.135 1.5-3.297 4.458-3.297 2.958 0 4.397 3.162 4.457 3.297.091.207.031.449-.145.591" transform="translate(18.313 19.388)"/><path d="m0 0c-.176.143-.426.148-.61.014-.012-.01-1.261-.902-3.702-.902-2.441 0-3.691.892-3.701.9-.182.136-.433.133-.611-.009-.178-.142-.238-.386-.146-.594.06-.135 1.5-3.297 4.458-3.297 2.958 0 4.397 3.162 4.457 3.297.091.207.032.449-.145.591" transform="translate(28.313 19.388)"/><path d="m0 0h-8c-.552 0-1 .447-1 1 0 .553.448 1 1 1h8c.553 0 1-.447 1-1 0-.553-.447-1-1-1" transform="translate(23 9)"/><path d="m0 0c-.552 0-1 .448-1 1 0 .551.445.998.996 1 .155.002 3.568.086 6.204 3.6.331.44.958.532 1.4.2.442-.331.531-.958.2-1.4-3.262-4.35-7.616-4.4-7.8-4.4" transform="translate(7 23)"/><path d="m0 0c-.184 0-4.537.05-7.8 4.4-.332.442-.242 1.069.2 1.4.442.333 1.068.242 1.4-.2 2.64-3.521 6.06-3.599 6.206-3.6.55-.006.994-.456.991-1-.003-.551-.447-.995-.997-.995" transform="translate(31 23)"/></g></g></g></svg>