<svg xmlns="http://www.w3.org/2000/svg" viewBox="0 0 47.5 47.5" enable-background="new 0 0 47.5 47.5" xmlns:xlink="http://www.w3.org/1999/xlink"><defs><path id="3" d="m0 0c0-1.381-1.119-2.5-2.5-2.5-1.381 0-2.5 1.119-2.5 2.5 0 1.381 1.119 2.5 2.5 2.5 1.381 0 2.5-1.119 2.5-2.5"/><path id="4" d="m0 0c0-1.104-.896-2-2-2-1.104 0-2 .896-2 2 0 1.104.896 2 2 2 1.104 0 2-.896 2-2"/><clipPath id="0"><path d="m0 38h38v-38h-38v38"/></clipPath><clipPath id="1"><path d="m7 18c-1.104 0-2-.895-2-2l-1-12c0-1.105.895-2 2-2h26c1.105 0 2 .895 2 2l-1 12c0-1.562-.895 2-2 2h-24"/></clipPath><clipPath id="2"><path d="m4 18c0-4.782 0-3 2-3h13 13c2 0 2-1.063 2 3 0 4-8 2-15 13-7-11-15-9-15-13"/></clipPath></defs><g transform="matrix(1.25 0 0-1.25 0 47.5)"><g clip-path="url(#0)"><path d="m0 0c0-1.104-.896-2-2-2h-26c-1.104 0-2 .896-2 2l1 12c0 1.104.896 2 2 2h24c1.104 0 2-3.562 2-2l1-12" fill="#dd2e44" transform="translate(34 4)"/><path d="m0 0c0-.552-.448-1-1-1-.552 0-1 .448-1 1v7c0 .552.448 1 1 1v-.042c.552 0 1-.406 1-.958v-7" transform="translate(20 28)"/><path d="m0 0c-1.171.165-1.838-.112-1.838-1.212v-1c0-1.101.865-1.753 1.923-1.451l5.154.901c1.715.343 1.548 1.593.085 1.885l-5.324.877" fill="#55acee" transform="translate(19.838 36.794)"/><path d="m0 0c-7-11-15-9-15-13 0-2 0-3 2-3h13 13c2 0 2 1 2 3 0 4-8 2-15 13" fill="#f5f8fa" transform="translate(19 31)"/></g><g clip-path="url(#1)"><g fill="#ea596e"><path d="m 0,0 c -0.792,1.875 -1.75,3.291 -3.417,4.666 1.75,1.459 4.542,5.5 5.25,8.292 C 2.542,15.75 4.583,4.833 3.875,2.333 3.167,-0.167 0,0 0,0" transform="translate(14 2)"/><path d="m0 0c.791 1.875 1.75 3.291 3.416 4.666-1.75 1.459-4.541 5.5-5.25 8.292-.707 2.792-2.749-8.125-2.04-10.625.708-2.5 3.874-2.333 3.874-2.333" transform="translate(24.303 2)"/></g><g fill="#be1931"><use transform="translate(9 14.5)" xlink:href="#3"/><use transform="translate(34 14.5)" xlink:href="#3"/><path d="m0 0c0-1.104-.896-2-2-2-1.104 0-2 .896-2 2 0 1.104.896 2 2 2 1.104 0 2-.896 2-2" transform="translate(17 14)"/><use transform="translate(25 14)" xlink:href="#4"/><use transform="translate(13 14)" xlink:href="#4"/><use transform="translate(29 14)" xlink:href="#4"/></g><path d="m0 0h-10c0 0 2 6 2 13h6c0-7 2-13 2-13" transform="translate(24 2)"/></g><g clip-path="url(#2)" fill="#ccd6dd"><path d="m0 0c3 2 10 7 10 13 0 6-11 1-14-1-3-2-5-8-4-11 1-3 3-6 8-6v5" transform="translate(9 19)"/><path d="m0 0c-3 2-10.13 7-10.13 13 0 6 10.935 1 13.935-1 3-2 5.097-8 4.097-11-1-3-2.902-6-7.902-6v5" transform="translate(29 19)"/><path d="m0 0c0 2 0-10-2-12v-5c0-1-4-2-4 0v5c1 1 6 7 6 12" transform="translate(19 31)"/><path d="m0 0c0 2 0-10 2-12v-5c0-1 4-2 4 0v5c-1 1-6 7-6 12" transform="translate(19 31)"/></g><g clip-path="url(#0)"><g fill="#ccd6dd"><use transform="translate(9 15.5)" xlink:href="#3"/><use transform="translate(34 15.5)" xlink:href="#3"/><use transform="translate(17 15)" xlink:href="#4"/><use transform="translate(25 15)" xlink:href="#4"/></g><g fill="#f5f8fa"><use transform="translate(21 15)" xlink:href="#4"/><use transform="translate(13 15)" xlink:href="#4"/><use transform="translate(29 15)" xlink:href="#4"/></g></g></g></svg>