<svg xmlns="http://www.w3.org/2000/svg" viewBox="0 0 47.5 47.5" enable-background="new 0 0 47.5 47.5"><defs><clipPath id="0"><path d="m0 38h38v-38h-38v38"/></clipPath><clipPath id="1"><path d="m15.211 29.894l-12.211-24.894 1-1 1-1 24.894 12.211c.724.363 1.159 1.124 1.101 1.93-.058.807-.596 1.501-1.362 1.756l-1.633.545v1.558c0 .918-.625 1.718-1.515 1.94l-2.836.709-.709 2.836c-.222.89-1.022 1.515-1.94 1.515h-1.558l-.545 1.633c-.255.767-.948 1.304-1.756 1.362-.046.004-.094.005-.142.005-.752 0-1.447-.425-1.788-1.106"/></clipPath></defs><g transform="matrix(1.25 0 0-1.25 0 47.5)"><g clip-path="url(#0)"><path d="m0 0c-1 1 0 2 0 2l26 26c0 0 1.479 1.521 0 3-1.479 1.479-3 0-3 0 0 0-1-1-2 0-1 1 0 2 0 2 0 0 3.521 3.479 7 0 3.5-3.5 0-7 0-7l-26-26c0 0-1-1-2 0" fill="#66757f" transform="translate(2 2)"/><path d="m0 0l-1 1 12.211 24.895c.341.68 1.036 1.105 1.789 1.105.047 0 .094-.001.142-.005.807-.058 1.5-.595 1.755-1.363l.544-1.632h1.559c.918 0 1.718-.625 1.94-1.515l.709-2.836 2.836-.709c.89-.222 1.515-1.022 1.515-1.94v-1.559l1.633-.544c.766-.255 1.304-.949 1.362-1.755.058-.807-.377-1.569-1.1-1.931l-24.895-12.211-1 1" fill="#9266cc" transform="translate(4 4)"/></g><g clip-path="url(#1)" fill="#744eaa"><path d="m0 0l-19-28v-1l21 21-2 8" transform="translate(22 32)"/><path d="m0 0l-26-18 2-1 29 13-5 6" transform="translate(30 21)"/></g></g></svg>