<svg xmlns="http://www.w3.org/2000/svg" viewBox="0 0 47.5 47.5" enable-background="new 0 0 47.5 47.5"><defs><clipPath id="0"><path d="m0 38h38v-38h-38v38"/></clipPath></defs><g transform="matrix(1.25 0 0-1.25 0 47.5)"><g clip-path="url(#0)"><path d="m0 0l8 7 16-1 1-16-7-8c0 0 0 5.999-6 12-6 6-12 6-12 6" fill="#a0041e" transform="translate(2 20)"/><path d="m0 0c0 0-.036 7.979 2.985 11 3.02 3.02 11.04 2.813 11.04 2.813 0 0-.001-7.813-3-10.813-3-3-11.03-3-11.03-3" fill="#ffac33" transform="translate(1.973 2)"/><path d="m0 0c0 2.209 1.791 4 4 4 2.209 0 4-1.791 4-4 0-2.209-1.791-4-4-4-2.209 0-4 1.791-4 4" fill="#ffcc4d" transform="translate(5.999 10)"/><path d="m0 0c0 0-10 0-22-10-6-5-6-14-4-16 2-2 11-2 16 4 10 12 10 22 10 22" fill="#55acee" transform="translate(36.999 37)"/><path d="m0 0c-1.623 0-3.01-.971-3.641-2.36.502.227 1.055.36 1.641.36 2.209 0 4-1.791 4-4 0-.586-.133-1.139-.359-1.64 1.388.627 2.359 2.02 2.359 3.64 0 2.209-1.791 4-4 4" transform="translate(27.999 32)"/><path d="m0 0c0 0 0 4 1 5 1 1 13 10.999 14 10 .999-.999-9-13-10-14-1-1-4.999-1-4.999-1" fill="#a0041e" transform="translate(9 9)"/></g></g></svg>