<svg xmlns="http://www.w3.org/2000/svg" viewBox="0 0 47.5 47.5" enable-background="new 0 0 47.5 47.5"><defs><clipPath id="0"><path d="m0 38h38v-38h-38v38"/></clipPath></defs><g transform="matrix(1.25 0 0-1.25 0 47.5)"><g clip-path="url(#0)"><g fill="#ffcc4d"><path d="m0 0c0-10-11-16-18-16-7 0-18 6.06-18 16 0 9.941 4 20 18 20 14 0 18-10 18-20" transform="translate(37 17)"/><path d="m0 0c1-1 0-11 0-11l-8 10c0 0 7 2 8 1" transform="translate(36 36)"/><path d="m0 0c-1-1 0-11 0-11l8 10c0 0-7 2-8 1" transform="translate(2 36)"/></g><path d="m0 0c-.123.169-.338.245-.542.186-.069-.02-7-1.981-12.863-1.981-5.858 0-12.793 1.961-12.862 1.981-.209.062-.431-.022-.552-.201-.12-.179-.113-.416.02-.587.292-.376 7.221-9.193 13.394-9.193 7.185 0 13.166 8.846 13.417 9.223.116.175.111.402-.012.572" fill="#292f33" transform="translate(32.404 13.295)"/><path d="m0 0c0 0 5-2 10-2 5 0 10 2 10 2 0 0 0-3-1-3-1 0-2 1-2 1 0 0-4-2-7-2-3 0-7 2-7 2 0 0-1-1-2-1-1 0-1 3-1 3" fill="#f5f8fa" transform="translate(9 12)"/><path d="m0 0c3 0 3-.5 3-1.5 0-1-1.5-3-3-3-1.5 0-3 2-3 3 0 1 0 1.5 3 1.5" fill="#67757f" transform="translate(19 17.5)"/><g fill="#9aaab4"><path d="m0 0c-.209 0-.404.133-.475.342-.087.262.055.545.317.633l9 2.999c.263.088.545-.054.633-.316.087-.262-.055-.545-.317-.632l-9-3c-.053-.017-.105-.025-.158-.025" transform="translate(27 16.5)"/><path d="m0 0c-.233 0-.441.164-.489.402-.055.271.121.535.392.588l10 2c.26.054.534-.12.588-.392.055-.271-.121-.535-.392-.588l-10-2c-.033-.007-.066-.01-.099-.01" transform="translate(25.999 14.5)"/><path d="m0 0c-.052 0-.105.008-.158.025l-9 3c-.262.087-.404.37-.316.632.087.262.368.404.632.316l9-2.999c.262-.088.404-.371.316-.633-.07-.209-.265-.342-.474-.342" transform="translate(11 16.5)"/><path d="m0 0c-.032 0-.065.003-.099.01l-10 2c-.27.053-.446.317-.392.588.054.271.313.449.589.392l10-2c.27-.053.446-.317.392-.588-.048-.238-.257-.402-.49-.402" transform="translate(12 14.5)"/></g><g fill="#e75a70"><path d="m0 0c-.859 2.431-3.525 3.708-5.956 2.85-1.477-.52-2.521-1.711-2.928-3.104-1.192.829-2.752 1.1-4.225.58-2.431-.857-3.708-3.525-2.849-5.956.122-.345.283-.663.472-.958 1.951-3.582 7.588-6.1 11-6.131 2.636 2.167 5.445 7.664 4.716 11.677-.038.349-.113.698-.232 1.042" transform="translate(17.226 31.883)"/><path d="m0 0c.859 2.431 3.525 3.708 5.956 2.85 1.477-.52 2.521-1.711 2.929-3.104 1.191.829 2.751 1.1 4.224.58 2.43-.857 3.707-3.525 2.85-5.956-.123-.345-.284-.663-.473-.958-1.951-3.582-7.588-6.1-11-6.131-2.636 2.167-5.445 7.664-4.716 11.677.038.349.113.698.232 1.042" transform="translate(20.774 31.883)"/></g></g></g></svg>