<svg xmlns="http://www.w3.org/2000/svg" viewBox="0 0 47.5 47.5" enable-background="new 0 0 47.5 47.5"><defs><clipPath id="0"><path d="m0 38h38v-38h-38v38"/></clipPath><clipPath id="1"><path d="m5 25c-1 0-2-2-2-5 0-3 1-5 2-5h6c1 0 1 1 1 1v8c0 1-1 1-1 1h-6"/></clipPath><clipPath id="2"><path d="m27 25c0 0-1 0-1-1v-8c0 0 0-1 1-1h6c1 0 2 2 2 5 0 3-1 5-2 5h-6"/></clipPath></defs><g transform="matrix(1.25 0 0-1.25 0 47.5)"><g clip-path="url(#0)"><path d="m0 0c0 0 0-4-4-4h-28c0 0-4 0-4 4v15c0 4 4 4 4 4h28c0 0 4 0 4-4v-15" fill="#292f33" transform="translate(37 12)"/><path d="m0 0h6c0 0 1 0 1-1v-8c0 0 0-1-1-1h-6c-1 0-2 2-2 5 0 3 1 5 2 5" fill="#ccd6dd" transform="translate(5 25)"/></g><g clip-path="url(#1)"><path d="m0 0c0-3.865-3.134-7-7-7-3.866 0-7 3.135-7 7 0 3.866 3.134 7 7 7 3.866 0 7-3.134 7-7" transform="translate(19 20)"/><path d="m0 0c0-1.657-1.343-3-3-3-1.657 0-3 1.343-3 3 0 1.657 1.343 3 3 3 1.657 0 3-1.343 3-3" fill="#66757f" transform="translate(15 20)"/></g><g clip-path="url(#0)"><path d="m0 0h-6c0 0-1 0-1-1v-8c0 0 0-1 1-1h6c1 0 2 2 2 5 0 3-1 5-2 5" fill="#ccd6dd" transform="translate(33 25)"/></g><g clip-path="url(#2)"><path d="m0 0c0-3.867-3.133-7-7-7-3.867 0-7 3.133-7 7 0 3.865 3.133 7 7 7 3.867 0 7-3.135 7-7" transform="translate(33 20)"/><path d="m0 0c0-1.657-1.344-3-3-3-1.656 0-3 1.343-3 3 0 1.657 1.344 3 3 3 1.656 0 3-1.343 3-3" fill="#66757f" transform="translate(29 20)"/></g><g clip-path="url(#0)"><path d="m0 0c0 0 0 1 1 1h8c0 0 1 0 1-1v-6c0 0 0-1-1-1h-8c0 0-1 0-1 1v6" fill="#88c9f9" transform="translate(14 23)"/><path d="m0 0c0-.553-.447-1-1-1h-30c-.552 0-1 .447-1 1 0 .553.448 1 1 1h30c.553 0 1-.447 1-1" transform="translate(35 11)"/></g></g></svg>