<svg xmlns="http://www.w3.org/2000/svg" viewBox="0 0 47.5 47.5" enable-background="new 0 0 47.5 47.5"><defs><clipPath id="0"><path d="m0 38h38v-38h-38v38"/></clipPath></defs><g transform="matrix(1.25 0 0-1.25 0 47.5)"><g clip-path="url(#0)"><g fill="#c1694f"><path d="m0 0c0-2.209-1.791-4-4-4h-13c-2.209 0-4 1.791-4 4v3c0 2.209 1.791 4 4 4h13c2.209 0 4-1.791 4-4v-3" transform="translate(22 22)"/><path d="m0 0c0-2.209-1.791-4-4-4h-12c-2.209 0-4 1.791-4 4v1c0 2.209 1.791 4 4 4h12c2.209 0 4-1.791 4-4v-1" transform="translate(37 31)"/></g><path d="m0 0v-22c0-1.104.896-2 2-2h31v24h-33" fill="#ffcc4d" transform="translate(1 25)"/><g fill="#55acee"><path d="m15 1h-12v4h12v-4"/><path d="m19 7h-16v4h16v-4"/></g><path d="m0 0v-31h18c1.104 0 2 .896 2 2v29h-20" fill="#ffe8b6" transform="translate(17 32)"/><g fill="#55acee"><path d="m35 13h-16v4h16v-4"/><path d="m35 19h-16v4h16v-4"/><path d="m35 25h-16v4h16v-4"/><path d="m35 7h-16v4h16v-4"/></g><g fill="#ffe8b6"><path d="m25 6h-2v24h2v-24"/><path d="m31 6h-2v24h2v-24"/></g><g fill="#3b88c3"><path d="m31 1h-8v4h8v-4"/><path d="m0 0v-4h-4v4h-2v-10h2v4h4v-4h2v10h-2" transform="translate(11 23)"/></g><g fill="#ffcc4d"><path d="m10 6h-2v6h2v-6"/><path d="m17 6h-2v6h2v-6"/></g></g></g></svg>