<svg xmlns="http://www.w3.org/2000/svg" viewBox="0 0 47.5 47.5" enable-background="new 0 0 47.5 47.5"><defs><clipPath id="0"><path d="m0 38h38v-38h-38v38"/></clipPath></defs><g transform="matrix(1.25 0 0-1.25 0 47.5)"><g clip-path="url(#0)"><path d="m0 0c0-2.209-1.791-4-4-4h-28c-2.209 0-4 1.791-4 4v28c0 2.209 1.791 4 4 4h28c2.209 0 4-1.791 4-4v-28" fill="#66757f" transform="translate(37 5)"/><g fill="#fff"><path d="m0 0l-5.73 6.686c.869.612 1.457 1.715 1.457 2.987 0 1.933-1.344 3.5-3 3.5-1.658 0-3-1.567-3-3.5 0-1.35.662-2.507 1.621-3.091l-5.739-6.409c-.552-.617-.5-1.565.117-2.118.618-.553 1.567-.499 2.118.117l.875.978-1.992-5.978h4v-6c0-1.104.895-2 2-2 1.104 0 2 .896 2 2v6h4l-2.02 6.06 1.017-1.186c.297-.345.716-.523 1.139-.523.345 0 .693.119.976.361.629.539.701 1.486.162 2.115" transform="translate(34.27 18.828)"/><path d="m0 0c-.657 1.534-2.699 5.82-5.525 7.509.422.603.687 1.363.687 2.203 0 1.933-1.344 3.5-3 3.5-1.657 0-3-1.567-3-3.5 0-.84.264-1.6.687-2.203-2.827-1.689-4.868-5.976-5.525-7.51-.435-1.014.035-2.189 1.049-2.624.257-.111.525-.164.788-.164.775 0 1.513.455 1.839 1.211.053.122.108.243.163.364v-12.07c0-.828.671-1.5 1.5-1.5.828 0 1.5.672 1.5 1.5v7.5c0 .553.447 1 1 1 .552 0 1-.447 1-1v-.858-.142-6.5c0-.828.671-1.5 1.5-1.5.828 0 1.5.672 1.5 1.5v12.07c.054-.12.109-.24.162-.362.437-1.013 1.612-1.483 2.627-1.047 1.014.436 1.484 1.61 1.049 2.625" transform="translate(18.838 18.789)"/></g></g></g></svg>