<svg xmlns="http://www.w3.org/2000/svg" viewBox="0 0 47.5 47.5" enable-background="new 0 0 47.5 47.5"><defs><clipPath id="0"><path d="m0 38h38v-38h-38v38"/></clipPath></defs><g transform="matrix(1.25 0 0-1.25 0 47.5)"><g clip-path="url(#0)"><path d="m0 0c0-4-8.06-11-18-11-9.941 0-18 7-18 11 0 19 17 25 18 25 1 0 18-6 18-25" fill="#c1694f" transform="translate(37 12)"/><g fill="#a95233"><path d="m0 0c-.05 0-.1.004-.15.012-.546.082-.922.591-.84 1.136.134.895 3.43 21.969 15.535 28.13.493.252 1.094.054 1.345-.438.25-.492.054-1.094-.438-1.344-11.186-5.692-14.433-26.434-14.465-26.642-.074-.497-.501-.852-.987-.852" transform="translate(4 7.615)"/><path d="m0 0c-.486 0-.913.355-.988.852-.032.208-3.278 20.95-14.465 26.642-.492.25-.688.852-.437 1.344.25.492.854.69 1.344.438 12.11-6.159 15.401-27.23 15.536-28.13.082-.545-.294-1.054-.841-1.136-.049-.008-.1-.012-.149-.012" transform="translate(33.999 7.615)"/><path d="m0 0c-.018 0-.036 0-.054.001-.551.029-.975.501-.946 1.052.054.999 1.356 24.544 6.176 31.516.315.454.938.567 1.391.254.455-.315.569-.937.254-1.392-4.499-6.508-5.811-30.25-5.823-30.484-.029-.534-.47-.947-.998-.947" transform="translate(13 4)"/><path d="m0 0c-.527 0-.969.413-.998.947-.013.239-1.324 23.976-5.824 30.484-.314.455-.2 1.077.254 1.392.456.314 1.079.2 1.391-.254 4.82-6.972 6.123-30.517 6.177-31.516.029-.551-.395-1.022-.946-1.052-.018-.001-.036-.001-.054-.001" transform="translate(24.999 4)"/></g><path d="m0 0c0-4-8.06-11-18-11-9.941 0-18 7-18 11 3-4 10-7 18-7 8 0 15 3 18 7" fill="#662113" transform="translate(37 12)"/></g></g></svg>