<svg xmlns="http://www.w3.org/2000/svg" viewBox="0 0 47.5 47.5" enable-background="new 0 0 47.5 47.5"><defs><clipPath id="0"><path d="m0 38h38v-38h-38v38"/></clipPath><clipPath id="1"><path d="m5 33.666c0-.034.018-.067.022-.101-.014-.11-.022-.23-.022-.365l1.802-23.584c-3.503-.911-5.802-2.192-5.802-3.616 0-2.762 8.611-5 18-5 9.389 0 18 2.238 18 5 0 1.424-2.298 2.705-5.801 3.616l1.801 23.568c0 .135-.008.263-.021.373.003.034.021.075.021.109 0 1.805-6.268 3.267-14 3.267-7.732 0-14-1.462-14-3.267"/></clipPath></defs><g transform="matrix(1.25 0 0-1.25 0 47.5)"><g clip-path="url(#0)"><path d="m0 0l1.802 23.568c0 .136-.008.264-.022.373.004.034.022.076.022.11 0 1.804-6.269 3.267-14 3.267-7.732 0-14-1.463-14-3.267 0-.034.017-.068.022-.102-.014-.109-.022-.229-.022-.364l1.802-23.585c-3.504-.91-5.802-2.191-5.802-3.615 0-2.762 8.611-5 18-5 9.388 0 18 2.238 18 5 0 1.424-2.298 2.705-5.802 3.615" fill="#292f33" transform="translate(31.2 9.615)"/><path d="m0 0c-4.89 0-8.602.896-10.852 1.646-.524.175-.807.742-.632 1.266.174.523.738.807 1.265.632 2.889-.963 10.762-2.891 21.421.016.529.142 1.082-.168 1.227-.702.146-.532-.169-1.082-.702-1.228-4.406-1.201-8.348-1.63-11.727-1.63" fill="#66757f" transform="translate(18.536 30.405)"/></g><g clip-path="url(#1)"><path d="m0 0c4.458-1.708 13.958-1.646 18.807-.149 1.466.453 2.776 1.733 2.776 3.191 0 3.256 3.742 7.25 2.271 6.75-8.271-2.813-19.771-3-28.25.208-9.995 3.782.125-2.625.792-3.875.4-.751.833-1.347.833-2.729 0-1.75 1.289-2.829 2.771-3.396" fill="#744eaa" transform="translate(9.605 6.208)"/></g></g></svg>