<svg xmlns="http://www.w3.org/2000/svg" viewBox="0 0 47.5 47.5" enable-background="new 0 0 47.5 47.5" xmlns:xlink="http://www.w3.org/1999/xlink"><defs><clipPath id="0"><path d="m0 38h38v-38h-38v38"/></clipPath></defs><g transform="matrix(1.25 0 0-1.25 0 47.5)"><path d="m37 3h-36v-2h36v2" fill="#939598"/><g clip-path="url(#0)"><path d="m0 0c0 1.657-1.344 3-3 3-1.657 0-3-1.343-3-3 0-1.657 1.343-3 3-3 1.656 0 3 1.343 3 3" fill="#58595b" transform="translate(11 5)" id="1"/><path d="m0 0c0 1.105-.896 2-2 2-1.105 0-2-.895-2-2 0-1.105.895-2 2-2 1.104 0 2 .895 2 2" fill="#292f33" transform="translate(10 5)" id="2"/><use transform="translate(22)" xlink:href="#1"/><use transform="translate(22)" xlink:href="#2"/><path d="m0 0h-32c-.552 0-1 .448-1 1 0 .552.448 1 1 1h32c.553 0 1-.448 1-1 0-.552-.447-1-1-1" fill="#e6e7e8" transform="translate(35 35)"/><g fill="#66757f"><path d="m0 0c-.256 0-.512.098-.707.293l-5 5c-.201.201-.307.478-.292.762.016.284.152.548.374.726l5 4c.431.344 1.062.275 1.406-.156.344-.432.275-1.061-.156-1.406l-4.128-3.302 4.21-4.21c.39-.391.39-1.023 0-1.414-.195-.195-.451-.293-.707-.293" transform="translate(19 26)"/><path d="m0 0c-.256 0-.512.098-.707.293-.391.391-.391 1.023 0 1.414l4.21 4.21-4.128 3.302c-.431.345-.501.974-.156 1.406.345.432.976.5 1.406.156l5-4c.222-.178.358-.442.374-.726.016-.284-.09-.561-.291-.762l-5-5c-.195-.195-.451-.293-.707-.293" transform="translate(18 26)"/></g><path d="m0 0c0-1.104-.896-2-2-2h-20c-1.104 0-2 .896-2 2 0 1.104.896 2 2 2h20c1.104 0 2-.896 2-2" fill="#bcbec0" transform="translate(31 27)"/><g fill="#e6e7e8"><path d="m0 0c0-2.209-1.791-4-4-4h-28c-2.209 0-4 1.791-4 4v8c0 2.209 1.791 4 4 4h28c2.209 0 4-1.791 4-4v-8" transform="translate(37 15)"/><path d="m37 9h-36v-4h36v4"/></g><g fill="#5c913b"><path d="m37 23h-36v-14h36v14"/><path d="m37 13h-36v10h36v-10"/></g><g fill="#3e721d"><path d="m14 7h-7v14h7v-14"/><path d="m31 7h-7v14h7v-14"/></g><g fill="#88c9f9"><path d="m0 0h-2v-10h2c1.104 0 2 .896 2 2v6c0 1.104-.896 2-2 2" transform="translate(3 21)"/><path d="m0 0h-2c-1.104 0-2-.896-2-2v-6c0-1.104.896-2 2-2h2v10" transform="translate(37 21)"/><path d="m0 0c0-.553-.448-1-1-1h-4c-.552 0-1 .447-1 1v4c0 .553.448 1 1 1h4c.552 0 1-.447 1-1v-4" transform="translate(22 15)"/><path d="m0 0c0-.553-.448-1-1-1h-3c-.552 0-1 .447-1 1v5c0 .552.448 1 1 1h3c.552 0 1-.448 1-1v-5" transform="translate(13 14)"/><path d="m0 0c0-.553-.447-1-1-1h-3c-.553 0-1 .447-1 1v5c0 .552.447 1 1 1h3c.553 0 1-.448 1-1v-5" transform="translate(30 14)"/></g><path d="m37 7h-36v2h36v-2" fill="#3e721d"/></g></g></svg>