<svg xmlns="http://www.w3.org/2000/svg" viewBox="0 0 47.5 47.5" enable-background="new 0 0 47.5 47.5" xmlns:xlink="http://www.w3.org/1999/xlink"><defs><clipPath id="0"><path d="m0 38h38v-38h-38v38"/></clipPath></defs><g transform="matrix(1.25 0 0-1.25 0 47.5)"><g clip-path="url(#0)"><path d="m0 0c0-1.933-.896-3.5-2-3.5-1.104 0-2 1.567-2 3.5 0 1.933.896 3.5 2 3.5 1.104 0 2-1.567 2-3.5" fill="#292f33" transform="translate(34 22.5)" id="1"/><path d="m0 0c-.051.178-1.282 4.363-4.48 4.363-.203 0-.385-.122-.462-.309-.078-.187-.035-.402.108-.545l4-4c.097-.096.225-.146.354-.146.086 0 .174.022.253.069.197.115.289.349.227.568" fill="#292f33" transform="translate(33.481 25.14)"/><path d="m0 0c0-9.445-8.389-15-15-15-6.611 0-17 5.723-17 15.11 0 9.389 3.777 18 17 18 11 0 15-8.667 15-18.11" fill="#ffcc4d" transform="translate(34 15.889)"/><path d="m0 0c1.414 0 3-12 3-12l-9 6c0 0 4 6 6 6" fill="#ffcc4d" transform="translate(25 37)" id="2"/><use transform="translate(-11)" xlink:href="#2"/><use transform="translate(-6)" xlink:href="#1"/><path d="m0 0c3 0 3-.5 3-1.5 0-1-1.5-3-3-3-1.5 0-3 2-3 3 0 1 0 1.5 3 1.5" fill="#67757f" transform="translate(33 17.5)"/><g fill="#9aaab4"><path d="m0 0c-.053 0-.105.008-.158.025l-9 3c-.262.087-.404.37-.316.632.087.262.369.404.632.316l9-2.999c.262-.088.404-.371.317-.633-.071-.209-.266-.342-.475-.342" transform="translate(26 16.5)"/><path d="m0 0c-.033 0-.066.003-.099.01l-10 2c-.271.053-.446.317-.392.588.053.271.313.449.588.392l10-2c.271-.053.447-.317.392-.588-.048-.238-.256-.402-.489-.402" transform="translate(27 14.5)"/></g><g fill="#292f33"><path d="m0 0c-.111.172-2.795 4.229-9.421 4.229-.236 0-.44-.165-.489-.396-.049-.231.07-.464.286-.561l9-4c.065-.028.135-.043.203-.043.143 0 .282.062.38.175.144.168.16.41.041.596" transform="translate(28.421 25.27)"/><path d="m0 0c-.094.038-2.353.925-5.963.925-2.111 0-4.251-.306-6.36-.908-4.03-1.152-6.114-3.03-6.2-3.113-.172-.157-.212-.413-.097-.615.091-.159.258-.253.434-.253.048 0 .097.007.145.022.048.014 4.844 1.46 6.977 1.993 3.893.973 10.809.985 10.878.985.24 0 .446.17.492.405.045.236-.083.47-.306.559" transform="translate(33.19 9.464)"/></g></g></g></svg>