<svg xmlns="http://www.w3.org/2000/svg" viewBox="0 0 47.5 47.5" enable-background="new 0 0 47.5 47.5" xmlns:xlink="http://www.w3.org/1999/xlink"><defs><clipPath id="0"><path d="m0 38h38v-38h-38v38"/></clipPath></defs><g transform="matrix(1.25 0 0-1.25 0 47.5)"><g clip-path="url(#0)"><path d="m0 0l-6.363-1.301c-.45-.093-.819-.544-.819-1v-1.529-2.255-12.07c-.613.209-1.287.328-2 .328-2.761 0-5-1.741-5-3.888 0-2.148 2.239-3.889 5-3.889 2.713 0 4.909 1.683 4.986 3.777h.014v15.523l4.182.855c.45.093.818.544.818 1v3.785c0 .459-.368.759-.818.667" fill="#5dadec" transform="translate(15.182 36.833)" id="1"/><path d="m0 0l-6.363-1.301c-.45-.093-.819-.544-.819-1v-1.529-2.255-12.07c-.613.209-1.288.328-2 .328-2.761 0-5-1.741-5-3.888 0-2.148 2.239-3.889 5-3.889 2.713 0 4.909 1.683 4.986 3.777h.014v15.523l4.182.855c.45.093.818.544.818 1v3.785c0 .459-.368.759-.818.667" fill="#5dadec" transform="translate(36.18 32.833)"/><use transform="translate(9-10)" xlink:href="#1"/></g></g></svg>