<svg xmlns="http://www.w3.org/2000/svg" viewBox="0 0 47.5 47.5" enable-background="new 0 0 47.5 47.5" xmlns:xlink="http://www.w3.org/1999/xlink"><defs><clipPath id="0"><path d="m0 38h38v-38h-38v38"/></clipPath></defs><g transform="matrix(1.25 0 0-1.25 0 47.5)"><g clip-path="url(#0)"><path d="m0 0v4c0 0 0 4 4 4 4 0 4-4 4-4v-4h-8" fill="#d99e82" transform="translate(28 1)"/><path d="m0 0v9c0 0 0 4 4 4 4 0 4-4 4-4v-9h-8" fill="#d99e82" transform="translate(19 1)" id="1"/><path d="m0 0v12c0 0 0 4 4 4 4 0 4-4 4-4v-12h-8" fill="#d99e82" transform="translate(10 1)"/><use transform="translate(-18)" xlink:href="#1"/><path d="m0 0c0 1.657 0 8-3 8-3 0-3-6.343-3-8s1.343-3 3-3c1.657 0 3 1.343 3 3" fill="#dd2e44" transform="translate(17 13)" id="2"/><use transform="translate(-9-3)" xlink:href="#2"/><path d="m0 0c0 1.657 0 8-3 8-3 0-3-6.343-3-8s1.344-3 3-3c1.657 0 3 1.343 3 3" fill="#dd2e44" transform="translate(26 10)" id="3"/><use transform="translate(9-5)" xlink:href="#3"/><path d="m0 0v-4h2c0 0 2 0 6 4l-2 2c0 0-2-2-6-2" fill="#dd2e44" transform="translate(14 21)"/><g fill="#8899a6"><path d="m0 0l8 8 2-2-8-8-2 2" transform="translate(20 23)"/><path d="m0 0c0 0-2 2 0 4l2 2h7v-5l-3-3c-2-2-4 0-4 0l-2 2" transform="translate(28 31)"/></g></g></g></svg>