<svg xmlns="http://www.w3.org/2000/svg" viewBox="0 0 47.5 47.5" enable-background="new 0 0 47.5 47.5"><defs><clipPath id="0"><path d="m0 38h38v-38h-38v38"/></clipPath><clipPath id="1"><path d="m5 37c0 0-4 0-4-4v-28c0-4 4-4 4-4h28c4 0 4 4 4 4v28c0 0 0 4-4 4h-28"/></clipPath><clipPath id="2"><path d="m17 23c-12-10-16-12-16-12v-6c0-4 4-4 4-4h28c4 0 4 4 4 4v6c0 0-5 2-16 12h-4"/></clipPath></defs><g transform="matrix(1.25 0 0-1.25 0 47.5)"><g clip-path="url(#0)"><path d="m0 0c0 0 0-4-4-4h-28c0 0-4 0-4 4v28c0 4 4 4 4 4h28c4 0 4-4 4-4v-28" fill="#88c9f9" transform="translate(37 5)"/></g><g clip-path="url(#1)"><path d="m0 0c0 0 4 2 16 12h4c11-10 16-12 16-12v-10h-36v10" fill="#292f33" transform="translate(1 11)"/></g><g clip-path="url(#2)"><path d="m0 0l-12-10c0 0 2 1 4 1 2 0 2-3 3-3 1 0 2 2 4 2 1.383 0 1.372-1 3-1 1 0 2 1 3 1 1 0 2-1 3-1 1 0 2 2 4 2h5c1 0 0 1 0 1l-12 8h-5" fill="#fff" transform="translate(16 24)"/></g></g></svg>