<svg xmlns="http://www.w3.org/2000/svg" viewBox="0 0 47.5 47.5" enable-background="new 0 0 47.5 47.5"><defs><clipPath id="0"><path d="m0 38h38v-38h-38v38"/></clipPath></defs><g transform="matrix(1.25 0 0-1.25 0 47.5)"><g clip-path="url(#0)"><path d="m0 0c0-9.941-8.06-18-18-18-9.941 0-18 8.06-18 18 0 9.941 8.06 18 18 18 9.941 0 18-8.06 18-18" fill="#f4900c" transform="translate(37 19)"/><path d="m0 0c.546 0 .806.156.806.729v6.37c0 .572-.26.728-.806.728h-5.304c-.52 0-.78-.156-.78-.728v-6.37c0-.573.26-.729.78-.729h5.304m2.808.443c0-1.664-.728-2.314-2.366-2.314h-6.136c-1.664 0-2.392.65-2.392 2.314v6.942c0 1.664.728 2.314 2.392 2.314h6.136c1.638 0 2.366-.65 2.366-2.314v-6.942zm-13.08 12.532c-.494 0-.779.39-.779.962 0 .546.285.936.779.936h22.05c.468 0 .754-.39.754-.936 0-.546-.286-.962-.754-.962h-2.599v-17.914c0-1.899-.859-2.653-3.277-2.653-1.092 0-2.391.131-3.406.365-.494.104-.78.467-.78.936 0 .078 0 .182.026.285.105.522.416.807.859.807.078 0 .181 0 .259-.026.884-.234 2.028-.39 2.834-.39 1.092 0 1.405.234 1.405 1.248v17.342h-17.37" fill="#fff" transform="translate(18.259 14.479)"/></g></g></svg>