<svg xmlns="http://www.w3.org/2000/svg" viewBox="0 0 47.5 47.5" enable-background="new 0 0 47.5 47.5"><defs><clipPath id="0"><path d="m0 38h38v-38h-38v38"/></clipPath></defs><g transform="matrix(1.25 0 0-1.25 0 47.5)"><g clip-path="url(#0)"><g fill="#d99e82"><path d="m0 0c.461-.184.902-3-1-3-6 0-11-11-20-11-9 0-11 12.5-11 15 0 2.5 4.82 10 12 10 7.18 0 15-9 20-11" transform="translate(34 20)"/><path d="m0 0c0-.553-.671-1-1.5-1-.829 0-1.5.447-1.5 1 0 .553 0 2 1.5 1 .689-.46 1.5-.447 1.5-1" transform="translate(4 18)"/></g><path d="m0 0c.461-.184.876-.687-1-1-6-1-10.04.896-19 0-10-1-12-1-12 2 0 2.5 4.82 10 12 10 7.18 0 15-9 20-11" fill="#c1694f" transform="translate(34 20)"/><path d="m0 0c0-2.485 3.343-4.5 5-4.5 1.657 0 0 2.02 0 4.5 0 2.485 1.657 4.5 0 4.5-1.657 0-5-2.02-5-4.5" fill="#d99e82" transform="translate(31 19.5)"/><path d="m0 0c0-.552-.448-1-1-1-.552 0-1 .448-1 1 0 .552.448 1 1 1 .552 0 1-.448 1-1" fill="#292f33" transform="translate(9 24)"/><path d="m0 0c0 0 2.84-4 4.84-4 2 0 0 5 0 5h-2.84c-3 0-2-1-2-1" fill="#d99e82" transform="translate(20.16 12)"/><g fill="#c1694f"><path d="m0 0c0 0 2.86 2.817 4.649 1.923 4.075-2.036-2-4-2-4l-1.592.106c-2.994.2-1.057 1.971-1.057 1.971" transform="translate(22.351 28.08)"/><path d="m0 0c0-1.104-.896-2-2-2-1.104 0-2 .896-2 2 0 1.104.896 2 2 2 1.104 0 2-.896 2-2" transform="translate(19 12)"/><path d="m0 0c0-.553-.447-1-1-1-.553 0-1 .447-1 1 0 .553.447 1 1 1 .553 0 1-.447 1-1" transform="translate(22 16)"/><path d="m0 0c0-.828-.672-1.5-1.5-1.5-.828 0-1.5.672-1.5 1.5 0 .828.672 1.5 1.5 1.5.828 0 1.5-.672 1.5-1.5" transform="translate(27 16.5)"/></g><g fill="#662113"><path d="m0 0c0-.829-.671-1.5-1.5-1.5-.829 0-1.5.671-1.5 1.5 0 .829.671 1.5 1.5 1.5.829 0 1.5-.671 1.5-1.5" transform="translate(19 22.5)"/><path d="m0 0c0-.829-.672-1.5-1.5-1.5-.828 0-1.5.671-1.5 1.5 0 .829.672 1.5 1.5 1.5.828 0 1.5-.671 1.5-1.5" transform="translate(26 21.5)"/><path d="m0 0c0-.552-.447-1-1-1-.553 0-1 .448-1 1 0 .552.447 1 1 1 .553 0 1-.448 1-1" transform="translate(22 26)"/></g><path d="m0 0c0-.552 1-2-1.5-1-.77.308-1.5.448-1.5 1 0 .552.671 1 1.5 1 .829 0 1.5-.448 1.5-1" fill="#c1694f" transform="translate(4 20)"/></g></g></svg>