<svg xmlns="http://www.w3.org/2000/svg" viewBox="0 0 47.5 47.5" enable-background="new 0 0 47.5 47.5"><defs><clipPath id="0"><path d="m0 38h38v-38h-38v38"/></clipPath></defs><g transform="matrix(1.25 0 0-1.25 0 47.5)"><g clip-path="url(#0)"><path d="m0 0c0-2.209-1.791-4-4-4h-28c-2.209 0-4 1.791-4 4v28c0 2.209 1.791 4 4 4h28c2.209 0 4-1.791 4-4v-28" fill="#269" transform="translate(37 5)"/><g fill="#f5f8fa"><path d="m0 0h-2v-18h2c1.104 0 2 .896 2 2v14c0 1.104-.896 2-2 2" transform="translate(30 29)"/><path d="m0 0c-1.104 0-2-.896-2-2v-14c0-1.104.896-2 2-2h2v18h-2" transform="translate(8 29)"/><path d="m0 0c0 .552.448 1 1 1h4c.553 0 1-.448 1-1v-2h-6v2m8-2v3c0 1.104-.896 2-2 2h-6c-1.104 0-2-.896-2-2v-3h-2v-18h14v18h-2z" transform="translate(16 31)"/><path d="m0 0h-30c-.552 0-1-.447-1-1 0-.553.448-1 1-1h1c0-1.104.896-2 2-2 1.104 0 2 .896 2 2h2c0-1.104.896-2 2-2 1.104 0 2 .896 2 2h2c0-1.104.896-2 2-2 1.104 0 2 .896 2 2h2c0-1.104.896-2 2-2 1.104 0 2 .896 2 2h2c0-1.104.896-2 2-2 1.104 0 2 .896 2 2h1c.553 0 1 .447 1 1 0 .553-.447 1-1 1" transform="translate(34 9)"/></g></g></g></svg>