<svg xmlns="http://www.w3.org/2000/svg" viewBox="0 0 47.5 47.5" enable-background="new 0 0 47.5 47.5" xmlns:xlink="http://www.w3.org/1999/xlink"><defs><clipPath id="0"><path d="m0 38h38v-38h-38v38"/></clipPath></defs><g transform="matrix(1.25 0 0-1.25 0 47.5)"><g clip-path="url(#0)"><path d="m0 0c0-9.389-7.611-17-17-17-9.389 0-17 7.611-17 17 0 9.389 7.611 17 17 17 9.389 0 17-7.611 17-17" fill="#d99e82" transform="translate(36 19)"/><path d="m0 0c1.177.385 2.444-.261 2.827-1.44.384-1.18-.26-2.447-1.441-2.831-1.181-.384-3.871-.201-4.255.978-.383 1.181 1.687 2.911 2.869 3.293" fill="#8a4b38" transform="translate(23.638 20.05)"/><path d="m0 0c-.38-.452-1.055-.512-1.507-.131-.452.381-.511 1.055-.131 1.508.381.451 1.514 1.057 1.966.677.453-.38.053-1.601-.328-2.054" fill="#8a4b38" transform="translate(32.21 20.725)" id="1"/><use transform="translate(-22 7)" xlink:href="#1"/><g fill="#8a4b38"><path d="m0 0c-.748.478-.969 1.472-.49 2.22.478.749 1.472.968 2.221.49.749-.479 1.873-2.05 1.394-2.798-.479-.749-2.376-.391-3.125.088" transform="translate(22.301 29.619)"/><path d="m0 0c-.515 1.066-.064 2.351 1 2.864 1.07.512 2.351.061 2.864-1.01.513-1.07.682-3.643-.387-4.154-1.07-.514-2.97 1.227-3.482 2.298" transform="translate(14.375 23.402)"/><path d="m0 0c.602.874 1.8 1.096 2.672.492.874-.605 1.094-1.801.49-2.675-.603-.874-2.528-2.147-3.4-1.544-.875.604-.366 2.854.238 3.727" transform="translate(15.399 9.303)"/><path d="m0 0c-.687.436-.889 1.348-.449 2.034.438.686 1.348.886 2.035.447.685-.438 1.715-1.877 1.276-2.562-.438-.688-2.176-.359-2.862.081" transform="translate(25.412 9.709)"/><path d="m0 0c.762.853 2.071.926 2.923.163.851-.764.924-2.072.16-2.922-.762-.855-2.992-1.955-3.842-1.192-.853.764-.005 3.1.759 3.951" transform="translate(6.536 18.58)"/></g></g></g></svg>