<svg xmlns="http://www.w3.org/2000/svg" viewBox="0 0 47.5 47.5" enable-background="new 0 0 47.5 47.5"><defs><clipPath id="0"><path d="m0 38h38v-38h-38v38"/></clipPath><clipPath id="1"><path d="m1 19c0-9.941 8.06-18 18-18 9.941 0 18 8.06 18 18 0 9.941-8.06 18-18 18-9.941 0-18-8.06-18-18"/></clipPath></defs><g transform="matrix(1.25 0 0-1.25 0 47.5)"><g clip-path="url(#0)"><path d="m0 0c0-9.941-8.06-18-18-18-9.941 0-18 8.06-18 18 0 9.941 8.06 18 18 18 9.941 0 18-8.06 18-18" fill="#88c9f9" transform="translate(37 19)"/></g><g clip-path="url(#1)"><path d="m0 0c-2.305.943-3.375-1.937-5.25-1.375-1.875.563-4.375 1.812-6 .25-1.625-1.563-2-3 0-2.937 2 .062 3.375 2.437 4.375 1.437 1-1 .75-1.812-1.625-2.125-2.375-.312-4.938-.687-6.313-.687-1.374 0-1.687-.813-.75-1.688.938-.875-.562-.938-2.124-1.813-1.563-.875.375-1.25 1.687-2 1.312-.75 2.312.188 2.875 1.438.562 1.25 2.98 2.75 3.99 2.563 1.01-.188 1.01-.688.822-1.563-.187-.875.751-.625.813.375.063 1 1.188 1.75 2.063 1.813.875.062 1.624-1.188.625-1.813-1-.625-2-1.125-.75-1.438 1.25-.312 2.124-1.937.687-2.625-1.437-.687-3.938-1.125-5.063-.562-1.125.562-3.687 1.375-4.375.937-.687-.437-1.062-.889-1.874-1.194-.813-.306-4.125-1.806-4.188-3.743-.062-1.937-.125-4.125 1.188-4.187 1.312-.063 4.499.812 5.499 1.625 1 .812 2.375.625 2.813-.313.437-.937.125-1.5-.313-3-.437-1.5.287-2.25.987-3.562.701-1.313 1.263-2.063 1.263-3 0-.938 1-1.875 2.501-.313 1.5 1.563 2.874 4.625 3.499 5.75.625 1.125 1.126 3.625 1.876 4.125.75.5 1.937 1.688 1.062 1.5-.875-.187-2.625.063-3.063 1.313-.437 1.249-2.312 3.624-1.437 3.874.875.25 1.875-1.389 2.25-2.163.375-.774.875-1.711 1.625-1.961.75-.25 2.375 1.672 2.875 1.961.5.288.125 1.476-.875 1.351-1-.125-2.312 0-2.312.625 0 .625 1.249 1.437 2.249 1.25 1-.188 1.751-.5 2.376-1.25.624-.75 1.874-2.125 2.374-3 .5-.875.875-1 1.125.562.25 1.563.625 2.063.876 3.25.25 1.188-2.563 10.06-8.06 12.313" fill="#5c913b" transform="translate(28.938 35.438)"/></g></g></svg>