<svg xmlns="http://www.w3.org/2000/svg" viewBox="0 0 47.5 47.5" enable-background="new 0 0 47.5 47.5"><defs><clipPath id="0"><path d="m0 38h38v-38h-38v38"/></clipPath></defs><g transform="matrix(1.25 0 0-1.25 0 47.5)"><g clip-path="url(#0)"><path d="m0 0c1.014 1.184 1.902 2.594 2.619 4.198h2.503c-1.391-1.733-3.134-3.166-5.122-4.198m-19.837 4.198h2.503c.716-1.604 1.605-3.01 2.619-4.198-1.989 1.032-3.731 2.465-5.122 4.198m5.122 24.2c-1.014-1.184-1.903-2.594-2.619-4.199h-2.503c1.391 1.734 3.134 3.166 5.122 4.199m19.837-4.199h-2.503c-.717 1.605-1.605 3.02-2.619 4.199 1.988-1.032 3.731-2.465 5.122-4.199m-.513-9c-.092 2.506-.522 4.871-1.228 7h3.103c1.207-2.082 1.951-4.459 2.108-7h-3.983zm0-2h3.983c-.157-2.541-.901-4.917-2.108-7h-3.103c.706 2.129 1.136 4.494 1.228 7m-10.966-7v7h8.968c-.098-2.541-.563-4.917-1.317-7h-7.651zm0-7.919v5.919h6.799c-1.636-3.263-4.052-5.482-6.799-5.919m-2 5.919v-5.919c-2.747.437-5.164 2.656-6.8 5.919h6.8zm-8.969 9h8.969v-7h-7.652c-.754 2.083-1.219 4.459-1.317 7m-1.998 2h-3.983c.158 2.541.901 4.918 2.107 7h3.105c-.707-2.129-1.136-4.494-1.229-7m10.967 7v-7h-8.969c.098 2.541.563 4.917 1.317 7h7.652zm0 7.92v-5.92h-6.8c1.637 3.264 4.053 5.483 6.8 5.92m9.651-7.92c.754-2.083 1.219-4.459 1.317-7h-8.968v7h7.651zm-7.651 2v5.92c2.747-.437 5.162-2.656 6.798-5.92h-6.798m-16.95-11h3.983c.092-2.506.522-4.871 1.229-7h-3.105c-1.206 2.083-1.949 4.459-2.107 7m15.95 19c-9.941 0-18-8.06-18-18 0-9.941 8.06-18 18-18 9.941 0 18 8.06 18 18 0 9.941-8.06 18-18 18" fill="#3b88c3" transform="translate(26.357 4.802)"/></g></g></svg>