<svg xmlns="http://www.w3.org/2000/svg" viewBox="0 0 47.5 47.5" enable-background="new 0 0 47.5 47.5"><defs><clipPath id="0"><path d="m0 38h38v-38h-38v38"/></clipPath></defs><g transform="matrix(1.25 0 0-1.25 0 47.5)"><g clip-path="url(#0)"><path d="m0 0c0-5.522-8.06-10-18-10-9.941 0-18 4.478-18 10 0 5.522 8.06 10 18 10 9.941 0 18-4.478 18-10" fill="#939598" transform="translate(37 13)"/><path d="m0 0c0-5.522-8.06-10-18-10-9.941 0-18 4.478-18 10 0 5.522 8.06 10 18 10 9.941 0 18-4.478 18-10" fill="#f1f2f2" transform="translate(37 15)"/><path d="m0 0c0-4.202-6.626-7.611-14.8-7.611-8.174 0-14.8 3.409-14.8 7.611 0 4.203 6.626 7.611 14.8 7.611 8.174 0 14.8-3.408 14.8-7.611" fill="#ffcc4d" transform="translate(33.8 15.389)"/><g fill="#ffe8b6"><path d="m0 0c-.552 0-1 .447-1 1 0 .553.448 1 1 1 1.898 0 3.082 1.085 3.174 1.835.091.736-.96 1.081-1.417 1.195-.906.225-1.58-.033-2.358-.335-1.068-.414-2.531-.978-4.106.598-.689.688-.868 1.604-.492 2.513.733 1.769 3.444 3.194 5.199 3.194.552 0 1-.448 1-1 0-.552-.448-1-1-1-1.115 0-2.995-1.099-3.351-1.96-.074-.178-.045-.23.058-.333.629-.628.928-.548 1.971-.146.862.334 2.042.79 3.564.409 2.384-.596 3.07-2.136 2.917-3.379-.217-1.765-2.206-3.591-5.159-3.591" transform="translate(12 10)"/><path d="m0 0c-.552 0-1 .447-1 1 0 .553.448 1 1 1 5.697 0 9.833 1.247 12.293 3.707.391.391 1.023.391 1.414 0 .391-.391.391-1.023 0-1.414-2.849-2.849-7.46-4.293-13.707-4.293" transform="translate(18 9)"/><path d="m0 0c-.537 0-1.069.06-1.591.19-.543.135-2.194.548-2.245 1.883-.039 1 .661 2.172 5.938 3.957-.576.47-1.958 1.13-3.451 1.13-2.513 0-3.797-.211-4.293-.707-.39-.391-1.023-.391-1.414 0-.39.391-.39 1.024 0 1.414.955.955 2.448 1.293 5.707 1.293 2.396 0 5.397-1.333 5.676-3.053.108-.662-.193-1.506-1.359-1.895-2.583-.861-3.921-1.549-4.501-1.957.112-.039.253-.081.427-.125 3.231-.804 7.322 2.366 7.768 3.18.072.481.488.85.989.85.553 0 1-.448 1-1 0-.706-.634-1.559-1.886-2.537-1.744-1.361-4.289-2.622-6.765-2.623" transform="translate(22.349 12.84)"/></g><path d="m0 0c0-2.485-2.029-5.5-7-5.5-4.971 0-4 2-12 5-3.376 1.266 5.03 5 10 5 4.971 0 9-2.02 9-4.5" fill="#dd2e44" transform="translate(28 16.5)"/><g fill="#ea596e"><path d="m0 0c-.256 0-.512.098-.707.293-.391.391-.391 1.023 0 1.414.281.305.112.474 0 .586-.558.558-2.238.616-3.846-.188-.495-.247-1.094-.046-1.342.448-.247.494-.046 1.094.448 1.342 1.977.988 4.725 1.242 6.154-.188 1.252-1.252.686-2.728 0-3.414-.195-.195-.451-.293-.707-.293" transform="translate(17 13)"/><path d="m0 0c-2.414 0-3.686 1.271-4.707 2.293-.391.391-.391 1.023 0 1.414.391.391 1.023.391 1.414 0 .954-.954 1.707-1.707 3.293-1.707.773 0 2.586 0 3.293.707.391.391 1.023.391 1.414 0 .391-.391.391-1.023 0-1.414-1.293-1.293-3.599-1.293-4.707-1.293" transform="translate(21 17)"/><path d="m0 0c-.553 0-1 .447-1 1 0 .553.447 1 1 1 1.847 0 4.548.962 5.293 1.707.391.391 1.023.391 1.414 0 .391-.391.391-1.023 0-1.414-1.291-1.291-4.666-2.293-6.707-2.293" transform="translate(21 13)"/></g><path d="m0 0c-.367 0-.72.202-.896.553-.998 1.997-3.076 6.153-4.097 14.323-.069.548.32 1.048.868 1.116.544.07 1.048-.32 1.116-.868.979-7.83 2.953-11.779 3.903-13.677.247-.494.046-1.094-.448-1.342-.143-.071-.296-.105-.446-.105" fill="#ffac33" transform="translate(18 17)"/><path d="m0 0l-15.24 4.503c-3.351 5.309-7.566 4.455-9.885 4.539-.25.009-.819-.22-.833-.625-.015-.392 1.025-.337 1.186-.343 1.705-.062 3.945-.176 6.132-2.487-2.658.927-6.741 1.522-7.485 1.455-.458-.042-.5-.375.042-.625.444-.206 4.572-1.647 6.839-2.34-1.419-.49-3.285-.715-6.434.86-.496.248-1.2.599-1.447.105-.247-.494.506-.753 1-1 2.16-1.08 3.43-2.332 4.823-2.332 1.656 0 2.854.505 3.792.9.333.14.634.263.903.343.016-.01.028-.024.045-.033l14.804-6.592c.486-.265 1.572.791 1.837 1.276.265.484.28 2.173-.079 2.396" fill="#99aab5" transform="translate(36.13 25.958)"/><path d="m0 0c-.256 0-.512.098-.707.293-1.315 1.315-4.446 8.867-.074 14.332.345.431.976.5 1.406.156.431-.345.501-.974.156-1.406-3.649-4.561-.779-10.963-.074-11.668.391-.391.391-1.023 0-1.414-.195-.195-.451-.293-.707-.293" fill="#ffac33" transform="translate(14 18)"/></g></g></svg>