<svg xmlns="http://www.w3.org/2000/svg" viewBox="0 0 47.5 47.5" enable-background="new 0 0 47.5 47.5" xmlns:xlink="http://www.w3.org/1999/xlink"><defs><clipPath id="0"><path d="m0 38h38v-38h-38v38"/></clipPath></defs><g transform="matrix(1.25 0 0-1.25 0 47.5)"><g clip-path="url(#0)"><path d="m0 0c0 0-2 8-5 8h-11c-3 0-7-7-7-7 0 0-8-1-8-5v-2c0-.09.021-.175.026-.263-.609-.342-1.026-.988-1.026-1.737 0-1.104.896-2 2-2h3 2 25c2.209 0 4 1.791 4 4v2c0 2.209-1.791 4-4 4" fill="#e1e8ed" transform="translate(33 14)"/><path d="m0 0v-2c0-.09.021-.175.026-.263-.609-.342-1.026-.988-1.026-1.737 0-1.104.896-2 2-2h3 2 25c2.209 0 4 1.791 4 4v2c0 .348-.059.679-.142 1h-34.657c-.118-.313-.201-.641-.201-1" transform="translate(2 10)"/><path d="m0 0c.055.326.09.658.09 1 0 3.313-2.687 6-6 6-3.314 0-6-2.687-6-6 0-.342.035-.674.09-1h11.82" fill="#66757f" transform="translate(16.91 4)" id="1"/><use transform="translate(17)" xlink:href="#1"/><path d="m0 0c0-2.209-1.791-4-4-4-2.209 0-4 1.791-4 4 0 2.209 1.791 4 4 4 2.209 0 4-1.791 4-4" transform="translate(15 5)" id="2"/><path d="m0 0c0-1.104-.896-2-2-2-1.104 0-2 .896-2 2 0 1.104.896 2 2 2 1.104 0 2-.896 2-2" fill="#e1e8ed" transform="translate(13 5)" id="3"/><use transform="translate(17)" xlink:href="#2"/><use transform="translate(17)" xlink:href="#3"/><path d="m0 0c0-.552-.447-1-1-1h-3c-.552 0-1 .448-1 1 0 .552.448 1 1 1h3c.553 0 1-.448 1-1" fill="#dd2e44" transform="translate(22 23)"/><g fill="#55acee"><path d="m0 0c0-.552-.447-1-1-1h-2c-.552 0-1 .448-1 1 0 .552.448 1 1 1h2c.553 0 1-.448 1-1" transform="translate(23 23)"/><path d="m0 0h7c0 0-2 5-3 5h-4v-5" transform="translate(24 15)"/><path d="m0 0h-5c-2 0-5-5-5-5h10v5" transform="translate(22 20)"/></g></g></g></svg>