<svg xmlns="http://www.w3.org/2000/svg" viewBox="0 0 47.5 47.5" enable-background="new 0 0 47.5 47.5"><defs><clipPath id="0"><path d="m0 38h38v-38h-38v38"/></clipPath></defs><g transform="matrix(1.25 0 0-1.25 0 47.5)"><g clip-path="url(#0)"><path d="m0 0c0 2.209-1.119 4-2.5 4-.125 0-.246-.03-.366-.059-1.868 5.805-6.589 9.934-12.134 9.934-5.544 0-10.266-4.129-12.134-9.934-.12.029-.241.059-.366.059-1.381 0-2.5-1.791-2.5-4 0-2.028.947-3.687 2.171-3.947.967-7.39 6.334-13.05 12.829-13.05 6.495 0 11.861 5.663 12.829 13.05 1.224.26 2.171 1.919 2.171 3.947" fill="#d99e82" transform="translate(34 18)"/><g fill="#662113"><path d="m0 0c-.552 0-1 .447-1 1v2c0 .553.448 1 1 1 .552 0 1-.447 1-1v-2c0-.553-.448-1-1-1" transform="translate(14 13)"/><path d="m0 0c-.553 0-1 .447-1 1v2c0 .553.447 1 1 1 .553 0 1-.447 1-1v-2c0-.553-.447-1-1-1" transform="translate(24 13)"/></g><path d="m0 0c0 2.762 6.611 5 16 5 9.389 0 16-2.238 16-5 0-2.761-6.611-6-16-6-9.389 0-16 3.239-16 6" fill="#ffe8b6" transform="translate(3 22)"/><path d="m0 0c0 7 6.198 14 15 14 8.802 0 15-7 15-14 0-1-6.198-4-15-4-8.802 0-15 3-15 4" fill="#ffd983" transform="translate(4 23)"/><g fill="#ffac33"><path d="m0 0c-.553 0-1 .448-1 1 0 7.728-1.93 13.625-1.949 13.684-.174.524.109 1.09.634 1.265.522.173 1.088-.109 1.263-.633.08-.239 1.876-5.71 2.04-13.223 1.139.161 3.165.602 5.565 1.802.494.247 1.093.046 1.342-.448.247-.494.046-1.094-.448-1.342-4.163-2.081-7.315-2.105-7.447-2.105" transform="translate(26 20)"/><path d="m0 0c-.132 0-3.284.024-7.447 2.105-.494.248-.695.848-.448 1.342.248.493.847.695 1.342.448 2.399-1.2 4.425-1.641 5.565-1.802.164 7.513 1.959 12.984 2.039 13.223.176.524.744.806 1.264.633.524-.175.808-.741.634-1.265-.02-.059-1.949-5.956-1.949-13.684 0-.552-.448-1-1-1" transform="translate(12 20)"/></g><path d="m0 0h-2v2c0 .552-.448 1-1 1-.552 0-1-.448-1-1v-2h-2c-.552 0-1-.448-1-1 0-.552.448-1 1-1h2v-2c0-.552.448-1 1-1 .552 0 1 .448 1 1v2h2c.553 0 1 .448 1 1 0 .552-.447 1-1 1" fill="#5c913b" transform="translate(22 27)"/><g fill="#c1694f"><path d="m0 0c-2.21 0-4.357 1.061-4.447 1.105-.493.248-.693.846-.448 1.34.246.495.845.694 1.341.451.018-.01 1.824-.896 3.554-.896 1.73 0 3.536.886 3.554.896.498.243 1.095.043 1.341-.451.246-.494.045-1.092-.448-1.34-.091-.044-2.236-1.105-4.447-1.105" transform="translate(19 5)"/><path d="m0 0h-2c-.552 0-1 .447-1 1 0 .553.448 1 1 1h2c.553 0 1-.447 1-1 0-.553-.447-1-1-1" transform="translate(20 9)"/></g></g></g></svg>