<svg xmlns="http://www.w3.org/2000/svg" viewBox="0 0 47.5 47.5" enable-background="new 0 0 47.5 47.5" xmlns:xlink="http://www.w3.org/1999/xlink"><defs><path id="1" d="m0 0c.144.03.3.06.45.06.725 0 1.241-.576 1.241-1.277 0-1-.551-1.661-1.589-1.661-.426 0-1.319.275-1.319.803 0 .222.186.408.407.408.24 0 .528-.384.93-.384.42 0 .636.408.636.785 0 .36-.204.606-.576.606-.348 0-.402-.198-.708-.198-.234 0-.353.18-.353.282 0 .078.011.138.018.204l.15 1.266c.066.467.179.569.467.569h1.445c.276 0 .438-.162.438-.378 0-.414-.312-.45-.42-.45h-1.127l-.09-.635" fill="#77b255"/><clipPath id="0"><path d="m0 38h38v-38h-38v38"/></clipPath></defs><g transform="matrix(1.25 0 0-1.25 0 47.5)"><g clip-path="url(#0)"><path d="m0 0c0-2.209-1.791-4-4-4h-28c-2.209 0-4 1.791-4 4v18c0 2.209 1.791 4 4 4h28c2.209 0 4-1.791 4-4v-18" fill="#292f33" transform="translate(37 10)"/><path d="m0 0c0-1.104-.896-2-2-2h-28c-1.104 0-2 .896-2 2v12c0 1.104.896 2 2 2h28c1.104 0 2-.896 2-2v-12" fill="#c6e5b3" transform="translate(35 16)"/><path d="m0 0c0-1.104-.896-2-2-2h-8c-1.104 0-2 .896-2 2 0 1.104.896 2 2 2h8c1.104 0 2-.896 2-2" fill="#66757f" transform="translate(15 10)" id="2"/><use transform="translate(14)" xlink:href="#2"/><path d="m0 0c0-1.104.896-2 2-2 1.104 0 2 .896 2 2 0 1.104-.896 2-2 2-1.104 0-2-.896-2-2" fill="#dd2e44" transform="translate(31 10)"/><use transform="translate(7.189 22.807)" xlink:href="#1"/><use transform="translate(10.632 22.807)" xlink:href="#1"/><use transform="translate(14.08 22.807)" xlink:href="#1"/><g fill="#77b255"><path d="m0 0c.222-.018.342-.168.342-.384 0-.203-.12-.353-.342-.371h-1.277c-.223.018-.342.168-.342.371 0 .216.119.366.342.384h1.277" transform="translate(17.916 22.12)"/><path d="m0 0c.144.03.3.06.449.06.726 0 1.241-.576 1.241-1.277 0-1-.551-1.661-1.588-1.661-.426 0-1.32.275-1.32.803 0 .222.186.408.408.408.24 0 .528-.384.929-.384.42 0 .636.408.636.785 0 .36-.204.606-.575.606-.348 0-.403-.198-.708-.198-.234 0-.354.18-.354.282 0 .078.012.138.018.204l.15 1.266c.066.467.18.569.468.569h1.445c.276 0 .438-.162.438-.378 0-.414-.312-.45-.42-.45h-1.127l-.09-.635" transform="translate(19.855 22.807)"/></g><path d="m0 0c.144.03.3.06.45.06.726 0 1.241-.576 1.241-1.277 0-1-.551-1.661-1.589-1.661-.426 0-1.32.275-1.32.803 0 .222.187.408.408.408.241 0 .528-.384.93-.384.42 0 .636.408.636.785 0 .36-.204.606-.576.606-.348 0-.402-.198-.707-.198-.235 0-.355.18-.355.282 0 .078.013.138.019.204l.149 1.266c.067.467.181.569.468.569h1.445c.277 0 .438-.162.438-.378 0-.414-.312-.45-.419-.45h-1.128l-.09-.635" fill="#77b255" transform="translate(23.298 22.807)" id="3"/><path d="m0 0c.144.03.3.06.45.06.726 0 1.241-.576 1.241-1.277 0-1-.551-1.661-1.589-1.661-.426 0-1.319.275-1.319.803 0 .222.186.408.407.408.241 0 .528-.384.93-.384.42 0 .636.408.636.785 0 .36-.204.606-.576.606-.348 0-.402-.198-.707-.198-.235 0-.355.18-.355.282 0 .078.013.138.019.204l.149 1.266c.067.467.181.569.468.569h1.445c.277 0 .438-.162.438-.378 0-.414-.312-.45-.419-.45h-1.128l-.09-.635" fill="#77b255" transform="translate(26.742 22.807)"/><use transform="translate(6.889)" xlink:href="#3"/></g></g></svg>