<svg xmlns="http://www.w3.org/2000/svg" viewBox="0 0 47.5 47.5" enable-background="new 0 0 47.5 47.5"><defs><clipPath id="0"><path d="m0 38h38v-38h-38v38"/></clipPath><clipPath id="1"><path d="m11.07 35.32l-8.485-8.485c-1.561-1.562-1.561-2.681 0-4.243l19.09-19.09c1.562-1.562 4.094-1.562 5.657 0l7.07 7.07c1.561 1.562 1.561 4.095 0 5.657l-19.09 19.09c-.781.781-1.451 1.172-2.122 1.172-.67 0-1.34-.391-2.121-1.172"/></clipPath><clipPath id="2"><path d="m20.268 26.13l-8.485-8.486c-1.563-1.562-1.563-4.094 0-5.657l9.899-9.899c1.562-1.562 4.094-1.562 5.657 0l8.485 8.485c1.562 1.562 1.562 4.095 0 5.657l-9.9 9.9c-.781.781-1.804 1.171-2.828 1.171-1.023 0-2.047-.39-2.828-1.171"/></clipPath></defs><g transform="matrix(1.25 0 0-1.25 0 47.5)"><g clip-path="url(#0)"><path d="m0 0c-1.562-1.562-4.095-1.562-5.657 0l-19.09 19.09c-1.562 1.562-1.562 2.681 0 4.243l8.485 8.485c1.562 1.562 2.681 1.562 4.243 0l19.09-19.09c1.562-1.563 1.562-4.095 0-5.658l-7.07-7.07" fill="#c1694f" transform="translate(27.339 3.504)"/></g><g clip-path="url(#1)"><path d="m0 0l-20.299 20.299 5.863 5.864-1.414 1.414-5.863-5.864-4.451 4.45-1.414-1.414 4.451-4.45-7.572-7.571 1.414-1.415 7.572 7.572 20.299-20.299 1.414 1.414" fill="#8a4b38" transform="translate(32.996 6.333)"/></g><g clip-path="url(#0)"><path d="m0 0c-1.562-1.562-4.095-1.562-5.657 0l-9.899 9.899c-1.562 1.563-1.562 4.095 0 5.658l8.485 8.485c1.562 1.562 4.094 1.562 5.657 0l9.899-9.899c1.562-1.563 1.562-4.095 0-5.658l-8.485-8.485" fill="#dd2e44" transform="translate(27.339 2.09)"/></g><g clip-path="url(#2)"><path d="m0 0l-9-23-6 3 13 21 2-1" fill="#be1931" transform="translate(27 27)"/></g><g clip-path="url(#0)"><path d="m0 0l2.121-2.121c-.707-2.122-8.485-15.557-9.9-18.385 0 0-.707-2.121-2.474-.353-1.242 1.241-3.703 3.702-5.304 5.303-.679.679-.685 2.143 0 2.828 3.575 3.574 12.135 12.135 12.728 12.728 1.414 1.415 2.829 0 2.829 0" fill="#ccd6dd" transform="translate(23.804 28.25)"/></g></g></svg>