<svg xmlns="http://www.w3.org/2000/svg" viewBox="0 0 47.5 47.5" enable-background="new 0 0 47.5 47.5"><defs><clipPath id="0"><path d="m0 38h38v-38h-38v38"/></clipPath></defs><g transform="matrix(1.25 0 0-1.25 0 47.5)"><g clip-path="url(#0)"><path d="m0 0c0-2.209-1.791-4-4-4h-26c-2.209 0-4 1.791-4 4v28c0 2.209 1.791 4 4 4h26c2.209 0 4-1.791 4-4v-28" fill="#ccd6dd" transform="translate(36 5)"/><path d="m27 11h5v-5h-5v5m-7 0h5v-5h-5v5m-7 0h5v-5h-5v5m-7 0h5v-5h-5v5m5 16h-5v5h5v-5m7 0h-5v5h5v-5m7 0h-5v5h5v-5m2 5h5v-5h-5v5m0-7h5v-5h-5v5m0-7h5v-5h-5v5m-7 0h5v-5h-5v5m-7 0h5v-5h-5v5m-2-5h-5v5h5v-5m0 7h-5v5h5v-5m9 5h5v-5h-5v5m-2-5h-5v5h5v-5m15 14h-28c-.553 0-1-.448-1-1v-28c0-.553.447-1 1-1h28c.553 0 1 .447 1 1v28c0 .552-.447 1-1 1" fill="#e1e8ed"/><path d="m0 0c0-1.104-.896-2-2-2h-2c-1.104 0-2 .896-2 2v15c0 1.104.896 2 2 2h2c1.104 0 2-.896 2-2v-15" fill="#5c913b" transform="translate(15 6)"/><path d="m0 0c0-1.104-.896-2-2-2h-2c-1.104 0-2 .896-2 2v22c0 1.104.896 2 2 2h2c1.104 0 2-.896 2-2v-22" fill="#9266cc" transform="translate(29 6)"/><path d="m0 0c0-1.104-.896-2-2-2h-2c-1.104 0-2 .896-2 2v8c0 1.104.896 2 2 2h2c1.104 0 2-.896 2-2v-8" fill="#dd2e44" transform="translate(22 6)"/></g></g></svg>