<svg xmlns="http://www.w3.org/2000/svg" viewBox="0 0 47.5 47.5" enable-background="new 0 0 47.5 47.5"><defs><clipPath id="0"><path d="m0 38h38v-38h-38v38"/></clipPath></defs><g transform="matrix(1.25 0 0-1.25 0 47.5)"><g clip-path="url(#0)"><path d="m0 0c0-2.209-1.791-4-4-4h-28c-2.209 0-4 1.791-4 4v28c0 2.209 1.791 4 4 4h28c2.209 0 4-1.791 4-4v-28" fill="#269" transform="translate(37 5)"/><g fill="#f5f8fa"><path d="m0 0c0-3.313-2.686-6-6-6-3.313 0-6 2.687-6 6h12" transform="translate(33.828 28)"/><path d="m0 0h-12c-.553 0-1-.448-1-1 0-.182.049-.569.134-1.01-.045.002-.088.007-.134.007-1.104 0-2-.448-2-1 0-.552.896-1 2-1 .37 0 .684.003.971.008.009-.002.019-.008.029-.008h12c.553 0 1 2.448 1 3 0 .552-.447 1-1 1" transform="translate(33.828 34)"/><path d="m0 0l-11.82-11.82c0-1.105.896-2 2-2h8c1.105 0 2 .895 2 2v11c0 .293-.067.569-.18.82" transform="translate(33.648 18.82)"/><path d="m0 0h-7c-.057 0-.11-.012-.166-.017-1.318.071-2.796-.118-3.248-.569l-5.828-6c-.781-.781-.781-2.048 0-2.829.781-.78 2.047-.78 2.828 0l4.414 4.544v-4.129l9 9" transform="translate(30.828 20)"/><path d="m0 0h-9v9c0 1.104-.896 2-2 2-1.104 0-2-.896-2-2v-9c0-1.104.896-2 2-2 0-1.104.896-2 2-2h9c1.104 0 2 .896 2 2 0 1.104-.896 2-2 2" transform="translate(16 9)"/></g></g></g></svg>