<svg xmlns="http://www.w3.org/2000/svg" viewBox="0 0 47.5 47.5" enable-background="new 0 0 47.5 47.5"><defs><clipPath id="0"><path d="m0 38h38v-38h-38v38"/></clipPath><clipPath id="1"><path d="m6.727 31.382c-.477-.233-.54-.84-.414-1.278.125-.437 10.687-27.1 10.687-27.1 0 0 1-2 2-2 1.104 0 2 2 2 2l10.704 27.22c0 0 .213.842-.569 1.229-1.744.861-6.088 2.55-12.135 2.55-6.213 0-10.616-1.81-12.273-2.618"/></clipPath></defs><g transform="matrix(1.25 0 0-1.25 0 47.5)"><g clip-path="url(#0)"><path d="m0 0c7.257 0 13-4 14.699-2 .197.323.301.657.301 1 0 2-6.716 5-15 5-8.284 0-15-3-15-5 0-.343.104-.677.301-1 1.699-2 7.442 2 14.699 2" fill="#f4900c" transform="translate(19 33)"/><path d="m0 0c-6.213 0-10.616-1.81-12.273-2.618-.477-.233-.54-.84-.415-1.278.125-.437 10.688-27.1 10.688-27.1 0 0 .896-2 2-2 1.104 0 2 2 2 2l10.704 27.22c0 0 .213.841-.569 1.228-1.743.862-6.088 2.551-12.135 2.551" fill="#ffcc4d" transform="translate(19 34)"/></g><g clip-path="url(#1)" fill="#be1931"><path d="m0 0c0-2.208-1.791-4-4-4-2.209 0-4 1.792-4 4 0 2.208 1.791 4 4 4 2.209 0 4-1.792 4-4" transform="translate(19 6)"/><path d="m0 0c0-2.208-1.792-4-4-4-2.209 0-4 1.792-4 4 0 2.209 1.791 4 4 4 2.208 0 4-1.791 4-4" transform="translate(18 17)"/><path d="m0 0c0-2.209-1.792-4-4-4-2.209 0-4 1.791-4 4 0 2.209 1.791 4 4 4 2.208 0 4-1.791 4-4" transform="translate(21 29)"/><path d="m0 0c0-2.209-1.792-4-4-4-2.208 0-4 1.791-4 4 0 2.209 1.792 4 4 4 2.208 0 4-1.791 4-4" transform="translate(30 24)"/><path d="m0 0c0-2.208-1.792-4-4-4-2.208 0-4 1.792-4 4 0 2.208 1.792 4 4 4 2.208 0 4-1.792 4-4" transform="translate(28 12)"/><path d="m0 0c0-2.209-1.791-4-4-4-2.209 0-4 1.791-4 4 0 2.209 1.791 4 4 4 2.209 0 4-1.791 4-4" transform="translate(11 25)"/></g></g></svg>