<svg xmlns="http://www.w3.org/2000/svg" viewBox="0 0 47.5 47.5" enable-background="new 0 0 47.5 47.5"><defs><clipPath id="0"><path d="m0 38h38v-38h-38v38"/></clipPath></defs><g transform="matrix(1.25 0 0-1.25 0 47.5)"><g clip-path="url(#0)"><path d="m0 0c0-1.104-.896-2-2-2h-30c-1.104 0-2 .896-2 2v20c0 1.104.896 2 2 2h30c1.104 0 2-.896 2-2v-20" fill="#292f33" transform="translate(37 14)"/><g fill="#e1e8ed"><path d="m13 28h-9v8h9v-8"/><path d="m21 20h-8v8h8v-8"/><path d="m29 28h-8v8h8v-8"/><path d="m13 12h-8v8h8v-8"/><path d="m29 12h-8v8h8v-8"/><path d="m37 20h-8v8h8v-8"/></g><path d="m0 0c0-1.104-.896-2-2-2-1.104 0-2 .896-2 2v32c0 1.104.896 2 2 2 1.104 0 2-.896 2-2v-32" fill="#553788" transform="translate(5 3)"/></g></g></svg>