<svg xmlns="http://www.w3.org/2000/svg" viewBox="0 0 47.5 47.5" enable-background="new 0 0 47.5 47.5"><defs><clipPath id="0"><path d="m0 38h38v-38h-38v38"/></clipPath></defs><g transform="matrix(1.25 0 0-1.25 0 47.5)"><g clip-path="url(#0)"><path d="m0 0c3 0 5-2 8-6 3-4 7.957-7.191 12-8 5-1 9-5 9-11 0-4.897-3.846-7-9-7-5 0-9 3-14 8-5 5-10 14-10 18 0 4 1 6 4 6" fill="#744eaa" transform="translate(7 33)"/><path d="m0 0c1.248 0 1.248-1.248 1.248-2.495 0-1.764 1.247-1.129 2.495-1.129 1.247 0 3.742-2.376 3.742-2.376h-3.742c-1.248 0 0-2.614-1.248-2.614-1.247 0-1.247 1.188-2.495 1.188-1.248 0-1.515-3.574-1.515-3.574 0 0-1.604 4.153.267 6.02 1.248 1.248-1.247 4.976 1.248 4.976" fill="#77b255" transform="translate(4.515 37)"/></g></g></svg>