<svg xmlns="http://www.w3.org/2000/svg" viewBox="0 0 47.5 47.5" enable-background="new 0 0 47.5 47.5"><defs><clipPath id="0"><path d="m0 38h38v-38h-38v38"/></clipPath></defs><g transform="matrix(1.25 0 0-1.25 0 47.5)"><g clip-path="url(#0)"><path d="m0 0c0 .809-.487 1.538-1.234 1.848-.75.31-1.608.139-2.18-.434-.886-.886-3.997-3.414-6.586-3.414-.001 0-.002 0-.004 0-2.384 1.273-5.104 2-7.996 2-2.892 0-5.612-.727-7.996-2-.002 0-.003 0-.004 0-2.58 0-5.631 2.466-6.586 3.414-.571.572-1.433.744-2.179.434-.748-.31-1.235-1.039-1.235-1.848 0-2.384.795-6.229 3.359-8.391-1.489-2.527-2.359-5.463-2.359-8.609 0-9.389 7.612-17 17-17 9.389 0 17 7.611 17 17 0 3.146-.87 6.082-2.359 8.609 2.564 2.162 3.359 6.01 3.359 8.391" fill="#aa8ed6" transform="translate(37 35)"/><g fill="#553986"><path d="m0 0c-.178.161-.444.171-.635.029-.039-.029-3.922-2.9-8.7-2.9-4.766 0-8.662 2.871-8.7 2.9-.191.142-.457.13-.635-.029-.177-.16-.217-.424-.094-.628.129-.215 3.217-5.243 9.429-5.243 6.212 0 9.301 5.03 9.429 5.243.123.205.084.468-.094.628" transform="translate(28.335 11.371)"/><path d="m0 0c-3.255 3.255-8.486 3.293-8.707 3.293-.552 0-.999-.447-.999-.999-.001-.551.446-1 .998-1 .029 0 1.925-.022 3.983-.737-.593-.64-.982-1.634-.982-2.763 0-1.934 1.119-3.5 2.5-3.5 1.381 0 2.5 1.566 2.5 3.5 0 .174-.019.34-.037.507.013 0 .025-.007.037-.007.256 0 .512.098.707.293.391.391.391 1.023 0 1.414" transform="translate(16.707 18.707)"/><path d="m0 0c-.221 0-5.451-.038-8.707-3.293-.391-.391-.391-1.023 0-1.414.195-.195.451-.293.707-.293.013 0 .024.007.036.007-.016-.167-.036-.333-.036-.507 0-1.934 1.119-3.5 2.5-3.5 1.381 0 2.5 1.566 2.5 3.5 0 1.129-.389 2.123-.982 2.763 2.058.715 3.954.737 3.984.737.551.001.998.45.997 1-.001.552-.447.999-.999.999" transform="translate(30 22)"/></g></g></g></svg>