<svg xmlns="http://www.w3.org/2000/svg" viewBox="0 0 47.5 47.5" enable-background="new 0 0 47.5 47.5"><defs><clipPath id="0"><path d="m0 38h38v-38h-38v38"/></clipPath></defs><g transform="matrix(1.25 0 0-1.25 0 47.5)"><g clip-path="url(#0)"><path d="m0 0c-.418 0-.83.123-1.182.361l-2.96 2.01-2.959-2.01c-.353-.238-.766-.361-1.183-.361-.183 0-.365.022-.547.072-.589.157-1.084.563-1.35 1.114l-1.721 2.392-3.405.568c-.05-.002-.1-.004-.151-.004-.558 0-1.095.221-1.49.617-.433.435-.657 1.032-.614 1.641l.256 3.568-3.215 1.56c-.55.266-.957.762-1.116 1.353-.159.591-.052 1.221.291 1.728l1.152 2.928-1.152 2.991c-.343.507-.45 1.137-.291 1.729.159.59.566 1.084 1.116 1.351l3.215 1.56-.256 3.565c-.043.612.181 1.212.614 1.642.394.397.932.618 1.49.618.051 0 .101 0 .151-.004l3.28.506 1.846 2.452c.266.551.761.958 1.35 1.116.182.048.364.073.547.073.417 0 .83-.124 1.183-.363l2.959-2.01 2.96 2.01c.352.239.764.363 1.182.363.183 0 .369-.025.545-.073.592-.158 1.088-.565 1.353-1.116l1.867-2.327 3.261-.631c.048.004.1.004.149.004.557 0 1.094-.221 1.493-.618.431-.43.656-1.03.612-1.642l-.259-3.565 3.22-1.56c.551-.267.957-.761 1.113-1.351.159-.592.055-1.223-.289-1.729l-.925-2.908.925-3.01c.344-.507.448-1.137.289-1.728-.156-.591-.562-1.087-1.113-1.353l-3.22-1.56.259-3.568c.044-.609-.181-1.206-.612-1.641-.399-.396-.936-.617-1.493-.617-.049 0-.101.002-.149.004l-3.219-.526-1.909-2.434c-.265-.551-.761-.957-1.353-1.114-.177-.05-.362-.072-.545-.072" fill="#e1e8ed" transform="translate(23.24 1.338)"/><path d="m0 0c-3.708-.041-8.167 2.875-7.792 8.37.133 1.959.902 3.779 2.341 5.116 2.543 2.366 6.538 2.22 8.903-.324.986-1.061 1.5-2.443 1.447-3.891-.051-1.447-.665-2.788-1.726-3.774-.918-.853-2.104-1.302-3.365-1.253-1.253.046-2.413.577-3.266 1.495-.785.844-1.059 2.045-.733 3.214.331 1.189 1.218 2.095 2.375 2.425.532.152 1.123.236 1.274-.294.152-.531-.38-.757-1.083-1.25-.833-.584-1.292-1.667-.368-2.733.471-.544 1.155-.831 1.873-.858.717-.023 1.405.229 1.932.719.668.622 1.056 1.469 1.089 2.383.034.913-.292 1.785-.914 2.455-1.614 1.737-4.34 1.837-6.077.221-1.046-.973-1.652-2.295-1.703-3.723-.053-1.429.455-2.791 1.428-3.838 1.202-1.293 2.835-2.04 4.599-2.105 1.764-.07 3.448.562 4.741 1.765 1.587 1.476 2.505 3.483 2.585 5.649.079 2.166-.691 4.234-2.167 5.821-3.725 4.01-8.601 4.952-13.643 1.91-.763-.46-1.401-1.136-1.833-.791-.209.166-.315.481.09.857 4.815 4.478 12.376 4.201 16.85-.614 1.84-1.978 2.919-4.562 2.701-7.257-.683-8.403-6.558-9.861-9.558-9.695" fill="#d372b8" transform="translate(19.5 8.291)"/></g></g></svg>