<svg xmlns="http://www.w3.org/2000/svg" viewBox="0 0 47.5 47.5" enable-background="new 0 0 47.5 47.5"><defs><clipPath id="0"><path d="m0 38h38v-38h-38v38"/></clipPath></defs><g transform="matrix(1.25 0 0-1.25 0 47.5)"><g clip-path="url(#0)"><g fill="#ffd983"><path d="m0 0l-5.844 5.844c.846 1.017.804 2.525-.15 3.479-1.01 1.01-2.65 1.01-3.662 0-.621-.621-.856-1.479-.715-2.282-.804.141-1.661-.095-2.282-.716-1.01-1.01-1.01-2.651 0-3.662.954-.954 2.462-.996 3.479-.149l5.844-5.844 3.33 3.33" transform="translate(15.02 26.632)"/><path d="m0 0l5.845-5.844c1.016.846 2.524.805 3.478-.15 1.012-1.01 1.012-2.651 0-3.661-.621-.621-1.478-.857-2.282-.716.142-.804-.095-1.661-.716-2.281-1.01-1.012-2.65-1.012-3.661 0-.955.954-.996 2.462-.149 3.478l-5.845 5.844 3.33 3.33" transform="translate(26.936 14.713)"/></g><path d="m0 0c-1.632 1.633-4.113 1.543-6.234 3.665-2.121 2.121-2.033 4.602-3.665 6.235-3.515 3.515-7.02 1.467-11.314-2.829-4.296-4.296-6.343-7.799-2.829-11.313 1.633-1.633 4.114-1.544 6.235-3.665 2.122-2.121 2.033-4.603 3.665-6.235 3.515-3.514 7.02-1.467 11.314 2.829 4.296 4.295 6.343 7.798 2.828 11.313" fill="#c1694f" transform="translate(31.02 21.12)"/><path d="m0 0c-.104 0-.211.017-.316.052-.524.174-.808.74-.633 1.264 1.11 3.328 5.305 7.523 8.633 8.633.528.176 1.089-.109 1.264-.633.175-.524-.108-1.09-.632-1.265-2.685-.895-6.472-4.682-7.367-7.367-.14-.419-.53-.684-.949-.684" fill="#662113" transform="translate(15 14)"/></g></g></svg>