<svg xmlns="http://www.w3.org/2000/svg" viewBox="0 0 47.5 47.5" enable-background="new 0 0 47.5 47.5"><defs><clipPath id="0"><path d="m0 38h38v-38h-38v38"/></clipPath></defs><g transform="matrix(1.25 0 0-1.25 0 47.5)"><g clip-path="url(#0)"><path d="m0 0c0-1.104.896-2 2-2h18c1.104 0 2 .896 2 2v20c0 1.104-.896 2-2 2h-18c-1.104 0-2-.896-2-2v-20" fill="#ffcc4d" transform="translate(15 3)"/><path d="m0 0h-14v-2h16c0 1.104-.896 2-2 2" fill="#bcbec0" transform="translate(35 25)"/><path d="m21 1h14v20h-14v-20" fill="#55acee"/><path d="m0 0h-16c-1.104 0-2-.896-2-2v-32c0-1.104.896-2 2-2h18v34c0 1.104-.896 2-2 2" fill="#ffe8b6" transform="translate(19 37)"/><path d="m0 0h-16c-1.104 0-2-.896-2-2h20c0 1.104-.896 2-2 2" fill="#bcbec0" transform="translate(19 37)"/><g fill="#55acee"><path d="m3 11h16v4h-16v-4"/><path d="m3 17h16v4h-16v-4"/><path d="m3 23h16v4h-16v-4"/><path d="m3 29h16v4h-16v-4"/><path d="m3 1h16v8h-16v-8"/></g><g fill="#3b88c3"><path d="m7 1h8v4h-8v-4"/><path d="m24 1h8v4h-8v-4"/></g><g fill="#ffcc4d"><path d="m36 9h-15v2h15v-2"/><path d="m36 15h-15v2h15v-2"/></g><path d="m0 0c0-1.104-.896-2-2-2h-10c-1.104 0-2 .896-2 2v2c0 1.104.896 2 2 2h10c1.104 0 2-.896 2-2v-2" fill="#dd2e44" transform="translate(37 30)"/><g fill="#58595b"><path d="m29 25h-2v3h2v-3"/><path d="m33 25h-2v3h2v-3"/></g><path d="m27 30h-2v2h2v-2" fill="#f4abba"/><path d="m29 30h-2v2h2v-2" fill="#fff"/><path d="m31 30h-2v2h2v-2" fill="#f4abba"/><path d="m33 30h-2v2h2v-2" fill="#fff"/><path d="m35 30h-2v2h2v-2" fill="#f4abba"/></g></g></svg>