<svg xmlns="http://www.w3.org/2000/svg" viewBox="0 0 47.5 47.5" enable-background="new 0 0 47.5 47.5" xmlns:xlink="http://www.w3.org/1999/xlink"><defs><path id="1" d="m0 0c0-.553.672-1 1.5-1 .828 0 1.5.447 1.5 1 0 .553-.672 1-1.5 1-.828 0-1.5-.447-1.5-1" fill="#77b255"/><clipPath id="0"><path d="m0 38h38v-38h-38v38"/></clipPath></defs><g transform="matrix(1.25 0 0-1.25 0 47.5)"><g clip-path="url(#0)"><path d="m0 0c0-1-1.723-3-3.334-3-1.61 0-1.666 1.343-1.666 3 0 1.657 1.306 3 2.916 3 1.611 0 2.084-1.343 2.084-3" fill="#3e721d" transform="translate(20 5)" id="2"/><use transform="translate(11)" xlink:href="#2"/><path d="m0 0c0 6-3.172 9.171-6 12-1 1-1.399-.321-1-1 .508-.862 3-8-2-8h-2c-5 0-6.172 1.172-9 4-4.5 4.5-7 0-9 0-6 0-7 1.813-7-2 0-3 3-4 6-4 3 0 3-1 5-4 1.071-1.606 2.836-3.211 5.02-4.155.232-1.119 2.774-3.845 4.311-3.845 1.61 0 1.666 1.343 1.666 3h5c.034 0 .066.01.101.01.291-.005.586-.01.899-.01 0-1 1.723-3 3.334-3 1.61 0 1.666 1.343 1.666 3 0 .302-.057.587-.137.861 1.749.946 3.137 2.93 3.137 7.139" fill="#5c913b" transform="translate(37 12)"/><path d="m0 0c0-.828.671-1.5 1.5-1.5.829 0 1.5.672 1.5 1.5 0 .829-.671 0-1.5 0-.829 0-1.5.829-1.5 0" fill="#292f33" transform="translate(11 18.877)"/><use transform="translate(27 13)" xlink:href="#1"/><use transform="translate(23 13)" xlink:href="#1"/><use transform="translate(19 13)" xlink:href="#1"/><use transform="translate(21 11)" xlink:href="#1"/><use transform="translate(25 11)" xlink:href="#1"/><g fill="#fff"><path d="m0 0c-.389 0-1 1-1 1h2c0 0-.611-1-1-1" transform="translate(7 15)"/><path d="m0 0c-.389 0-1 1.469-1 1.469h2c0 0-.611-1.469-1-1.469" transform="translate(5 14.531)"/><path d="m0 0c-.389 0-1 2-1 2h2c0 0-.611-2-1-2" transform="translate(3 14)"/></g></g></g></svg>