<svg xmlns="http://www.w3.org/2000/svg" viewBox="0 0 47.5 47.5" enable-background="new 0 0 47.5 47.5"><defs><clipPath id="0"><path d="m0 38h38v-38h-38v38"/></clipPath></defs><g transform="matrix(1.25 0 0-1.25 0 47.5)"><g clip-path="url(#0)"><path d="m0 0c0-2.209-1.791-4-4-4h-28c-2.209 0-4 1.791-4 4v28c0 2.209 1.791 4 4 4h28c2.209 0 4-1.791 4-4v-28" fill="#3b88c3" transform="translate(37 5)"/><g fill="#fff"><path d="m0 0c1.425 0 2.109 1.444 2.109 2.755 0 1.311-.665 2.792-2.109 2.792-1.501 0-2.166-1.481-2.166-2.792 0-1.311.684-2.755 2.166-2.755m4.844-.607c0-.704 0-1.786-1.31-1.786-.799 0-1.121.436-1.311 1.159-.703-.836-1.558-1.274-2.603-1.274-2.565 0-4.521 2.186-4.521 5.263 0 3 2.01 5.3 4.521 5.3 1.01 0 1.995-.399 2.603-1.254.076.665.646 1.14 1.311 1.14 1.31 0 1.31-1.083 1.31-1.786v-6.762z" transform="translate(8.977 15.279)"/><path d="m0 0c1.425 0 2.128 1.482 2.128 2.755 0 1.292-.703 2.792-2.128 2.792-1.463 0-2.146-1.367-2.146-2.697 0-1.33.645-2.85 2.146-2.85m-4.882 10.829c0 .912.57 1.52 1.367 1.52.798 0 1.369-.608 1.369-1.52v-3.724c.721.627 1.652.95 2.602.95 2.944 0 4.407-2.754 4.407-5.414 0-2.584-1.747-5.149-4.503-5.149-.93 0-1.994.418-2.506 1.254-.171-.722-.608-1.139-1.369-1.139-.797 0-1.367.608-1.367 1.52v11.702z" transform="translate(20.263 15.279)"/><path d="m0 0c-.684 0-1.292.532-2.165.532-1.559 0-2.299-1.387-2.299-2.793 0-1.348.817-2.755 2.299-2.755.684 0 1.709.571 2.032.571.647 0 1.178-.551 1.178-1.198 0-1.405-2.356-1.88-3.344-1.88-2.944 0-4.901 2.413-4.901 5.262 0 2.774 2.01 5.301 4.901 5.301 1.083 0 3.344-.399 3.344-1.729 0-.57-.399-1.311-1.045-1.311" transform="translate(33.09 20.295)"/></g></g></g></svg>