<svg xmlns="http://www.w3.org/2000/svg" viewBox="0 0 47.5 47.5" enable-background="new 0 0 47.5 47.5"><defs><clipPath id="0"><path d="m0 38h38v-38h-38v38"/></clipPath></defs><g transform="matrix(1.25 0 0-1.25 0 47.5)"><g clip-path="url(#0)" fill="#bb1a34"><path d="m0 0c-.617 0-.953.256-1.127.471-.171.211-.348.585-.225 1.165l2.728 12.706-1.714-.097h-.013c-.516 0-.892.167-1.127.458-.219.272-.298.621-.221.981.151.701.883 1.285 1.668 1.329l4.01.227c.077.005.149.008.216.008.147 0 .536 0 .784-.307.252-.312.166-.709.138-.839l-3.124-14.556c-.187-.884-.919-1.489-1.866-1.542l-.125-.004" transform="translate(2.728 16)"/><path d="m0 0l-.137-.004c-1.94-.111-3.555-2.304-4.32-5.866-.477-2.228-.38-3.899.273-4.707.297-.368.717-.554 1.249-.554l.14.004c1.94.109 3.554 2.301 4.318 5.863.479 2.229.383 3.901-.27 4.708-.297.369-.719.556-1.253.556m-3.414-13.746c-1.439 0-2.635.539-3.459 1.559-1.163 1.438-1.467 3.651-.878 6.396 1.032 4.812 4.208 8.187 7.902 8.395 1.59.09 2.906-.452 3.793-1.549 1.163-1.439 1.467-3.651.878-6.397-1.032-4.81-4.209-8.184-7.904-8.394-.112-.007-.223-.01-.332-.01" transform="translate(16.885 31.746)"/><path d="m0 0l-.136-.004c-1.94-.111-3.555-2.304-4.32-5.865-.478-2.228-.381-3.901.272-4.708.297-.368.719-.555 1.251-.555l.14.004c1.939.109 3.554 2.301 4.318 5.864.48 2.227.383 3.899-.269 4.707-.299.37-.721.557-1.256.557m-3.411-13.748c-1.44 0-2.637.54-3.462 1.561-1.163 1.439-1.467 3.651-.878 6.396 1.033 4.813 4.209 8.187 7.903 8.395 1.603.09 2.904-.453 3.79-1.549 1.163-1.44 1.467-3.652.878-6.397-1.031-4.809-4.206-8.183-7.902-8.396-.111-.008-.221-.01-.329-.01" transform="translate(31.887 33.386)"/><path d="m0 0c-.81 0-1.572.496-1.873 1.299-.388 1.034.136 2.186 1.17 2.575.338.126 8.4 3.108 20.536 4.12 1.102.096 2.068-.726 2.16-1.827.091-1.101-.727-2.067-1.827-2.159-11.59-.966-19.387-3.851-19.464-3.88-.231-.086-.469-.128-.702-.128" transform="translate(12 1.999)"/><path d="m0 0c-.804 0-1.562.488-1.868 1.283-.396 1.031.118 2.188 1.149 2.583.542.209 13.515 5.126 32.612 6.131 1.113.069 2.045-.789 2.103-1.892.058-1.103-.789-2.044-1.892-2.102-18.423-.97-31.26-5.821-31.389-5.87-.235-.09-.477-.133-.715-.133" transform="translate(3 8)"/></g></g></svg>