<svg xmlns="http://www.w3.org/2000/svg" viewBox="0 0 47.5 47.5" enable-background="new 0 0 47.5 47.5"><defs><clipPath id="0"><path d="m0 38h38v-38h-38v38"/></clipPath></defs><g transform="matrix(1.25 0 0-1.25 0 47.5)"><g clip-path="url(#0)"><path d="m0 0c-1-6-5-8-6-13-1.606-8.03-6.267-9-11-9-7.75 0-3.856 7.568-7 17-3 9-2.716 15.899 7 18 9.25 2 18.634-3.194 17-13" fill="#d99e82" transform="translate(32 23)"/><g fill="#c1694f"><path d="m0 0c-.19 0-.383.055-.554.168-.46.307-.584.927-.277 1.387.491.737.968 1.34 1.429 1.923 1.395 1.766 2.403 3.042 2.403 6.522 0 2.21-.782 3.975-2.323 5.246-2.194 1.806-5.827 2.485-9.486 1.773-1.861-.363-3.193-1.215-4.074-2.604-2.061-3.254-.827-8.244-.814-8.294.135-.535-.188-1.079-.723-1.215-.538-.139-1.08.188-1.216.723-.06.238-1.453 5.883 1.064 9.856 1.174 1.853 2.984 3.03 5.381 3.496 4.227.826 8.496-.014 11.139-2.192 1.996-1.644 3.052-3.992 3.052-6.789 0-4.175-1.377-5.917-2.835-7.763-.436-.551-.887-1.122-1.333-1.792-.192-.289-.51-.445-.833-.445" transform="translate(24.999 15)"/><path d="m0 0c-.367 0-.72.202-.896.553-.551 1.102-.367 1.995-.115 2.549.545 1.202 1.916 1.935 2.924 2.199 1.997.668 2.975 3.34 2.442 5.181-.571 1.974-2.651 2.673-5.7 1.922-.53-.134-1.078.195-1.21.732-.133.536.195 1.078.731 1.21 4.914 1.214 7.407-.914 8.1-3.308.798-2.755-.564-6.577-3.794-7.653-.588-.156-1.434-.585-1.672-1.11-.068-.149-.132-.396.084-.828.247-.494.046-1.094-.448-1.342-.143-.071-.296-.105-.446-.105" transform="translate(12.585 10.08)"/></g></g></g></svg>