<svg xmlns="http://www.w3.org/2000/svg" viewBox="0 0 47.5 47.5" enable-background="new 0 0 47.5 47.5"><defs><clipPath id="0"><path d="m0 38h38v-38h-38v38"/></clipPath></defs><g transform="matrix(1.25 0 0-1.25 0 47.5)"><g clip-path="url(#0)"><path d="m0 0c-1.185 0-2.237.846-2.457 2.053l-4 22c-.247 1.358.654 2.66 2.01 2.906 1.358.252 2.66-.653 2.907-2.01l4-22c.247-1.358-.654-2.66-2.01-2.907-.151-.027-.302-.04-.45-.04" fill="#c1694f" transform="translate(25.997 8.5)"/><path d="m0 0c.239.745.13 1.591-.375 2.265-.059.078-.439.585-1.017 1.339.005.052.017.113.017.161 0 .458-1.913 2.623-3.74 4.586-1.587 1.964-3.261 3.95-4.492 5.181l-1.274 1.275-1.612-.807c-5.718-2.858-8.647-3.855-8.673-3.864-1.31-.436-2.02-1.852-1.581-3.162.437-1.31 1.852-2.01 3.163-1.581.117.039 2.666.899 7.649 3.31 1.095-1.23 2.378-2.795 3.575-4.296l.704-1.174c.169-.282.145-.638-.061-.895l-3.513-4.392c-.095-.119-.222-.207-.365-.255l-2.531-.843c-.162-.054-.336-.054-.498 0l-4.729 1.576c-.676 2.082-.533 4.102-.531 4.124.119 1.376-.899 2.588-2.275 2.707-1.372.128-2.587-.898-2.707-2.274-.022-.26-.51-6.423 3.313-10.593 2.208-2.409 5.296-3.63 9.178-3.63.66 0 1.283-.009 1.871-.018.529-.008 1.042-.015 1.537-.015 2.764 0 5 .231 6.738 1.941 1.65 1.626 2.354 4.195 2.354 8.592 0 .261-.051.506-.125.742" fill="#d99e82" transform="translate(29.375 12.235)"/><path d="m0 0c-.384 0-.749.221-.915.594l-4 9c-.224.505.003 1.095.508 1.32.506.226 1.095-.003 1.32-.508l4-9c.224-.505-.003-1.095-.508-1.32-.132-.059-.269-.086-.405-.086" fill="#c1694f" transform="translate(28 16)"/><path d="m0 0l-1.531 4.76c0 0-.067-.011-.175-.067.018.009 1.821.995 2.461 6 .775 6.075-.775 9.6-.79 9.635l-.093.231-3.5 10.1c-.452 1.304.239 2.728 1.544 3.18 1.303.451 2.729-.24 3.181-1.544l3.468-10.01c.377-.887 2.036-5.286 1.149-12.227-1.042-8.163-4.943-9.815-5.714-10.06" fill="#d99e82" transform="translate(25.766 2.62)"/></g></g></svg>