<svg xmlns="http://www.w3.org/2000/svg" viewBox="0 0 47.5 47.5" enable-background="new 0 0 47.5 47.5"><defs><clipPath id="0"><path d="m0 38h38v-38h-38v38"/></clipPath></defs><g transform="matrix(1.25 0 0-1.25 0 47.5)"><path d="m26 12h-14v15h14v-15" fill="#edbb9f"/><g clip-path="url(#0)"><path d="m0 0v-16c0-1.104.896-2 2-2h30c1.104 0 2 .896 2 2v16h-34" fill="#be1931" transform="translate(2 19)"/><path d="m36 20h-34v3h34v-3" fill="#ffe8b6"/><path d="m36 19h-34v2h34v-2" fill="#c1694f"/><path d="m0 0c-1.657 0-3-1.343-3-3v-6h6v6c0 1.657-1.343 3-3 3" fill="#d1d3d4" transform="translate(19 10)"/><g fill="#a7a9ac"><path d="m0 0c-1.656 0-3-1.343-3-3v-4h6v4c0 1.657-1.343 3-3 3" transform="translate(29 10)"/><path d="m0 0c-1.657 0-3-1.343-3-3v-4h6v4c0 1.657-1.343 3-3 3" transform="translate(9 10)"/><path d="m11 13h-4v4h4v-4"/><path d="m21 13h-4v4h4v-4"/><path d="m31 13h-4v4h4v-4"/></g><path d="m0 0c0-2.209-1.792-4-4-4-2.209 0-4 1.791-4 4 0 2.209 1.791 4 4 4 2.208 0 4-1.791 4-4" fill="#d99e82" transform="translate(23 33)"/><path d="m23 29h-8v4h8v-4" fill="#edbb9f"/><g fill="#d99e82"><path d="m0 0h-30c-1.104 0-2-.896-2-2h34c0 1.104-.896 2-2 2" transform="translate(34 25)"/><path d="m0 0h-10c-1.104 0-2-.896-2-2h14c0 1.104-.896 2-2 2" transform="translate(24 29)"/></g></g></g></svg>