<svg xmlns="http://www.w3.org/2000/svg" viewBox="0 0 47.5 47.5" enable-background="new 0 0 47.5 47.5"><defs><clipPath id="3"><path d="m21.27 28.657l-10.211-4.01.001-.001c-1.794-.704-3.06-2.409-3.06-4.402 0-2.623 2.192-4.75 4.895-4.75 6.145 0 12.417 4.182 12.417 4.182 2.345 1.46 3.345 3.924 2.331 6.356-.77 1.849-2.604 2.97-4.54 2.97-.611 0-1.232-.111-1.833-.347"/></clipPath><clipPath id="4"><path d="m14.14 33.02c-.809-.328-1.379-1.12-1.379-2.045 0-1.219.987-2.206 2.206-2.206 2.769 0 5.597 1.942 5.597 1.942 1.055.678 2.142 1.874 2.142 1.874 0 0 .749 1.666-1.625 1.666-3.562 0-6.941-1.231-6.941-1.231"/></clipPath><clipPath id="2"><path d="m20.594 32.425l-7.874-2.939v-.002c-1.384-.517-2.36-1.768-2.36-3.229 0-1.925 1.69-3.486 3.774-3.486 4.74 0 9.575 3.069 9.575 3.069 1.81 1.071 2.581 2.879 1.799 4.663-.594 1.356-2.01 2.179-3.502 2.179-.471 0-.95-.082-1.413-.255"/></clipPath><clipPath id="0"><path d="m0 38h38v-38h-38v38"/></clipPath><clipPath id="1"><path d="m18.18 14h-7.364c0 0 1.353-6.5 2.351-9.752.999-3.253 4.604-3.248 5.422-3.248 1.636 0 4.425-.005 5.423 3.248.996 3.252 3.169 9.752 3.169 9.752h-9"/></clipPath></defs><g transform="matrix(1.25 0 0-1.25 0 47.5)"><g clip-path="url(#0)" fill="#ffcc4d"><path d="m0 0c0-1.657-4.03-3-9-3-4.97 0-9 1.343-9 3 0 1.657 4.03 3 9 3 4.97 0 9-1.343 9-3" transform="translate(28 17)"/><path d="m0 0h-7.363c0 0 1.352-6.5 2.35-9.752.999-3.254 4.605-3.248 5.423-3.248 1.635 0 4.424-.006 5.422 3.248.996 3.252 3.169 9.752 3.169 9.752h-9" transform="translate(18.18 14)"/></g><g clip-path="url(#1)"><path d="m0 0c0-1.657-2.76-3.5-8.183-3.5-5.422 0-8.181 1.843-8.181 3.5 0 1.657 2.759 3 8.181 3 5.423 0 8.183-1.343 8.183-3" fill="#ffac33" transform="translate(27.18 12.5)"/></g><g clip-path="url(#0)"><path d="m0 0v-3c0-1.657 4.03-3 9-3 4.97 0 9 1.343 9 3v3h-18" fill="#ffcc4d" transform="translate(10 17)"/><path d="m0 0c0-1.381-3.664-2.5-8.183-2.5-4.519 0-8.181 1.119-8.181 2.5 0 1.381 3.662 2.5 8.181 2.5 4.519 0 8.183-1.119 8.183-2.5" fill="#f4900c" transform="translate(27.18 16.5)"/><g fill="#ffe8b6"><path d="m0 0c0 2.405-1.949 4.354-4.354 4.354-2.405 0-14.188-4.803-14.188-7.208 0-2.404 8.08-2.329 13.751-1.371 2.371.4 4.791 1.82 4.791 4.225" transform="translate(29.375 19.85)"/><path d="m0 0c-1.014 2.432-3.868 3.606-6.374 2.623l-10.21-4.01h.001c-1.794-.705-3.061-2.409-3.061-4.402 0-2.623 2.192-4.75 4.895-4.75 6.145 0 12.417 4.183 12.417 4.183 2.346 1.459 3.346 3.923 2.332 6.355" transform="translate(27.644 26.03)"/><path d="m0 0c-.781 1.784-2.982 2.646-4.915 1.924l-7.874-2.939v-.002c-1.384-.517-2.36-1.767-2.36-3.23 0-1.924 1.69-3.484 3.774-3.484 4.74 0 9.575 3.068 9.575 3.068 1.81 1.071 2.581 2.879 1.799 4.663" transform="translate(25.509 30.501)"/><path d="m0 0c0 0 .593 1.781-1.781 1.781-3.562 0-5.771-.845-5.771-.845v-.001c-.808-.327-1.379-1.119-1.379-2.044 0-1.219.988-2.206 2.206-2.206 2.769 0 5.597 1.942 5.597 1.942 1.056.678 1.128 1.373 1.128 1.373" transform="translate(21.694 32.08)"/><path d="m0 0c1.781-2.375 4.156-1.177 4.751-2.959.562-1.689-1.189-2.374-1.189-2.374h-4.749c0 0-1.782 3.552 1.187 5.333" transform="translate(17.982 36.861)"/></g></g><g clip-path="url(#2)"><path d="m0 0c3.417 0 9.708 1.125 16.5 5.833 2.103 1.458 3.667-.875 2-2.458-1.667-1.583-14.08-7.417-18.333-6.625-4.25.792-.167 3.25-.167 3.25" fill="#ffd983" transform="translate(10.167 24.621)"/></g><g clip-path="url(#3)"><path d="m0 0c1.542-.708 5.458-.583 7.958.125 2.5.708 11.25 3.542 12.542 6.667 1.292 3.125 2.833.583 2.458-1.792-.375-2.375-11.166-11.458-16.291-10.375-5.125 1.083-8.334.792-8.667 2.583-.333 1.792 2 2.792 2 2.792" fill="#ffd983" transform="translate(7.792 18.663)"/></g><g clip-path="url(#4)"><path d="m0 0c2.417-.25 10.333 2.292 10.5 4.375.167 2.083 1.625-1.75 1.125-2.417-.5-.666-9.958-5.708-13.375-3.5-3.417 2.209 1.75 1.542 1.75 1.542" fill="#ffd983" transform="translate(12.5 30.455)"/></g></g></svg>