<svg xmlns="http://www.w3.org/2000/svg" viewBox="0 0 47.5 47.5" enable-background="new 0 0 47.5 47.5"><defs><clipPath id="0"><path d="m0 38h38v-38h-38v38"/></clipPath></defs><g transform="matrix(1.25 0 0-1.25 0 47.5)"><g clip-path="url(#0)"><path d="m0 0c-.39 0-.745.218-.921.565l-1.8 3.554-3.02-2.596c-.191-.161-.43-.247-.672-.247-.133 0-.267.026-.394.078-.359.149-.606.488-.634.874l-.304 3.975-3.788-1.241c-.105-.034-.213-.051-.321-.051-.269 0-.532.106-.73.303-.274.273-.371.681-.25 1.051l1.24 3.788-3.972.301c-.388.031-.726.275-.875.633-.148.362-.083.773.17 1.068l2.594 3.02-3.553 1.8c-.348.176-.566.533-.566.921 0 .388.218.744.566.921l3.553 1.8-2.594 3.02c-.252.296-.318.708-.17 1.067.149.359.487.605.875.634l3.972.304-1.24 3.787c-.121.37-.024.776.25 1.052.198.196.461.301.73.301.108 0 .216-.017.321-.051l3.788-1.24.304 3.972c.028.388.275.726.634.875.127.052.261.078.394.078.242 0 .481-.085.672-.248l3.02-2.595 1.8 3.554c.176.347.531.566.921.566.388 0 .745-.219.92-.565l1.802-3.555 3.02 2.595c.191.163.431.248.671.248.135 0 .268-.026.396-.078.359-.149.603-.488.634-.875l.303-3.972 3.785 1.24c.106.034.215.051.321.051.27 0 .535-.105.73-.301.276-.276.373-.682.252-1.052l-1.241-3.787 3.975-.304c.386-.029.725-.275.873-.634.149-.359.084-.771-.169-1.067l-2.595-3.02 3.553-1.8c.348-.177.566-.533.566-.921 0-.388-.218-.744-.566-.921l-3.553-1.8 2.595-3.02c.253-.295.318-.706.169-1.068-.148-.358-.487-.602-.876-.633l-3.972-.301 1.241-3.788c.121-.371.024-.778-.252-1.051-.195-.197-.46-.303-.73-.303-.106 0-.215.017-.321.051l-3.785 1.241-.303-3.973c-.031-.388-.275-.727-.634-.876-.128-.052-.261-.078-.396-.078-.24 0-.48.086-.671.247l-3.02 2.596-1.802-3.554c-.175-.347-.532-.565-.92-.565" fill="#f4900c" transform="translate(19 1.2)"/><path d="m0 0c0-7.179-5.821-13-13-13-7.179 0-13 5.821-13 13 0 7.18 5.821 13 13 13 7.179 0 13-5.82 13-13" fill="#ffcc4d" transform="translate(32 19)"/><g fill="#f4900c"><path d="m0 0c-6.222 0-8 2.328-8 1.229 0-1.102 3.556-3.981 8-3.981 4.444 0 8 2.879 8 3.981 0 1.099-1.777-1.229-8-1.229" transform="translate(19 13.529)"/><path d="m0 0c0-1.473-1.194-2.667-2.667-2.667-1.472 0-2.666 1.194-2.666 2.667 0 1.473 1.194 2.667 2.666 2.667 1.473 0 2.667-1.194 2.667-2.667" transform="translate(27 22.334)"/><path d="m0 0c0-1.473-1.195-2.667-2.667-2.667-1.472 0-2.666 1.194-2.666 2.667 0 1.473 1.194 2.667 2.666 2.667 1.472 0 2.667-1.194 2.667-2.667" transform="translate(16.334 22.334)"/></g></g></g></svg>