<svg xmlns="http://www.w3.org/2000/svg" viewBox="0 0 47.5 47.5" enable-background="new 0 0 47.5 47.5"><defs><clipPath id="0"><path d="m0 38h38v-38h-38v38"/></clipPath></defs><g transform="matrix(1.25 0 0-1.25 0 47.5)"><g clip-path="url(#0)"><path d="m0 0c0-6.439-5-7.439-5-13.44 0-3.098-3.123-3.359-5.5-3.359-2.053 0-6.586.779-6.586 3.361 0 5.999-4.914 6.999-4.914 13.438 0 6.03 5.285 10.92 11.08 10.92 5.8 0 10.917-4.889 10.917-10.92" fill="#ffd983" transform="translate(30 25.94)"/><path d="m0 0c0-.828-2.234-2.5-4.167-2.5-1.933 0-4.166 1.672-4.166 2.5 0 .828 2.233.5 4.166.5 1.933 0 4.167.328 4.167-.5" fill="#ccd6dd" transform="translate(23.17 4.5)"/><path d="m0 0c-.391.391-1.023.391-1.414 0l-3.293-3.293-3.293 3.293c-.391.391-1.023.391-1.414 0-.391-.391-.391-1.023 0-1.414l3.707-3.707v-10.586c0-.553.448-1 1-1 .552 0 1 .447 1 1v10.586l3.707 3.707c.391.391.391 1.023 0 1.414" fill="#ffcc4d" transform="translate(23.707 26.707)"/><path d="m0 0c0-1.104-.896-2-2-2h-8c-1.104 0-2 .896-2 2v6h12v-6" fill="#99aab5" transform="translate(25 6)"/><g fill="#ccd6dd"><path d="m0 0c-.48 0-.904.347-.985.836-.091.544.277 1.06.821 1.15l12 2c.544.098 1.059-.277 1.15-.822.091-.544-.277-1.06-.822-1.15l-11.999-2c-.056-.01-.112-.014-.166-.014" transform="translate(12.999 5)"/><path d="m0 0c-.48 0-.904.347-.985.836-.091.544.277 1.06.821 1.15l12 2c.544.097 1.059-.277 1.15-.822.091-.544-.277-1.06-.822-1.15l-11.999-2c-.056-.01-.112-.014-.166-.014" transform="translate(12.999 9)"/></g></g></g></svg>