<svg xmlns="http://www.w3.org/2000/svg" viewBox="0 0 47.5 47.5" enable-background="new 0 0 47.5 47.5"><defs><clipPath id="0"><path d="m0 38h38v-38h-38v38"/></clipPath></defs><g transform="matrix(1.25 0 0-1.25 0 47.5)"><g clip-path="url(#0)" fill="#e75a70"><path d="m0 0c-2.223.36-7.568 3.963-11.411 2.762-3.843-1.201-3.543-2.162-5.464-2.763-1.922-.601-2.222.36-6.07-.841-3.843-1.201-6.185-7.206-7.806-8.768 0 0-1.603-1.62-1.021-3.483.582-1.861 2.523-1.32 2.523-1.32 6.725 2.102 9.01 4.925 9.01 4.925 0 0 3.482-1.021 6.364-.12 2.883.9 5.164 3.723 5.164 3.723 0 0 3.484-1.021 10.209 1.081 0 0 1.902.661 1.32 2.523-.582 1.862-2.82 2.281-2.82 2.281" transform="translate(33.2 29.21)"/><path d="m0 0c-5.764-1.801-4.562-5.644-11.288-7.747-6.726-2.101-7.927 1.741-13.691-.06-1.921-.602-2.583-1.861-2.282-2.824.901-2.881 8.407-10.03 18.976-6.723 10.568 3.303 12.67 13.452 11.768 16.333-.299.961-1.562 1.622-3.483 1.021" transform="translate(32.12 22.544)"/></g></g></svg>