<svg xmlns="http://www.w3.org/2000/svg" viewBox="0 0 47.5 47.5" enable-background="new 0 0 47.5 47.5"><defs><clipPath id="0"><path d="m0 38h38v-38h-38v38"/></clipPath><clipPath id="1"><path d="m19.918 24h-1.175-1.175-10.569c-1.175 0-3.739-.493-3.071-2.894 2.783-10.01 13.07-12.731 13.07-12.731v-1.173c0 0-4.634-2.443-5.588-3.01-1.027-.587-.267-1.526.144-1.688.684-.269 2.389-1.15 7.115-1.15 4.848 0 7.497.954 8.08 1.15.226.075 1.197.973-.199 1.799-2.483 1.47-5.556 2.899-5.556 2.899v1.173c0 0 10.661 2.725 13.357 12.906.396 1.494-1.519 2.719-3.869 2.719h-10.57"/></clipPath></defs><g transform="matrix(1.25 0 0-1.25 0 47.5)"><g clip-path="url(#0)"><path d="m0 0c0 0 10.661 2.725 13.356 12.905.397 1.495-1.518 2.72-3.868 2.72h-10.571-1.174-1.175-10.568c-1.176 0-3.74-.493-3.072-2.895 2.783-10.01 13.07-12.73 13.07-12.73v-1.173c0 0-4.634-2.443-5.588-3.01-1.027-.588-.267-1.526.144-1.688.684-.27 2.389-1.15 7.115-1.15 4.848 0 7.497.954 8.08 1.15.226.075 1.197.973-.198 1.799-2.484 1.469-5.557 2.899-5.557 2.899v1.173" fill="#55acee" transform="translate(21 8.375)"/><path d="m0 0c0-1.692-6.835-3.063-15.269-3.063-8.432 0-15.268 1.371-15.268 3.063 0 1.693 6.836 3.064 15.268 3.064 8.434 0 15.269-1.371 15.269-3.064" fill="#3b88c3" transform="translate(34.29 21.752)"/><path d="m0 0c0-1.613-3.133-4.745-7.832-4.745-4.325 0-7.831 2.088-7.831 4.745 0 4.325 3.506 6.787 7.831 6.787 4.326 0 7.832-2.462 7.832-6.787" fill="#f4abba" transform="translate(26.982 30.09)"/><path d="m0 0c0-1.613-3.132-4.223-7.83-4.223-4.326 0-7.833-1.393-7.833 4.223 0 4.325 3.507 7.831 7.833 7.831 4.325 0 7.83-3.506 7.83-7.831" fill="#ffe8b6" transform="translate(34.29 22.783)"/><path d="m0 0c0-5.182-3.132-4.311-7.831-4.311-4.324 0-7.83 1.654-7.83 4.311 0 4.325 3.506 7.831 7.83 7.831 4.325 0 7.831-3.506 7.831-7.831" fill="#8a4b38" transform="translate(19.672 22.783)"/></g><g clip-path="url(#1)"><path d="m0 0c1.915-.609 16.185-5.264 31.28.522.087-.826-.219-3.742-1.436-3.959-1.218-.216-14.232-4.496-28.762.202-.392.435-1.083 3.235-1.083 3.235" fill="#3b88c3" transform="translate(3.75 19.777)"/></g><g clip-path="url(#0)"><path d="m0 0c1.396-.6 15.488-5.05 30.498-.087 0-.653-.411-2.477-.653-3.176-.391-1.132-15.401-4.829-28.888-.261-.392.174-1.566 3.785-.957 3.524" fill="#55acee" transform="translate(3.837 21.823)"/></g></g></svg>