<svg xmlns="http://www.w3.org/2000/svg" viewBox="0 0 47.5 47.5" enable-background="new 0 0 47.5 47.5"><defs><clipPath id="0"><path d="m0 38h38v-38h-38v38"/></clipPath></defs><g transform="matrix(1.25 0 0-1.25 0 47.5)"><g fill="#3b88c3"><path d="m0 0h3l5-2.808 5-23.307-9-.885-6 16.423" transform="translate(23 37)"/><path d="m0 0h-3l-5-2.808-5-23.307 9-.885 6 16.423" transform="translate(15 37)"/><path d="m12 1h14v31h-14v-31"/></g><path d="m0 0l-6.985-5.239h2l5.094 5.094-.109.145" fill="#269" transform="translate(18.985 28.24)"/><g clip-path="url(#0)"><path d="m0 0c0 0-1.167-1-7-1-5.833 0-7 1-7 1v6h14v-6" fill="#88c9f9" transform="translate(26 17)"/><g fill="#fff"><path d="m0 0c0 0-1.167-1-7-1-5.833 0-7 1-7 1v2h7 7v-2" transform="translate(26 19)"/><path d="m0 0l-7-9-7 9h14" transform="translate(26 37)"/></g><path d="m0 0l-2.333-3-2.333 3h4.666" fill="#99aab5" transform="translate(21.333 37)"/><g fill="#269"><path d="m0 0v21l2-23-2 2" transform="translate(26 12)"/><path d="m0 0v21l-2-23 2 2" transform="translate(12 12)"/></g></g></g></svg>