<svg xmlns="http://www.w3.org/2000/svg" viewBox="0 0 47.5 47.5" enable-background="new 0 0 47.5 47.5" xmlns:xlink="http://www.w3.org/1999/xlink"><defs><path id="2" d="m0 0l-18-18h5l18 18h-5" fill="#292f33"/><clipPath id="0"><path d="m0 38h38v-38h-38v38"/></clipPath><clipPath id="1"><path d="m9 34h-4c-2.209 0-4-1.791-4-4v-8c0-2.209 1.791-4 4-4h28c2.209 0 4 1.791 4 4v8c0 2.209-1.791 4-4 4h-24"/></clipPath></defs><g transform="matrix(1.25 0 0-1.25 0 47.5)"><g clip-path="url(#0)"><path d="m0 0c0-2.209-1.791-4-4-4h-28c-2.209 0-4 1.791-4 4v8c0 2.209 1.791 4 4 4h4 24c2.209 0 4-1.791 4-4v-8" fill="#ffcc4d" transform="translate(37 22)"/></g><g clip-path="url(#1)"><use transform="translate(3 35)" xlink:href="#2"/><use transform="translate(14 35)" xlink:href="#2"/><use transform="translate(25 35)" xlink:href="#2"/><use transform="translate(36 35)" xlink:href="#2"/><use transform="translate(47 35)" xlink:href="#2"/></g><g clip-path="url(#0)" fill="#99aab5"><path d="m10 4h-5v14h5v-14"/><path d="m33 4h-5v14h5v-14"/></g></g></svg>