<svg xmlns="http://www.w3.org/2000/svg" viewBox="0 0 47.5 47.5" enable-background="new 0 0 47.5 47.5"><defs><clipPath id="0"><path d="m0 38h38v-38h-38v38"/></clipPath></defs><g transform="matrix(1.25 0 0-1.25 0 47.5)"><g clip-path="url(#0)"><path d="m0 0c0-2.209-1.791-4-4-4h-28c-2.209 0-4 1.791-4 4v28c0 2.209 1.791 4 4 4h28c2.209 0 4-1.791 4-4v-28" fill="#3b88c3" transform="translate(37 5)"/><g fill="#fff"><path d="m0 0c0 1.05.672 1.638 1.575 1.638.903 0 1.574-.588 1.574-1.638v-7.328c0-1.932 1.239-3.464 3.234-3.464 1.91 0 3.212 1.616 3.212 3.464v7.328c0 1.05.672 1.638 1.575 1.638.903 0 1.575-.588 1.575-1.638v-7.496c0-3.527-2.898-6.193-6.362-6.193-3.507 0-6.383 2.625-6.383 6.193v7.496" transform="translate(3.281 25.438)"/><path d="m0 0h2.142c1.323 0 2.163.966 2.163 2.226 0 1.259-.84 2.225-2.163 2.225h-2.142v-4.451m-3.149 5.585c0 .987.587 1.638 1.637 1.638h3.717c3.086 0 5.375-2.02 5.375-5.02 0-3.066-2.373-4.976-5.25-4.976h-2.33v-3.444c0-1.05-.672-1.638-1.575-1.638-.903 0-1.574.588-1.574 1.638v11.8z" transform="translate(20.941 19.727)"/><path d="m0 0c0 .882.65 1.428 1.512 1.428.84 0 1.511-.567 1.511-1.428v-8.08c0-.86-.671-1.428-1.511-1.428-.862 0-1.512.547-1.512 1.428v8.08m-.127-12.388c0 .904.736 1.638 1.639 1.638.902 0 1.636-.734 1.636-1.638 0-.903-.734-1.637-1.636-1.637-.903 0-1.639.734-1.639 1.637" transform="translate(30.518 25.773)"/></g></g></g></svg>