<svg xmlns="http://www.w3.org/2000/svg" viewBox="0 0 47.5 47.5" enable-background="new 0 0 47.5 47.5"><defs><clipPath id="0"><path d="m0 38h38v-38h-38v38"/></clipPath></defs><g transform="matrix(1.25 0 0-1.25 0 47.5)"><g clip-path="url(#0)"><path d="m0 0c0-9.389-7.611-17-17-17-9.388 0-17 7.611-17 17 0 9.388 7.612 17 17 17 9.389 0 17-7.612 17-17" fill="#ffcc4d" transform="translate(36 19)"/><g fill="#664500"><path d="m0 0h-14c-.552 0-1 .447-1 1 0 .553.448 1 1 1h14c.553 0 1-.447 1-1 0-.553-.447-1-1-1" transform="translate(26 11)"/><path d="m0 0h-7c-.552 0-1 .448-1 1 0 .552.448 1 1 1h7c.552 0 1-.448 1-1 0-.552-.448-1-1-1" transform="translate(16 19)"/><path d="m0 0h-7c-.553 0-1 .448-1 1 0 .552.447 1 1 1h7c.553 0 1-.448 1-1 0-.552-.447-1-1-1" transform="translate(29 19)"/></g></g></g></svg>