<svg xmlns="http://www.w3.org/2000/svg" viewBox="0 0 47.5 47.5" enable-background="new 0 0 47.5 47.5"><defs><clipPath id="0"><path d="m5 37c-2.209 0-4-1.791-4-4v-28c0-2.209 1.791-4 4-4h28c2.209 0 4 1.791 4 4v28c0 2.209-1.791 4-4 4h-28"/></clipPath></defs><g transform="matrix(1.25 0 0-1.25 0 47.5)"><g clip-path="url(#0)"><path d="m38 0h-38v38h38v-38" fill="#f4900c"/><g fill="#485359"><path d="m0 0v29l4 4h2l4-4v-29h-10" transform="translate(11 1)"/><path d="m0 0c0 1-1 1-1 1h-7c0 0-1 0-1-1v-25h9v25" transform="translate(34 26)"/></g><g fill="#292f33"><path d="m0 0c0 1-1 1-1 1h-8c-1 0-1-1-1-1v-19h10v19" transform="translate(29 20)"/><path d="m0 0c0 0 0 1-1 1h-5v-23h6v22" transform="translate(7 23)"/><path d="m0 0c0 0 0 1-1 1h-6c0 0-1 .001-1-1v-16h8v16" transform="translate(13 17)"/><path d="m0 0c0 0 0 1 1 1h4v-11h-5v10" transform="translate(32 11)"/></g><g fill="#ffcc4d"><path d="m11 6h-2v2h2v-2"/><path d="m11 14h-2v2h2v-2"/><path d="m9 10h-2v2h2v-2"/><path d="m19 26h-2v2h2v-2"/><path d="m19 22h-2v2h2v-2"/><path d="m17 18h-2v2h2v-2"/><path d="m27 17h-2v2h2v-2"/><path d="m25 13h-2v2h2v-2"/><path d="m23 7h-2v2h2v-2"/><path d="m32 23h-2v2h2v-2"/><path d="m32 19h-2v2h2v-2"/></g></g></g></svg>