<svg xmlns="http://www.w3.org/2000/svg" viewBox="0 0 47.5 47.5" enable-background="new 0 0 47.5 47.5"><defs><clipPath id="0"><path d="m0 38h38v-38h-38v38"/></clipPath></defs><g transform="matrix(1.25 0 0-1.25 0 47.5)"><g clip-path="url(#0)"><path d="m0 0c0-2.209-1.791-4-4-4h-28c-2.209 0-4 1.791-4 4v28c0 2.209 1.791 4 4 4h28c2.209 0 4-1.791 4-4v-28" fill="#aa8ed6" transform="translate(37 5)"/><path d="m0 0c0 4.231-3.43 7.661-7.66 7.661-2.568 0-4.834-1.268-6.225-3.206-1.39 1.938-3.657 3.206-6.224 3.206-4.231 0-7.661-3.43-7.661-7.661 0-.6.077-1.18.207-1.74 1.063-6.609 8.412-13.581 13.678-15.496 5.266 1.915 12.614 8.887 13.678 15.496.131.56.207 1.14.207 1.74" fill="#f5f8fa" transform="translate(32.885 23.24)"/></g></g></svg>