<svg xmlns="http://www.w3.org/2000/svg" viewBox="0 0 47.5 47.5" enable-background="new 0 0 47.5 47.5"><defs><clipPath id="0"><path d="m0 38h38v-38h-38v38"/></clipPath></defs><g transform="matrix(1.25 0 0-1.25 0 47.5)"><g clip-path="url(#0)"><path d="m0 0c-1.082-.719-2.047-1.559-2.88-2.422-.127 4.245-1.147 9.735-6.772 12.423-1.113 6.05-14.09 2.978-12.931 2.391 2.314-1.171 3.545-4.148 5.03-5.715 2.653-2.792 5.603-2.964 7.07-.779 3.468-2.254 3.697-6.529 3.59-11.1-.011-.505-.022-.976-.022-1.403v-8-6c0-1.104 4-1.104 4 0v6 5.491c.542.954 2.122 3.505 4.43 5.294 1.585-1.393 4.141-.949 6.462 1.495 1.49 1.567 2.293 4.544 4.608 5.715 1.221.617-12.801 3.994-12.589-3.392" fill="#77b255" transform="translate(23.911 22.603)"/></g></g></svg>