<svg xmlns="http://www.w3.org/2000/svg" viewBox="0 0 47.5 47.5" enable-background="new 0 0 47.5 47.5"><defs><clipPath id="0"><path d="m0 38h38v-38h-38v38"/></clipPath><clipPath id="1"><path d="m12 30v-14c0 0 0-2 2-2h10c0 0 2 0 2 2v14h-14"/></clipPath></defs><g transform="matrix(1.25 0 0-1.25 0 47.5)"><g clip-path="url(#0)"><path d="m0 0c0-2.209-1.791-4-4-4h-18c-2.209 0-4 1.791-4 4v21c0 2.209 1.791 4 4 4h18c2.209 0 4-1.791 4-4v-21" fill="#dd2e44" transform="translate(32 12)"/><path d="m0 0v4c0 0 0 2 2 2h18c0 0 2 0 2-2v-4h-22" fill="#a0041e" transform="translate(8 27)"/><path d="m0 0h-18c0 0-2 0-2 2v3h22v-3c0-2-2-2-2-2" fill="#292f33" transform="translate(28 25)"/><path d="m0 0v-14c0 0 0-2 2-2h10c0 0 2 0 2 2v14h-14" fill="#e1e8ed" transform="translate(12 30)"/></g><g clip-path="url(#1)"><path d="m0 0l-9 11 6 6h-11v-17h14" fill="#ccd6dd" transform="translate(25 13)"/><path d="m0 0c0 0-7 9-8 10-1 1 0 2 0 2l6 6 1-1-6-6 8-10-1-1" fill="#66757f" transform="translate(24 13)"/></g><g clip-path="url(#0)"><path d="m24 8h-9v-7h9v7" fill="#66757f"/></g></g></svg>