<svg xmlns="http://www.w3.org/2000/svg" viewBox="0 0 47.5 47.5" enable-background="new 0 0 47.5 47.5"><defs><clipPath id="0"><path d="m0 38h38v-38h-38v38"/></clipPath></defs><g transform="matrix(1.25 0 0-1.25 0 47.5)"><g clip-path="url(#0)"><path d="m0 0c0-2.209 1.791-4 4-4h24c2.209 0 4 1.791 4 4v17c0 2.209-1.791 4-4 4h-9c-3.562 0-3 5-8.437 5h-6.563c-2.209 0-4-1.791-4-4v-22" fill="#269" transform="translate(1 8)"/><path d="m0 0h-6.562c-5.438 0-4.876-5-8.438-5h-9c-2.209 0-4-1.791-4-4v-10c0-.553-.448-1-1-1-.552 0-1 .447-1 1 0-2.209 1.791-4 4-4h26c2.209 0 4 1.791 4 4v15c0 2.209-1.791 4-4 4" fill="#55acee" transform="translate(31 27)"/></g></g></svg>