<svg xmlns="http://www.w3.org/2000/svg" viewBox="0 0 47.5 47.5" enable-background="new 0 0 47.5 47.5" xmlns:xlink="http://www.w3.org/1999/xlink"><defs><clipPath id="0"><path d="m0 38h38v-38h-38v38"/></clipPath></defs><g transform="matrix(1.25 0 0-1.25 0 47.5)"><g clip-path="url(#0)"><path d="m0 0c0-1.104-.896-2-2-2h-3c-1.104 0-2 .896-2 2v8c0 1.104.896 2 2 2h3c1.104 0 2-.896 2-2v-8" fill="#292f33" transform="translate(35 4)" id="1"/><use transform="translate(-25)" xlink:href="#1"/><path d="m0 0c4 1 14 1 18 0 3.881-.97 5-11 5-11 0 0 2 0 2-4v-8c0 0 .123-4-4-4h-24c-4.123 0-4 4-4 4v8c0 0 0 4 2 4 0 0 1.12 10.03 5 11" fill="#ffcc4d" transform="translate(10 32)"/><path d="m0 0c3.905 0 8.623-.2 12-.562l-1 5.562c-1 3-7 3-11 3s-10 0-11-3l-1-5.562c3.377.362 8.095.562 12 .562" fill="#55acee" transform="translate(19 22)"/><g fill="#ffcc4d"><path d="m0 0c0-.829-.671-1.5-1.5-1.5h-2c-.829 0-1.5.671-1.5 1.5 0 .829.671 1.5 1.5 1.5h2c.829 0 1.5-.671 1.5-1.5" transform="translate(6 21.5)"/><path d="m0 0c0-.829.672-1.5 1.5-1.5h2c.828 0 1.5.671 1.5 1.5 0 .829-.672 1.5-1.5 1.5h-2c-.828 0-1.5-.671-1.5-1.5" transform="translate(32 21.5)"/><path d="m0 0c0-1.657-1.343-3-3-3h-1c-1.657 0-3 1.343-3 3 0 1.657 1.343 3 3 3h1c1.657 0 3-1.343 3-3" transform="translate(12 14)"/><path d="m0 0c0-1.657-1.344-3-3-3h-1c-1.656 0-3 1.343-3 3 0 1.657 1.344 3 3 3h1c1.656 0 3-1.343 3-3" transform="translate(33 14)"/></g><path d="m0 0h-14c-2.456 0-4.486 3.336-4.868 4-.274.479-.108 1.09.371 1.364.478.275 1.09.108 1.365-.37.694-1.209 2.169-2.998 3.132-2.998h14c.983 0 2.46 1.655 3.148 2.773.29.471.904.618 1.376.328.47-.289.617-.905.328-1.375-.235-.382-2.365-3.726-4.852-3.726" fill="#ffac33" transform="translate(26 15)"/><g fill="#f4900c"><path d="m7 9h-4v4h4v-4"/><path d="m35 9h-4v4h4v-4"/></g><g fill="#fff"><path d="m0 0c0-1.104-.896-2-2-2h-2c-1.104 0-2 .896-2 2 0 1.104.896 2 2 2h2c1.104 0 2-.896 2-2" transform="translate(11 11)"/><path d="m0 0c0 1.104-.896 2-2 2h-2c-1.104 0-2-.896-2-2 0-1.104.896-2 2-2h2c1.104 0 2 .896 2 2" transform="translate(33 11)"/></g><path d="m0 0c0-1.104-.896-2-2-2h-10c-1.104 0-2 .896-2 2 0 1.104.896 2 2 2h10c1.104 0 2-.896 2-2" fill="#66757f" transform="translate(26 11)"/><path d="m0 0h-8c-1.657 0-3-1.343-3-3h14c0 1.657-1.343 3-3 3" fill="#ffe8b6" transform="translate(23 35)"/><path d="m23 32h-8v2h8v-2" fill="#ccd6dd"/><path d="m21 32h-4v1h4v-1" fill="#99aab5"/></g></g></svg>