<svg xmlns="http://www.w3.org/2000/svg" viewBox="0 0 47.5 47.5" enable-background="new 0 0 47.5 47.5"><defs><clipPath id="0"><path d="m0 38h38v-38h-38v38"/></clipPath></defs><g transform="matrix(1.25 0 0-1.25 0 47.5)"><g clip-path="url(#0)"><path d="m0 0c0-9.389-7.611-17-17-17-9.388 0-17 7.611-17 17 0 9.388 7.612 17 17 17 9.389 0 17-7.612 17-17" fill="#ffcc4d" transform="translate(36 19)"/><g fill="#664500"><path d="m0 0c0-1.657-1.343-3-3-3-1.657 0-3 1.343-3 3 0 1.656 1.343 3 3 3 1.657 0 3-1.344 3-3" transform="translate(22 11)"/><path d="m0 0c-.176.143-.427.147-.61.014-.013-.01-1.261-.902-3.702-.902-2.441 0-3.69.892-3.701.9-.182.136-.434.133-.611-.009-.178-.142-.238-.386-.146-.594.061-.135 1.5-3.297 4.458-3.297 2.958 0 4.397 3.162 4.457 3.297.091.207.031.449-.145.591" transform="translate(18.313 20.388)"/><path d="m0 0c-.176.143-.426.148-.61.014-.012-.01-1.261-.902-3.702-.902-2.441 0-3.691.892-3.701.9-.182.136-.433.133-.611-.009-.178-.142-.238-.386-.146-.594.06-.135 1.5-3.297 4.458-3.297 2.958 0 4.397 3.162 4.457 3.297.091.207.032.449-.145.591" transform="translate(28.313 20.388)"/></g><g fill="#2a6797"><path d="m0 0h-2c-.432 0-.78.276-.78.756 0 .479.348.755.78.755h3.922c.156 0 .563-.071.563-.539 0-.228-.047-.336-.179-.516l-2.723-3.814h2.279c.432 0 .779-.276.779-.756 0-.479-.347-.755-.779-.755h-4.02c-.384 0-.708.192-.708.588 0 .192.096.371.156.468l2.711 3.813" transform="translate(16.999 31.869)"/><path d="m0 0h-2.34c-.504 0-.91.322-.91.882 0 .561.406.883.91.883h4.58c.184 0 .66-.084.66-.63 0-.266-.056-.392-.211-.603l-3.179-4.454h2.662c.504 0 .91-.322.91-.883 0-.56-.406-.882-.91-.882h-4.693c-.449 0-.827.224-.827.687 0 .224.112.434.182.545l3.166 4.455" transform="translate(24.502 34.687)"/><path d="m0 0h-3.01c-.648 0-1.17.414-1.17 1.134 0 .72.522 1.135 1.17 1.135h5.889c.234 0 .846-.108.846-.811 0-.341-.073-.504-.27-.774l-4.088-5.726h3.422c.647 0 1.17-.414 1.17-1.134 0-.72-.523-1.134-1.17-1.134h-6.03c-.576 0-1.062.288-1.062.882 0 .288.144.558.234.702l4.07 5.726" transform="translate(32.502 31.31)"/></g></g></g></svg>