<svg xmlns="http://www.w3.org/2000/svg" viewBox="0 0 47.5 47.5" enable-background="new 0 0 47.5 47.5"><defs><clipPath id="0"><path d="m0 38h38v-38h-38v38"/></clipPath></defs><g transform="matrix(1.25 0 0-1.25 0 47.5)"><g clip-path="url(#0)"><path d="m0 0c0 0-10-2-10-7 0-2.043 1.069-2.964 2.507-2.964 2.962 0 7.493 3.905 7.493 9.964m-2.402-2.736c-.993-3.26-3.588-5.228-5.091-5.228-.261 0-.507 0-.507.964 0 1.699 2.78 3.284 5.598 4.264" fill="#c1694f" transform="translate(11 26)"/><path d="m0 0c-.272 2.183-2.295 3.969-4.495 3.969h-18.514c-2.2 0-4.222-1.786-4.495-3.969l-1.753-14.06c-.272-2.184 1.305-3.97 3.505-3.97h24c2.2 0 3.777 1.786 3.505 3.97l-1.753 14.06" fill="#a6d388" transform="translate(34.752 22.03)"/><g fill="#77b255"><path d="m0 0c0 0 2.5-8.5 4-7 1.5 1.5-4 7-4 7" transform="translate(9 24)"/><path d="m0 0c0 0-2.5-8.5-4-7-1.5 1.5 4 7 4 7" transform="translate(32.26 24)"/></g></g></g></svg>