<svg xmlns="http://www.w3.org/2000/svg" viewBox="0 0 47.5 47.5" enable-background="new 0 0 47.5 47.5"><defs><clipPath id="0"><path d="m0 38h38v-38h-38v38"/></clipPath></defs><g transform="matrix(1.25 0 0-1.25 0 47.5)"><g clip-path="url(#0)"><path d="m0 0c-.04.159-.943 3.684-3.443 7.198-.105.261-.224.527-.363.797-1.906 3.714-2.442 10.793-5.372 10.793-2.929 0-1.859-4.279-4.721-4.279-2.863 0-2.077 4.279-5.236 4.279-3.16 0-3.452-7.07-5.295-10.184-.028-.05-.054-.102-.082-.152-.26.517-.275 1.026-.26 1.535.015.515-.316 2.08-1.256 3.361.685.129 1.183.563 1.155 1.05-.032.551-.728.959-1.555.911-.534-.031-.989-.246-1.238-.542-.292.146-.609.263-.957.336-.553.115-.538-.912-3.03-.912-2.49 0-4.133-3.998-1.849-3.998 2.284 0 4.388.113 4.701-1.088.29-1.119-.587-3.537-.148-4.997.379-1.261 1.088-2.283 1.927-3.11 1.934-2.086 3.746-10.07 3.687-12.06-.059-1.999 1.94-2.058 2-.059.035 1.212-.103 4.05.143 6.44.658-3.122.935-6.755.898-7.972-.059-1.999 1.941-2.058 2-.059.047 1.621-.191 7.14.584 9.989.509-.023 1.04-.037 1.593-.042 1.564-.079 3.261.17 4.855.565 1.274-2.243 2.65-4.45 2.633-4.985-.029-1-1.117-3.969-1.146-4.969-.03-.999.94-2.029 1.999-.059.553 1.029 1.125 3.067 1.414 5.068.633-1.114 1.091-1.985 1.083-2.294-.03-1-1.064-2.124-1.093-3.124-.029-.999.94-2.029 1.999-.059 1.058 1.97 2.092 3.094 1.151 5.122-.718 1.551-.817 6.551-.353 9.706.126.235.228.483.319.735.928-1.928 1.309-3.401 1.315-3.424.114-.454.521-.757.968-.757.081 0 .163.01.244.03.536.135.861.677.727 1.212" fill="#c1694f" transform="translate(36.779 15.213)"/><path d="m0 0c-.016-.552-.477-.986-1.029-.97-.552.016-.986.477-.97 1.029.016.552.477.986 1.029.97.552-.016.987-.477.97-1.029" fill="#292f33" transform="translate(9.1 28.29)"/></g></g></svg>