<svg xmlns="http://www.w3.org/2000/svg" viewBox="0 0 47.5 47.5" enable-background="new 0 0 47.5 47.5"><defs><clipPath id="0"><path d="m0 38h38v-38h-38v38"/></clipPath></defs><g transform="matrix(1.25 0 0-1.25 0 47.5)"><g clip-path="url(#0)"><path d="m0 0c0-2.209-1.791-4-4-4h-28c-2.209 0-4 1.791-4 4v28c0 2.209 1.791 4 4 4h28c2.209 0 4-1.791 4-4v-28" fill="#3b88c3" transform="translate(37 5)"/><g fill="#fff"><path d="m0 0l-3.301-2.75c.083-.396.127-.806.127-1.227 0-3.314-2.686-6-6-6h-1.058c.036-.329.058-.662.058-1 0-1.054-.19-2.061-.523-3h1.523c5.523 0 10 4.477 10 10 0 1.414-.297 2.758-.826 3.977" transform="translate(31.17 22.977)"/><path d="m0 0l-7.2 6v-4h-8c-5.523 0-10-4.477-10-10 0-.099.012-.194.014-.292 1.186 1.059 2.649 1.812 4.273 2.125.775 2.417 3.038 4.167 5.713 4.167h8v-4l7.2 6" transform="translate(31.2 27)"/><path d="m0 0c0 3.313-2.687 6-6 6-3.313 0-6-2.687-6-6 0-3.313 2.687-6 6-6 3.313 0 6 2.687 6 6" transform="translate(18 12)"/></g><path d="m0 0h-.708c-.576 0-.815.42-.815.828 0 .419.299.827.815.827h1.703c.516 0 .804-.371.804-.851v-5.752c0-.6-.384-.936-.9-.936-.515 0-.899.336-.899.936v4.948" fill="#3b88c3" transform="translate(11.201 13.884)"/></g></g></svg>