<svg xmlns="http://www.w3.org/2000/svg" viewBox="0 0 47.5 47.5" enable-background="new 0 0 47.5 47.5"><defs><clipPath id="0"><path d="m0 38h38v-38h-38v38"/></clipPath></defs><g transform="matrix(1.25 0 0-1.25 0 47.5)"><g clip-path="url(#0)"><path d="m0 0c0-2.209-1.791-4-4-4h-28c-2.209 0-4 1.791-4 4v28c0 2.209 1.791 4 4 4h28c2.209 0 4-1.791 4-4v-28" fill="#dd2e44" transform="translate(37 5)"/><g fill="#fff"><path d="m0 0c2.263 0 6.667-.744 6.667-3.473 0-1.116-.776-2.077-1.923-2.077-1.271 0-2.14 1.085-4.744 1.085-3.845 0-5.829-3.256-5.829-7.04 0-3.689 2.02-6.852 5.829-6.852 2.604 0 3.658 1.301 4.93 1.301 1.395 0 2.046-1.394 2.046-2.107 0-2.977-4.682-3.659-6.976-3.659-6.294 0-10.666 4.992-10.666 11.41 0 6.449 4.341 11.41 10.666 11.41" transform="translate(13.81 30.448)"/><path d="m0 0c0 1.55.992 2.418 2.326 2.418 1.334 0 2.326-.868 2.326-2.418v-15.564h5.518c1.582 0 2.264-1.179 2.232-2.233-.06-1.023-.867-2.047-2.232-2.047h-7.75c-1.52 0-2.42.992-2.42 2.543v17.301" transform="translate(22.332 27.844)"/></g></g></g></svg>