<svg xmlns="http://www.w3.org/2000/svg" viewBox="0 0 47.5 47.5" enable-background="new 0 0 47.5 47.5" xmlns:xlink="http://www.w3.org/1999/xlink"><defs><clipPath id="0"><path d="m0 38h38v-38h-38v38"/></clipPath></defs><g transform="matrix(1.25 0 0-1.25 0 47.5)"><g clip-path="url(#0)"><path d="m0 0c0 4 2 8 0 10-2 2-3-2-2-2 1.414 0 2-2 1-5-1-3 1-4 1-3" fill="#9266cc" transform="translate(10 21.44)" id="1"/><use transform="translate(-3.875)" xlink:href="#1"/><path d="m0 0c0-1-1-1-2-1h-23c-5 0-7.272 3.09-8 6-1 4 2 11 0 12-2 1-3 1-3 3 0 2 4.47 5.265 7 4 4-2 2.767-6.932 2-10-.88-3.521 1.115-3.594 5-5 4.939-1.787 12.32-4.439 14-5 3-1 8-3 8-4" fill="#aa8dd8" transform="translate(37 2.065)"/><path d="m0 0c2.887-1 3.849-9 13.472-9 6.377 0 8.66 5.479 8.66 11 0 5.523-5.17 10-11.547 10-6.377 0-11.498-11.684-10.585-12" fill="#ffcc4d" transform="translate(11.925 12.06)"/><path d="m0 0c1.708 0 3.389.48 4.893 1.418 2.184 1.361 3.728 3.527 4.347 6.098 1.531 6.363-2.206 12.834-8.329 14.425-7.392 1.923-14.919-2.769-16.767-10.455-.258-1.072.369-2.158 1.399-2.425 1.027-.272 2.076.382 2.335 1.455 1.334 5.546 6.761 8.93 12.1 7.544 4.063-1.056 6.543-5.351 5.528-9.574-.369-1.533-1.29-2.826-2.594-3.638-1.305-.813-2.836-1.051-4.31-.666-1.081.279-1.992.98-2.565 1.972-.572.994-.74 2.159-.469 3.282.191.794.668 1.464 1.344 1.886.676.421 1.527.707 2.234.345 1.298-.665 1.298-2.665.336-3.665-.752-.781 1.604-1.065 2.887 0 1.151.955 1.645 2.492 1.069 4.199-.582 1.724-1.805 2.943-3.358 3.347-1.762.457-3.59.176-5.148-.797-1.557-.971-2.658-2.515-3.098-4.347-.52-2.158-.199-4.398.903-6.306 1.103-1.91 2.853-3.258 4.931-3.797.773-.201 1.556-.301 2.332-.301" fill="#ffac33" transform="translate(25.914 3.063)"/></g></g></svg>