<svg xmlns="http://www.w3.org/2000/svg" viewBox="0 0 47.5 47.5" enable-background="new 0 0 47.5 47.5" xmlns:xlink="http://www.w3.org/1999/xlink"><defs><clipPath id="0"><path d="m0 38h38v-38h-38v38"/></clipPath></defs><g transform="matrix(1.25 0 0-1.25 0 47.5)"><g fill="#66757f"><path d="m20 6h-2v5h2v-5"/><path d="m10 11h2v-5h-2v5"/></g><g clip-path="url(#0)"><path d="m0 0c0-.552-2.686-1-6-1-3.314 0-6 .448-6 1 0 .552 2.686 1 6 1 3.314 0 6-.448 6-1" fill="#99aab5" transform="translate(13.999 34)" id="1"/><use transform="translate(14)" xlink:href="#1"/><path d="m16 28h-2v6h2v-6" fill="#99aab5"/><path d="m0 0c0-.552-.896-1-2-1-1.104 0-2 .448-2 1 0 .552.896 1 2 1 1.104 0 2-.448 2-1" fill="#66757f" transform="translate(16.999 34)"/><g fill="#ffcc4d" transform="translate(35.999 27)"><path d="m0 0c0 3 0 7-1 7-1 0-3-4-4-6-1-2 5-1 5-1"/><path d="m0 0c0 2.209-8 3-19 3h-1.989c-.004 0-.007 0-.011 0-6.627 0-12.75-5.451-12.75-11.25 0-5.799 3.75-9.75 12.75-9.75 9 0 12 4.701 12 10.5 0 .88-.138 1.731-.371 2.549 4.371.951 9.371 2.944 9.371 4.951"/></g><g fill="#3b88c3"><path d="M 0,0 C -2.091,-2.918 -3.068,-7.589 1.213,-7.784 6,-8 8,-8 9.063,-5.413 10.428,-2.092 10,2 8.787,2.783 6.467,4.28 2.092,2.918 0,0" transform="translate(5.999 24)"/><path d="m0 0c2.159-3.464 2.07-6.161-1.841-7.465-3-1-4 2-3.841 5.535.112 2.484.206 4.196 1.841 4.466 1.447.239 2.527-.427 3.841-2.536" transform="translate(22.84 24.465)"/></g><g fill="#99aab5"><path d="m0 0c.903-1.273 1.271-2.564.82-2.884-.45-.32-1.548.454-2.451 1.726-.903 1.273-1.271 2.564-.82 2.884.45.32 1.548-.453 2.451-1.726" transform="translate(33.18 29.886)"/><path d="m0 0c.909-1.279 1.28-2.575.83-2.895-.45-.32-1.553.458-2.46 1.737-.909 1.28-1.279 2.576-.829 2.896.45.32 1.552-.459 2.459-1.738" transform="translate(36.46 25.26)"/></g><path d="m0 0c.319-.45.214-1.074-.236-1.394-.451-.32-1.075-.214-1.395.236-.319.45-.214 1.075.237 1.394.451.321 1.075.214 1.394-.236" fill="#66757f" transform="translate(34.816 27.581)"/><path d="m0 0c0-1.104-.896-2-2-2h-20c-1.104 0-2 .896-2 2 0 1.104.896 2 2 2h20c1.104 0 2-.896 2-2" fill="#99aab5" transform="translate(27 5)"/></g></g></svg>