<svg xmlns="http://www.w3.org/2000/svg" viewBox="0 0 47.5 47.5" enable-background="new 0 0 47.5 47.5"><defs><clipPath id="0"><path d="m0 38h38v-38h-38v38"/></clipPath></defs><g transform="matrix(1.25 0 0-1.25 0 47.5)"><g clip-path="url(#0)"><path d="m0 0c-.512 0-1.024.195-1.414.586l-11 11c-.375.375-.586.884-.586 1.414v21c0 .809.487 1.538 1.235 1.848.747.31 1.608.138 2.179-.434l9.586-9.585 9.586 9.585c.572.573 1.431.744 2.18.434.747-.31 1.234-1.039 1.234-1.848v-21c0-.53-.211-1.039-.586-1.414l-11-11c-.39-.391-.902-.586-1.414-.586" fill="#66757f" transform="translate(18 1)"/><path d="m0 0l11 11v-21l-11-11v21" fill="#47ded4" transform="translate(18 24)"/><path d="m0 0l11-11v-21l-11 11v21" fill="#ffff87" transform="translate(7 35)"/></g></g></svg>