<svg xmlns="http://www.w3.org/2000/svg" viewBox="0 0 47.5 47.5" enable-background="new 0 0 47.5 47.5" xmlns:xlink="http://www.w3.org/1999/xlink"><defs><path id="1" d="m0 0c0 .828.672 1.5 1.5 1.5.828 0 1.5-.672 1.5-1.5 0-.828-.672-1.5-1.5-1.5-.828 0-1.5.672-1.5 1.5"/><clipPath id="0"><path d="m0 38h38v-38h-38v38"/></clipPath></defs><g transform="matrix(1.25 0 0-1.25 0 47.5)"><g clip-path="url(#0)"><path d="m0 0c-3.591 0-6.27 1.648-7.989 4.905-1.626-3.22-4.02-4.905-7.01-4.905-.552 0-1 .448-1 1 0 .552.448 1 1 1 2.729 0 4.765 1.957 6.05 5.816.136.408.518.684.949.684.431 0 .813-.276.949-.684 1.322-3.968 3.563-5.816 7.05-5.816.553 0 1-.448 1-1 0-.552-.447-1-1-1" fill="#292f33" transform="translate(27 28)"/><path d="m0 0c3.364-3.366.498-5.954-2.868-9.319-3.365-3.365-5.953-6.232-9.319-2.868-3.366 3.366-3.366 8.822 0 12.187 3.366 3.366 8.821 3.366 12.187 0" fill="#ffac33" transform="translate(15.604 27.346)"/><path d="m0 0c1.584-1.585.249-5.486-2.983-8.717-3.231-3.232-7.132-4.569-8.717-2.983-1.584 1.584-.248 5.486 2.982 8.717 3.232 3.231 7.134 4.567 8.718 2.983" fill="#be1931" transform="translate(16.435 26.03)"/><path d="m0 0c-3.363-3.366-.498-5.954 2.868-9.319 3.365-3.365 5.954-6.232 9.32-2.868 3.365 3.366 3.365 8.822 0 12.187-3.366 3.366-8.821 3.366-12.188 0" fill="#ffac33" transform="translate(22.299 27.346)"/><path d="m0 0c-1.585-1.585-.249-5.486 2.982-8.717 3.231-3.232 7.133-4.569 8.717-2.983 1.584 1.584.248 5.486-2.982 8.717-3.231 3.231-7.133 4.567-8.717 2.983" fill="#be1931" transform="translate(21.469 26.03)"/><path d="m0 0c.199.16.459.244.734.215.868-.094 1.598-.396 2.11-.873.541-.505.806-1.183.734-1.863-.129-1.191-1.324-2.285-3.363-2.065-.793.085-1.147-.17-1.158-.291-.014-.121.277-.446 1.07-.532.867-.094 1.598-.396 2.109-.873.541-.505.809-1.183.735-1.863-.129-1.192-1.325-2.285-3.362-2.065-.578.063-.882-.057-1.01-.134-.104-.063-.145-.124-.149-.158-.011-.12.276-.445 1.071-.531.548-.06.947-.553.886-1.102-.058-.549-.551-.946-1.101-.886-2.037.218-2.973 1.542-2.844 2.735.129 1.192 1.324 2.285 3.363 2.065.578-.063.881.057 1.01.134.103.063.145.123.148.157.014.121-.275.447-1.07.533-2.037.219-2.973 1.542-2.844 2.735.129 1.192 1.325 2.286 3.362 2.064.578-.061.882.058 1.01.135.104.063.145.123.149.157.012.121-.278.447-1.07.533-.549.059-.948.552-.887 1.101.029.275.168.511.367.672" fill="#aa8dd8" transform="translate(23.41 18.779)"/><path d="m0 0c-1.973-.557-3.334.322-3.658 1.477-.324 1.154.378 2.615 2.349 3.169.77.216 1 .584.97.702-.034.119-.425.312-1.193.095-1.972-.555-3.333.325-3.657 1.48-.327 1.155.377 2.614 2.35 3.169.769.217 1 .586.967.703-.033.116-.423.31-1.192.095-.531-.15-1.084.159-1.234.69-.148.533.161 1.084.694 1.234 1.97.555 3.333-.322 3.659-1.478.324-1.154-.379-2.613-2.353-3.17-.769-.216-1-.584-.967-.701.033-.117.422-.313 1.191-.096 1.973.556 3.334-.322 3.659-1.479.325-1.154-.378-2.613-2.352-3.169-.767-.215-.999-.586-.966-.701.034-.119.422-.313 1.192-.097.532.151 1.083-.159 1.233-.691.15-.531-.16-1.084-.692-1.232" fill="#77b255" transform="translate(16.266 1.015)"/><use fill="#5c913b" transform="translate(2 9.5)" xlink:href="#1"/><g fill="#9266cc"><path d="m0 0c0 1.104.896 2 2 2 1.104 0 2-.896 2-2 0-1.104-.896-2-2-2-1.104 0-2 .896-2 2" transform="translate(6 6)"/><path d="m0 0c0 1.104.896 2 2 2 1.104 0 2-.896 2-2 0-1.104-.896-2-2-2-1.104 0-2 .896-2 2" transform="translate(29 10)"/></g><g fill="#5c913b"><use transform="translate(25 5.5)" xlink:href="#1"/><use transform="translate(17 17.5)" xlink:href="#1"/></g><g fill="#ffcc4d"><path d="m0 0c0 1.104.896 2 2 2 1.104 0 2-.896 2-2 0-1.104-.896-2-2-2-1.104 0-2 .896-2 2" transform="translate(6 14)"/><use transform="translate(27 20.5)" xlink:href="#1"/><use transform="translate(12 22.5)" xlink:href="#1"/></g></g></g></svg>