<svg xmlns="http://www.w3.org/2000/svg" viewBox="0 0 47.5 47.5" enable-background="new 0 0 47.5 47.5" xmlns:xlink="http://www.w3.org/1999/xlink"><defs><clipPath id="0"><path d="m0 0h38v38h-38v-38"/></clipPath></defs><g transform="matrix(1.25 0 0-1.25 0 47.5)"><g clip-path="url(#0)"><path d="m0 0c0 4.939-6.772 4.457-9.169 4.132-2.433 1.789-5.387 2.868-8.831 2.868-3.438 0-6.388-1.081-8.818-2.869-2.385.325-9.182.817-9.182-4.131 0-2.891 1.563-4.732 2.433-5.533-.947-2.727-1.433-5.642-1.433-8.467 0-9.941 10-13 17-13 7 0 17 3 17 13 0 2.835-.483 5.75-1.426 8.473.871.805 2.426 2.644 2.426 5.527" fill="#bf6952" transform="translate(37 30)"/><path d="m0 0c0 3.866-3.134 7-7 7-1.96 0-3.729-.808-5-2.105-1.271 1.297-3.04 2.105-5 2.105-3.866 0-7-3.134-7-7 0-3.777 2.993-6.846 6.735-6.986-1.673-1.467-2.735-3.614-2.735-6.01 0-4.419 3.582-8 8-8 4.419 0 8 3.581 8 8 0 2.4-1.062 4.547-2.734 6.01 3.742.14 6.734 3.209 6.734 6.986" fill="#d79e84" transform="translate(31 23)"/><path d="m0 0c-.092.147-.253.237-.426.237h-10c-.173 0-.334-.09-.425-.237-.091-.147-.1-.331-.022-.486.087-.175 2.176-4.277 5.447-4.277 3.272 0 5.361 4.102 5.447 4.277.078.155.07.339-.021.486" fill="#642116" transform="translate(24.426 8.263)"/><path d="m0 0c-.276 0-.5.224-.5.5v2c0 .276.224.5.5.5.276 0 .5-.224.5-.5v-2c0-.276-.224-.5-.5-.5" fill="#642116" transform="translate(20 11.5)" id="1"/><use transform="translate(-2)" xlink:href="#1"/><path d="m0 0c0-1.657-.896-3-2-3-1.104 0-2 1.343-2 3 0 1.657.896 3 2 3 1.104 0 2-1.343 2-3" fill="#292f33" transform="translate(16 21)" id="2"/><use transform="translate(10)" xlink:href="#2"/><g fill="#bf6952"><path d="m0 0l-2-20h8l-1 20h-5" transform="translate(31 21)"/><path d="m0 0c-.905 0-1.718-.368-2.348-1.064-2.278-2.518-1.743-9.04-1.652-9.989.004-.295.04-1.732.405-3.19.777-3.105 2.383-3.757 3.595-3.757 3.123 0 3.978 1.912 4 2.959.021.322.187 2.878.071 5.778-.172 4.308-.846 7.04-2.064 8.346-.559.6-1.253.917-2.01.917" transform="translate(33 36)"/></g><path d="m0 0c4 0 3-14 3-14 0 0 0-2-3-2-3 0-3 6-3 6 0 0-1 10 3 10" fill="#d79e84" transform="translate(33 35)"/><g fill="#bf6952"><path d="m0 0c-.233 0-.442.166-.489.404-.206 1.047-.829 2.596-1.51 2.596h-2c-.276 0-.5.224-.5.5 0 .276.224.5.5.5h2c1.774 0 2.423-3.056 2.491-3.404.053-.271-.124-.534-.395-.587-.033-.006-.065-.009-.097-.009" transform="translate(33.999 29.5)"/><path d="m0 0l2-20h-8l1 20h5" transform="translate(7 21)"/><path d="m0 0c-.754 0-1.448-.317-2.01-.917-1.218-1.308-1.892-4.04-2.064-8.346-.116-2.9.05-5.456.071-5.778.022-1.047.877-2.959 4-2.959 1.212 0 2.818.652 3.595 3.757.365 1.458.401 2.895.405 3.19.091.951.626 7.471-1.652 9.989-.63.696-1.443 1.064-2.348 1.064" transform="translate(5 36)"/></g><path d="m0 0c4 0 3-10 3-10 0 0 0-6-3-6-3 0-3 2-3 2 0 0-1 14 3 14" fill="#d79e84" transform="translate(5 35)"/><path d="m0 0c-.032 0-.064.003-.096.009-.271.053-.448.316-.395.587.068.348.716 3.404 2.491 3.404h2c.276 0 .5-.224.5-.5 0-.276-.224-.5-.5-.5h-2c-.75 0-1.351-1.783-1.51-2.596-.046-.238-.256-.404-.49-.404" fill="#bf6952" transform="translate(4 29.5)"/></g></g></svg>