<svg xmlns="http://www.w3.org/2000/svg" viewBox="0 0 47.5 47.5" enable-background="new 0 0 47.5 47.5"><defs><clipPath id="0"><path d="m0 38h38v-38h-38v38"/></clipPath></defs><g transform="matrix(1.25 0 0-1.25 0 47.5)"><g clip-path="url(#0)"><path d="m0 0l.036-.045c0 0 1 10 0 11-.91.91-6.771-.66-7.822-.951-2.426 1.234-5.443 1.951-9.178 1.951-3.729 0-6.742-.719-9.165-1.954-1.02.283-6.922 1.867-7.835.954-1-1 0-11 0-11l.047.059c-.739-2.553-1.047-5.31-1.047-8.06 0-5.506 3.376-9.818 7.577-12.572.081 6.417-2.257 13.572-6.173 13.572-.464 0-.839-.066-1.152-.183.302.757.96 1.183 2.189 1.183 4.245 0 6.638-8.411 6.102-15.174 3.145-1.836 6.628-2.826 9.457-2.826 2.83 0 6.315.982 9.461 2.812-.546 6.79 1.848 15.188 6.1 15.188 1.233 0 1.891-.426 2.192-1.183-.313.117-.69.183-1.157.183-3.924 0-6.264-7.151-6.171-13.592 4.199 2.745 7.575 7.05 7.575 12.592 0 2.752-.306 5.502-1.036 8.04" fill="#ffcc4d" transform="translate(35.964 25.04)"/><path d="m0 0c-2.209 0-4-1.791-4-4v-6c0-2.209 1.791-4 4-4 2.209 0 4 1.791 4 4v6c0 2.209-1.791 4-4 4" fill="#292f33" transform="translate(19 16)"/><path d="m0 0c3 0 3-.5 3-1.5 0-1-1.5-3-3-3-1.5 0-3 2-3 3 0 1 0 1.5 3 1.5" fill="#67757f" transform="translate(19 22)"/><g fill="#9aaab4"><path d="m0 0l-5.02-1c-.272-.054-.448-.317-.393-.588.048-.238.256-.402.489-.402.033 0 .067.003.099.01l4.197.839c.196.41.406.792.629 1.145" transform="translate(30.924 16.494)"/><path d="m0 0c.006 0 .01-.001.016-.001l1.582.527c.261.087.403.37.316.632-.088.262-.369.404-.633.316l-9-2.999c-.261-.088-.403-.371-.316-.633.07-.209.265-.342.474-.342.053 0 .106.008.159.025l5.43 1.811c.603.423 1.261.664 1.972.664" transform="translate(34.561 19)"/><path d="m0 0l-5.03 1.01c.223-.354.433-.736.629-1.146l4.203-.84c.033-.007.066-.01.098-.01.234 0 .443.164.49.402.054.271-.121.534-.392.588" transform="translate(12.1 15.49)"/><path d="m0 0l-9 3c-.264.087-.545-.055-.632-.316-.088-.263.054-.546.316-.633l1.583-.528c.005 0 .009.002.015.002.708 0 1.363-.24 1.963-.661l5.439-1.813c.052-.018.106-.026.158-.026.209 0 .404.133.474.342.087.262-.054.545-.316.633" transform="translate(11.158 17.475)"/></g><g fill="#f5f8fa"><path d="m0 0c-.946-3.176.107-6.293 2.352-6.962 2.246-.67 4.834 1.362 5.779 4.538.948 3.175-.105 6.293-2.349 6.962-2.246.669-4.835-1.363-5.782-4.538" transform="translate(8.347 26.335)"/><path d="m0 0c.946-3.176-.107-6.293-2.353-6.962-2.246-.67-4.834 1.362-5.779 4.538-.946 3.175.107 6.293 2.351 6.962 2.246.669 4.834-1.363 5.781-4.538" transform="translate(29.652 26.335)"/></g><g fill="#fcab40"><path d="m0 0c-.313.116-.69.183-1.157.183-4.641 0-7.07-10-5.873-17h6.46c-1.906 7.04 1.656 14.09.57 16.817" transform="translate(36.753 17.817)"/><path d="m0 0c-.464 0-.84-.066-1.153-.183.072.179.167.336.281.477-1.862-2.292 2.316-9.834.286-17.294h6.461c1.188 6.96-1.236 17-5.875 17" transform="translate(2.404 18)"/></g></g></g></svg>