<svg xmlns="http://www.w3.org/2000/svg" viewBox="0 0 47.5 47.5" enable-background="new 0 0 47.5 47.5"><defs><clipPath id="0"><path d="m0 38h38v-38h-38v38"/></clipPath></defs><g transform="matrix(1.25 0 0-1.25 0 47.5)"><g clip-path="url(#0)"><path d="m0 0c0-1.104.896-2 2-2h14c1.104 0 2 .896 2 2v16c0 1.104-.896 2-2 2h-14c-1.104 0-2-.896-2-2v-16" fill="#bcbec0" transform="translate(18 3)"/><path d="m0 0h-10v-2h12c0 1.104-.896 2-2 2" fill="#414042" transform="translate(34 21)"/><path d="m34 3h-30v4h30v-4" fill="#3b88c3"/><path d="m0 0c-1.104 0-2-.896-2-2v-16c0-1.104.896-2 2-2h20v20h-20" fill="#d1d3d4" transform="translate(4 21)"/><path d="m0 0c-1.104 0-2-.896-2-2h22v2h-20" fill="#66757f" transform="translate(4 21)"/><g fill="#55acee"><path d="m4 13h4v4h-4v-4"/><path d="m18 13h4v4h-4v-4"/><path d="m11 13h4v4h-4v-4"/></g><g fill="#3b88c3"><path d="m34 13h-4v4h4v-4"/><path d="m28 13h-4v4h4v-4"/></g><path d="m22 1h-18v6h18v-6" fill="#55acee"/><path d="m18 1h-10v6h10v-6" fill="#3b88c3"/><path d="m24 11h-22v-4h22v4" fill="#dd2e44"/><path d="m18 8h-10v2h10v-2" fill="#f4abba"/><path d="m16 8h-6v2h6v-2" fill="#fff"/><path d="m36 7h-12v4h12v-4" fill="#a0041e"/><g fill="#414042"><path d="m8 21h-2v2h2v-2"/><path d="m18 21h2v2h-2v-2"/></g><path d="m0 0c0-1.104-.896-2-2-2h-14c-1.104 0-2 .896-2 2v10c0 1.104.896 2 2 2h14c1.104 0 2-.896 2-2v-10" fill="#dd2e44" transform="translate(22 25)"/><g fill="#fff"><path d="m0 0c.616 0 1.093-.28 1.093-.925 0-.644-.477-.924-1.01-.924h-4.678c-.617 0-1.093.28-1.093.924 0 .295.182.547.322.715 1.163 1.386 2.424 2.647 3.488 4.188.252.364.49.798.49 1.303 0 .574-.434 1.078-1.01 1.078-1.61 0-.84-2.269-2.185-2.269-.672 0-1.022.476-1.022 1.023 0 1.764 1.569 3.179 3.292 3.179 1.723 0 3.109-1.134 3.109-2.913 0-1.947-2.171-3.88-3.361-5.379h2.563" transform="translate(11.562 26.849)"/><path d="m0 0h-.028l-1.891-3.908h1.919v3.908m-3.376-5.757c-.686 0-.98.463-.98.826 0 .309.111.477.196.617l3.138 5.687c.308.56.7.813 1.428.813.813 0 1.611-.519 1.611-1.793v-4.301h.238c.546 0 .981-.364.981-.925 0-.56-.435-.924-.981-.924h-.238v-1.19c0-.743-.294-1.093-1.01-1.093-.714 0-1.01.35-1.01 1.093v1.19h-3.376z" transform="translate(17.3 32.956)"/></g></g></g></svg>