<svg xmlns="http://www.w3.org/2000/svg" viewBox="0 0 47.5 47.5" enable-background="new 0 0 47.5 47.5"><defs><clipPath id="0"><path d="m0 38h38v-38h-38v38"/></clipPath><clipPath id="1"><path d="m11.09 13.996c-.029 0-.059.004-.088.004-3.867 0-7-4.01-7-6.5 0-2.326 5.257-3.365 9.21-5.128 1.262-1.096 3.132-1.372 5.79-1.372 2.253 0 3.941.266 5.173 1.081 3.997 1.946 9.827 2.969 9.827 5.419 0 2.486-3.134 6.5-7 6.5-.019 0-.04-.003-.059-.003-.5 9.254-4.22 23-7.941 23-3.657 0-7.311-13.692-7.912-23"/></clipPath></defs><g transform="matrix(1.25 0 0-1.25 0 47.5)"><g clip-path="url(#0)"><path d="m0 0c0 2.485-3.134 6.5-7 6.5-.019 0-.04-.003-.059-.003-.5 9.254-4.219 23-7.941 23-3.657 0-7.311-13.691-7.912-23-.028 0-.06.004-.088.004-3.866 0-7-4.01-7-6.5 0-2.326 5.257-3.364 9.21-5.128 1.262-1.096 3.132-1.372 5.79-1.372 2.253 0 3.941.267 5.173 1.081 3.997 1.945 9.827 2.969 9.827 5.419" fill="#d99e82" transform="translate(34 7.5)"/><g fill="#c1694f"><path d="M 0,0 C -0.544,-0.098 0.137,1 0.137,3.722 0.137,5 0,6 0,7 1,7 2.104,7 2.104,4.077 2.104,2.421 0.544,0.099 0,0" transform="translate(27 7)"/><path d="m0 0c.544-.098-.137 1-.137 3.722 0 1.278.137 2.278.137 3.278-1 0-2.104 0-2.104-2.923 0-1.656 1.56-3.978 2.104-4.077" transform="translate(10.894 7)"/></g></g><g clip-path="url(#1)" fill="#292f33"><path d="m0 0c-.337-1.155-2.171-1.637-4.098-1.076-1.927.562-3.215 1.956-2.878 3.111.337 1.155 2.172 1.636 4.098 1.075 1.927-.561 3.215-1.955 2.878-3.11" transform="translate(12.886 2.513)"/><path d="m0 0c.337-1.155 2.171-1.637 4.099-1.076 1.925.562 3.214 1.956 2.877 3.111-.337 1.155-2.172 1.636-4.098 1.075-1.927-.561-3.215-1.955-2.878-3.11" transform="translate(25.11 2.513)"/></g></g></svg>