<svg xmlns="http://www.w3.org/2000/svg" viewBox="0 0 47.5 47.5" enable-background="new 0 0 47.5 47.5"><defs><clipPath id="0"><path d="m0 38h38v-38h-38v38"/></clipPath><clipPath id="1"><path d="m22.864 15.949c-.052-.031-.459-.336-.528-.405-.01-.008-.016-.02-.023-.027-.011-.011-.025-.02-.035-.032l.005-.003c-1-1.063-1.012-2.706-.005-3.714 1.01-1.01 2.649-.993 3.712.007l.01-.012c-.02-.019-.043-.032-.063-.052-1.059-1.059-1.084-2.749-.058-3.776 1.026-1.026 2.716-1 3.775.058.02.021.033.043.053.065l.01-.012c-1-1.062-1.01-2.704-.004-3.712 1.01-1.01 2.648-.995 3.711.006l.006-.006c.009.01.019.025.029.036.009.008.019.014.028.023.07.068.123.145.181.22.043.052.089.101.128.155.036.05.066.101.096.153 1.42 2.186.49 5.894-2.322 8.707-1.934 1.934-4.294 2.978-6.29 2.978-.905 0-1.734-.214-2.416-.657"/></clipPath><clipPath id="2"><path d="m4.36 36.08c-.052-.032-.103-.061-.153-.096-.053-.04-.104-.086-.155-.128-.074-.06-.151-.113-.221-.181-.008-.009-.014-.02-.022-.029-.011-.01-.024-.019-.035-.029l.005-.006c-1-1.062-1.012-2.704-.005-3.712 1.01-1.01 2.65-.994 3.712.006l.011-.012c-.021-.019-.044-.032-.064-.052-1.059-1.058-1.084-2.749-.058-3.776 1.026-1.026 2.716-.999 3.775.059.02.02.033.043.052.064l.011-.011c-1-1.062-1.012-2.705-.004-3.712 1.01-1.01 2.649-.995 3.711.005l.006-.005c.01.01.019.024.029.036.009.008.019.014.028.022.07.068.122.146.182.22.042.052.088.101.127.155.036.05.065.101.097.152 1.419 2.187.489 5.896-2.322 8.708-1.935 1.935-4.295 2.979-6.291 2.979-.905 0-1.734-.214-2.416-.657"/></clipPath></defs><g transform="matrix(1.25 0 0-1.25 0 47.5)"><g clip-path="url(#0)"><path d="m0 0c-3.783-5.25-10.408-7.737-10.408-7.737-1.236-1.047-.192-2.281-.192-2.281l10.439-12.359c0 0 .522-.618 2.28-.19 0 0 6.625 2.483 10.407 7.733 3.899 5.41 10.93 7.118 10.93 7.118 1.235 1.047.192 2.282.192 2.282l-10.439 12.357c0 0-.522.619-2.28.193 0 0-7.03-1.704-10.929-7.116" fill="#a7d28b" transform="translate(12.476 26.764)"/><path d="m0 0c-1.01-.832-1.978-1.802-2.803-2.948-.816-1.133-1.768-2.129-2.754-3.01l12.527-14.836c.985.879 1.937 1.875 2.753 3.01.825 1.145 1.794 2.116 2.802 2.948l-12.525 14.835" fill="#9aaab4" transform="translate(15.279 29.712)"/><path d="m0 0c.009.008.019.014.028.021.069.069.121.147.181.221.042.052.089.102.128.155.035.05.064.101.096.153 1.42 2.186.49 5.895-2.322 8.707-2.811 2.811-6.52 3.742-8.707 2.321-.051-.031-.102-.06-.153-.096-.053-.039-.104-.086-.154-.127-.075-.06-.153-.113-.221-.181-.009-.009-.015-.02-.022-.028-.011-.011-.025-.019-.037-.031l.006-.005c-1-1.061-1.01-2.705-.006-3.712 1.01-1.01 2.651-.994 3.713.006l.011-.011c-.02-.02-.044-.034-.063-.053-1.059-1.059-1.084-2.748-.059-3.776 1.026-1.025 2.717-1 3.775.059.02.02.034.043.053.065l.011-.012c-1-1.063-1.013-2.705-.005-3.713 1.01-1.01 2.649-.994 3.711.006l.006-.006c.01.012.019.025.03.037" fill="#e1e8ed" transform="translate(33.456 4.412)"/></g><g clip-path="url(#1)" fill="#ccd6dd"><path d="m0 0c.334-.958 2.375-2.791 4.667-1.082 0-.375-.333-2.125-1.958-3.125-1.625-1-3.459.291-3.542 2-.083 1.707.833 2.207.833 2.207" transform="translate(21.545 14.276)"/><path d="m0 0c.584-2.333 3.543-3.5 5.04-2.125-.293-.75-1.5-2.458-2.5-2.833-1-.375-4.793-.459-4.918.541-.125 1 2.375 4.417 2.375 4.417" transform="translate(25.17 11.152)"/><path d="m0 0c.166-.709 2.25-3.417 5.166-2.042.459-.75 1.791-2.792-1.459-2.75-3.25.042-6.125-.042-5.541 1.375.584 1.417 1.834 3.417 1.834 3.417" transform="translate(28.963 7.319)"/></g><g clip-path="url(#0)"><path d="m0 0c-1.557 1.844-4.854-1.148-5.793-.035-.455.539-.163 1.238.435 1.742 1 .85 1.73.356 2.185.74.323.272.306.606.114.834-.446.528-1.586.252-2.472-.26l-.431.51c-.268.319-.745.36-1.063.09-.319-.269-.359-.744-.09-1.062l.447-.53c-.677-.898-.907-2.09-.107-3.037 1.496-1.769 4.833 1.172 5.883-.072.364-.432.262-1.256-.504-1.902-1.148-.971-2.188-.516-2.655-.911-.227-.191-.269-.554-.026-.843.388-.457 1.62-.36 2.806.379.001-.002.001-.004.002-.006l.487-.576c.269-.319.745-.358 1.064-.09.319.269.358.746.089 1.064l-.487.576c-.005.006-.013.01-.018.016.799.978 1.069 2.268.134 3.373" fill="#67757f" transform="translate(15.48 14.445)"/><path d="m0 0c.009.008.019.014.028.022.069.069.121.146.181.221.042.051.088.101.127.155.036.05.065.101.097.152 1.42 2.187.489 5.896-2.322 8.707-2.811 2.812-6.52 3.743-8.707 2.322-.051-.031-.102-.061-.153-.096-.053-.039-.103-.086-.155-.128-.074-.06-.151-.112-.22-.181-.009-.008-.015-.019-.022-.028-.012-.01-.025-.019-.036-.03l.005-.005c-1-1.062-1.012-2.705-.005-3.712 1.01-1.01 2.65-.995 3.712.005l.011-.011c-.02-.019-.043-.033-.063-.052-1.06-1.059-1.085-2.749-.059-3.776 1.026-1.026 2.716-1 3.775.059.02.02.034.043.053.064l.011-.012c-1-1.062-1.013-2.704-.005-3.712 1.01-1.01 2.649-.995 3.711.006l.006-.006c.01.011.019.024.03.036" fill="#e1e8ed" transform="translate(14.956 24.502)"/></g><g clip-path="url(#2)" fill="#ccd6dd"><path d="m0 0c.333-.958 2.375-2.792 4.667-1.083 0-.375-.334-2.125-1.959-3.125-1.625-1-3.458.292-3.541 2-.084 1.708.833 2.208.833 2.208" transform="translate(3.042 34.408)"/><path d="m0 0c.583-2.333 3.542-3.5 5.04-2.125-.292-.75-1.5-2.458-2.5-2.833-1-.375-4.792-.459-4.917.541-.125 1 2.375 4.417 2.375 4.417" transform="translate(6.667 31.28)"/><path d="m0 0c.167-.708 2.25-3.417 5.167-2.042.458-.75 1.791-2.791-1.459-2.75-3.25.042-6.125-.041-5.541 1.375.583 1.417 1.833 3.417 1.833 3.417" transform="translate(10.459 27.45)"/></g></g></svg>