<svg xmlns="http://www.w3.org/2000/svg" viewBox="0 0 47.5 47.5" enable-background="new 0 0 47.5 47.5" xmlns:xlink="http://www.w3.org/1999/xlink"><defs><clipPath id="0"><path d="m0 38h38v-38h-38v38"/></clipPath></defs><g transform="matrix(1.25 0 0-1.25 0 47.5)"><g clip-path="url(#0)"><path d="m0 0c-.198 0-.397.059-.572.181-6.543 4.58-12.166 12.366-15.397 17.439 1.698-10.529.997-16.458.962-16.744-.069-.548-.563-.93-1.116-.868-.547.068-.937.567-.869 1.115.01.079.936 8.03-1.986 21.668-.104.487.167.978.635 1.148.467.173.991-.027 1.226-.468.079-.148 8.01-14.872 17.691-21.652.453-.316.563-.94.246-1.392-.194-.279-.505-.427-.82-.427" fill="#77b255" transform="translate(26.999 13)"/><path d="m0 0c-3.476-.96-5.05-2.546-10.75-.667-4.72 1.557-7.04 4.207-6.345 6.305.692 2.097 3.18 3.163 7.901 1.606 4.749-1.566 4.123-3.465 9.194-7.244" fill="#5c913b" transform="translate(27.547 28.18)"/><path d="m0 0c0-4.418-3.582-8-8-8-4.418 0-8 3.582-8 8 0 4.418 3.582 8 8 8 4.418 0 8-3.582 8-8" fill="#be1931" transform="translate(35 9)" id="1"/><use transform="translate(-15)" xlink:href="#1"/></g></g></svg>