<svg xmlns="http://www.w3.org/2000/svg" viewBox="0 0 47.5 47.5" enable-background="new 0 0 47.5 47.5"><defs><clipPath id="0"><path d="m0 38h38v-38h-38v38"/></clipPath></defs><g transform="matrix(1.25 0 0-1.25 0 47.5)"><path d="m0 0l13 13 13-13v-16h-26v16" fill="#ffe8b6" transform="translate(6 19)"/><g fill="#ffcc4d"><path d="m6 3h1v16h-1v-16"/><path d="m31 3h1v16h-1v-16"/></g><g clip-path="url(#0)"><path d="m0 0c-.256 0-.512.098-.707.293l-12.293 12.293-12.293-12.293c-.391-.391-1.023-.391-1.414 0-.391.391-.391 1.023 0 1.414l13 13c.391.391 1.023.391 1.414 0l13-13c.391-.391.391-1.023 0-1.414-.195-.195-.451-.293-.707-.293" fill="#66757f" transform="translate(32 18)"/><path d="m21 3h-4v8h4v-8" fill="#c1694f"/><g fill="#55acee"><path d="m14 15h-4v4h4v-4"/><path d="m28 15h-4v4h4v-4"/><path d="m21 15h-4v4h4v-4"/><path d="m14 7h-4v4h4v-4"/><path d="m28 7h-4v4h4v-4"/></g><path d="m0 0c0-.553-.447-1-1-1h-28c-.552 0-1 .447-1 1 0 .553.448 1 1 1h28c.553 0 1-.447 1-1" fill="#bcbec0" transform="translate(34 2)"/></g></g></svg>