<svg xmlns="http://www.w3.org/2000/svg" viewBox="0 0 47.5 47.5" enable-background="new 0 0 47.5 47.5"><defs><clipPath id="0"><path d="m0 38h38v-38h-38v38"/></clipPath></defs><g transform="matrix(1.25 0 0-1.25 0 47.5)"><g clip-path="url(#0)"><path d="m0 0c-2 0-2-2-2-2v-20c0 0 0-2 2-2h32c2 0 2 2 2 2v20c0 0 0 2-2 2h-32" fill="#cbb8e9" transform="translate(3 32)"/><path d="m24 7.937h-10v24.06h10v-24.06" fill="#9aaab4"/><path d="m0 0c.439 0 .755-.228.755-.72 0-.492-.316-.72-.755-.72h-1.915c.053-.299.123-.632.123-1.16 0-.825-.544-2.089-1.51-2.95h5.919c.44 0 .756-.228.756-.72 0-.492-.316-.721-.756-.721h-7.03c-.491 0-.93.123-.93.739 0 .753 2 1.579 2 3.67 0 .316-.018.755-.123 1.142h-1.774c-.439 0-.755.228-.755.72 0 .492.316.72.755.72h1.352c-.421.755-.86 1.581-.86 2.511 0 1.845 1.809 3.11 3.793 3.11 2.091 0 4.02-1.722 4.02-3.11 0-.474-.298-.755-.737-.755-1.176 0-.562 2.424-3.267 2.424-1.142 0-2.266-.615-2.266-1.774 0-.931.527-1.633.931-2.406h2.266" fill="#67757f" transform="translate(9.02 24.991)"/></g></g></svg>