<svg xmlns="http://www.w3.org/2000/svg" viewBox="0 0 47.5 47.5" enable-background="new 0 0 47.5 47.5"><defs><clipPath id="0"><path d="m0 38h38v-38h-38v38"/></clipPath><clipPath id="1"><path d="m11 16c-2.209 0-3-1.791-3-4v-4c0-2.209.791-4 3-4h25c2.209 0-4 3.791-4 6 0 2.209 6.209 6 4 6h-25"/></clipPath><clipPath id="2"><path d="m11 32c-2.209 0-3-1.791-3-4v-4c0-2.209.791-4 3-4h25c2.209 0-4 3.791-4 6 0 2.209 6.209 6 4 6h-25"/></clipPath></defs><g transform="matrix(1.25 0 0-1.25 0 47.5)"><path d="m6 1h-2v33h2v-33" fill="#ccd6dd"/><g clip-path="url(#0)"><path d="m0 0c0-1.657-1.343-3-3-3-1.657 0-3 1.343-3 3 0 1.657 1.343 3 3 3 1.657 0 3-1.343 3-3" fill="#f4900c" transform="translate(8 34)"/><path d="m0 0h-5c-.552 0-1 .447-1 1 0 .553.448 1 1 1h5c.552 0 1-.447 1-1 0-.553-.448-1-1-1" fill="#66757f" transform="translate(10 9)"/><g fill="#dd2e44"><path d="m0 0c0-1.656-2.463-3-5.5-3-3.038 0-5.5 1.344-5.5 3 0 1.656.462 4 3.5 4 3.037 0 7.5-2.344 7.5-4" transform="translate(28 15)"/><path d="m0 0c0-2.209 6.209-6 4-6h-25c-2.209 0-3 1.791-3 4v4c0 2.209.791 4 3 4h25c2.209 0-4-3.791-4-6" transform="translate(32 10)"/></g><path d="m0 0c0-1.656-1.343-3-3-3-1.657 0-3 1.344-3 3 0 1.656 1.343 3 3 3 1.657 0 3-1.344 3-3" fill="#fff" transform="translate(16 12)"/><path d="m0 0c0-.828-.671-1.5-1.5-1.5-.829 0-1.5.672-1.5 1.5 0 .828.671 1.5 1.5 1.5.829 0 1.5-.672 1.5-1.5" transform="translate(14 12.5)"/></g><g clip-path="url(#1)"><path d="m0 0c2-2 7-7 0-14 4-1 10-1.458 16-1 6 .458 6 4.75 6 7.209 0 2.457 6 7.791-1 8.791-7 1-21-1-21-1" fill="#f4abba" transform="translate(16 17)"/></g><g clip-path="url(#0)"><path d="m0 0h-5c-.552 0-1 .448-1 1 0 .552.448 1 1 1h5c.552 0 1-.448 1-1 0-.552-.448-1-1-1" fill="#66757f" transform="translate(10 25)"/><g fill="#55acee"><path d="m0 0c0-1.657-2.463-3-5.5-3-3.038 0-5.5 1.343-5.5 3 0 1.657.462 4 3.5 4 3.037 0 7.5-2.343 7.5-4" transform="translate(28 31)"/><path d="m0 0c0-2.209 6.209-6 4-6h-25c-2.209 0-3 1.791-3 4v4c0 2.209.791 4 3 4h25c2.209 0-4-3.791-4-6" transform="translate(32 26)"/></g><path d="m0 0c0-1.657-1.343-3-3-3-1.657 0-3 1.343-3 3 0 1.657 1.343 3 3 3 1.657 0 3-1.343 3-3" fill="#fff" transform="translate(16 28)"/><path d="m0 0c0-.829-.671-1.5-1.5-1.5-.829 0-1.5.671-1.5 1.5 0 .829.671 1.5 1.5 1.5.829 0 1.5-.671 1.5-1.5" transform="translate(14 28.5)"/></g><g clip-path="url(#2)"><path d="m0 0c2-2 7-7 0-14 4-1 10-1.458 16-1 6 .458 6 4.75 6 7.208 0 2.459 6 7.792-1 8.792-7 1-21-1-21-1" fill="#bbddf5" transform="translate(16 33)"/></g></g></svg>