<svg xmlns="http://www.w3.org/2000/svg" viewBox="0 0 47.5 47.5" enable-background="new 0 0 47.5 47.5"><defs><clipPath id="0"><path d="m0 38h38v-38h-38v38"/></clipPath><clipPath id="1"><path d="m5.847 37c-3.793 0-9.128-11 1.012-28 .151-.253.823-.776 1.014-1 .193-.225-.297 1 .002 1h4.056c.56 0 1.325.541 1.015 1-14.2 20.917-2.622 25.09-2.587 25.11.418.209.637.675.528 1.125-.109.45-.515.768-.983.768h-4.057"/></clipPath><clipPath id="2"><path d="m28.23 37c-.461 0-.863-.318-.97-.768-.108-.45.109-.916.521-1.125.034-.018 11.451-4.19-2.55-25.11-.307-.459.448-1 1-1h3.999c.295 0-.187-1.225.002-1 .19.224.852.747 1 1 10 17 4.737 28 .998 28h-4"/></clipPath></defs><g transform="matrix(1.25 0 0-1.25 0 47.5)"><g clip-path="url(#0)"><path d="m0 0c.559 0 1.325.541 1.014 1-14.199 20.917-2.621 25.09-2.587 25.11.418.209.638.675.529 1.125-.109.45-.516.768-.984.768h-4.056c-3.793 0-9.129-11 1.01-28 .152-.253.823-.775 1.014-1 .193-.225-.296 1 .002 1h4.057" fill="#c1694f" transform="translate(11.932 9)"/></g><g clip-path="url(#1)"><path d="m0 0c.56 0 1.325.541 1.015 1-14.2 20.917-2.622 25.09-2.587 25.11.418.209.637.675.529 1.125-.109.45-.517.768-.985.768h-6.086c-3.792 0-8.113-11 2.044-26.836.158-.248.033-.586.225-.81.193-.225.476-.354.775-.354h5.07" fill="#662113" transform="translate(13.96 7)"/></g><g clip-path="url(#0)" fill="#c1694f"><path d="m0 0c-.561 0-1.014.448-1.014 1 0 3.316-2.028 5-4.056 5-.47 0-.08.782.029 1.232.109.45.515.768.984.768h5.071c3.791 0 4.938-6.136 5.057-6.835.049-.29-.034-.587-.226-.811-.194-.225-.477-.354-.775-.354h-5.07" transform="translate(10.916 29)"/><path d="m0 0c-.552 0-1.307.541-1 1 14 20.917 2.585 25.09 2.551 25.11-.412.209-.629.675-.522 1.125.108.45.509.768.971.768h4c3.74 0 9-11-.998-28-.148-.253-.811-.775-1-1-.189-.225.293 1-.002 1h-4" transform="translate(26.23 9)"/></g><g clip-path="url(#2)"><path d="m0 0c-.552 0-1.307.541-1 1 14 20.917 2.585 25.09 2.551 25.11-.412.209-.629.675-.522 1.125.108.45.509.768.971.768h6c3.739 0 8-11-2.02-26.836-.156-.248-.033-.586-.222-.81-.19-.225-.469-.354-.764-.354h-5" fill="#662113" transform="translate(24.23 7)"/></g><g clip-path="url(#0)"><path d="m0 0c.553 0 1 .448 1 1 0 3.316 2 5 4 5 .463 0 .078.782-.029 1.232-.108.45-.508.768-.971.768h-5c-3.738 0-4.869-6.136-4.986-6.835-.049-.29.033-.587.222-.811.192-.225.471-.354.764-.354h5" fill="#c1694f" transform="translate(27.23 29)"/><path d="m0 0c0 0 0-4 4-4h16c0 0 4 0 4 4v22c0 0 0 4-4 4h-16c-4 0-4-4-4-4v-22" fill="#be1931" transform="translate(7 5)"/><path d="m0 0h-12c-2.201 0-3 1.794-3 3v14c0 .552.448 1 1 1 .552 0 1-.448 1-1v-14c.012-.45.195-1 1-1h12c.45.012 1 .194 1 1v14c0 .552.447 1 1 1 .553 0 1-.448 1-1v-14c0-2.201-1.794-3-3-3" fill="#a0041e" transform="translate(25 9)"/><path d="m0 0c0 0 0 1 1 1h2c0 0 1 0 1-1v-5c0 0 0-1-1-1h-2c0 0-1 0-1 1v5" fill="#fff" transform="translate(17 12)"/></g></g></svg>