<svg xmlns="http://www.w3.org/2000/svg" viewBox="0 0 47.5 47.5" enable-background="new 0 0 47.5 47.5"><defs><clipPath id="0"><path d="m0 38h38v-38h-38v38"/></clipPath></defs><g transform="matrix(1.25 0 0-1.25 0 47.5)"><g clip-path="url(#0)"><path d="m0 0c0-2.209-1.791-4-4-4h-28c-2.209 0-4 1.791-4 4v28c0 2.209 1.791 4 4 4h28c2.209 0 4-1.791 4-4v-28" fill="#dd2e44" transform="translate(37 5)"/><path d="m0 0c.467 0 .754-.442.754-.962 0-.546-.287-.962-.754-.962h-10.531c-.494 0-.754.416-.754.962 0 .52.26.962.754.962h10.531m.363-13.157c.546 0 .832.156.832.728v4.992c0 .573-.286.729-.832.729h-11.259c-.545 0-.805-.156-.805-.729v-4.992c0-.572.26-.728.805-.728h11.259zm.598 8.32c1.586 0 2.314-.676 2.314-2.234v-5.721c0-1.586-.728-2.236-2.314-2.236h-12.428c-1.587 0-2.314.65-2.314 2.236v5.721c0 1.558.727 2.234 2.314 2.234h12.428m-6.292 12.923c.572 0 1.144-.208 1.482-.624 2.783-3.614 6.267-6.06 10.271-7.956.416-.182.624-.546.624-.936 0-.156-.026-.338-.105-.52-.181-.39-.572-.65-.988-.65-.155 0-.338.026-.493.104-4.212 2.132-8.06 5.174-10.453 8.32-.13.156-.234.234-.338.234-.104 0-.208-.078-.312-.208-2.34-3.198-6.344-6.474-10.348-8.346-.156-.078-.338-.13-.494-.13-.39 0-.729.208-.937.624-.077.156-.103.312-.103.468 0 .39.234.78.65.962 4.056 1.924 7.488 4.654 10.04 8.03.338.416.936.624 1.508.624" fill="#fff" transform="translate(24.26 22.587)"/></g></g></svg>