<svg xmlns="http://www.w3.org/2000/svg" viewBox="0 0 47.5 47.5" enable-background="new 0 0 47.5 47.5"><path d="m0 0l-4-8.03-5 5.02v-7.02l-10 2.01 8-8.03-11-6.02h12l-6-12.04 12 8.03 11-10.03-3 14.05h10l-8 6.02 8 9.03-12-3.01-2 10.04" fill="#bb1a34" transform="matrix(1.25 0 0-1.25 28.75 1.25)"/><path d="m0 0l1.86.467 5.226 1.311-3.381-3.816-1.319-1.49 1.59-1.195 2.924-2.202h-3.656-2.261l.473-2.219 1.551-7.259-5.845 5.332-1.057.964-1.187-.795-5.24-3.506 2.405 4.828 1.323 2.655h-2.958-3.799l3.76 2.059 2.145 1.172-1.727 1.735-3.044 3.053 3.221-.646 2.186-.439v2.238 1.991l1.45-1.455 1.794-1.8 1.133 2.277 1.273 2.556" fill="#fcab40" transform="matrix(1.25 0 0-1.25 29.893 17.405)"/><path d="m0 0l.768.192 2.157.541-1.396-1.575-.545-.615.657-.493 1.208-.909h-1.51-.934l.196-.916.64-2.997-2.413 2.201-.436.398-.491-.328-2.163-1.448.993 1.993.546 1.097h-1.22-1.569l1.553.849.885.485-.713.716-1.256 1.261 1.328-.267.903-.182v.924.822l.599-.6.74-.743.468.939.526 1.055" fill="#f5f8fa" transform="matrix(1.25 0 0-1.25 28.14 19.13)"/></svg>