<svg xmlns="http://www.w3.org/2000/svg" viewBox="0 0 47.5 47.5" enable-background="new 0 0 47.5 47.5"><defs><clipPath id="0"><path d="m0 38h38v-38h-38v38"/></clipPath></defs><g transform="matrix(1.25 0 0-1.25 0 47.5)"><g clip-path="url(#0)"><path d="m0 0c0-2.209-1.791-4-4-4h-28c-2.209 0-4 1.791-4 4v28c0 2.209 1.791 4 4 4h28c2.209 0 4-1.791 4-4v-28" fill="#3b88c3" transform="translate(37 5)"/><g fill="#fff"><path d="m0 0c1.694 0 2.508-.924 2.508-2.685v-9.571c0-1.76-.814-2.662-2.508-2.662h-12.476c-.528 0-.836.374-.836.946 0 .594.264.924.858.924h11.904c.858 0 1.078.242 1.078 1.034v9.131c0 .793-.22 1.012-1.078 1.012h-11.552c-.572 0-.836.33-.836.903 0 .594.264.968.858.968h12.08" transform="translate(15.735 25.919)"/><path d="m0 0c1.694 0 2.509-.924 2.509-2.685v-9.571c0-1.76-.815-2.662-2.509-2.662h-12.476c-.528 0-.836.374-.836.946 0 .594.264.924.858.924h11.904c.859 0 1.078.242 1.078 1.034v9.131c0 .793-.219 1.012-1.078 1.012h-11.552c-.572 0-.836.33-.836.903 0 .594.264.968.859.968h12.08" transform="translate(32.565 25.919)"/></g></g></g></svg>