<svg xmlns="http://www.w3.org/2000/svg" viewBox="0 0 47.5 47.5" enable-background="new 0 0 47.5 47.5"><defs><clipPath id="0"><path d="m0 38h38v-38h-38v38"/></clipPath></defs><g transform="matrix(1.25 0 0-1.25 0 47.5)"><g clip-path="url(#0)" fill="#67757f"><path d="m0 0h-21.525v1.873c0 1.045-.741 1.434-1.645.865l-10.14-6.389c-.905-.57-.922-1.527-.038-2.128l10.216-6.931c.883-.602 1.607-.235 1.607.811v1.899h21.525c1.104 0 2 .896 2 2v6c0 1.104-.896 2-2 2" transform="translate(35 34)"/><path d="m0 0c0 1.03.515 1.791 1.606 1.791h5.109c.989 0 1.462-.7 1.462-1.421 0-.7-.494-1.421-1.462-1.421h-3.625v-3.01h3.378c1.01 0 1.503-.699 1.503-1.42 0-.7-.515-1.42-1.503-1.42h-3.378v-3.131h3.81c.989 0 1.463-.701 1.463-1.421 0-.701-.495-1.422-1.463-1.422h-5.314c-.906 0-1.586.617-1.586 1.544v11.329" transform="translate(1.088 14.09)"/><path d="m0 0c0 1.029.659 1.606 1.544 1.606.392 0 1.03-.309 1.298-.679l6.529-8.712h.041v7.785c0 1.029.659 1.606 1.545 1.606.886 0 1.545-.577 1.545-1.606v-11.699c0-1.03-.659-1.607-1.545-1.607-.391 0-1.01.309-1.297.681l-6.53 8.608h-.041v-7.682c0-1.03-.659-1.607-1.545-1.607-.885 0-1.544.577-1.544 1.607v11.699" transform="translate(10.507 14.394)"/><path d="m0 0h2.08c2.656 0 3.872 1.957 3.872 4.429 0 2.636-1.235 4.55-4.078 4.55h-1.874v-8.979m-3.09 10.235c0 .949.659 1.586 1.586 1.586h3.419c4.612 0 7.249-2.965 7.249-7.537 0-4.326-2.801-7.127-7.04-7.127h-3.584c-.68 0-1.627.37-1.627 1.544v11.534z" transform="translate(27.836 4.055)"/></g></g></svg>