<svg xmlns="http://www.w3.org/2000/svg" viewBox="0 0 47.5 47.5" enable-background="new 0 0 47.5 47.5"><defs><clipPath id="0"><path d="m0 38h38v-38h-38v38"/></clipPath></defs><g transform="matrix(1.25 0 0-1.25 0 47.5)"><g clip-path="url(#0)"><path d="m0 0c-.138 4.657-.507 8-.942 8-.435 0-.804-3.343-.942-8h1.884" fill="#ffcc4d" transform="translate(6.942 4)"/><path d="m0 0c0-5.04-2.238-6.577-5-6.577-2.761 0-5 1.532-5 6.577 0 5.04 4 12.423 5 12.423 1 0 5-7.379 5-12.423" fill="#a6d388" transform="translate(17 16.577)"/><path d="m0 0c0-5.574-2.238-7.269-5-7.269-2.761 0-5 1.695-5 7.269 0 5.577 4 13.731 5 13.731 1 0 5-8.154 5-13.731" fill="#77b255" transform="translate(11 17.269)"/><path d="m0 0l13 13 13-13v-16h-26v16" fill="#ffe8b6" transform="translate(9 21)"/><path d="m23 5h-1v16h1v-16" fill="#fff"/><g fill="#ffcc4d"><path d="m10 5h-1v16h1v-16"/><path d="m34 5h1v16h-1v-16"/></g><g fill="#66757f"><path d="m0 0c-.256 0-.512.098-.707.293l-12.293 12.293-12.293-12.293c-.391-.391-1.023-.391-1.414 0-.391.391-.391 1.023 0 1.414l13 13c.391.391 1.023.391 1.414 0l13-13c.391-.391.391-1.023 0-1.414-.195-.195-.451-.293-.707-.293" transform="translate(35 20)"/><path d="m0 0c-.256 0-.512.098-.707.293-.391.391-.391 1.023 0 1.414l6.5 6.5c.391.391 1.023.391 1.414 0 .391-.391.391-1.023 0-1.414l-6.5-6.5c-.195-.195-.451-.293-.707-.293" transform="translate(22 20)"/></g><path d="m18 5h-4v6h4v-6" fill="#c1694f"/><g fill="#55acee"><path d="m30 7h-3v4h3v-4"/><path d="m26 7h2v4h-2v-4"/><path d="m31 7h-2v4h2v-4"/><path d="m18 16h-4v4h4v-4"/><path d="m31 16h-5v4h5v-4"/></g><path d="m0 0c0-1.104-.896-2-2-2h-32c-1.104 0-2 .896-2 2 0 1.104.896 2 2 2h32c1.104 0 2-.896 2-2" fill="#5c913b" transform="translate(37 3)"/><path d="m18 1h-4v4h4v-4" fill="#fff"/></g></g></svg>