<svg xmlns="http://www.w3.org/2000/svg" viewBox="0 0 47.5 47.5" enable-background="new 0 0 47.5 47.5"><defs><clipPath id="0"><path d="m0 38h38v-38h-38v38"/></clipPath></defs><g transform="matrix(1.25 0 0-1.25 0 47.5)"><g clip-path="url(#0)"><path d="m0 0c-.552 0-1 .448-1 1v11c0 .552.448 1 1 1 .552 0 1-.448 1-1v-11c0-.552-.448-1-1-1" fill="#ccd6dd" transform="translate(9 21)"/><g fill="#3b88c3"><path d="m0 0c0 2.236 4 6 7 6v-5c-1 0-4-1-5-2-1-1-2 0-2 1" transform="translate(3 4)"/><path d="m0 0c0 2.236-4 6-7 6v-5c1 0 4-1 5-2 1-1 2 0 2 1" transform="translate(17 4)"/><path d="m0 0c2 0 4-1 4-2 0-3-3.167-11.542-8.167-12.542-5-1 4.167 14.542 4.167 14.542" transform="translate(16 23)"/><path d="m0 0c-1-1-2-3-2-5 0-2 2.75 2.042 4 1 1.718-1.432-2 4-2 4" transform="translate(4 17)"/></g><path d="m0 0c1.5-.5 2.583-.125 3.667.75 1.083.875 1.25-2.542-.25-3.667-1.5-1.125-4.125-3.75-4.084-1.416.042 2.333.667 4.333.667 4.333" transform="translate(6.584 24.75)"/><path d="m0 0c-.574-.63-1.856-2.333-2.481-4.416-.875-.5-.833 1.208-.708 1.75.225.976.505.977.345 1.522-.21.551-.788.364-1.118.159-1.713-.984-3.061-2.814-3.061-6.01 0-5.522 5-13 7-13 2 0 7 7.478 7 13 0 5.509-3.979 6.992-6.977 6.999" fill="#55acee" transform="translate(10.02 25.999)"/><path d="m0 0c0-.829-.671-1.5-1.5-1.5-.829 0-1.5.671-1.5 1.5 0 .829.671 1.5 1.5 1.5.829 0 1.5-.671 1.5-1.5" transform="translate(14 21.5)"/><path d="m0 0c-1.504 0-2.829.538-4 1.149-.49.256-.679.861-.423 1.35.255.488.859.68 1.349.424 1.89-.988 3.59-1.385 5.735-.11.474.281 1.088.124 1.37-.35.281-.476.125-1.089-.35-1.371-1.334-.792-2.558-1.092-3.681-1.092" fill="#269" transform="translate(9.954 14.173)"/><path d="m0 0c-.494.247-1.042.958-.729 1.697 1.334 3.147 4.279 16.901 1.604 24.761-.501 1.473-2.118 3.66-4.08 4.863-6.337 3.887-15.806 1.758-17.13 1.096-.495-.249-2.044-.744-2.291-.25-.248.494.589 1 1.083 1.25 1.756.877 11.264 3.877 19.667-.792 1.5-.833 3.59-2.376 4.703-5.303 3.257-8.567 1.047-23.416-.787-26.822-.583-1.083-1.897-.571-2.041-.5" fill="#662113" transform="translate(30.834 1.75)"/><path d="m0 0c0-2.209-1.791-4-4-4-2.209 0-4 1.791-4 4 0 2.209 1.791 4 4 4 2.209 0 4-1.791 4-4" fill="#99aab5" transform="translate(33 12)"/><path d="m0 0c0-1.104-.896-2-2-2-1.104 0-2 .896-2 2 0 1.104.896 2 2 2 1.104 0 2-.896 2-2" fill="#66757f" transform="translate(31 12)"/></g></g></svg>