<svg xmlns="http://www.w3.org/2000/svg" viewBox="0 0 47.5 47.5" enable-background="new 0 0 47.5 47.5"><defs><clipPath id="0"><path d="m0 38h38v-38h-38v38"/></clipPath></defs><g transform="matrix(1.25 0 0-1.25 0 47.5)"><g clip-path="url(#0)"><path d="m0 0c0 4.841-3.924 8.764-8.764 8.764-2.937 0-5.53-1.45-7.121-3.667-1.59 2.217-4.183 3.667-7.12 3.667-4.841 0-8.765-3.923-8.765-8.764 0-.686.087-1.35.236-1.99 1.218-7.561 9.624-15.538 15.649-17.728 6.03 2.19 14.432 10.167 15.648 17.727.15.641.237 1.305.237 1.991" fill="#e75a70" transform="translate(34.885 21.236)"/><g fill="#fdcb58"><path d="m0 0c-.15 0-.303.034-.446.105-.494.248-.695.848-.448 1.342 1.016 2.031 3.793 5.196 7.283 5.588.549.061 1.043-.332 1.106-.882.062-.549-.333-1.044-.882-1.105-2.679-.302-4.928-2.917-5.717-4.495-.176-.351-.529-.553-.896-.553" transform="translate(2.499 25.959)"/><path d="m0 0c-.193 0-.388.056-.56.172-.457.31-.577.932-.267 1.389.935 1.381 2.894 2.909 4.682 3.02.553.043 1.026-.385 1.061-.936.034-.551-.385-1.026-.936-1.061-.96-.06-2.404-1.043-3.151-2.146-.193-.285-.508-.439-.829-.439" transform="translate(2.041 31.375)"/><path d="m0 0c-.367 0-.72.202-.896.553-.789 1.578-3.039 4.193-5.717 4.495-.549.061-.944.556-.882 1.105.061.549.549.946 1.106.882 3.49-.392 6.267-3.557 7.283-5.588.247-.494.046-1.094-.448-1.342-.143-.071-.296-.105-.446-.105" transform="translate(35.792 25.959)"/><path d="m0 0c-.32 0-.636.154-.829.439-.747 1.103-2.191 2.086-3.151 2.146-.551.035-.97.51-.936 1.061.034.552.51.981 1.061.936 1.788-.112 3.747-1.641 4.682-3.02.31-.457.191-1.079-.267-1.389-.172-.116-.367-.172-.56-.172" transform="translate(36.25 31.375)"/></g></g></g></svg>