<svg xmlns="http://www.w3.org/2000/svg" viewBox="0 0 47.5 47.5" enable-background="new 0 0 47.5 47.5"><defs><clipPath id="0"><path d="m0 38h38v-38h-38v38"/></clipPath></defs><g transform="matrix(1.25 0 0-1.25 0 47.5)"><g clip-path="url(#0)"><path d="m0 0c0-2.209-1.791-4-4-4h-28c-2.209 0-4 1.791-4 4v28c0 2.209 1.791 4 4 4h28c2.209 0 4-1.791 4-4v-28" fill="#3b88c3" transform="translate(37 5)"/><g fill="#fff"><path d="m0 0c0 2.904-1.512 5.521-4.513 5.521-3 0-4.512-2.617-4.512-5.521 0-2.929 1.464-5.521 4.512-5.521 3.049 0 4.513 2.592 4.513 5.521m-12.769 0c0 4.992 3.36 8.833 8.256 8.833 4.825 0 8.257-3.961 8.257-8.833 0-4.969-3.336-8.833-8.257-8.833-4.872 0-8.256 3.864-8.256 8.833" transform="translate(15.702 19.545)"/><path d="m0 0c0 .984.721 1.776 1.801 1.776 1.031 0 1.8-.672 1.8-1.776v-5.185l5.905 6.289c.264.288.719.672 1.39.672.913 0 1.778-.696 1.778-1.728 0-.624-.385-1.128-1.176-1.921l-4.537-4.464 5.545-5.785c.576-.576 1.01-1.103 1.01-1.824 0-1.128-.889-1.655-1.873-1.655-.696 0-1.151.407-1.825 1.128l-6.215 6.721v-6.122c0-.935-.72-1.727-1.8-1.727-1.032 0-1.801.672-1.801 1.727v13.874" transform="translate(20.932 26.458)"/></g></g></g></svg>