<svg xmlns="http://www.w3.org/2000/svg" viewBox="0 0 47.5 47.5" enable-background="new 0 0 47.5 47.5" xmlns:xlink="http://www.w3.org/1999/xlink"><defs><clipPath id="0"><path d="m0 38h38v-38h-38v38"/></clipPath></defs><g transform="matrix(1.25 0 0-1.25 0 47.5)"><g clip-path="url(#0)"><path d="m0 0v-27c0 0-19-8-12 1-3 0-6-1-6 2 0 3 4 5 4 5 0 0-7 0-1 8 0 0-6 2 2 7 0 0-6 6.072 7 3 0 0 0 5 2 5 2 0 4-4 4-4" transform="translate(19 33)"/><path d="m0 0v-27c0 0 19-8 12 1 3 0 6-1 6 2 0 3-4 5-4 5 0 0 7 0 1 8 0 0 6 2-2 7 0 0 6 6.02-7 3 0 0 0 5-2 5-2 0-4-4-4-4" transform="translate(19 33)"/><path d="m0 0c0 12.563 5.373 15.438 12 15.438 6.627 0 12-2.875 12-15.438 0-8.525-4.03-15.438-12-15.438-7.996 0-12 6.913-12 15.438" fill="#dd2e44" transform="translate(7 16.438)"/><g fill="#a0041e"><path d="m0 0h-1c-.553 0-1 .447-1 1 0 .553.447 1 1 1h1c.553 0 1-.447 1-1 0-.553-.447-1-1-1" transform="translate(21 11)"/><path d="m0 0h-1c-.552 0-1 .447-1 1 0 .553.448 1 1 1h1c.552 0 1-.447 1-1 0-.553-.448-1-1-1" transform="translate(18 11)"/></g><g fill="#ffac33"><path d="m0 0c.028.049.051.101.071.156.183.512-.047 1.08-.554 1.275-.027.01-2.377 1.093-5.377 7.448v.002.002c0 .058-.109.1-.143.151-.037.055-.084.117-.131.164-.09.089-.206.159-.321.209-.031.013-.075.013-.108.023-.089.028-.181.053-.275.055-.007 0-.014.004-.02.004-.049 0-.091-.021-.138-.028-.066-.008-.133-.006-.198-.029-.01-.004-.017-.012-.027-.015-.058-.023-.106-.061-.158-.094-.057-.035-.116-.065-.163-.11-.041-.038-.068-.086-.102-.13-.042-.056-.086-.109-.116-.173-.023-.048-.031-.101-.046-.154-.02-.071-.04-.141-.044-.216-.001-.018-.01-.033-.01-.051 0-.268.063-6.603 5.485-9.857.162-.097.339-.143.514-.143.176 0 .349.049.501.136.018-.009.035-.021.053-.03.143-.072.296-.106.446-.106.367 0 .72.202.896.553.157.316.132.675-.035.958" transform="translate(14.86 27.511)"/><path d="m0 0c-.004.075-.023.145-.044.216-.015.053-.023.107-.046.156-.029.062-.072.112-.113.167-.034.046-.063.096-.105.135-.046.043-.102.072-.156.106-.055.034-.104.074-.165.097-.01.004-.017.012-.026.016-.066.023-.131.02-.198.029-.045.007-.086.028-.134.028h-.003c-.007 0-.012-.004-.019-.004-.102-.002-.2-.028-.297-.06-.024-.009-.052-.008-.077-.018-.228-.097-.422-.279-.526-.524-2.726-6.359-5.392-7.442-5.398-7.445-.523-.175-.806-.741-.631-1.265.021-.065.048-.127.082-.184-.163-.281-.185-.635-.029-.947.176-.351.529-.553.896-.553.15 0 .302.034.446.106.019.009.034.021.053.03.152-.087.325-.136.501-.136.175 0 .352.047.513.143 5.423 3.254 5.486 9.59 5.486 9.858 0 .017-.009.032-.01.049" transform="translate(30.99 36.05)"/></g><path d="m0 0c-3.171 0-7.194 1.368-7.194 2.905 0 .408.229.778.597.963.177.089.371.132.597.132h12.238l.359-.132.549-.277.047-.686c0-1.537-4.02-2.905-7.193-2.905" transform="translate(19 4)"/><g fill="#ffac33"><path d="m0 0c-.552 0-1 .447-1 1 0 .553.448 1 1 1 .552 0 1-.447 1-1 0-.553-.448-1-1-1" transform="translate(14 6)"/><path d="m0 0c-.553 0-1 .447-1 1 0 .553.447 1 1 1 .553 0 1-.447 1-1 0-.553-.447-1-1-1" transform="translate(24 6)"/><path d="m0 0c-.553 0-1 .447-1 1v1c0 .553.447 1 1 1 .553 0 1-.447 1-1v-1c0-.553-.447-1-1-1" transform="translate(21 5)"/><path d="m0 0c-.552 0-1 .447-1 1v1c0 .553.448 1 1 1 .552 0 1-.447 1-1v-1c0-.553-.448-1-1-1" transform="translate(17 5)"/></g><path d="m0 0c-1.104 0-2 .896-2 2v3c0 1.104.896 2 2 2 1.104 0 2-.896 2-2v-3c0-1.104-.896-2-2-2" transform="translate(15 15)" id="1"/><use transform="translate(8)" xlink:href="#1"/></g></g></svg>