<svg xmlns="http://www.w3.org/2000/svg" viewBox="0 0 47.5 47.5" enable-background="new 0 0 47.5 47.5"><defs><clipPath id="0"><path d="m0 38h38v-38h-38v38"/></clipPath></defs><g transform="matrix(1.25 0 0-1.25 0 47.5)"><path d="m37 3h-36v-2h36v2" fill="#939598"/><g clip-path="url(#0)"><path d="m0 0h33v27c0 0-29-1-36-15.999-2.115-4.531 6-6 6-6l-3-5" fill="#bcbec0" transform="translate(4 2)"/><path d="m0 0l-15-7h-8.31c-.584-3.749 6.31-5 6.31-5l-3-5h33v19.709l-13-2.709" fill="#3b88c3" transform="translate(24 19)"/><path d="m0 0l2 3h20v-3h-22" fill="#231f20" transform="translate(15 2)"/><path d="m0 0c-4.347-.358-13.388-1.62-19.581-6.04-5.604-4-11.877-3.899-16.03-3.829-.135.002-.261.004-.39.006-.347-.748-.411-1.41-.283-1.998.214-.003.411-.004.64-.008.553-.009 1.155-.019 1.799-.019 4.185 0 10.11.42 15.429 4.221 5.231 3.735 13.453 5.241 18.419 5.672v1.999" fill="#e6e7e8" transform="translate(37 22.858)"/><path d="M 0,0 3.878,4.929 C 8.727,6.868 17,7.98 24,7.98 l 0,-2 C 17,5.98 6,4 0,0" fill="#a7a9ac" transform="translate(13 21)"/><path d="m0 0c1.672.392 3.617.723 5.44 1.65 9.465 4.815 10.473 7.798 10.465 7.815-7 0-12-4-15.905-9.465" fill="#58595b" transform="translate(4.095 17.535)"/><path d="m0 0l-.001-.001h30v2h-34.887c1.875-1.452 4.887-1.999 4.887-1.999" fill="#269" transform="translate(7 7)"/><path d="m0 0c.47-.034 1.013-.019 1.591.06 1.642.221 2.913.845 2.839 1.393-.074.541-1.435.803-3.052.594-.649-.631-1.121-1.325-1.378-2.047" fill="#ffe8b6" transform="translate(4.549 14.856)"/></g></g></svg>