<svg xmlns="http://www.w3.org/2000/svg" viewBox="0 0 47.5 47.5" enable-background="new 0 0 47.5 47.5"><defs><clipPath id="0"><path d="m0 38h38v-38h-38v38"/></clipPath></defs><g transform="matrix(1.25 0 0-1.25 0 47.5)"><g clip-path="url(#0)"><path d="m0 0c-2.209 0-4-1.791-4-4v-18c0-2.209 1.791-4 4-4h28c2.209 0 4 1.791 4 4v18c0 0 0 4-4 4h-28" fill="#ccd6dd" transform="translate(5 33)"/><path d="m37 21.937h-36v6.06h36v-6.06" fill="#67757f"/><path d="m33 12h-28v8h28v-8" fill="#f5f8fa"/><path d="m0 0c-.15 0-.303.034-.446.105-.494.248-.695.848-.448 1.342.094.186 2.318 4.553 5.895 4.553.815 0 1.256-.356 1.482-.655.586-.772.299-1.795.046-2.699-.048-.171-.114-.407-.16-.612.816.132 1.672.634 2.44 1.084.842.492 1.506.882 2.192.882 1.456 0 1.809-1.204 1.96-1.719.024-.084.058-.196.087-.277.756.033 1.614.507 2.522 1.01 2.19 1.207 5.189 2.861 9.06-.231.431-.345.501-.974.156-1.406-.345-.43-.972-.502-1.406-.156-2.822 2.26-4.684 1.23-6.84.042-1.123-.62-2.284-1.261-3.535-1.261-1.456 0-1.809 1.204-1.959 1.719-.024.079-.054.182-.083.261-.262-.074-.762-.368-1.139-.588-1.059-.621-2.376-1.392-3.819-1.392-.741 0-1.149.333-1.361.612-.554.731-.291 1.668-.037 2.575.063.223.154.547.199.792-2.255-.241-3.89-3.393-3.906-3.426-.176-.351-.529-.553-.896-.553" fill="#9aaab4" transform="translate(6.999 13)"/></g></g></svg>