<svg xmlns="http://www.w3.org/2000/svg" viewBox="0 0 47.5 47.5" enable-background="new 0 0 47.5 47.5" xmlns:xlink="http://www.w3.org/1999/xlink"><defs><clipPath id="0"><path d="m0 38h38v-38h-38v38"/></clipPath></defs><g transform="matrix(1.25 0 0-1.25 0 47.5)"><g clip-path="url(#0)"><path d="m0 0v-3c0 0 0-3 3-3 3 0 3 3 3 3v3h-6" fill="#dd2e44" transform="translate(16 7)"/><g fill="#272b2b"><path d="m0 0c.041 3-14 2-14-8 0-4 0-14 3-14 4 0 10.945 18 11 22" transform="translate(15 35)"/><path d="m0 0c-.041 3 14 2 14-8 0-4 0-14-3-14-4 0-10.945 18-11 22" transform="translate(23 35)"/></g><path d="m0 0c0-7-4-7-4-7h-18c0 0-4 0-4 7 0 0 1 22 13 22 12 0 13-22 13-22" fill="#ccd6dd" transform="translate(32 15)"/><path d="m0 0v.025h-10v-.025c-2.803-.253-5-2.606-5-5.475 0-3.037 2.462-5.5 5.5-5.5 1.862 0 3.505.928 4.5 2.344.995-1.416 2.638-2.344 4.5-2.344 3.038 0 5.5 2.463 5.5 5.5 0 2.869-2.196 5.222-5 5.475" fill="#8899a6" transform="translate(24 14.975)"/><path d="m0 0c0 0 0 2 2 2 2 0 2-2 2-2v-2c0 0 0-2-2-2-2 0-2 2-2 2v2" fill="#272b2b" transform="translate(12 21)" id="1"/><use transform="translate(10)" xlink:href="#1"/><path d="m0 0c-1-1 2-4 3-4 1 0 4 3 3 4-1 1-5 1-6 0" fill="#272b2b" transform="translate(16 13)"/></g></g></svg>