<svg xmlns="http://www.w3.org/2000/svg" viewBox="0 0 47.5 47.5" enable-background="new 0 0 47.5 47.5"><defs><clipPath id="0"><path d="m0 38h38v-38h-38v38"/></clipPath></defs><g transform="matrix(1.25 0 0-1.25 0 47.5)"><g clip-path="url(#0)"><path d="m0 0c0 3.918-1.515 7.474-3.975 10.146.271 1.728 1.029 3.908 2.975 5.854.704.704.25 2-1 2 0 0-6.06-.007-9.893-3.327-1 .212-2.041.327-3.107.327-8 0-12-4-14-12-.444-1.778-.865-1.399-3-3-1.195-.896-2.117-3 1-3 3 0 5-1 9-1 1.827 0 3.424.352 4.849.717.058-1.588.491-3.611 2.151-4.717 2.354-1.569 2.367-1.897 3 0 .814 2.443.288 3.574-1.01 5.525.71-.004 1.377-.145 2.01-.525 2.697-1.618 2.191-4.108.685-6.374-2.905-3.396-5.939-.541-8.685.374-3 1-1-1 0-2 1-1 1.313-4 0-6-1.312-2 3 0 5 3 .011.017.021.028.032.045 7.801.455 13.968 6.02 13.968 13.955" fill="#3b88c3" transform="translate(35.559 19)"/><path d="m0 0c0-1.104-.896-2-2-2-1.104 0-2 .896-2 2 0 1.104.896 2 2 2 1.104 0 2-.896 2-2" fill="#292f33" transform="translate(16.12 23)"/></g></g></svg>