<svg xmlns="http://www.w3.org/2000/svg" viewBox="0 0 47.5 47.5" enable-background="new 0 0 47.5 47.5"><defs><clipPath id="0"><path d="m0 38h38v-38h-38v38"/></clipPath></defs><g transform="matrix(1.25 0 0-1.25 0 47.5)"><g clip-path="url(#0)"><path d="m0 0c0 0 4.687-1.807 6.761-.601 2.074 1.205 2.509 2.847 1.302 4.92-1.208 2.072-4.487 2.941-4.656 5.618 0 0-.264-4.319 1.977-5.787 3.172-2.08-.445-4.387-4.207-3.915-3.765.472-1.177-.235-1.177-.235" fill="#292f33" transform="translate(28.08 21.335)"/><g fill="#d99e82"><path d="m0 0c-.736-2.285-.349-6.01.794-6.378 1.141-.367 2.877 1.609 1.897 2.993-1.897 2.677-.778 4.546 1.504 3.811 2.284-.735 8.686 1.146 10.194 1.922 1.508.772-4.56.79-7.211.383-2.651-.407-4.116-.038-5.302-.815-1-.658-1.876-1.916-1.876-1.916" transform="translate(3.688 12.287)"/><path d="m0 0c1.38.986.593 3.799 2.96 3.408 2.366-.395 3.77-1.507 3.943 1.775.022.381.52-.013 1.317.614 8.218 6.462 1.05 6.288 1.05 6.288-2.762-1.974-5.698-5.114-4.733-6.509.507-.731-2.562-.79-3.745-.592-1.183.197-2.762-1.974-2.959-3.157-.196-1.181.788-2.812 2.167-1.827" transform="translate(18.792 4.856)"/></g><path d="m0 0c.006 1.129-1.757 4.602-5.294 4.602-3.6 0-5.998-1.199-8.397-1.199-2.399 0-3.939-1.449-5.139 3.348-.919 3.68-3.401 5.201-7 4 0 0-3.455 2.248-2.255 1.048.494-.494.706-.994.762-1.459-2.103-1.257-1.131-3.416-2.253-4.539-.848-.847-1.199-1.199-1.199-2.398 0-.991 1.629-1.15 2.875-.505.723 1.704.353 1.057 1.473 1.707 1.029.017 1.94.151 1.94 1.196 0 0 1.2 0 1.2-2.398 0-1.144-1.083-2.292.893-5.513 0 0 1.19-1.911.836-2.581-1.254-2.371-1.533-5.04-2.507-5.743-.977-.698.419-2.648.419-2.648 1.395-1.952 4.742-2.508 5.718-1.812.976.699.278 1.675-1.395 1.955-1.673.275-5.02.833-3.07 2.227 1.952 1.397 3.287 1.79 3.563 3.463.079.469 2 1 2 1 0 0 2-1 4.337.055 2.043.922 4.481 2.09 6.722.414l.069.039c-.713-1.535-.968-2.893-.275-3.477.683-.573-2.265-1.434-3.46-1.553-1.193-.123-2.147-2.628-2.027-3.821.121-1.193 1.748-2.7 2.82-1.387 1.074 1.314-2.107 3.162 1.714 4.254 2.307.66 4.03-.466 3.341 2.746-.081.374.068.786.693 1.586 3.284 4.216 2.888 6.263 2.896 7.393" fill="#c1694f" transform="translate(31.829 18.249)"/><path d="m0 0c-1.959-.354-3.571-.879-5.17-.879-1.064 0-1.888.017-2.585.436.058-1.778.558-3.676 2.476-6.282.423-.093.857-.152 1.307-.152 2.4 0 3.599 1.199 5.997 2.398-1.319 1.954-1.615 2.739-2.025 4.479" fill="#cbb7ea" transform="translate(23.309 22.531)"/><path d="m0 0c2.399 2.399 4.428 1.897 6.323 0 2.4-2.398 1.334-4.922 4.147-6.82 1.26-.85-2.74-.85-3.599 3.599-.509 2.633-3.383 3.898-6.871 3.221" fill="#292f33" transform="translate(5.27 28.671)"/><g fill="#ffac33"><path d="m0 0c-.128 0-.256.049-.354.146-.195.196-.195.512 0 .708l4 4c.196.195.512.195.708 0 .195-.196.195-.512 0-.708l-4-4c-.098-.097-.226-.146-.354-.146" transform="translate(3 22.501)"/><path d="m0 0c-.198 0-.386.119-.464.314l-2 5c-.103.257.022.548.278.65.254.103.547-.022.65-.278l2-5c.103-.257-.022-.548-.278-.65-.061-.025-.124-.036-.186-.036" transform="translate(8 23.501)"/></g><path d="m0 0c-.698-.674.878-1.429 1.13-2.391.175-.663 1.372-.023 1.372-.023 0 0 1.295.323 2.682-.332 1.32-.624 2.66-.383 2 1-.664 1.382-3.41.704-3.446 2.075-.092 3.281-3.738-.329-3.738-.329" fill="#d99e82" transform="translate(12.816 29.747)"/><path d="m0 0c-.352-1.032-.977.454-.728 1.184.35 1.03 1.778 1.911 2.858 1.758 1.077-.151 1.807-1.337 1.456-2.367-.248-.729.013-1.623-.715-.44-.728 1.184-.716-.44-1.079.152-.365.592-1.792-.287-1.792-.287" fill="#b39155" transform="translate(13.05 29.369)"/><path d="m0 0c-.629 0-.762-.321-.971.307-.261.786.185.931.971 1.193l1 1c-.672 1.17-2.305 3.219-2.5 4-.5 2-.5 3 3.571 4.796-.033.04-.076.088-.132.144-1.732 1.732-2.939-.94-4.939.06-.74.37.422-.525-1 1-.565.606.213 1.739 1 2 3.951 1.319 5.864 1.258 8.06-.939 1.083-1.083.939-2.397.939-3.061 0-3-5-2-4.501-4 .069-.362.889-1.876 1.749-3.168.26-.389.903-1.39.752-1.832-.151-.442-1.082-.274-1.525-.423l-2-1c-.159-.053-.319-.077-.475-.077" fill="#d1d3d4" transform="translate(21 14.5)"/><path d="m0 0c1.631-.9 3.14.776 4.478-.061l2.828 2.122c-.055 1.939-5.061 3.939-8.642 1.362-.632-.455-1.08-1.135-.86-1.897.441-1.526 1.526-1.156 2.196-1.526" fill="#5c913b" transform="translate(18.755 26)"/><path d="m0 0l-2.198-1.279c.457-.622.924-1.243 1.198-1.721l-1-1c-.786-.262-1.232-.408-.971-1.194.209-.628.342-.306.971-.306.156 0 .316.024.475.077l2 1c.443.148 1.374-.02 1.525.423.151.442-.492 1.443-.752 1.832-.404.607-.936 1.605-1.248 2.168" fill="#231f20" transform="translate(23 20)"/><path d="m0 0c-2 0-2 .448-2 1 0 .552 1.448 1 2 1 1.984 0 2.276.285 2.303.317.09.198-.147.371-1.303 2.683-.247.494.059 1.647.553 1.895.495.248 1.094.045 1.342-.448 1.129-2.258 1.869-3.952 1.107-5.184-.648-1.048-2.068-1.263-4-1.263" fill="#a6d388" transform="translate(16 22)"/><path d="m0 0c-2 1-2-.448-2-1 0-.552 0-1 2-1v2" fill="#d99e82" transform="translate(16 24)"/><path d="m0 0c1.205.741 2.409 1.482 4.123.045 1.084-.908.509-2.177-.464-1.945-.972.232-1.945.463-3.15-.277-1.204-.741-1.714 1.436-.509 2.177" fill="#9266cc" transform="translate(12.457 31.771)"/><path d="m0 0c-.266 0-.487.209-.499.477-.013.276.201.51.477.523l10.999.5c.281.021.51-.201.523-.477.012-.275-.201-.509-.477-.522l-11-.501h-.023" fill="#ffcc4d" transform="translate(3 22)"/></g></g></svg>