<svg xmlns="http://www.w3.org/2000/svg" viewBox="0 0 47.5 47.5" enable-background="new 0 0 47.5 47.5"><defs><clipPath id="0"><path d="m0 38h38v-38h-38v38"/></clipPath></defs><g transform="matrix(1.25 0 0-1.25 0 47.5)"><g clip-path="url(#0)"><path d="m0 0c0-2.209-1.791-4-4-4h-28c-2.209 0-4 1.791-4 4v28c0 2.209 1.791 4 4 4h28c2.209 0 4-1.791 4-4v-28" fill="#5c913b" transform="translate(37 5)"/><path d="m0 0v-2.782c0-.52.234-.65.728-.65h7.177c.494 0 .754.13.754.65v2.782h-8.659m8.659 4.213c0 .519-.26.649-.754.649h-7.177c-.494 0-.728-.13-.728-.649v-2.549h8.659v2.549zm-8.581 7.384c0-.962.416-1.118 4.784-1.118 3.692 0 4.291.234 4.629.78.181.286.338.858.416 1.586.051.468.338.702.832.702h.155c.546-.052.885-.364.885-.806v-.104c-.105-1.17-.339-2.132-.885-2.808-.649-.832-1.534-1.17-6.06-1.17-5.798 0-6.708.285-6.708 2.47v6.422c0 .468.364.728.962.728.572 0 .988-.26.988-.728v-2.574c3.172.416 6.839 1.352 9.205 2.366.181.078.338.104.493.104.364 0 .65-.234.807-.624.078-.182.103-.338.103-.468 0-.364-.208-.624-.598-.78-2.86-1.118-6.552-1.95-10.01-2.314v-1.664m8.398-5.02c1.404 0 2.107-.599 2.107-2.055v-7.67c0-1.43-.703-2.054-2.107-2.054h-8.294c-1.378 0-2.106.624-2.106 2.054v7.67c0 1.456.728 2.055 2.106 2.055h8.294m-12.168 6.708c.494 0 .754-.364.754-.884 0-.547-.26-.936-.754-.936h-2.314v-5.149c.754.261 1.482.52 2.08.781.156.051.26.078.39.078.312 0 .52-.182.65-.573.078-.156.104-.312.104-.441 0-.287-.156-.52-.52-.677-.78-.363-1.716-.754-2.704-1.091v-7.489c0-1.872-.728-2.444-2.6-2.444-.91 0-1.534.052-2.106.208-.442.104-.676.442-.676.91 0 .078 0 .156.026.26.077.442.363.728.779.728.079 0 .183 0 .261-.026.416-.104 1.014-.182 1.378-.182.832 0 1.014.156 1.014.911v6.473c-.962-.285-1.872-.546-2.678-.754-.104-.025-.183-.025-.261-.025-.442 0-.754.26-.858.779-.025.131-.051.235-.051.364 0 .416.234.676.65.728.961.234 2.08.52 3.198.858v5.773h-2.99c-.468 0-.728.389-.728.91 0 .546.26.91.728.91h2.99v4.394c0 .52.338.78.936.78.624 0 .988-.26.988-.78v-4.394h2.314" fill="#fff" transform="translate(18.793 12.588)"/></g></g></svg>