<svg xmlns="http://www.w3.org/2000/svg" viewBox="0 0 47.5 47.5" enable-background="new 0 0 47.5 47.5"><defs><clipPath id="0"><path d="m0 38h38v-38h-38v38"/></clipPath></defs><g transform="matrix(1.25 0 0-1.25 0 47.5)"><g clip-path="url(#0)"><path d="m0 0c0-9.389-7.611-17-17-17-9.389 0-17 7.611-17 17 0 9.389 7.611 17 17 17 9.389 0 17-7.611 17-17" transform="translate(35.999 19)"/><g fill="#fff"><path d="m0 0c-2.418 0-4.436 1.718-4.899 4h4.899.001c.116 0 .23.028.343.069.034.013.064.028.096.043.032.017.066.025.097.044.03.02.048.051.075.073.055.043.104.088.148.142.041.049.074.099.104.154.031.056.055.111.075.172.022.067.034.132.04.201.004.036.021.066.021.102 0 .027-.014.051-.016.078-.005.068-.02.132-.04.198-.019.066-.04.126-.071.186-.013.024-.015.052-.029.075l-2.623 4.122c.554.212 1.15.341 1.779.341 2.762 0 5-2.238 5-5 0-2.762-2.238-5-5-5m-18 0c-2.761 0-5 2.238-5 5 0 2.762 2.239 5 5 5 .203 0 .396-.036.592-.06l-1.541-4.624c-.175-.524.108-1.09.632-1.264.105-.035.212-.052.317-.052.418 0 .809.265.948.684l1.543 4.628c1.493-.865 2.509-2.462 2.509-4.312 0-2.762-2.239-5-5-5m3.721 13h5.074l-2.111-5.913c-.569 1.822-1.866 3.319-3.546 4.164l.583 1.749m7.358-7h-2.66l2.5 7h.805l1.715-2.697c-1.251-1.077-2.114-2.589-2.36-4.303m3.451 2.589l1.648-2.589h-3.077c.205 1.01.717 1.901 1.429 2.589m3.47 3.411c-1.025 0-1.996-.226-2.873-.622l-3.066 4.818.03.085 2.203-.275c.03-.004.059-.006.089-.006.302 0 .575.192.672.485l.709 2.127c.095.287-.002.603-.242.788-.242.183-.574.194-.824.026-1.922-1.281-5.948-1.299-5.989-1.299-.374-.001-.684-.291-.707-.665-.023-.374.248-.701.62-.748l1.436-.179-.549-1.535h-6.176l-3.733 2.8c-.443.332 2.223-4.167 2.223-4.167l-.583-1.749c-.403.072-.816.116-1.24.116-3.866 0-7-3.134-7-7 0-3.866 3.134-7 7-7 3.53 0 6.442 2.615 6.922 6.01.026-.002.052-.014.078-.014h4.079c.487-3.391 3.397-6 6.921-6 3.867 0 7 3.134 7 7 0 3.866-3.133 7-7 7" transform="translate(28 10)"/><path d="m0 0h5c.552 0 1 .448 1 1 0 .552-.448 1-1 1h-5c-.552 0-1-.448-1-1 0-.552.448-1 1-1" transform="translate(10 28)"/></g><path d="m0 0c0 3.968 1.453 7.592 3.845 10.388l22.543-22.544c-2.796-2.391-6.42-3.844-10.388-3.844-8.836 0-16 7.164-16 16m32 0c0-3.968-1.453-7.591-3.845-10.388l-22.543 22.543c2.797 2.392 6.42 3.845 10.388 3.845 8.837 0 16-7.164 16-16m-16 18c-9.941 0-18-8.06-18-18 0-9.941 8.06-18 18-18 9.941 0 18 8.06 18 18 0 9.941-8.06 18-18 18" fill="#dd2e44" transform="translate(3 19)"/></g></g></svg>