<svg xmlns="http://www.w3.org/2000/svg" viewBox="0 0 47.5 47.5" enable-background="new 0 0 47.5 47.5"><defs><clipPath id="0"><path d="m0 38h38v-38h-38v38"/></clipPath></defs><g transform="matrix(1.25 0 0-1.25 0 47.5)"><g clip-path="url(#0)"><path d="m0 0c0 1.104-.896 2-2 2-1.104 0-2-.896-2-2 0 0-.011-3.285-3-3.894v2.894c0 6.075-4.925 11-11 11-6.075 0-11-4.925-11-11v-3.237c-5.222-1.569-7-7.994-7-11.763 0-1.104.896-2 2-2 1.104 0 2 .896 2 2 0 0 .002 3.54 3.336 3.958.502-4.841 1.618-9.958 3.664-9.958h1c4 0 3-2 7-2 4 0 3 2 6 2 3 0 2.395-2 6-2 1.657 0 3 1.343 3 3 0 .675-2.274 4.994-3.755 9.268 5.736 1.384 5.755 8.152 5.755 11.732" fill="#e1e8ed" transform="translate(37 26)"/><g fill="#292f33"><path d="m0 0c0-1.104-.896-2-2-2-1.104 0-2 .896-2 2 0 1.104.896 2 2 2 1.104 0 2-.896 2-2" transform="translate(16 25)"/><path d="m0 0c0-2.209-1.791-4-4-4-2.209 0-4 1.791-4 4 0 2.209 1.791 4 4 4 2.209 0 4-1.791 4-4" transform="translate(28 25)"/></g><path d="m0 0c0-1.104-.896-2-2-2-1.104 0-2 .896-2 2 0 1.104.896 2 2 2 1.104 0 2-.896 2-2" fill="#9aaab4" transform="translate(26 24)"/><path d="m0 0c2.65-1.987 3.591-5.211 2.1-7.199-1.492-1.989-4.849-1.989-7.5 0-2.651 1.987-3.591 5.211-2.1 7.199 1.491 1.989 4.849 1.988 7.5 0" fill="#292f33" transform="translate(23.19 17.509)"/></g></g></svg>