<svg xmlns="http://www.w3.org/2000/svg" viewBox="0 0 47.5 47.5" enable-background="new 0 0 47.5 47.5"><defs><clipPath id="0"><path d="m0 38h38v-38h-38v38"/></clipPath></defs><g transform="matrix(1.25 0 0-1.25 0 47.5)"><g clip-path="url(#0)"><path d="m0 0c0-9.389-7.611-17-17-17-9.389 0-17 7.611-17 17 0 9.389 7.611 17 17 17 9.389 0 17-7.611 17-17" fill="#ffcc4d" transform="translate(36 19)"/><path d="m0 0c-2.966 0-4.935.346-7.369.819-.557.107-1.638 0-1.638-1.637 0-3.276 3.763-7.37 9.01-7.37 5.244 0 9.01 4.094 9.01 7.37 0 1.637-1.082 1.745-1.638 1.637-2.433-.473-4.402-.819-7.369-.819" fill="#664500" transform="translate(19 15.15)"/><g fill="#e75a70"><path d="m0 0c-.859 2.431-3.524 3.707-5.956 2.85-1.476-.521-2.521-1.711-2.928-3.105-1.191.83-2.751 1.1-4.224.581-2.431-.858-3.708-3.525-2.85-5.956.122-.345.284-.663.472-.958 1.951-3.582 7.588-6.1 11-6.131 2.636 2.167 5.446 7.664 4.717 11.677-.038.348-.113.698-.233 1.042" transform="translate(17.65 33.719)"/><path d="m0 0c.859 2.431 3.525 3.707 5.956 2.85 1.477-.521 2.521-1.711 2.929-3.105 1.191.83 2.751 1.1 4.224.581 2.43-.858 3.707-3.525 2.85-5.956-.123-.345-.284-.663-.473-.958-1.951-3.582-7.588-6.1-11-6.131-2.636 2.167-5.445 7.664-4.716 11.677.038.348.113.698.232 1.042" transform="translate(20.35 33.719)"/></g></g></g></svg>