<svg xmlns="http://www.w3.org/2000/svg" viewBox="0 0 47.5 47.5" enable-background="new 0 0 47.5 47.5"><defs><clipPath id="0"><path d="m0 38h38v-38h-38v38"/></clipPath></defs><g transform="matrix(1.25 0 0-1.25 0 47.5)"><g clip-path="url(#0)"><path d="m0 0c0 5.45-4.418 9.868-9.867 9.868-3.308 0-6.227-1.633-8.02-4.129-1.79 2.496-4.71 4.129-8.02 4.129-5.45 0-9.868-4.418-9.868-9.868 0-.772.098-1.52.266-2.241 1.371-8.512 10.835-17.494 17.619-19.96 6.783 2.466 16.249 11.448 17.617 19.96.17.721.268 1.469.268 2.241" fill="#fdcb58" transform="translate(36.885 25.17)"/></g></g></svg>