<svg xmlns="http://www.w3.org/2000/svg" viewBox="0 0 47.5 47.5" enable-background="new 0 0 47.5 47.5"><defs><clipPath id="0"><path d="m0 38h38v-38h-38v38"/></clipPath></defs><g transform="matrix(1.25 0 0-1.25 0 47.5)"><g clip-path="url(#0)"><path d="m0 0c0-2.209-1.791-4-4-4h-28c-2.209 0-4 1.791-4 4v28c0 2.209 1.791 4 4 4h28c2.209 0 4-1.791 4-4v-28" fill="#3b88c3" transform="translate(37 5)"/><g fill="#fff"><path d="m0 0h3.609l-1.766 5.509h-.038l-1.805-5.509m-.209 6.896c.323.874 1.064 1.577 2.033 1.577 1.01 0 1.71-.665 2.032-1.577l3.724-10.334c.114-.305.152-.57.152-.704 0-.74-.608-1.253-1.311-1.253-.797 0-1.197.417-1.387.988l-.57 1.785h-5.281l-.57-1.766c-.19-.59-.589-1.01-1.367-1.01-.76 0-1.406.57-1.406 1.33 0 .303.095.531.133.627l3.818 10.334z" transform="translate(9.213 25.281)"/><path d="m0 0c1.387 0 4.084-.456 4.084-2.127 0-.685-.475-1.273-1.177-1.273-.779 0-1.311.665-2.907.665-2.355 0-3.571-1.995-3.571-4.313 0-2.261 1.235-4.198 3.571-4.198 1.596 0 2.242.798 3.02.798.854 0 1.253-.856 1.253-1.292 0-1.823-2.868-2.241-4.274-2.241-3.856 0-6.535 3.058-6.535 6.99 0 3.952 2.66 6.991 6.535 6.991" transform="translate(12.05 17.754)"/><path d="m0 0h2.241c1.027 0 1.786.589 1.786 1.652 0 .893-.684 1.501-2.01 1.501h-2.01v-3.153m0 5.661h1.48c.932 0 1.54.551 1.54 1.501 0 .893-.704 1.349-1.54 1.349h-1.48v-2.85zm-2.85 3.932c0 .912.627 1.425 1.5 1.425h3.648c1.975 0 3.571-1.33 3.571-3.343 0-1.33-.551-2.223-1.766-2.793v-.038c1.615-.228 2.887-1.576 2.887-3.229 0-2.679-1.785-4.123-4.407-4.123h-3.913c-.874 0-1.52.551-1.52 1.444v10.657" transform="translate(24.25 22.508)"/><path d="m0 0h1.918c2.451 0 3.572 1.805 3.572 4.084 0 2.432-1.14 4.198-3.761 4.198h-1.729v-8.282m-2.85 9.44c0 .875.608 1.463 1.463 1.463h3.154c4.254 0 6.686-2.735 6.686-6.952 0-3.989-2.583-6.573-6.496-6.573h-3.307c-.627 0-1.5.342-1.5 1.425v10.637z" transform="translate(23.748 6.622)"/></g></g></g></svg>