<svg xmlns="http://www.w3.org/2000/svg" viewBox="0 0 47.5 47.5" enable-background="new 0 0 47.5 47.5"><defs><clipPath id="0"><path d="m0 38h38v-38h-38v38"/></clipPath></defs><g transform="matrix(1.25 0 0-1.25 0 47.5)"><g clip-path="url(#0)"><path d="m0 0c-.799 5.542-5.186 9.78-12.563 9.78-.292 0-.621-.012-.963-.03-1.48-.058-2.961-.248-4.399-.56-.749-.144-1.508-.317-2.254-.514-.775 1.051-2.342 2.163-2.736 2.163-.512 0-.038-1.871-.006-3.052-.88-.35-1.684-.742-2.347-1.183-3.176-2.118-3.176-3.177-6.838-3.177-1.632 0-1.588-1.658-1.588-3.705 0-2.046-.044-2.618 1.588-3.707 2.183-1.456 4.731-3.613 7.952-5.386 2.024-3.147.326-6.261 2.063-6.261 1.227 0 2.807 1.964 3.648 3.944 1.787-.473 3.732-.768 5.88-.768 1.142 0 2.205.089 3.202.245.272-1.945-.16-3.421 1.035-3.421 1.555 0 6.998 4.994 8.218 11.29.059.287.103.582.141.882.012.09.029.18.038.271.021.199.031.404.041.608 1.047-.274 2.15-.692 2.15.175 0 .705-1.119 1.716-2.262 2.406" fill="#f4abba" transform="translate(34.738 16.632)"/><path d="m0 0c0-.584-.474-1.059-1.059-1.059-.584 0-1.058.475-1.058 1.059 0 .585.474 1.059 1.058 1.059.585 0 1.059-.474 1.059-1.059" fill="#292f33" transform="translate(11.588 20.06)"/></g></g></svg>