<svg xmlns="http://www.w3.org/2000/svg" viewBox="0 0 47.5 47.5" enable-background="new 0 0 47.5 47.5" xmlns:xlink="http://www.w3.org/1999/xlink"><defs><clipPath id="0"><path d="m0 38h38v-38h-38v38"/></clipPath><clipPath id="1"><path d="m4.523 33c-.841 0-1.523-.682-1.523-1.523v-22.477c0-.841 1.159-2 2-2h13.478c.84 0 1.522.682 1.522 1.522v22.955c0 .841-.682 1.523-1.522 1.523h-13.955"/></clipPath><clipPath id="2"><path d="m15.522 27c-.84 0-1.522-.681-1.522-1.523v-22.954c0-.842.682-1.523 1.522-1.523h13.956c.84 0 1.522.681 1.522 1.523v22.954c0 .842-.682 1.523-1.522 1.523h-13.956"/></clipPath></defs><g transform="matrix(1.25 0 0-1.25 0 47.5)"><g clip-path="url(#0)"><path d="m0 0c0-.841-.682-1.522-1.522-1.522h-13.478c-1 0-2 .681-2 1.855v22.955c0 .508.682 1.19 1.522 1.19h13.956c.84 0 1.522-.682 1.522-1.523v-22.955" fill="#ffcc4d" transform="translate(20 8.523)"/></g><g clip-path="url(#1)"><path d="m0 0c-1.021 0-1.875-.673-2.168-1.597-.158.044-.324.075-.497.075-.446 0-.853-.161-1.177-.418-.173 1.518-1.446 2.702-3.01 2.702-1.502 0-2.745-1.092-2.993-2.524-.236.15-.513.24-.814.24-.379 0-.722-.145-.989-.374-.454 1.111-1.542 1.896-2.817 1.896-1.682 0-3.046 3.807-3.046-3.045 0-1.682 1.364-3.046 3.046-3.046 1.275 0 2.363.785 2.817 1.897.267-.23.61-.374.989-.374.515 0 .97.257 1.245.65.541-.847 1.483-1.412 2.562-1.412.991 0 1.863.481 2.418 1.213.278-.708.963-1.213 1.77-1.213.723 0 1.343.408 1.666 1 .303-.149.639-.239.999-.239 1.262 0 2.284 1.023 2.284 2.284 0 3.807-1.022 2.284-2.284 2.284" fill="#ffac33" transform="translate(18.512 30.432)" id="3"/></g><g clip-path="url(#0)"><path d="m0 0c-.552 0-1 .447-1 1v11c0 .552.448 1 1 1 .552 0 1-.448 1-1v-11c0-.553-.448-1-1-1" fill="#ffac33" transform="translate(12 10)" id="4"/><use transform="translate(-5)" xlink:href="#4"/><path d="m0 0c0 2-1 3-3 3h-14c-2 0-3-1-3-3v-1.568c0-.073.012-.143.021-.213-.013-.387-.021-.818-.021-1.31 0-1.682 1.364-3.045 3.045-3.045 1.275 0 2.364.785 2.818 1.896.266-.23.61-.374.989-.374.515 0 .969.258 1.245.65.541-.846 1.483-1.411 2.562-1.411.99 0 1.862.48 2.418 1.213.277-.709.963-1.213 1.77-1.213.722 0 1.342.407 1.666 1 .302-.148.638-.239.999-.239 1.261 0 2.488 1.353 2.488 2.614.004.039 0 .392 0 .432v1.568" fill="#ccd6dd" transform="translate(21 32)"/><path d="m0 0v-12h4.557c0 0 1.443.204 1.443 1.727v8.273c0 1 0 2-2 2h-4m9-11.955c0-1.682-1.363-3.045-3.046-3.045h-5.908c-1.683 0-3.046 1.363-3.046 3.045v11.91c0 1.682 1.363 3.045 3.046 3.045h5.908c1.683 0 3.046-1.363 3.046-3.045v-11.91z" fill="#ffac33" transform="translate(28 21)"/><path d="m0 0c0-1-1-2-2-2h-13c-1 0-2 1-2 2v22.478c0 .84.682 1.522 1.522 1.522h13.956c.84 0 1.522-.682 1.522-1.522v-22.478" fill="#ffcc4d" transform="translate(31 3)"/></g><g clip-path="url(#2)"><use transform="translate(11-6)" xlink:href="#3"/></g><g clip-path="url(#0)"><path d="m0 0c0 2-1 3-3 3h-14c-2 0-3-1-3-3v-1.568c0-.073.012-.143.021-.213-.013-.387-.021-.818-.021-1.31 0-1.682 1.364-3.045 3.045-3.045 1.275 0 2.364.785 2.818 1.896.266-.23.61-.374.989-.374.515 0 .969.258 1.245.65.541-.846 1.483-1.411 2.562-1.411.99 0 1.862.48 2.418 1.213.277-.709.963-1.213 1.77-1.213.722 0 1.342.407 1.666 1 .302-.148.638-.239.999-.239 1.261 0 2.488 1.353 2.488 2.614.004.039 0 .392 0 .432v1.568" fill="#e1e8ed" transform="translate(32 26)"/><path d="m0 0c-.552 0-1 .447-1 1v11c0 .553.448 1 1 1 .552 0 1-.447 1-1v-11c0-.553-.448-1-1-1" fill="#ffac33" transform="translate(17 4)"/><path d="m0 0c-.553 0-1 .447-1 1v11c0 .553.447 1 1 1 .553 0 1-.447 1-1v-11c0-.553-.447-1-1-1" fill="#ffac33" transform="translate(27 4)" id="5"/><use transform="translate(-5)" xlink:href="#5"/><g fill="#f4900c"><path d="m0 0c-.553 0-1 .448-1 1v3c0 .552.447 1 1 1 .553 0 1-.448 1-1v-3c0-.552-.447-1-1-1" transform="translate(23 31)"/><path d="m0 0c-.256 0-.512.098-.707.293-.391.391-.391 1.023 0 1.414l4 4c.391.391 1.023.391 1.414 0 .391-.391.391-1.023 0-1.414l-4-4c-.195-.195-.451-.293-.707-.293" transform="translate(26 30)"/></g></g></g></svg>