<svg xmlns="http://www.w3.org/2000/svg" viewBox="0 0 47.5 47.5" enable-background="new 0 0 47.5 47.5"><defs><clipPath id="0"><path d="m0 38h38v-38h-38v38"/></clipPath></defs><g transform="matrix(1.25 0 0-1.25 0 47.5)"><g clip-path="url(#0)"><path d="m0 0l-8.868 8.855-13.234-13.622 8.684-8.684c1.72-1.715 4.092-2.776 6.711-2.776 5.246 0 9.5 4.254 9.5 9.5 0 2.628-1.068 5.01-2.793 6.727" fill="#bb1a34" transform="translate(34.21 17.227)"/><path d="m0 0c-1.692 1.556-3.942 2.513-6.421 2.513-5.247 0-9.5-4.253-9.5-9.5 0-2.479.958-4.73 2.513-6.421l-.013-.014 8.605-8.605 13.233 13.622-8.417 8.405" fill="#fdcb58" transform="translate(16.921 34.487)"/></g></g></svg>