<svg xmlns="http://www.w3.org/2000/svg" viewBox="0 0 47.5 47.5" enable-background="new 0 0 47.5 47.5" xmlns:xlink="http://www.w3.org/1999/xlink"><defs><path id="1" d="m0 0c0-1.104-.896-2-2-2-1.104 0-2 .896-2 2 0 1.104.896 2 2 2 1.104 0 2-.896 2-2" fill="#ccd6dd"/><clipPath id="0"><path d="m0 38h38v-38h-38v38"/></clipPath></defs><g transform="matrix(1.25 0 0-1.25 0 47.5)"><g clip-path="url(#0)"><path d="m0 0l-5-10c0 0-1-2 1-2 1 0 2 2 2 2l14 19c0 0 2 4 8 1v-2c-3 1-4-1-4-1l-15-24c0 0-2-3-7-3-6 0-7 5-7 8 0 2 1 4 2 6 1 2-2 6-2 6h13" fill="#fcab40" fill-rule="evenodd" transform="translate(15 21)"/><path d="m0 0c-3.46 0-7.5 1.048-7.5 4 0 2.953 4.04 4 7.5 4 3.46 0 7.5-1.047 7.5-4 0-2.952-4.04-4-7.5-4" fill="#fdcb58" transform="translate(8.5 17)"/><use transform="translate(22 20)" xlink:href="#1"/><use transform="translate(25 24)" xlink:href="#1"/><use transform="translate(28 28)" xlink:href="#1"/><path d="m0 0c-.3 0-.605.068-.893.211l-2 1c-.988.495-1.388 1.696-.894 2.684.493.986 1.693 1.39 2.683.895l2-1c.989-.495 1.389-1.696.895-2.684-.351-.701-1.057-1.106-1.791-1.106" fill="#9aaab4" transform="translate(34.998 27)"/><path d="M 0,0 -1.268,-1.548 -7.458,3.52 -6.192,5.067 0,0 Z" fill="#fcab40" fill-rule="evenodd" transform="translate(17.265 11.775)"/></g></g></svg>