<svg xmlns="http://www.w3.org/2000/svg" viewBox="0 0 47.5 47.5" enable-background="new 0 0 47.5 47.5"><defs><clipPath id="0"><path d="m0 38h38v-38h-38v38"/></clipPath></defs><g transform="matrix(1.25 0 0-1.25 0 47.5)"><path d="m0 0h32l-11 17h-10l-11-17" fill="#a7a9ac" transform="translate(3 1)"/><path d="m0 0h26l-10 17h-6l-10-17" fill="#58595b" transform="translate(6 1)"/><path d="m0 0h20l-9 17h-2l-9-17" fill="#808285" transform="translate(9 1)"/><g clip-path="url(#0)"><g fill="#a7a9ac"><path d="m0 0c0-.553-.447-1-1-1h-18c-.552 0-1 .447-1 1 0 .553.448 1 1 1h18c.553 0 1-.447 1-1" transform="translate(29 2)"/><path d="m0 0c0-.553-.447-1-1-1h-14c-.552 0-1 .447-1 1 0 .553.448 1 1 1h14c.553 0 1-.447 1-1" transform="translate(27 6)"/></g><path d="m0 0l-4.076 6.3h-10l-4.076-6.3c1.888-2.517 4.798-4.699 9.08-4.699 4.277 0 7.187 2.182 9.08 4.699" fill="#58595b" transform="translate(28.08 11.7)"/><path d="m0 0c-9 0-12-3-12-9v-8c0-1.999 3-11 12-11 9 0 12 9 12 11v8c0 6-3 9-12 9" fill="#a7a9ac" transform="translate(19 37)"/><path d="m0 0c0 9 4.477 10 10 10 5.523 0 10-1 10-10 0-6-4.477-11-10-11-5.523 0-10 5-10 11" fill="#e6e7e8" transform="translate(9 26)"/><path d="M 0,0 C 1.642,0 3.186,0.45 4.553,1.228 3.77,2.271 2.03,3 0,3 -2.03,3 -3.769,2.271 -4.552,1.228 -3.186,0.45 -1.641,0 0,0" fill="#ffac33" transform="translate(19 15)"/><g fill="#55acee"><path d="m0 0v-4.965c3.488.232 6 1.62 6 2.463v1.666c0 .792-3.692.838-6 .836" transform="translate(20 32)"/><path d="m0 0c-2.308.002-6-.044-6-.836v-1.666c0-.843 2.512-2.231 6-2.463v4.965" transform="translate(18 32)"/></g><g fill="#269"><path d="m0 0c0 0 0-3 4-9 0 0-4 2-4 6v3" transform="translate(7 27)"/><path d="m0 0c0 0 0-3-4-9 0 0 4 2 4 6v3" transform="translate(31 27)"/></g></g></g></svg>