<svg xmlns="http://www.w3.org/2000/svg" viewBox="0 0 47.5 47.5" enable-background="new 0 0 47.5 47.5"><defs><clipPath id="0"><path d="m0 38h38v-38h-38v38"/></clipPath></defs><g transform="matrix(1.25 0 0-1.25 0 47.5)"><g clip-path="url(#0)"><path d="m0 0c0-9.389-7.611-17-17-17-9.388 0-17 7.611-17 17 0 9.388 7.612 17 17 17 9.389 0 17-7.612 17-17" fill="#ffcc4d" transform="translate(36 19)"/><g fill="#664500"><path d="m0 0c0-1.934-1.119-3.5-2.5-3.5-1.381 0-2.5 1.566-2.5 3.5 0 1.933 1.119 3.5 2.5 3.5 1.381 0 2.5-1.567 2.5-3.5" transform="translate(15 20.5)"/><path d="m0 0c-.059.135-1.499 3.297-4.457 3.297-2.957 0-4.397-3.162-4.457-3.297-.092-.207-.032-.449.144-.591.175-.142.426-.147.611-.014.012.009 1.262.902 3.702.902 2.426 0 3.674-.881 3.702-.901.088-.066.194-.099.298-.099.11 0 .221.037.312.109.177.142.238.386.145.594" transform="translate(29.457 19.2)"/><path d="m0 0c-.208 0-.419.065-.599.2-.442.331-.531.958-.2 1.4 3.262 4.35 7.616 4.4 7.8 4.4.552 0 1-.448 1-1 0-.551-.445-.998-.996-1-.155-.002-3.569-.086-6.204-3.6-.197-.262-.497-.4-.801-.4" transform="translate(6.999 24.542)"/><path d="m0 0c-.305 0-.605.138-.801.4-2.592 3.456-6.961 2.627-7 2.62-.547-.108-1.068.243-1.177.784-.108.541.244 1.068.785 1.176.23.047 5.657 1.072 8.996-3.38.332-.442.242-1.069-.2-1.4-.18-.135-.39-.2-.599-.2" transform="translate(30 22.417)"/><path d="m0 0c-.187.11-.432.087-.597-.06-.009-.007-1.013-.863-4.657-.863-3.641 0-4.645.854-4.646.854-.16.16-.405.19-.601.082-.195-.112-.293-.339-.238-.557.011-.044 1.145-4.379 5.485-4.379 4.34 0 5.474 4.335 5.485 4.379.053.213-.044.431-.231.544" transform="translate(24.25 13.423)"/></g></g></g></svg>