<svg xmlns="http://www.w3.org/2000/svg" viewBox="0 0 47.5 47.5" enable-background="new 0 0 47.5 47.5"><defs><clipPath id="0"><path d="m0 38h38v-38h-38v38"/></clipPath></defs><g transform="matrix(1.25 0 0-1.25 0 47.5)"><g clip-path="url(#0)"><g fill="#77b255"><path d="m0 0c6.509-6.506 17.254 7.669 15.72 7.669-7.668 0-22.23-1.161-15.72-7.669" transform="translate(20.602 4.671)"/><path d="m0 0c-6.03-6.03-15.715 7.109-14.292 7.109 7.11 0 20.327-1.075 14.292-7.109" transform="translate(16.645 3.628)"/></g><path d="m0 0c-.052.901-.175 2.585-1.398 4.227-1.161 1.549-3.805 3.371-5.535 2.585.516 1.676-.263 4.125-1.191 5.49-1.179 1.737-4.262 3.843-8.146 3.03-1.754-.37-4.18-2.036-4.632-3.865-1.18 1.472-4.221 1.675-6.02 1.222-2.025-.511-3.153-1.777-3.739-2.461l.004.005c-.01-.01-.02-.024-.03-.034-.007-.009-.02-.024-.027-.033-.583-.689-1.656-1.994-1.847-4.074-.193-2.146.75-5.832 3.03-6.04.149-.014.323-.031.513-.051-2.27-.098-3.572-3.654-3.594-5.8-.023-2.101.926-3.506 1.443-4.243l-.003.004c.008-.01.019-.024.025-.036.007-.011.02-.024.026-.036.523-.733 1.525-2.094 3.515-2.777 1.958-.669 5.553-.656 6.566 1.237-.273-2.244 3.03-4.077 5.17-4.439 2.115-.358 3.71.358 4.55.753l-.005-.003c.012.008.028.015.041.021.011.005.028.013.041.019.838.401 2.397 1.178 3.462 3.04.728 1.283 1.269 3.404.951 5.01.064-.043.136-.089.192-.127 1.826-1.224 4.63 1.119 5.705 2.938 1.043 1.763.932 4.426.932 4.438" fill="#f4abba" transform="translate(35.613 21.246)"/><path d="m0 0c-1.786.997-4.874.434-6.792-.308-.266.468-.621.875-1.051 1.196 1.393 1.607 3.527 4.593 1.468 6.362-2.191 1.883-3.74-2.154-3.575-5.605-.068.003-.132.02-.2.02-1.02 0-1.94-.402-2.632-1.045-1.402 2.277-3.943 4.244-5.314 2.392-1.482-2 1.149-3.153 4.222-4.199-.09-.329-.154-.668-.154-1.026 0-.456.093-.887.237-1.293-2.54-.733-6.236-2.718-4.209-4.911 2.121-2.295 4.471 1.239 5.603 3.053.635-.454 1.407-.727 2.247-.727.224 0 .441.029.655.066-.109-4.802 1.443-7.07 4.04-5.892 2.295 1.043-.137 5.299-1.781 7.166.316.362.564.779.729 1.241 7.01-2.544 8.589 2.351 6.511 3.51" fill="#ea596e" transform="translate(28.542 23.459)"/><path d="m0 0c-.679 0-.668.562-.832 1.25-.532 2.234-2.381 6.309-4.601 9.163-.508.654-.39 1.596.264 2.105.654.508 1.596.391 2.105-.263 2.439-3.136 3.263-7.404 3.982-10.421.191-.806.237-1.601-.569-1.792-.117-.028-.234-.042-.349-.042" fill="#be1931" transform="translate(18.707 19.541)"/><path d="m0 0c.498-.684.079-1.838-.936-2.578l-.475-.346c-1.016-.74-2.242-.785-2.741-.101l-2.781 3.816c-.498.684-.079 1.838.937 2.578l.475.346c1.015.74 2.242.785 2.74.101l2.781-3.816" fill="#ffcc4d" transform="translate(16.904 31.673)"/></g></g></svg>