<svg xmlns="http://www.w3.org/2000/svg" viewBox="0 0 47.5 47.5" enable-background="new 0 0 47.5 47.5"><defs><clipPath id="0"><path d="m0 38h38v-38h-38v38"/></clipPath></defs><g transform="matrix(1.25 0 0-1.25 0 47.5)"><g clip-path="url(#0)"><path d="m0 0c0 1.104.896 2 2 2h8c1.104 0 2-.896 2-2v-2h-12v2m20-2h-6v4c0 2.209-1.791 4-4 4h-8c-2.209 0-4-1.791-4-4v-4h-6c-2.209 0-4-1.791-4-4v-20c0-2.209 1.791-4 4-4h28c2.209 0 4 1.791 4 4v20c0 2.209-1.791 4-4 4" fill="#9a4e1c" transform="translate(13 31)"/><path d="m0 0c0-2.209-1.791-4-4-4h-28c-2.209 0-4 1.791-4 4v8c0 2.209 1.791 4 4 4h28c2.209 0 4-1.791 4-4v-8" fill="#662113" transform="translate(37 17)"/><path d="m0 0c0-2.209-1.791-4-4-4h-28c-2.209 0-4 1.791-4 4v6c0 2.209 1.791 4 4 4h28c2.209 0 4-1.791 4-4v-6" fill="#9a4e1c" transform="translate(37 19)"/><path d="m0 0c0-1.104-.896-2-2-2h-4c-1.104 0-2 .896-2 2 0 1.104.896 2 2 2h4c1.104 0 2-.896 2-2" fill="#ccd6dd" transform="translate(23 19)"/></g></g></svg>