<svg xmlns="http://www.w3.org/2000/svg" viewBox="0 0 47.5 47.5" enable-background="new 0 0 47.5 47.5"><defs><clipPath id="0"><path d="m0 38h38v-38h-38v38"/></clipPath></defs><g transform="matrix(1.25 0 0-1.25 0 47.5)"><g clip-path="url(#0)"><path d="m0 0c-9.388 0-17-7.612-17-17 0-5.715 2.829-10.759 7.153-13.841.098 6.081-2.112 12.897-5.827 12.897-.438 0-.793-.063-1.089-.173.286.714.907 1.117 2.068 1.117 4.03 0 6.295-8.03 5.754-14.439 2.6-1.614 5.656-2.561 8.941-2.561 3.285 0 6.343.948 8.944 2.562-.545 6.429 1.717 14.438 5.752 14.438 1.165 0 1.787-.402 2.071-1.117-.296.11-.652.173-1.093.173-3.719 0-5.93-6.8-5.827-12.897 4.324 3.082 7.153 8.126 7.153 13.841 0 9.388-7.611 17-17 17" fill="#ffcc4d" transform="translate(19 36)"/><path d="m0 0c-9.388 0-17-7.612-17-17 0-1.126.116-2.225.325-3.291.221.816.566 1.598.999 2.347-.437 0-.791-.063-1.087-.173.25.623.777.99 1.67 1.078 2.826 3.947 8.516 6.65 15.09 6.65 6.577 0 12.267-2.702 15.09-6.649.897-.088 1.426-.455 1.674-1.079-.296.11-.651.173-1.091.173.433-.749.778-1.531.999-2.347.21 1.066.325 2.165.325 3.291 0 9.388-7.611 17-17 17" fill="#bdddf4" transform="translate(19 36)"/><g fill="#f5f8fa"><path d="m0 0c-.946-3.176.107-6.293 2.353-6.962 2.246-.67 4.834 1.362 5.779 4.538.946 3.175-.107 6.293-2.351 6.962-2.246.669-4.834-1.363-5.781-4.538" transform="translate(8.347 25.09)"/><path d="m0 0c.946-3.176-.107-6.293-2.352-6.962-2.247-.67-4.834 1.362-5.78 4.538-.946 3.175.107 6.293 2.351 6.962 2.246.669 4.834-1.363 5.781-4.538" transform="translate(29.652 25.09)"/></g><path d="m0 0c-2.757 0-5-2.243-5-5v-6c0-2.757 2.243-5 5-5 2.757 0 5 2.243 5 5v6c0 2.757-2.243 5-5 5" fill="#664500" transform="translate(19 19)"/><g fill="#fcab40"><path d="m0 0c-.439 0-.793-.063-1.089-.172.068.168.157.317.265.45-1.758-2.165 2.188-9.288.271-16.334h6.101c1.123 6.574-1.167 16.06-5.548 16.06" transform="translate(3.326 18.06)"/><path d="m0 0c-.296.11-.652.172-1.093.172-4.383 0-6.673-9.446-5.547-16.05h6.101c-1.799 6.653 1.565 13.306.539 15.883" transform="translate(35.767 17.883)"/></g></g></g></svg>