<svg xmlns="http://www.w3.org/2000/svg" viewBox="0 0 47.5 47.5" enable-background="new 0 0 47.5 47.5"><defs><clipPath id="0"><path d="m0 38h38v-38h-38v38"/></clipPath></defs><g transform="matrix(1.25 0 0-1.25 0 47.5)"><g clip-path="url(#0)"><path d="m0 0c0-2.209-1.791-4-4-4h-28c-2.209 0-4 1.791-4 4v28c0 2.209 1.791 4 4 4h28c2.209 0 4-1.791 4-4v-28" fill="#be1931" transform="translate(37 5)"/><g fill="#fff"><path d="m0 0h5.32l-2.604 8.119h-.056l-2.66-8.119m-.308 10.163c.476 1.288 1.568 2.324 2.996 2.324 1.484 0 2.52-.979 2.997-2.324l5.488-15.231c.168-.449.223-.84.223-1.036 0-1.092-.896-1.848-1.931-1.848-1.177 0-1.765.616-2.044 1.456l-.879 2.731h-7.72l-.866-2.703c-.28-.868-.868-1.484-2.02-1.484-1.12 0-2.072.84-2.072 1.96 0 .448.14.784.196.924l5.628 15.231z" transform="translate(8.458 16.765)"/><path d="m0 0h3.304c1.512 0 2.632.729 2.632 2.296 0 1.315-1.01 2.112-2.968 2.112h-2.968v-4.408m0 8h2.184c1.372 0 2.268.815 2.268 2.216 0 1.315-1.036 2.088-2.268 2.088h-2.184v-4.304m-4.2 5.9c0 1.344.924 2.1 2.212 2.1h5.376c2.912 0 5.264-1.96 5.264-4.928 0-1.96-.812-3.276-2.604-4.116v-.056c2.38-.336 4.256-2.423 4.256-4.859 0-3.948-2.632-6.04-6.496-6.04h-5.768c-1.288 0-2.24.876-2.24 2.192v15.708z" transform="translate(25.2 13)"/></g></g></g></svg>