<svg xmlns="http://www.w3.org/2000/svg" viewBox="0 0 47.5 47.5" enable-background="new 0 0 47.5 47.5"><defs><clipPath id="0"><path d="m0 38h38v-38h-38v38"/></clipPath></defs><g transform="matrix(1.25 0 0-1.25 0 47.5)"><g clip-path="url(#0)"><path d="m0 0c0-2.209-1.791-4-4-4h-28c-2.209 0-4 1.791-4 4v28c0 2.209 1.791 4 4 4h28c2.209 0 4-1.791 4-4v-28" fill="#269" transform="translate(37 5)"/><path d="m0 0c0 0 7.29 4.557 21 4.969.652.02 2 .031 2-.969-6-9-9-23-9-23l-14 19" fill="#f4900c" transform="translate(12 28)"/><path d="m0 0c0 0 12 11 20 11.969.647.079 2 .031 2-.969-7-4-12-19-12-19l-10 8" fill="#ffac33" transform="translate(13 21)"/><path d="m0 0c.826-.727 2.388-1.164 3.471-.972l4.893.866c1.084.191 1.613-.478 1.178-1.488l-1.968-4.564c-.436-1.01-.369-2.63.148-3.601l2.335-4.384c.518-.972.044-1.682-1.051-1.58l-4.947.463c-1.095.101-2.616-.462-3.379-1.254l-3.451-3.577c-.763-.792-1.585-.562-1.826.511l-1.09 4.848c-.241 1.073-1.247 2.345-2.236 2.827l-4.467 2.175c-.989.481-1.025 1.335-.078 1.897l4.274 2.533c.946.561 1.844 1.911 1.997 3l.688 4.92c.153 1.09.953 1.387 1.779.66l3.73-3.281" fill="#ffd983" transform="translate(16.16 24.562)"/></g></g></svg>