<svg xmlns="http://www.w3.org/2000/svg" viewBox="0 0 47.5 47.5" enable-background="new 0 0 47.5 47.5"><defs><clipPath id="0"><path d="m0 38h38v-38h-38v38"/></clipPath></defs><g transform="matrix(1.25 0 0-1.25 0 47.5)"><g clip-path="url(#0)"><path d="m0 0c0-9.389-7.611-17-17-17-9.388 0-17 7.611-17 17 0 9.388 7.612 17 17 17 9.389 0 17-7.612 17-17" fill="#fdcb58" transform="translate(36 19)"/><g fill="#664500"><path d="m0 0c-.552 0-1 .448-1 1 0 .551.445.998.996 1 .155.002 3.568.086 6.204 3.6.331.44.958.532 1.4.2.442-.331.531-.958.2-1.4-3.262-4.35-7.616-4.4-7.8-4.4" transform="translate(7 24)"/><path d="m0 0c-.184 0-4.537.05-7.8 4.4-.332.442-.242 1.069.2 1.4.442.333 1.068.242 1.4-.2 2.64-3.521 6.06-3.599 6.206-3.6.55-.006.994-.456.991-1-.003-.551-.447-.995-.997-.995" transform="translate(31 24)"/><path d="m0 0c-.114.086-1.931 1.426-4.646 2.344.027.115.046.233.046.356 0 .369-.138.703-.359.964 1.803.521 3.334.536 3.361.536.551.002.998.45.997 1-.001.551-.447.998-.999.998-.22 0-5.451-.037-8.707-3.293-.286-.286-.372-.716-.216-1.09.154-.374.519-.617.923-.617 4.59 0 8.364-2.772 8.402-2.801.179-.133.389-.198.597-.198.305 0 .606.139.802.401.33.442.24 1.067-.201 1.398" transform="translate(31.6 16.8)"/><path d="m0 0c-3.255 3.255-8.486 3.293-8.707 3.293-.552 0-.999-.447-.999-.999-.001-.551.446-1 .998-1 .026 0 1.558-.016 3.36-.536-.22-.261-.359-.595-.359-.964 0-.123.019-.241.047-.356-2.716-.918-4.533-2.258-4.647-2.344-.442-.331-.531-.958-.2-1.4.196-.262.497-.4.801-.4.208 0 .419.065.599.2.037.028 3.787 2.8 8.4 2.8.404 0 .769.243.924.617.155.374.069.804-.217 1.09" transform="translate(16.707 19.707)"/><path d="m0 0c-.304 0-.591.138-.781.375l-3.194 3.992-2.225-2.967c-.174-.232-.44-.377-.729-.397-.29-.022-.574.085-.778.29l-1 1c-.391.391-.391 1.023 0 1.414.391.391 1.023.391 1.414 0l.185-.185 2.308 3.078c.186.248.475.395.784.4.296.01.603-.133.797-.375l3.219-4.02 3.219 4.02c.193.241.484.375.797.375.309-.005.598-.152.784-.4l2.308-3.078.185.185c.391.391 1.023.391 1.414 0 .391-.391.391-1.023 0-1.414l-1-1c-.205-.205-.478-.314-.778-.29-.289.02-.555.165-.729.397l-2.225 2.967-3.194-3.992c-.19-.237-.477-.375-.781-.375" transform="translate(19 7)"/></g></g></g></svg>