<svg xmlns="http://www.w3.org/2000/svg" viewBox="0 0 47.5 47.5" enable-background="new 0 0 47.5 47.5"><defs><clipPath id="0"><path d="m0 38h38v-38h-38v38"/></clipPath></defs><g transform="matrix(1.25 0 0-1.25 0 47.5)"><g clip-path="url(#0)"><g fill="#f2abba"><path d="m0 0c-.25-4.574-8.193-8.248-17.977-8.248-3.284 0-6.351.422-9 1.144v-3.587c2.65-1.024 5.718-1.62 9-1.62 9.942 0 18 5.373 18 12 0 .105-.019.207-.023.311" transform="translate(36.977 20.328)"/><path d="m0 0c-2.646 1.024-5.717 1.617-9 1.617-9.02 0-16.465-4.426-17.774-10.194 1.309 4.07 8.756 7.194 17.774 7.194 3.283 0 6.354-.418 9-1.141v2.524" transform="translate(28 30.4)"/></g><g fill="#e75a70"><path d="m0 0c0 3.757-3.045 6.801-6.801 6.801-2.28 0-4.292-1.125-5.526-2.845-1.235 1.72-3.247 2.845-5.526 2.845-3.756 0-6.801-3.044-6.801-6.801 0-.531.067-1.049.183-1.545.945-5.867 7.468-12.06 12.144-13.758 4.675 1.699 11.2 7.891 12.141 13.756.119.498.186 1.016.186 1.547" transform="translate(25.77 17.285)"/><path d="m0 0c0 2.602-2.109 4.711-4.711 4.711-1.579 0-2.973-.78-3.828-1.972-.856 1.192-2.249 1.972-3.827 1.972-2.602 0-4.711-2.109-4.711-4.711 0-.369.047-.727.127-1.07.654-4.065 5.173-8.353 8.411-9.53 3.238 1.177 7.758 5.465 8.412 9.529.08.344.127.702.127 1.071" transform="translate(36.885 31.31)"/></g></g></g></svg>