<svg xmlns="http://www.w3.org/2000/svg" viewBox="0 0 47.5 47.5" enable-background="new 0 0 47.5 47.5"><defs><clipPath id="0"><path d="m0 38h38v-38h-38v38"/></clipPath></defs><g transform="matrix(1.25 0 0-1.25 0 47.5)"><g clip-path="url(#0)"><path d="m0 0c-.314 0-.629.12-.869.36l-30.685 30.685c-.48.48-.48 1.258 0 1.738.48.481 1.259.481 1.739 0l30.684-30.684c.481-.48.481-1.259 0-1.739-.24-.24-.555-.36-.869-.36" fill="#d99e82" transform="translate(34.884 1.771)"/><path d="m0 0c-2.651.536-4.261-1.167-3.578-3.784l1.843-7.05c.684-2.617 2.808-3.193 4.72-1.28l6.103 6.102c1.912 1.913 1.308 3.916-1.343 4.452l-7.745 1.565" fill="#66757f" transform="translate(7.729 33.954)"/><path d="m0 0c0-3.734-3.03-6.761-6.762-6.761-3.735 0-6.762 3.03-6.762 6.761 0 3.734 3.03 6.762 6.762 6.762 3.735 0 6.762-3.03 6.762-6.762" fill="#d99e82" transform="translate(23.614 21.03)"/><path d="m0 0c-.96-.96-2.518-.96-3.477 0l-3.478 3.478c-.959.959-.959 2.516 0 3.476l8.693 8.693c.961.96 2.518.96 3.478 0l3.477-3.477c.96-.96.96-2.517 0-3.478l-8.693-8.692" fill="#ccd6dd" transform="translate(23.05 6.293)"/><path d="m0 0c-.314 0-.629.12-.869.36l-9.118 9.119c-.481.479-.481 1.258 0 1.738.48.48 1.258.48 1.738 0l9.118-9.118c.481-.48.481-1.259 0-1.739-.24-.24-.555-.36-.869-.36" fill="#d99e82" transform="translate(34.884 1.771)"/></g></g></svg>