<svg xmlns="http://www.w3.org/2000/svg" viewBox="0 0 47.5 47.5" enable-background="new 0 0 47.5 47.5" xmlns:xlink="http://www.w3.org/1999/xlink"><defs><path id="1" d="m0 0c0-1.104-.896-2-2-2-1.104 0-2 .896-2 2 0 1.104.896 2 2 2 1.104 0 2-.896 2-2" fill="#292f33"/><clipPath id="0"><path d="m0 38h38v-38h-38v38"/></clipPath></defs><g transform="matrix(1.25 0 0-1.25 0 47.5)"><g clip-path="url(#0)"><g fill="#292f33"><path d="m0 0h-34c-.552 0-1 .447-1 1 0 .553.448 1 1 1h34c.553 0 1-.447 1-1 0-.553-.447-1-1-1" transform="translate(36 16)"/><path d="m0 0c-.023 0-.046.001-.069.002-.092.007-9.214.714-10.734 8.235-.109.542.241 1.069.782 1.179.543.112 1.069-.242 1.178-.782 1.221-6.04 8.833-6.631 8.91-6.636.551-.038.967-.515.93-1.066-.036-.528-.476-.932-.997-.932" transform="translate(13.823 18)"/><path d="m0 0c-.142 0-.286.03-.423.094-.5.234-.716.829-.482 1.33 3.166 6.77 11.04 7.721 11.372 7.758.548.055 1.041-.334 1.103-.882.062-.548-.333-1.043-.881-1.107-.07-.007-7.099-.876-9.783-6.617-.17-.363-.53-.576-.906-.576" transform="translate(4 6)"/><path d="m0 0c-.522 0-.961.405-.996.934-.036.55.381 1.026.931 1.064.081.005 8.116.617 9.332 6.636.108.541.632.895 1.178.782.541-.11.892-.637.783-1.179-1.522-7.525-10.769-8.21-11.163-8.235-.021-.001-.044-.002-.065-.002" transform="translate(23.753 18)"/><path d="m0 0c-.377 0-.737.213-.907.576-2.695 5.763-10.124 6.61-10.198 6.617-.55.058-.949.55-.89 1.099.057.55.555.952 1.099.89.351-.037 8.633-.984 11.801-7.758.234-.501.018-1.096-.482-1.33-.138-.064-.281-.094-.423-.094" transform="translate(34 6)"/><path d="m0 0c-.069 2.626-1.277 4.216-3.095 5.04.067.226.106.469.106.726 0 1.105-.672 2-1.5 2-.828 0-1.5-.895-1.5-2 0-.015.003-.029.003-.043-.328.026-.661.043-1 .043-.342 0-.675-.017-1-.043.001.014.004.028.004.043 0 1.105-.672 2-1.5 2-.829 0-1.5-.895-1.5-2 0-.257.039-.5.105-.726-1.817-.824-3.03-2.414-3.095-5.04-3.03-1.785-5.01-4.896-5.01-9.234 0-7.16 5.372-16.923 12-16.923 6.628 0 12 9.763 12 16.923 0 4.338-1.981 7.449-5.01 9.234" transform="translate(25.989 29.23)"/></g><g fill="#dd2e44"><path d="m0 0c-6.437.595-11.501 6.895-11.501 14.581 0 7.685 5.064 10.781 11.5 11.377.33.031 1 .046 1-2.294v-22.541c0-1.17-.669-1.155-.999-1.123" transform="translate(17 2.041)"/><path d="m0 0c6.437.595 11.501 6.895 11.501 14.581 0 7.685-5.064 10.781-11.5 11.377-.33.031-1 .046-1-2.294v-22.541c0-1.17.67-1.155.999-1.123" transform="translate(20.999 2.041)"/></g><use transform="translate(16 22)" xlink:href="#1"/><path d="m0 0c0-1.657-1.343-3-3-3-1.657 0-3 1.343-3 3 0 1.657 1.343 3 3 3 1.657 0 3-1.343 3-3" fill="#292f33" transform="translate(14 15)"/><use transform="translate(16 8)" xlink:href="#1"/><g fill="#292f33"><path d="m0 0c0-1.381-1.119-2.5-2.5-2.5-1.381 0-2.5 1.119-2.5 2.5 0 1.381 1.119 2.5 2.5 2.5 1.381 0 2.5-1.119 2.5-2.5" transform="translate(28 22.5)"/><path d="m0 0c0-.828-.672-1.5-1.5-1.5-.828 0-1.5.672-1.5 1.5 0 .828.672 1.5 1.5 1.5.828 0 1.5-.672 1.5-1.5" transform="translate(25 16.5)"/></g><use transform="translate(31 14)" xlink:href="#1"/><path d="m0 0c0-1.657-1.343-3-3-3-1.657 0-3 1.343-3 3 0 1.657 1.343 3 3 3 1.657 0 3-1.343 3-3" fill="#292f33" transform="translate(28 8)"/></g></g></svg>