<svg xmlns="http://www.w3.org/2000/svg" viewBox="0 0 47.5 47.5" enable-background="new 0 0 47.5 47.5" xmlns:xlink="http://www.w3.org/1999/xlink"><defs><clipPath id="0"><path d="m0 38h38v-38h-38v38"/></clipPath></defs><g transform="matrix(1.25 0 0-1.25 0 47.5)"><g clip-path="url(#0)"><path d="m0 0c0-2.209-1.119-4-2.5-4-1.381 0-2.5 1.791-2.5 4 0 2.209 1.119 4 2.5 4 1.381 0 2.5-1.791 2.5-4" fill="#d99e82" transform="translate(9 18)" id="1"/><use transform="translate(25)" xlink:href="#1"/><path d="m0 0c0 8.526 5.82 15.438 13 15.438 7.18 0 13-6.912 13-15.438 0-8.525-5.82-15.438-13-15.438-7.18 0-13 6.913-13 15.438" fill="#d99e82" transform="translate(6 16.438)"/><g fill="#662113"><path d="m0 0c-.552 0-1 .447-1 1v2c0 .552.448 1 1 1 .552 0 1-.448 1-1v-2c0-.553-.448-1-1-1" transform="translate(14 17)"/><path d="m0 0c-.553 0-1 .447-1 1v2c0 .552.447 1 1 1 .553 0 1-.448 1-1v-2c0-.553-.447-1-1-1" transform="translate(24 17)"/></g><path d="m0 0h-2c-.552 0-1 .447-1 1 0 .553.448 1 1 1h2c.553 0 1-.447 1-1 0-.553-.447-1-1-1" fill="#c1694f" transform="translate(20 13)"/><g fill="#414042"><path d="m0 0l-3.294.941c.003.034.02.063.02.097 0 .553-.448 1-1 1h-6c-.553 0-1-.447-1-1 0-.034.016-.063.019-.097l-3.294-.941c-.531-.152-.839-.706-.687-1.236.126-.44.526-.726.961-.726.091 0 .184.013.275.038l1.931.552c-.216-.293-.274-.689-.1-1.037.175-.351.528-.553.896-.553.149 0 .302.034.446.106l1.577.788c.036-.327.213-.631.528-.788.144-.072.297-.106.447-.106.367 0 .72.202.895.553l.106.211.105-.211c.175-.351.528-.553.896-.553.15 0 .302.034.446.106.315.157.493.461.529.788l1.576-.788c.144-.072.296-.106.447-.106.367 0 .719.202.895.553.174.348.116.744-.099 1.037l1.93-.552c.092-.025.184-.038.276-.038.434 0 .835.286.96.726.152.53-.156 1.084-.687 1.236" transform="translate(26.27 9.962)"/><path d="m0 0c8.615 0 14-6.358 14-11.656 0-5.298-1.077-7.418-2.154-5.298-1.076 2.119-2.154 4.238-2.154 4.238 0 0-6.462 0-8.615 2.12 0 0 3.231-6.358-3.231 0 0 0 1.077-4.239-5.385 1.059 0 0-3.23-2.119-4.307-7.417-.299-1.47-2.154 0-2.154 5.298 0 5.298 4.308 11.656 14 11.656" transform="translate(19 37)"/></g></g></g></svg>