<svg xmlns="http://www.w3.org/2000/svg" viewBox="0 0 47.5 47.5" enable-background="new 0 0 47.5 47.5" xmlns:xlink="http://www.w3.org/1999/xlink"><defs><path id="1" d="m0 0c0-.553-.447-1-1-1h-20c-.552 0-1 .447-1 1 0 .553.448 1 1 1h20c.553 0 1-.447 1-1" fill="#99aab5"/><clipPath id="0"><path d="m0 38h38v-38h-38v38"/></clipPath></defs><g transform="matrix(1.25 0 0-1.25 0 47.5)"><g clip-path="url(#0)"><path d="m0 0l-9 9c-.361.362-.862.586-1.415.586-1.104 0-1.999-.896-2-1.999 0-.552.224-1.053.586-1.415l-3.859-3.859 9-9 3.859 3.859c.362-.362.862-.586 1.414-.586 1.104 0 2 .896 2 2 0 .553-.224 1.052-.585 1.414" fill="#e1e8ed" transform="translate(31.415 27.414)"/><path d="m0 0h-15c-2.209 0-4-1.791-4-4v-28c0-2.209 1.791-4 4-4h22c2.209 0 4 1.791 4 4v21h-9c-1 0-2 1-2 2v9" fill="#ccd6dd" transform="translate(21 37)"/><path d="m0 0h-2v-9c0-2.209 1.791-4 4-4h9v2h-9c-1 0-2 1-2 2v9" fill="#99aab5" transform="translate(21 37)"/><path d="m0 0c0-.552-.448-1-1-1h-8c-.552 0-1 .448-1 1 0 .552.448 1 1 1h8c.552 0 1-.448 1-1" fill="#99aab5" transform="translate(16 29)" id="2"/><use transform="translate(0-4)" xlink:href="#2"/><path d="m0 0c0-.552-.447-1-1-1h-20c-.552 0-1 .448-1 1 0 .552.448 1 1 1h20c.553 0 1-.448 1-1" fill="#99aab5" transform="translate(28 21)"/><use transform="translate(28 17)" xlink:href="#1"/><use transform="translate(28 13)" xlink:href="#1"/><use transform="translate(28 9)" xlink:href="#1"/><path d="m0 0c0 0-5.906.002-5.935 0-.291 0-.91-.174-1.254-.606l-2.329-2.929c-.643-.81-.643-2.119 0-2.93l2.329-2.929c.344-.432.963-.606 1.254-.606.019-.002 3.547 0 5.935 0v10" fill="#66757f" transform="translate(32 18)"/><path d="m0 0c0 0-8.06.002-8.08 0-.291 0-.91-.139-1.255-.485l-2.328-2.342c-.644-.648-.644-1.695 0-2.344l2.328-2.342c.345-.346.964-.487 1.255-.487.028-.002 8.08 0 8.08 0 1.104 0 2 .897 2 2v3.999c0 1.104-.896 2-2 2" fill="#744eaa" transform="translate(34 18)"/></g></g></svg>