<svg xmlns="http://www.w3.org/2000/svg" viewBox="0 0 47.5 47.5" enable-background="new 0 0 47.5 47.5"><defs><clipPath id="0"><path d="m0 38h38v-38h-38v38"/></clipPath></defs><g transform="matrix(1.25 0 0-1.25 0 47.5)"><g clip-path="url(#0)"><path d="m0 0c0-2.209-1.791-3-4-3-2.209 0-4 .791-4 3l1 9c0 2.209.791 2 3 2 2.209 0 3 .209 3-2l1-9" fill="#662113" transform="translate(23 4)"/><path d="m0 0c-6.963 5.965-9.783 14.506-13.406 14.506-3.624 0-6.444-8.541-13.406-14.506-2.925-2.507-1.532-3.957 2.479-3.667 3.576.258 6.92 1.069 10.927 1.069 4.01 0 7.351-.811 10.926-1.069 4.01-.29 5.405 1.16 2.48 3.667" fill="#5c913b" transform="translate(32.406 9.703)"/><path d="m0 0c-5.351 4.906-8.357 11.934-11.145 11.934-2.784 0-5.792-7.03-11.143-11.934-4.253-3.898 5.572-4.773 11.143 0 5.57-4.773 15.396-3.898 11.145 0" fill="#3e721d" transform="translate(30.14 12.07)"/><path d="m0 0c-5.351 4.584-8.357 11.148-11.145 11.148-2.784 0-5.792-6.564-11.143-11.148-4.253-3.642 5.572-4.459 11.143 0 5.57-4.459 15.396-3.642 11.145 0" fill="#5c913b" transform="translate(30.14 16.04)"/><path d="m0 0c-4.177 3.579-6.524 8.703-8.7 8.703-2.175 0-4.523-5.124-8.7-8.703-3.32-2.844 4.35-3.481 8.7 0 4.348-3.481 12.02-2.844 8.7 0" fill="#3e721d" transform="translate(27.7 19.297)"/><path d="m0 0c-4.177 3.579-6.524 8.703-8.7 8.703-2.175 0-4.523-5.124-8.7-8.703-3.32-2.844 4.35-3.481 8.7 0 4.348-3.481 12.02-2.844 8.7 0" fill="#5c913b" transform="translate(27.7 22.274)"/><path d="m0 0c-3.371 2.888-5.266 7.02-7.02 7.02-1.755 0-3.65-4.136-7.02-7.02-2.679-2.295 3.511-2.81 7.02 0 3.509-2.81 9.701-2.295 7.02 0" fill="#3e721d" transform="translate(26.02 24.919)"/><path d="m0 0c-3.371 2.888-5.266 7.02-7.02 7.02-1.755 0-3.65-4.136-7.02-7.02-2.679-2.295 3.511-2.81 7.02 0 3.509-2.81 9.701-2.295 7.02 0" fill="#5c913b" transform="translate(26.02 27.16)"/><path d="m0 0c-2.564 2.197-4.01 5.345-5.343 5.345-1.335 0-2.778-3.148-5.343-5.345-2.038-1.747 2.672-2.138 5.343 0 2.671-2.138 7.382-1.747 5.343 0" fill="#3e721d" transform="translate(24.343 30.46)"/><path d="m0 0c-2.564 2.197-4.01 5.345-5.343 5.345-1.335 0-2.778-3.148-5.343-5.345-2.038-1.747 2.672-2.138 5.343 0 2.671-2.138 7.382-1.747 5.343 0" fill="#5c913b" transform="translate(24.343 31.655)"/></g></g></svg>