<svg xmlns="http://www.w3.org/2000/svg" viewBox="0 0 47.5 47.5" enable-background="new 0 0 47.5 47.5"><defs><clipPath id="0"><path d="m0 38h38v-38h-38v38"/></clipPath></defs><g transform="matrix(1.25 0 0-1.25 0 47.5)"><g clip-path="url(#0)"><path d="m0 0l3.083-1.158-1.156-3.084c0 0-4.55 1-5.259 2.114-.709 1.11.602 2.729.602 2.729l2.73-.601" transform="translate(16.356 21.13)"/><path d="m0 0c.91-.201 0-1.613.278-2.525.191-.632-1.111-.71-1.111-.71 0 0-.911.201-.756-1.265.155-1.463-1.866-1.973-2.02-.507-.154 1.464 1.045 2.254.385 3.394-1.578 2.731 3.224 1.613 3.224 1.613" fill="#d99e82" transform="translate(20.967 29.876)"/><path d="m0 0c0 .199-.541.428-.707.687-.708 1.112-1.03 1.667-1.939 1.867-1.287.283-2.912-.308-4.222-1.928-.829-1.023-.947-2.174-2.259-3.793 0 0 4.199-.447 4.754-.093.556.354.758 1.265.959 2.175.2.91.686 1.264 1.04.709.344-.538 2.374-1.199 3.449-1.426l-1.075 1.802" fill="#77b255" transform="translate(21.634 24.18)"/><path d="m0 0l1.245 1.41c.943-.928 2.453-1.492 2.959-1.166.556.353 1.916-.904.806-1.614-1.111-.709-2.23.282-3.138.482-.591.131-1.33.496-1.872.888" fill="#d99e82" transform="translate(19.988 23.18)"/><path d="m0 0c.808-.668.57.862 0 1.335-.806.667-2.418.668-3.224 0-.806-.667-.806-2 0-2.67.57-.472.806-1.335.806 0 0 1.335.807 0 .807.667 0 .668 1.611.668 1.611.668" fill="#b39155" transform="translate(20.967 29.45)"/><path d="m0 0h32c0 0 0-2-1-7-.86-4.302-21-1-24.601 0-3.083.856-6.399 7-6.399 7" fill="#c1694f" transform="translate(3 20)"/><path d="m0 0c0-.553-.447-1-1-1h-32c-.552 0-1 .447-1 1 0 .553.448 1 1 1h32c.553 0 1-.447 1-1" fill="#f4900c" transform="translate(36 19)"/><path d="m37 13h-36v-12h36v12" fill="#55acee"/><path d="m0 0c-.256 0-.512.098-.707.293-.391.391-.391 1.023 0 1.414l11 11c.391.391 1.024.391 1.415 0 .39-.391.39-1.023 0-1.414l-11-11c-.195-.195-.451-.293-.707-.293" fill="#ffac33" transform="translate(13 10)"/><path d="m0 0c-.512 0-1.024.195-1.414.586-.781.781-.781 2.047 0 2.828l3 3c.78.781 2.048.781 2.828 0 .781-.781.781-2.047 0-2.828l-3-3c-.39-.391-.902-.586-1.414-.586" fill="#ffcc4d" transform="translate(12 8)"/></g></g></svg>