<svg xmlns="http://www.w3.org/2000/svg" viewBox="0 0 47.5 47.5" enable-background="new 0 0 47.5 47.5"><defs><clipPath id="0"><path d="m0 38h38v-38h-38v38"/></clipPath></defs><g transform="matrix(1.25 0 0-1.25 0 47.5)"><g clip-path="url(#0)"><path d="m0 0c0 2.209-1.119 4-2.5 4-.012 0-.021-.004-.033-.005-1.512 6.301-6.073 10.88-11.467 10.88-5.394 0-9.956-4.579-11.467-10.88-.012.001-.022.005-.033.005-1.381 0-2.5-1.791-2.5-4 0-2.107 1.021-3.815 2.314-3.97 1.223-6.649 5.985-11.03 11.686-11.03 5.7 0 10.463 4.381 11.686 11.03 1.293.155 2.314 1.863 2.314 3.97" fill="#d99e82" transform="translate(33 17)"/><g fill="#3b88c3"><path d="m0 0c-.552 0-1 .447-1 1v2c0 .552.448 1 1 1 .552 0 1-.448 1-1v-2c0-.553-.448-1-1-1" transform="translate(14 16)"/><path d="m0 0c-.553 0-1 .447-1 1v2c0 .552.447 1 1 1 .553 0 1-.448 1-1v-2c0-.553-.447-1-1-1" transform="translate(24 16)"/></g><g fill="#c1694f"><path d="m0 0c-4.201 0-5.491 1.077-5.707 1.293-.391.391-.391 1.023 0 1.414.378.379.984.39 1.376.036.08-.057 1.1-.743 4.331-.743 3.355 0 4.326.739 4.336.747.39.389 1 .37 1.393-.02.39-.391.369-1.043-.022-1.434-.216-.216-1.506-1.293-5.707-1.293" transform="translate(19 6)"/><path d="m0 0h-2c-.552 0-1 .447-1 1 0 .553.448 1 1 1h2c.553 0 1-.447 1-1 0-.553-.447-1-1-1" transform="translate(20 11)"/></g><path d="m0 0c8 0 13-6 13-11 0-5-1-7-2-5l-2 4c0 0-6 0-8 2 0 0 3-6-3 0 0 0 1-4-5 1 0 0-3-2-4-7-.277-1.387-2 0-2 5 0 5 4 11 13 11" fill="#ffd983" transform="translate(19 36)"/></g></g></svg>