<svg xmlns="http://www.w3.org/2000/svg" viewBox="0 0 47.5 47.5" enable-background="new 0 0 47.5 47.5"><defs><clipPath id="0"><path d="m0 38h38v-38h-38v38"/></clipPath></defs><g transform="matrix(1.25 0 0-1.25 0 47.5)"><g clip-path="url(#0)"><path d="m0 0c-.324 1.768-1.937 3.37-3.912 3.37h-19c-.239 0-.522-.135-.83-.365-.507.226-1.041.365-1.605.365-1 0-4.732-.375-5.565-2l-2.309-4.305c-.675-1.964.309-4.782 2.336-4.782.57 0 1.535.007 2.665.017 1.65-.286 3.602-1.504 5.436-2.848 2.12-4.407 2.92-11.08 3.872-11.08.964 0 2.529 4.409 2.912 7h9.124c.147-2.479.772-7 1.964-7 1.016 0 3.24 4.883 4.347 12.238.315 1.625.532 3.698.615 6.32.023-.171.038-.353.038-.558v-12c0-.553.447-1 1-1 .553 0 1 .447 1 1v12c0 1.807-.749 3.053-2.088 3.63" fill="#292f33" transform="translate(34.912 22.63)"/><path d="m0 0c0-.552-.448-1-1-1-.552 0-1 .448-1 1 0 .552.448 1 1 1 .552 0 1-.448 1-1" fill="#fff" transform="translate(8 21)"/><path d="m 0,0 c 3,0 6.708,1.625 6.708,5.625 0,2 -1.552,4.101 -4.458,4.167 C -1.872,9.884 -3.625,7 -3,6.625 -2.472,6.308 -1,8.5 1.5,8 3.361,7.628 3.554,6.433 3.167,5.667 2.716,4.774 1,4 -1,4 -3,4 -2,0 0,0" fill="#99aab5" transform="translate(11 22)"/></g></g></svg>