<svg xmlns="http://www.w3.org/2000/svg" viewBox="0 0 47.5 47.5" enable-background="new 0 0 47.5 47.5"><defs><clipPath id="0"><path d="m0 38h38v-38h-38v38"/></clipPath></defs><g transform="matrix(1.25 0 0-1.25 0 47.5)"><g clip-path="url(#0)"><path d="m0 0c0-2.209-1.791-4-4-4h-28c-2.209 0-4 1.791-4 4v28c0 2.209 1.791 4 4 4h28c2.209 0 4-1.791 4-4v-28" fill="#3b88c3" transform="translate(37 5)"/><g fill="#fff"><path d="m0 0l-7.2 6v-4h-8c-5.523 0-10-4.477-10-10 0-1.414.297-2.758.827-3.978l3.3 2.75c-.083.396-.127.807-.127 1.228 0 3.314 2.686 6 6 6h8v-4l7.2 6" transform="translate(31.2 27)"/><path d="m0 0l-3.301-2.75c.083-.396.127-.806.127-1.227 0-3.314-2.686-6-6-6h-8v4l-7.2-6 7.2-6v4h8c5.523 0 10 4.477 10 10 0 1.414-.297 2.758-.826 3.977" transform="translate(31.17 22.977)"/></g></g></g></svg>