<svg xmlns="http://www.w3.org/2000/svg" viewBox="0 0 47.5 47.5" enable-background="new 0 0 47.5 47.5" xmlns:xlink="http://www.w3.org/1999/xlink"><defs><path id="1" d="m0 0c0-1.104-.896-2-2-2-1.104 0-2 .896-2 2 0 1.104.896 2 2 2 1.104 0 2-.896 2-2"/><clipPath id="0"><path d="m0 38h38v-38h-38v38"/></clipPath></defs><g transform="matrix(1.25 0 0-1.25 0 47.5)"><g clip-path="url(#0)"><path d="m0 0v-36c-9.941 0-18 8.06-18 18 0 9.941 8.06 18 18 18" fill="#ccd6dd" transform="translate(19 37)"/><path d="m0 0c0-9.941-8.06-18-18-18v36c9.941 0 18-8.06 18-18" fill="#66757f" transform="translate(37 19)"/><path d="m0 0c0-1.933-1.566-3.5-3.5-3.5-1.934 0-3.5 1.567-3.5 3.5 0 1.933 1.566 3.5 3.5 3.5 1.934 0 3.5-1.567 3.5-3.5" fill="#b8c5cd" transform="translate(15 28.5)"/><g fill="#5b6876"><path d="m0 0c0-1.657-1.343-3-3-3-1.657 0-3 1.343-3 3 0 1.657 1.343 3 3 3 1.657 0 3-1.343 3-3" transform="translate(28 21)"/><path d="m0 0c0-1.934-1.566-3.5-3.5-3.5-1.934 0-3.5 1.566-3.5 3.5 0 1.934 1.566 3.5 3.5 3.5 1.934 0 3.5-1.566 3.5-3.5" transform="translate(27 9.5)"/><use transform="translate(24 31)" xlink:href="#1"/></g><path d="m0 0c0-.553.448-1 1-1 .552 0 1 .447 1 1 0 .552-.448 1-1 1-.552 0-1-.448-1-1" fill="#b8c5cd" transform="translate(3 19)"/><path d="m0 0c0-.553.447-1 1-1 .553 0 1 .447 1 1 0 .552-.447 1-1 1-.553 0-1-.448-1-1" fill="#5b6876" transform="translate(30 28)"/><path d="m0 0c0-.553.447-1 1-1 .553 0 1 .447 1 1 0 .553-.447 1-1 1-.553 0-1-.447-1-1" fill="#b8c5cd" transform="translate(15 6)"/><use fill="#5b6876" transform="translate(35 18)" xlink:href="#1"/><use fill="#b8c5cd" transform="translate(13 14)" xlink:href="#1"/></g></g></svg>