<svg xmlns="http://www.w3.org/2000/svg" viewBox="0 0 47.5 47.5" enable-background="new 0 0 47.5 47.5" xmlns:xlink="http://www.w3.org/1999/xlink"><defs><clipPath id="0"><path d="m0 38h38v-38h-38v38"/></clipPath></defs><g transform="matrix(1.25 0 0-1.25 0 47.5)"><path d="m34 21h-30v-18h30v18" fill="#58595b"/><g clip-path="url(#0)"><path d="m0 0h32c1.104 0 2-.896 2-2h-36c0 1.104.896 2 2 2" fill="#bcbec0" transform="translate(3 3)"/><path d="m0 0c-1.657 0-3-1.343-3-3v-6h6v6c0 1.657-1.343 3-3 3" fill="#231f20" transform="translate(19 14)"/><g fill="#d1d3d4"><path d="m8 16h-4v-11h4v11"/><path d="m14 16h-4v-11h4v11"/><path d="m34 16h-4v-11h4v11"/><path d="m28 16h-4v-11h4v11"/></g><path d="m35 3h-32v2h32v-2" fill="#a7a9ac"/><path d="m0 0l-18 11-18-11h36" fill="#58595b" transform="translate(37 26)"/><path d="m0 0l-16-9.6v-4h32v4l-16 9.6" fill="#d1d3d4" transform="translate(19 34.6)"/><g fill="#808285"><path d="m8 16h-4v2h4v-2"/><path d="m14 16h-4v2h4v-2"/><path d="m28 16h-4v2h4v-2"/><path d="m34 16h-4v2h4v-2"/></g><path d="m36 20h-34v5h34v-5" fill="#d1d3d4"/><path d="m0 0c0-.552-.447-1-1-1h-34c-.552 0-1 .448-1 1v1c0 .552.448 1 1 1h34c.553 0 1-.448 1-1v-1" fill="#a7a9ac" transform="translate(37 25)" id="1"/><use transform="translate(0-6)" xlink:href="#1"/><path d="m24 3h-10v2h10v-2" fill="#e6e7e8"/><path d="m26 1h-14v2h14v-2" fill="#f1f2f2"/></g></g></svg>