<svg xmlns="http://www.w3.org/2000/svg" viewBox="0 0 47.5 47.5" enable-background="new 0 0 47.5 47.5"><defs><clipPath id="0"><path d="m0 38h38v-38h-38v38"/></clipPath></defs><g transform="matrix(1.25 0 0-1.25 0 47.5)"><g clip-path="url(#0)"><path d="m0 0c0 0-1.394 1.291-.103 2.686 1.291 1.393 2.686.101 2.686.101l6.471-5.994c-.102.096.45.879.368.955l-8.982 8.319c0 0-1.394 1.291-.103 2.684 1.292 1.395 2.686.103 2.686.103l8.448-7.825c-.02.018.609.731.597.742l-9.794 9.07c0 0-1.394 1.291-.103 2.685 1.292 1.393 2.686.102 2.686.102l9.793-9.07c.012-.01.683.664.703.645l-9.154 8.479c0 0-1.394 1.291-.103 2.685 1.292 1.393 2.686.102 2.686.102 0 0 6.812-6.31 9.679-8.965 2.866-2.655 3.512-1.958 3.512-1.958l-2.588 2.397-2.989 2.767c0 0-1.394 1.291-.102 2.686 1.292 1.394 2.685.103 2.685.103l7.667-7.102c4.618-4.278 4.895-11.491.616-16.11-4.278-4.619-11.492-4.894-16.11-.617-.244.226-.682.663-.663.684l-.033-.038-10.455 9.684" fill="#c1694f" transform="translate(2.727 14.701)"/><path d="m0 0c0 0-1.394 1.291-.103 2.685 1.291 1.395 2.685.104 2.685.104l6.472-5.996c-.103.096.45.879.368.955l-8.982 8.319c0 0-1.394 1.291-.103 2.685 1.291 1.394 2.685.103 2.685.103l8.448-7.826c-.019.019.61.731.598.742l-9.794 9.07c0 0-1.394 1.29-.103 2.684 1.291 1.394 2.685.103 2.685.103l9.793-9.07c.013-.012.683.662.703.644l-9.153 8.479c0 0-1.394 1.291-.103 2.684 1.291 1.394 2.685.103 2.685.103 0 0 6.813-6.311 9.68-8.966 2.865-2.654 3.512-1.957 3.512-1.957l-2.589 2.397-2.988 2.767c0 0-1.393 1.291-.103 2.685 1.292 1.394 2.686.103 2.686.103l7.666-7.101c4.619-4.278 4.895-11.492.617-16.11-4.279-4.619-11.492-4.894-16.11-.616-.245.225-.682.662-.663.682l-.034-.038-10.454 9.684" fill="#d99e82" transform="translate(5.627 16.65)"/><g fill="#ffac33"><path d="m0 0c-.213 0-.429.068-.61.208-.438.338-.518.966-.18 1.403l2.978 3.855c.336.437.965.519 1.403.18.437-.337.517-.965.18-1.402l-2.979-3.855c-.196-.255-.492-.389-.792-.389" transform="translate(25.541 30.542)"/><path d="m0 0c-.552 0-1 .448-1 1v5c0 .552.448 1 1 1 .553 0 1-.448 1-1v-5c0-.552-.447-1-1-1" transform="translate(20 30)"/><path d="m0 0c-.408 0-.792.252-.939.659-.19.519.079 1.092.597 1.281l4.583 1.667c.521.189 1.093-.08 1.281-.598.19-.519-.079-1.093-.597-1.282l-4.583-1.666c-.113-.041-.229-.061-.342-.061" transform="translate(29.417 27.333)"/></g></g></g></svg>