<svg xmlns="http://www.w3.org/2000/svg" viewBox="0 0 47.5 47.5" enable-background="new 0 0 47.5 47.5" xmlns:xlink="http://www.w3.org/1999/xlink"><defs><path id="1" d="m0 0c0 0 0-1-1-1h-4c-1 0-1 1-1 1v20h6v-20" fill="#292f33"/><clipPath id="0"><path d="m0 38h38v-38h-38v38"/></clipPath></defs><g transform="matrix(1.25 0 0-1.25 0 47.5)"><g clip-path="url(#0)"><path d="m0 0c0 0-2 0-2 2v32c0 0 0 2 2 2h32.03c1.969 0 1.969-2 1.969-2v-32c0 0 0-2-2-2h-32" fill="#292f33" transform="translate(3 1)"/><path d="m0 0c0 0 0-1 1-1h5c1 0 1 1 1 1v28h-7v-28" fill="#e1e8ed" transform="translate(20 4)" id="2"/><path d="m0 0v-28c0 0 0-1 1-1h4c1 0 1 1 1 1v28h-6" fill="#e1e8ed" transform="translate(29 32)"/><use transform="translate(-9)" xlink:href="#2"/><path d="m0 0c0 0 0-1 1-1h4c1 0 1 1 1 1v28h-6v-28" fill="#e1e8ed" transform="translate(3 4)"/><use transform="translate(31 14)" xlink:href="#1"/><use transform="translate(22 14)" xlink:href="#1"/><use transform="translate(13 14)" xlink:href="#1"/></g></g></svg>