<svg xmlns="http://www.w3.org/2000/svg" viewBox="0 0 47.5 47.5" enable-background="new 0 0 47.5 47.5"><defs><clipPath id="0"><path d="m0 38h38v-38h-38v38"/></clipPath></defs><g transform="matrix(1.25 0 0-1.25 0 47.5)"><g clip-path="url(#0)"><path d="m0 0c-2.392-.797-3.189 3.189-3.189 3.189 0 0 1.088 1.092.264 2.062 1.283 1.283.533 1.925.533 1.925-2.203 2.202-5.772 2.202-7.974 0-.278-.278-.466-.527-.624-.764-.068-.098-.13-.196-.191-.296-.006-.011-.01-.021-.016-.031-.322-.535-.553-1.107-.682-1.701-.176-.359-.427-.743-.879-1.195-1.595-1.594-5.581.797-8.771-2.392-.033-.032-.051-.078-.077-.116-.107-.095-.218-.179-.321-.282-3.743-3.743-3.386-10.169.798-14.353 3.974-3.974 9.968-4.487 13.767-1.319.066.035.132.069.185.123.081.081.142.158.218.237.06.056.123.105.181.162 1.909 1.91 2.641 4.206 2.352 6.552-.076 1.116-.186 1.991.44 2.617.797.797 3.188 0 4.783 1.595 2.391 2.392.716 4.49-.797 3.987" fill="#f18f26" transform="translate(25.925 18.749)"/><path d="m 0,0 -12.141,-12.142 -2.122,2.121 L -2.121,2.122 0,0 Z" fill="#642116" transform="translate(33.05 30.929)"/><path d="m0 0c.437-.438.437-1.155-.001-1.593l-3.187-3.185c-.438-.438-1.155-.438-1.592 0l-2.39 2.389c-.437.438-.437 1.155.001 1.593l3.187 3.185c.438.438 1.155.438 1.592 0l2.39-2.389" fill="#f18f26" transform="translate(36.2 33.815)"/><g fill="#ccd6dd"><path d="M 0,0 -1.414,-1.415 -4.95,2.121 -3.536,3.535 0,0 Z" transform="translate(21 17.465)"/><path d="M 0,0 -1.414,-1.414 -4.95,2.121 -3.536,3.536 0,0 Z" transform="translate(17.464 13.929)"/></g><path d="m0 0c.389-.389.389-1.025 0-1.414-.389-.389-1.025-.389-1.414 0l-2.122 2.121c-.388.389-.388 1.025 0 1.414.39.389 1.026.389 1.415 0l2.121-2.121" fill="#642116" transform="translate(13.928 11.808)"/></g></g></svg>