<svg xmlns="http://www.w3.org/2000/svg" viewBox="0 0 47.5 47.5" enable-background="new 0 0 47.5 47.5"><defs><clipPath id="0"><path d="m0 38h38v-38h-38v38"/></clipPath></defs><g transform="matrix(1.25 0 0-1.25 0 47.5)"><g clip-path="url(#0)"><path d="m0 0c-1.385 2.226-3.34 5-5.265 7.888-5.14 8.772-1.512 18.411-2.892 21.51-.56 1.26-3.879-.966-5.555-4.563-.356.106-.747.157-1.17.148.155 2.398.293 4.31-.193 5.404-.71 1.598-5.867-2.419-6.464-7.73-1.847-1.01-3.222-1.956-3.222-1.956 0 0-.95-1.376-1.954-3.223-5.312-.594-9.331-5.753-7.732-6.464 1.096-.489 3.01-.349 5.421-.193-.006-.42.046-.806.153-1.159-3.609-1.674-5.848-5.01-4.586-5.567 3.282-1.46 13.9 2.701 23.05-3.893.288-.207.478-.322.6-.371 2.118-1.433 4.114-2.801 5.791-3.846 2.875-1.79 3.962.007 3.962.007 0 0 1.844 1.132.053 4.01" fill="#3e721d" transform="translate(36.01 6.03)"/><path d="m0 0c.369.545.338 1.278-.144 1.761 0 0-11.86 15.812-13.835 23.719-1.977 7.906-4.397 5.737-3.689-.474.325-2.848 1.817-6.139 3.806-9.385l-8.942 8.941c-.546.546-1.431.546-1.977 0-.545-.546-.546-1.431 0-1.977l8.94-8.94c-3.245 1.987-6.536 3.48-9.383 3.804-6.212.709-8.381-1.712-.475-3.688 7.907-1.976 23.72-13.836 23.72-13.836.481-.483 1.214-.513 1.757-.146.035-.007.065-.009.078.004.026.026.035.06.058.086.025.023.059.031.083.056.014.013.01.044.003.075" fill="#77b255" transform="translate(36.03 2.172)"/><path d="m0 0c1.807-1.806 1.721-4.819-.188-6.729-1.911-1.91-3.771-.842-5.578.964-1.805 1.806-2.873 3.666-.963 5.577 1.91 1.909 4.923 1.994 6.729.188" fill="#dd2e44" transform="translate(14.772 30.13)"/><path d="m0 0c1.807-1.807 2.875-3.666.965-5.576-1.91-1.91-4.923-1.995-6.73-.189-1.806 1.806-.964 5.577-.902 7.82.075 2.628 4.487.126 6.667-2.055" fill="#ea596e" transform="translate(13.618 28.976)"/><path d="m0 0c1.808-1.807 1.722-4.819-.187-6.729-1.911-1.911-3.77-.842-5.577.963-1.805 1.806-2.874 3.667-.964 5.577 1.91 1.91 4.924 1.995 6.728.189" fill="#dd2e44" transform="translate(23.665 21.234)"/><path d="m0 0c1.806-1.807 2.873-3.666.964-5.576-1.91-1.91-4.923-1.995-6.729-.188-1.806 1.806-.964 5.576-.902 7.819.075 2.628 4.486.125 6.667-2.055" fill="#ea596e" transform="translate(22.514 20.08)"/><path d="m0 0c2.369-1.052 3.327-3.876 2.139-6.308-1.187-2.433-3.354-2.085-5.722-1.033-2.37 1.052-4.045 2.407-2.857 4.841 1.187 2.433 4.07 3.552 6.44 2.5" fill="#f4900c" transform="translate(12.203 20.89)"/><path d="m0 0c2.368-1.052 4.04-2.408 2.855-4.84-1.187-2.433-4.071-3.553-6.439-2.501-2.37 1.051-2.857 4.84-3.57 6.944-.837 2.462 4.294 1.665 7.154.397" fill="#ffcc4d" transform="translate(11.486 19.422)"/><path d="m0 0c1.143-2.447.082-5.359-2.365-6.5-2.447-1.14-3.881.607-5.02 3.056-1.142 2.448-1.56 4.671.888 5.812 2.447 1.141 5.357.082 6.5-2.368" fill="#f4900c" transform="translate(25.93 29.988)"/><path d="m0 0c1.141-2.449 1.559-4.671-.889-5.812-2.446-1.14-5.359-.081-6.5 2.368-1.141 2.448.889 5.812 1.676 7.978.924 2.539 4.333-1.578 5.713-4.534" fill="#ffcc4d" transform="translate(24.453 29.3)"/></g></g></svg>