<svg xmlns="http://www.w3.org/2000/svg" viewBox="0 0 47.5 47.5" enable-background="new 0 0 47.5 47.5"><defs><clipPath id="0"><path d="m0 38h38v-38h-38v38"/></clipPath><clipPath id="1"><path d="m6.391 14.349c-.595-2.973.085-4.667.825-5.697-.014-.057-.017-.103.007-.125.119-.122.263-.264.428-.414.145-.158.283-.299.403-.42.021-.02.066-.014.114-.004 1.07-.795 2.85-1.582 5.861-.978 16.638 3.326 19.285 22.309 19.285 23.972 0 0-.145 1.727-.781 2.253-.435.546-2.02.546-2.02.546-1.664 0-20.797-2.496-24.12-19.13"/></clipPath></defs><g transform="matrix(1.25 0 0-1.25 0 47.5)"><g clip-path="url(#0)"><g fill="#5c913b"><path d="m0 0c-1.664-1.664-6.655-8.318-4.159-14.14 2.495-5.823 5.909-2.239 7.486 2.495.832 2.496.832 5.824-.831 10.815-.832 2.496-2.496.832-2.496.832" transform="translate(16.373 35.978)"/><path d="m0 0c-1.663-1.663-8.319-6.655-14.14-4.159-5.823 2.496-2.24 5.909 2.496 7.486 2.497.832 5.823.833 10.814-.831 2.495-.832.832-2.496.832-2.496" transform="translate(35.677 16.674)"/></g><path d="m0 0c0 0-.145 1.727-.781 2.253-.436.546-2.02.546-2.02.546-1.664 0-20.798-2.495-24.12-19.13-.595-2.973.086-4.666.826-5.697-.015-.057-.018-.103.006-.125.12-.121.263-.264.428-.413.145-.159.284-.3.403-.42.022-.02.067-.015.115-.005 1.07-.795 2.849-1.581 5.86-.978 16.639 3.326 19.285 22.309 19.286 23.972" fill="#f4900c" transform="translate(33.31 30.683)"/></g><g clip-path="url(#1)" fill="#f7b82d"><path d="m0 0c-.446-.446-1.172-.446-1.617 0l-1.618 1.618c-.447.446-.447 1.17 0 1.617.446.447 1.172.447 1.618 0l1.617-1.617c.446-.447.446-1.171 0-1.618" transform="translate(25.769 26.565)"/><path d="m0 0c-.446-.446-1.171-.446-1.617 0l-1.618 1.618c-.446.446-.446 1.17 0 1.617.447.447 1.171.447 1.618 0l1.617-1.617c.447-.447.447-1.171 0-1.618" transform="translate(17.681 26.565)"/><path d="m0 0c-.447-.447-1.17-.447-1.617 0l-1.618 1.617c-.447.447-.447 1.171 0 1.617.447.447 1.171.447 1.618 0l1.617-1.617c.446-.447.446-1.171 0-1.617" transform="translate(20.11 28.992)"/><path d="m0 0c-.447-.446-1.171-.446-1.619 0l-1.616 1.618c-.447.446-.447 1.171 0 1.617.446.447 1.17.447 1.616 0l1.619-1.617c.446-.447.446-1.171 0-1.618" transform="translate(15.256 24.14)"/><path d="m0 0c-.446-.447-1.17-.447-1.617 0l-1.617 1.617c-.448.447-.448 1.171 0 1.617.447.447 1.17.447 1.617 0l1.617-1.617c.446-.447.446-1.171 0-1.617" transform="translate(28.19 28.992)"/><path d="m0 0c-.446-.447-1.17-.447-1.617 0l-1.617 1.617c-.448.447-.448 1.171 0 1.617.447.448 1.17.448 1.617 0l1.617-1.617c.446-.447.446-1.171 0-1.617" transform="translate(30.617 31.383)"/><path d="m0 0c-.447-.446-1.172-.446-1.618 0l-1.617 1.618c-.448.446-.448 1.171 0 1.617.446.447 1.171.447 1.617 0l1.618-1.617c.446-.447.446-1.171 0-1.618" transform="translate(23.343 24.14)"/><path d="m0 0c-.445-.446-1.17-.446-1.617 0l-1.617 1.618c-.446.446-.446 1.17 0 1.617.447.447 1.171.447 1.617 0l1.617-1.617c.447-.447.447-1.171 0-1.618" transform="translate(20.915 21.713)"/><path d="m0 0c-.447-.446-1.171-.446-1.618 0l-1.617 1.618c-.447.445-.447 1.17 0 1.617.447.447 1.171.446 1.617 0l1.618-1.617c.446-.448.447-1.171 0-1.618" transform="translate(16.06 16.861)"/><path d="m0 0c-.447-.446-1.171-.446-1.618 0l-1.616 1.617c-.448.447-.448 1.172 0 1.618.445.447 1.17.447 1.616 0l1.618-1.618c.447-.446.447-1.17 0-1.617" transform="translate(18.49 19.287)"/></g><g clip-path="url(#0)"><path d="m0 0c-7.125 2.374-15.1-.651-19.418-3.576 2.925 4.321 5.95 12.294 3.576 19.418-.933 2.8-5.601 5.601-8.402 2.801-.934-.934-1.867-1.868 0-1.868 1.867 0 4.667-2.8 3.735-5.6-.836-2.505-6.889-8.742-4.154-15.375-.269-.115-.523-.279-.743-.499l-.715-.714c-.919-.919-.919-2.409-.001-3.329l.716-.716c.92-.92 2.409-.92 3.328 0l.716.716c.123.123.226.258.316.398 6.999-3.84 13.747 2.799 16.379 3.677 2.8.933 5.6-1.868 5.6-3.734 0-1.868.933-.934 1.867 0 2.801 2.799-.001 7.469-2.8 8.401" fill="#77b255" transform="translate(28.866 13.426)"/></g></g></svg>