<svg xmlns="http://www.w3.org/2000/svg" viewBox="0 0 47.5 47.5" enable-background="new 0 0 47.5 47.5"><defs><clipPath id="0"><path d="m0 38h38v-38h-38v38"/></clipPath></defs><g transform="matrix(1.25 0 0-1.25 0 47.5)"><g clip-path="url(#0)"><path d="m0 0c0 9.389-7.611 17-17 17-9.388 0-16.999-7.611-16.999-17 0-9.389 7.611-17 16.999-17 9.389 0 17 7.611 17 17" transform="translate(36 19)"/><path d="m0 0c0 0-3 0-3 3-.001 2 0 20 0 20 0 0 0 3 3 3h10c0 0 3 0 3-3v-20c0 0 0-3-3-3h-10" fill="#fff" transform="translate(14 6)"/><path d="m13 10h12v18h-12v-18"/><path d="m0 0l-22.591 22.591c2.86 2.673 6.689 4.321 10.911 4.321 8.837 0 16-7.163 16-16 0-4.223-1.648-8.05-4.32-10.912m-11.68-5.088c-8.836 0-15.999 7.163-15.999 16 0 3.713 1.276 7.121 3.397 9.835l22.437-22.437c-2.715-2.123-6.122-3.398-9.835-3.398m.001 34c-9.941 0-18-8.06-18-18 0-9.941 8.06-18 18-18 9.941 0 17.999 8.06 17.999 18 0 9.941-8.06 18-17.999 18" fill="#dd2e44" transform="translate(30.68 8.09)"/></g></g></svg>