<svg xmlns="http://www.w3.org/2000/svg" viewBox="0 0 47.5 47.5" enable-background="new 0 0 47.5 47.5"><defs><clipPath id="0"><path d="m0 38h38v-38h-38v38"/></clipPath></defs><g transform="matrix(1.25 0 0-1.25 0 47.5)"><g clip-path="url(#0)"><g fill="#77b255"><path d="m0 0c0-9.842 6.575-9.673 5.158-10.08-7-2-8.804 7.618-9.464 7.618-2.378 0-5.536.423-5.536 2.46 0 2.039 2.46 4.922 6.151 4.922 2.379 0 3.691-2.883 3.691-4.922" transform="translate(10.842 17.08)"/><path d="m0 0c0-1.104-3.518.741-5 0-2-1-2 .896-2 2 0 1.104 1.343 1 3 1 1.657 0 4-1.896 4-3" transform="translate(37 8.362)"/><path d="m0 0c0-2.761-1.279-2.857-2.857-2.857-1.579 0-2.858.096-2.858 2.857 0 .489.085 1.029.234 1.587.69 2.59 2.754 5.556 4.052 5.556 1.578 0 1.429-4.382 1.429-7.143" transform="translate(17.715 3.857)"/><path d="m0 0c0-2.761 1.278-2.857 2.856-2.857 1.579 0 2.858.096 2.858 2.857 0 .489-.085 1.029-.235 1.587-.69 2.59-2.753 5.556-4.051 5.556-1.578 0-1.428-4.382-1.428-7.143" transform="translate(26.286 3.857)"/></g><path d="m0 0c0-4-5.149-4-11.5-4-6.351 0-11.5 0-11.5 4 0 6.627 5.149 12 11.5 12 6.351 0 11.5-5.373 11.5-12" fill="#3e721d" transform="translate(33 10)"/><path d="m0 0c0-.553-.448-1-1-1-.552 0-1 .447-1 1 0 .553.448 1 1 1 .552 0 1-.447 1-1" fill="#292f33" transform="translate(7 19)"/><g fill="#5c913b"><path d="m0 0c0-3.591-1.418-3.9-3.167-3.9-1.749 0-3.166.309-3.166 3.9 0 3.59 1.417 8.1 3.166 8.1 1.749 0 3.167-4.51 3.167-8.1" transform="translate(24.667 11.9)"/><path d="m0 0c.871-3.482-.784-4-2.533-4-1.749 0-2.533-.69-2.533 2.9 0 3.59-1.117 6.5.632 6.5 1.749 0 3.434-1.4 4.434-5.4" transform="translate(31 13)"/><path d="m0 0c0-3.591-.785-2.9-2.534-2.9-1.749 0-3.403.517-2.533 4 1 4 3.251 5.4 5 5.4 1.75 0 .067-2.91.067-6.5" transform="translate(17.07 11.9)"/></g></g></g></svg>