<svg xmlns="http://www.w3.org/2000/svg" viewBox="0 0 47.5 47.5" enable-background="new 0 0 47.5 47.5"><defs><clipPath id="0"><path d="m0 38h38v-38h-38v38"/></clipPath></defs><g transform="matrix(1.25 0 0-1.25 0 47.5)"><g clip-path="url(#0)"><path d="m0 0c0 5.45-4.418 9.868-9.867 9.868-3.308 0-6.227-1.633-8.02-4.129-1.79 2.496-4.71 4.129-8.02 4.129-5.45 0-9.868-4.418-9.868-9.868 0-.772.098-1.52.266-2.241 1.371-8.512 10.835-17.494 17.619-19.96 6.783 2.466 16.249 11.448 17.617 19.96.17.721.268 1.469.268 2.241" fill="#f2abba" transform="translate(36.885 25.17)"/><path d="m0 0c0 4.091-3.315 7.406-7.405 7.406-2.483 0-4.673-1.225-6.02-3.099-1.344 1.874-3.535 3.099-6.02 3.099-4.09 0-7.406-3.315-7.406-7.406 0-.579.074-1.141.199-1.681 1.029-6.389 8.132-13.13 13.224-14.981 5.091 1.85 12.195 8.592 13.223 14.98.127.541.2 1.103.2 1.682" fill="#e75a70" transform="translate(32.423 23.628)"/><path d="m0 0c0 2.801-2.27 5.072-5.07 5.072-1.701 0-3.201-.839-4.121-2.123-.921 1.284-2.421 2.123-4.121 2.123-2.801 0-5.072-2.271-5.072-5.072 0-.397.051-.781.136-1.151.705-4.376 5.57-8.992 9.06-10.26 3.485 1.268 8.351 5.884 9.05 10.259.087.371.137.755.137 1.152" fill="#bb1a34" transform="translate(28.19 22.17)"/></g></g></svg>