<svg xmlns="http://www.w3.org/2000/svg" viewBox="0 0 47.5 47.5" enable-background="new 0 0 47.5 47.5"><defs><clipPath id="0"><path d="m0 38h38v-38h-38v38"/></clipPath><clipPath id="1"><path d="m3.262 17.966c-.629-1.091-4.091-1.034-.989-3.103-3.102-2.068.45-2.243 1.223-3.103 2.625-2.919 8.996-6.204 14.291-6.204 6.853 0 13.445 5.556 13.445 12.41 0 6.854-5.172 14.479-13.445 14.479-8.274 0-12.06-10.217-14.525-14.479"/></clipPath></defs><g transform="matrix(1.25 0 0-1.25 0 47.5)"><g clip-path="url(#0)"><g fill="#ffac33"><path d="m0 0c6 8 14 10 18 10 1 0 1-1 0-1-1 0-6-2-7-9-1-7-11 0-11 0" transform="translate(9.231 27)"/><path d="m0 0c4-3 13-8 18-8 3 0 2 1 1 1-1 0-9 3-10 7-1 4-9 0-9 0" transform="translate(8.231 9)"/></g><g fill="#ffcc4d"><path d="m0 0c0-4.418 3.791-10 6-10 2.209 0-2 5.582-2 10 0 4.418 4.209 10 2 10-2.209 0-6-5.582-6-10" transform="translate(30 18)"/><path d="m0 0c0-6.854-6.591-12.41-13.445-12.41-5.294 0-11.666 3.285-14.291 6.205-.773.859-4.325 1.034-1.222 3.102-3.103 2.069.359 2.01.989 3.103 2.463 4.263 6.251 14.479 14.524 14.479 8.274 0 13.445-7.625 13.445-14.479" transform="translate(31.23 17.966)"/></g></g><g clip-path="url(#1)" fill="#f4900c"><path d="m0 0c-.012 0-.022 0-.034.001-.552.018-.985.48-.966 1.032.249 7.54 7.294 10.748 7.594 10.881.506.227 1.095-.004 1.319-.509.224-.504-.003-1.094-.507-1.319-.253-.113-6.2-2.85-6.408-9.119-.018-.541-.462-.967-.998-.967" transform="translate(20 18)"/><path d="m0 0c-.065 0-.131.006-.197.02-.541.108-.893.635-.784 1.176.918 4.591 4.967 5.804 6.98 5.804.553 0 1-.448 1-1 0-.551-.445-.998-.996-1-.173-.001-4.201-.085-5.02-4.196-.094-.475-.512-.804-.979-.804" transform="translate(25 20)"/><path d="m0 0c-.552 0-1 .447-1 1 0 12.598 10.605 15.926 10.713 15.958.529.158 1.086-.142 1.245-.671.158-.529-.142-1.086-.67-1.245-.407-.125-9.288-2.982-9.288-14.04 0-.553-.448-1-1-1" transform="translate(15 16)"/></g><g clip-path="url(#0)"><path d="m0 0c0-.829-.671-1.5-1.5-1.5-.829 0-1.5.671-1.5 1.5 0 .829.671 1.5 1.5 1.5.829 0 1.5-.671 1.5-1.5" fill="#292f33" transform="translate(12 21.5)"/></g></g></svg>