<svg xmlns="http://www.w3.org/2000/svg" viewBox="0 0 47.5 47.5" enable-background="new 0 0 47.5 47.5" xmlns:xlink="http://www.w3.org/1999/xlink"><defs><clipPath id="0"><path d="m0 38h38v-38h-38v38"/></clipPath></defs><g transform="matrix(1.25 0 0-1.25 0 47.5)"><g clip-path="url(#0)"><path d="m0 0v-16c0 0 0-4-4-4h-28c-4 0-4 4-4 4v2c0 0 17 10 36 14" fill="#e1e8ed" transform="translate(37 21)"/><path d="m0 0c.462-1 .023-2.19-.98-2.653l-23.616-10.877c-1-.462-2.19-.024-2.652.979l-.837 1.818c-.462 1-.023 2.191.98 2.653l23.615 10.877c1 .462 2.191.022 2.654-.98l.836-1.817" fill="#aa8ed6" transform="translate(33.816 16.02)"/><g fill="#67757f"><path d="m0 0c-.3 0-.605.067-.893.211l-2 1c-.438.22-.78.592-.962 1.046l-1.682 4.204-4.204 1.682c-1.026.41-1.525 1.574-1.114 2.6.409 1.026 1.575 1.525 2.599 1.114l5-2c.508-.203.91-.606 1.114-1.114l1.717-4.294 1.32-.66c.989-.494 1.389-1.695.895-2.684-.351-.701-1.057-1.105-1.791-1.105" transform="translate(26.406 11)"/><path d="m0 0c-.733-.001-1.44.404-1.791 1.105l-1 2c-.198.398-.259.851-.171 1.288l.848 4.241-2.602 4.337c-.569.947-.262 2.175.686 2.744.946.569 2.175.261 2.743-.686l3-5c.257-.426.344-.933.246-1.422l-.865-4.327.694-1.385c.493-.989.093-2.19-.895-2.684-.287-.144-.592-.211-.893-.211" transform="translate(17.409 7)"/></g><g fill="#ccd6dd"><path d="m0 0c-3.888 0-7.231 4.309-7.6 4.8-.663.884-.483 2.137.4 2.8.883.662 2.135.484 2.798-.397 1.01-1.33 3.037-3.203 4.402-3.203 1.104 0 2-.896 2-2 0-1.104-.896-2-2-2" transform="translate(25.408 21)"/><path d="m0 0c-.837 0-1.618.53-1.897 1.368-1.058 3.175-.442 6.121 1.733 8.297 1.539 1.54 3.332 2.167 3.532 2.233 1.046.349 2.181-.216 2.53-1.265.348-1.044-.213-2.172-1.254-2.526-.963-.337-3.996-1.726-2.746-5.474.349-1.048-.217-2.18-1.265-2.529-.21-.071-.423-.104-.633-.104" transform="translate(8.408 16.999)"/></g><path d="m0 0c0-1.933-1.567-3.5-3.5-3.5-1.933 0-3.5 1.567-3.5 3.5v4c0 1.933 1.567 3.5 3.5 3.5 1.933 0 3.5-1.567 3.5-3.5v-4" fill="#67757f" transform="translate(19.408 21.5)"/><g fill="#ccd6dd"><path d="m0 0c0-1.104-.896-2-2-2h-7c-1.104 0-2 .896-2 2 0 1.104.896 2 2 2h7c1.104 0 2-.896 2-2" transform="translate(21.408 27)"/><path d="m0 0c-.101 0-.2.03-.285.089-.134.094-.215.247-.215.411v7c0 2.5 2.708 2.5 4.5 2.5 1.792 0 4.5 0 4.5-2.5v-4c0-.208-.129-.395-.324-.468l-8-3c-.057-.022-.117-.032-.176-.032" transform="translate(12 18.5)"/></g><path d="m0 0l-1 3c-.068.204-.26.342-.475.342-.129 0-3.213-.035-7.299-3.1-3.868-2.901-4.756-2.901-6.701-2.901h-3c-.132 0-.259-.053-.353-.147-.527-.527-.666-1.268-.371-1.982.375-.904 1.55-1.871 3.724-1.871 1.439 0 3.533 1.156 5.957 2.493 2.979 1.644 6.355 3.507 9.04 3.507.162 0 .312.077.406.207.094.131.12.299.069.451" fill="#bb1a34" transform="translate(32.475 33.16)"/><path d="m0 0c0-2.209-1.791-4-4-4-2.209 0-4 1.791-4 4 0 2.209 1.791 3 4 3 2.209 0 4-.791 4-3" fill="#d99e82" transform="translate(19.408 33)"/><path d="m0 0c2 0 4 1 4 0 0-1 0-3 2-3 2 0 3 7-3 7-6 0-6-4-3-4" fill="#9aaab4" transform="translate(13 33)"/><path d="m0 0c0-.829-.671-1.5-1.5-1.5-.829 0-1.5.671-1.5 1.5 0 .829.671 1.5 1.5 1.5.829 0 1.5-.671 1.5-1.5" fill="#bdddf4" transform="translate(14 32.5)" id="1"/><path d="m0 0c-.551 0-1-.449-1-1 0-.551.449-1 1-1 .551 0 1 .449 1 1 0 .551-.449 1-1 1m0-3c-1.103 0-2 .897-2 2 0 1.103.897 2 2 2 1.103 0 2-.897 2-2 0-1.103-.897-2-2-2" fill="#67757f" transform="translate(12.5 33.5)" id="2"/><use transform="translate(3)" xlink:href="#1"/><use transform="translate(3)" xlink:href="#2"/></g></g></svg>