<svg xmlns="http://www.w3.org/2000/svg" viewBox="0 0 47.5 47.5" enable-background="new 0 0 47.5 47.5"><g transform="matrix(1.25 0 0-1.25 0 47.5)"><path d="m32 14h-26v-7h26v7" fill="#d1d3d4"/><path d="m0 0h36l-4 7h-28l-4-7" fill="#d99e82" transform="translate(1 1)"/><g fill="#66757f"><path d="m0 0h-24l-5-4h34l-5 4" transform="translate(31 17)"/><path d="m0 0h-24l-4-3h32l-4 3" transform="translate(31 23)"/></g><path d="m31 20h-24v-3h24v3" fill="#d1d3d4"/><path d="m0 0h-22l-1-5h24l-1 5" fill="#66757f" transform="translate(30 28)"/><path d="m0 0v4h-12v-4h-2v-2h16v2h-2" fill="#d1d3d4" transform="translate(25 28)"/><path d="m0 0h12v-2l2-2h-16l2 2v2" fill="#66757f" transform="translate(13 35)"/><path d="m0 0v-1h-10v1h-1v-1-1h1 10 1v1 1h-1" fill="#99aab5" transform="translate(24 37)"/><path d="M 0,0 10.236,5.118 20.472,0 0,0 Z" fill="#d1d3d4" transform="translate(8.764 22)"/><path d="m0 0l6 3 6-3h-12m18-.764l-5.105 2.553-6 3-.895.447-.895-.447-6-3-5.105-2.553v-1.236h6 12 6v1.236z" fill="#66757f" transform="translate(13 23)"/><path d="m32 8h-26v2h26v-2" fill="#6d6e71"/></g></svg>