<svg xmlns="http://www.w3.org/2000/svg" viewBox="0 0 47.5 47.5" enable-background="new 0 0 47.5 47.5"><defs><clipPath id="0"><path d="m0 38h38v-38h-38v38"/></clipPath></defs><g transform="matrix(1.25 0 0-1.25 0 47.5)"><g clip-path="url(#0)"><path d="m0 0c0 2.209 2.211 4 4.938 4 2.728 0 4.937-1.791 4.937-4 0-2.209-2.209-4-4.937-4-2.727 0-4.938 1.791-4.938 4" fill="#6d6e71" transform="translate(14.06 33)"/><path d="m0 0c0 2.14-1.053 3.872-2.373 3.98-1.372 7.465-6.497 13.02-12.627 13.02-6.13 0-11.255-5.555-12.627-13.02-1.32-.108-2.373-1.84-2.373-3.98 0-2.153 1.066-3.896 2.399-3.983 1.408-6.963 6.507-11.02 12.601-11.02 6.094 0 11.193 4.054 12.602 11.02 1.332.087 2.398 1.83 2.398 3.983" fill="#d99e82" transform="translate(34 16)"/><g fill="#808285"><path d="m0 0h-3c-.553 0-1 .448-1 1 0 .552.447 1 1 1h3c.553 0 1-.448 1-1 0-.552-.447-1-1-1" transform="translate(26 18)"/><path d="m0 0h-3c-.552 0-1 .448-1 1 0 .552.448 1 1 1h3c.552 0 1-.448 1-1 0-.552-.448-1-1-1" transform="translate(15 18)"/></g><path d="m0 0c-2.519 0-3.494.753-3.664.903-.413.368-.45.999-.084 1.412.355.403.963.45 1.377.114.06-.039.7-.429 2.371-.429 1.751 0 2.37.428 2.376.433.414.367 1.026.31 1.392-.101.367-.413.309-1.061-.104-1.429-.17-.15-1.145-.903-3.664-.903" fill="#dd2e44" transform="translate(19 5.349)"/><path d="m0 0h-2c-.552 0-1 .447-1 1 0 .553.448 1 1 1h2c.553 0 1-.447 1-1 0-.553-.447-1-1-1" fill="#c1694f" transform="translate(20 9)"/><g fill="#662113"><path d="m0 0c-.553 0-1 .447-1 1v2c0 .553.447 1 1 1 .553 0 1-.447 1-1v-2c0-.553-.447-1-1-1" transform="translate(24 13)"/><path d="m0 0c-.552 0-1 .447-1 1v2c0 .553.448 1 1 1 .552 0 1-.447 1-1v-2c0-.553-.448-1-1-1" transform="translate(14 13)"/></g><path d="m0 0c-2 7-8 9-11.188 9-1.812 0-3.812-1-3.812-1 0 0-2 1-4 1-3 0-9-2-11-9-1.648-5.769 2-11 2-11 0 3 2 9 7 9 5 0 6 4 6 4 0 0 .786-4 5.786-4 5 0 7.214-6 7.214-9 0 0 3.648 5.231 2 11" fill="#808285" transform="translate(34 25)"/><g fill="#aa8dd8"><path d="m0 0c0-.553-.447-1-1-1-.553 0-1 .447-1 1 0 .553.447 1 1 1 .553 0 1-.447 1-1" transform="translate(34 13)"/><path d="m0 0c0 .553-.448 1-1 1-.552 0-1-.447-1-1 0-.553.448-1 1-1 .552 0 1 .447 1 1" transform="translate(6 13)"/></g></g></g></svg>