<svg xmlns="http://www.w3.org/2000/svg" viewBox="0 0 47.5 47.5" enable-background="new 0 0 47.5 47.5"><defs><clipPath id="0"><path d="m0 38h38v-38h-38v38"/></clipPath></defs><g transform="matrix(1.25 0 0-1.25 0 47.5)"><g clip-path="url(#0)"><path d="m0 0c0 0 10.04 2.213 10.04 16 0 1.481-1.167 2.25-3.416 2.25h-7.124-1.125-1.125-7.123c-1.125 0-3.329.262-3.329-2.125 0-13.708 10.2-16.13 10.2-16.13v-10.123c0 0-4.584-2.34-5.498-2.883-.984-.562-.33-1.462.063-1.617.657-.258 2.254-1.102 6.781-1.102 4.64 0 6.202.914 6.764 1.102.217.072 1.347.932.011 1.723-2.378 1.408-5.121 2.777-5.121 2.777v10.123" fill="#8899a6" transform="translate(20 16.745)"/><g fill="#ccd6dd"><path d="m0 0c0-1.621-3.547-2.935-11.623-2.935-8.08 0-11.623 1.314-11.623 2.935 0 1.622 3.547 2.935 11.623 2.935 8.08 0 11.623-1.313 11.623-2.935" transform="translate(30 33.558)"/><path d="m0 0c2.042-9.5 5.458-12.792 8.699-13.835 1.11-.358 2.026-.428 2.801-.123 3.5 1.375 7.542 5.666 8.167 13.583.161 2.037-19.667.375-19.667.375" transform="translate(8.459 33.417)"/></g><path d="m0 0c0-3.5 3.333-8.5 8.333-8.5 5 0 8.667 5.458 8.667 8.458-6 0-17 .042-17 .042" fill="#a0041e" transform="translate(10 27.5)"/><path d="m0 0c0-.829-3.806-1.5-8.5-1.5-4.694 0-8.5.671-8.5 1.5 0 .829 3.806 1.5 8.5 1.5 4.694 0 8.5-.671 8.5-1.5" fill="#dd2e44" transform="translate(27 27.5)"/><path d="m0 0c-5.03 0-8.783 1.11-9.801 1.587-.5.235-.715.83-.481 1.33.234.501.831.716 1.33.481 1.239-.582 9.454-2.894 18.596.127.523.174 1.088-.111 1.262-.635.174-.525-.111-1.091-.635-1.264-3.677-1.215-7.21-1.626-10.271-1.626" fill="#fff" transform="translate(18.17 30.341)"/></g></g></svg>