<svg xmlns="http://www.w3.org/2000/svg" viewBox="0 0 47.5 47.5" enable-background="new 0 0 47.5 47.5" xmlns:xlink="http://www.w3.org/1999/xlink"><defs><clipPath id="0"><path d="m0 38h38v-38h-38v38"/></clipPath></defs><g transform="matrix(1.25 0 0-1.25 0 47.5)"><g clip-path="url(#0)"><path d="m0 0c.364 1.578.243 3.266-.458 4.946-.678 1.625-1.847 2.91-3.271 3.773.319 1.193.235 2.475-.324 3.751-.841 1.92-2.66 3.201-4.712 3.562.249.572.329 1.288.036 2.167-1 3-5 1-8 4.999-2.439-1.464-2.969-3.639-2.877-5.487-2.422-.412-3.8-.936-3.8-.936v-.002c-1.361-.551-2.323-1.884-2.323-3.443 0-.879.318-1.676.829-2.312l-.692-.259.001-.003c-2.33-.87-3.975-2.976-3.975-5.439 0-1.046.3-2.027.82-2.878-2.824-1.268-4.795-4.02-4.795-7.241 0-4.418 3.691-8 8.244-8 3.269 0 6.559.703 9.531 1.665 2.243-1.04 5.695-1.665 10.892-1.665 4.05 0 7.333 3.283 7.333 7.333 0 2.176-.953 4.125-2.459 5.469" fill="#bf6952" transform="translate(34.541 13.802)"/><g fill="#f5f8fa"><path d="m0 0c0-2.485-1.567-4.5-3.5-4.5-1.933 0-3.5 2.02-3.5 4.5 0 2.485 1.567 4.5 3.5 4.5 1.933 0 3.5-2.02 3.5-4.5" transform="translate(18 21.5)"/><path d="m0 0c0-2.485-1.566-4.5-3.5-4.5-1.934 0-3.5 2.02-3.5 4.5 0 2.485 1.566 4.5 3.5 4.5 1.934 0 3.5-2.02 3.5-4.5" transform="translate(28 21.5)"/></g><path d="m0 0c0-1.381-.896-2.5-2-2.5-1.104 0-2 1.119-2 2.5 0 1.381.896 2.5 2 2.5 1.104 0 2-1.119 2-2.5" fill="#292f33" transform="translate(17 21.5)" id="1"/><use transform="translate(9)" xlink:href="#1"/><path d="m0 0c-.246.492.003.895.553.895h18c.55 0 .799-.403.552-.895 0 0-2.552-5.105-9.552-5.105-7 0-9.553 5.105-9.553 5.105" fill="#292f33" transform="translate(10.447 12.11)"/><path d="M 0,0 C -2.771,0 -5.157,-0.922 -6.292,-2.256 -4.8,-3.211 -2.747,-4 0,-4 2.747,-4 4.801,-3.211 6.292,-2.256 5.157,-0.922 2.771,0 0,0" fill="#f2abba" transform="translate(20 11)"/></g></g></svg>