<svg xmlns="http://www.w3.org/2000/svg" viewBox="0 0 47.5 47.5" enable-background="new 0 0 47.5 47.5"><defs><clipPath id="0"><path d="m0 38h38v-38h-38v38"/></clipPath></defs><g transform="matrix(1.25 0 0-1.25 0 47.5)"><path d="m21 32h-4v5h4v-5" fill="#292f33"/><path d="m21 31h-4v4h4v-4" fill="#d1d3d4"/><path d="m21 31h-2v4h2v-4" fill="#a7a9ac"/><g clip-path="url(#0)"><path d="m0 0h-13c0 0 1.355-8 4.875-14 3.519-6 8.125 0 8.125 0 0 0 4.606-6 8.125 0 3.52 6 4.875 14 4.875 14h-13" fill="#66757f" transform="translate(19 18)"/><path d="m0 0h-13c0 0 1.355-8 4.875-14 3.519-6 8.125 0 8.125 0v14" fill="#99aab5" transform="translate(19 18)"/><path d="m37 7h-36v-6h36v6" fill="#55acee"/><path d="m0 0h-2.45l-.242 4h-18.616l-.241-4h-2.451v-6h2.088l-.242-4h20.308l-.242 4h2.088v6" fill="#e6e7e8" transform="translate(31 28)"/><path d="m11 22h16v-4h-16v4" fill="#d1d3d4"/><path d="m9 26h20v-2h-20v2" fill="#6d6e71"/><path d="m11 30h16v-2h-16v2" fill="#bcbec0"/><path d="m0 0h24.17c.201.747.368 1.427.5 2h-25.17c.132-.573.3-1.253.5-2" fill="#be1931" transform="translate(6.913 14)"/><path d="m0 0h12.09c.201.747.368 1.427.5 2h-12.587v-2" fill="#a0041e" transform="translate(19 14)"/><path d="m25 18h-12v2h12v-2" fill="#bcbec0"/><path d="m19 35h-2v2h2v-2" fill="#58595b"/></g></g></svg>