<svg xmlns="http://www.w3.org/2000/svg" viewBox="0 0 47.5 47.5" enable-background="new 0 0 47.5 47.5"><defs><clipPath id="0"><path d="m0 38h38v-38h-38v38"/></clipPath></defs><g transform="matrix(1.25 0 0-1.25 0 47.5)"><g clip-path="url(#0)"><path d="m0 0c0 0-.093-2.362 1.792-3.068 1.667-.625 2.309.622 2.309.622 0 0-.059-1.914 1.941-2.622 1.885-.668 2.75.958 2.75.958 0 0 .307-1.871 2.292-2.417 1.671-.459 2.916 1.167 2.916 1.167v-12.208c0-.959.542-2.576 2.543-2.577 2-.001 2.457 1.66 2.457 2.577v16.5 4c0 1 1 1 1 0v-2.666c0-3.792 2.038-6.143 2.751-6.792.713-.651 1.667-.98 2.82-.735 1.956.415 1.53 1.92.975 3.198-1.337 3.078-2.254 7.463-2.533 9.538-.791 5.857-5.809 10.375-11.884 10.38-6.626.004-12.12-5.297-12.13-11.923v-3.932" fill="#d99e82" transform="translate(5 21.11)"/></g></g></svg>