<svg xmlns="http://www.w3.org/2000/svg" viewBox="0 0 47.5 47.5" enable-background="new 0 0 47.5 47.5"><defs><clipPath id="0"><path d="m0 38h38v-38h-38v38"/></clipPath><clipPath id="1"><path d="m8 29v-28h18c2.209 0 4 1.791 4 4v20.335c0 2.209-1.456 3.665-3.665 3.665h-18.335"/></clipPath></defs><g transform="matrix(1.25 0 0-1.25 0 47.5)"><g clip-path="url(#0)"><path d="m0 0c0-2.209-1.791-4-4-4h-26c-2.209 0-4 1.791-4 4v19.687c0 2.209 5.791 6.313 8 6.313h20.625c3.094 0 5.375-2.313 5.375-5.375v-20.625" fill="#292f33" transform="translate(36 11)"/><path d="m0 0c0-2.209-1.791-4-4-4h-22c-2.209 0-4 1.791-4 4v24c0 4.119-.021 4 5 4h21c2.209 0 4-1.791 4-4v-24" fill="#ccd6dd" transform="translate(34 7)"/><path d="m0 0c0-1.657-1.343-3-3-3h-24c-1.657 0-3 1.343-3 3v24c0 1.657 1.343 3 3 3h24c1.657 0 3-1.343 3-3v-24" fill="#e1e8ed" transform="translate(32 6)"/><path d="m0 0c0-2.209-1.791-4-4-4h-21c-2.209 0-4 1.791-4 4v22c0 2.209 1.791 4 4 4h21c2.209 0 4-1.791 4-4v-22" fill="#292f33" transform="translate(32 5)"/><path d="m0 0c0-2.209-1.791-4-4-4h-19c-2.209 0-4 1.791-4 4v20c0 2.209 1.791 4 4 4h19.335c2.209 0 3.665-1.456 3.665-3.665v-20.335" fill="#66757f" transform="translate(30 5)"/><path d="m0 0c-1.687 0-1.731 1.922-1 2.75.832.941 2.125 1.25 4.438 1.25h1.562v2h-2.719c-3.968 0-7.281-2.5-7.281-5.375v-26.625c0-2.209 1.791-4 4-4h2v30h-1" fill="#292f33" transform="translate(7 31)"/></g><g clip-path="url(#1)" fill="#ccd6dd"><path d="m11 25h-4v4h4v-4"/><path d="m19 25h-4v4h4v-4"/><path d="m27 25h-4v4h4v-4"/><path d="m23 21h-4v4h4v-4"/><path d="m31 21h-4v4h4v-4"/><path d="m15 21h-4v4h4v-4"/><path d="m11 17h-4v4h4v-4"/><path d="m19 17h-4v4h4v-4"/><path d="m27 17h-4v4h4v-4"/><path d="m23 13h-4v4h4v-4"/><path d="m31 13h-4v4h4v-4"/><path d="m15 13h-4v4h4v-4"/><path d="m11 9h-4v4h4v-4"/><path d="m19 9h-4v4h4v-4"/><path d="m27 9h-4v4h4v-4"/><path d="m11 1h-4v4h4v-4"/><path d="m19 1h-4v4h4v-4"/><path d="m27 1h-4v4h4v-4"/><path d="m23 5h-4v4h4v-4"/><path d="m31 5h-4v4h4v-4"/><path d="m15 5h-4v4h4v-4"/></g></g></svg>