<svg xmlns="http://www.w3.org/2000/svg" viewBox="0 0 47.5 47.5" enable-background="new 0 0 47.5 47.5" xmlns:xlink="http://www.w3.org/1999/xlink"><defs><clipPath id="0"><path d="m0 38h38v-38h-38v38"/></clipPath></defs><g transform="matrix(1.25 0 0-1.25 0 47.5)"><g clip-path="url(#0)"><path d="m0 0c0-.553-.447-1-1-1h-1c-.553 0-1 .447-1 1v6c0 .553.447 1 1 1h1c.553 0 1-.447 1-1v-6" fill="#292f33" transform="translate(37 17)"/><path d="m0 0h26c1 0 3 1 3 4 0 2 0 8-1 9-1 1 0 7-4 7h-14c-3 0-6-7-6-7l-4-1c0 0-4-1-4-4v-3c0 0-1-.338-1-1.957 0-1.619 1-2.043 1-2.043l4-1" fill="#3b88c3" transform="translate(6 10)"/><path d="m0 0c0-2.209-1.791-4-4-4-2.209 0-4 1.791-4 4 0 2.209 1.791 4 4 4 2.209 0 4-1.791 4-4" fill="#292f33" transform="translate(14 10)" id="1"/><path d="m0 0c0-1.104-.896-2-2-2-1.104 0-2 .896-2 2 0 1.104.896 2 2 2 1.104 0 2-.896 2-2" fill="#ccd6dd" transform="translate(12 10)" id="2"/><use transform="translate(18)" xlink:href="#1"/><use transform="translate(18)" xlink:href="#2"/><g fill="#bbddf5"><path d="m0 0c0-.552.447-1 1-1h4c.553 0 1 .448 1 1v3c0 .552-.447 1-1 1h-4c-.553 0-1-.448-1-1v-3" transform="translate(25 24)"/><path d="m0 0c0-1 .448-1 1-1h7c.553 0 1 .448 1 1v3c0 .552-.447 1-1 1h-5c-1 0-3-3-3-4" transform="translate(14 24)"/></g><path d="m0 0c0-.828-.672-1.5-1.5-1.5h-22c-.829 0-1.5.672-1.5 1.5 0 .829.671 1.5 1.5 1.5h22c.828 0 1.5-.671 1.5-1.5" fill="#55acee" transform="translate(33 17.5)"/></g></g></svg>