<svg xmlns="http://www.w3.org/2000/svg" viewBox="0 0 47.5 47.5" enable-background="new 0 0 47.5 47.5"><defs><clipPath id="0"><path d="m0 38h38v-38h-38v38"/></clipPath></defs><g transform="matrix(1.25 0 0-1.25 0 47.5)"><g clip-path="url(#0)"><path d="m0 0c0-2.209-1.791-4-4-4h-28c-2.209 0-4 1.791-4 4v28c0 2.209 1.791 4 4 4h28c2.209 0 4-1.791 4-4v-28" fill="#88c9f9" transform="translate(37 5)"/><path d="m0 0c-.738-.726-1.944-.726-2.681 0l-6.633 6.529c-.737.726-.932 2.033-.434 2.904l7.5 18.447c.499.871 1.315.871 1.814 0l7.5-18.447c.498-.871.303-2.178-.434-2.904l-6.632-6.529" fill="#dd2e44" transform="translate(20.341 1.545)"/><path d="m0 0c.949 0 2 .952 2.899 2.191l-1.992 4.902c-.499.871-1.315.871-1.814 0l-1.993-4.902c.897-1.239 1.951-2.191 2.9-2.191" fill="#a0041e" transform="translate(19 22.332)"/><path d="m0 0c0-1.964-2.791-7.112-5-7.112-2.209 0-5 5.148-5 7.112 0 1.783 2.791 2.778 5 2.778 2.209 0 5-.995 5-2.778" fill="#dd2e44" transform="translate(24 31.22)"/><g fill="#4ca0d3"><path d="m0 0v-2.254c2.074-2.77 6.779-7.751 8-7.751 2.209 0 11 10.796 11 13.01 0 1-1 1-2 1h-13c-2.209 0-4-1.791-4-4" transform="translate(1 33)"/><path d="m0 0c0-2.209 8.791-13.01 11-13.01 1.221 0 5.926 4.981 8 7.751v2.254c0 2.209-1.791 4-4 4h-13c-1 0-2 0-2-1" transform="translate(18 36)"/></g><path d="m0 0c-.267 0-.526-.029-.778-.079 1.183-1.657 7.34-2.921 14.778-2.921 7.437 0 13.595 1.264 14.778 2.921-.252.05-.511.079-.778.079h-28" fill="#269" transform="translate(5 37)"/></g></g></svg>