<svg xmlns="http://www.w3.org/2000/svg" viewBox="0 0 47.5 47.5" enable-background="new 0 0 47.5 47.5"><defs><clipPath id="0"><path d="m0 38h38v-38h-38v38"/></clipPath></defs><g transform="matrix(1.25 0 0-1.25 0 47.5)"><g clip-path="url(#0)"><path d="m0 0l3.58 9.847c0 0-.398-.002-1-.034v2.034h-2v-2.219c-2.271-.303-5-1.028-5-2.781 0 1.753-2.729 2.478-5 2.781v2.219h-2v-2.034c-.601.032-1 .034-1 .034l3.581-9.847-12.581-13.796c0 0 6-10.357 17-10.357 11 0 17 10.357 17 10.357l-12.58 13.796" fill="#55acee" transform="translate(23.42 25.15)"/><path d="m24 24h-10v2h10v-2" fill="#bbddf5"/><g fill="#3b88c3"><path d="m0 0c0 0-6.734-8.106-5.05-9.01 1.684-.901 5.05 9.01 5.05 9.01" transform="translate(16 24)"/><path d="M 0,0 C 0,0 6.734,-8.105 5.051,-9.007 3.367,-9.907 0,0 0,0" transform="translate(22.1 24)"/><path d="m0 0c0 0-2-11 0-11 2 0 0 11 0 11" transform="translate(19 24)"/></g></g></g></svg>