<svg xmlns="http://www.w3.org/2000/svg" viewBox="0 0 47.5 47.5" enable-background="new 0 0 47.5 47.5"><defs><clipPath id="0"><path d="m0 38h38v-38h-38v38"/></clipPath></defs><g transform="matrix(1.25 0 0-1.25 0 47.5)"><g clip-path="url(#0)"><path d="m0 0c-.704.703-3.856 2.661-6.935 4.364 1.696 2.43 2.697 5.38 2.697 8.567 0 8.284-6.716 15-15 15-8.285 0-15-6.716-15-15 0-8.285 6.715-15 15-15 3.158 0 6.086.981 8.504 2.649 1.705-3.081 3.666-6.24 4.37-6.944 1.414-1.414 3.126-1.707 4.126-1.705 1.176.002 4.054 2.881 4 4-.049.999-.348 2.655-1.762 4.069" fill="#292f33" transform="translate(35.24 9.07)"/><path d="m0 0c0-6.627-5.373-12-12-12-6.627 0-12 5.373-12 12 0 6.627 5.373 12 12 12 6.627 0 12-5.373 12-12" fill="#66757f" transform="translate(28 22)"/><path d="m0 0c4.863 1.533 4 5 4 9 0 4 4 6.708.334 9.75-2.177 1.806-6.751 2.417-8.876 1.625-1.952-.727-4.458-2.208-4.458-5.208 0-3-.058-2.928-1.708-5.625-2.625-4.292 3.833-11.709 10.708-9.542" fill="#f5f8fa" transform="translate(17 12)"/><path d="m0 0c0-2.209-1.791-4-4-4-2.209 0-4 1.791-4 4 0 2.209 1.791 4 4 4 2.209 0 4-1.791 4-4" fill="#ffac33" transform="translate(18 19)"/></g></g></svg>