<svg xmlns="http://www.w3.org/2000/svg" viewBox="0 0 47.5 47.5" enable-background="new 0 0 47.5 47.5"><defs><clipPath id="0"><path d="m0 38h38v-38h-38v38"/></clipPath></defs><g transform="matrix(1.25 0 0-1.25 0 47.5)"><g clip-path="url(#0)"><path d="m0 0c0-1.104-.896-2-2-2h-32c-1.104 0-2 .896-2 2v20c0 1.104.896 2 2 2h32c1.104 0 2-.896 2-2v-20" fill="#bcbec0" transform="translate(37 3)"/><path d="m0 0h-16c-1.104 0-2-.896-2-2v-34h20v34c0 1.104-.896 2-2 2" fill="#d1d3d4" transform="translate(27 37)"/><g fill="#55acee"><path d="m27 31h-16v4h16v-4"/><path d="m27 1h-16v4h16v-4"/></g><path d="m21 1h-4v4h4v-4" fill="#3b88c3"/><g fill="#55acee"><path d="m15 25h-4v4h4v-4"/><path d="m15 19h-4v4h4v-4"/><path d="m15 13h-4v4h4v-4"/><path d="m15 7h-4v4h4v-4"/><path d="m21 7h-4v4h4v-4"/><path d="m27 7h-4v4h4v-4"/><path d="m27 13h-4v4h4v-4"/><path d="m27 19h-4v4h4v-4"/><path d="m27 25h-4v4h4v-4"/><path d="m21 13h-4v4h4v-4"/><path d="m21 19h-4v4h4v-4"/><path d="m21 25h-4v4h4v-4"/><path d="m7 19h-4v4h4v-4"/><path d="m7 13h-4v4h4v-4"/><path d="m7 7h-4v4h4v-4"/><path d="m35 7h-4v4h4v-4"/><path d="m35 13h-4v4h4v-4"/><path d="m35 19h-4v4h4v-4"/></g></g></g></svg>