<svg xmlns="http://www.w3.org/2000/svg" viewBox="0 0 47.5 47.5" enable-background="new 0 0 47.5 47.5"><defs><clipPath id="0"><path d="m0 38h38v-38h-38v38"/></clipPath></defs><g transform="matrix(1.25 0 0-1.25 0 47.5)"><g clip-path="url(#0)"><path d="m0 0c0 4 4 4 4 4h28c0 0 4 0 4-4v-28c0 0 0-4-4-4h-28c0 0-4 0-4 4v28" fill="#55acee" transform="translate(1 33)"/><g fill="#fff"><path d="m0 0h-11v4.5 1.5c0 0 0 1-1 1-1 0-1-1-1-1v-1.5-4.5c-8 0-8-7-8-7v-2c0-1 1-1 1-1h3c0 0 1 0 1 1v.25.062 1.688c0 2 2 2 2 2h14c1 0 1 1 1 1v3c0 0 0 1-1 1" transform="translate(34 28)"/><path d="m0 0h-3c-.829 0-1.5-.671-1.5-1.5 0-.829.671-1.5 1.5-1.5h3c.828 0 1.5.671 1.5 1.5 0 .829-.672 1.5-1.5 1.5" transform="translate(19.5 34)"/><path d="m0 0h3c.828 0 1.5.671 1.5 1.5 0 .829-.672 1.5-1.5 1.5h-3c-.828 0-1.5-.671-1.5-1.5 0-.829.672-1.5 1.5-1.5" transform="translate(24.5 31)"/><path d="m0 0c-1 0-1-1-1-1v-5h-9v5c0 0 0 1-1 1-1 0-1-1-1-1v-11c0 0 0-2 2-2h9c2 0 2 2 2 2v11c0 0 0 1-1 1" transform="translate(21 17)"/></g></g></g></svg>