<svg xmlns="http://www.w3.org/2000/svg" viewBox="0 0 47.5 47.5" enable-background="new 0 0 47.5 47.5" xmlns:xlink="http://www.w3.org/1999/xlink"><defs><path id="1" d="m0 0c0-.828-.671-1.5-1.5-1.5-.829 0-1.5.672-1.5 1.5 0 .828.671 1.5 1.5 1.5.829 0 1.5-.672 1.5-1.5" fill="#ccd6dd"/><path id="2" d="m0 0c0-.553-.447-1-1-1h-9c-.553 0-1 .447-1 1 0 .553.447 1 1 1h9c.553 0 1-.447 1-1" fill="#99aab5"/><clipPath id="0"><path d="m0 38h38v-38h-38v38"/></clipPath></defs><g transform="matrix(1.25 0 0-1.25 0 47.5)"><g clip-path="url(#0)"><path d="m0 0h-8v-15c0-2.209 1.791-4 4-4 2.209 0 4 1.791 4 4 0-2.209 1.791-4 4-4h20c2.209 0 4 1.791 4 4v15h-28" fill="#292f33" transform="translate(9 20)"/><path d="m0 0h-20c-2.209 0-4-1.791-4-4 0 2.209-1.791 4-4 4-2.209 0-4-1.791-4-4v-15c0-2.209 1.791-4 4-4 2.209 0 4 1.791 4 4 0-2.209 1.791-4 4-4h20c2.209 0 4 1.791 4 4v15c0 2.209-1.791 4-4 4" fill="#66757f" transform="translate(33 27)"/><path d="m0 0c0-1.104-.896-2-2-2h-7c-1.104 0-2 .896-2 2v2c0 1.104.896 2 2 2h7c1.104 0 2-.896 2-2v-2" fill="#c6e5b3" transform="translate(22 21)"/><use transform="translate(14 15.5)" xlink:href="#1"/><use transform="translate(18 15.5)" xlink:href="#1"/><path d="m0 0c0-.828-.672-1.5-1.5-1.5-.828 0-1.5.672-1.5 1.5 0 .828.672 1.5 1.5 1.5.828 0 1.5-.672 1.5-1.5" fill="#ccd6dd" transform="translate(22 15.5)"/><use transform="translate(14 11.5)" xlink:href="#1"/><use transform="translate(18 11.5)" xlink:href="#1"/><path d="m0 0c0-.828-.672-1.5-1.5-1.5-.828 0-1.5.672-1.5 1.5 0 .828.672 1.5 1.5 1.5.828 0 1.5-.672 1.5-1.5" fill="#ccd6dd" transform="translate(22 11.5)" id="3"/><use transform="translate(14 7.5)" xlink:href="#1"/><use transform="translate(18 7.5)" xlink:href="#1"/><use transform="translate(0-4)" xlink:href="#3"/><use transform="translate(35 16)" xlink:href="#2"/><use transform="translate(35 13)" xlink:href="#2"/><use transform="translate(35 10)" xlink:href="#2"/><use transform="translate(35 7)" xlink:href="#2"/><g fill="#ccd6dd"><path d="m0 0c0-1.104-.896-2-2-2-1.104 0-2 .896-2 2 0 1.104.896 2 2 2 1.104 0 2-.896 2-2" transform="translate(28 22)"/><path d="m0 0c0-1.104-.896-2-2-2-1.104 0-2 .896-2 2 0 1.104.896 2 2 2 1.104 0 2-.896 2-2" transform="translate(35 22)"/><path d="m0 0h-20v6c0 2.209 1.791 4 4 4h12c2.209 0 4-1.791 4-4v-6" transform="translate(33 27)"/></g><g fill="#99aab5"><path d="m0 0c0-.553-.447-1-1-1h-14c-.553 0-1 .447-1 1 0 .553.447 1 1 1h14c.553 0 1-.447 1-1" transform="translate(31 33)"/><path d="m0 0c0-.553-.447-1-1-1h-6c-.553 0-1 .447-1 1 0 .553.447 1 1 1h6c.553 0 1-.447 1-1" transform="translate(23 30)"/></g></g></g></svg>