<svg xmlns="http://www.w3.org/2000/svg" viewBox="0 0 47.5 47.5" enable-background="new 0 0 47.5 47.5" xmlns:xlink="http://www.w3.org/1999/xlink"><defs><path id="1" d="m0 0c0-2.209-1.791-4-4-4-2.209 0-4 1.791-4 4 0 2.209 1.791 4 4 4 2.209 0 4-1.791 4-4"/><clipPath id="0"><path d="m0 38h38v-38h-38v38"/></clipPath></defs><g transform="matrix(1.25 0 0-1.25 0 47.5)"><g clip-path="url(#0)"><path d="m0 0c0-3.313-2.687-6-6-6-3.313 0-6 2.687-6 6 0 3.313 2.687 6 6 6 3.313 0 6-2.687 6-6" fill="#c1694f" transform="translate(14 31)" id="2"/><use transform="translate(22)" xlink:href="#2"/><g fill="#e6aaaa"><use transform="translate(12 31)" xlink:href="#1"/><use transform="translate(34 31)" xlink:href="#1"/></g><path d="m0 0c0 0-1.308 22-17 22-15.692 0-17-22-17-22 0-5.872 4.499-10.323 12.216-11.61 1.095-1.45 2.827-2.39 4.784-2.39 1.956 0 3.688.94 4.784 2.39 7.717 1.287 12.216 5.738 12.216 11.61" fill="#c1694f" transform="translate(36 15)"/><use fill="#dd2e44" transform="translate(23 7)" xlink:href="#1"/><path d="m0 0c0 0-11-3.687-11-7 0-3.313 2.687-6 6-6 2.088 0 3.925 1.067 5 2.686 1.074-1.619 2.912-2.686 5-2.686 3.313 0 6 2.687 6 6 0 3.313-11 7-11 7" fill="#d99e82" transform="translate(19 17)"/><path d="m0 0c0 0 0 2 2 2 2 0 2-2 2-2v-2c0 0 0-2-2-2-2 0-2 2-2 2v2" fill="#272b2b" transform="translate(12 20)" id="3"/><use transform="translate(10)" xlink:href="#3"/><path d="m0 0c-1.625-1 3.25-4 4.875-4 1.625 0 6.499 3 4.874 4-1.625 1-8.124 1-9.749 0" fill="#272b2b" transform="translate(14.13 12)"/></g></g></svg>