<svg xmlns="http://www.w3.org/2000/svg" viewBox="0 0 47.5 47.5" enable-background="new 0 0 47.5 47.5"><defs><clipPath id="0"><path d="m0 38h38v-38h-38v38"/></clipPath></defs><g transform="matrix(1.25 0 0-1.25 0 47.5)"><g clip-path="url(#0)"><path d="m0 0c0-2.209-1.791-4-4-4h-28c-2.209 0-4 1.791-4 4v18c0 2.209 1.791 4 4 4h28c2.209 0 4-1.791 4-4v-18" fill="#dd2e44" transform="translate(37 10)"/><path d="m37 13h-36v12h36v-12" fill="#ffcc4d"/><path d="m0 0v-3c0-1.657 1.343-3 3-3 1.657 0 3 1.343 3 3v3h-6" fill="#ea596e" transform="translate(10 20)"/><path d="m13 18h3v3h-3v-3" fill="#f4a2b2"/><path d="m13 18h-3v3h3v-3" fill="#dd2e44"/><path d="m0 0c0-.829-1.343-1.5-3-1.5-1.657 0-3 .671-3 1.5 0 .829 1.343 1.5 3 1.5 1.657 0 3-.671 3-1.5" fill="#ea596e" transform="translate(16 22.5)"/><path d="m0 0c0 .414-1.343.75-3 .75-1.657 0-3-.336-3-.75 0-.414 1.343-.75 3-.75 1.657 0 3 .336 3 .75" fill="#ffac33" transform="translate(16 23.25)"/><g fill="#99aab5"><path d="m8 14h1v7h-1v-7"/><path d="m18 14h-1v7h1v-7"/></g><g fill="#66757f"><path d="m10 14h-3v1h3v-1"/><path d="m19 14h-3v1h3v-1"/><path d="m9 21h-1v1h1v-1"/><path d="m18 21h-1v1h1v-1"/></g></g></g></svg>