<svg xmlns="http://www.w3.org/2000/svg" viewBox="0 0 47.5 47.5" enable-background="new 0 0 47.5 47.5" xmlns:xlink="http://www.w3.org/1999/xlink"><defs><clipPath id="0"><path d="m0 38h38v-38h-38v38"/></clipPath><clipPath id="1"><path d="m17.769 15h-12.963c0 0 2.247-7.147 5.783-10.584 2.409-2.34 6.46-2.521 7.9-2.521 2.88 0 6.55.193 8.958 2.535 4.198 4.077 6.165 10.57 6.165 10.57h-15.843"/></clipPath><clipPath id="2"><path d="m4.856 17.716c.9-.332 6.69-2.382 13.993-2.382 8.222 0 14.249 1.787 15.627 2.778 1.38.992 1.329 9.591-4.952 12.905-5.363 2.828-5.513 5.608-10.624 5.608-7.66 0-21.19-16.279-14.04-18.909"/></clipPath></defs><g transform="matrix(1.25 0 0-1.25 0 47.5)"><g clip-path="url(#0)"><path d="m0 0h-12.963c0 0 2.248-7.146 5.784-10.584 2.408-2.34 6.459-2.52 7.899-2.52 2.881 0 6.551.192 8.959 2.534 4.197 4.077 6.165 10.57 6.165 10.57h-15.844" fill="#55acee" transform="translate(17.769 15)"/></g><g clip-path="url(#1)"><path d="m0 0c0-2.32-4.858-4.899-14.403-4.899-9.546 0-14.404 2.579-14.404 4.899 0 2.319 4.858 4.198 14.404 4.198 9.545 0 14.403-1.879 14.403-4.198" fill="#3b88c3" transform="translate(33.612 13.449)"/></g><g clip-path="url(#0)"><path d="m0 0v-4.453c0-2.318 7.251-4.198 16-4.198 8.751 0 16 1.88 16 4.198v4.453h-32" fill="#55acee" transform="translate(3 20)"/><path d="m0 0c.901-.331 6.693-2.383 13.999-2.383 8.225 0 14.253 1.788 15.633 2.779 1.38.993 1.328 9.595-4.955 12.91-5.365 2.83-5.514 5.611-10.627 5.611-7.664 0-21.2-16.286-14.05-18.917" fill="#f9d2dc" transform="translate(4.857 17.717)"/></g><g clip-path="url(#2)"><path d="m0 0c1.555.731 5.467 2.243 8.378-1.658 2.91-3.9 9.483-1.756 12.293.975 2.808 2.73 6.52 1.22 10.735.196 4.215-1.025-2.808 14.14-11.489 13.164-8.68-.976-14.348 2.68-17.81-3.121-3.461-5.802-2.107-9.556-2.107-9.556" fill="#f98097" transform="translate(4.47 26.889)"/></g><g clip-path="url(#0)"><path d="m0 0c0-.552-.448-1-1-1-.552 0-1 .448-1 1 0 .552.448 1 1 1 .552 0 1-.448 1-1" fill="#ea596e" transform="translate(14 30)"/><path d="m0 0c0-.552-.447-1-1-1-.553 0-1 .448-1 1 0 .552.447 1 1 1 .553 0 1-.448 1-1" fill="#ea596e" transform="translate(20 27)" id="3"/><use transform="translate(4 5)" xlink:href="#3"/></g></g></svg>