<svg xmlns="http://www.w3.org/2000/svg" viewBox="0 0 47.5 47.5" enable-background="new 0 0 47.5 47.5"><defs><clipPath id="0"><path d="m0 38h38v-38h-38v38"/></clipPath></defs><g transform="matrix(1.25 0 0-1.25 0 47.5)"><g clip-path="url(#0)"><g fill="#3f7123"><path d="m0 0c0-2.2-1.8-4-4-4h-26c-2.2 0-4 1.8-4 4v13c0 2.2 1.8 4 4 4h26c2.2 0 4-1.8 4-4v-13" transform="translate(36 5)"/><path d="m36 16h-34v6h34v-6"/></g><path d="m36 15h-34v7h34v-7" fill="#ccd6dd"/><path d="m0 0l-4-7h7l4 7h-7m-14 0l-4-7h7l4 7h-7m-11 0h4l-4-7v7" fill="#292f33" transform="translate(27 22)"/><path d="M 0,0 -32.994,-8.208 -34.685,-1.415 -1.689,6.793 0,0 Z" fill="#ccd6dd" transform="translate(34.994 30.21)"/><path d="m0 0l-5.572 5.828-6.793-1.69 5.572-5.827 6.793 1.689m-13.586-3.379l-5.572 5.827-6.793-1.69 5.572-5.827 6.793 1.69zm-19.16 2.447l5.572-5.827-3.882-.966-1.69 6.793" fill="#292f33" transform="translate(33.05 29.725)"/></g></g></svg>