<svg xmlns="http://www.w3.org/2000/svg" viewBox="0 0 47.5 47.5" enable-background="new 0 0 47.5 47.5"><defs><clipPath id="0"><path d="m0 38h38v-38h-38v38"/></clipPath></defs><g transform="matrix(1.25 0 0-1.25 0 47.5)"><g clip-path="url(#0)"><path d="m0 0c0-9.389-7.611-17-17-17-9.389 0-17 7.611-17 17 0 9.389 7.611 17 17 17 9.389 0 17-7.611 17-17" fill="#ffcc4d" transform="translate(36 19)"/><g fill="#664500"><path d="m0 0c-9.333 0-10.485-8.354-10.496-8.438-.022-.17.046-.339.179-.449.09-.074.203-.113.317-.113.053 0 .106.009.158.025.059.02 5.968 1.975 9.842 1.975 5.595 0 9.745-1.933 9.786-1.952.161-.077.359-.06.507.047.147.107.226.286.203.467-.011.084-1.163 8.438-10.496 8.438" transform="translate(19 15.5)"/><path d="m0 0c-5.554 0-7.802 4.367-7.895 4.553-.247.494-.046 1.095.448 1.342.493.245 1.092.047 1.34-.444.074-.145 1.82-3.451 6.107-3.451.553 0 1-.448 1-1 0-.552-.447-1-1-1" transform="translate(30 27)"/><path d="m0 0c-.552 0-1 .448-1 1 0 .552.448 1 1 1 5.083 0 5.996 3.12 6.03 3.253.145.528.692.848 1.219.709.53-.139.851-.673.718-1.205-.049-.194-1.266-4.757-7.97-4.757" transform="translate(8 27)"/></g><path d="m0 0c4 0 6-2 6-2h-12c0 0 2 2 6 2" fill="#ccd6dd" transform="translate(19 14)"/><g fill="#664500"><path d="m0 0c-.304 0-.604.138-.801.4-.331.442-.242 1.069.2 1.4.143.107 2.951 2.182 6.856 2.932-2.475 1.241-5.222 1.268-5.257 1.268-.552.001-.999.45-.998 1 0 .552.447.999.999.999.221 0 5.452-.038 8.707-3.293.286-.286.372-.716.217-1.09-.155-.373-.52-.617-.924-.617-4.613 0-8.363-2.772-8.4-2.8-.18-.135-.391-.2-.599-.2" transform="translate(7 18)"/><path d="m0 0c-.208 0-.418.064-.598.198-.038.029-3.811 2.801-8.401 2.801-.404 0-.77.244-.924.617-.155.374-.069.804.217 1.09 3.256 3.255 8.486 3.293 8.707 3.293.552 0 .998-.447.999-.999.001-.551-.446-1-.997-1-.036 0-2.783-.027-5.258-1.268 3.905-.75 6.713-2.825 6.856-2.932.441-.331.531-.956.201-1.399-.197-.261-.497-.4-.802-.4" transform="translate(30.999 18)"/></g></g></g></svg>