<svg xmlns="http://www.w3.org/2000/svg" viewBox="0 0 47.5 47.5" enable-background="new 0 0 47.5 47.5" xmlns:xlink="http://www.w3.org/1999/xlink"><defs><clipPath id="0"><path d="m0 38h38v-38h-38v38"/></clipPath></defs><g transform="matrix(1.25 0 0-1.25 0 47.5)"><g clip-path="url(#0)"><g fill="#ffd983"><path d="m0 0c0-2.071-8.06-5-18-5-9.941 0-18 2.929-18 5 0 2.071 8.06 5 18 5 9.941 0 18-2.929 18-5" transform="translate(37 14)"/><path d="m0 0c0-1.566-4.925-6-11-6-6.075 0-10.957 4.434-10.957 6 0 7 6.957 10 10.957 10 4 0 11-3 11-10" transform="translate(30 20)"/></g><path d="m0 0c-5-3-17-3-22 0 0 .492.043 3.535.043 4 5.957-3 15.957-3 21.957 0-.003-.465 0-3.508 0-4" fill="#9266cc" transform="translate(30 16)"/><path d="m0 0c0-1.104-.448-2-1-2-.553 0-1 .896-1 2 0 1.104.447 2 1 2 .552 0 1-.896 1-2" fill="#fff" transform="translate(20 13)" id="1"/><use transform="translate(0 6)" xlink:href="#1"/><g fill="#fff"><path d="m0 0c-.781-.781-1.731-1.098-2.122-.707-.39.391-.073 1.34.707 2.121.782.781 1.731 1.098 2.122.707.391-.391.074-1.341-.707-2.121" transform="translate(17.586 13.172)"/><path d="m0 0c-.78-.781-1.73-1.098-2.121-.707-.391.391-.074 1.34.707 2.122.781.78 1.73 1.097 2.121.707.391-.391.074-1.341-.707-2.122" transform="translate(21.828 17.414)"/><path d="m0 0c-1.105 0-2 .448-2 1 0 .553.895 1 2 1 1.104 0 2-.447 2-1 0-.553-.896-1-2-1" transform="translate(16 15)"/><path d="m0 0c-1.104-.001-2 .447-2 1 0 .553.896 1 2 1 1.104 0 2-.447 2-1 0-.552-.896-1-2-1" transform="translate(22 15)"/><path d="m0 0c-.782.782-1.098 1.732-.708 2.122.391.391 1.341.074 2.122-.707.781-.782 1.098-1.73.707-2.121-.391-.392-1.341-.074-2.121.706" transform="translate(16.17 17.413)"/><path d="m0 0c-.782.78-1.098 1.73-.707 2.121.391.392 1.34.074 2.121-.707.781-.78 1.098-1.73.707-2.121-.39-.39-1.34-.074-2.121.707" transform="translate(20.414 13.171)"/></g><path d="m0 0c0-1.104-.896-2-2-2-1.105 0-2 .896-2 2 0 1.104.895 2 2 2 1.104 0 2-.896 2-2" fill="#ffac33" transform="translate(21 16)"/></g></g></svg>