<svg xmlns="http://www.w3.org/2000/svg" viewBox="0 0 47.5 47.5" enable-background="new 0 0 47.5 47.5"><defs><clipPath id="0"><path d="m0 38h38v-38h-38v38"/></clipPath></defs><g transform="matrix(1.25 0 0-1.25 0 47.5)"><g clip-path="url(#0)"><path d="m0 0c-.428 0-.824-.188-1.177-.491-1.633 6.03-6.079 10.366-11.323 10.366-5.244 0-9.691-4.335-11.324-10.366-.352.303-.748.491-1.176.491-1.381 0-2.5-1.791-2.5-4 0-2.209 1.119-4 2.5-4 .225 0 .438.062.646.151.86-7.439 5.832-13.151 11.854-13.151 6.02 0 10.993 5.712 11.854 13.152.208-.09.421-.152.646-.152 1.381 0 2.5 1.791 2.5 4 0 2.209-1.119 4-2.5 4" fill="#d99e82" transform="translate(31.5 23)"/><g fill="#662113"><path d="m0 0h-2c-.552 0-1 .447-1 1 0 .553.448 1 1 1h2c.552 0 1-.447 1-1 0-.553-.448-1-1-1" transform="translate(15 16)"/><path d="m0 0h-2c-.553 0-1 .447-1 1 0 .553.447 1 1 1h2c.553 0 1-.447 1-1 0-.553-.447-1-1-1" transform="translate(25 16)"/></g><path d="m0 0c0 5.05 4.958 11.11 12 11.11 7.04 0 12-6.06 12-11.11 0-.723-4.959-2.889-12-2.889-7.04 0-12 2.166-12 2.889" fill="#dd2e44" transform="translate(7 24.89)"/><g fill="#c1694f"><path d="m0 0c-2.21 0-4.357 1.061-4.447 1.105-.493.248-.693.846-.448 1.34.246.495.845.695 1.341.451.018-.01 1.824-.896 3.554-.896 1.73 0 3.536.886 3.554.896.498.243 1.095.043 1.341-.451.246-.494.045-1.092-.448-1.34-.091-.044-2.236-1.105-4.447-1.105" transform="translate(19 6)"/><path d="m0 0h-2c-.552 0-1 .447-1 1 0 .553.448 1 1 1h2c.553 0 1-.447 1-1 0-.553-.447-1-1-1" transform="translate(20 11)"/></g><path d="m0 0c0 0 5-4 6-8 .97-3.88 0-7 0-7h-12c0 0-1 3 0 7 1 4 6 8 6 8" fill="#77b255" transform="translate(19 36)"/><g fill="#414042"><path d="m0 0c0 0 3-3 12-3 9 0 12 3 12 3 0 0 1-2 0-3-1-1-4-3-12-3-8 0-11 2-12 3-1 1 0 3 0 3" transform="translate(7 26)"/><path d="m0 0c0 .552.896 1 2 1 1.104 0 2-.448 2-1 0-.552-.896-1-2-1-1.104 0-2 .448-2 1" transform="translate(17 36)"/></g><path d="m0 0c0 1.104 1.343 2 3 2 1.657 0 3-.896 3-2 0-1.104-1.343-2-3-2-1.657 0-3 .896-3 2" fill="#ffd983" transform="translate(16 26)"/><g fill="#231f20"><path d="m0 0c-.069 0-.139.007-.209.022-.53.117-.874.621-.771 1.154.043.224.51 2.238 3.535 3.75 2.145 1.072 3.323 1.031 3.535 1.012.551-.048.957-.534.908-1.084-.048-.542-.51-.935-1.059-.91-.058-.007-.884-.004-2.49-.807-2.129-1.065-2.457-2.311-2.47-2.364-.112-.457-.525-.773-.979-.773" transform="translate(11.998 4.969)"/><path d="m0 0c-.47 0-.889.332-.98.811-.009.028-.337 1.275-2.466 2.339-1.635.818-2.467.8-2.493.808-.509-.003-1.012.398-1.044.938-.032.541.357 1.01.896 1.056.214.018 1.394.058 3.535-1.013 3.02-1.511 3.491-3.525 3.534-3.75.106-.542-.25-1.066-.792-1.17-.063-.013-.128-.019-.19-.019" transform="translate(25.999 4.955)"/></g></g></g></svg>