<svg xmlns="http://www.w3.org/2000/svg" viewBox="0 0 47.5 47.5" enable-background="new 0 0 47.5 47.5"><defs><clipPath id="0"><path d="m0 38h38v-38h-38v38"/></clipPath></defs><g transform="matrix(1.25 0 0-1.25 0 47.5)"><g clip-path="url(#0)"><path d="m0 0l-2.674 2.673 20.389 20.39c3.344 3.343 1.337 8.02 2.01 8.69.666.67 1.335.002 1.335.002l8.02-8.02c.668-.668 0-1.335 0-1.335-.669-.67-5.778.908-8.692-2.01l-20.388-20.39" fill="#fcab40" transform="translate(6.622 3.949)"/><path d="m0 0c.925.925.925 2.424 0 3.35-.924.923-2.424.923-3.349 0l.087-.087c-.37.334-.938.331-1.296-.028-.369-.368-.369-.967 0-1.336l3.109-3.109c.369-.369.968-.369 1.337 0 .355.356.36.919.032 1.29l.08-.08" fill="#ccd6dd" transform="translate(6.457 3.109)"/><g fill="#fcab40"><path d="m0 0c-.506 0-.98-.197-1.338-.554l-10.695-10.696c-.357-.357-.554-.832-.554-1.337 0-.506.197-.979.553-1.336.358-.357.832-.555 1.337-.555.506 0 .981.198 1.338.555l10.696 10.695c.737.737.736 1.937-.001 2.675-.357.356-.831.553-1.336.553m-10.697-18.259c-1.515 0-2.939.59-4.01 1.661-1.07 1.071-1.66 2.495-1.66 4.01 0 1.515.59 2.94 1.661 4.01l10.695 10.696c1.072 1.071 2.496 1.661 4.01 1.661 1.515 0 2.939-.59 4.01-1.661 2.211-2.212 2.211-5.81 0-8.02l-10.696-10.696c-1.071-1.071-2.496-1.662-4.01-1.662" transform="translate(25.01 21.55)"/><path d="m0 0c.736-.738 1.936-.738 2.674 0 .738.739.738 1.937 0 2.674l-8.02 8.02c-.739.739-1.935.739-2.673 0-.739-.739-.739-1.936 0-2.675l8.02-8.02" transform="translate(26.344 12.974)"/><path d="m0 0c.738-.738 1.937-.738 2.674 0 .738.739.738 1.936.002 2.674l-8.02 8.02c-.739.739-1.936.739-2.675 0-.738-.738-.738-1.935.001-2.675l8.02-8.02" transform="translate(22.332 8.963)"/><path d="m0 0c.738-.738 1.934-.738 2.673 0 .739.738.739 1.937 0 2.674l-8.02 8.02c-.739.739-1.936.739-2.674 0-.739-.737-.739-1.934 0-2.674l8.02-8.02" transform="translate(18.322 4.952)"/></g><g fill="#ccd6dd"><path d="m0 0c.369-.369.968-.369 1.337 0l1.337 1.336c.369.369.369.968 0 1.338-.369.369-.967.369-1.337 0l-1.337-1.338c-.369-.369-.369-.967 0-1.336" transform="translate(15.648 23.671)"/><path d="m0 0c.37-.371.967-.37 1.337 0l1.336 1.337c.37.37.371.967.001 1.337-.369.37-.967.37-1.337 0l-1.337-1.337c-.37-.37-.37-.968 0-1.337" transform="translate(11.637 19.659)"/><path d="m0 0c.37-.37.967-.37 1.337 0l1.337 1.338c.369.369.37.967 0 1.337-.369.369-.967.369-1.337 0l-1.337-1.338c-.369-.369-.369-.968 0-1.337" transform="translate(7.626 15.648)"/></g></g></g></svg>