<svg xmlns="http://www.w3.org/2000/svg" viewBox="0 0 47.5 47.5" enable-background="new 0 0 47.5 47.5"><defs><clipPath id="0"><path d="m0 38h38v-38h-38v38"/></clipPath></defs><g transform="matrix(1.25 0 0-1.25 0 47.5)"><g clip-path="url(#0)"><path d="m0 0c0-2.209-1.791-4-4-4h-26c-2.209 0-4 1.791-4 4v19.687c0 2.209 5.791 6.313 8 6.313h20.625c3.094 0 5.375-2.313 5.375-5.375v-20.625" fill="#269" transform="translate(36 11)"/><path d="m0 0c0-2.209-1.791-4-4-4h-22c-2.209 0-4 1.791-4 4v24c0 4.119-.021 4 5 4h21c2.209 0 4-1.791 4-4v-24" fill="#ccd6dd" transform="translate(34 7)"/><path d="m0 0c0-1.657-1.343-3-3-3h-24c-1.657 0-3 1.343-3 3v24c0 1.657 1.343 3 3 3h24c1.657 0 3-1.343 3-3v-24" fill="#e1e8ed" transform="translate(32 6)"/><path d="m0 0c0-2.209-1.791-4-4-4h-21c-2.209 0-4 1.791-4 4v22c0 2.209 1.791 4 4 4h21c2.209 0 4-1.791 4-4v-22" fill="#3b88c3" transform="translate(32 5)"/><path d="m0 0c0-2.209-1.791-4-4-4h-19c-2.209 0-4 1.791-4 4v20c0 2.209 1.791 4 4 4h19.335c2.209 0 3.665-1.456 3.665-3.665v-20.335" fill="#55acee" transform="translate(30 5)"/><path d="m0 0c-1.687 0-1.731 1.922-1 2.75.832.941 2.125 1.25 4.438 1.25h1.562v2h-2.719c-3.968 0-7.281-2.5-7.281-5.375v-26.625c0-2.209 1.791-4 4-4h2v30h-1" fill="#269" transform="translate(7 31)"/></g></g></svg>