<svg xmlns="http://www.w3.org/2000/svg" viewBox="0 0 47.5 47.5" enable-background="new 0 0 47.5 47.5" xmlns:xlink="http://www.w3.org/1999/xlink"><defs><clipPath id="0"><path d="m0 38h38v-38h-38v38"/></clipPath></defs><g transform="matrix(1.25 0 0-1.25 0 47.5)"><g clip-path="url(#0)"><path d="m0 0c0-1.104-.896-2-2-2h-3c-1.104 0-2 .896-2 2v8c0 1.104.896 2 2 2h3c1.104 0 2-.896 2-2v-8" fill="#292f33" transform="translate(35 4)" id="1"/><use transform="translate(-25)" xlink:href="#1"/><path d="m0 0c4 1 14 1 18 0 3.881-.97 5-11 5-11 0 0 2 0 2-4v-8c0 0-.119-3.03-4-4-4-1-7-1-12-1-5 0-8 0-12 1-3.88.97-4 4-4 4v8c0 0 0 4 2 4 0 0 1.12 10.03 5 11" fill="#3b88c3" transform="translate(10 32)"/><path d="m0 0c3.905 0 8.623-.2 12-.562l-1 5.562c-1 3-7 3-11 3s-10 0-11-3l-1-5.562c3.377.362 8.095.562 12 .562" fill="#bbddf5" transform="translate(19 22)"/><g fill="#3b88c3"><path d="m0 0c0-.829-.671-1.5-1.5-1.5h-2c-.829 0-1.5.671-1.5 1.5 0 .829.671 1.5 1.5 1.5h2c.829 0 1.5-.671 1.5-1.5" transform="translate(6 21.5)"/><path d="m0 0c0-.829.672-1.5 1.5-1.5h2c.828 0 1.5.671 1.5 1.5 0 .829-.672 1.5-1.5 1.5h-2c-.828 0-1.5-.671-1.5-1.5" transform="translate(32 21.5)"/></g><g fill="#ffcc4d"><path d="m0 0c0-1.657-1.343-3-3-3h-1c-1.657 0-3 1.343-3 3 0 1.657 1.343 3 3 3h1c1.657 0 3-1.343 3-3" transform="translate(12 14)"/><path d="m0 0c0-1.657-1.344-3-3-3h-1c-1.656 0-3 1.343-3 3 0 1.657 1.344 3 3 3h1c1.656 0 3-1.343 3-3" transform="translate(33 14)"/></g><g fill="#269"><path d="m0 0c-.323 0-.64.156-.833.445-1.742 2.614-6.319 3.565-6.365 3.575-.541.109-.892.636-.783 1.177.109.541.632.891 1.176.783.221-.043 5.431-1.119 7.636-4.425.306-.46.182-1.08-.277-1.387-.171-.113-.364-.168-.554-.168" transform="translate(13 15)"/><path d="m0 0c-.19 0-.383.055-.554.168-.46.307-.584.927-.277 1.387 2.204 3.306 7.415 4.382 7.636 4.425.54.106 1.067-.242 1.175-.783.11-.541-.241-1.068-.782-1.177-.046-.01-4.623-.961-6.365-3.575-.192-.289-.51-.445-.833-.445" transform="translate(24.999 15)"/></g><path d="m0 0c-5.663 0-12.639.225-13.707 1.293-.391.391-.391 1.023 0 1.414.344.345.877.386 1.267.122.232-.1 2.285-.829 12.44-.829 10.155 0 12.208.729 12.44.829.391.264.922.223 1.267-.122.391-.391.391-1.023 0-1.414-1.068-1.068-8.04-1.293-13.707-1.293" fill="#55acee" transform="translate(19 8)"/><path d="m0 0c0-1.5-3.134-2.5-7-2.5-3.866 0-7 1-7 2.5 0 .828 3.134.5 7 .5 3.866 0 7 .328 7-.5" fill="#269" transform="translate(26 7.5)"/></g></g></svg>