<svg xmlns="http://www.w3.org/2000/svg" viewBox="0 0 47.5 47.5" enable-background="new 0 0 47.5 47.5"><defs><clipPath id="0"><path d="m0 38h38v-38h-38v38"/></clipPath></defs><g transform="matrix(1.25 0 0-1.25 0 47.5)"><g clip-path="url(#0)"><path d="m0 0v2.566c2 1.348 4.08 3.78 4.703 6.896.186-.102.206-.17.413-.17.991 0 1.709 1.287 1.709 2.874 0 1.562-.823 2.827-1.794 2.865.187.675.293 1.577.293 2.736 0 3.865-3.324 8.506-10.783 8.506-6.629 0-10.777-4.641-10.777-8.506 0-1.123.069-2.043.188-2.756-.911-.137-1.629-1.351-1.629-2.845 0-1.587.803-2.874 1.796-2.874.206 0 .025.068.209.17.624-3.116 2.672-5.548 4.672-6.896v-2.414c-5-.644-12-3.436-12-6.23v-.842-.219c0-1.062 1.076-1.062 2.137-1.062h13.801 2.124 13.799c1.063 0 2.139 0 2.139 1.062v.219.842c0 2.615-6 5.224-11 6.078" fill="#292f33" transform="translate(25 10.201)"/></g></g></svg>