<svg xmlns="http://www.w3.org/2000/svg" viewBox="0 0 47.5 47.5" enable-background="new 0 0 47.5 47.5"><defs><clipPath id="0"><path d="m0 38h38v-38h-38v38"/></clipPath><clipPath id="1"><path d="m25.83 31.529l-10.497-1.329c-2.898-.366-4.951-3.61-4.585-7.239l1.329-13.157c.366-3.632 3.738-6.186 5.913-5.912 3.393.427 14.178 17.472 13.752 21.724-.396 3.922-2.632 5.955-5.254 5.955-.217 0-.437-.014-.658-.042"/></clipPath><clipPath id="2"><path d="m17.668 35.23l-7.789-.985c-2.15-.273-3.673-2.68-3.402-5.373l.986-9.758c.272-2.696 2.775-4.591 4.387-4.39 2.518.32 10.522 12.965 10.204 16.12-.294 2.911-1.951 4.418-3.896 4.418-.162 0-.325-.01-.49-.031"/></clipPath></defs><g transform="matrix(1.25 0 0-1.25 0 47.5)"><g clip-path="url(#0)" fill="#ccd6dd"><path d="m0 0c4.423-4.424 5.71-21.367 1.289-25.788-4.425-4.424-12.185-3.783-16.607.64-2.979 2.979-3.834 10.952.589 15.377 4.424 4.421 10.306 14.194 14.729 9.771" transform="translate(30.05 29.967)"/><path d="m0 0c-2.175-.273-5.546 2.28-5.913 5.912l-1.329 13.157c-.366 3.63 1.687 6.873 4.586 7.24l10.496 1.328c2.898.365 5.483-1.666 5.912-5.912.426-4.252-10.359-21.297-13.752-21.725" transform="translate(17.99 3.892)"/></g><g clip-path="url(#1)"><path d="m0 0c-2.174-.274-5.548 2.282-5.915 5.914l-1.327 13.154c-.367 3.632 1.686 6.875 4.584 7.243l10.498 1.327c2.898.366 5.483-1.665 5.912-5.911.428-4.254-10.359-21.299-13.752-21.727" fill="#99aab5" transform="translate(11.349 10.532)"/></g><g clip-path="url(#0)"><path d="m0 0c-1.613-.202-4.115 1.693-4.388 4.389l-.985 9.758c-.272 2.694 1.252 5.1 3.402 5.374l7.788.984c2.151.272 4.069-1.234 4.387-4.386.318-3.155-7.686-15.8-10.204-16.12" fill="#ccd6dd" transform="translate(11.85 14.722)"/></g><g clip-path="url(#2)"><path d="m0 0c-1.612-.204-4.114 1.693-4.387 4.387l-.985 9.759c-.272 2.695 1.251 5.101 3.401 5.375l7.788.983c2.151.273 4.069-1.232 4.388-4.386.317-3.156-7.687-15.8-10.205-16.12" fill="#99aab5" transform="translate(6.351 20.221)"/></g><g clip-path="url(#0)"><path d="m0 0c-.993-.125-2.533 1.043-2.701 2.702l-.606 6.01c-.167 1.659.77 3.14 2.093 3.308l4.795.606c1.324.168 2.503-.759 2.699-2.699.197-1.943-4.732-9.725-6.28-9.923" fill="#ccd6dd" transform="translate(7.247 24.19)"/><path d="m0 0c.801-2.371 1.545-11.57-1.532-15.543-3.079-3.972-8.04 1.389-5.312 6.205 2.73 4.815 6.04 11.734 6.844 9.338" fill="#66757f" transform="translate(31.609 22.604)"/></g></g></svg>