<svg xmlns="http://www.w3.org/2000/svg" viewBox="0 0 47.5 47.5" enable-background="new 0 0 47.5 47.5"><defs><clipPath id="0"><path d="m0 38h38v-38h-38v38"/></clipPath></defs><g transform="matrix(1.25 0 0-1.25 0 47.5)"><g clip-path="url(#0)"><path d="m0 0v-12.375c0-2.042 1.093-2.484 1.093-2.484 0 0 9.752-7.667 11.574-9.1 1.821-1.432 1.333 1.583 1.333 1.583v11.375l-14 11" fill="#a0041e" transform="translate(5 26)"/><path d="m0 0v-12.375c0-2.042-1.063-2.484-1.063-2.484 0 0-9.767-7.667-11.588-9.1-1.823-1.432-1.349 1.583-1.349 1.583v11.375l14 11" fill="#dd2e44" transform="translate(33 26)"/><path d="m0 0c-.753.61-1.988.61-2.742 0l-11.982-9.529c-.754-.61-.754-1.607 0-2.216l12.02-9.647c.755-.609 1.989-.609 2.743 0l12.1 9.731c.753.609.753 1.606 0 2.216l-12.146 9.445" fill="#ea596e" transform="translate(20.289 36.5)"/><g fill="#fff"><path d="m0 0c0-1.289-1.306-2.333-2.916-2.333-1.611 0-2.916 1.044-2.916 2.333 0 1.289 1.305 2.333 2.916 2.333 1.61 0 2.916-1.044 2.916-2.333" transform="translate(22.416 26)"/><path d="m0 0c-.872 0-1.375.902-1.123 2.02.251 1.113 1.162 2.02 2.034 2.02.873 0 1.376-.903 1.124-2.02-.251-1.115-1.163-2.02-2.035-2.02" transform="translate(29.544 16.467)"/><path d="m0 0c-.883 0-1.392.949-1.138 2.121.255 1.172 1.179 2.121 2.062 2.121.884 0 1.392-.949 1.138-2.121-.254-1.172-1.178-2.121-2.062-2.121" transform="translate(26.454 11.258)"/><path d="m0 0c-.838 0-1.322.921-1.08 2.058.242 1.136 1.118 2.057 1.957 2.057.839 0 1.322-.921 1.081-2.057-.242-1.137-1.119-2.058-1.958-2.058" transform="translate(23.02 6.05)"/></g><g fill="#e1e8ed"><path d="m0 0c-.994 0-1.567-1.01-1.28-2.249.286-1.243 1.325-2.25 2.319-2.25.994 0 1.567 1.01 1.28 2.25-.286 1.242-1.325 2.249-2.319 2.249" transform="translate(8.188 18.999)"/><path d="m0 0c-.994 0-1.567-1.01-1.281-2.25.287-1.242 1.326-2.25 2.32-2.25.994 0 1.567 1.01 1.28 2.25-.286 1.243-1.325 2.25-2.319 2.25" transform="translate(13.772 11.5)"/></g><path d="m0 0c-.552 0-1 .482-1 1.078v12.927c0 .596.448 1.078 1 1.078.553 0 1-.482 1-1.078v-12.927c0-.596-.447-1.078-1-1.078" fill="#ea596e" transform="translate(19 1.25)"/></g></g></svg>