<svg xmlns="http://www.w3.org/2000/svg" viewBox="0 0 47.5 47.5" enable-background="new 0 0 47.5 47.5"><defs><clipPath id="0"><path d="m0 38h38v-38h-38v38"/></clipPath></defs><g transform="matrix(1.25 0 0-1.25 0 47.5)"><g clip-path="url(#0)"><g fill="#ffcc4d"><path d="m0 0c0-10-11-16-18-16-7 0-18 6.06-18 16 0 9.941 4 20 18 20 14 0 18-10 18-20" transform="translate(37 17)"/><path d="m0 0c1-1 0-11 0-11l-8 10c0 0 7 2 8 1" transform="translate(36 36)"/><path d="m0 0c-1-1 0-11 0-11l8 10c0 0-7 2-8 1" transform="translate(2 36)"/></g><path d="m0 0c3 0 3-.5 3-1.5 0-1-1.5-3-3-3-1.5 0-3 2-3 3 0 1 0 1.5 3 1.5" fill="#67757f" transform="translate(19 17.5)"/><g fill="#9aaab4"><path d="m0 0c-.209 0-.404.133-.475.342-.087.262.055.545.317.633l9 2.999c.263.088.545-.054.633-.316.087-.262-.055-.545-.317-.632l-9-3c-.053-.017-.105-.025-.158-.025" transform="translate(27 16.5)"/><path d="m0 0c-.233 0-.441.164-.489.402-.055.271.121.535.392.588l10 2c.26.054.534-.12.588-.392.055-.271-.121-.535-.392-.588l-10-2c-.033-.007-.066-.01-.099-.01" transform="translate(25.999 14.5)"/><path d="m0 0c-.052 0-.105.008-.158.025l-9 3c-.262.087-.404.37-.316.632.087.262.368.404.632.316l9-2.999c.262-.088.404-.371.316-.633-.07-.209-.265-.342-.474-.342" transform="translate(11 16.5)"/><path d="m0 0c-.032 0-.065.003-.099.01l-10 2c-.27.053-.446.317-.392.588.054.271.313.449.589.392l10-2c.27-.053.446-.317.392-.588-.048-.238-.257-.402-.49-.402" transform="translate(12 14.5)"/></g><g fill="#292f33"><path d="m0 0c-.061.091-1.515 2.223-4.416 2.223-2.9 0-4.355-2.132-4.416-2.223-.135-.202-.104-.47.071-.638.174-.167.447-.184.643-.041.012.009 1.262.902 3.702.902 2.426 0 3.674-.882 3.702-.902.089-.066.193-.098.298-.098.124 0 .248.046.344.136.176.168.207.438.072.641" transform="translate(29.416 19.277)"/><path d="m0 0c-2.9 0-4.355-2.132-4.416-2.223-.134-.201-.104-.469.071-.637.176-.167.447-.185.642-.042.013.009 1.262.902 3.703.902 2.426 0 3.674-.881 3.702-.901.089-.066.194-.099.298-.099.124 0 .248.046.344.137.177.167.207.438.072.64-.061.091-1.515 2.223-4.416 2.223" transform="translate(13 21.5)"/><path d="m0 0c1.335.412 2.629 1.156 2.629 2.5 0 2.619-4.912 2.968-5.473 2.999-.277.035-.51-.194-.526-.468-.017-.273.19-.51.464-.53.035-.002 3.535-.299 3.535-2 0-1.702-3.5-1.999-3.535-2-.01-.001-.018-.006-.028-.008-.123-.008-.229-.064-.307-.157-.006-.007-.011-.016-.017-.022-.028-.04-.054-.079-.072-.125-.011-.027-.016-.056-.022-.085-.004-.024-.016-.046-.018-.071-.001-.01.004-.02.004-.031 0-.011-.005-.021-.004-.031.002-.026.013-.046.018-.071.006-.029.011-.058.023-.086.013-.033.032-.06.051-.088.016-.024.03-.047.049-.068.024-.024.052-.043.082-.062.023-.017.044-.033.071-.046.031-.015.065-.021.1-.027.024-.006.044-.018.07-.02.035-.002 3.535-.299 3.535-2 0-1.702-3.5-1.999-3.535-2-.274-.02-.481-.257-.464-.53.016-.265.236-.469.499-.469.009 0 .018 0 .027.001.561.031 5.473.38 5.473 2.999 0 1.344-1.294 2.088-2.629 2.5" transform="translate(22.871 7)"/><path d="m0 0c-.305 0-.604.138-.801.4-2.64 3.521-6.06 3.599-6.206 3.6-.55.006-.994.456-.991 1 .003.551.447.995.997.995.184 0 4.537-.05 7.8-4.4.332-.442.242-1.069-.2-1.4-.18-.135-.39-.2-.599-.2" transform="translate(32 21)"/><path d="m0 0c-.208 0-.419.065-.599.2-.442.331-.531.958-.2 1.4 3.262 4.35 7.616 4.4 7.8 4.4.552 0 1-.448 1-1 0-.551-.445-.998-.996-1-.155-.002-3.568-.086-6.204-3.6-.197-.262-.497-.4-.801-.4" transform="translate(5.999 21)"/></g></g></g></svg>