<svg xmlns="http://www.w3.org/2000/svg" viewBox="0 0 47.5 47.5" enable-background="new 0 0 47.5 47.5" xmlns:xlink="http://www.w3.org/1999/xlink"><defs><clipPath id="0"><path d="m0 38h38v-38h-38v38"/></clipPath></defs><g transform="matrix(1.25 0 0-1.25 0 47.5)"><g clip-path="url(#0)"><g fill="#ffcc4d"><path d="m0 0c0-10-11-16-18-16-7 0-18 6.06-18 16 0 9.941 4 20 18 20 14 0 18-10 18-20" transform="translate(37 17)"/><path d="m0 0c1-1 0-11 0-11l-8 10c0 0 7 2 8 1" transform="translate(36 36)"/><path d="m0 0c-1-1 0-11 0-11l8 10c0 0-7 2-8 1" transform="translate(2 36)"/></g><path d="m0 0c-.483.766-3.415 5.136-7.363 5.136-4.234 0-7.3-5.03-7.428-5.243-.121-.201-.085-.457.083-.62.096-.09.221-.137.346-.137.096 0 .193.027.277.084.029.019 2.918 1.916 6.722 1.916 3.792 0 6.695-1.898 6.723-1.916.086-.058.215-.096.282-.084.277.004.515.218.515.5 0 .143-.059.272-.157.364" fill="#292f33" transform="translate(26.362 6.364)"/><path d="m0 0c0-1.933-.896-3.5-2-3.5-1.104 0-2 1.567-2 3.5 0 1.933.896 3.5 2 3.5 1.104 0 2-1.567 2-3.5" fill="#292f33" transform="translate(15 22.5)" id="1"/><use transform="translate(12)" xlink:href="#1"/><path d="m0 0c3 0 3-.5 3-1.5 0-1-1.5-3-3-3-1.5 0-3 2-3 3 0 1 0 1.5 3 1.5" fill="#67757f" transform="translate(19 17.5)"/><g fill="#9aaab4"><path d="m0 0c-.209 0-.404.133-.475.342-.087.262.055.545.317.633l9 2.999c.263.088.545-.054.633-.316.087-.262-.055-.545-.317-.632l-9-3c-.053-.017-.105-.025-.158-.025" transform="translate(27 16.5)"/><path d="m0 0c-.233 0-.441.164-.489.402-.055.271.121.535.392.588l10 2c.26.054.534-.12.588-.392.055-.271-.121-.535-.392-.588l-10-2c-.033-.007-.066-.01-.099-.01" transform="translate(25.999 14.5)"/><path d="m0 0c-.052 0-.105.008-.158.025l-9 3c-.262.087-.404.37-.316.632.087.262.368.404.632.316l9-2.999c.262-.088.404-.371.316-.633-.07-.209-.265-.342-.474-.342" transform="translate(11 16.5)"/><path d="m0 0c-.032 0-.065.003-.099.01l-10 2c-.27.053-.446.317-.392.588.054.271.313.449.589.392l10-2c.27-.053.446-.317.392-.588-.048-.238-.257-.402-.49-.402" transform="translate(12 14.5)"/></g><g fill="#292f33"><path d="m0 0c-.305 0-.604.138-.801.4-2.64 3.521-6.06 3.599-6.206 3.6-.55.006-.994.456-.991 1 .003.551.447.995.997.995.184 0 4.537-.05 7.8-4.4.332-.442.242-1.069-.2-1.4-.18-.135-.39-.2-.599-.2" transform="translate(32 23)"/><path d="m0 0c-.208 0-.419.065-.599.2-.442.331-.531.958-.2 1.4 3.262 4.35 7.616 4.4 7.8 4.4.552 0 1-.448 1-1 0-.551-.445-.998-.996-1-.155-.002-3.568-.086-6.204-3.6-.197-.262-.497-.4-.801-.4" transform="translate(5.999 23)"/></g><path d="m0 0c0-2.762-2.239-5-5-5-2.761 0-5 2.238-5 5 0 2.762 4 13 5 13 1 0 5-10.238 5-13" fill="#5dadec" transform="translate(16 6)"/></g></g></svg>