<svg xmlns="http://www.w3.org/2000/svg" viewBox="0 0 47.5 47.5" enable-background="new 0 0 47.5 47.5"><defs><clipPath id="0"><path d="m0 38h38v-38h-38v38"/></clipPath></defs><g transform="matrix(1.25 0 0-1.25 0 47.5)"><g clip-path="url(#0)"><path d="m0 0c-1.563-1.563-4.095-1.562-5.656 0l-22.628 22.627c-1.562 1.562-1.563 4.094 0 5.658l4.242 4.242c1.563 1.562 4.096 1.562 5.658 0l22.626-22.628c1.563-1.562 1.563-4.095.001-5.656l-4.243-4.243" fill="#ffcc4d" transform="translate(31.02 2.736)"/><g fill="#292f33"><path d="m0 0c-.391-.39-1.023-.39-1.414 0-.39.391-.39 1.024 0 1.415l3.536 3.535c.485-.486.927-.928 1.414-1.414l-3.536-3.536" transform="translate(10.515 30.31)"/><path d="m0 0c-.39-.391-1.023-.391-1.414 0-.391.391-.391 1.024 0 1.414l1.414 1.415c.486-.487.928-.929 1.415-1.415l-1.415-1.414" transform="translate(16.17 28.899)"/><path d="m0 0c-.391-.391-1.024-.391-1.415 0-.39.391-.39 1.024 0 1.414l3.536 3.536c.486-.487.929-.929 1.414-1.415l-3.535-3.535" transform="translate(17.586 23.24)"/><path d="m0 0c-.39-.391-1.022-.391-1.413 0-.392.391-.391 1.024 0 1.414l1.414 1.415c.485-.487.928-.929 1.414-1.415l-1.415-1.414" transform="translate(23.24 21.829)"/><path d="m0 0c-.391-.391-1.023-.392-1.414 0-.391.391-.391 1.023-.001 1.414l3.536 3.535c.486-.486.929-.928 1.414-1.414l-3.535-3.535" transform="translate(24.657 16.17)"/><path d="m0 0c-.39-.391-1.023-.391-1.413 0-.392.391-.392 1.023-.001 1.414l3.536 3.535 1.414-1.414-3.536-3.535" transform="translate(31.728 9.101)"/><path d="m0 0c-.391-.391-1.022-.391-1.414-.001-.391.391-.39 1.023 0 1.414l1.415 1.414 1.413-1.413-1.414-1.414" transform="translate(30.31 14.758)"/></g></g></g></svg>