<svg xmlns="http://www.w3.org/2000/svg" viewBox="0 0 47.5 47.5" enable-background="new 0 0 47.5 47.5" xmlns:xlink="http://www.w3.org/1999/xlink"><defs><clipPath id="0"><path d="m0 38h38v-38h-38v38"/></clipPath><clipPath id="1"><path d="m24 24l-10-10c-1-1 0-2 0-2l3-3c1-1 2 0 2 0l10 10c1 1 0 2 0 2l-3 3c-.333.334-.666.445-.963.445-.592 0-1.037-.445-1.037-.445"/></clipPath><clipPath id="2"><path d="m12 36l-10-10c-1-1 0-2 0-2l3-3c1-1 2 0 2 0l10 10c1 1 0 2 0 2l-3 3c-.333.333-.667.444-.963.444-.593 0-1.037-.444-1.037-.444"/></clipPath></defs><g transform="matrix(1.25 0 0-1.25 0 47.5)"><g clip-path="url(#0)"><path d="m0 0l-25.354 25.354-4.707-4.708 25.354-25.353c.061-.061.613-.591 1.391-.591.474 0 .929.204 1.316.591l2 2c.544.544.993 1.714 0 2.707" fill="#8899a6" transform="translate(36.35 6.354)"/><path d="m0 0c-.104 0-.211.017-.316.052-.524.174-.807.74-.632 1.264l2 6c.175.524.735.808 1.264.632.524-.174.807-.74.632-1.264l-2-6c-.139-.419-.529-.684-.948-.684" fill="#66757f" transform="translate(31 2)" id="3"/><path d="m0 0c-.104 0-.211.017-.316.052-.524.174-.807.74-.632 1.264l2 6c.174.524.737.809 1.264.632.524-.174.807-.74.632-1.264l-2-6c-.139-.419-.529-.684-.948-.684" fill="#66757f" transform="translate(28 5)"/><use transform="translate(-6 6)" xlink:href="#3"/><g fill="#66757f"><path d="m0 0c-.104 0-.211.017-.316.052-.524.174-.807.74-.632 1.264l2 6c.174.524.737.809 1.264.633.524-.175.807-.741.632-1.265l-2-6c-.139-.419-.529-.684-.948-.684" transform="translate(22 11)"/><path d="m0 0c-.104 0-.211.017-.316.052-.524.174-.808.74-.633 1.264l2 6c.175.524.741.809 1.265.633.524-.175.807-.741.633-1.265l-2-6c-.14-.419-.53-.684-.949-.684" transform="translate(17 16)"/><path d="m0 0c-.104 0-.211.017-.316.052-.524.175-.808.741-.633 1.265l2 6c.175.523.74.809 1.265.632.524-.175.808-.741.633-1.265l-2-6c-.14-.419-.53-.684-.949-.684" transform="translate(14 19)"/><path d="m0 0c-.104 0-.211.017-.316.052-.524.175-.808.741-.633 1.265l2 6c.175.523.741.808 1.265.632.524-.175.808-.741.633-1.265l-2-6c-.14-.419-.53-.684-.949-.684" transform="translate(11 22)"/></g><path d="m0 0c0 0-1 1 0 2l10 10c0 0 1 1 2 0l3-3c0 0 1-1 0-2l-10-10c0 0-1-1-2 0l-3 3" fill="#ccd6dd" transform="translate(14 12)" id="4"/></g><g clip-path="url(#1)"><path d="M 0,0 7.5,-7.5 4,-11 -3.292,-3.708 0,0 Z" fill="#8899a6" transform="translate(15 17)" id="5"/><path d="M 0,0 7,-7 10.5,-3.5 4.021,2.979 0,0 Z" fill="#e1e8ed" transform="translate(21 23)" id="6"/></g><g clip-path="url(#0)"><use transform="translate(-12 12)" xlink:href="#4"/></g><g clip-path="url(#2)"><use transform="translate(-12 12)" xlink:href="#5"/><use transform="translate(-12 12)" xlink:href="#6"/></g></g></svg>