<svg xmlns="http://www.w3.org/2000/svg" viewBox="0 0 47.5 47.5" enable-background="new 0 0 47.5 47.5"><defs><clipPath id="0"><path d="m0 38h38v-38h-38v38"/></clipPath></defs><g transform="matrix(1.25 0 0-1.25 0 47.5)"><g clip-path="url(#0)" fill="#99aab5"><path d="m0 0c0 .829-.672 1.5-1.5 1.5-.829 0-1.5-.671-1.5-1.5v-5.775-3.225-.5c0-.552-.448-1-1-1-.552 0-1 .448-1 1v.5 3.5 5.5c0 .829-.671 1.5-1.5 1.5-.829 0-1.5-.671-1.5-1.5v-5.5-3.5-.5c0-.552-.448-1-1-1-.552 0-1 .448-1 1v.5 3.225 5.775c0 .829-.671 1.5-1.5 1.5-.829 0-1.5-.671-1.5-1.5v-9c0-.127.021-.249.051-.367-.03-.207-.051-.417-.051-.633 0-2.316 1.75-5.957 4-6.442v-15.558c0-1.381 1.119-2.5 2.5-2.5 1.381 0 2.5 1.119 2.5 2.5v15.558c2.25.485 4 4.126 4 6.442 0 .216-.021.426-.051.633.03.118.051.24.051.367v9" transform="translate(20 35.5)"/><path d="m0 0c-.104 0-.204-.019-.306-.031-.064.01-.127.031-.194.031-2.209 0-5-5.477-5-11 0-4.658 1.275-8.561 3-9.672v-12.828c0-1.381 1.119-2.5 2.5-2.5 1.381 0 2.5 1.119 2.5 2.5v31c0 1.381-1.119 2.5-2.5 2.5" transform="translate(28.5 37)"/></g></g></svg>