<svg xmlns="http://www.w3.org/2000/svg" viewBox="0 0 47.5 47.5" enable-background="new 0 0 47.5 47.5"><defs><clipPath id="0"><path d="m0 38h38v-38h-38v38"/></clipPath></defs><g transform="matrix(1.25 0 0-1.25 0 47.5)"><g clip-path="url(#0)"><path d="m0 0c0-9.389-7.611-17-17-17-9.389 0-17 7.611-17 17 0 9.389 7.611 17 17 17 9.389 0 17-7.611 17-17" transform="translate(35.999 19)"/><g fill="#f5f8fa"><path d="m0 0h-1.671c-1.358 0-1.924.991-1.924 1.953 0 .99.707 1.951 1.924 1.951h4.02c1.216 0 1.896-.876 1.896-2.01v-16.1c0-1.414-.906-2.207-2.122-2.207-1.217 0-2.122.793-2.122 2.207v14.207" transform="translate(10.521 24.755)"/><path d="m0 0c0-1.273.736-2.151 2.037-2.151 1.302 0 2.067.878 2.067 2.151 0 1.217-.737 2.151-2.067 2.151-1.33 0-2.037-.934-2.037-2.151m-.538-8.206c0-1.443.849-2.832 2.575-2.832 1.612 0 2.576 1.389 2.576 2.832 0 1.784-1.02 2.831-2.576 2.831-1.641 0-2.575-1.247-2.575-2.831m-4.414-.283c0 2.264 1.245 3.934 3.03 4.895-1.33.963-2.15 2.265-2.15 4.047 0 3.311 2.745 5.433 6.112 5.433 3.283 0 6.14-2.093 6.14-5.433 0-1.584-.791-3.17-2.178-4.047 1.924-.961 3.03-2.715 3.03-4.895 0-3.933-3.197-6.451-6.989-6.451-3.905 0-6.989 2.658-6.989 6.451" transform="translate(22.779 23.11)"/></g><path d="m0 0c0 3.968 1.453 7.591 3.844 10.387l22.544-22.543c-2.797-2.392-6.42-3.844-10.388-3.844-8.836 0-16 7.163-16 16m32 0c0-3.969-1.453-7.592-3.845-10.389l-22.543 22.544c2.797 2.392 6.42 3.845 10.388 3.845 8.837 0 16-7.164 16-16m-16 18c-9.941 0-18-8.06-18-18 0-9.941 8.06-18 18-18 9.941 0 18 8.06 18 18 0 9.94-8.06 18-18 18" fill="#dd2e44" transform="translate(3 19)"/></g></g></svg>