<svg xmlns="http://www.w3.org/2000/svg" viewBox="0 0 47.5 47.5" enable-background="new 0 0 47.5 47.5"><defs><clipPath id="0"><path d="m0 38h38v-38h-38v38"/></clipPath></defs><g transform="matrix(1.25 0 0-1.25 0 47.5)"><g clip-path="url(#0)" fill="#dd2e44"><path d="m0 0c-8.836 0-16 7.163-16 16 0 8.836 7.164 16 16 16 8.837 0 16-7.164 16-16 0-8.837-7.163-16-16-16m0 34c-9.941 0-18-8.06-18-18 0-9.941 8.06-18 18-18 9.941 0 18 8.06 18 18 0 9.94-8.06 18-18 18" transform="translate(19 3)"/><path d="m0 0c0-.494.234-.624.702-.624h7.983c.467 0 .701.13.701.624v1.43h-9.386v-1.43m9.386 2.964v1.378c0 .468-.234.598-.701.598h-7.983c-.468 0-.702-.13-.702-.598v-1.378h9.386zm-9.23-12.715c.26 0 .52-.103.676-.26.91-.884 1.794-1.872 2.445-2.756.103-.156.156-.337.156-.52 0-.286-.131-.571-.416-.806-.234-.208-.494-.286-.728-.286-.26 0-.52.105-.651.312-.65.936-1.56 2.054-2.314 2.835-.156.155-.234.363-.234.545 0 .26.13.495.364.703.208.155.468.233.702.233m8.918 16.251c1.482 0 2.133-.572 2.133-1.95v-4.784c0-1.378-.651-1.95-2.133-1.95h-8.736c-1.508 0-2.158.572-2.158 1.95v4.784c0 1.378.65 1.95 2.158 1.95h8.736zm.39-13.989h2.834c.469 0 .703-.312.703-.832 0-.493-.234-.831-.703-.831h-2.834v-4.967c0-1.794-.935-2.392-2.886-2.392-.936 0-1.819.052-2.496.208-.364.078-.676.416-.676.884 0 .078 0 .156.027.234.104.52.467.78.805.78.053 0 .078 0 .131-.026.675-.182 1.482-.234 1.976-.234.988 0 1.221.182 1.221 1.014v4.499h-11.232c-.468 0-.702.311-.702.805 0 .546.234.858.702.858h11.232v2h-10.868c-.468 0-.702.364-.702.832 0 .494.234.832.702.832h15.419c.441 0 .675-.338.675-.832 0-.468-.234-.832-.675-.832h-2.653v-2m-13.13 13.86c0-.157-.052-.339-.156-.495-1.222-1.976-3.146-4-5.096-5.46-.208-.182-.442-.26-.65-.26-.26 0-.495.13-.728.416-.156.182-.234.39-.234.598 0 .286.156.546.416.754 1.846 1.274 3.51 3.094 4.602 4.94.208.261.494.39.78.39.208 0 .39-.051.572-.156.312-.181.494-.442.494-.727m-4-14.614c0 1.066.078 2.184.286 3.407-.65-.806-1.352-1.509-2.08-2.055-.156-.13-.312-.182-.52-.182-.26 0-.546.131-.78.39-.131.208-.182.416-.182.624 0 .287.104.547.338.729 2.236 1.742 3.926 3.9 5.2 6.214.182.312.442.468.728.468.182 0 .364-.052.52-.156.364-.182.52-.442.52-.754 0-.156-.052-.312-.13-.468-.494-.884-1.196-1.95-1.924-2.886v-13.209c0-.494-.39-.754-.988-.754-.572 0-.988.26-.988.754v7.878z" transform="translate(18.376 23.704)"/></g></g></svg>