<svg xmlns="http://www.w3.org/2000/svg" viewBox="0 0 47.5 47.5" enable-background="new 0 0 47.5 47.5"><defs><clipPath id="0"><path d="m0 38h38v-38h-38v38"/></clipPath></defs><g transform="matrix(1.25 0 0-1.25 0 47.5)"><g clip-path="url(#0)"><path d="m0 0c0-2.209-3-15-9-15h-8c-6 0-9 12.791-9 15v17c0 2.209 1.791 4 4 4h18c2.209 0 4-1.791 4-4v-17" fill="#da2f47" transform="translate(29 16)"/><path d="m0 0c2.138-2.343 2.715-5.509 1.29-7.07-1.423-1.562-4.312-.929-6.449 1.414-2.136 2.343-2.715 5.51-1.289 7.07 1.424 1.562 4.313.929 6.448-1.414" fill="#f5f8fa" transform="translate(15.441 27.829)"/><path d="m0 0c.609-.781.609-2.048 0-2.829-.606-.781-1.593-.781-2.201 0-.609.781-.609 2.048 0 2.829.608.781 1.595.781 2.201 0" fill="#292f33" transform="translate(16.934 24.294)"/><path d="m0 0c-1.826-2.342-2.318-5.509-1.1-7.07 1.215-1.562 3.68-.929 5.504 1.414 1.825 2.343 2.317 5.51 1.1 7.07-1.215 1.562-3.68.929-5.504-1.414" fill="#f5f8fa" transform="translate(22.727 27.729)"/><g fill="#292f33"><path d="m0 0c-.609-.781-.609-2.047 0-2.828.607-.781 1.596-.781 2.201 0 .612.781.612 2.047 0 2.828-.605.781-1.594.781-2.201 0" transform="translate(22.18 24.19)"/><path d="m0 0c-.43 0-.862.138-1.228.422-.871.678-1.028 1.935-.349 2.807l4.67 6c.678.872 1.933 1.028 2.806.349.872-.678 1.029-1.935.35-2.807l-4.67-6c-.394-.506-.983-.771-1.579-.771" transform="translate(21.892 26)"/><path d="m0 0c-.596 0-1.185.265-1.58.771l-4.672 6c-.679.872-.522 2.128.349 2.807.872.679 2.129.523 2.807-.349l4.673-6c.678-.872.522-2.128-.349-2.807-.366-.284-.799-.422-1.228-.422" transform="translate(17.221 26)"/></g><path d="m0 0c-.81 0-1.571.496-1.873 1.299-.104.259-1.167 2.702-4.127 2.702-2.96 0-4.02-2.443-4.135-2.722-.407-1.017-1.563-1.527-2.583-1.133-1.023.397-1.539 1.531-1.155 2.557.081.217 2.054 5.298 7.873 5.298 5.819 0 7.792-5.081 7.873-5.298.388-1.034-.137-2.186-1.171-2.575-.231-.086-.469-.128-.702-.128" fill="#fdd888" transform="translate(25 5.999)"/><g fill="#292f33" transform="translate(19.555 15)"><path d="M 0,0 C 0,0 4.482,0.553 7.05,-4 9.869,-9 9.869,1 9.164,2 8.46,3 7.713,0.614 6.344,1.1 3.523,2.1 0,0 0,0"/><path d="m0 0c0 0-5.888.553-9.263-4-3.703-5-3.703 5-2.778 6 .927 1 1.908-1.725 3.706-1.239 3.705 1 8.335-.761 8.335-.761"/></g><path d="m0 0c-.09 0-.174-.02-.262-.029v.029h-13.845c-1.511 0-2.735-1.343-2.735-3 0-1.657 1.224-3 2.735-3h13.845v.029c.088-.009.172-.029.262-.029 1.513 0 2.738 1.343 2.738 3 0 1.656-1.225 3-2.738 3" fill="#e75a70" transform="translate(33.26 22)"/></g></g></svg>