<svg xmlns="http://www.w3.org/2000/svg" viewBox="0 0 47.5 47.5" enable-background="new 0 0 47.5 47.5" xmlns:xlink="http://www.w3.org/1999/xlink"><defs><clipPath id="0"><path d="m0 38h38v-38h-38v38"/></clipPath></defs><g transform="matrix(1.25 0 0-1.25 0 47.5)"><path d="m33 1h-28v19h28v-19" fill="#d1d3d4"/><path d="m30 19h-23v5h23v-5" fill="#269"/><g clip-path="url(#0)"><g fill="#a7a9ac"><path d="m0 0v-22c0-1.104.896-2 2-2h4v24h-6" transform="translate(2 25)"/><path d="m0 0v-24h4c1.104 0 2 .896 2 2v22h-6" transform="translate(30 25)"/></g><path d="m23 4h-8v11h8v-11" fill="#f1f2f2"/><path d="m0 0c-.295 0-.558-.391-.74-1h-6.52c-.182.609-.445 1-.74 1-.552 0-1-1.344-1-3 0-1.657.448-3 1-3 .552 0 1 1.343 1 3h6c0-1.657.447-3 1-3 .553 0 1 1.343 1 3 0 1.656-.447 3-1 3" fill="#269" transform="translate(23 18)"/><g fill="#58595b"><path d="m6 18h-2v2h2v-2"/><path d="m12 15h-2v2h2v-2"/><path d="m28 15h-2v2h2v-2"/><path d="m12 11h-2v2h2v-2"/><path d="m28 11h-2v2h2v-2"/><path d="m6 14h-2v2h2v-2"/><path d="m34 18h-2v2h2v-2"/><path d="m34 14h-2v2h2v-2"/></g><path d="m24 11h-10v4h10v-4" fill="#fff"/><path d="m0 0c-1.104 0-2-.896-2-2v-5h4v5c0 1.104-.896 2-2 2" fill="#58595b" transform="translate(19 11)"/><path d="m25 1h-12v3h12v-3" fill="#939598"/><path d="m0 0h6c0 0-2 8-3 8-1 0-3-8-3-8" fill="#269" transform="translate(2 25)" id="1"/><use transform="translate(28)" xlink:href="#1"/><g fill="#d1d3d4"><path d="m0 0c0-.552-.448-1-1-1h-6c-.552 0-1 .448-1 1 0 .552.448 1 1 1h6c.552 0 1-.448 1-1" transform="translate(9 23)"/><path d="m0 0c0-.552-.447-1-1-1h-6c-.553 0-1 .448-1 1 0 .552.447 1 1 1h6c.553 0 1-.448 1-1" transform="translate(37 23)"/></g></g></g></svg>