<svg xmlns="http://www.w3.org/2000/svg" viewBox="0 0 47.5 47.5" enable-background="new 0 0 47.5 47.5"><defs><clipPath id="0"><path d="m0 38h38v-38h-38v38"/></clipPath><clipPath id="1"><path d="m4.777 19c0-7.854 6.368-14.223 14.223-14.223 7.853 0 14.223 6.369 14.223 14.223 0 7.855-6.37 14.223-14.223 14.223-7.855 0-14.223-6.368-14.223-14.223m9.987 0c0 2.34 1.896 4.235 4.236 4.235 2.338 0 4.236-1.895 4.236-4.235 0-2.338-1.898-4.236-4.236-4.236-2.34 0-4.236 1.898-4.236 4.236"/></clipPath></defs><g transform="matrix(1.25 0 0-1.25 0 47.5)"><g clip-path="url(#0)"><path d="m0 0c0-2.209-1.791-4-4-4h-28c-2.209 0-4 1.791-4 4v28c0 2.209 1.791 4 4 4h28c2.209 0 4-1.791 4-4v-28" fill="#292f33" transform="translate(37 5)"/><path d="m0 0c-1.473 0-2.667-1.194-2.667-2.667 0-1.474 1.194-2.666 2.667-2.666 1.474 0 2.666 1.192 2.666 2.666 0 1.473-1.192 2.667-2.666 2.667m16-2.667c0-8.836-7.164-16-16-16-8.836 0-16 7.164-16 16 0 8.836 7.164 16 16 16 8.836 0 16-7.164 16-16" fill="#ffd983" transform="translate(19 21.667)"/></g><g clip-path="url(#1)"><g fill="#ffac33" transform="translate(19 19)"><path d="m0 0l-16 1.777v14.223h14.223l1.777-16"/><path d="M 0,0 16,-1.777 16,-16 1.777,-16 0,0 Z"/></g><g fill="#ffe8b6" transform="translate(19 19)"><path d="M 0,0 1.888,-16.888 16,-16 0,0 Z"/><path d="M 0,0 -16,16 -1.778,16.889 0,0 Z"/></g></g><g clip-path="url(#0)"><path d="m0 0c0-1.104-.896-2-2-2h-11c-1.104 0-2 .896-2 2v6c0 1.104.896 2 2 2h11c1.104 0 2-.896 2-2v-6" fill="#f5f8fa" transform="translate(37 16)"/></g></g></svg>