<svg xmlns="http://www.w3.org/2000/svg" viewBox="0 0 47.5 47.5" enable-background="new 0 0 47.5 47.5"><defs><clipPath id="0"><path d="m0 38h38v-38h-38v38"/></clipPath></defs><g transform="matrix(1.25 0 0-1.25 0 47.5)"><g clip-path="url(#0)"><path d="m0 0c-14.958 0-17 15-17 19h34c0-2-1.958-19-17-19" fill="#dd2e44" transform="translate(19 1)"/><path d="m0 0c0-5.216-7.611-9.444-17-9.444-9.389 0-17 4.228-17 9.444 0 5.216 7.611 9.444 17 9.444 9.389 0 17-4.228 17-9.444" fill="#a0041e" transform="translate(36 19.944)"/><path d="m0 0c-6 0-16 3-16 8 0 6 6.125 13 16 13 9.875 0 16-8 16-13 0-5-9-8-16-8" fill="#eee" transform="translate(19 12)"/><g fill="#ccd6dd"><path d="m0 0c.419-.359.468-.991.108-1.41-.359-.419-.99-.468-1.41-.109l-1.518 1.302c-.419.36-.468.991-.109 1.41.36.419.991.468 1.41.109l1.519-1.302" transform="translate(16.41 17.11)"/><path d="m0 0c-.304-.46-.925-.587-1.386-.283-.46.304-.587.925-.282 1.386l1.102 1.668c.305.461.925.588 1.386.283.46-.304.587-.925.283-1.386l-1.103-1.668" transform="translate(8.283 18.615)"/><path d="m0 0c-.305-.46-.926-.587-1.387-.283-.46.304-.587.925-.282 1.386l1.103 1.668c.304.461.925.588 1.385.283.46-.304.587-.925.284-1.386l-1.103-1.668" transform="translate(31.28 18.615)"/><path d="m0 0c.11-.541-.239-1.069-.78-1.18-.541-.11-1.07.24-1.18.781l-.399 1.96c-.111.541.238 1.068.78 1.179.541.111 1.069-.239 1.179-.781l.4-1.959" transform="translate(25.18 22.22)"/><path d="m0 0c-.345.14-.511.534-.37.879.141.344.535.51.879.37l1.249-.509c.345-.14.51-.533.37-.879-.141-.344-.534-.51-.879-.37l-1.249.509" transform="translate(17.64 26.18)"/><path d="m0 0c-.307-.211-.727-.133-.937.175-.21.307-.132.727.174.937l1.114.763c.306.21.726.132.937-.175.21-.307.131-.727-.176-.938l-1.112-.762" transform="translate(8.344 24.612)"/><path d="m0 0c-.551.036-.969.513-.933 1.064.037.55.513.969 1.063.933l1.997-.131c.55-.035.969-.512.933-1.062-.036-.551-.511-.97-1.063-.933l-1.997.129" transform="translate(21.937 16.07)"/><path d="m0 0c-.512.208-.758.792-.549 1.304.209.51.793.757 1.304.549l1.852-.756c.511-.208.757-.791.549-1.303-.208-.511-.792-.757-1.303-.548l-1.853.754" transform="translate(12.696 22.453)"/><path d="m0 0c-.346.14-.512.534-.37.879.14.344.534.51.878.37l1.25-.509c.344-.14.51-.533.369-.879-.141-.344-.533-.51-.879-.37l-1.248.509" transform="translate(28.641 25.18)"/></g></g></g></svg>