<svg xmlns="http://www.w3.org/2000/svg" viewBox="0 0 47.5 47.5" enable-background="new 0 0 47.5 47.5" xmlns:xlink="http://www.w3.org/1999/xlink"><defs><clipPath id="0"><path d="m0 0h38v38h-38v-38"/></clipPath><clipPath id="1"><path d="m0 38h38v-38h-38v38"/></clipPath></defs><g transform="matrix(1.25 0 0-1.25 0 47.5)"><g clip-path="url(#0)"><path d="m0 0c0 4.939-6.772 4.457-9.169 4.132-2.433 1.789-5.387 2.868-8.831 2.868-3.438 0-6.388-1.081-8.818-2.869-2.385.325-9.182.817-9.182-4.131 0-2.891 1.563-4.732 2.433-5.533-.947-2.727-1.433-5.642-1.433-8.467 0-9.941 10-13 17-13 7 0 17 3 17 13 0 2.835-.483 5.75-1.426 8.473.871.805 2.426 2.644 2.426 5.527" fill="#bf6952" transform="translate(37 30)"/><path d="m0 0c-.038 0-.074-.005-.111-.006.037.037.074.073.111.111.037-.038.074-.074.111-.111-.037.001-.073.006-.111.006m12 5c0 3.866-3.134 7-7 7-1.96 0-3.729-.808-5-2.105-1.271 1.297-3.04 2.105-5 2.105-3.866 0-7-3.134-7-7 0-3.777 2.993-6.846 6.735-6.986-1.673-1.467-2.735-3.614-2.735-6.01 0-4.419 3.582-8 8-8 4.419 0 8 3.581 8 8 0 2.4-1.062 4.547-2.734 6.01 3.742.14 6.734 3.209 6.734 6.986" fill="#d79e84" transform="translate(19 18)"/><path d="m0 0c-3.271 0-5.36 4.102-5.447 4.276-.078.156-.07.339.022.487.091.147.252.237.425.237h10c.173 0 .334-.09.426-.237.091-.148.098-.331.021-.487-.087-.174-2.176-4.276-5.447-4.276" fill="#642116" transform="translate(19 3.5)"/><path d="m0 0c-.276 0-.5.224-.5.5v2c0 .276.224.5.5.5.276 0 .5-.224.5-.5v-2c0-.276-.224-.5-.5-.5" fill="#642116" transform="translate(18 11.5)" id="2"/><use transform="translate(2)" xlink:href="#2"/><path d="m0 0c0-1.656-.896-3-2-3-1.104 0-2 1.344-2 3 0 1.657.896 3 2 3 1.104 0 2-1.343 2-3" fill="#292f33" transform="translate(16 21)" id="3"/><use transform="translate(10)" xlink:href="#3"/></g><g clip-path="url(#1)"><path d="m0 0c0-.553-.447-1-1-1-.552 0-1 .447-1 1 0 .553.448 1 1 1 .553 0 1-.447 1-1" fill="#d79e84" transform="translate(20 18)"/></g></g></svg>