<svg xmlns="http://www.w3.org/2000/svg" viewBox="0 0 47.5 47.5" enable-background="new 0 0 47.5 47.5"><defs><clipPath id="0"><path d="m0 38h38v-38h-38v38"/></clipPath></defs><g transform="matrix(1.25 0 0-1.25 0 47.5)"><g clip-path="url(#0)"><path d="m0 0c0-2.209 1.791-4 4-4h24c2.209 0 4 1.791 4 4v17c0 2.209-1.791 4-4 4h-9c-3.562 0-3 5-8.437 5h-6.563c-2.209 0-4-1.791-4-4v-22" fill="#269" transform="translate(1 8)"/><path d="m0 0h-6.562c-5.438 0-5.383-5-8.946-5h-9c-2.209 0-4.181-1.791-4.406-4l-.492-3.874-.524-4.126-.02.002c-.115-.606-.672-.999-1.3-.999-.643 0-1.106.507-1.074 1.143-.002-.049-.012-.096-.012-.146 0-2 1.478-3.648 3.4-3.939.177-.038.372-.061.6-.061h26c2.209 0 4.182 1.791 4.406 4l1.524 13c.224 2.209-1.385 4-3.594 4" fill="#55acee" transform="translate(33.34 25)"/></g></g></svg>