<svg xmlns="http://www.w3.org/2000/svg" viewBox="0 0 47.5 47.5" enable-background="new 0 0 47.5 47.5"><defs><clipPath id="0"><path d="m0 38h38v-38h-38v38"/></clipPath></defs><g transform="matrix(1.25 0 0-1.25 0 47.5)"><g clip-path="url(#0)" fill="#67757f"><path d="m0 0l-6.932 10.215c-.601.885-1.558.867-2.127-.037l-6.39-10.141c-.569-.904-.18-1.644.866-1.644h1.872v-3.526c0-1.104.896-2 2-2h6c1.106 0 2 .896 2 2v3.526h1.899c1.046 0 1.414.722.812 1.607" transform="translate(26.711 26.13)"/><path d="m0 0h-2.213c-.975 0-1.381.712-1.381 1.401 0 .71.508 1.4 1.381 1.4h7.469c.874 0 1.382-.69 1.382-1.4 0-.689-.406-1.401-1.382-1.401h-2.212v-10.189c0-1.016-.649-1.584-1.522-1.584-.873 0-1.522.568-1.522 1.584v10.189" transform="translate(4.651 13.425)"/><path d="m0 0c0 2.456-1.279 4.67-3.816 4.67-2.538 0-3.817-2.214-3.817-4.67 0-2.476 1.239-4.668 3.817-4.668 2.578 0 3.816 2.192 3.816 4.668m-10.799 0c0 4.222 2.841 7.471 6.983 7.471 4.079 0 6.982-3.351 6.982-7.471 0-4.201-2.821-7.471-6.982-7.471-4.121 0-6.983 3.27-6.983 7.471" transform="translate(22.19 9)"/><path d="m0 0h2.071c1.278 0 2.089.934 2.089 2.151 0 1.219-.811 2.153-2.089 2.153h-2.071v-4.304m-3.046 5.399c0 .955.569 1.582 1.585 1.582h3.591c2.985 0 5.197-1.947 5.197-4.85 0-2.963-2.293-4.811-5.074-4.811h-2.253v-3.329c0-1.015-.649-1.584-1.521-1.584-.875 0-1.525.569-1.525 1.584v11.408z" transform="translate(29.673 9.244)"/></g></g></svg>