<svg xmlns="http://www.w3.org/2000/svg" viewBox="0 0 47.5 47.5" enable-background="new 0 0 47.5 47.5"><defs><clipPath id="0"><path d="m0 38h38v-38h-38v38"/></clipPath></defs><g transform="matrix(1.25 0 0-1.25 0 47.5)"><g clip-path="url(#0)"><path d="m0 0c0-2.209-1.791-4-4-4h-28c-2.209 0-4 1.791-4 4v28c0 2.209 1.791 4 4 4h28c2.209 0 4-1.791 4-4v-28" fill="#3b88c3" transform="translate(37 5)"/><g fill="#fff"><path d="m0 0c-.494 0-1.14-.379-1.14-.949 0-.571.266-.912 1.01-1.634.57.285 1.387.798 1.387 1.481 0 .856-.76 1.102-1.254 1.102m-1.235-5.147c-.855-.552-1.634-1.216-1.634-2.299 0-1.198.817-1.863 1.976-1.863 1.026 0 1.691.418 2.413 1.103l-2.755 3.059zm4.693-1.198l.74.855c.494.57.836.874 1.444.874.551 0 1.045-.475 1.045-1.196 0-.513-.437-1.122-1.045-1.805l-.475-.514 1.292-1.462c.266-.304.418-.513.418-.95 0-.645-.608-1.272-1.33-1.272-.437 0-.722.132-1.01.436l-1.312 1.368c-1.234-1.083-2.488-1.804-4.179-1.804-2.546 0-4.654 1.443-4.654 4.102 0 1.881 1.311 3.268 2.869 4.123-.742.74-1.254 1.501-1.254 2.565 0 2.166 2.032 3.191 3.989 3.191 1.71 0 3.875-.969 3.875-2.982 0-1.52-1.196-2.698-2.412-3.325l1.995-2.204" transform="translate(10.372 15.588)"/><path d="m0 0c0 .607-.36 1.14-.987 1.14-.627 0-.988-.533-.988-1.14 0-.608.361-1.121.988-1.121.627 0 .987.513.987 1.121m-3.913 0c0 1.652 1.235 3.077 2.926 3.077 1.69 0 2.924-1.425 2.924-3.077 0-1.653-1.234-3.059-2.924-3.059-1.691 0-2.926 1.406-2.926 3.059m1.843 10.429c.247.474.437.608.874.608.589 0 1.12-.475 1.12-1.063 0-.153 0-.286-.152-.571l-6.383-11.949c-.285-.399-.399-.627-.854-.627-.494 0-1.084.475-1.084 1.045 0 .285.114.551.191.703l6.288 11.854m-4.617-2.583c0 .607-.36 1.139-.987 1.139-.627 0-.988-.532-.988-1.139 0-.609.361-1.121.988-1.121.627 0 .987.512.987 1.121m-3.913 0c0 1.652 1.235 3.077 2.926 3.077 1.69 0 2.925-1.425 2.925-3.077 0-1.654-1.235-3.059-2.925-3.059-1.691 0-2.926 1.405-2.926 3.059" transform="translate(31.33 6.831)"/><path d="m18 31h-14v3h14v-3"/><path d="m0 0h-14v-3h5v-5h4v5h5v3" transform="translate(18 28)"/><path d="m0 0l-5 2v-8.203c-.538.126-1.19.203-2 .203-2 0-4-2-4-4 0-1 1-2 3-2 3 0 5 2 5 4v6.2l3-1.2v3" transform="translate(33 32)"/></g></g></g></svg>