<svg xmlns="http://www.w3.org/2000/svg" viewBox="0 0 47.5 47.5" enable-background="new 0 0 47.5 47.5" xmlns:xlink="http://www.w3.org/1999/xlink"><defs><clipPath id="0"><path d="m1 1h36v36h-36v-36"/></clipPath><clipPath id="1"><path d="m0 38h38v-38h-38v38"/></clipPath></defs><g transform="matrix(1.25 0 0-1.25 0 47.5)"><g clip-path="url(#0)"><path d="m0 0l-14.849-14.85c0 0-.707 2.121.707 3.536 1.415 1.415 12.728 12.728 12.728 12.728l1.414-1.414" fill="#9aaab4" transform="translate(31.17 28.85)"/><path d="m0 0c1.172 1.172 2.438 1.805 2.829 1.414.392-.391-.243-1.656-1.415-2.828-1.171-1.172-2.436-1.805-2.828-1.414-.391.39.243 1.656 1.414 2.828m-1.414 1.414c-1.952-1.953-2.586-4.484-1.414-5.656 1.172-1.172 3.705-.539 5.657 1.414 1.952 1.952 2.586 4.484 1.414 5.656-1.172 1.172-3.704.539-5.657-1.414" fill="#67757f" transform="translate(31.17 28.85)"/><path d="m0 0c0 6.075-4.925 11-11 11-1.721 0-3.343-.406-4.793-1.111-.393.069-.795.111-1.207.111-3.866 0-7-3.134-7-7v-12h.018c.183-6.467 5.471-11.656 11.982-11.656 3.358 0 6.384 1.387 8.559 3.612 5.867-.463 12.441-7.956 12.441-7.956l7 9c-15 6-16 16-16 16" fill="#642116" transform="translate(21 26)"/><path d="m0 0h-1-16-1c-2.209 0-4-1.791-4-4v-5h5 16 5v5c0 2.209-1.791 4-4 4" fill="#9268ca" transform="translate(18 10)"/><g fill="#7450a8"><path d="m18 1h-1v4h1v-4"/><path d="m1 1h-1v4h1v-4"/></g><g fill="#d79e84"><path d="m0 0v3.995h-6v-4c0-1.657 1.344-3 3-3 1.658 0 3 1.343 3 3 0 .002 0 .003 0 .005" transform="translate(12 9)"/><path d="m0 0c0 0-.003-5.308-5-5.936v-6.06c0-4.971 4.03-9 9-9 4.971 0 9 4.03 9 9v5.02c-11.11.376-13 6.981-13 6.981" transform="translate(5 32)"/></g><path d="m0 0h-4-4c0 0 1-2 4-2 3 0 4 2 4 2" fill="#bb1a34" transform="translate(13 16)"/><path d="m0 0v-21c0 0 2 1 2 3v18h-2" fill="#9aaab4" transform="translate(25 31)"/><path d="m0 0c-.553 0-1 1.343-1 3 0 1.657.447 3 1 3 .553 0 1-1.343 1-3 0-1.657-.447-3-1-3m0 8c-1.657 0-3-2.239-3-5 0-2.761 1.343-5 3-5 1.657 0 3 2.239 3 5 0 2.761-1.343 5-3 5" fill="#67757f" transform="translate(24 28)"/></g><g clip-path="url(#1)"><path d="m0 0c0-.552-.447-1-1-1-.553 0-1 .448-1 1 0 .552.447 1 1 1 .553 0 1-.448 1-1" fill="#67757f" transform="translate(27 25)"/><path d="m0 0h-2c-.276 0-.5.224-.5.5 0 .276.224.5.5.5h2c.276 0 .5-.224.5-.5 0-.276-.224-.5-.5-.5" fill="#bf6952" transform="translate(10 17.5)"/><path d="m0 0c-.552 0-1 .448-1 1v1c0 .552.448 1 1 1 .552 0 1-.448 1-1v-1c0-.552-.448-1-1-1" fill="#292f33" transform="translate(5 21)" id="2"/><use transform="translate(8)" xlink:href="#2"/></g></g></svg>