<svg xmlns="http://www.w3.org/2000/svg" viewBox="0 0 47.5 47.5" enable-background="new 0 0 47.5 47.5" xmlns:xlink="http://www.w3.org/1999/xlink"><defs><path id="1" d="m0 0c0-2.209-1.791-4-4-4-2.209 0-4 1.791-4 4 0 2.209 1.791 4 4 4 2.209 0 4-1.791 4-4"/><clipPath id="0"><path d="m0 38h38v-38h-38v38"/></clipPath></defs><g transform="matrix(1.25 0 0-1.25 0 47.5)"><g clip-path="url(#0)"><path d="m0 0c0-2.209-1.791-4-4-4h-28c-2.209 0-4 1.791-4 4v10c0 2.209 1.791 4 4 4h28c2.209 0 4-1.791 4-4v-10" fill="#292f33" transform="translate(37 14)"/><use fill="#77b255" transform="translate(12 19)" xlink:href="#1"/><use fill="#ffcc4d" transform="translate(23 19)" xlink:href="#1"/><use fill="#dd2e44" transform="translate(34 19)" xlink:href="#1"/></g></g></svg>