<svg xmlns="http://www.w3.org/2000/svg" viewBox="0 0 47.5 47.5" enable-background="new 0 0 47.5 47.5"><defs><clipPath id="0"><path d="m0 38h38v-38h-38v38"/></clipPath><clipPath id="1"><path d="m1 19c0-2.209 1.791-4 4-4h28c2.209 0 4 1.791 4 4 0 10-8.06 18-18 18-9.941 0-18-8-18-18"/></clipPath></defs><g transform="matrix(1.25 0 0-1.25 0 47.5)"><g clip-path="url(#0)"><path d="m0 0c0-2.209-1.791-3-4-3h-10c-2.209 0-4 .791-4 3 0 2.209 3 7 3 13 0 6 12 6 12 0 0-6 3-10.791 3-13" fill="#99aab5" transform="translate(28 4)"/></g><g clip-path="url(#1)"><path d="m0 0c-10.494 0-19-8.639-19-19.19 0-2.332 1.891-4.417 4.222-4.417h29.555c2.332 0 4.223 2.085 4.223 4.417 0 10.555-8.506 19.19-19 19.19" fill="#dd2e44" transform="translate(19 37.611)"/><g fill="#f4abba"><path d="m 0,0 c -3.4,0 -6.167,2.766 -6.167,6.167 0,3.4 2.767,6.166 6.167,6.166 3.4,0 6.167,-2.766 6.167,-6.166 C 6.167,2.766 3.4,0 0,0" transform="translate(8.709 20.542)"/><path d="m0 0c-3.475 0-6.292-2.817-6.292-6.292 0-3.474 2.817-6.291 6.292-6.291 3.475 0 6.292 2.817 6.292 6.291 0 3.475-2.817 6.292-6.292 6.292m0-.25c3.331 0 6.04-2.71 6.04-6.04 0-3.331-2.711-6.04-6.04-6.04-3.331 0-6.04 2.71-6.04 6.04 0 3.332 2.711 6.04 6.04 6.04" transform="translate(8.709 33)"/><path d="m0 0c-.96 2.357-2.404 4.455-4.209 6.184-2.465-.024-4.457-2.025-4.457-4.496 0-2.485 2.02-4.5 4.5-4.5 1.887 0 3.497 1.165 4.166 2.812" transform="translate(35.666 25.812)"/><path d="m0 0c0-2.485-2.02-4.5-4.5-4.5-2.485 0-4.5 2.02-4.5 4.5 0 2.485 2.01 4.5 4.5 4.5 2.485 0 4.5-2.02 4.5-4.5" transform="translate(27 21)"/><path d="m0 0c0-1.656-1.343-3-3-3-1.657 0-3 1.344-3 3 0 1.657 1.343 3 3 3 1.657 0 3-1.343 3-3" transform="translate(24 32)"/></g></g></g></svg>