<svg xmlns="http://www.w3.org/2000/svg" viewBox="0 0 47.5 47.5" enable-background="new 0 0 47.5 47.5" xmlns:xlink="http://www.w3.org/1999/xlink"><defs><clipPath id="0"><path d="m0 38h38v-38h-38v38"/></clipPath></defs><g transform="matrix(1.25 0 0-1.25 0 47.5)"><g clip-path="url(#0)"><path d="m0 0c-1.104 0-2 .896-2 2 0 1.104.896 2 2 2 1.104 0 2-.896 2-2 0-1.104-.896-2-2-2m-4 4c-1.104 0-2 .896-2 2 0 1.104.896 2 2 2 1.104 0 2-.896 2-2 0-1.104-.896-2-2-2m-4 4c-1.104 0-2 .896-2 2 0 1.104.896 2 2 2 1.104 0 2-.896 2-2 0-1.104-.896-2-2-2m18.768 3.187l-2.737 2.737c-1.553 1.554-3.054 3.053-4.107 4.106l-2.738 2.738c-1.512 1.511-3.963 1.511-5.434.041l-5.91-5.911c.083-.302.158-.59.158-.898 0-1.104-.896-2-2-2-.308 0-.596.075-.857.2l-9.91-9.911c-1.512-1.513-1.512-3.963 0-5.476l2.738-2.737c1.052-1.053 3.052-3.053 4.106-4.106l2.737-2.738c1.512-1.511 3.964-1.511 5.476 0l9.91 9.911c-.125.26-.2.549-.2.857 0 1.104.896 2 2 2 .308 0 .597-.075.857-.2l5.911 5.911c1.511 1.512 1.511 3.964 0 5.476" fill="#ccd6dd" transform="translate(25 15)"/><path d="m0 0c-.256 0-.512.098-.707.293-.391.391-.391 1.023 0 1.414l4 4c.391.391 1.023.391 1.414 0 .391-.391.391-1.023 0-1.414l-4-4c-.195-.195-.451-.293-.707-.293" fill="#99aab5" transform="translate(12 7)"/><path d="m0 0c-.256 0-.512.098-.707.293-.391.391-.391 1.023 0 1.414l7 7c.391.391 1.023.391 1.414 0 .391-.391.391-1.023 0-1.414l-7-7c-.195-.195-.451-.293-.707-.293" fill="#99aab5" transform="translate(9 10)" id="1"/><use transform="translate(-3 3)" xlink:href="#1"/><path d="m0 0l1.611 1.611-3.248 1.671-.016-.017 1.653-3.265m-3.172 2.985c-.245.534-.228 1.179.204 1.611.45.45 1.06.467 1.611.204l6.277-2.951c.185-.085.322-.187.381-.246.331-.331.289-.832-.026-1.145-.355-.356-.72-.348-1.06-.179l-1.051.543-2.357-2.357.534-1.044c.179-.347.186-.712-.161-1.059-.34-.34-.883-.373-1.222-.034-.136.135-.194.279-.22.339l-2.91 6.318z" fill="#99aab5" transform="translate(24.569 27.23)"/></g></g></svg>