<svg xmlns="http://www.w3.org/2000/svg" viewBox="0 0 47.5 47.5" enable-background="new 0 0 47.5 47.5"><defs><clipPath id="0"><path d="m0 38h38v-38h-38v38"/></clipPath></defs><g transform="matrix(1.25 0 0-1.25 0 47.5)"><g clip-path="url(#0)"><path d="m0 0h-13c-.552 0-1 .447-1 1 0 .553.448 1 1 1h13c2.542 0 4 1.367 4 3.75 0 1.537-1.643 3.25-4 3.25h-7c-.553 0-1 .447-1 1 0 .553.447 1 1 1h7c3.589 0 6-2.715 6-5.25 0-3.493-2.355-5.75-6-5.75" fill="#ea596e" transform="translate(31 1)"/><g fill="#ccd6dd"><path d="m0 0c0 2.85 3 7.04 0 7.04-4 0-10.137-6.566-10.137-8.442 0-1.876 6.441-1.876 9.29-1.876 2.849 0 .847.433.847 3.283" transform="translate(13 10.283)"/><path d="m0 0c0 7.973-6.554 9.752-11.381 8.787-9.38-1.876-11.132-6.442-11.132-10.194 0-4.922 9.149-4.691 14.07-4.691 4.921 0 8.442 1.175 8.442 6.098" transform="translate(34 13.1)"/><path d="m0 0l-17.11-1.875 3.531-5.629h13.575v7.504" transform="translate(26 14.504)"/><path d="m0 0c0 2.683-1.997 4.857-4.458 4.857-2.463 0-4.46-2.174-4.46-4.857 0-2.683 1.997-4.857 4.46-4.857 2.461 0 4.458 2.174 4.458 4.857" transform="translate(17.918 19.857)"/></g><path d="m0 0c0-1.788-1.141-3.239-2.548-3.239-1.408 0-2.548 1.451-2.548 3.239 0 1.788 1.14 3.238 2.548 3.238 1.407 0 2.548-1.45 2.548-3.238" fill="#f4abba" transform="translate(15.37 19.317)"/><path d="m0 0c0-.829-.672-1.5-1.5-1.5-.828 0-1.5.671-1.5 1.5 0 .828.672 1.5 1.5 1.5.828 0 1.5-.672 1.5-1.5" fill="#dd2e44" transform="translate(11 12.5)"/></g></g></svg>