<svg xmlns="http://www.w3.org/2000/svg" viewBox="0 0 47.5 47.5" enable-background="new 0 0 47.5 47.5"><defs><clipPath id="0"><path d="m0 38h38v-38h-38v38"/></clipPath></defs><g transform="matrix(1.25 0 0-1.25 0 47.5)"><g clip-path="url(#0)"><g fill="#ccd6dd"><path d="m0 0c2.079 1.322 4.403 3.87 4.403 8.673 0 .553-.447 1-1 1-.552 0-1-.447-1-1 0-3.827-1.742-5.863-3.34-6.929-1.583 1.303-4.899 1.289-8.07 1.289-4.361 0-7.896-1.65-7.896-5.076 0-3.426 3.535-4.388 7.896-4.388 2.143 0 4.356.644 6.06 1.702 1.099-3.606 4.093-10.287 5.351-10.287 1.557 0-2.383 12.683-2.383 14.665 0 .13-.007.245-.019.351" transform="translate(30.21 19.431)"/><path d="m0 0c-1.558 0-2.947 10.221-2.947 12.202 0 1.984 1.262 3.59 2.821 3.59 1.556 0 2.818-1.606 2.818-3.59 0-1.981-1.135-12.202-2.692-12.202" transform="translate(14.44 4.415)"/></g><g fill="#99aab5"><path d="m0 0c0-4.982-2.608-9.02-7.592-9.02-4.984 0-10.01 4.06-10.456 9.02-.544 6.05 2.911 8.05 7.896 8.05 4.983 0 10.152-3.064 10.152-8.05" transform="translate(24.592 17.951)"/><path d="m0 0c0-1.868-1.516-2.256-3.384-2.256-1.869 0-3.384.388-3.384 2.256 0 1.868 1.515 3.384 3.384 3.384 1.868 0 3.384-1.516 3.384-3.384" transform="translate(17.824 3.287)"/><path d="m0 0c0-1.868-1.516-2.256-3.385-2.256-1.868 0-3.384.388-3.384 2.256 0 1.868 1.516 3.384 3.384 3.384 1.869 0 3.385-1.516 3.385-3.384" transform="translate(36 3.287)"/><path d="m0 0c0-1.869-1.516-3.384-3.384-3.384-1.868 0-3.385 1.515-3.385 3.384 0 1.868 1.517 3.384 3.385 3.384 1.868 0 3.384-1.516 3.384-3.384" transform="translate(37 28.1)"/></g><path d="m0 0c0-1.869-2.778-3.384-6.204-3.384-3.426 0-7.332 4.512-7.332 5.64 0 1.128 3.906 1.128 7.332 1.128 3.426 0 6.204-1.515 6.204-3.384" fill="#ccd6dd" transform="translate(15.567 27.896)"/><path d="m0 0c-.044 1.161-.581 2.451-4.525 2.451-2.804 0-6.768-3.266-6.768-4.513 0-1.246 2.272-2.255 5.076-2.255.321 0 .651.031.983.083-.283-1.199-.419-2.572-.419-4.03 0-4.672 1.397-6.204 4.512-6.204 3.115 0 4.512 1.532 4.512 6.204 0 4.057-1.056 7.443-3.371 8.266" fill="#66757f" transform="translate(17.837 34.47)"/><path d="m0 0c0-.623-.505-1.128-1.128-1.128-.622 0-1.128.505-1.128 1.128 0 .623.506 1.128 1.128 1.128.623 0 1.128-.505 1.128-1.128" fill="#292f33" transform="translate(3.159 30.872)"/></g></g></svg>