<svg xmlns="http://www.w3.org/2000/svg" viewBox="0 0 47.5 47.5" enable-background="new 0 0 47.5 47.5" xmlns:xlink="http://www.w3.org/1999/xlink"><defs><clipPath id="0"><path d="m0 38h38v-38h-38v38"/></clipPath></defs><g transform="matrix(1.25 0 0-1.25 0 47.5)"><g clip-path="url(#0)"><path d="m0 0c1 1 .25 4-1.437 4-1.688 0-1.563-2-.563-2 1 0 1-2 1-3 0-1 1 1 1 1" fill="#aa8dd8" transform="translate(8.415 33)" id="1"/><use transform="translate(-4.183-1.72)" xlink:href="#1"/><g fill="#744eaa"><path d="m0 0c.189-.808 1.227-2.28 2.032-2.091.806.191 1.077 1.971.888 2.778-.19.807-.998 1.306-1.804 1.117-.805-.191-1.306-.997-1.116-1.804" transform="translate(30.607 4.144)"/><path d="m0 0c.003-.83.681-2.498 1.509-2.495.828.004 1.494 1.677 1.491 2.506-.003.829-.677 1.497-1.505 1.495-.828-.004-1.498-.677-1.495-1.506" transform="translate(25.17 3.495)"/><path d="m0 0c-.326-.764-.365-2.563.396-2.89.762-.324 2.037.948 2.363 1.71.325.762-.029 1.643-.789 1.97-.762.324-1.644-.027-1.97-.79" transform="translate(19.902 5.941)"/></g><path d="m0 0c-.812-.172-2.308-1.173-2.139-1.983.173-.811 1.946-1.124 2.757-.954.811.171 1.329.967 1.16 1.778-.172.809-.966 1.33-1.778 1.159" fill="#744eaa" transform="translate(14.871 16.981)" id="2"/><use transform="translate(-2.037 5)" xlink:href="#2"/><path d="m0 0c2.831 0 4.926.877 5.266 1.027 2.27 1.01 3.293 3.669 2.284 5.94-.999 2.25-3.616 3.275-5.872 2.314-.133-.05-1.793-.648-3.343.073-1.851.861-2.995 3.308-3.628 5.209-.144.429-.385 1.274-.686 2.316-1.866 6.471-2.832 8.285-3.983 9.82-3.711 4.949-9.592 5.294-12.483 4.714-2.437-.488-4.02-2.858-3.531-5.295.489-2.438 2.861-4.02 5.296-3.531.162.026 2.204.306 3.424-1.169.644-1.286 2.08-5.128 2.63-7.03.346-1.199.629-2.171.794-2.667 1.772-5.318 4.666-8.893 8.603-10.629 1.853-.818 3.655-1.089 5.229-1.089" fill="#9266cc" transform="translate(28.24 3)"/><path d="m0 0c0-.552.447-1 1-1 .553 0 1 .448 1 1 0 .552-.447 1-1 1-.553 0-1-.448-1-1" fill="#fff" transform="translate(6.682 32)"/><g fill="#744eaa"><path d="m0 0c-.089 0-.18.012-.269.036-.532.149-.843.699-.696 1.232.757 2.721-.769 4.542-.785 4.559-.359.419-.312 1.051.107 1.41.418.36 1.051.313 1.411-.107.091-.108 2.234-2.66 1.195-6.398-.123-.442-.526-.732-.963-.732" transform="translate(31.923 4.04)"/><path d="m0 0c-.245 0-.49.089-.684.27-.403.377-.423 1.01-.046 1.414 1.485 1.587 1.453 4.193 1.452 4.219-.016.552.419 1.012.971 1.029.542.005 1.013-.419 1.029-.972.004-.139.073-3.437-1.992-5.644-.197-.21-.463-.316-.73-.316" transform="translate(24.724 4.599)"/><path d="m0 0c-.48 0-.904.347-.985.837-.091.544.277 1.059.822 1.149 3.074.51 4.774 2.377 4.792 2.396.365.41.998.449 1.409.084.412-.365.453-.993.091-1.406-.087-.099-2.156-2.415-5.964-3.046-.056-.01-.111-.014-.165-.014" transform="translate(16.182 13.295)"/><path d="m0 0c-.425 0-.819.272-.954.698-.166.527.126 1.089.652 1.255 2.694.853 3.88 2.83 3.892 2.85.28.476.891.636 1.368.356.477-.279.636-.892.356-1.368-.063-.108-1.594-2.663-5.01-3.744-.101-.032-.202-.047-.302-.047" transform="translate(19.1 8.439)"/><path d="m0 0c-.496 0-.927.369-.991.875-.069.547.319 1.048.867 1.117 2.689.341 4.657 1.971 4.676 1.988.422.354 1.053.303 1.408-.119.356-.421.305-1.05-.115-1.407-.096-.082-2.42-2.029-5.718-2.446-.043-.006-.085-.008-.127-.008" transform="translate(14.484 19.11)"/><path d="m0 0c-.425 0-.819.273-.954.701-.165.527.128 1.088.655 1.254 3.13.983 4.253 2.691 4.299 2.764.295.462.911.604 1.375.312.465-.291.611-.899.325-1.366-.06-.097-1.507-2.395-5.4-3.619-.099-.031-.2-.046-.3-.046" transform="translate(12.663 23.875)"/></g></g></g></svg>