<svg xmlns="http://www.w3.org/2000/svg" viewBox="0 0 47.5 47.5" enable-background="new 0 0 47.5 47.5"><defs><clipPath id="0"><path d="m0 38h38v-38h-38v38"/></clipPath></defs><g transform="matrix(1.25 0 0-1.25 0 47.5)"><g clip-path="url(#0)"><path d="m0 0c0-2.209-1.791-4-4-4h-28c-2.209 0-4 1.791-4 4v28c0 2.209 1.791 4 4 4h28c2.209 0 4-1.791 4-4v-28" fill="#3b88c3" transform="translate(37 5)"/><g fill="#fff"><path d="m0 0c0-3.314-2.687-6-6-6-3.314 0-6 2.686-6 6 0 3.314 2.686 6 6 6 3.313 0 6-2.686 6-6" transform="translate(22 26)"/><path d="m0 0c0-2.761-2.239-5-5-5-2.761 0-5 2.239-5 5 0 2.761 2.239 5 5 5 2.761 0 5-2.239 5-5" transform="translate(32.999 24)"/><path d="m0 0c0 2.209-1.791 4-4 4h-11c-2.209 0-4-1.791-4-4l-6 4h-1v-13h1l6 4v-2c0-2.209 1.791-4 4-4h11c2.209 0 4 1.791 4 4v7" transform="translate(31 17)"/></g></g></g></svg>