<svg xmlns="http://www.w3.org/2000/svg" viewBox="0 0 47.5 47.5" enable-background="new 0 0 47.5 47.5"><defs><clipPath id="0"><path d="m0 38h38v-38h-38v38"/></clipPath><clipPath id="1"><path d="m9.254 28.746c-7.164-7.164-10.181-19.18-5.325-24.817 5.632-4.856 17.653-1.839 24.817 5.325 7.164 7.164 11.229 17.09 5.324 24.816-1.886 1.627-4.489 2.371-7.387 2.37-5.752 0-12.665-2.93-17.429-7.694"/></clipPath></defs><g transform="matrix(1.25 0 0-1.25 0 47.5)"><g clip-path="url(#0)"><path d="m0 0c-7.164-7.164-19.19-10.181-24.816-5.324-4.857 5.631-1.84 17.652 5.324 24.816 7.164 7.164 19.18 10.181 24.816 5.324 5.905-7.728 1.84-17.652-5.324-24.816" fill="#3b88c3" transform="translate(28.746 9.254)"/></g><g clip-path="url(#1)"><path d="m0 0c-.334-4.417-9.334-19.17-24.417-24.75-1.167-.5-1.084-2 .833-2.167 1.917-.166 13.5.167 17.5 2.417 4 2.25 10.75 18.917 9 20.25-1.75 1.333 4.416 7.75 3 6.417-1.416-1.334-5.916-2.167-5.916-2.167" fill="#ccd6dd" transform="translate(36.834 29.667)"/><path d="m0 0c7.833 1.917 26.667 10.417 25.25 24.584-.416 1.166-8.151 6.116-21.333-4.75-7.584-6.25-8.779-14.191-8.25-18.917.202-1.813 2.415-1.387 4.333-.917" fill="#e1e8ed" transform="translate(9.08 9.166)"/></g></g></svg>