<svg xmlns="http://www.w3.org/2000/svg" viewBox="0 0 47.5 47.5" enable-background="new 0 0 47.5 47.5"><defs><clipPath id="0"><path d="m0 38h38v-38h-38v38"/></clipPath></defs><g transform="matrix(1.25 0 0-1.25 0 47.5)"><g clip-path="url(#0)"><path d="m0 0c0 0-2.436.167-3.068 1.792-.646 1.659.622 2.309.622 2.309 0 0-1.914-.059-2.622 1.941-.668 1.885.958 2.75.958 2.75 0 0-1.871.307-2.417 2.292-.459 1.671 1.167 2.916 1.167 2.916h-12.208c-.959 0-2.576.542-2.577 2.543-.001 2 1.66 2.457 2.577 2.457h16.5 4c1 0 1 1 0 1h-2.666c-3.792 0-6.143 2.038-6.792 2.751-.651.713-.98 1.667-.735 2.82.415 1.956 1.92 1.53 3.198.975 3.078-1.337 7.463-2.254 9.538-2.533 5.857-.791 10.375-5.809 10.38-11.884.004-6.626-5.297-12.12-11.923-12.13h-3.932" fill="#d99e82" transform="translate(21.14 6)"/></g></g></svg>