<svg xmlns="http://www.w3.org/2000/svg" viewBox="0 0 47.5 47.5" enable-background="new 0 0 47.5 47.5" xmlns:xlink="http://www.w3.org/1999/xlink"><defs><path id="2" d="m0 0c0-.276-.224-.5-.5-.5-.276 0-.5.224-.5.5 0 .276.224.5.5.5.276 0 .5-.224.5-.5" fill="#fff"/><clipPath id="0"><path d="m5 37c-2.209 0-4-1.791-4-4v-28c0-2.209 1.791-4 4-4h28c2.209 0 4 1.791 4 4v28c0 2.209-1.791 4-4 4h-28"/></clipPath><clipPath id="1"><path d="m0 38h38v-38h-38v38"/></clipPath></defs><g transform="matrix(1.25 0 0-1.25 0 47.5)"><g clip-path="url(#0)"><path d="m38 0h-38v38h38v-38" fill="#269"/><g fill="#3f484c"><path d="m0 0v29l4 4h2l4-4v-29h-10" transform="translate(11 1)"/><path d="m0 0c0 1-1.286 1-1.286 1h-6.428c0 0-1.286.001-1.286-1v-25h9v25" transform="translate(34 26)"/></g><g fill="#292f33"><path d="m0 0c0 1-1 1-1 1h-8c-1 0-1-1-1-1v-17h10v17" transform="translate(29 18)"/><path d="m0 0c0 0 0 1-1 1h-5v-23h6v22" transform="translate(7 23)"/><path d="m0 0c0 0 0 1-1 1h-6c0 0-1 .001-1-1v-14h8v14" transform="translate(13 15)"/><path d="m0 0c0 0 0 1 1 1h4v-11h-5v10" transform="translate(32 11)"/></g></g><g fill="#ffcc4d"><path d="m11 4h-2v2h2v-2"/><path d="m11 12h-2v2h2v-2"/><path d="m9 8h-2v2h2v-2"/><path d="m19 26h-2v2h2v-2"/><path d="m19 22h-2v2h2v-2"/><path d="m17 18h-2v2h2v-2"/><path d="m27 15h-2v2h2v-2"/><path d="m25 11h-2v2h2v-2"/><path d="m23 5h-2v2h2v-2"/><path d="m32 23h-2v2h2v-2"/><path d="m32 19h-2v2h2v-2"/></g><g clip-path="url(#1)"><path d="m0 0c-1.381 0-2.5 1.119-2.5 2.5 0 1.13.755 2.074 1.784 2.383-.251.069-.511.117-.784.117-1.657 0-3-1.343-3-3 0-1.657 1.343-3 3-3 .959 0 1.803.458 2.353 1.159-.268-.097-.552-.159-.853-.159" fill="#fff" transform="translate(7.5 30)"/><use transform="translate(12 34.5)" xlink:href="#2"/><use transform="translate(9 25.5)" xlink:href="#2"/><path d="m0 0c0-.552-.447-1-1-1-.553 0-1 .448-1 1 0 .552.447 1 1 1 .553 0 1-.448 1-1" fill="#fff" transform="translate(24 32)"/><use transform="translate(28 31.5)" xlink:href="#2"/><path d="m0 0c0-.552-.447-1-1-1-.553 0-1 .448-1 1 0 .552.447 1 1 1 .553 0 1-.448 1-1" fill="#fff" transform="translate(33 34)"/><use transform="translate(33 29.5)" xlink:href="#2"/></g></g></svg>