<svg xmlns="http://www.w3.org/2000/svg" viewBox="0 0 47.5 47.5" enable-background="new 0 0 47.5 47.5" xmlns:xlink="http://www.w3.org/1999/xlink"><defs><clipPath id="0"><path d="m0 38h38v-38h-38v38"/></clipPath></defs><g transform="matrix(1.25 0 0-1.25 0 47.5)"><g clip-path="url(#0)"><path d="m0 0c0-2.209-1.791-4-4-4h-28c-2.209 0-4 1.791-4 4v3c0 2.209 1.791 4 4 4h28c2.209 0 4-1.791 4-4v-3" fill="#dd2e44" transform="translate(37 12)"/><path d="m0 0l-.979 1h-10.875c-3.146 0-4.146-2-4.146-2l-3-5.959v-5.04h19v12" fill="#ffcc4d" transform="translate(20 26)"/><path d="m0 0h-7l2 4c0 0 1 2 3 2h2v-6" fill="#55acee" transform="translate(10 19)"/><path d="m0 0c0-2.209-1.791-4-4-4-2.209 0-4 1.791-4 4 0 2.209 1.791 4 4 4 2.209 0 4-1.791 4-4" fill="#292f33" transform="translate(14 8)" id="1"/><path d="m0 0c0-1.104-.896-2-2-2-1.104 0-2 .896-2 2 0 1.104.896 2 2 2 1.104 0 2-.896 2-2" fill="#ccd6dd" transform="translate(12 8)"/><use transform="translate(18)" xlink:href="#1"/><g fill="#ccd6dd"><path d="m0 0c-1.104 0-2-.896-2-2 0-1.104.896-2 2-2 1.104 0 2 .896 2 2 0 1.104-.896 2-2 2" transform="translate(28 10)"/><path d="m0 0h-15c-2.209 0-4-1.791-4-4v-13h23v13c0 2.209-1.791 4-4 4" transform="translate(33 31)"/></g></g></g></svg>