<svg xmlns="http://www.w3.org/2000/svg" viewBox="0 0 47.5 47.5" enable-background="new 0 0 47.5 47.5"><defs><clipPath id="0"><path d="m0 38h38v-38h-38v38"/></clipPath></defs><g transform="matrix(1.25 0 0-1.25 0 47.5)"><g clip-path="url(#0)"><g fill="#3b88c3"><path d="m 0,0 c 0,1 1.523,6.212 3.047,7.735 1.522,1.524 0,3.166 -1.524,3.166 C -1.882,10.901 -7.615,4 -7.615,0 c 0,-5 5.733,-10.424 9.138,-10.424 1.524,0 3.046,1.404 1.524,2.928 C 1.523,-5.974 0,-2 0,0" transform="translate(33.15 13)"/><path d="M 0,0 C 0,3.046 1.497,6.093 3.02,6.093 7.589,6.093 16.342,1.27 17.865,-6.347 19.389,-13.962 0,0 0,0" transform="translate(10.02 22.616)"/><path d="m 0,0 c 1.523,-1.523 4.57,-3.047 7.617,-3.047 3.046,0 -3.111,4.19 -1.524,6.092 C 8.274,5.662 0,0 0,0" transform="translate(14.876 4.338)"/></g><path d="m0 0c.761 2.285.19 3.935-1.143 5.584-1.333 1.651 3.872 1.904 5.585-.381 1.714-2.285 5.713-6.281 2.159-6.22-3.555.065-6.601 1.017-6.601 1.017" transform="translate(3.071 8.273)"/><path d="m0 0c.959-.874 7.223-4.309 7.165-5.137-.058-.828-2.279.088-3.105.28-1.485.341-1.905.597-2.317.526-.84-.321-.554-1.201-.242-1.704 1.498-2.611 7.286-4.662 12.16-4.662 8.412 0 16.802 7.615 16.802 10.662 0 3.046-9.344 10.663-17.756 10.663-8.393 0-12.696-6.06-12.707-10.628" fill="#55acee" transform="translate(1.169 13.512)"/><path d="m0 0c1.104 0 2-.894 2-2 0-1.104-.896-2-2-2-1.105 0-2 .896-2 2 0 1.106.895 2 2 2" transform="translate(8 20)"/><path d="m0 0c-.156 0-.314.036-.462.113-.49.256-.679.861-.423 1.35 1.585 3.034 2.218 5.767.154 9.243-.282.475-.125 1.088.349 1.371.475.282 1.089.124 1.371-.349 2.693-4.536 1.46-8.203-.102-11.191-.178-.342-.526-.537-.887-.537" fill="#269" transform="translate(16.08 7.02)"/></g></g></svg>