<svg xmlns="http://www.w3.org/2000/svg" viewBox="0 0 47.5 47.5" enable-background="new 0 0 47.5 47.5"><defs><clipPath id="0"><path d="m0 38h38v-38h-38v38"/></clipPath></defs><g transform="matrix(1.25 0 0-1.25 0 47.5)"><g clip-path="url(#0)"><path d="m0 0c0-9.389-7.611-17-17-17-9.389 0-17 7.611-17 17 0 9.389 7.611 17 17 17 9.389 0 17-7.611 17-17" fill="#ffcc4d" transform="translate(36 19)"/><g fill="#664500"><path d="m0 0c-.175.142-.426.147-.61.014-.012-.01-1.261-.902-3.702-.902-2.441 0-3.691.892-3.701.9-.182.137-.434.133-.611-.009-.178-.142-.238-.386-.146-.594.06-.135 1.5-3.297 4.458-3.297 2.958 0 4.397 3.162 4.457 3.297.091.207.032.449-.145.591" transform="translate(29.31 21.388)"/><path d="m0 0c-.012-.009-1.26-.902-3.702-.902-2.441 0-3.69.893-3.7.9-.183.137-.434.133-.612-.009-.178-.142-.237-.386-.145-.594.06-.135 1.5-3.297 4.457-3.297 2.958 0 4.397 3.162 4.457 3.297.092.207.032.449-.145.591-.176.143-.428.147-.61.014" transform="translate(16.702 21.402)"/><path d="m0 0c-.305 0-.605.138-.801.4-2.592 3.456-6.961 2.628-7 2.62-.547-.108-1.068.243-1.177.784-.108.541.244 1.068.785 1.176.23.048 5.657 1.072 8.996-3.38.332-.442.242-1.069-.2-1.4-.18-.135-.39-.2-.599-.2" transform="translate(30 24)"/><path d="m0 0c-.208 0-.419.065-.599.2-.442.331-.531.958-.2 1.4 3.34 4.454 8.766 3.426 8.996 3.38.542-.108.893-.635.784-1.176-.108-.54-.634-.891-1.173-.785-.187.034-4.437.807-7.01-2.619-.197-.262-.497-.4-.801-.4" transform="translate(7.999 24)"/><path d="m0 0c-.187.111-.432.086-.597-.06-.009-.007-1.013-.863-4.657-.863-3.641 0-4.645.854-4.646.854-.16.16-.405.19-.601.082-.195-.112-.293-.339-.238-.557.011-.044 1.145-4.379 5.485-4.379 4.34 0 5.474 4.335 5.485 4.379.053.213-.044.431-.231.544" transform="translate(24.25 13.423)"/></g></g></g></svg>