<svg xmlns="http://www.w3.org/2000/svg" viewBox="0 0 47.5 47.5" enable-background="new 0 0 47.5 47.5"><defs><clipPath id="0"><path d="m0 38h38v-38h-38v38"/></clipPath></defs><g transform="matrix(1.25 0 0-1.25 0 47.5)"><g clip-path="url(#0)"><path d="m0 0c-.314 0-.628.12-.868.359l-30.641 30.641c-.48.48-.48 1.257 0 1.737.479.479 1.257.479 1.736 0l30.641-30.641c.48-.48.48-1.257 0-1.737-.24-.239-.554-.359-.868-.359" fill="#d99e82" transform="translate(34.875 1.773)"/><path d="m0 0c0-3.729-3.02-6.752-6.752-6.752-3.729 0-6.752 3.02-6.752 6.752 0 3.729 3.02 6.752 6.752 6.752 3.729 0 6.752-3.02 6.752-6.752" fill="#fcb1e3" transform="translate(16.254 28.373)"/><path d="m0 0c0-3.729-3.02-6.752-6.752-6.752-3.73 0-6.753 3.02-6.753 6.752 0 3.729 3.02 6.752 6.753 6.752 3.729 0 6.752-3.02 6.752-6.752" fill="#ffd983" transform="translate(23.621 21.01)"/><path d="m0 0c0-3.729-3.02-6.753-6.753-6.753-3.728 0-6.752 3.02-6.752 6.753 0 3.729 3.02 6.752 6.752 6.752 3.729 0 6.753-3.02 6.753-6.752" fill="#a6d388" transform="translate(30.987 13.641)"/><path d="m0 0c-.314 0-.628.12-.868.359l-7.52 7.52c-.479.479-.479 1.257 0 1.736.481.479 1.256.479 1.737 0l7.519-7.519c.48-.48.48-1.257 0-1.737-.24-.239-.554-.359-.868-.359" fill="#d99e82" transform="translate(34.875 1.773)"/></g></g></svg>