<svg xmlns="http://www.w3.org/2000/svg" viewBox="0 0 47.5 47.5" enable-background="new 0 0 47.5 47.5"><defs><clipPath id="0"><path d="m0 38h38v-38h-38v38"/></clipPath></defs><g transform="matrix(1.25 0 0-1.25 0 47.5)"><g clip-path="url(#0)"><path d="m0 0c0 0-2 0-2-2v-12c0-2 2-2 2-2h6l8-8c0 0 1-1 2-1h1c0 0 1 0 1 1v32c0 0 0 1-1 1h-1c-1 0-2-1-2-1l-8-8h-6" fill="#8899a6" transform="translate(3 27)"/><path d="m0 0l8-8c0 0 1-1 2-1h1c0 0 1 0 1 1v32c0 0 0 1-1 1h-1c-1 0-2-1-2-1l-8-8v-16" fill="#ccd6dd" transform="translate(9 11)"/><path d="m0 0c-.289 0-.576.124-.773.365-.351.427-.289 1.057.137 1.407 1.861 1.529 2.927 3.784 2.927 6.187 0 2.435-1.089 4.708-2.988 6.236-.431.347-.498.976-.153 1.406.348.429.977.499 1.407.152 2.373-1.91 3.734-4.751 3.734-7.794 0-3-1.333-5.822-3.657-7.731-.186-.154-.411-.228-.634-.228" fill="#8899a6" transform="translate(24.709 11.04)"/></g></g></svg>