<svg xmlns="http://www.w3.org/2000/svg" viewBox="0 0 47.5 47.5" enable-background="new 0 0 47.5 47.5"><defs><clipPath id="0"><path d="m0 38h38v-38h-38v38"/></clipPath></defs><g transform="matrix(1.25 0 0-1.25 0 47.5)"><g clip-path="url(#0)"><path d="m0 0c0-2.209-1.791-4-4-4h-20c-2.209 0-4 1.791-4 4v28c0 2.209 1.791 4 4 4h20c2.209 0 4-1.791 4-4v-28" fill="#e6e7e8" transform="translate(33 5)"/><path d="m0 0v-6.163c.728.087 1.435.179 2.119.265 1.326.178 2.286.286 2.879.332.048.11.103.232.168.363.199.641.463 1.645.798 3.02.264 1.084.393 1.769.393 2.057 0 .353-.338.529-1.024.529-1.041 0-2.696-.121-4.973-.363-.129 0-.253-.013-.36-.035m-7.259-6.69c1.812.085 3.545.195 5.203.327v6.132c-1.702-.199-3.347-.464-4.937-.796-.31-.111-.596-.187-.862-.232 0-.264.022-.53.066-.793.266-2.01.442-3.56.53-4.638m-3.346 7.221c.53 0 .995-.078 1.391-.233.244-.066.453-.143.63-.231.795.044 1.612.121 2.453.231 1.104.134 2.463.298 4.075.498v2.319c0 1.613-.188 2.948-.563 4.01-.155.332-.233.551-.233.662 0 .331.133.497.398.497.706 0 1.36-.089 1.954-.266.687-.198 1.028-.453 1.028-.761 0-.111-.042-.342-.133-.696-.265-.685-.395-1.955-.395-3.811v-1.722c1.299.132 2.723.276 4.271.43.706.045 1.38.166 2.02.366.463.088.739.132.83.132.264 0 .837-.222 1.72-.663.928-.552 1.393-.984 1.393-1.293 0-.242-.12-.486-.362-.729-.819-.881-1.408-1.81-1.759-2.783l-.798-1.691c-.13-.329-.276-.584-.425-.76.042-.021.086-.046.128-.067.507-.311.76-.586.76-.828 0-.199-.182-.31-.559-.332-1.7 0-3.237-.088-4.607-.266l-2.614-.196-.034-4.443c0-2.01-.069-3.62-.198-4.838-.134-1.368-.334-2.34-.598-2.914-.243-.486-.443-.731-.596-.731-.09 0-.232.266-.431.798-.133.617-.199 1.687-.199 3.214v8.749l-1.789-.167c-1.194-.112-2.111-.168-2.75-.168-.266 0-.488.024-.664.069-.044-.2-.11-.376-.198-.533-.132-.287-.276-.43-.432-.43-.197 0-.385.154-.562.465-.287.438-.442.892-.464 1.358l-.397 2.584c-.155 1.348-.332 2.286-.531 2.818-.111.551-.409 1.081-.894 1.59-.177.11-.266.187-.266.231 0 .354.133.531.398.531" fill="#be1931" transform="translate(20 24.578)"/></g></g></svg>