<svg xmlns="http://www.w3.org/2000/svg" viewBox="0 0 47.5 47.5" enable-background="new 0 0 47.5 47.5"><defs><clipPath id="0"><path d="m0 38h38v-38h-38v38"/></clipPath></defs><g transform="matrix(1.25 0 0-1.25 0 47.5)"><g clip-path="url(#0)"><path d="m0 0c.003-.998-.811-1.821-1.818-1.814-1.01.006-1.791.839-1.75 1.836.04.975.853 1.742 1.817 1.735.964-.006 1.748-.783 1.751-1.757" fill="#939598" transform="translate(19.16 35.14)"/><g fill="#d1d3d4"><path d="m0 0c2.792-16.195 3.02-17.58-14.316-17.469l-3.355.021c-15.1.096-17.337.165-14.301 17.651 1.296 7.463 7.682 11.266 14.752 11.221l2.477-.015c7.07-.045 13.453-3.93 14.743-11.409" transform="translate(34.838 22.483)"/><path d="m0 0c.03-.999-.763-1.821-1.77-1.814-1.01.006-1.813.838-1.798 1.837.014.974.806 1.741 1.77 1.735.964-.006 1.769-.784 1.798-1.758" transform="translate(21.304 35.12)"/></g><path d="m0 0c2.995-17.382 3.239-18.865-14.778-18.75l-3.488.022c-15.692.1-18.02.162-14.762 18.938 1.379 7.942 7.97 11.972 15.244 11.925l2.55-.016c7.275-.046 13.862-4.159 15.234-12.12" fill="#ea596e" transform="translate(35.36 19.781)"/><g fill="#dd2e44"><path d="M 0,0 C 0,0 -6.717,-7.718 -4.981,-9.651 -3.172,-11.668 0,0 0,0" transform="translate(17.14 31.02)"/><path d="M 0,0 C 0,0 6.603,-7.803 4.839,-9.714 3.001,-11.707 0,0 0,0" transform="translate(19.404 31.01)"/></g></g></g></svg>