<svg xmlns="http://www.w3.org/2000/svg" viewBox="0 0 47.5 47.5" enable-background="new 0 0 47.5 47.5"><defs><clipPath id="0"><path d="m0 38h38v-38h-38v38"/></clipPath></defs><g transform="matrix(1.25 0 0-1.25 0 47.5)"><g clip-path="url(#0)"><path d="m0 0c0 2.565.753 4.95 2.036 6.964l17.929-17.929c-2.02-1.282-4.4-2.035-6.965-2.035-7.179 0-13 5.82-13 13m26 0c0-2.565-.753-4.95-2.035-6.965l-17.929 17.929c2.01 1.283 4.399 2.036 6.964 2.036 7.18 0 13-5.821 13-13m-13 18c-9.941 0-18-8.06-18-18 0-9.941 8.06-18 18-18 9.941 0 18 8.06 18 18 0 9.941-8.06 18-18 18" fill="#dd2e44" transform="translate(6 19)"/></g></g></svg>