<svg xmlns="http://www.w3.org/2000/svg" viewBox="0 0 47.5 47.5" enable-background="new 0 0 47.5 47.5"><defs><clipPath id="0"><path d="m0 38h38v-38h-38v38"/></clipPath></defs><g transform="matrix(1.25 0 0-1.25 0 47.5)"><path d="m15 17h-3v9h3v-9" fill="#ccd6dd"/><g clip-path="url(#0)"><path d="m0 0c0-2.675-1.646-4.843-3.675-4.843h-15.616c-2.029 0-3.488 1.565-3.257 3.494l.624 5.242c.231 1.929 1.992 3.807 3.928 4.199l14.629 3.21c1.863.442 3.367-1.364 3.367-4.04v-7.265" fill="#77b255" transform="translate(25 10.843)"/><path d="m0 0c-.295-2.116 1.256-3.833 3.465-3.833h9c2.209 0 4 1.717 4 3.833v15.333c0 2.118-1.453 3.834-3.245 3.834h-7.303c-1.792 0-3.484-1.716-3.779-3.834l-2.138-15.333" fill="#292f33" transform="translate(17.535 12.833)"/><path d="m0 0c-.135-1.104.65-2 1.755-2h9c1.104 0 2 .896 2 2v14c0 1.104-.743 2-1.66 2h-7.473c-.917 0-1.77-.896-1.906-2l-1.716-14" fill="#bbddf5" transform="translate(19.245 12)"/><path d="m34 16h-18v-10h18v10" fill="#77b255"/><path d="m0 0h-31l1 2h30v-2" fill="#ffcc4d" transform="translate(34 14)"/><path d="m0 0c0-2.209-1.791-4-4-4-2.209 0-4 1.791-4 4 0 2.209 1.791 4 4 4 2.209 0 4-1.791 4-4" fill="#292f33" transform="translate(13 6)"/><path d="m0 0c0-1.104-.896-2-2-2-1.104 0-2 .896-2 2 0 1.104.896 2 2 2 1.104 0 2-.896 2-2" fill="#ffcc4d" transform="translate(11 6)"/><path d="m0 0v-4l-10-9-7 1 3 10 3 2h11" fill="#77b255" transform="translate(34 21)"/><path d="m0 0c0 4.91 3.979 8.889 8.889 8.889 4.91 0 8.889-3.979 8.889-8.889 0-4.91-3.979-8.889-8.889-8.889-4.91 0-8.889 3.979-8.889 8.889" fill="#292f33" transform="translate(19.222 10.889)"/><path d="m0 0c0-3.068-2.487-5.556-5.556-5.556-3.068 0-5.555 2.488-5.555 5.556 0 3.068 2.487 5.556 5.555 5.556 3.069 0 5.556-2.488 5.556-5.556" fill="#ffcc4d" transform="translate(33.667 10.889)"/><path d="m0 0c0-1.841-1.492-3.333-3.333-3.333-1.842 0-3.334 1.492-3.334 3.333 0 1.842 1.492 3.334 3.334 3.334 1.841 0 3.333-1.492 3.333-3.334" fill="#ffe8b6" transform="translate(31.444 10.889)"/><path d="m0 0c-.552 1.187-1.606 2-2.833 2h-7.303c-1.226 0-2.394-.813-3.112-2h13.248" fill="#77b255" transform="translate(33.588 30)"/><g fill="#f4900c"><path d="m0 0c0-1.227-.995-2.222-2.222-2.222-1.227 0-2.222.995-2.222 2.222 0 1.228.995 2.223 2.222 2.223 1.227 0 2.222-.995 2.222-2.223" transform="translate(30.333 10.889)"/><path d="m0 0c0-.553-.448-1-1-1-.552 0-1 .447-1 1 0 .553.448 1 1 1 .552 0 1-.447 1-1" transform="translate(10 6)"/></g><path d="m15 22h-3v2h3v-2" fill="#66757f"/><path d="m0 0c-.094 0-.19.013-.285.041-.529.157-.831.714-.674 1.243l2 6.75c.379 1.92 2.146 5.716 5.959 5.716h10c.552 0 1-.448 1-1 0-.552-.448-1-1-1h-10c-3.144 0-4.01-4.154-4.02-4.196l-2.02-6.838c-.128-.435-.527-.716-.958-.716" fill="#5c913b" transform="translate(17 8.25)"/><path d="m0 0c-.042 0-.083.003-.125.008-.548.068-.937.568-.869 1.116l1 8c.069.549.569.936 1.117.868.547-.068.936-.568.868-1.116l-1-8c-.063-.506-.494-.876-.991-.876" fill="#3e721d" transform="translate(3 8)"/></g></g></svg>