<svg xmlns="http://www.w3.org/2000/svg" viewBox="0 0 47.5 47.5" enable-background="new 0 0 47.5 47.5"><defs><clipPath id="0"><path d="m0 38h38v-38h-38v38"/></clipPath></defs><g transform="matrix(1.25 0 0-1.25 0 47.5)"><g clip-path="url(#0)"><path d="m0 0c-3 0-11-2-11-4 0-2 1-7 2-9 1-2 8 0 9 1 1 1 2 12 0 12" fill="#3b88c3" transform="translate(12 35)"/><path d="m0 0c-.648-.371-1-.849-1-1.283 0-2 1-7 2-9 .281-.563 1.039-.778 2-.85-1 2.85-2 6.85-3 11.133" fill="#55acee" transform="translate(2 32.28)"/><path d="m0 0c3 0 11-2 11-4 0-2-1-7-2-9-1-2-8 0-9 1-1 1-2 12 0 12" fill="#3b88c3" transform="translate(26 35)"/><path d="m0 0c.648-.371 1-.849 1-1.283 0-2-1-7-2-9-.281-.563-1.039-.778-2-.85 1 2.85 2 6.85 3 11.133" fill="#55acee" transform="translate(36 32.28)"/><path d="m0 0h-1.068c-.417-1.695-2.911-3-5.932-3-3.02 0-5.515 1.305-5.932 3h-1.068c-2.209 0-5-1.791-5-4 0 0 0-20-1-24-1-4 1.791-4 4-4h18c2.209 0 5 0 4 4-1 4-1 24-1 24 0 2.209-2.791 4-5 4" fill="#3b88c3" transform="translate(26 35)"/><path d="m0 0c3.866 0 7 2.239 7 5h-1.068c-.417-1.695-2.911-3-5.932-3-3.02 0-5.515 1.305-5.932 3h-1.068c0-2.761 3.134-5 7-5" fill="#55acee" transform="translate(19 30)"/></g></g></svg>