<svg xmlns="http://www.w3.org/2000/svg" viewBox="0 0 47.5 47.5" enable-background="new 0 0 47.5 47.5"><defs><clipPath id="0"><path d="m0 38h38v-38h-38v38"/></clipPath></defs><g transform="matrix(1.25 0 0-1.25 0 47.5)"><g clip-path="url(#0)"><path d="m0 0c0 0-4 0-4 4v28c0 0 0 4 4 4h14c0 0 4 0 4-4v-28c0 0 0-4-4-4h-14" fill="#292f33" transform="translate(19 1)"/><g fill="#55acee"><path d="m17 6h18v26h-18v-26"/><path d="m0 0c0 0 1-1 1-2 0-1-1-2-1-2l-5-5c-1-1-3-1-3 1v3h-3c0 0-2 0-2 2v2c0 2 2 2 2 2h3v3c0 2 2 2 3 1l5-5" transform="translate(14 21)"/></g></g></g></svg>