<svg xmlns="http://www.w3.org/2000/svg" viewBox="0 0 47.5 47.5" enable-background="new 0 0 47.5 47.5" xmlns:xlink="http://www.w3.org/1999/xlink"><defs><clipPath id="0"><path d="m0 38h38v-38h-38v38"/></clipPath></defs><g transform="matrix(1.25 0 0-1.25 0 47.5)"><path d="m37 3h-36v-2h36v2" fill="#939598"/><path d="m36 5h-29v5h29v-5" fill="#231f20"/><g clip-path="url(#0)"><g fill="#58595b"><path d="m0 0c0 1.656 1.343 3 3 3 1.657 0 3-1.344 3-3 0-1.656-1.343-3-3-3-1.657 0-3 1.344-3 3" transform="translate(4.999 5)"/><path d="m0 0c0 1.657 1.343 3 3 3 1.657 0 3-1.343 3-3 0-1.657-1.343-3-3-3-1.657 0-3 1.343-3 3" transform="translate(10.999 5)"/></g><g fill="#a0041e"><path d="m0 0c0 .829.672 1.5 1.5 1.5.828 0 1.5-.671 1.5-1.5 0-.829-.672-1.5-1.5-1.5-.828 0-1.5.671-1.5 1.5" transform="translate(6.499 5)"/><path d="m0 0c0 .83.671 1.5 1.5 1.5.829 0 1.5-.67 1.5-1.5 0-.83-.671-1.5-1.5-1.5-.829 0-1.5.67-1.5 1.5" transform="translate(12.499 5)"/></g><path d="m0 0h-4c-1 0-1.5.5 0 2l4 4c1 1 2 2 2 0v-4c0-2-.001-2-2-2" fill="#dd2e44" transform="translate(6 4)"/><path d="m0 0c0-3.313-1.343-6-3-6-1.657 0-3 2.687-3 6 0 3.314 1.343 6 3 6 1.657 0 3-2.686 3-6" fill="#231f20" transform="translate(9 17)"/><path d="m0 0h-4l-2 8h8l-2-8" fill="#6d6e71" transform="translate(12 22)"/><path d="m0 0c0-1.104-.896-2-2-2h-18c-1.104 0-2 .896-2 2v10c0 1.104.896 2 2 2h18c1.104 0 2-.896 2-2v-10" fill="#414042" transform="translate(27 12)"/><g fill="#c1694f"><path d="m0 0c0-.553-.448-1-1-1-.552 0-1 .447-1 1v13c0 .552.448 1 1 1 .552 0 1-.448 1-1v-13" transform="translate(14 11)"/><path d="m0 0c0-.553-.447-1-1-1-.553 0-1 .447-1 1v13c0 .552.447 1 1 1 .553 0 1-.448 1-1v-13" transform="translate(20 11)"/></g><path d="m0 0c0-.553-.447-1-1-1h-28c-.552 0-1 .447-1 1 0 .553.448 1 1 1h28c.553 0 1-.447 1-1" fill="#808285" transform="translate(37 11)"/><path d="m0 0c0 2.209 1.791 4 4 4 2.209 0 4-1.791 4-4 0-2.209-1.791-4-4-4-2.209 0-4 1.791-4 4" fill="#58595b" transform="translate(26.999 6)" id="1"/><use transform="translate(-8)" xlink:href="#1"/><path d="m0 0c0 1.104.896 2 2 2 1.104 0 2-.896 2-2 0-1.104-.896-2-2-2-1.104 0-2 .896-2 2" fill="#a0041e" transform="translate(28.999 6)" id="2"/><use transform="translate(-8)" xlink:href="#2"/><path d="m0 0h-6c-.552 0-1-.448-1-1v-3h8v3c0 .552-.448 1-1 1" fill="#414042" transform="translate(13 34)"/><path d="m36 30h-12v-18h12v18" fill="#be1931"/><path d="m0 0c0-.552-.447-1-1-1h-12c-.553 0-1 .448-1 1 0 .552.447 1 1 1h12c.553 0 1-.448 1-1" fill="#a0041e" transform="translate(37 31)"/><path d="m34 14h-8v5h8v-5" fill="#ea596e"/><path d="m0 0h-8c-.127 0-.253.024-.371.071l-4.822 1.929h-6.807c-.552 0-1 .447-1 1 0 .553.448 1 1 1h7c.127 0 .253-.024.371-.071l4.821-1.929h7.808c.553 0 1-.447 1-1 0-.553-.447-1-1-1" fill="#f4900c" transform="translate(31 5)"/><path d="m0 0c0 .552-.447 1-1 1h-6c-.553 0-1-.448-1-1v-5c0-.552.447-1 1-1h6c.553 0 1 .448 1 1v5" fill="#55acee" transform="translate(34 27)"/></g></g></svg>