<svg xmlns="http://www.w3.org/2000/svg" viewBox="0 0 47.5 47.5" enable-background="new 0 0 47.5 47.5"><defs><clipPath id="0"><path d="m0 38h38v-38h-38v38"/></clipPath></defs><g transform="matrix(1.25 0 0-1.25 0 47.5)"><g clip-path="url(#0)"><path d="m0 0c0 4 4 4 4 4h28c0 0 4 0 4-4v-28c0 0 0-4-4-4h-28c0 0-4 0-4 4v28" fill="#3b88c3" transform="translate(1 33)"/><g fill="#fff"><path d="m33 29h-4v-20h4v20"/><path d="m27 25h-4v-16h4v16"/><path d="m21 21h-4v-12h4v12"/><path d="m15 17h-4v-8h4v8"/><path d="m9 13h-4v-4h4v4"/></g></g></g></svg>