<svg xmlns="http://www.w3.org/2000/svg" viewBox="0 0 47.5 47.5" enable-background="new 0 0 47.5 47.5"><defs><clipPath id="0"><path d="m0 38h38v-38h-38v38"/></clipPath></defs><g transform="matrix(1.25 0 0-1.25 0 47.5)"><g clip-path="url(#0)"><path d="m0 0l1 1c0 0 1 1 2 0l2-2c0 0 1-1 0-2l-1-1-4 4" fill="#66757f" transform="translate(24 20)"/><path d="m0 0c1.166-1.166 1.166-3.076 0-4.242l-2.758-2.758c-1.166-1.166-3.076-1.166-4.242 0l-18.758 18.758c-1.166 1.166-1.166 3.075 0 4.242l2.758 2.758c1.167 1.166 3.076 1.166 4.242 0l18.758-18.758" fill="#8899a6" transform="translate(35.879 9.121)"/><path d="m0 0c1.166-1.167 1.166-3.076 0-4.242l-5.758-5.758c-1.166-1.166-3.075-1.166-4.242 0l-4.879 4.879c0 0-1 1 0 2l8 8c1 1 2 0 2 0l4.879-4.879" fill="#66757f" transform="translate(21.879 26.12)"/><path d="m0 0l10 10 2-2-10-10-2 2" fill="#8899a6" transform="translate(8 20)"/><g fill="#ffcc4d"><path d="m0 0c-.367 0-.72.202-.896.553l-2 4c-.247.494-.046 1.094.448 1.342.494.248 1.094.046 1.342-.448l2-4c.247-.494.046-1.094-.448-1.342-.143-.071-.296-.105-.446-.105" transform="translate(12 31)"/><path d="m0 0c-.15 0-.303.034-.446.105l-4 2c-.494.248-.695.848-.448 1.342.248.494.847.695 1.342.448l4-2c.494-.248.695-.848.448-1.342-.176-.351-.529-.553-.896-.553" transform="translate(5.999 25)"/><path d="m0 0c-.256 0-.512.098-.707.293l-4 4c-.391.391-.391 1.023 0 1.414.391.391 1.023.391 1.414 0l4-4c.391-.391.391-1.023 0-1.414-.195-.195-.451-.293-.707-.293" transform="translate(9 28)"/></g></g></g></svg>