<svg xmlns="http://www.w3.org/2000/svg" viewBox="0 0 47.5 47.5" enable-background="new 0 0 47.5 47.5"><defs><clipPath id="0"><path d="m0 38h38v-38h-38v38"/></clipPath><clipPath id="1"><path d="m3 16c0 0-2 0-2-2v-5c0-2 2-2 2-2h29c0 0 2 0 2 2v5c0 2-2 2-2 2h-29"/></clipPath></defs><g transform="matrix(1.25 0 0-1.25 0 47.5)"><g clip-path="url(#0)"><path d="m0 0c0-2-2-2-2-2h-29c0 0-2 0-2 2v5c0 2 2 2 2 2h29c0 0 2 0 2-2v-5" fill="#d99e82" transform="translate(34 9)"/></g><g clip-path="url(#1)"><path d="m26 1h-13v20h13v-20" fill="#e1e8ed"/><path d="m36 3h-10v16h10v-16" fill="#66757f"/></g><g clip-path="url(#0)"><path d="m0 0c-.488 0-.916.358-.988.855-.03.2-.655 4.925 4.474 8 2.498 1.499 3.064 4.246 2.533 6.164-.248.896-1.136 2.979-4.02 2.979-3.142 0-3.916-1.845-4.104-2.638-.282-1.197.138-2.261.551-2.467.717-.359 1.45-.383 1.959-.068.389.24.594.646.594 1.173 0 .552.447 1 1 1 .553 0 1-.448 1-1 0-1.221-.563-2.269-1.542-2.874-1.106-.683-2.566-.689-3.905-.021-1.385.693-2.075 2.721-1.603 4.717.617 2.616 2.879 4.178 6.05 4.178 2.908 0 5.186-1.703 5.945-4.445.889-3.208-.522-6.667-3.43-8.412-4-2.4-3.531-5.963-3.526-5.998.08-.547-.299-1.055-.844-1.134-.049-.008-.098-.011-.146-.011" fill="#ccd6dd" transform="translate(28.994 17)"/></g></g></svg>