<svg xmlns="http://www.w3.org/2000/svg" viewBox="0 0 47.5 47.5" enable-background="new 0 0 47.5 47.5"><defs><clipPath id="0"><path d="m0 38h38v-38h-38v38"/></clipPath></defs><g transform="matrix(1.25 0 0-1.25 0 47.5)"><g clip-path="url(#0)"><path d="m0 0c-2 0-2-2-2-2v-20c0 0 0-2 2-2h32c2 0 2 2 2 2v20c0 0 0 2-2 2h-32" fill="#fdd888" transform="translate(3 32)"/><path d="m24 7.938h-10v24.06h10v-24.06" fill="#9aaab4"/><path d="m0 0h-2.375c-.397 0-.709.189-.709.57 0 .383.312.574.709.574h1.664l-2.772 4.28c-.173.259-.26.449-.26.691 0 .33.33.573.607.573.278 0 .554-.122.797-.485l3.101-4.662 3.102 4.662c.243.363.52.485.798.485.276 0 .605-.243.605-.573 0-.242-.086-.432-.26-.691l-2.772-4.28h1.663c.399 0 .711-.191.711-.574 0-.381-.312-.57-.711-.57h-2.373v-1.229h2.373c.399 0 .711-.193.711-.574 0-.381-.312-.571-.711-.571h-2.373v-2.668c0-.502-.312-.815-.763-.815-.45 0-.762.313-.762.815v2.668h-2.375c-.397 0-.709.19-.709.571 0 .381.312.574.709.574h2.375v1.229" fill="#67757f" transform="translate(6.743 19.857)"/></g></g></svg>