<svg xmlns="http://www.w3.org/2000/svg" viewBox="0 0 47.5 47.5" enable-background="new 0 0 47.5 47.5" xmlns:xlink="http://www.w3.org/1999/xlink"><defs><clipPath id="0"><path d="m0 38h38v-38h-38v38"/></clipPath></defs><g transform="matrix(1.25 0 0-1.25 0 47.5)"><g clip-path="url(#0)"><path d="m0 0c0-1.104-.896-2-2-2h-24c-1.104 0-2 .896-2 2v27c0 1.104.896 2 2 2h24c1.104 0 2-.896 2-2v-27" fill="#c1694f" transform="translate(33 3)"/><path d="m0 0c0-.553-.447-1-1-1h-20c-.552 0-1 .447-1 1v23c0 .552.448 1 1 1h20c.553 0 1-.448 1-1v-23" fill="#fff" transform="translate(30 5)"/><path d="m0 0h-4c0 1.657-1.343 3-3 3-1.657 0-3-1.343-3-3h-4c-1.104 0-2-.896-2-2v-5h18v5c0 1.104-.896 2-2 2" fill="#ccd6dd" transform="translate(26 34)"/><path d="m0 0c0-1.104-.896-2-2-2-1.104 0-2 .896-2 2 0 1.104.896 2 2 2 1.104 0 2-.896 2-2" fill="#292f33" transform="translate(21 34)"/><g fill="#99aab5"><path d="m0 0c0-.552-.447-1-1-1h-9c-.552 0-1 .448-1 1 0 .552.448 1 1 1h9c.553 0 1-.448 1-1" transform="translate(21 23)"/><path d="m0 0c0-.552-.447-1-1-1h-16c-.552 0-1 .448-1 1 0 .552.448 1 1 1h16c.553 0 1-.448 1-1" transform="translate(28 19)"/></g><path d="m0 0c0-.553-.447-1-1-1h-16c-.552 0-1 .447-1 1 0 .553.448 1 1 1h16c.553 0 1-.447 1-1" fill="#99aab5" transform="translate(28 15)" id="1"/><use transform="translate(0-4)" xlink:href="#1"/><path d="m0 0c0-.553-.447-1-1-1h-9c-.552 0-1 .447-1 1 0 .553.448 1 1 1h9c.553 0 1-.447 1-1" fill="#99aab5" transform="translate(28 7)"/></g></g></svg>