<svg xmlns="http://www.w3.org/2000/svg" viewBox="0 0 47.5 47.5" enable-background="new 0 0 47.5 47.5"><defs><clipPath id="0"><path d="m0 38h38v-38h-38v38"/></clipPath></defs><g transform="matrix(1.25 0 0-1.25 0 47.5)"><g clip-path="url(#0)"><path d="m0 0l-5.844 5.844c.846 1.017.804 2.525-.15 3.479-1.01 1.01-2.65 1.01-3.662 0-.621-.621-.856-1.479-.715-2.282-.804.141-1.661-.095-2.282-.716-1.01-1.01-1.01-2.651 0-3.662.954-.954 2.462-.996 3.479-.149l5.844-5.844 3.33 3.33" fill="#ffd983" transform="translate(15.02 26.632)"/><path d="m0 0c1.665 1.665 5.874 8.81.046 14.636-4.059 4.058-7.328 3.826-13.416 5.335-2.497.832-5.752 3.832-6.584 4.665-.833-.833-.542-3.874-.542-3.874 0 0-3.626-.294-4.458-1.126.832-.833 4.699-4.49 5.375-6.207 1.821-5.775 1.613-8.711 5.671-12.77 6.66-6.659 12.244-2.323 13.908-.659" fill="#c1694f" transform="translate(33.954 4.364)"/></g></g></svg>