<svg xmlns="http://www.w3.org/2000/svg" viewBox="0 0 47.5 47.5" enable-background="new 0 0 47.5 47.5"><defs><clipPath id="0"><path d="m0 38h38v-38h-38v38"/></clipPath></defs><g transform="matrix(1.25 0 0-1.25 0 47.5)"><g clip-path="url(#0)"><path d="m0 0c0 1 .771 2.327.771 2.635 0 .656-1.553.422-1.626 1.047-.209 1.794 1.886 3.318-1.746 3.312-1.352-.002-.274 1.768-.274 2.725 0 .957-2.596.145-3.552.145-.957 0-.957 2.87-1.913 2.87-2.87 0-3.827-2.87-4.783-2.87-.957 0-1.744 3.62-2.87 2.87-2.87-1.913-3.826-7.653-3.826-7.653 0 0 4.783 3.826 10.522 2.87 5.345-.891 4.79-10.821 5.641-16.889l-6.86-13.718h3.36c.344 1.5 1.939.529 2.375 1.687.381 1.016-.67 1.966-.094 2.969.576 1 .978.755 2.094 1.375 1.183.657 0 2.199 0 3.156 0 .956 2.312 1.574 2.312 2.531 0 .63-1.068 1.292-.811 2.357.257 1.064 1.586 1.185 1.749 2.184.137.846-.921 1.455-.796 2.392.125.938 1.174 1.379 1.174 2.097 0 .719-.847 1-.847 1.908" fill="#3e721d" transform="translate(36.13 23.656)"/><path d="m0 0c0 4.04-2.87 9.09-9.566 9.09-6.696 0-17.265-10.02-20.09-10.1-1.914 1.947-4.784-.055-4.784-2.02 0-3.03 5.374-4.61 5.646-4.898 1.088-1.15 3.92-8.08 8.704-1.946.802 1.031 1.301.422 3.483-.542 7.237-3.856-1.832-12.13-1.832-12.13h9.566c4.782 4.783 8.871 13.843 8.871 21.997 0 0-.016-.006-.021-.008.006.184.021.369.021.553" fill="#77b255" transform="translate(35.438 23.543)"/><path d="m0 0c0-1.056-.856-1.913-1.913-1.913-1.057 0-1.913.857-1.913 1.913 0 1.057.856 1.914 1.913 1.914 1.057 0 1.913-.857 1.913-1.914" fill="#292f33" transform="translate(24.915 24.91)"/><path d="m0 0c0-.793-.643-.479-1.435-.479-.793 0-1.435-.314-1.435.479 0 .792.642 1.435 1.435 1.435.792 0 1.435-.643 1.435-1.435" fill="#3e721d" transform="translate(5.783 19.649)"/><g fill="#fff"><path d="m0 0c0-1.058-.643-.956-1.436-.956-.792 0-1.434-.102-1.434.956 0 1.056.642 3.826 1.434 3.826.793 0 1.436-2.77 1.436-3.826" transform="translate(19.18 18.218)"/><path d="m0 0c0-1.058-.643-.957-1.435-.957-.793 0-1.435-.101-1.435.957 0 1.056.642 3.826 1.435 3.826.792 0 1.435-2.77 1.435-3.826" transform="translate(15.349 17.262)"/></g><g fill="#3e721d"><path d="m0 0c-5.076-.726-10.192-2.01-12.394-2.59.275-.29.661-.95 1.162-1.674 2.414.624 6.975 1.724 11.503 2.369.523.075.886.561.812 1.083-.075.524-.562.888-1.083.812" transform="translate(19.04 18.205)"/><path d="m0 0c-.258 0-.515.098-.709.295-.389.391-.389 1.021.001 1.41.129.129 3.222 3.163 8.36 3.163.553 0 1-.448 1-1 0-.553-.447-1-1-1-4.281 0-6.923-2.554-6.949-2.58-.194-.192-.449-.288-.703-.288" transform="translate(19.589 24.391)"/></g></g></g></svg>