<svg xmlns="http://www.w3.org/2000/svg" viewBox="0 0 47.5 47.5" enable-background="new 0 0 47.5 47.5"><defs><clipPath id="0"><path d="m0 38h38v-38h-38v38"/></clipPath></defs><g transform="matrix(1.25 0 0-1.25 0 47.5)"><g clip-path="url(#0)"><path d="m0 0c-.449.317-1.018.173-1.263-.319l-2.594-5.21c-.246-.492-.696-.521-1-.064l-4.889 7.309c-.306.457-.806.457-1.112 0l-4.888-7.309c-.306-.457-.756-.428-1 .064l-2.593 5.21c-.245.492-.814.636-1.263.319 0 0-7.698-5.424-7.698-17.424 0-7.732 8.06-16 18-16 9.942 0 18 8.268 18 16 0 12-7.697 17.424-7.697 17.424" fill="#dd2e44" transform="translate(29.3 34.424)"/><path d="m0 0c0-1.104-.896-2-2-2h-24c-1.104 0-2 .896-2 2v7c0 1.104.896 2 2 2h24c1.104 0 2-.896 2-2v-7" fill="#f5f8fa" transform="translate(33 14)"/></g></g></svg>