<svg xmlns="http://www.w3.org/2000/svg" viewBox="0 0 47.5 47.5" enable-background="new 0 0 47.5 47.5"><defs><clipPath id="0"><path d="m0 38h38v-38h-38v38"/></clipPath></defs><g transform="matrix(1.25 0 0-1.25 0 47.5)"><g clip-path="url(#0)"><path d="m0 0c-.553 0-1 .447-1 1v6c0 6.07-4.04 11-9 11-4.962 0-9-4.935-9-11v-6c0-.553-.448-1-1-1-.552 0-1 .447-1 1v6c0 7.168 4.935 13 11 13 6.06 0 11-5.832 11-13v-6c0-.553-.447-1-1-1" fill="#ffac33" transform="translate(29 15)"/><path d="m0 0c-.26 2.185-2.271 3.972-4.472 3.972h-21.828c-2.2 0-4.212-1.787-4.471-3.972l-2.143-18.06c-.26-2.185 1.328-3.972 3.528-3.972h28c2.2 0 3.788 1.787 3.529 3.972l-2.143 18.06" fill="#9266cc" transform="translate(34.386 24.03)"/><path d="m0 0c-.553 0-1 .447-1 1v6c0 6.07-4.04 11-9 11-4.962 0-9-4.935-9-11v-6c0-.553-.448-1-1-1-.552 0-1 .447-1 1v6c0 7.168 4.935 13 11 13 6.06 0 11-5.832 11-13v-6c0-.553-.447-1-1-1" fill="#ffd983" transform="translate(29 17)"/></g></g></svg>