<svg xmlns="http://www.w3.org/2000/svg" viewBox="0 0 47.5 47.5" enable-background="new 0 0 47.5 47.5"><defs><clipPath id="0"><path d="m0 38h38v-38h-38v38"/></clipPath></defs><g transform="matrix(1.25 0 0-1.25 0 47.5)"><g clip-path="url(#0)"><path d="m0 0c-1.528-1.528-4.01-1.528-5.536 0l-13.841 13.843c-1.53 1.528-1.53 4.01-.001 5.535l13.842 13.842c1.529 1.53 4.01 1.53 5.536 0l13.843-13.842c1.528-1.528 1.528-4.01 0-5.535l-13.843-13.843" fill="#ffcc4d" transform="translate(21.768 2.39)"/><path d="m0 0c-.823-.822-2.158-.822-2.98 0l-13.416 13.417c-.824.823-.824 2.158 0 2.98l13.416 13.416c.822.824 2.157.824 2.98 0l13.417-13.416c.822-.822.822-2.157 0-2.98l-13.417-13.417" transform="translate(20.49 4.093)"/><path d="m0 0c-.412-.413-1.079-.413-1.49 0l-11.926 11.925c-.411.411-.412 1.078 0 1.49l11.926 11.926c.411.411 1.078.411 1.49 0l11.925-11.926c.413-.412.412-1.079 0-1.49l-11.925-11.925" fill="#ffcc4d" transform="translate(19.745 6.33)"/><path d="m0 0l-3.618 3.619c.548.356.911.972.911 1.674 0 1.104-.896 2-2 2-1.105 0-2-.896-2-2 0-.703.363-1.318.911-1.674l-3.218-3.219-2.216.555c.322.355.523.821.523 1.338 0 1.104-.896 2-2 2-1.105 0-2-.896-2-2 0-.669.332-1.259.837-1.622l-3.438-2.579c-.442-.331-.531-.958-.199-1.399.196-.263.496-.401.8-.401.209 0 .42.066.6.201l1.735 1.301-1.395-4.185c-.175-.525.108-1.091.632-1.265.105-.035.212-.052.317-.052.419 0 .809.265.948.684l1.077 3.231 1.142-3.247c.183-.52.753-.797 1.276-.611.521.184.794.754.611 1.276l-1.891 5.374 2.705-.677c.341-.086.701.014.95.263l1.857 1.858-1.541-6.934c-.119-.539.221-1.073.76-1.193.541-.116 1.074.221 1.194.76l1.023 4.607 1.023-4.607c.104-.466.518-.784.976-.784.072 0 .145.008.218.024.539.12.879.654.76 1.193l-1.541 6.934 1.857-1.857c.391-.391 1.023-.391 1.414 0 .391.391.391 1.023 0 1.414" transform="translate(27.707 19.708)"/></g></g></svg>