<svg xmlns="http://www.w3.org/2000/svg" viewBox="0 0 47.5 47.5" enable-background="new 0 0 47.5 47.5"><defs><clipPath id="0"><path d="m0 38h38v-38h-38v38"/></clipPath></defs><g transform="matrix(1.25 0 0-1.25 0 47.5)"><g clip-path="url(#0)"><path d="m0 0c0-9.906-8.03-17.937-17.937-17.937-9.907 0-17.938 8.03-17.938 17.937 0 9.907 8.03 17.937 17.938 17.937 9.906 0 17.937-8.03 17.937-17.937" fill="#9aaab4" transform="translate(37 18.938)"/><path d="m0 0c0-7.732-6.268-14-14-14-7.732 0-14 6.268-14 14 0 7.732 6.268 14 14 14 7.732 0 14-6.268 14-14" fill="#e1e8ed" transform="translate(33 19)"/><g fill="#67757f"><path d="m0 0c-.552 0-1 .447-1 1v12c0 .552.448 1 1 1 .553 0 1-.448 1-1v-12c0-.553-.447-1-1-1" transform="translate(19 6)"/><path d="m0 0c-.15 0-.303.034-.446.105-.494.248-.695.848-.448 1.342l4 8c.248.494.848.694 1.342.448.494-.248.695-.848.448-1.342l-4-8c-.176-.351-.529-.553-.896-.553" transform="translate(18.999 18)"/></g></g></g></svg>