<svg xmlns="http://www.w3.org/2000/svg" viewBox="0 0 47.5 47.5" enable-background="new 0 0 47.5 47.5"><defs><clipPath id="0"><path d="m0 38h38v-38h-38v38"/></clipPath></defs><g transform="matrix(1.25 0 0-1.25 0 47.5)"><g clip-path="url(#0)"><path d="m0 0c0-9.389-7.611-17-17-17-9.389 0-17 7.611-17 17 0 9.389 7.611 17 17 17 9.389 0 17-7.611 17-17" fill="#ffcc4d" transform="translate(36 19)"/><path d="m0 0c.24-.239 1.437-.958 1.677-1.675.24-.717.72-4.784 2.158-5.981 1.484-1.233 7.08-.774 8.149-.24 2.397 1.195 2.691 4.531 3.115 6.221.239.957 1.677.957 1.677.957 0 0 1.439 0 1.678-.956.424-1.691.72-5.03 3.115-6.221 1.073-.535 6.666-.994 8.152.239 1.435 1.197 1.915 5.264 2.155 5.982.238.717 1.437 1.435 1.677 1.674.241.239.241 1.196 0 1.436-.479.478-6.134.904-12.223.239-1.215-.133-1.677-.479-4.554-.479-2.875 0-3.339.346-4.553.478-6.087.666-11.744.24-12.223-.238-.239-.24-.239-1.197 0-1.436" fill="#292f33" fill-rule="evenodd" transform="translate(2.24 25.982)"/><path d="m0 0c-.178.161-.444.171-.635.029-.039-.029-3.922-2.9-8.7-2.9-4.766 0-8.662 2.871-8.7 2.9-.191.142-.457.13-.635-.029-.177-.16-.217-.424-.094-.628.129-.215 3.217-5.243 9.429-5.243 6.212 0 9.301 5.03 9.429 5.243.123.205.084.468-.094.628" fill="#664500" transform="translate(28.335 13.371)"/></g></g></svg>