<svg xmlns="http://www.w3.org/2000/svg" viewBox="0 0 47.5 47.5" enable-background="new 0 0 47.5 47.5"><defs><clipPath id="0"><path d="m0 38h38v-38h-38v38"/></clipPath></defs><g transform="matrix(1.25 0 0-1.25 0 47.5)"><g clip-path="url(#0)"><path d="m0 0c0-9.389-13.223-19-17-19-3.778 0-17 9.611-17 19 0 9.389 7.611 17 17 17 9.389 0 17-7.611 17-17" fill="#ccd6dd" transform="translate(36 20)"/><g fill="#292f33"><path d="m0 0c3.124-3.124 4.39-6.923 2.828-8.485-1.561-1.562-5.361-.297-8.485 2.828-3.125 3.124-4.391 6.923-2.828 8.485 1.562 1.562 5.361.297 8.485-2.828" transform="translate(14.503 22.15)"/><path d="m0 0c-3.124-3.124-4.39-6.923-2.828-8.485 1.561-1.563 5.361-.297 8.485 2.828 3.125 3.125 4.391 6.923 2.828 8.485-1.562 1.562-5.361.297-8.485-2.828" transform="translate(23.497 22.16)"/><path d="m0 0c-2.347 0-3.575 1.16-3.707 1.293-.391.391-.391 1.023 0 1.414.387.387 1.013.391 1.404.01.052-.047.806-.717 2.303-.717 1.519 0 2.273.689 2.305.719.398.374 1.027.363 1.408-.03.379-.392.38-1.01-.006-1.396-.132-.133-1.36-1.293-3.707-1.293" transform="translate(19 6)"/></g></g></g></svg>