<svg xmlns="http://www.w3.org/2000/svg" viewBox="0 0 47.5 47.5" enable-background="new 0 0 47.5 47.5"><defs><clipPath id="0"><path d="m0 38h38v-38h-38v38"/></clipPath></defs><g transform="matrix(1.25 0 0-1.25 0 47.5)"><g clip-path="url(#0)"><path d="m0 0c0 0-.513-.062-1.032-2.126-.518-2.059-.953-6.518-.954-9.07-.001-.662 1.03-1.064 1.03-1.064l33.02-.023c0 0 1.031.437 1.032 1.064.001 1.333-.249 2.565-.249 3.287 0 1.064-1.747 2.855-2.778 2.855-1.032.001-7.162-1.038-10.382 1.314-1.189.868-5.156 5.321-7.216 6.387-2.064 1.065-2.15-3.693-6.277-3.691-4.126.004-4.126 1.066-6.189 1.068" fill="#66757f" transform="translate(3.79 16.957)"/><g fill="#292f33"><path d="m0 0c-.002-.88.106-1.595-1.032-1.594 0 0-7.328-.265-13.518-.26-6.192.003-5.574 1.867-7.117 1.867-1.031.001-1.031-1.592-1.031-1.594l-11.348.007c-.77 0-1.032.715-1.032 1.595 0 .882-.107 1.597 1.033 1.597l33.02-.023c1.137.003 1.031-.714 1.03-1.595" transform="translate(36.879 3.078)"/><path d="m0 0l-.603 1.758c2.655.911 3.562 2.649 3.6 2.723l1.667-.819c-.049-.1-1.242-2.487-4.664-3.662" transform="translate(14.489 13.383)"/><path d="m0 0l-.604 1.758c2.655.911 3.562 2.648 3.599 2.721l1.667-.819c-.049-.1-1.242-2.484-4.662-3.66" transform="translate(17.583 10.19)"/></g></g></g></svg>