<svg xmlns="http://www.w3.org/2000/svg" viewBox="0 0 47.5 47.5" enable-background="new 0 0 47.5 47.5" xmlns:xlink="http://www.w3.org/1999/xlink"><defs><clipPath id="0"><path d="m0 38h38v-38h-38v38"/></clipPath></defs><g transform="matrix(1.25 0 0-1.25 0 47.5)"><g clip-path="url(#0)"><path d="m0 0c0-9.389-7.611-17-17-17-9.388 0-17 7.611-17 17 0 9.388 7.612 17 17 17 9.389 0 17-7.612 17-17" fill="#ffcc4d" transform="translate(36 19)"/><path d="m0 0c0-1.934-1.119-3.5-2.5-3.5-1.381 0-2.5 1.566-2.5 3.5 0 1.933 1.119 3.5 2.5 3.5 1.381 0 2.5-1.567 2.5-3.5" fill="#664500" transform="translate(15 20.464)" id="1"/><use transform="translate(13)" xlink:href="#1"/><path d="m0 0c0-3.964 4.596-9 11-9 6.404 0 11 5 11 9 0 0-10.333-2.756-22 0" fill="#664500" transform="translate(8 13.964)"/><path d="m0 0v-6.083c0-3 2-6 6-6 4 0 6 3 6 6v6.04c-6.291-1.292-12 .041-12 .041" fill="#e75a70" transform="translate(13 12.08)"/></g></g></svg>