<svg xmlns="http://www.w3.org/2000/svg" viewBox="0 0 47.5 47.5" enable-background="new 0 0 47.5 47.5"><defs><clipPath id="0"><path d="m0 38h38v-38h-38v38"/></clipPath></defs><g transform="matrix(1.25 0 0-1.25 0 47.5)"><g clip-path="url(#0)"><g fill="#67757f"><path d="m0 0c0 4.719-8.7 4.411-8.7 7.261 0 1.379 1.32 2.052 2.85 2.052 2.574 0 3.03-1.654 4.198-1.654.824 0 1.222.522 1.222 1.104 0 1.352-2.052 2.378-4.02 2.732v1.307c0 .815-.659 1.476-1.474 1.476-.817 0-1.477-.661-1.477-1.476v-1.353c-2.147-.489-3.992-1.977-3.992-4.404 0-4.532 8.699-4.349 8.699-7.532 0-1.103-1.194-2.207-3.155-2.207-2.941 0-3.921 1.992-5.115 1.992-.582 0-1.103-.49-1.103-1.231 0-1.17 1.965-2.581 4.667-2.975 0-.002-.001-.006-.001-.01v-1.473c0-.818.661-1.479 1.477-1.479.815 0 1.476.661 1.476 1.479v1.473c0 .018-.009.031-.009.047 2.431.453 4.458 2.039 4.458 4.871" transform="translate(16.07 22.722)"/><path d="m0 0h-4.104c-.688 0-1.227.327-1.227.985 0 .661.539.991 1.227.991h2.875l-4.792 7.399c-.297.448-.449.775-.449 1.194 0 .571.571.991 1.049.991.481 0 .958-.21 1.378-.839l5.36-8.06 5.363 8.06c.419.629.897.839 1.378.839.477 0 1.046-.42 1.046-.991 0-.419-.149-.746-.449-1.194l-4.792-7.399h2.875c.69 0 1.229-.33 1.229-.991 0-.658-.539-.985-1.229-.985h-4.101v-2.126h4.101c.69 0 1.229-.332 1.229-.99 0-.658-.539-.988-1.229-.988h-4.101v-4.611c0-.868-.539-1.41-1.32-1.41-.778 0-1.317.542-1.317 1.41v4.611h-4.104c-.688 0-1.227.33-1.227.988 0 .658.539.99 1.227.99h4.104v2.126" transform="translate(24.897 11.124)"/></g><g fill="#9aaab4"><path d="m0 0l-6.875 4.125 4.125-6.875-4.125-4.125h11v11l-4.125-4.125" transform="translate(24.875 30.875)"/><path d="m0 0l6.875-4.125-4.125 6.875 4.125 4.125h-11v-11l4.125 4.125" transform="translate(10.125 7.125)"/></g></g></g></svg>