<svg xmlns="http://www.w3.org/2000/svg" viewBox="0 0 47.5 47.5" enable-background="new 0 0 47.5 47.5" xmlns:xlink="http://www.w3.org/1999/xlink"><defs><clipPath id="0"><path d="m0 38h38v-38h-38v38"/></clipPath></defs><g transform="matrix(1.25 0 0-1.25 0 47.5)"><g clip-path="url(#0)"><g fill="#aa8ed6"><path d="m0 0c0-9.941-8.06-18-18-18-9.941 0-18 8.06-18 18 0 9.941 8.06 18 18 18 9.941 0 18-8.06 18-18" transform="translate(37 19)"/><path d="m0 0c-2.58 0-5.631 2.466-6.586 3.414-.571.572-1.433.744-2.179.434-.748-.31-1.235-1.039-1.235-1.848 0-3.459 1.672-10 8-10 .757 0 1.45.428 1.789 1.105l2 4c.31.621.277 1.357-.088 1.946-.364.59-1.01.949-1.701.949" transform="translate(11 33)"/><path d="m0 0c-.75.311-1.607.139-2.18-.434-.885-.885-3.997-3.414-6.586-3.414-.693 0-1.337-.359-1.701-.948-.364-.59-.397-1.326-.088-1.946l2-4c.339-.677 1.032-1.106 1.789-1.106 6.329 0 8 6.541 8 10 0 .809-.487 1.538-1.234 1.848" transform="translate(35.766 36.848)"/></g><g fill="#553986"><path d="m0 0c-.301 0-.606.068-.893.211l-6 3c-.988.495-1.388 1.696-.895 2.684.495.988 1.696 1.389 2.684.895l6-3c.988-.495 1.388-1.696.895-2.684-.351-.701-1.058-1.106-1.791-1.106" transform="translate(15.999 19)"/><path d="m0 0h-6c-1.104 0-2 .896-2 2 0 1.104.896 2 2 2h6c1.104 0 2-.896 2-2 0-1.104-.896-2-2-2" transform="translate(22 7)"/><path d="m0 0c-.734 0-1.44.405-1.791 1.106-.494.988-.094 2.189.895 2.684l6 3c.989.496 2.19.091 2.683-.895.494-.988.094-2.189-.894-2.684l-6-3c-.288-.143-.593-.211-.893-.211" transform="translate(22 19)"/></g><path d="m0 0c0 0 0 2 2 2 2 0 2-2 2-2v-2c0 0 0-2-2-2-2 0-2 2-2 2v2" fill="#553986" transform="translate(21 19)" id="1"/><use transform="translate(-8)" xlink:href="#1"/></g></g></svg>