<svg xmlns="http://www.w3.org/2000/svg" viewBox="0 0 47.5 47.5" enable-background="new 0 0 47.5 47.5"><defs><clipPath id="0"><path d="m0 38h38v-38h-38v38"/></clipPath></defs><g transform="matrix(1.25 0 0-1.25 0 47.5)"><g clip-path="url(#0)"><path d="m0 0c4.418-7.652 1.99-17.326-5.424-21.606-7.414-4.281-16.505-2.414-20.924 5.241-4.999 8.659-2.49 18.19 4.924 22.471 7.414 4.281 17.924-.044 21.424-6.106" fill="#a6d388" transform="translate(32.924 26.02)"/><path d="m0 0c3-1 6-4 8-7 .836-1.254.729.078-.294 2.348-3.686 5.884-13.929 9.977-21.21 5.776-3.01-1.738-5.194-4.349-6.413-7.408.721.813 1.433 1.284 1.913 1.284 1 0-1.896-3.279 1-11 3-8 3-4 3-4 0 0-2 9-1 12 1 3 2 5 3 4 1-1 5-9 7-14 2.259-5.647 2 1-1 8-2.841 6.628-3 8-2 8 1 0 3.465-1.464 7-5 2-2 3-5 4-6 1-1 1 1 0 4-.707 2.121-3 6-6 8-2.496 1.664 0 2 3 1" fill="#77b255" transform="translate(25 31)"/><path d="m0 0c-.479-.276-1.091-.112-1.367.366-1.105 1.914-1.26 4.303-1.266 4.404-.033.55.387 1.022.937 1.058.551.033 1.025-.386 1.06-.936.001-.021.137-2.028 1-3.526.277-.478.114-1.09-.365-1.366" fill="#5c913b" transform="translate(12.934 30.642)"/><g fill="#77b255"><path d="m0 0c-.961.533-1.727 1.977-2.409 3.226-.682 1.249.277 1.276.887.159.681-1.249 1.204-1.613 1.886-2.862.681-1.249.193-.832-.364-.523" transform="translate(12.961 6.467)"/><path d="m0 0c-.874 2.059-.812 3.057-1.686 5.114-.874 2.059-.749 4.055.124 1.997.875-2.058 1.749-4.118 1.687-5.115-.063-.999-.125-1.996-.125-1.996" transform="translate(22.504 6.094)"/><path d="m0 0c1-3 0-2 1-5 1-3 1-5 1 0 0 3.162-1 6-2 7-1.581 1.581 0-2 0-2" transform="translate(28 18)"/></g></g></g></svg>