<svg xmlns="http://www.w3.org/2000/svg" viewBox="0 0 47.5 47.5" enable-background="new 0 0 47.5 47.5" xmlns:xlink="http://www.w3.org/1999/xlink"><defs><clipPath id="0"><path d="m0 38h38v-38h-38v38"/></clipPath></defs><g transform="matrix(1.25 0 0-1.25 0 47.5)"><g clip-path="url(#0)"><path d="m0 0c-8.284 0-15-6.716-15-15v-9h3v9c0 7 5.269 12.187 12 12.187 6.73 0 12-5.187 12-12.187v-10l3 1v9c0 8.284-6.716 15-15 15" fill="#66757f" transform="translate(19 37)"/><path d="m0 0c0-1.104-.896-2-2-2h-2c-1.104 0-2 .896-2 2v9c0 1.104.896 2 2 2h2c1.104 0 2-.896 2-2v-9" fill="#292f33" transform="translate(7 10)" id="1"/><use transform="translate(30)" xlink:href="#1"/><g fill="#55acee"><path d="m0 0l-6.364-1.313c-.449-.093-.818-.544-.818-1v-1.702-2.131-12.351c-.637.226-1.34.36-2.087.36-2.785 0-5.04-1.755-5.04-3.922 0-2.165 2.258-3.827 5.04-3.827 2.737 0 5.01 1.905 5.087 3.905v15.61l4.204.872c.45.093.796.545.796 1v3.831c0 .459-.368.76-.818.667" transform="translate(20.18 26.984)"/><path d="m0 0l-4.297-.865c-.45-.093-.885-.544-.885-1v-.897-1.433-9.07c0 .152-.878.24-1.4.24-2.024 0-3.633-1.276-3.633-2.851 0-1.574 1.658-2.852 3.683-2.852 2.025 0 3.677 1.278 3.677 2.852 0 .421-.117.816-.327 1.176v10.06l3.182.651c.45.092.818.543.818 1v2.331c0 .459-.368.759-.818.667" transform="translate(28.18 23.833)"/></g></g></g></svg>