<svg xmlns="http://www.w3.org/2000/svg" viewBox="0 0 47.5 47.5" enable-background="new 0 0 47.5 47.5"><defs><clipPath id="0"><path d="m0 38h38v-38h-38v38"/></clipPath></defs><g transform="matrix(1.25 0 0-1.25 0 47.5)"><g clip-path="url(#0)"><path d="m0 0c0 0 0-2-2-2-2 0-2 2-2 2v32c0 0 0 2 2 2 2 0 2-2 2-2v-32" fill="#66757f" transform="translate(14 3)"/><path d="m0 0c0 2.2 1.636 3.25 3.636 2.333l16.727-7.666c2-.917 2-2.417 0-3.334l-16.727-7.666c-2-.917-3.636.133-3.636 2.333v14" fill="#dd2e44" transform="translate(12 33)"/></g></g></svg>