<svg xmlns="http://www.w3.org/2000/svg" viewBox="0 0 47.5 47.5" enable-background="new 0 0 47.5 47.5"><defs><clipPath id="0"><path d="m0 38h38v-38h-38v38"/></clipPath></defs><g transform="matrix(1.25 0 0-1.25 0 47.5)"><g clip-path="url(#0)"><path d="m0 0c0-2.209-1.791-4-4-4h-28c-2.209 0-4 1.791-4 4v28c0 2.209 1.791 4 4 4h28c2.209 0 4-1.791 4-4v-28" fill="#dd2e44" transform="translate(37 5)"/><path d="m24.272 26.721h-5.097v-2.834h5.097v2.834m-10.712-4.55c-.468 0-.728.312-.728.858 0 .52.26.858.728.858h3.795v2.834h-2.963c-.468 0-.728.338-.728.884 0 .52.26.832.728.832h2.963v1.898c0 .442.339.702.885.702.572 0 .936-.26.936-.702v-1.898h5.096v1.898c0 .442.364.676.911.676.571 0 .909-.234.909-.676v-1.898h3.458c.469 0 .728-.312.728-.832 0-.546-.259-.884-.728-.884h-3.458v-2.834h4.316c.468 0 .728-.312.728-.858 0-.52-.26-.858-.728-.858h-7.852v-2.21h5.226c1.534 0 2.21-.676 2.21-2.055v-8.294c0-1.716-.78-2.391-2.652-2.391-.78 0-1.586.051-2.314.181-.39.078-.702.416-.702.884 0 .078 0 .156.027.235.103.519.466.753.805.753.052 0 .104 0 .156-.026.65-.155 1.3-.208 1.794-.208.858 0 1.066.208 1.066.962v7.644c0 .521-.26.651-.806.651h-4.81v-6.37h1.248c.468 0 .675.155.675.649v3.563c0 .441.365.702.859.702.442 0 .91-.261.91-.702v-3.979c0-1.351-.572-1.872-1.897-1.872h-5.279c-1.326 0-1.898.521-1.898 1.872v3.979c0 .441.442.702.884.702.494 0 .884-.261.884-.702v-3.563c0-.494.208-.649.676-.649h1.117v6.37h-4.445c-.52 0-.78-.13-.78-.651v-10.01c0-.547-.39-.807-.989-.807-.545 0-.936.26-.936.807v10.269c0 1.379.677 2.055 2.211 2.055h4.939v2.21h-7.175m-.573 4.94c0-.234-.077-.468-.234-.65-.208-.234-.493-.338-.753-.338-.287 0-.572.104-.78.312-.885.858-1.925 1.716-3.02 2.444-.234.156-.364.442-.364.728 0 .208.078.442.234.624.208.26.494.416.806.416.183 0 .391-.052.572-.182 1.067-.676 2.211-1.586 3.198-2.548.235-.234.338-.52.338-.806m-.675-11.83c0-.131-.026-.234-.052-.364-.755-2.288-1.899-4.94-3.225-7.099-.208-.338-.519-.494-.884-.494-.182 0-.39.052-.598.156-.312.182-.52.495-.52.833 0 .181.052.389.182.572 1.223 1.975 2.418 4.42 3.12 6.708.13.442.469.649.885.649.103 0 .234-.025.338-.052.494-.155.754-.519.754-.909m-.391 6.136c.208-.182.339-.468.339-.754 0-.208-.078-.416-.235-.624-.208-.26-.52-.39-.805-.39-.261 0-.494.078-.677.26-1.014.936-2.34 1.924-3.458 2.6-.233.13-.364.39-.364.702 0 .208.078.416.208.624.208.26.494.39.806.39.182 0 .365-.052.52-.13 1.248-.702 2.549-1.716 3.666-2.678" fill="#fff"/></g></g></svg>