<svg xmlns="http://www.w3.org/2000/svg" viewBox="0 0 47.5 47.5" enable-background="new 0 0 47.5 47.5"><defs><clipPath id="0"><path d="m0 38h38v-38h-38v38"/></clipPath></defs><g transform="matrix(1.25 0 0-1.25 0 47.5)"><g clip-path="url(#0)"><path d="m0 0c0-2.209-1.791-4-4-4h-28c-2.209 0-4 1.791-4 4v9c0 2.209.791 3 3 3h30c2.209 0 3-.791 3-3v-9" fill="#d99e82" transform="translate(37 5)"/><path d="m0 0c0-3.866-3.134-7-7-7-3.866 0-7 3.134-7 7h14" fill="#662113" transform="translate(26 17)"/><path d="m0 0h28c2.209 0 4 1.791 4 4h-36c0-2.209 1.791-4 4-4" fill="#c1694f" transform="translate(5 1)"/><path d="m0 0l-7.863 7.863c-.865.865-2.28.865-3.145 0l-7.863-7.863c-.865-.865-.571-1.489.652-1.489h4.783v-6c0-1.104.896-2 2-2h4c1.105 0 2 .896 2 2v6h4.785c1.222 0 1.515.624.651 1.489" fill="#dd2e44" transform="translate(28.436 28.489)"/></g></g></svg>