<svg xmlns="http://www.w3.org/2000/svg" viewBox="0 0 47.5 47.5" enable-background="new 0 0 47.5 47.5" xmlns:xlink="http://www.w3.org/1999/xlink"><defs><clipPath id="0"><path d="m1 1h36v36h-36v-36"/></clipPath><clipPath id="1"><path d="m0 1h36v36h-36v-36"/></clipPath></defs><g transform="matrix(1.25 0 0-1.25 0 47.5)"><g clip-path="url(#0)"><path d="m0 0c-.333 0-.657-.034-.974-.09-1.172.569-2.482.898-3.872.898-4.907 0-8.884-3.978-8.884-8.885v-7.269h.013c.149-5.223 4.42-9.415 9.679-9.415 5.259 0 9.53 4.192 9.679 9.415h.013v9.692c0 3.123-2.531 5.654-5.654 5.654" fill="#642116" transform="translate(33.538 36.19)"/><path d="m0 0h.808 12.923.808c1.784 0 3.231-1.446 3.231-3.23v-10.962h-4.04-12.923-4.04v10.962c0 1.784 1.446 3.23 3.23 3.23" fill="#9268ca" transform="translate(22.23 15.192)"/><path d="m22 1h1v10h-1v-10" fill="#7450a8"/><g fill="#d79e84"><path d="m0 0c0-1.339 1.084-2.423 2.423-2.423 1.338 0 2.423 1.084 2.423 2.423 0 1.338-1.085 2.423-2.423 2.423-1.339 0-2.423-1.085-2.423-2.423" transform="translate(27.08 14.385)"/><path d="m0 0h4.846v-5.295c0 0-2.423-.808-4.846 0v5.295" transform="translate(27.08 19.231)"/><path d="m0 0v-10h.024c.253-3.89 3.497-6.969 7.476-6.969 3.979 0 7.223 3.079 7.476 6.969h.024v10h-15" transform="translate(22 33)"/></g><path d="m0 0c.25.412.365.673.365.673l-12-1-.577-5.693c5.692 0 9.02 2.305 10.815 4.21.415-1.474 1.563-3.517 4.762-3.517v6l-3.365-.673" fill="#642116" transform="translate(33.635 33.33)"/><path d="m0 0h3.23 3.231c0 0-.808-1.616-3.231-1.616-2.422 0-3.23 1.616-3.23 1.616" fill="#da2f47" transform="translate(26.27 19.231)"/><path d="m0 0h-1c-.276 0-.5.224-.5.5 0 .276.224.5.5.5h1c.276 0 .5-.224.5-.5 0-.276-.224-.5-.5-.5" fill="#bf6952" transform="translate(30 21.5)" id="2"/><path d="m0 0c-.553 0-1 .448-1 1v1c0 .552.447 1 1 1 .553 0 1-.448 1-1v-1c0-.552-.447-1-1-1" fill="#2a3033" transform="translate(26 24)" id="3"/><use transform="translate(7)" xlink:href="#3"/><path d="m0 0c-1.338 0-2.602-.305-3.739-.836-.197.017-.394.03-.594.03-3.944 0-7.14-3.195-7.14-7.139 0-3.123 2.01-5.772 4.805-6.74 1.625-1.858 4.01-3.038 6.668-3.038 4.894 0 8.861 3.968 8.861 8.862 0 4.894-3.967 8.861-8.861 8.861" fill="#292f33" transform="translate(9.334 37)"/><g fill="#d79e84"><path d="m0 0v4.277h-4.834v-4.277h-2.111v-6h9v6h-2.055" transform="translate(10.945 15)"/><path d="m0 0h-5v-5.02c0 0 2.5-.766 5 0v5.02" transform="translate(11 19)"/><path d="m0 0v-10h.024c.253-3.89 3.498-6.969 7.476-6.969 3.978 0 7.223 3.079 7.476 6.969h.024v10h-15" transform="translate(1 33)"/></g><path d="m0 0l-1 6h-2.566c.39.6.566 1 .566 1h-13v-7c6.07 0 9.549 2.576 11.356 4.603.565-1.773 1.897-4.603 4.644-4.603" fill="#292f33" transform="translate(17 27)"/><path d="m0 0h-5l-2.472-3.778-2.528 3.778-6-.062c-1.779 0-1.945-1.131-1.945-2.911v-11.03h4.03 12.889 4.03v11.03c0 1.973-1 2.973-3 2.973" fill="#4289c1" transform="translate(16 15)"/><path d="m16 1h-1.028v10h1.028v-10" fill="#2a6797"/><path d="m0 0h-3.222-3.222c0 0 .805-1.61 3.222-1.61 2.417 0 3.222 1.61 3.222 1.61" fill="#bf6952" transform="translate(11.75 19.277)"/><path d="m0 0c-.552 0-1 .448-1 1v1c0 .552.448 1 1 1 .552 0 1-.448 1-1v-1c0-.552-.448-1-1-1" fill="#2a3033" transform="translate(5 24)" id="4"/><use transform="translate(7)" xlink:href="#4"/><path d="m0 0c0 0-.841 1.662-4.03 1.952.016.028.027.048.027.048-.175 0-.336-.008-.5-.016-.164.008-.325.016-.5.016 0 0 .011-.02.027-.048-3.186-.29-4.03-1.952-4.03-1.952 2.54 0 3.867.805 4.5 1.394.633-.589 1.96-1.394 4.5-1.394" fill="#292f33" transform="translate(13 19)"/><use transform="translate(-21)" xlink:href="#2"/></g><g clip-path="url(#1)"><path d="m0 0c-1.245 0-2.417-.297-3.464-.812-3.33-.07-6.01-2.787-6.01-6.133 0-2.194 1.155-4.114 2.886-5.2 1.402-2.152 3.826-3.578 6.587-3.578 4.342 0 7.861 3.52 7.861 7.862 0 4.341-3.519 7.861-7.861 7.861" fill="#bf6952" transform="translate(19.473 22)"/><g fill="#d79e84"><path d="m0 0v4h-4v-4h-1v-1h6v1h-1" transform="translate(21 2)"/><path d="m0 0h-4v-3c0 0 2-1 4 0v3" transform="translate(21 6)"/><path d="m0 0h-3.557c-1.017.574-2.192.906-3.446.906-1.254 0-2.428-.332-3.446-.906h-3.551v-6h.002c0-.016-.002-.031-.002-.047 0-3.84 3.133-6.953 6.997-6.953 3.864 0 6.997 3.113 6.997 6.953 0 .016-.002.031-.002.047h.008v6" transform="translate(26 17)"/></g><path d="M 0,0 -1,4 -4.729,4.622 C -4.181,5.42 -4,6 -4,6 L -15,5 -15.861,0 c 5.41,0 8.425,1.755 10.065,3.367 C -4.56,1.908 -2.472,0 0,0" fill="#bf6952" transform="translate(27 14)"/><path d="m0 0h-3l-2-4-2 4h-2c-3 0-5-2-5-4v-1h2 14 2v1c0 1.973-2 4-4 4" fill="#e1e8ed" transform="translate(24 3)"/><g fill="#bf6952"><path d="m0 0h-3-3c0 0 .583-2 3-2 2.417 0 3 2 3 2" transform="translate(22 7)"/><path d="m0 0c-.13 0-.26.05-.35.15-.1.09-.15.22-.15.35 0 .13.05.26.15.36.17.17.52.18.71-.009.09-.091.14-.221.14-.351 0-.13-.05-.26-.15-.35-.09-.1-.22-.15-.35-.15" transform="translate(19 7.5)"/></g><path d="m0 0c-.552 0-1 .447-1 1v1c0 .553.448 1 1 1 .552 0 1-.447 1-1v-1c0-.553-.448-1-1-1" fill="#2a3033" transform="translate(16 9)"/><path d="m0 0c-.553 0-1 .447-1 1v1c0 .553.447 1 1 1 .553 0 1-.447 1-1v-1c0-.553-.447-1-1-1" transform="translate(22 9)"/></g></g></svg>