<svg xmlns="http://www.w3.org/2000/svg" viewBox="0 0 47.5 47.5" enable-background="new 0 0 47.5 47.5"><defs><clipPath id="0"><path d="m0 38h38v-38h-38v38"/></clipPath></defs><g transform="matrix(1.25 0 0-1.25 0 47.5)"><g clip-path="url(#0)" fill="#4289c1"><path d="m0 0c1.187 0 2-.786 2-2 0-1.073-.983-2-2-2h-11c-1.496 0-2 .813-2 2 0 .565.632 1.492 1 2l8 12h-7c-1.128 0-2 .843-2 2 0 1.073.929 2 2 2h11c1.639 0 2-1.012 2-2 0-.621-.635-1.52-1-2l-8-12h7" transform="translate(34 18)"/><path d="m0 0c.633 0 1-.353 1-1 0-.573-.458-1-1-1h-6c-.798 0-1 .367-1 1 0 .301.337.729.533 1l4.467 6h-4c-.602 0-1 .384-1 1 0 .573.428 1 1 1h6c.874 0 1-.473 1-1 0-.331-.338-.877-.533-1.133l-4.467-5.867h4" transform="translate(18 13)"/><path d="m0 0c.633 0 1-.353 1-1 0-.573-.458-1-1-1h-6c-.798 0-1 .367-1 1 0 .301.337.729.533 1l4.467 6h-4c-.602 0-1 .384-1 1 0 .572.428 1 1 1h6c.874 0 1-.473 1-1 0-.331-.338-.877-.533-1.133l-4.467-5.867h4" transform="translate(9 6)"/></g></g></svg>