<svg xmlns="http://www.w3.org/2000/svg" viewBox="0 0 47.5 47.5" enable-background="new 0 0 47.5 47.5" xmlns:xlink="http://www.w3.org/1999/xlink"><defs><clipPath id="0"><path d="m0 38h38v-38h-38v38"/></clipPath></defs><g transform="matrix(1.25 0 0-1.25 0 47.5)"><g clip-path="url(#0)"><g fill="#3e721d"><path d="m0 0c.626 6.708-4.417 7.542-6.417 6.083-1.097-.8-1.353-2.323-.479-1.521 1.542 1.416 2.084.375.917-.375-1.167-.75-1.375-2.146-.083-1.188 1.291.958 1.645.334.645-.895-.604-.745.042-1.438 1.167.062.938 1.251 3.2 1.294 2.662-2.99-.221-1.756 1.454-.608 1.588.824" transform="translate(13.434 7.167)"/><path d="m0 0c-.583 3.5-1.125 5.248-4.625 5.832-3.5.583-6.417-1.75-6.417-1.75 0 0 .584 3.5 2.334 4.666.686.458 1.166-1.75 1.75-1.75.583 0 1.166 1.75 2.916 1.75.584 0 .584-1.75 1.167-1.75.583 0 2.243.577 2.333 0 .126-.812-.167-1.729.292-2.104.459-.375 1.553.148 1.901-.489.349-.636-.61-1.553-.526-1.969.084-.417.719-.584.526-1.375-.192-.792-.65-.833-.692-1.417-.042-.583.885-1.081.692-1.686-.192-.606-.651-.688-.859-1.459-.208-.772.541-.65.333-1.44-.208-.79-.958-.991-1.208-1.766-.25-.774.666-.941.208-1.691-.458-.75-1.291-.875-1.333-1.333-.042-.458.209-.819.042-1.555-.167-.736-1.126-.362-1.209-.945-.083-.583.209-.875.209-1.583 0-.708-.709-.834-.626-1.542.084-.708.75-.167 1.167-1 .417-.833-.249-1.583.209-2.083.458-.5 1.083.667 1.708.25.625-.417.677-1.25 1.359-1.375.683-.125.891 1.292 1.391 1.25.5-.042 1.625-.709 2.208-.417.583.292.541 1.459 1 1.959.459.5 1.042.041 1.458.583.416.542-.145 1.174-.062 1.966.083.792.854 1.242.813 1.867-.041.625-.667.625-.917 1.292-.25.667.458 1.25.208 1.875-.25.625-1.332.833-1.291 1.458.041.625.459 1.333.25 2.042-.209.708-1.084 1.167-1.042 1.708.042.542.499 1.251.583 1.646.084.396-.749.813-.666 1.479.083.667.624.621.832 1.223.208.602-.749.902-.249 1.673.5.771.751.27 1.167.687.416.417-.001 1.334.416 1.542.417.208 1.25.042 1.667.333.417.292.417.708.875.875.458.167 1.042-.541 1.417-.541.375 0 1.041.708 1.541.541.5-.167 1.584-1.333.917-1.687-.667-.354-5.751-.605-5.792-2.938-.041-2.333 2.793-12.917 1.959-15.583-.834-2.666-4.291-8.334-8.25-7.25-3.959 1.084-8.667 3.501-7.542 7.209 1.125 3.708 4.749 11.295 5.458 14.772" transform="translate(21.375 28.19)"/></g><path d="m0 0c0-3.978-2.382-8.144-5.833-7.566-5.323.89-5.606 2.587-6.417 1.546-2.917-3.743-4.644.485-5.307 1.186-.167.176-3.443 1.141-3.443 2.987 0 1.198 1.75 2.419 2.917 1.231 1.722.044 8.166 6.157 12.25 6.157 4.083 0 5.833-3.079 5.833-5.541" fill="#77b255" transform="translate(22 29.1)"/><path d="m0 0c0-.645-.522-1.167-1.167-1.167-.644 0-1.166.522-1.166 1.167 0 .644.522 1.167 1.166 1.167.645 0 1.167-.523 1.167-1.167" fill="#292f33" transform="translate(15.584 29.938)"/><path d="m0 0c0-.483-.392-.292-.875-.292-.483 0-.875-.191-.875.292 0 .483.392.875.875.875.483 0 .875-.392.875-.875" fill="#3e721d" transform="translate(3.917 26.729)"/><path d="m0 0c0-.645-.392-.583-.875-.583-.483 0-.875-.062-.875.583 0 .644.392 2.333.875 2.333.483 0 .875-1.689.875-2.333" fill="#fff" transform="translate(12.08 25.856)" id="1"/><use transform="translate(-2.334-.584)" xlink:href="#1"/><path d="m0 0c-3.095-.442-6.215-1.224-7.558-1.579.167-.177.403-.579.708-1.021 1.473.381 4.254 1.051 7.01 1.445.319.046.541.342.495.661-.046.319-.343.541-.66.494" fill="#3e721d" transform="translate(12 25.848)"/><path d="m0 0c0-4.375-1.714-8.201-2.946-11.17-1.334-3.212-1-9 4-9 5 0 6.51 3.191 7 5 1.358 5.02-2 8-2 13 0 9 8 7 8 6 0-1-6.934-1.374-3-9 3.933-7.626 4-21.893-10-21.893-14 0-14 8.893-12 12.893 1.416 2.832 4 7.107.5 9.04-2.283 1.263 10.446 5.125 10.446 5.125" fill="#77b255" transform="translate(21.946 28.06)"/><path d="m0 0c-.256 0-.512.098-.707.293-.391.391-.391 1.023 0 1.414.083.084 2.081 2.043 5.374 2.043.552 0 1-.448 1-1 0-.552-.448-1-1-1-2.435 0-3.945-1.442-3.96-1.457-.195-.195-.451-.293-.707-.293" fill="#3e721d" transform="translate(12.335 29.23)"/><path d="m0 0c.626 6.708-5.417 7.542-7.417 6.083-1.097-.8-1.353-2.323-.479-1.521 1.542 1.416 2.084.375.917-.375-1.167-.75-1.375-2.146-.083-1.188 1.291.958 1.645.334.645-.895-.604-.745.042-1.438 1.167.062.938 1.251 4.2 1.294 3.662-2.99-.221-1.756 1.454-.608 1.588.824" fill="#5c913b" transform="translate(11.709 11.667)"/></g></g></svg>