<svg xmlns="http://www.w3.org/2000/svg" viewBox="0 0 47.5 47.5" enable-background="new 0 0 47.5 47.5" xmlns:xlink="http://www.w3.org/1999/xlink"><defs><path id="1" d="m0 0c0-.552.447-1 1-1 .553 0 1 .448 1 1 0 .552-.447 1-1 1-.553 0-1-.448-1-1" fill="#f4abba"/><clipPath id="0"><path d="m0 38h38v-38h-38v38"/></clipPath></defs><g transform="matrix(1.25 0 0-1.25 0 47.5)"><g clip-path="url(#0)"><path d="m0 0c0-2.209-1.791-4-4-4h-26c-2.209 0-4 1.791-4 4v24c0 2.209 1.791 4 4 4h26c2.209 0 4-1.791 4-4v-24" fill="#292f33" transform="translate(36 5)"/><path d="m0 0c0-1.104-.896-2-2-2h-26c-1.104 0-2 .896-2 2v20c0 1.104.896 2 2 2h26c1.104 0 2-.896 2-2v-20" fill="#e1e8ed" transform="translate(34 5)"/><path d="m0 0h-30v8c0 1.104.896 2 2 2h26c1.104 0 2-.896 2-2v-8" fill="#dd2e44" transform="translate(34 21)"/><path d="m0 0h-.695c-1.086 0-1.537.731-1.537 1.5 0 .792.564 1.5 1.537 1.5h2.211c.97 0 1.513-.701 1.513-1.605v-10.865c0-1.13-.556-1.762-1.529-1.762-.973 0-1.5.632-1.5 1.762v9.47" fill="#66757f" transform="translate(12.609 16)"/><g fill="#f5f8fa"><path d="m0 0c0-1.679-1-2.119-1.851-2.119-.645 0-1.721.27-1.721 1.14 0 .269.216.609.524.609.374 0 .702-.37 1.122-.37.524 0 .524.52.524.84v3.297c0 .5.298.78.7.78.403 0 .702-.28.702-.78v-3.397" transform="translate(9.06 23.999)"/><path d="m0 0c0 .5.299.78.702.78.402 0 .701-.28.701-.78v-2.488c0-.92.552-1.649 1.44-1.649.85 0 1.43.769 1.43 1.649v2.488c0 .5.299.78.702.78.402 0 .701-.28.701-.78v-2.568c0-1.679-1.291-2.949-2.833-2.949-1.561 0-2.843 1.25-2.843 2.949v2.568" transform="translate(9.795 27.397)"/><path d="m0 0c0 .5.3.78.702.78.402 0 .701-.28.701-.78v-4.02h1.665c.477 0 .682-.38.672-.72-.018-.33-.261-.659-.672-.659h-2.338c-.458 0-.73.319-.73.819v4.577" transform="translate(16.26 27.397)"/></g><use transform="translate(31 23)" xlink:href="#1"/><use transform="translate(28 23)" xlink:href="#1"/><use transform="translate(25 23)" xlink:href="#1"/><use transform="translate(25 26)" xlink:href="#1"/><use transform="translate(28 26)" xlink:href="#1"/><use transform="translate(31 26)" xlink:href="#1"/><g fill="#99aab5"><path d="m0 0c0-.552-.448-1-1-1-.552 0-1 .448-1 1v6c0 .552.448 1 1 1 .552 0 1-.448 1-1v-6" transform="translate(12 30)"/><path d="m0 0c0-.552-.447-1-1-1-.553 0-1 .448-1 1v6c0 .552.447 1 1 1 .553 0 1-.448 1-1v-6" transform="translate(28 30)"/></g><path d="m0 0c.541.112.924.126 1.443.126 2.515 0 4.302-1.995 4.302-4.427 0-3.471-1.912-5.757-5.507-5.757-1.475 0-4.572.955-4.572 2.785 0 .769.644 1.414 1.412 1.414.831 0 1.83-1.33 3.222-1.33 1.455 0 2.203 1.413 2.203 2.721 0 1.248-.706 2.1-1.994 2.1-1.207 0-1.393-.686-2.453-.686-.811 0-1.364.536-1.303 1.656l.563 3.758c.248 1.759.677 2.143 1.759 2.143h5.436c1.037 0 1.646-.609 1.646-1.421 0-1.557-1.173-1.579-1.579-1.579h-4.24l-.338-1.503" fill="#66757f" transform="translate(21.308 14.497)"/></g></g></svg>