<svg xmlns="http://www.w3.org/2000/svg" viewBox="0 0 47.5 47.5" enable-background="new 0 0 47.5 47.5"><defs><clipPath id="0"><path d="m0 38h38v-38h-38v38"/></clipPath></defs><g transform="matrix(1.25 0 0-1.25 0 47.5)"><g clip-path="url(#0)"><path d="m0 0c-1 4 3.688 6 8 4 .907-.421.948-1.316 0-1-3 1-6-1-4-4 1.109-1.664-3.233-2.068-4 1" fill="#ffac33" transform="translate(8.44 29.497)"/><path d="m0 0c-1 4 3.688 6 8 4 .907-.421.949-1.316 0-1-3 1-6-1-4-4 1.109-1.664-3.233-2.068-4 1" fill="#ffcc4d" transform="translate(7.136 31.22)"/><path d="m0 0c0-4-2-4.827-2-4 0 2-1 0-1 1v3c0 1.657.671 3 1.5 3 .829 0 1.5-1.343 1.5-3" fill="#e1e8ed" transform="translate(6 22.22)"/><path d="m0 0c-.681 1.644-2.313 2.706-4.159 2.706-.553 0-1-.448-1-1 0-.553.447-1 1-1 1.034 0 1.941-.578 2.311-1.471.341-.824.168-1.758-.455-2.647-.984 1.506-2.602 2.618-4.856 2.618-2.391 0-7.279-.714-10.828-1.289-.052.094-.105.188-.172.289-2 3-4 8.157-7 8.157-4 0-10-4.986-10-9.157 0-2.545 5.738-2.93 7.486-2.989.697-1.43 1.414-2.934 2.232-4.329.066-.205.155-.429.282-.683 3-6 3.119-14.5 4.5-14.5 1.381 0 2.5 4.858 2.5 9 0 .151-.005.299-.008.447 3.127-.649 6.607-.322 9.678.611 1.448-5.05 1.769-10.06 2.83-10.06 1.342 0 2.432 8.818 2.494 13.12 1.322 1.44 2.01 3.155 2.01 4.881 0 .605-.086 1.23-.248 1.843 1.614 1.643 2.142 3.676 1.407 5.451" fill="#ccd6dd" transform="translate(36.16 26.51)"/><path d="m0 0c0-.552-.448-1-1-1-.552 0-1 .448-1 1 0 .552.448 1 1 1 .552 0 1-.448 1-1" fill="#292f33" transform="translate(9 27.715)"/></g></g></svg>