<svg xmlns="http://www.w3.org/2000/svg" viewBox="0 0 47.5 47.5" enable-background="new 0 0 47.5 47.5" xmlns:xlink="http://www.w3.org/1999/xlink"><defs><clipPath id="0"><path d="m1 1h36v36h-36v-36"/></clipPath><clipPath id="1"><path d="m0 38h38v-38h-38v38"/></clipPath></defs><g transform="matrix(1.25 0 0-1.25 0 47.5)"><g clip-path="url(#0)"><path d="m0 0h-26c-.276 0-.5-.224-.5-.5v-19c0-.276.224-.5.5-.5h26c.276 0 .5.224.5.5v19c0 .276-.224.5-.5.5" fill="#bf6952" transform="translate(20 19.5)"/><path d="m0 0c0-6.074-4.926-11-11-11-6.075 0-11 4.926-11 11 0 6.075 4.925 11 11 11 6.074 0 11-4.925 11-11" fill="#d99e82" transform="translate(18 16)"/><path d="m0 0c-7.444 0-13.5-6.06-13.5-13.5 0-1.9.396-3.751 1.178-5.499.092-.202.301-.317.526-.291.221.031.394.204.426.425.393 2.755 2.581 4.706 4.512 6.428 1.793 1.599 3.497 3.119 3.444 5.04 6.515-1.171 14.01-6.02 14.784-11.469.032-.221.205-.394.426-.425.023-.003.046-.005.069-.005.196 0 .375.114.457.296.782 1.748 1.178 3.599 1.178 5.499 0 7.444-6.06 13.5-13.5 13.5" fill="#bf6952" transform="translate(7 31.795)"/><g fill="#642116"><path d="m0 0c-.276 0-.5.224-.5.5 0 .276.224.5.5.5 1.412 0 1.497 1.252 1.5 1.503.003.273.226.495.5.495.258.037.5-.222.5-.498 0-.864-.522-2.5-2.5-2.5" transform="translate(12 14.5)"/><path d="m0 0c-.276 0-.5.224-.5.5 0 .276.224.5.5.5 1.412 0 1.497 1.252 1.5 1.503.003.273.226.495.5.495.292.037.5-.222.5-.498 0-.864-.522-2.5-2.5-2.5" transform="translate(7 14.5)"/><path d="m0 0c-.276 0-.5.224-.5.5 0 .276.224.5.5.5.225.006.5.098.5.5 0 .402-.274.494-.505.5-.274.003-.495.226-.495.5 0 .272.218.494.489.5h.001.001.001.002.001.001.001.001.002c.225.006.5.098.5.5 0 .402-.275.494-.506.5-.273.007-.494.232-.491.506.004.274.224.494.497.494.603 0 1.5-.399 1.5-1.5 0-.438-.142-.765-.351-1 .209-.235.351-.562.351-1 0-1.101-.897-1.5-1.5-1.5" transform="translate(12 7.5)"/></g><path d="m0 0c0-6.074-4.926-11-11-11-6.074 0-11 4.926-11 11 0 6.075 4.926 11 11 11 6.074 0 11-4.925 11-11" fill="#d99e82" transform="translate(42 16)"/><path d="m0 0c-7.444 0-13.5-6.06-13.5-13.5 0-1.9.396-3.751 1.178-5.499.092-.202.3-.317.526-.291.221.031.395.204.426.425.392 2.755 2.581 4.706 4.512 6.428 1.793 1.599 3.497 3.119 3.444 5.04 6.516-1.171 14.01-6.02 14.784-11.469.031-.221.205-.394.426-.425.023-.003.047-.005.069-.005.196 0 .375.114.456.296.783 1.748 1.179 3.599 1.179 5.499 0 7.444-6.06 13.5-13.5 13.5" fill="#292f33" transform="translate(31 31.795)"/><path d="m0 0c-1.978 0-2.5 1.636-2.5 2.5 0 .276.224.5.5.5.275 0 .499-.223.5-.497.003-.252.089-1.503 1.5-1.503.276 0 .5-.224.5-.5 0-.276-.224-.5-.5-.5" fill="#642116" transform="translate(27 14.5)" id="2"/><use transform="translate(5)" xlink:href="#2"/><path d="m0 0c-.603 0-1.5.399-1.5 1.5 0 .438.143.765.352 1-.209.235-.352.562-.352 1 0 1.101.897 1.5 1.5 1.5.276 0 .5-.224.5-.5 0-.274-.222-.497-.495-.5-.231-.006-.505-.098-.505-.5 0-.402.274-.494.505-.5.273-.003.495-.226.495-.5 0-.272-.218-.494-.489-.5h-.003-.001-.001-.001-.002-.001-.002c-.225-.006-.5-.098-.5-.5 0-.402.275-.494.506-.5.273-.007.494-.232.49-.506-.003-.274-.223-.494-.496-.494" fill="#642116" transform="translate(27 7.5)"/></g><g clip-path="url(#1)"><path d="m0 0c0 2.602-2.109 4.711-4.711 4.711-1.579 0-2.973-.78-3.828-1.972-.856 1.192-2.249 1.972-3.827 1.972-2.602 0-4.711-2.109-4.711-4.711 0-.369.047-.727.127-1.07.654-4.065 5.173-8.353 8.411-9.53 3.238 1.177 7.758 5.465 8.412 9.529.08.344.127.702.127 1.071" fill="#f2abba" transform="translate(27.08 32.29)"/></g></g></svg>