<svg xmlns="http://www.w3.org/2000/svg" viewBox="0 0 47.5 47.5" enable-background="new 0 0 47.5 47.5" xmlns:xlink="http://www.w3.org/1999/xlink"><defs><clipPath id="0"><path d="m0 38h38v-38h-38v38"/></clipPath></defs><g transform="matrix(1.25 0 0-1.25 0 47.5)"><g clip-path="url(#0)"><path d="m0 0c0-9.389-7.611-17-17-17-9.388 0-17 7.611-17 17 0 9.388 7.612 17 17 17 9.389 0 17-7.612 17-17" fill="#ffcc4d" transform="translate(36 19)"/><path d="m0 0c0-1.934-1.119-3.5-2.5-3.5-1.381 0-2.5 1.566-2.5 3.5 0 1.933 1.119 3.5 2.5 3.5 1.381 0 2.5-1.567 2.5-3.5" fill="#664500" transform="translate(16 21.5)" id="1"/><use transform="translate(11)" xlink:href="#1"/><path d="m0 0c1.335.412 2.629 1.156 2.629 2.5 0 2.619-4.912 2.968-5.472 2.999-.274.027-.509-.193-.527-.468-.017-.273.19-.51.464-.53.035-.002 3.535-.299 3.535-2 0-1.702-3.5-1.999-3.535-2-.013-.001-.024-.008-.036-.01-.054-.006-.103-.017-.149-.041-.006-.003-.01-.007-.015-.009-.048-.027-.091-.058-.127-.099-.014-.015-.023-.031-.035-.047-.023-.032-.045-.064-.06-.103-.012-.029-.018-.06-.024-.091-.005-.024-.017-.044-.018-.068-.001-.01.004-.02.004-.031 0-.011-.005-.021-.004-.031.001-.025.013-.045.018-.069.006-.031.011-.06.023-.089.013-.031.031-.057.049-.084.017-.025.032-.05.053-.072.022-.023.05-.041.077-.06.025-.017.046-.034.074-.047.032-.015.066-.021.1-.027.024-.006.045-.018.07-.02.035-.002 3.535-.299 3.535-2 0-1.702-3.5-1.999-3.535-2-.274-.02-.481-.257-.464-.53.017-.265.237-.469.498-.469.01 0 .02 0 .029.001.56.031 5.472.38 5.472 2.999 0 1.344-1.294 2.088-2.629 2.5" fill="#664500" transform="translate(21.871 9)"/></g></g></svg>