<svg xmlns="http://www.w3.org/2000/svg" viewBox="0 0 47.5 47.5" enable-background="new 0 0 47.5 47.5" xmlns:xlink="http://www.w3.org/1999/xlink"><defs><clipPath id="0"><path d="m0 38h38v-38h-38v38"/></clipPath></defs><g transform="matrix(1.25 0 0-1.25 0 47.5)"><g clip-path="url(#0)"><path d="m0 0c0-9.389-7.611-17-17-17-9.388 0-17 7.611-17 17 0 9.388 7.612 17 17 17 9.389 0 17-7.612 17-17" fill="#ffcc4d" transform="translate(36 19)"/><path d="m0 0c0-2.486-1.119-5.5-2.5-5.5-1.381 0-2.5 3.01-2.5 5.5 0 2.485 1.119 5.5 2.5 5.5 1.381 0 2.5-3.02 2.5-5.5" fill="#664500" transform="translate(15 24.5)" id="1"/><use transform="translate(13)" xlink:href="#1"/><path d="m0 0c-3.623 0-6.03.422-9 1-.679.131-2 0-2-2 0-4 4.595-9 11-9 6.404 0 11 5 11 9 0 2-1.321 2.132-2 2-2.973-.578-5.377-1-9-1" fill="#664500" transform="translate(19 15)"/><path d="m0 0c0 0 3-1 9-1 6 0 9 1 9 1 0 0-2-4-9-4-7 0-9 4-9 4" fill="#fff" transform="translate(10 14)"/></g></g></svg>