<svg xmlns="http://www.w3.org/2000/svg" viewBox="0 0 47.5 47.5" enable-background="new 0 0 47.5 47.5"><defs><clipPath id="0"><path d="m0 38h38v-38h-38v38"/></clipPath></defs><g transform="matrix(1.25 0 0-1.25 0 47.5)"><g clip-path="url(#0)"><path d="m0 0c0-9.389-7.611-17-17-17-9.389 0-17 7.611-17 17 0 9.389 7.611 17 17 17 9.389 0 17-7.611 17-17" fill="#ffcc4d" transform="translate(36 19)"/><g fill="#ff7892"><path d="m0 0c0-2.762-2.239-5-5-5-2.761 0-5 2.238-5 5 0 2.762 2.239 5 5 5 2.761 0 5-2.238 5-5" transform="translate(13 16)"/><path d="m0 0c0-2.762-2.238-5-5-5-2.762 0-5 2.238-5 5 0 2.762 2.238 5 5 5 2.762 0 5-2.238 5-5" transform="translate(35 16)"/></g><g fill="#664500"><path d="m0 0c-.061.091-1.515 2.223-4.416 2.223-2.9 0-4.355-2.132-4.416-2.223-.135-.202-.104-.47.071-.638.174-.167.447-.184.643-.041.012.009 1.262.902 3.702.902 2.426 0 3.674-.882 3.702-.902.089-.066.194-.098.298-.098.124 0 .248.046.344.136.177.168.207.438.072.641" transform="translate(29.416 19.277)"/><path d="m0 0c-2.9 0-4.355-2.132-4.416-2.223-.134-.201-.104-.469.071-.637.176-.167.447-.185.642-.042.013.009 1.262.902 3.703.902 2.426 0 3.674-.881 3.702-.901.089-.066.194-.099.298-.099.124 0 .248.046.344.137.177.167.207.438.072.64-.061.091-1.515 2.223-4.416 2.223" transform="translate(13 21.5)"/><path d="m0 0c1.335.412 2.629 1.156 2.629 2.5 0 2.619-4.912 2.968-5.473 2.999-.277.036-.51-.194-.526-.468-.017-.273.19-.51.464-.53.035-.002 3.535-.299 3.535-2 0-1.702-3.5-1.999-3.535-2-.01-.001-.017-.006-.027-.007-.124-.008-.23-.065-.309-.159-.005-.006-.009-.014-.015-.021-.029-.039-.054-.078-.073-.125-.011-.027-.016-.056-.022-.085-.004-.024-.016-.046-.018-.071-.001-.01.004-.02.004-.031 0-.011-.005-.021-.004-.031.002-.026.013-.046.018-.071.006-.029.011-.058.023-.086.013-.033.032-.06.051-.088.016-.024.03-.047.049-.068.024-.024.052-.043.082-.062.023-.017.045-.033.071-.046.031-.015.065-.021.1-.027.024-.006.044-.018.07-.02.035-.002 3.535-.299 3.535-2 0-1.702-3.5-1.999-3.535-2-.274-.02-.481-.257-.464-.53.016-.265.236-.469.499-.469.009 0 .019 0 .027.001.561.031 5.473.38 5.473 2.999 0 1.344-1.294 2.088-2.629 2.5" transform="translate(22.871 10)"/><path d="m0 0c-.305 0-.605.138-.801.4-2.64 3.521-6.06 3.599-6.206 3.6-.55.006-.994.456-.991 1 .003.551.447.995.997.995.184 0 4.537-.05 7.8-4.4.332-.442.242-1.069-.2-1.4-.18-.135-.39-.2-.599-.2" transform="translate(32 21)"/><path d="m0 0c-.208 0-.419.065-.599.2-.442.331-.531.958-.2 1.4 3.262 4.35 7.616 4.4 7.8 4.4.552 0 1-.448 1-1 0-.551-.445-.998-.996-1-.155-.002-3.568-.086-6.204-3.6-.197-.262-.497-.4-.801-.4" transform="translate(5.999 21)"/></g></g></g></svg>