<svg xmlns="http://www.w3.org/2000/svg" viewBox="0 0 47.5 47.5" enable-background="new 0 0 47.5 47.5"><defs><clipPath id="0"><path d="m0 38h38v-38h-38v38"/></clipPath></defs><g transform="matrix(1.25 0 0-1.25 0 47.5)"><g clip-path="url(#0)"><path d="m0 0c5.01-5.01 16.502-11.969 29.533.07-7.366 1.417-8.662 10.789-13.669 15.795-5.01 5.01-11.991 6.139-16.997 1.133-5.01-5.01-3.874-11.991 1.133-16.998" fill="#a6d388" transform="translate(7.401 8.45)"/><path d="m0 0c6.128-1.634 10.658.738 11.08 1.156 0 0-3.786-1.751-10.359 1.477.952 1.212 3.853 2.909 3.853 2.909-.552.346-4.078.225-6.485-1.429-1.158.734-2.384 1.617-3.673 2.675l.84.871c3.25 3.384 6.944 2.584 6.944 2.584-.637.613-5.598 3.441-9.582-.7l-.613-.638c-.426.4-.856.813-1.293 1.25l-1.85 1.85 1.064 1.065c3.321 3.321 8.226 3.451 8.226 3.451-.626.627-6.862 2.65-10.923-1.412l-.737-.735-8.293 8.293c-.625.626-1.692.575-2.317-.051-.627-.626-.677-1.691-.051-2.317l8.293-8.293-.058-.059c-4.062-4.061-2.375-10.634-1.749-11.26 0 0 .468 5.242 3.789 8.562l.387.388 3.502-3.502c.056-.057.113-.107.17-.163-2.426-4.797 1.228-10.34 1.958-10.784 0 0-1.466 4.722.48 8.634 1.526-1.195 3.02-2.094 4.457-2.755.083-2.993 2.707-5.7 3.343-5.93 0 0-.911 3-.534 4.487l.135.376" fill="#77b255" transform="translate(25.684 7.19)"/><g fill="#55acee"><path d="m0 0c-.396 0-.771.238-.928.628-.205.512.042 1.093.553 1.299.166.069 4.02 1.698 4.416 6.163.05.549.524.951 1.085.907.551-.05.956-.536.907-1.086-.512-5.711-5.451-7.755-5.661-7.839-.122-.049-.248-.072-.372-.072" transform="translate(23.08 27)"/><path d="m0 0c-.414 0-.801.259-.944.671-.181.52.091 1.088.61 1.272.188.068 4.525 1.711 5.38 8.188.072.547.56.935 1.122.861.548-.072.933-.575.86-1.122-1.021-7.751-6.467-9.733-6.699-9.814-.109-.038-.22-.056-.329-.056" transform="translate(28.08 23)"/><path d="m0 0c-.353 0-.694.187-.877.519-.266.482-.089 1.09.394 1.357.027.015 2.751 1.536 3.6 3.518.218.508.808.742 1.313.525.507-.217.743-.805.525-1.313-1.123-2.62-4.339-4.408-4.475-4.483-.153-.083-.317-.123-.48-.123" transform="translate(31.08 17)"/></g></g></g></svg>