<svg xmlns="http://www.w3.org/2000/svg" viewBox="0 0 47.5 47.5" enable-background="new 0 0 47.5 47.5"><defs><clipPath id="0"><path d="m0 38h38v-38h-38v38"/></clipPath></defs><g transform="matrix(1.25 0 0-1.25 0 47.5)"><g clip-path="url(#0)"><g fill="#2a6797"><path d="m0 0c-3 0-7-8-7-10 0-3 2-4 2-4h11v10c0 0-4 4-6 4" transform="translate(31 15)"/><path d="m0 0c3 0 7-8 7-10 0-3-2-4-2-4h-11v10c0 0 4 4 6 4" transform="translate(7 15)"/></g><path d="m0 0c0 1.104-.896 2-2 2-1.104 0-2-.896-2-2v7.277c.596.347 1 .985 1 1.723 0 1.104-.896 2-2 2-1.104 0-2-.896-2-2 0 1.104-.896 2-2 2-1.104 0-2-.896-2-2 0-.738.405-1.376 1-1.723v-7.277c0 1.104-.896 2-2 2-1.104 0-2-.896-2-2l-1-11.526v-4.474h5v-1h6v1h5v4.474l-1 11.526" fill="#c1694f" transform="translate(26 26)"/><g fill="#d79e84"><path d="m0 0l-1 12c0 1.104-.896 2-2 2-1.104 0-2-.896-2-2v-20c0-6 6-9 6-9 0 0 6 4 6 9l-7 8" transform="translate(25 21)"/><path d="m0 0c-1.104 0-2-.896-2-2l-1-12-7-8c0-5 6-9 6-9 0 0 6 3 6 9v20c0 1.104-.896 2-2 2" transform="translate(16 35)"/></g><g fill="#fdcb58"><path d="m0 0l-6 3-1-2 6-2 1 1" transform="translate(12 30)"/><path d="m0 0l6 3 1-2-6-2-1 1" transform="translate(26 30)"/><path d="m0 0l-6 1-1-2h7v1" transform="translate(10 26)"/><path d="m0 0l6 1 1-2h-7v1" transform="translate(28 26)"/></g></g></g></svg>