<svg xmlns="http://www.w3.org/2000/svg" viewBox="0 0 47.5 47.5" enable-background="new 0 0 47.5 47.5"><defs><clipPath id="0"><path d="m0 38h38v-38h-38v38"/></clipPath></defs><g transform="matrix(1.25 0 0-1.25 0 47.5)"><g clip-path="url(#0)"><path d="m0 0c0 4.984 1.934 9.505 5.073 12.894-9.03-.962-16.07-8.604-16.07-17.894 0-9.941 8.06-18 18-18 4.303 0 8.25 1.515 11.348 4.03-7.164.245-13.306 4.451-16.351 10.485-.622 1.232 2.795 1.201 2.962 3.482.154 2.13-4.959 2.74-4.959 5" fill="#ccd6dd" transform="translate(12 24)"/><g fill="#b8c5cd"><path d="m0 0c0-1.934-1.566-3.5-3.5-3.5-1.934 0-3.5 1.566-3.5 3.5 0 1.934 1.566 3.5 3.5 3.5 1.934 0 3.5-1.566 3.5-3.5" transform="translate(15 8.5)"/><path d="m0 0c0-.553.448-1 1-1 .552 0 1 .447 1 1 0 .552-.448 1-1 1-.552 0-1-.448-1-1" transform="translate(9 30)"/><path d="m0 0c0-.553.447-1 1-1 .553 0 1 .447 1 1 0 .553-.447 1-1 1-.553 0-1-.447-1-1" transform="translate(18 5)"/><path d="m0 0c0-1.104-.896-2-2-2-1.104 0-2 .896-2 2 0 1.104.896 2 2 2 1.104 0 2-.896 2-2" transform="translate(6 17)"/></g><g fill="#99aab5"><path d="m0 0c-.775.819-1.48 1.705-2.104 2.651-5.45-1.226-7.637.273-7.317-.806.342-1.148 4.798-3.01 9.421-1.845" transform="translate(17.203 10.977)"/><path d="m0 0c0-1.381-1.12-2.5-2.5-2.5-1.38 0-2.5 1.119-2.5 2.5 0 1.381 1.12 2.5 2.5 2.5 1.38 0 2.5-1.119 2.5-2.5" transform="translate(11 22.5)"/></g></g></g></svg>