<svg xmlns="http://www.w3.org/2000/svg" viewBox="0 0 47.5 47.5" enable-background="new 0 0 47.5 47.5"><defs><clipPath id="0"><path d="m0 38h38v-38h-38v38"/></clipPath></defs><g transform="matrix(1.25 0 0-1.25 0 47.5)"><g clip-path="url(#0)"><path d="m0 0c-.467.178-7.998-3.971-9.969-9.131-1.166-3.052-1.685-6.06-1.652-8.112-1.469.789-2.921 1.248-4.178 1.248-1.257 0-2.709-.458-4.178-1.248.034 2.055-.486 5.06-1.651 8.112-1.971 5.16-9.503 9.309-9.97 9.131-.455-.174 4.268-16.04 7.02-20.837-2.421-2.563-4.226-5.819-4.226-8.986 0-3.234 1.635-5.139 4-5.94 2.53-.858 4.999.94 8.999.94 4 0 6.469-1.798 9-.94 2.365.801 4 2.706 4 5.94 0 3.166-1.805 6.423-4.224 8.985 2.754 4.794 7.479 20.664 7.02 20.838" fill="#99aab5" transform="translate(34.799 36.995)"/><g fill="#f4abba"><path d="m0 0c-.178 1.54-.68 3.55-1.457 5.584-1.534 4.02-5.686 7.245-6.05 7.106-.32-.121 2.627-10.14 4.783-14.863.866.825 1.786 1.564 2.723 2.173" transform="translate(13.692 19.08)"/><path d="m0 0c2.156 4.723 5.103 14.741 4.784 14.862-.363.139-4.515-3.091-6.05-7.106-.777-2.034-1.279-4.04-1.457-5.584.937-.61 1.857-1.348 2.723-2.172" transform="translate(27.03 16.906)"/></g><path d="m0 0c0-2.762-3.06-5-6.834-5-3.773 0-6.833 2.238-6.833 5 0 2.762 3.06 5 6.833 5 3.774 0 6.834-2.238 6.834-5" fill="#ccd6dd" transform="translate(26 7)"/><path d="m0 0c0-2.762-.238-3-3-3-2.761 0-3 .238-3 3 0 1 6 1 6 0" fill="#fff" transform="translate(22 6.422)"/><g fill="#292f33"><path d="m0 0c0-.828-.671-1.5-1.5-1.5-.829 0-1.5.672-1.5 1.5 0 .828.671 1.5 1.5 1.5.829 0 1.5-.672 1.5-1.5" transform="translate(15 12.672)"/><path d="m0 0c0-.828-.672-1.5-1.5-1.5-.828 0-1.5.672-1.5 1.5 0 .828.672 1.5 1.5 1.5.828 0 1.5-.672 1.5-1.5" transform="translate(26 12.672)"/></g><path d="m0 0c0-1.657-2-3-3-3-1 0-3 1.343-3 3 0 1.657 6 1.657 6 0" fill="#f4abba" transform="translate(22 11.172)"/></g></g></svg>