<svg xmlns="http://www.w3.org/2000/svg" viewBox="0 0 47.5 47.5" enable-background="new 0 0 47.5 47.5"><defs><clipPath id="0"><path d="m0 38h38v-38h-38v38"/></clipPath></defs><g transform="matrix(1.25 0 0-1.25 0 47.5)"><g clip-path="url(#0)"><path d="m0 0c0-2.209-1.791-4-4-4h-28c-2.209 0-4 1.791-4 4v28c0 2.209 1.791 4 4 4h28c2.209 0 4-1.791 4-4v-28" fill="#553788" transform="translate(37 5)"/><path d="m0 0h-12.756c-4.687-1.656.803-8.995-3.502-8.469-7.159.875-7.679-6.086-10.742-4.969-1.192.436-3.257 2.491-5 .991v-19.553c0-2.209 1.791-4 4-4h1.624c1.469 1.279.927 5.622 1.709 6.75 2.834 4.084 3.695 7.482 7.901 7.188 7.125-.5 8.453 4.853 10.704 7.187 2.249 2.334 6.06-1.542 10.06.208v10.667c0 2.209-1.791 4-4 4" fill="#744eaa" transform="translate(33 37)"/><path d="m0 0v2.966c-.77.84-1.917 1.784-2.583 1.7-1.276-.161-2.042-1.166-2.917-1.853-.875-.688-2.979-.272-4.667.853-1.687 1.125-3.998.106-5.127-.466-1.873-.95-2.498 1.883-4.373 3.133-1.875 1.25-4.708-2.833-5.833-3.583-1.125-.75-2.463 1.18-3.275 1.742-.813.563-1.892.487-3.392-.826-1.287-1.126-1.795-.895-3.833-1.545v-2.121c0-2.209 1.791-4 4-4h28c2.209 0 4 1.791 4 4" fill="#292f33" transform="translate(37 5)"/><g fill="#aa8dd8"><path d="m0 0c0-.644-.522-1.167-1.167-1.167-.644 0-1.166.523-1.166 1.167 0 .645.522 1.167 1.166 1.167.645 0 1.167-.522 1.167-1.167" transform="translate(8.334 21.333)"/><path d="m0 0c0-.604-.49-1.094-1.094-1.094-.604 0-1.094.49-1.094 1.094 0 .604.49 1.094 1.094 1.094.604 0 1.094-.49 1.094-1.094" transform="translate(16.938 25.969)"/><path d="m0 0c0-.725-.588-1.312-1.312-1.312-.725 0-1.313.587-1.313 1.312 0 .725.588 1.312 1.313 1.312.724 0 1.312-.587 1.312-1.312" transform="translate(24.313 31.688)"/><path d="m0 0c0-.432-.35-.781-.781-.781-.432 0-.781.349-.781.781 0 .432.349.781.781.781.431 0 .781-.349.781-.781" transform="translate(26.19 28.28)"/><path d="m0 0c0-.553-.447-1-1-1-.553 0-1 .447-1 1 0 .553.447 1 1 1 .553 0 1-.447 1-1" transform="translate(20.75 17.25)"/><path d="m0 0c0-.518-.42-.937-.937-.937-.518 0-.938.419-.938.937 0 .518.42.937.938.937.517 0 .937-.419.937-.937" transform="translate(32.938 16.578)"/><path d="m0 0c0-.639-.518-1.156-1.156-1.156-.639 0-1.157.517-1.157 1.156 0 .639.518 1.156 1.157 1.156.638 0 1.156-.517 1.156-1.156" transform="translate(33.688 26.09)"/></g><g fill="#cbb7ea"><path d="m0 0c0-.362-.293-.656-.655-.656-.364 0-.657.294-.657.656 0 .362.293.656.657.656.362 0 .655-.294.655-.656" transform="translate(23.281 13.273)"/><path d="m0 0c0-.449-.364-.812-.812-.812-.449 0-.813.363-.813.812 0 .449.364.812.813.812.448 0 .812-.363.812-.812" transform="translate(13.563 34.438)"/><path d="m0 0c0-.371-.301-.672-.672-.672-.371 0-.672.301-.672.672 0 .371.301.672.672.672.371 0 .672-.301.672-.672" transform="translate(6.606 31.06)"/><path d="m0 0c0-.449-.363-.812-.812-.812-.45 0-.813.363-.813.812 0 .449.363.812.813.812.449 0 .812-.363.812-.812" transform="translate(29.719 10.992)"/><path d="m0 0c0-.516-.418-.934-.934-.934-.516 0-.934.418-.934.934 0 .517.418.935.934.935.516 0 .934-.418.934-.935" transform="translate(7.868 11.503)"/><path d="m0 0c0-.812-.658-1.469-1.469-1.469-.811 0-1.469.657-1.469 1.469 0 .811.658 1.469 1.469 1.469.811 0 1.469-.658 1.469-1.469" transform="translate(12 18.219)"/><path d="m0 0c0-.925-.75-1.675-1.676-1.675-.925 0-1.675.75-1.675 1.675 0 .925.75 1.675 1.675 1.675.926 0 1.676-.75 1.676-1.675" transform="translate(21.351 22.2)"/><path d="m0 0c0-.397-.322-.719-.719-.719-.397 0-.718.322-.718.719 0 .397.321.719.718.719.397 0 .719-.322.719-.719" transform="translate(29.688 32.531)"/><path d="m0 0c0-.552-.447-1-1-1-.553 0-1 .448-1 1 0 .552.447 1 1 1 .553 0 1-.448 1-1" transform="translate(35.31 34)"/></g><g fill="#f5f8fa"><path d="m0 0c0-.495-.401-.896-.896-.896-.495 0-.896.401-.896.896 0 .495.401.896.896.896.495 0 .896-.401.896-.896" transform="translate(12.334 29.438)"/><path d="m0 0c0-.432-.35-.781-.781-.781-.432 0-.781.349-.781.781 0 .432.349.781.781.781.431 0 .781-.349.781-.781" transform="translate(35.31 21.344)"/><path d="m0 0c0-.38-.308-.687-.687-.687-.38 0-.688.307-.688.687 0 .38.308.687.688.687.379 0 .687-.307.687-.687" transform="translate(26.688 23.469)"/><path d="m0 0c0-.328-.266-.594-.594-.594-.328 0-.593.266-.593.594 0 .328.265.594.593.594.328 0 .594-.266.594-.594" transform="translate(13.531 22.281)"/><path d="m0 0c0-.639-.518-1.156-1.156-1.156-.639 0-1.157.517-1.157 1.156 0 .639.518 1.156 1.157 1.156.638 0 1.156-.517 1.156-1.156" transform="translate(23.75 25.76)"/><path d="m0 0c0-.535-.434-.969-.969-.969-.535 0-.968.434-.968.969 0 .535.433.969.968.969.535 0 .969-.434.969-.969" transform="translate(29.875 28.844)"/><path d="m0 0c0-.738-.598-1.336-1.336-1.336-.738 0-1.336.598-1.336 1.336 0 .738.598 1.336 1.336 1.336.738 0 1.336-.598 1.336-1.336" transform="translate(17.234 18.914)"/><path d="m0 0c0-.485-.394-.879-.879-.879-.485 0-.879.394-.879.879 0 .485.394.879.879.879.485 0 .879-.394.879-.879" transform="translate(3.633 12.871)"/><path d="m0 0c0-.358-.291-.648-.648-.648-.358 0-.649.29-.649.648 0 .358.291.648.649.648.357 0 .648-.29.648-.648" transform="translate(7 15.921)"/><path d="m0 0c0-.449-.363-.812-.812-.812-.45 0-.813.363-.813.812 0 .449.363.812.813.812.449 0 .812-.363.812-.812" transform="translate(33.16 31.25)"/></g></g></g></svg>