<svg xmlns="http://www.w3.org/2000/svg" viewBox="0 0 47.5 47.5" enable-background="new 0 0 47.5 47.5" xmlns:xlink="http://www.w3.org/1999/xlink"><defs><clipPath id="0"><path d="m0 38h38v-38h-38v38"/></clipPath></defs><g transform="matrix(1.25 0 0-1.25 0 47.5)"><g clip-path="url(#0)"><path d="m0 0c0-2.209-1.791-4-4-4h-28c-2.209 0-4 1.791-4 4v28c0 2.209 1.791 4 4 4h28c2.209 0 4-1.791 4-4v-28" fill="#88c9f9" transform="translate(37 5)"/><g fill="#a0041e"><path d="m17 3h-2v11h2v-11"/><path d="m9 3h2v12h-2v-12"/><path d="m23 16h-2v-13h2v13"/><path d="m29 21h-2v-18h2v18"/><path d="m35 26h-2v-23h2v23"/><path d="m5 3h-2v13h2v-13"/></g><path d="m0 0c-4.107-4.63-13.207-13.778-21-13.778-4.636 0-8.6 1.417-11 2.528v-2.201c2.615-1.117 6.483-2.327 11-2.327 7.763 0 16.237 7.691 21 12.785v2.993" fill="#dd2e44" transform="translate(35 28.778)"/><path d="m0 0c0-1.104-.447-2-1-2-.553 0-1 .896-1 2 0 1.104.447 2 1 2 .553 0 1-.896 1-2" fill="#66757f" transform="translate(27 23)" id="1"/><path d="m0 0c0-.552-.447-1-1-1-.553 0-1 .448-1 1 0 .552.447 1 1 1 .553 0 1-.448 1-1" fill="#66757f" transform="translate(27 26)" id="2"/><use transform="translate(5 4)" xlink:href="#1"/><path d="m0 0l.333-2.667-1-1-1.505 1.505c-.952-.928-1.778-1.674-2.495-2.278v-2.227l-1-1-1.391 1.391c-1.382-.96-2.069-1.309-2.609-2.391-1-2-2-6 1-4 5.582 3.721 12 10 12 10v6c-.865-.866-2.158-2.158-3.333-3.333" fill="#ffcc4d" transform="translate(31.667 29.667)"/><use transform="translate(5 4)" xlink:href="#2"/></g></g></svg>