<svg xmlns="http://www.w3.org/2000/svg" viewBox="0 0 47.5 47.5" enable-background="new 0 0 47.5 47.5"><defs><clipPath id="0"><path d="m0 38h38v-38h-38v38"/></clipPath></defs><g transform="matrix(1.25 0 0-1.25 0 47.5)"><g clip-path="url(#0)"><g fill="#fdd888"><path d="m0 0c0-2.2-1.8-4-4-4h-22c-2.2 0-4 1.8-4 4v17c0 2.2 1.8 4 4 4h22c2.2 0 4-1.8 4-4v-17" transform="translate(34 6)"/><path d="m0 0c0-2.2-1.8-4-4-4h-28c-2.2 0-4 1.8-4 4 0 2.2 1.8 4 4 4h28c2.2 0 4-1.8 4-4" transform="translate(37 26)"/></g><path d="m34 20h-30v2h30v-2" fill="#fcab40"/><g fill="#da2f47"><path d="m0 0h-2c-1.656 0-3-1.343-3-3v-29h8v29c0 1.657-1.343 3-3 3" transform="translate(20 34)"/><path d="m0 0c1.1 0 1.263.516.361 1.147l-6.722 4.706c-.902.631-2.085.366-2.631-.589l-2.02-3.528c-.546-.955-.092-1.736 1.01-1.736h10" transform="translate(17 30)"/><path d="m0 0c-1.1 0-1.263.516-.361 1.147l6.722 4.706c.902.631 2.085.366 2.631-.589l2.02-3.528c.546-.955.092-1.736-1.01-1.736h-10" transform="translate(21 30)"/></g></g></g></svg>