<svg xmlns="http://www.w3.org/2000/svg" viewBox="0 0 47.5 47.5" enable-background="new 0 0 47.5 47.5"><defs><clipPath id="0"><path d="m0 38h38v-38h-38v38"/></clipPath></defs><g transform="matrix(1.25 0 0-1.25 0 47.5)"><g clip-path="url(#0)"><path d="m0 0c0 0 4.875 5 10 5 6.125 0 7.937-4.938 7.937-4.938 0 0 .625 4 5 4 4.375 0 6.938-3.125 6.938-3.125 0 0-3.563-2.124-4.625-2.562-2.801-1.153-11.375-3.562-15.375-2.562-4 .999-9.875 4.187-9.875 4.187" fill="#5c913b" transform="translate(2.063 31.875)"/><path d="m0 0c0 0 1.042.896 6 .896 6.542 0 12-4.813 12-12.927 0-11.531-14.958-17.881-14.958-17.881 0 0-20.04 1.079-20.04 17.935 0 9.959 6.75 12.977 11 12.977 4.958 0 6-1 6-1" fill="#ff886c" transform="translate(19 31)"/><path d="m0 0c0 0 4.875 5 10 5 6.125 0 7.937-4.938 7.937-4.938 0 0-4.062-5.249-8.06-4.249-4 .999-9.875 4.187-9.875 4.187" fill="#77b255" transform="translate(2.063 31.875)"/><path d="m0 0c-.19 0-.383.055-.554.168-.46.307-.584.927-.277 1.387.015.022 1.832 2.907 1.832 9.445 0 6.445-4.578 10.182-4.625 10.219-.431.345-.501.974-.156 1.406.345.43.974.5 1.406.156.219-.176 5.375-4.385 5.375-11.781 0-7.22-2.079-10.422-2.168-10.555-.192-.289-.51-.445-.833-.445" fill="#dd2e44" transform="translate(23.999 7)"/></g></g></svg>