<svg xmlns="http://www.w3.org/2000/svg" viewBox="0 0 47.5 47.5" enable-background="new 0 0 47.5 47.5"><defs><clipPath id="0"><path d="m0 38h38v-38h-38v38"/></clipPath></defs><g transform="matrix(1.25 0 0-1.25 0 47.5)"><g clip-path="url(#0)"><path d="m0 0c0-2.209-1.791-4-4-4h-28c-2.209 0-4 1.791-4 4v28c0 2.209 1.791 4 4 4h28c2.209 0 4-1.791 4-4v-28" fill="#dd2e44" transform="translate(37 5)"/><path d="m0 0c0-1.689-.858-2.47-2.887-2.47-.832 0-2 .078-2.73.234-.363.078-.623.416-.623.858 0 .105 0 .183.025.286.104.52.416.78.807.78.052 0 .129 0 .181-.026.598-.13 1.508-.234 2.081-.234.988 0 1.169.182 1.169 1.041v19.813c0 .493.39.78.989.78.597 0 .988-.287.988-.78v-20.282m-4.889 4.03c0-.494-.416-.727-.988-.727-.546 0-.988.26-.988.727v14.951c0 .495.442.728.988.728.572 0 .988-.259.988-.728v-14.951zm-7.67-4.602c.494 0 .728.131.728.625v2.912c0 .519-.234.649-.728.649h-6.03c-.494 0-.728-.13-.728-.649v-2.912c0-.494.234-.625.728-.625h6.03m.598 5.772c1.456 0 2.08-.546 2.08-1.975v-3.433c0-1.43-.624-1.976-2.08-1.976h-7.202c-1.456 0-2.107.546-2.107 1.976v3.433c0 1.429.651 1.975 2.107 1.975h7.202m1.638 14.02c1.378 0 2.028-.571 2.028-1.976v-1.69c0-.572-.363-.78-.91-.78-.546 0-.884.234-.884.702v1.456c0 .52-.26.651-.728.651h-9.308c-.494 0-.729-.131-.729-.651v-1.742c0-.468-.416-.727-.935-.727-.521 0-.91.233-.91.805v1.976c0 1.405.65 1.976 2.028 1.976h4.238v1.405c0 .467.39.728.988.728.624 0 1.014-.261 1.014-.728v-1.405h4.108m-10.4-8.918c-.416 0-.65.364-.65.78 0 .416.234.78.65.78h4.394v1.794h-3.484c-.468 0-.65.338-.65.78 0 .416.234.754.65.754h3.484v1.222c0 .468.338.702.858.702.546 0 .858-.234.858-.702v-1.222h3.588c.416 0 .65-.338.65-.754 0-.442-.182-.78-.65-.78h-3.588v-1.794h4.264c.39 0 .65-.364.65-.78 0-.416-.26-.78-.65-.78h-4.264v-1.846h5.616c.39 0 .624-.339.624-.806 0-.416-.234-.781-.624-.781h-13.313c-.416 0-.624.365-.624.781 0 .467.208.806.624.806h5.981v1.846h-4.394" fill="#fff" transform="translate(30.25 9.618)"/></g></g></svg>