<svg xmlns="http://www.w3.org/2000/svg" viewBox="0 0 47.5 47.5" enable-background="new 0 0 47.5 47.5"><defs><clipPath id="0"><path d="m0 38h38v-38h-38v38"/></clipPath></defs><g transform="matrix(1.25 0 0-1.25 0 47.5)"><g fill="#269"><path d="m0 0v-3.941h5.628l-5.628 3.941" transform="translate(1 27.941)"/><path d="m0 0h8.336v5.837l-8.336-5.837" transform="translate(5.664 6)"/><path d="m0 0v-5.836h8.335l-8.335 5.836" transform="translate(24 11.836)"/><path d="M 0,0 0,-3.941 5.63,0 0,0 Z" transform="translate(1 14)"/><path d="m0 0h-8.337v-5.837l8.337 5.837" transform="translate(32.34 32)"/><path d="m0 0v3.942h-5.631l5.631-3.942" transform="translate(37 10.06)"/><path d="M 0,0 0,3.941 -5.629,0 0,0 Z" transform="translate(37 24)"/><path d="m0 0h-8.336l8.336-5.837v5.837" transform="translate(14 32)"/></g><g clip-path="url(#0)"><g fill="#dd2e44"><path d="m0 0l9.712-6.801c.471.48.808 1.082.99 1.749l-7.215 5.05h-3.487" transform="translate(26.14 14)"/><path d="m0 0h-2.141l-9.711-6.8c.521-.53 1.189-.909 1.938-1.085l9.914 6.942v.943" transform="translate(14 14)"/><path d="m0 0h2.141l9.711 6.8c-.521.53-1.189.909-1.937 1.085l-9.915-6.942v-.943" transform="translate(24 24)"/><path d="m0 0l-9.711 6.8c-.471-.48-.808-1.082-.991-1.749l7.215-5.05h3.487" transform="translate(11.859 24)"/></g><g fill="#eee"><path d="m0 0h-15v-10h2v5.836l8.335-5.836h.665c1.117 0 2.126.461 2.852 1.199l-9.712 6.801h3.487l7.215-5.05c.093.337.158.686.158 1.052v.058l-5.631 3.942h5.631v2" transform="translate(37 16)"/><path d="m0 0v-2h5.63l-5.63-3.941v-.059c0-1.091.439-2.078 1.148-2.8l9.711 6.8h2.141v-.943l-9.914-6.942c.294-.069.598-.115.914-.115h.664l8.336 5.837v-5.837h2v10h-15" transform="translate(1 16)"/><path d="m0 0c0 1.091-.439 2.078-1.148 2.8l-9.711-6.8h-2.141v.943l9.915 6.942c-.295.069-.599.115-.915.115h-.663l-8.337-5.837v5.837h-2v-10h15v2h-5.629l5.629 3.941v.059" transform="translate(37 28)"/><path d="m0 0v-5.837l-8.336 5.837h-.664c-1.118 0-2.126-.461-2.852-1.2l9.711-6.8h-3.487l-7.215 5.05c-.092-.337-.157-.685-.157-1.051v-.059l5.628-3.941h-5.628v-2h15v10h-2" transform="translate(14 32)"/></g><path d="m0 0v10h-6v-10h-15v-3-3h15v-10h6v10h15v3 3h-15" fill="#dd2e44" transform="translate(22 22)"/></g></g></svg>