<svg xmlns="http://www.w3.org/2000/svg" viewBox="0 0 47.5 47.5" enable-background="new 0 0 47.5 47.5" xmlns:xlink="http://www.w3.org/1999/xlink"><defs><clipPath id="0"><path d="m0 38h38v-38h-38v38"/></clipPath></defs><g transform="matrix(1.25 0 0-1.25 0 47.5)"><g clip-path="url(#0)"><path d="m0 0c0-4-4-4-4-4h-28c-4 0-4 4-4 4v28c0 4 4 4 4 4h28c0 0 4 0 4-4v-28" fill="#f4900c" transform="translate(37 5)"/><path d="m0 0c0 1.728-.9 3.285-2.685 3.285-1.785 0-2.685-1.557-2.685-3.285 0-1.743.871-3.285 2.685-3.285 1.814 0 2.685 1.542 2.685 3.285m-7.598 0c0 2.971 1.999 5.256 4.913 5.256 2.871 0 4.913-2.357 4.913-5.256 0-2.957-1.985-5.256-4.913-5.256-2.899 0-4.913 2.299-4.913 5.256" fill="#fff" transform="translate(15.841 20.08)"/><path d="m0 0c0 .586.4 1.114 1.114 1.114h3.657c.627 0 .957-.485.957-.985 0-.486-.315-.985-.957-.985h-2.628v-2.086h2.213c.686 0 1.029-.486 1.029-.971 0-.5-.343-1-1.029-1h-2.213v-3.113c0-.714-.457-1.115-1.072-1.115-.614 0-1.071.401-1.071 1.115v8.03" fill="#fff" transform="translate(19.526 24.05)" id="1"/><use transform="translate(7.771)" xlink:href="#1"/><path d="m0 0v-4h-14v20h14v-2h2v4c0 3-3 3-3 3h-12c-3 0-3-3-3-3v-24c0-3 3-3 3-3h12c3 0 3 3 3 3v6h-2" fill="#fff" transform="translate(20 13)"/></g></g></svg>