<svg xmlns="http://www.w3.org/2000/svg" viewBox="0 0 47.5 47.5" enable-background="new 0 0 47.5 47.5" xmlns:xlink="http://www.w3.org/1999/xlink"><defs><path id="1" d="m0 0c0-.955-.793-1.729-1.771-1.729-.978 0-1.771.774-1.771 1.729 0 .955.793 1.729 1.771 1.729.978 0 1.771-.774 1.771-1.729" fill="#88c9f9"/><clipPath id="0"><path d="m0 38h38v-38h-38v38"/></clipPath></defs><g transform="matrix(1.25 0 0-1.25 0 47.5)"><g clip-path="url(#0)"><path d="m0 0c-.56 2.797-2.108 6.956-3.707 10.02 1.8 1.248 3.359 3.716 3.359 8.483-.652.502-1.281.502-2.652.502-1.37 0-3.771 1-3.771 1h-.686-.685c0 0-2.171-1-2.858-1-.686 0-3.043.043-3.513-.427 0-4.709 1.613-7.207 3.337-8.49-1.573-3.077-3.125-7.29-3.824-10.08-1-4-.034-9.327 0-9.5.312-1.584 2.254-3.5 7.5-3.5 5.246 0 7.02 1.999 7.5 3.5.056.175 1 4.5 0 9.5" fill="#55acee" transform="translate(34 16)"/><path d="m0 0c0-.988-2.162-1.789-7.083-1.789-4.921 0-7.083.801-7.083 1.789 0 .989 2.162 1.789 7.083 1.789 4.921 0 7.083-.8 7.083-1.789" fill="#3b88c3" transform="translate(33.626 34.704)"/><path d="m0 0c-3.154 0-5.515.701-6.154 1-.5.235-.716.83-.481 1.33.235.5.827.716 1.33.481.732-.344 5.593-1.708 11.04.094.522.172 1.09-.112 1.263-.636.174-.525-.111-1.09-.636-1.264-2.274-.751-4.466-1.01-6.367-1.01" fill="#88c9f9" transform="translate(26.431 32.356)"/><path d="m0 0c0 1.104-.868 1.389-2.542 1.389h-5.301-.837-.837-5.301c-.838 0-2.478.48-2.478-1.297 0-10.199 6.195-11.906 8.366-11.906 3.01 0 8.93 1.55 8.93 11.814" fill="#ccd6dd" transform="translate(20.652 12.611)"/><path d="m0 0c0-1.206-2.639-2.184-8.649-2.184-6.01 0-8.649.978-8.649 2.184 0 1.207 2.639 2.184 8.649 2.184 6.01 0 8.649-.977 8.649-2.184" fill="#8899a6" transform="translate(20.621 13.309)"/><path d="m0 0c-3.801 0-6.643.841-7.413 1.202-.5.235-.715.829-.482 1.329.235.501.829.718 1.331.482.906-.425 6.927-2.115 13.649.105.527.175 1.09-.11 1.263-.636.174-.524-.111-1.089-.635-1.262-2.757-.911-5.411-1.22-7.713-1.22" fill="#fff" transform="translate(11.828 10.662)"/><use transform="translate(29.667 20.605)" xlink:href="#1"/><use transform="translate(31.667 18.605)" xlink:href="#1"/><use transform="translate(29.667 17.605)" xlink:href="#1"/><g fill="#88c9f9"><path d="m0 0c.658-.262.974-1.021.706-1.694-.269-.674-1.019-1.01-1.678-.745-.657.261-.973 1.02-.705 1.694.268.674 1.02 1.01 1.677.745" transform="translate(23.07 11.05)"/><path d="m0 0c.658-.262.974-1.021.706-1.694-.269-.674-1.02-1.01-1.678-.746-.657.262-.974 1.021-.705 1.695.269.674 1.02 1.01 1.677.745" transform="translate(25 11.876)"/><path d="m0 0c.657-.262.973-1.021.705-1.694-.268-.674-1.019-1.01-1.678-.745-.657.261-.973 1.02-.705 1.694.269.674 1.021 1.01 1.678.745" transform="translate(25.14 10.224)"/></g><g fill="#bbddf5"><path d="m0 0c0-.621-.504-1.125-1.125-1.125-.621 0-1.125.504-1.125 1.125 0 .621.504 1.125 1.125 1.125.621 0 1.125-.504 1.125-1.125" transform="translate(29.75 18.875)"/><path d="m0 0c0-.437-.354-.791-.792-.791-.437 0-.791.354-.791.791 0 .437.354.792.791.792.438 0 .792-.355.792-.792" transform="translate(24.792 9.916)"/></g></g></g></svg>