<svg xmlns="http://www.w3.org/2000/svg" viewBox="0 0 47.5 47.5" enable-background="new 0 0 47.5 47.5"><defs><clipPath id="0"><path d="m0 38h38v-38h-38v38"/></clipPath></defs><g transform="matrix(1.25 0 0-1.25 0 47.5)"><g clip-path="url(#0)"><path d="m0 0c-1.352.427-3.842 3.363-6 3.363-3 0-3 7-4 9-1 2-3 4-3 5 0 1-3 2-8 0-5-2-8-2-10-2-2 0-3-2-4-4-1-2 0-2 0-2 1-1 2 2 4 3 2 1 3-1 5 0 1.493.747 4.658-.178 7 .137.794.106 1.493.356 2 .863 0 0 0-8 2-11 0 0-1-1-2-4-1-3-2 0-2 2 0 2-1 5-5 7-1.789.895-5.658.683-7-2-2-4 0-8 2-9 2-1 3-2 7-2 1.943 0 17.813-.48 22-.364v6" fill="#d99e82" transform="translate(37 16.637)"/><path d="m0 0c2.186 1.941 5.633 1.687 8.03-.472-.716 1.373-2.01 2.777-4.207 3.877-1.789.895-5.658.683-7-2-2-4 0-8 2-9 .24-.119.463-.239.681-.356-1.813 2.621-1.665 6.03.501 7.951" fill="#269" transform="translate(9.182 20.595)"/><g fill="#c1694f"><path d="m0 0c-.128 0-.256.049-.354.146-.195.196-.195.512 0 .708 1.134 1.133 2.305 1.146 2.354 1.146.276 0 .5-.224.5-.5 0-.276-.224-.5-.5-.5-.028 0-.821-.028-1.646-.854-.098-.097-.226-.146-.354-.146" transform="translate(13 18.5)"/><path d="m0 0c-.128 0-.256.049-.354.146-.195.196-.195.512 0 .708 1.134 1.133 2.305 1.146 2.354 1.146.276 0 .5-.224.5-.5 0-.276-.224-.5-.5-.5-.028-.001-.821-.028-1.646-.854-.098-.097-.226-.146-.354-.146" transform="translate(9 15.5)"/></g><g fill="#55acee"><path d="m37 13h-36v-12h36v12"/><path d="m0 0c3 2 7 5 6 3-1-2-1-3 1-2 2 1 5 2 4 0-1-2 2-1 3 0 1 1 4 0 3-1-1-1-9-2-12-2-3 0-5 2-5 2" transform="translate(7 13)"/></g></g></g></svg>