<svg xmlns="http://www.w3.org/2000/svg" viewBox="0 0 47.5 47.5" enable-background="new 0 0 47.5 47.5"><defs><clipPath id="0"><path d="m0 38h38v-38h-38v38"/></clipPath></defs><g transform="matrix(1.25 0 0-1.25 0 47.5)"><path d="M 0,0 -10.95,10.949 -1.563,18.77 7.821,9.385 0,0 Z" fill="#be1931" transform="translate(24.651 13.703)"/><g clip-path="url(#0)"><path d="m0 0c-1.727-1.729-4.528-1.729-6.255 0l-6.257 6.256c-1.729 1.727-1.729 4.53 0 6.258 1.726 1.727 4.529 1.727 6.257 0l6.255-6.258c1.729-1.727 1.729-4.528 0-6.256" fill="#dd2e44" transform="translate(35.6 23.09)"/><path d="m0 0c0 0 5.771 10.952-2.049 3.13-7.821-7.821-13.593-17.205-12.811-17.989.781-.784 10.168 4.991 17.988 12.812 7.821 7.821-3.128 2.047-3.128 2.047" fill="#99aab5" transform="translate(16.05 16.05)"/><path d="m0 0c-1.727-1.729-4.528-1.729-6.258 0l-10.948 10.951c-1.727 1.727-1.727 4.528 0 6.256 1.728 1.729 4.531 1.729 6.258 0l10.948-10.949c1.729-1.73 1.729-4.529 0-6.258" fill="#dd2e44" transform="translate(26.21 9.01)"/></g></g></svg>