<svg xmlns="http://www.w3.org/2000/svg" viewBox="0 0 47.5 47.5" enable-background="new 0 0 47.5 47.5"><defs><clipPath id="0"><path d="m0 38h38v-38h-38v38"/></clipPath></defs><g transform="matrix(1.25 0 0-1.25 0 47.5)"><g clip-path="url(#0)"><path d="m0 0c-2.093 1.848-6.686 3.264-10.178 3.84 3.492.577 8.09 1.993 10.178 3.84 2.01 1.776 2.963 2.947 2.141 4.721-.567 1.22-2.855 1.334-4.166 2.491-1.312 1.158-1.444 3.177-2.827 3.675-2.01.726-3.336-.113-5.346-1.888-2.094-1.847-3.698-5.899-4.353-8.981-.653 3.082-2.258 7.135-4.351 8.981-2.02 1.776-3.341 2.614-5.351 1.888-1.383-.5-1.512-2.518-2.823-3.675-1.312-1.158-3.603-1.274-4.167-2.494-.823-1.773.129-2.943 2.14-4.718 2.094-1.847 6.688-3.263 10.181-3.84-3.493-.576-8.09-1.993-10.181-3.84-2.01-1.775-2.963-2.945-2.139-4.721.566-1.218 2.854-1.334 4.166-2.49 1.311-1.158 1.444-3.178 2.826-3.676 2.01-.726 3.337.116 5.348 1.889 1.652 1.457 2.997 4.288 3.814 6.933-.262-4.536.528-10.591 3.853-14.262 1.343-1.484 2.407-.551 2.822-.187.416.366 1.604 1.414.185 2.823-3.91 3.882-5.265 7.917-5.627 11.139.827-2.498 2.106-5.077 3.657-6.446 2.01-1.775 3.339-2.615 5.35-1.889 1.382.5 1.512 2.52 2.823 3.676 1.312 1.158 3.602 1.274 4.166 2.494.822 1.774-.129 2.944-2.141 4.717" fill="#77b255" transform="translate(33.551 18.15)"/></g></g></svg>