<svg xmlns="http://www.w3.org/2000/svg" viewBox="0 0 47.5 47.5" enable-background="new 0 0 47.5 47.5"><defs><clipPath id="0"><path d="m0 38h38v-38h-38v38"/></clipPath></defs><g transform="matrix(1.25 0 0-1.25 0 47.5)"><g clip-path="url(#0)"><path d="m0 0c-.193 0-.638.037-.824.114-.56.233-1.175.78-1.175 1.386v7h-7c-.607 0-1.154.615-1.386 1.176-.233.56-.104 1.331.325 1.76l23.06 23.06c1 1 3 1 4 0l7-7c1-1 1-3 0-4l-22.857-22.854c-.37-.496-.753-.646-1.144-.646" fill="#55acee" transform="translate(12 1.5)"/></g></g></svg>