<svg xmlns="http://www.w3.org/2000/svg" viewBox="0 0 47.5 47.5" enable-background="new 0 0 47.5 47.5"><defs><clipPath id="0"><path d="m0 38h38v-38h-38v38"/></clipPath></defs><g transform="matrix(1.25 0 0-1.25 0 47.5)"><g clip-path="url(#0)"><path d="m0 0c0 2-2.127 4.702-4 4-8-3-19 2-19 2-2.209 0-6.857-9.257-5-10 .277-.111.541-.227.799-.343-2.151-.744-2.516-2.466-.799-2.657 9-1 6.896-14 8-14 1.344 0 2.685 2.614 3.422 5h9.8c.288-2.354.866-5 1.778-5 .866 0 2.611 3.542 3.794 9.142.734 2.626 1.206 6.532 1.206 11.858" fill="#ccd6dd" transform="translate(35 22)"/><g fill="#292f33"><path d="m0 0c-2 0-4.946-.087-6.973-.087-2.027 0-3.644 3.478-2.336 4.782 1.309 1.305 5.309 2.305 4.309 6.305-.542 2.169 4 3 6 2 4.816-2.408 5-10-2-10 0 0 3-3 1-3" transform="translate(11 15)"/><path d="m0 0c-2.586-.97-5.485-1.101-8.226-.838-1.105-1.393-1.774-3.193-1.774-5.162 0-4.418 3.357-8 7.5-8 2.587 0 4.866 1.396 6.215 3.521.181 1.872.285 4.02.285 6.479 0 2-2.127 4.702-4 4" transform="translate(31 26)"/><path d="m0 0c0-1.933-1.567-3.5-3.5-3.5-1.933 0-3.5 1.567-3.5 3.5 0 1.934 1.567 3.5 3.5 3.5 1.933 0 3.5-1.566 3.5-3.5" transform="translate(22 12.5)"/><path d="m0 0c0-1.104-.896-2-2-2-1.104 0-2 .896-2 2 0 1.104.896 2 2 2 1.104 0 2-.896 2-2" transform="translate(33 9)"/></g><g fill="#ccd6dd"><path d="m0 0c0-.552-.671-1-1.5-1-.829 0-4.5 2.448-4.5 3 0 .552 2.23.308 3 0 2.5-1 3-1.448 3-2" transform="translate(12 28)"/><path d="m0 0c0-.552-.448-1-1-1-.552 0-1 .448-1 1 0 .552.448 1 1 1 .552 0 1-.448 1-1" transform="translate(10 24)"/></g><path d="m0 0c-.553 0-1 .447-1 1v5c0 1.439-.561 2-2 2-.553 0-1 .448-1 1 0 .552.447 1 1 1 2.542 0 4-1.458 4-4v-5c0-.553-.447-1-1-1" fill="#292f33" transform="translate(36 13)"/></g></g></svg>