<svg xmlns="http://www.w3.org/2000/svg" viewBox="0 0 47.5 47.5" enable-background="new 0 0 47.5 47.5"><defs><clipPath id="0"><path d="m0 38h38v-38h-38v38"/></clipPath><clipPath id="1"><path d="m3 19c0-8.836 7.164-16 16-16 8.836 0 16 7.164 16 16 0 8.836-7.164 16-16 16-8.836 0-16-7.164-16-16m11.235 0c0 2.632 2.133 4.764 4.765 4.764 2.631 0 4.765-2.132 4.765-4.764 0-2.631-2.134-4.766-4.765-4.766-2.632 0-4.765 2.135-4.765 4.766"/></clipPath></defs><g transform="matrix(1.25 0 0-1.25 0 47.5)"><g clip-path="url(#0)"><path d="m0 0c-1.657 0-3-1.343-3-3 0-1.657 1.343-3 3-3 1.657 0 3 1.343 3 3 0 1.657-1.343 3-3 3m18-3c0-9.941-8.06-18-18-18-9.941 0-18 8.06-18 18 0 9.941 8.06 18 18 18 9.941 0 18-8.06 18-18" fill="#ffd983" transform="translate(19 22)"/></g><g clip-path="url(#1)"><g fill="#ffac33" transform="translate(19 19)"><path d="m0 0l-18 2v16h16l2-18"/><path d="m0 0l18-2v-16h-16l-2 18"/></g><g fill="#ffe8b6" transform="translate(19 19)"><path d="m0 0l2.125-19 15.875 1-18 18"/><path d="m0 0l-18 18 16 1 2-19"/></g></g></g></svg>