<svg xmlns="http://www.w3.org/2000/svg" viewBox="0 0 47.5 47.5" enable-background="new 0 0 47.5 47.5" xmlns:xlink="http://www.w3.org/1999/xlink"><defs><path id="2" d="m0 0c0 0 2-4 1-9 2 3 2 9 2 9s-2 1-3 0" fill="#292f33"/><clipPath id="0"><path d="m0 38h38v-38h-38v38"/></clipPath><clipPath id="1"><path d="m8 23c-3 0-7-4.375-7-6.375 0-2 2-3.625 2-3.625 0 0 2.171 1 5 1h3l1-10c0 0-1-1-2-1-1 0-1-2-1-2h6l1 8h3c2 0 6 1 6 1 2-3 4-4 4-4v-2l-2-1c-2-1-1-2-1-2h6c0 0 1 8 2 13 1 5 0 6-2 7-2 1-5 0-9 0-2 0-3.901 3-9 3-1 0-3-1-6-1"/></clipPath></defs><g transform="matrix(1.25 0 0-1.25 0 47.5)"><g clip-path="url(#0)"><path d="m0 0c-.367.33-.818.592-1.338.852-2 1-5 0-9 0-2 0-3.901 3-9 3-.801 0-2.256-.635-4.341-.89-.039 1.053-.614 1.89-1.326 1.89-.736 0-1.333-.895-1.333-2 0-.051.007-.1.01-.15-2.819-.766-6.01-4.439-6.01-6.225 0-2 2-3.625 2-3.625 0 0 2.171 1 5 1h3l1-10c0 0-1-1-2-1-1 0-1-2-1-2h6l1 8h3c2 0 6 1 6 1 2-3 4-4 4-4v-2l-2-1c-2-1-1-2-1-2h6c0 0 1 8 2 13 .233 1.162.353 2.101.382 2.881.396-.549.618-1.183.618-1.881 0-2.93 0-5.697-1.832-8.445-.307-.46-.183-1.08.277-1.387.171-.113.364-.168.554-.168.323 0 .641.156.833.445 2.168 3.252 2.168 6.456 2.168 9.555 0 2.297-1.395 4.137-3.662 5.148" fill="#ffac33" transform="translate(33.34 20.15)"/><g fill="#292f33"><path d="m0 0c0-.552-.448-1-1-1-.552 0-1 .448-1 1 0 .552.448 1 1 1 .552 0 1-.448 1-1" transform="translate(7 20)"/><path d="m0 0c0 0 0-2 1-2s1 2 1 2c0 0-1 1-2 0" transform="translate(1 17)"/></g></g><g clip-path="url(#1)"><path d="m0 0c0 0 2-6 0-12 3 4 3 12 3 12s-2 1-3 0" fill="#292f33" transform="translate(17 24)"/><use transform="translate(20 23)" xlink:href="#2"/><use transform="translate(23 24)" xlink:href="#2"/><use transform="translate(26 25)" xlink:href="#2"/><use transform="translate(29 22.556)" xlink:href="#2"/><use transform="translate(13 25)" xlink:href="#2"/></g></g></svg>