<svg xmlns="http://www.w3.org/2000/svg" viewBox="0 0 47.5 47.5" enable-background="new 0 0 47.5 47.5"><defs><clipPath id="0"><path d="m0 38h38v-38h-38v38"/></clipPath></defs><g transform="matrix(1.25 0 0-1.25 0 47.5)"><path d="m0 0h28l-9.625 17h-8.75l-9.625-17" fill="#a7a9ac" transform="translate(1 1)"/><path d="M 0,0 22.75,0 14,17 8.75,17 0,0 Z" fill="#58595b" transform="translate(3.625 1)"/><path d="m0 0h17.5l-7.875 17h-1.75l-7.875-17" fill="#808285" transform="translate(6.25 1)"/><g clip-path="url(#0)"><g fill="#a7a9ac"><path d="m0 0c0-.553-.447-1-1-1h-18c-.552 0-1 .447-1 1 0 .553.448 1 1 1h18c.553 0 1-.447 1-1" transform="translate(25 2)"/><path d="m0 0c0-.553-.447-1-1-1h-14c-.552 0-1 .447-1 1 0 .553.448 1 1 1h14c.553 0 1-.447 1-1" transform="translate(23 6)"/><path d="m0 0c0-.553-.447-1-1-1h-10c-.552 0-1 .447-1 1 0 .553.448 1 1 1h10c.553 0 1-.447 1-1" transform="translate(21 10)"/></g><path d="m0 0c.984-1.226 2.29-2.18 3.604-2.18h7c1.313 0 2.62.955 3.604 2.18l-2.23 3.938c-1.189-.097-2.755-.118-4.874-.118-2.157 0-3.74-.023-4.937.008l-2.167-3.828" fill="#58595b" transform="translate(7.896 13.18)"/><path d="m0 0c0-.552-.448-1-1-1-.552 0-1 .448-1 1v1c0 .552.448 1 1 1 .552 0 1-.448 1-1v-1" fill="#414042" transform="translate(16 34)"/><path d="m0 0c0-1.104-.896-2-2-2h-4c-1.104 0-2 .896-2 2 0 1.104.896 2 2 2h4c1.104 0 2-.896 2-2" fill="#6d6e71" transform="translate(19 32)"/><path d="m0 0c0-2.209-3.412-5-5.4-5h-7.2c-1.988 0-5.4 2.791-5.4 5v10c0 2.209 1.612 4 3.6 4h10.8c1.988 0 3.6-1.791 3.6-4v-10" fill="#d1d3d4" transform="translate(24 19)"/><path d="m0 0c0-2.209-1.791-4-4-4h-6c-2.209 0-4 1.791-4 4v5c0 2.209 1.791 3 4 3h6c2.209 0 4-.791 4-3v-5" fill="#808285" transform="translate(22 21)"/><path d="m0 0h6c2.209 0 4 1.791 4 4v1h-14v-1c0-2.209 1.791-4 4-4" fill="#55acee" transform="translate(12 22)"/><path d="m0 0c-6.3 0-7.878 1.801-9 3.242v-1.242c0-2.209 2.7-6 5.4-6h7.2c2.7 0 5.4 3.791 5.4 6v1.891c-1.121-1.73-2.7-3.891-9-3.891" fill="#5c913b" transform="translate(15 17)"/><g fill="#ffd983"><path d="m0 0c0-.828-.672-1.5-1.5-1.5-.829 0-1.5.672-1.5 1.5 0 .829.671 1.5 1.5 1.5.828 0 1.5-.671 1.5-1.5" transform="translate(12 19.5)"/><path d="m0 0c0-.828-.672-1.5-1.5-1.5-.828 0-1.5.672-1.5 1.5 0 .829.672 1.5 1.5 1.5.828 0 1.5-.671 1.5-1.5" transform="translate(21 19.5)"/></g><path d="m0 0v2c0 1.104-.896 2-2 2h-10c-1.104 0-2-.896-2-2v-2h14" fill="#292f33" transform="translate(22 27)"/><path d="m0 0c0-.552-.447-1-1-1h-4c-.552 0-1 .448-1 1 0 .552.448 1 1 1h4c.553 0 1-.448 1-1" fill="#6d6e71" transform="translate(18 29)"/><path d="m0 0l9-13.06h4v5h-4l-9 10v-1.939" fill="#58595b" transform="translate(24 14.06)"/><path d="m0 0v10h-13l9-10h4" fill="#a7a9ac" transform="translate(37 6)"/><path d="m0 0c0-1 0-1-1-1-1 0-1 0-1 1v11c0 .552.447 1 1 1 .553 0 1-.448 1-1v-11" fill="#6d6e71" transform="translate(34 13)"/><path d="m0 0c0-1 0-1-1-1-1 0-1 0-1 1v7c0 .552.447 1 1 1 .553 0 1-.448 1-1v-7" fill="#939598" transform="translate(34 20)"/><path d="m0 0c0-1.104-.896-2-2-2h-4c-1.104 0-2 .896-2 2v2c0 1.104.896 2 2 2h4c1.104 0 2-.896 2-2v-2" fill="#58595b" transform="translate(37 26)"/><path d="m0 0c0-.552-.447-1-1-1h-2c-.553 0-1 .448-1 1 0 .552.447 1 1 1h2c.553 0 1-.448 1-1" fill="#939598" transform="translate(35 27)"/></g></g></svg>