<svg xmlns="http://www.w3.org/2000/svg" viewBox="0 0 47.5 47.5" enable-background="new 0 0 47.5 47.5" xmlns:xlink="http://www.w3.org/1999/xlink"><defs><clipPath id="0"><path d="m0 38h38v-38h-38v38"/></clipPath></defs><g transform="matrix(1.25 0 0-1.25 0 47.5)"><g clip-path="url(#0)"><path d="m0 0c0-2.209-1.791-4-4-4h-28c-2.209 0-4 1.791-4 4v28c0 2.209 1.791 4 4 4h28c2.209 0 4-1.791 4-4v-28" fill="#3b88c3" transform="translate(37 5)"/><g fill="#fff"><path d="m0 0c.549 1.394 1.234 2.861 2.175 4.142-1.178 1.511-2.777 2.575-5.128 2.575h-3v-4h3c1.307 0 2.119-.896 2.953-2.717" transform="translate(13.953 21.283)"/><path d="m0 0c-.479-1.314-1.059-2.777-1.852-4.132 1.089-1.046 2.489-1.727 4.372-1.727h3v4h-3c-1.083 0-1.823.62-2.52 1.859" transform="translate(20.481 15.859)"/><path d="m0 0h-3v4h3c1.884 0 2.739 1.816 4.117 5.673 1.324 3.71 2.973 8.327 7.883 8.327h3v-4h-3c-1.885 0-2.739-1.817-4.117-5.673-1.324-3.71-2.973-8.327-7.883-8.327" transform="translate(11 10)"/></g><path d="m0 0l-7.2 6v-12l7.2 6" fill="#fff" transform="translate(31.2 26)" id="1"/><use transform="translate(0-14)" xlink:href="#1"/></g></g></svg>