<svg xmlns="http://www.w3.org/2000/svg" viewBox="0 0 47.5 47.5" enable-background="new 0 0 47.5 47.5" xmlns:xlink="http://www.w3.org/1999/xlink"><defs><path id="2" d="m0 0c0-1.381 1.119-2.5 2.5-2.5 1.381 0 2.5 1.119 2.5 2.5 0 1.381-1.119 2.5-2.5 2.5-1.381 0-2.5-1.119-2.5-2.5" fill="#e1e8ed"/><clipPath id="0"><path d="m0 38h38v-38h-38v38"/></clipPath><clipPath id="1"><path d="m5 37c-2.209 0-4-1.791-4-4v-28c0-2.209 1.791-4 4-4h28c2.209 0 4 1.791 4 4v28c0 2.209-1.791 4-4 4h-28"/></clipPath></defs><g transform="matrix(1.25 0 0-1.25 0 47.5)"><g clip-path="url(#0)"><path d="m0 0c0-2.209-1.791-4-4-4h-28c-2.209 0-4 1.791-4 4v28c0 2.209 1.791 4 4 4h28c2.209 0 4-1.791 4-4v-28" fill="#269" transform="translate(37 5)"/></g><g clip-path="url(#1)"><g fill="#ffcc4d"><path d="m0 0c-.03 0-.06.001-.09.004-.345.031-.649.239-.805.549-1.01 2.01-2.259 4.519.063 8 1.984 2.976 4.367 4.825 6.22 4.825 1.262 0 2.612-.888 2.612-3.38 0-.265-.105-.52-.293-.707-.697-.697-4.512-5.7-6.907-8.893-.19-.253-.487-.4-.8-.4" transform="translate(10 21)"/><path d="m0 0c-.038 0-.077.002-.115.007-.336.039-.629.244-.78.546-1.366 2.733-1.029 5.216 1.095 8.05 1.99 2.653 3.356 3.785 4.566 3.785 2.234 0 2.234-3.301 2.234-4.385 0-.265-.105-.52-.293-.707-.766-.766-4.219-4.87-5.939-6.934-.191-.228-.473-.359-.768-.359" transform="translate(13 13)"/></g><g fill="#77b255"><path d="m0 0c-.552 0-1 .447-1 1 0 11.875 5.076 23.49 14.293 32.707.391.391 1.023.391 1.414 0 .391-.391.391-1.023 0-1.414-8.839-8.839-13.707-19.952-13.707-31.29 0-.553-.448-1-1-1" transform="translate(5)"/><path d="m0 0h-.026c-.541 0-.974.445-.974.988 0 2.42 8.299 17.76 17.515 22.88.483.269 1.091.097 1.36-.385.268-.483.094-1.09-.389-1.358-8.661-4.813-16.384-19.289-16.486-21.14-.029-.532-.47-.98-1-.98" transform="translate(6)"/><path d="m0 0c-.475 0-.896.339-.983.822l-.02.111c-.892 4.914-2.572 17.234 1.09 25.473.225.505.814.734 1.32.508.505-.225.732-.815.508-1.32-3.436-7.731-1.809-19.573-.95-24.305l.02-.111c.098-.543-.263-1.064-.806-1.162-.06-.011-.12-.016-.179-.016" transform="translate(3.999)"/><path d="m0 0c-.367 0-.72.202-.896.553-.153.308-.331.707-.527 1.15-.418.945-1.526 3.446-2.162 3.642.003-.023-.21-.17-.521-.792-.248-.493-.847-.694-1.342-.448-.494.248-.695.675-.448 1.169.63 1.26 1.411 1.726 2.321 1.726h.046c1.814 0 2.941-2.415 3.935-4.659.181-.411.345-.695.488-.98.247-.494.046-1.051-.448-1.299-.143-.071-.296-.062-.446-.062" transform="translate(2 13)"/><path d="m0 0c-.552 0-1 .447-1 1 0 2.023-.489 2.47-.639 2.558-.609.363-2.173-.503-3.107-1.02-.291-.16-.563-.31-.807-.433-.494-.246-1.094-.046-1.342.448-.247.494-.046 1.094.448 1.342.222.111.47.248.735.394 1.476.815 3.499 1.929 5.089.991 1.092-.644 1.623-2.044 1.623-4.28 0-.553-.448-1-1-1" transform="translate(19 10)"/></g><path d="m0 0c0-3.038 2.463-5.5 5.5-5.5 3.037 0 5.5 2.462 5.5 5.5 0 3.038-2.463 5.5-5.5 5.5-3.037 0-5.5-2.462-5.5-5.5" fill="#e1e8ed" transform="translate(24 29.5)"/><use transform="translate(24 6.5)" xlink:href="#2"/><use transform="translate(20 6.5)" xlink:href="#2"/><use transform="translate(28 6.5)" xlink:href="#2"/><use transform="translate(26 10.5)" xlink:href="#2"/><use transform="translate(22 10.5)" xlink:href="#2"/><use transform="translate(24 14.5)" xlink:href="#2"/><path d="m19 5h15v-4h-15v4" fill="#c1694f"/></g></g></svg>