<svg xmlns="http://www.w3.org/2000/svg" viewBox="0 0 47.5 47.5" enable-background="new 0 0 47.5 47.5"><defs><clipPath id="0"><path d="m0 38h38v-38h-38v38"/></clipPath></defs><g transform="matrix(1.25 0 0-1.25 0 47.5)"><g clip-path="url(#0)"><path d="m0 0c0 10-7.163 16-16 16-8.836 0-16-6-16-16 0-5.574.002-10.388 6-12.64v-4.36c0-1.657 1.343-3 3-3 1.657 0 3 1.343 3 3v3.155c.324-.027.659-.05 1-.07v-3.085c0-1.657 1.343-3 3-3 1.657 0 3 1.343 3 3v3.085c.342.02.676.043 1 .07v-3.155c0-1.657 1.344-3 3-3 1.657 0 3 1.343 3 3v4.36c5.998 2.252 6 7.07 6 12.64" fill="#bcbec0" transform="translate(35 21)"/><g fill="#414042"><path d="m0 0c0-2.761 0-5-5-5-5 0-5 2.239-5 5s2.239 5 5 5c2.761 0 5-2.239 5-5" transform="translate(17 23)"/><path d="m0 0c0-2.761 0-5-5-5-5 0-5 2.239-5 5s2.238 5 5 5c2.762 0 5-2.239 5-5" transform="translate(31 23)"/></g><path d="m0 0c-.252.612-1 1.062-1.903 1.062-.9 0-1.652-.45-1.904-1.062-.631-.177-1.096-.751-1.096-1.438 0-.829.671-1.5 1.5-1.5.654 0 1.205.421 1.41 1.01.03-.001.059-.006.09-.006.03 0 .059.005.09.006.205-.585.755-1.01 1.41-1.01.828 0 1.5.671 1.5 1.5 0 .687-.466 1.26-1.097 1.438" fill="#6d6e71" transform="translate(20.903 13.939)"/></g></g></svg>