<svg xmlns="http://www.w3.org/2000/svg" viewBox="0 0 47.5 47.5" enable-background="new 0 0 47.5 47.5"><defs><clipPath id="0"><path d="m0 38h38v-38h-38v38"/></clipPath><clipPath id="1"><path d="m18 30l-1-10h4l-1 10h-2"/></clipPath></defs><g transform="matrix(1.25 0 0-1.25 0 47.5)"><g clip-path="url(#0)"><path d="m0 0c0 0 0-4-4-4h-28c0 0-4 0-4 4v28c0 4 4 4 4 4h28c4 0 4-4 4-4v-28" fill="#88c9f9" transform="translate(37 5)"/><path d="m0 0h-1v-3h2v3h-1" fill="#fff" transform="translate(19 32)"/><g fill="#dd2e44"><path d="m0 0c0 0 0 1-1 1-1 0-1-1-1-1v-2h2v2" transform="translate(20 34)"/><path d="m0 0l-1-10h4l-1 10h-2" transform="translate(18 30)"/></g></g><g clip-path="url(#1)"><path d="m16 24h6v3h-6v-3" fill="#fff"/></g><g clip-path="url(#0)"><path d="m15 17h8v4h-8v-4" fill="#fff"/><g fill="#dd2e44"><path d="m16 13h6v4h-6v-4"/><path d="m0 0c0 0 0-11-10-16h3c0 0 7 3 9 16h-2" transform="translate(16 17)"/><path d="m0 0c0 0 0-11 10-16h-3c0 0-7 3-9 16h2" transform="translate(22 17)"/><path d="m20 1h-2v13h2v-13"/><path d="m0 0c0 0 5 3 10 3 5 0 10-3 10-3v1.884c0 0-5 3.116-10 3.116-5 0-10-3.116-10-3.116v-1.884" transform="translate(9 1)"/></g></g></g></svg>