<svg xmlns="http://www.w3.org/2000/svg" viewBox="0 0 47.5 47.5" enable-background="new 0 0 47.5 47.5"><defs><clipPath id="0"><path d="m0 38h38v-38h-38v38"/></clipPath></defs><g transform="matrix(1.25 0 0-1.25 0 47.5)"><g clip-path="url(#0)"><path d="m0 0c6.48 1.275 8.453-1.265 11.655-.084 3.202 1.181.093-2.82-.745-3.508-.84-.689-8.14-4.809-11.306-3.298-3.167 1.511-3.184 6.185.396 6.89" fill="#5c913b" transform="translate(12.405 33.661)"/><path d="m0 0c-.304 0-.604.138-.801.4-.687.916-1.308 1.955-1.965 3.056-2.268 3.795-4.839 8.098-11.452 9.568-.539.12-.879.654-.759 1.193.12.539.654.878 1.193.759 7.454-1.656 10.382-6.557 12.735-10.495.63-1.054 1.224-2.049 1.848-2.881.331-.442.242-1.069-.2-1.4-.18-.135-.391-.2-.599-.2" fill="#77b255" transform="translate(16 21)"/><path d="m0 0c.002.017-.003.028-.003.043 2.774 5.335 2.648 15.11-3.346 21.11-5.8 5.8-13.679 5.821-18.767 4.067-1.578-.614-2.916-.066-3.815-.965-.881-.881-.351-2.719-.714-3.819-3.169-5.202-3.405-13.03 2.687-19.12 4.962-4.962 10.438-6.841 19.98-4.852.002.002.005.001.008.002 1.149.218 2.95-.524 3.567.094 1.086 1.085.309 2.357.403 3.44" fill="#ffcc4d" transform="translate(35.3 5.466)"/><path d="m0 0c0 0-4.27.59-6.857-4.599-2.588-5.188.582-9.124.289-12.652-.293-3.531 1.566-1.265 2.621.445 1.055 1.71 4.23 4.894 4.938 9.269.708 4.374-.069 6.456-.991 7.537" fill="#77b255" transform="translate(9.208 30.418)"/></g></g></svg>