<svg xmlns="http://www.w3.org/2000/svg" viewBox="0 0 47.5 47.5" enable-background="new 0 0 47.5 47.5"><defs><clipPath id="0"><path d="m0 38h38v-38h-38v38"/></clipPath><clipPath id="1"><path d="m19.456 19.727c0 0 3.078-12.977 9.304-16.719 1.041-.625 2.135-.98 2.169-.035.028.769-.034 3.01-.243 3.742.7-.316 2.412-.63 3.601-.49 1.189.14 2.554 1.574 1.085 1.644-6.331-.315-8.709 13.467-9.234 15.15-1.295-.594-5.807-2.763-6.682-3.288"/></clipPath></defs><g transform="matrix(1.25 0 0-1.25 0 47.5)"><g clip-path="url(#0)"><path d="m0 0c-.353 0-.694.187-.877.518-1 1.82-1.381 3.77-1.685 5.336-.082.427-.161.834-.248 1.215-.123.538.214 1.075.752 1.198.543.123 1.076-.214 1.198-.753.091-.401.174-.83.262-1.279.291-1.504.621-3.207 1.473-4.753.267-.483.09-1.091-.394-1.358-.153-.084-.318-.124-.481-.124" transform="translate(22.293 21.542)"/><path d="m0 0c.875.524 5.387 2.693 6.682 3.288.524-1.679 2.903-15.462 9.234-15.15 1.469-.07.105-1.504-1.085-1.644-1.188-.141-2.901.174-3.602.489.21-.734.272-2.972.245-3.742-.035-.945-1.129-.59-2.169.035-6.227 3.742-9.305 16.72-9.305 16.72" fill="#be1931" transform="translate(19.456 19.728)"/></g><g clip-path="url(#1)"><path d="m0 0c.244.14 8.43 3.813 8.43 3.813l-1.259 2.273c0 0-8.15-3.393-8.05-3.393.105 0 .875-2.693.875-2.693" fill="#a0041e" transform="translate(19.212 17.769)"/></g><g clip-path="url(#0)"><path d="m0 0c1.135.454 6.191 2.764 7.205 3.253 1.015.49.7 2.344-.489 1.924-1.19-.42-6.05-2.763-7.206-3.253-1.154-.489-.385-2.274.49-1.924" fill="#ffac33" transform="translate(19.212 19.552)"/><g fill="#a6d388"><path d="m0 0c-1.895 1.62 4.242 5 7.798 6.138-.251-1.072-5.064-8.474-7.798-6.138" transform="translate(7.195 22.956)"/><path d="m0 0c.964 2.299 6.06-2.512 8.226-5.55-1.097-.089-9.616 2.233-8.226 5.55" transform="translate(26.539 32.614)"/></g><path d="m0 0c-.829 0-1.5.672-1.5 1.5 0 .192-.005.438-.011.734-.087 4.165-.059 16.531 8.428 30.808.423.712 1.055 1.254 1.766.831.712-.423.323-1.369-.1-2.081-8.05-13.539-7.177-25.543-7.095-29.495.007-.322.012-.589.012-.797 0-.828-.671-1.5-1.5-1.5" fill="#5c913b" transform="translate(4.084 1.375)"/><path d="m0 0c-.787 0-1.448.613-1.496 1.41-.049.827.58 1.537 1.408 1.587l2.083.125c.825.061 1.537-.58 1.587-1.407.049-.827-.581-1.537-1.408-1.587l-2.083-.125c-.03-.002-.061-.003-.091-.003" fill="#3e721d" transform="translate(3.082 3.959)"/><path d="m0 0c-.095 0-.19.009-.287.027-.814.159-1.345.946-1.187 1.759.035.18.078.448.132.793 3.4 21.295 13.516 28.27 21.799 30.838.799.244 2.104.359 2.349-.431.245-.792-.6-1.282-1.391-1.528-7.472-2.316-16.638-9.579-19.794-29.352-.062-.387-.111-.689-.15-.892-.139-.717-.767-1.214-1.471-1.214" fill="#5c913b" transform="translate(8.71 1.417)"/><g fill="#3e721d"><path d="m0 0c-.199 0-.4.04-.594.123l-2.125.917c-.76.328-1.111 1.21-.783 1.971.328.762 1.211 1.112 1.972.783l2.125-.916c.76-.328 1.111-1.211.783-1.972-.245-.567-.797-.906-1.378-.906" transform="translate(10.916 28.375)"/><path d="m0 0c-.125 0-.251.016-.377.048l-2.25.583c-.802.208-1.284 1.026-1.076 1.828.208.802 1.025 1.285 1.828 1.076l2.25-.583c.802-.208 1.284-1.026 1.076-1.828-.175-.676-.784-1.124-1.451-1.124" transform="translate(6.46 16.08)"/><path d="m0 0c-.481 0-.955.232-1.245.662l-1.292 1.916c-.463.687-.281 1.619.405 2.082.687.462 1.619.282 2.083-.405l1.292-1.917c.463-.687.281-1.619-.405-2.082-.258-.173-.549-.256-.838-.256" transform="translate(23.668 28.25)"/><path d="m0 0c-.235 0-.473.056-.695.172l-2.542 1.334c-.734.385-1.016 1.291-.631 2.025.385.733 1.292 1.016 2.025.631l2.541-1.333c.734-.385 1.017-1.292.632-2.025-.268-.512-.79-.804-1.33-.804" transform="translate(15.665 18.708)"/><path d="m0 0c-.127 0-.255.016-.384.05l-2.208.583c-.801.211-1.279 1.032-1.067 1.833.212.801 1.035 1.279 1.833 1.067l2.208-.583c.801-.211 1.279-1.032 1.067-1.833-.178-.673-.784-1.117-1.449-1.117" transform="translate(10.918 7.04)"/></g><path d="m0 0c-2.252-1.068-2.834 5.917-2.417 9.625.875-.667 5.667-8.08 2.417-9.625" fill="#a6d388" transform="translate(5.959 21.792)"/></g></g></svg>