<svg xmlns="http://www.w3.org/2000/svg" viewBox="0 0 47.5 47.5" enable-background="new 0 0 47.5 47.5" xmlns:xlink="http://www.w3.org/1999/xlink"><defs><path id="1" d="m0 0c0-.702-.667-1.271-1.49-1.271-.822 0-1.489.569-1.489 1.271 0 .701.667 1.271 1.489 1.271.823 0 1.49-.57 1.49-1.271" fill="#662113"/><path id="2" d="m0 0c-.479-.055-.792-.374-1.016-.729-.307-.485-1.01-1-1.878-1-1.104 0-2 .671-2 1.5 0 .83.896 1.5 2 1.5v1.997c-2.166-.021-3.916-1.576-3.916-3.497 0-1.933 1.772-3.5 3.958-3.5 1.854 0 3.347 1.045 3.901 2.57.276.759-.469 1.223-1.049 1.159" fill="#66757f"/><clipPath id="0"><path d="m0 38h38v-38h-38v38"/></clipPath></defs><g transform="matrix(1.25 0 0-1.25 0 47.5)"><g clip-path="url(#0)"><path d="m0 0c0-2.209-1.791-4-4-4h-24c-2.209 0-4 1.791-4 4v19.687c0 2.209 5.791 6.313 8 6.313h18.625c3.094 0 5.375-2.313 5.375-5.375v-20.625" fill="#f4900c" transform="translate(37 11)"/><path d="m0 0c0-2.209-1.791-4-4-4h-20c-2.209 0-4 1.791-4 4v24c0 4.119-.021 4 5 4h19c2.209 0 4-1.791 4-4v-24" fill="#ccd6dd" transform="translate(35 7)"/><path d="m0 0c0-1.657-1.343-3-3-3h-22c-1.657 0-3 1.343-3 3v24c0 1.657 1.343 3 3 3h22c1.657 0 3-1.343 3-3v-24" fill="#e1e8ed" transform="translate(33 6)"/><path d="m0 0c0-2.209-1.791-4-4-4h-19c-2.209 0-4 1.791-4 4v22c0 2.209 1.791 4 4 4h19c2.209 0 4-1.791 4-4v-22" fill="#ffac33" transform="translate(33 5)"/><path d="m0 0c0-2.209-1.791-4-4-4h-17c-2.209 0-4 1.791-4 4v20c0 2.209 1.791 4 4 4h17.335c2.209 0 3.665-1.456 3.665-3.665v-20.335" fill="#ffcc4d" transform="translate(31 5)"/><path d="m0 0c-1.687 0-1.731 1.922-1 2.75.832.941 2.125 1.25 4.438 1.25h1.562v2h-2.719c-3.968 0-7.281-2.5-7.281-5.375v-26.625c0-2.209 1.791-4 4-4h2v30h-1" fill="#f4900c" transform="translate(10 31)"/><use transform="translate(9.542 4.02)" xlink:href="#1"/><path d="m0 0c-.479-.055-.792-.374-1.016-.729-.307-.485-1.01-1-1.878-1-1.104 0-2 .671-2 1.5 0 .83.896 1.5 2 1.5v1.997c-2.166-.021-3.916-1.576-3.916-3.497 0-1.933 1.772-3.5 3.958-3.5 1.854 0 3.347 1.045 3.901 2.57.276.759-.469 1.223-1.049 1.159" fill="#66757f" transform="translate(7.894 4.729)"/><use transform="translate(9.542 12.02)" xlink:href="#1"/><use transform="translate(7.894 12.729)" xlink:href="#2"/><use transform="translate(9.542 20.02)" xlink:href="#1"/><use transform="translate(7.894 20.729)" xlink:href="#2"/><use transform="translate(9.542 28.02)" xlink:href="#1"/><use transform="translate(7.894 28.729)" xlink:href="#2"/></g></g></svg>