<svg xmlns="http://www.w3.org/2000/svg" viewBox="0 0 47.5 47.5" enable-background="new 0 0 47.5 47.5" xmlns:xlink="http://www.w3.org/1999/xlink"><defs><clipPath id="0"><path d="m0 38h38v-38h-38v38"/></clipPath><clipPath id="1"><path d="m7 35c-1.104 0-2-.895-2-2v-30c0-1.105.896-2 2-2h18c1.105 0 2 .895 2 2v30c0 1.105-.895 2-2 2h-18"/></clipPath></defs><g transform="matrix(1.25 0 0-1.25 0 47.5)"><g clip-path="url(#0)"><path d="m0 0v-16h6c0 0 2 0 2 2v12c0 2-2 2-2 2h-6m8-20h-8c-2.205 0-4 1.794-4 4v16c0 2.206 1.795 4 4 4h8c2.206 0 4-1.794 4-4v-16c0-2.206-1.794-4-4-4" fill="#ffac33" transform="translate(24 27)"/><path d="m0 0c0 2.209-1.791 4-4 4h-14c-2.209 0-4-1.791-4-4v-24c0-2.209 1.791-4 4-4h14c2.209 0 4 1.791 4 4v24" fill="#ffcc4d" transform="translate(27 29)"/><path d="m0 0c-.552 0-1 .447-1 1v16c0 .552.448 1 1 1 .552 0 1-.448 1-1v-16c0-.553-.448-1-1-1" fill="#f4900c" transform="translate(10 4)" id="2"/><use transform="translate(6)" xlink:href="#2"/><path d="m0 0c-.553 0-1 .447-1 1v16c0 .552.447 1 1 1 .553 0 1-.448 1-1v-16c0-.553-.447-1-1-1" fill="#f4900c" transform="translate(22 4)"/></g><g clip-path="url(#1)"><path d="m0 0c-1.34 0-2.462-.885-2.847-2.097-.209.057-.425.097-.653.097-.587 0-1.119-.21-1.546-.549-.226 1.994-1.899 3.549-3.954 3.549-1.974 0-3.604-1.434-3.931-3.315-.31.197-.675.315-1.069.315-.499 0-.949-.189-1.299-.491-.597 1.46-2.027 2.491-3.701 2.491-2.209 0-4 5-4-4 0-2.209 1.791-4 4-4 1.674 0 3.104 1.031 3.701 2.491.35-.302.8-.491 1.299-.491.677 0 1.273.338 1.635.853.71-1.111 1.948-1.853 3.365-1.853 1.301 0 2.445.631 3.176 1.593.364-.931 1.264-1.593 2.324-1.593.949 0 1.765.535 2.188 1.314.398-.195.839-.314 1.312-.314 1.657 0 3 1.343 3 3 0 5-1.343 3-3 3" fill="#ffac33" transform="translate(26 31)"/></g><g clip-path="url(#0)"><path d="m0 0c0 2-2 4-4 4h-18c-2 0-4-2-4-4v-2c0-.096.015-.188.028-.279-.018-.509-.028-1.075-.028-1.721 0-2.209 1.791-4 4-4 1.674 0 3.104 1.031 3.701 2.491.35-.302.8-.491 1.299-.491.677 0 1.273.338 1.635.853.71-1.111 1.948-1.853 3.365-1.853 1.301 0 2.445.631 3.176 1.593.364-.931 1.264-1.593 2.324-1.593.949 0 1.765.535 2.188 1.314.398-.195.839-.314 1.312-.314 1.657 0 3 1.343 3 3 0 .309-.005.59-.016.848.004.051.016.1.016.152v2" fill="#e1e8ed" transform="translate(29 33)"/></g></g></svg>