<svg xmlns="http://www.w3.org/2000/svg" viewBox="0 0 47.5 47.5" enable-background="new 0 0 47.5 47.5"><defs><clipPath id="0"><path d="m0 38h38v-38h-38v38"/></clipPath></defs><g transform="matrix(1.25 0 0-1.25 0 47.5)"><g clip-path="url(#0)"><path d="m0 0c-1.75 3.624-5.935 9.05-9.531 9.05-4.071 0-8.228-7.259-10.07-10.378-.176-.299-.321-.578-.464-.857-3.371 1.182-.536 6.632-.536 10.463 0 .958-.138 1.637-.44 2.119.488.606.586 1.347.191 1.699-.412.367-1.193.163-1.744-.456-.079-.089-.129-.186-.189-.28-.424.067-.903.102-1.471.102-.566 0-2.916-.266-4.229-.792-3.118-1.248-2.118-4.666-1.118-4.666h4c1 0 .756-2.31 0-4.726-.83-2.654-1.44-5.145-1-6.606.808-2.687 3.712-3.589 6.164-3.861 1.059-2.659 1.517-6.455 1.473-7.961-.059-2 1.94-2.059 1.999-.059.035 1.211-.103 3.68.143 5.781.658-2.833.935-6.096.899-7.314-.059-1.998 1.94-2.057 1.999-.059.047 1.602-.182 6.36.559 8.983.507-.018 1.044-.031 1.619-.036 1.774-.089 3.726-.085 5.506.015 1.05-1.592 1.996-2.991 1.982-3.435-.029-1-1.117-3.968-1.146-4.968-.03-1 .94-2.03 1.999-.059.648 1.205 1.324 3.419 1.536 5.421.171-.364.274-.656.268-.843-.029-1-.969-3.929-.999-4.929-.029-.998.941-2.028 1.999-.059 1.059 1.971 1.998 4.898 1.058 6.928-.797 1.719.431 4.165.824 7.914 1.082-1.665 1.117-3.351 1.118-3.459 0-.553.448-1 1-1 .553 0 1 .447 1 1 0 .213-.066 4.847-4.398 7.325" fill="#c1694f" transform="translate(32.595 21.993)"/><path d="m0 0c-.016-.552-.477-.986-1.029-.97-.552.016-.986.477-.97 1.029.016.552.477.986 1.029.97.552-.016.987-.477.97-1.029" fill="#292f33" transform="translate(9.28 31.429)"/></g></g></svg>