<svg xmlns="http://www.w3.org/2000/svg" viewBox="0 0 47.5 47.5" enable-background="new 0 0 47.5 47.5"><defs><clipPath id="0"><path d="m0 38h38v-38h-38v38"/></clipPath></defs><g transform="matrix(1.25 0 0-1.25 0 47.5)"><g clip-path="url(#0)"><path d="m0 0c0-2.209-1.791-4-4-4h-28c-2.209 0-4 1.791-4 4v28c0 2.209 1.791 4 4 4h28c2.209 0 4-1.791 4-4v-28" fill="#3b88c3" transform="translate(37 5)"/><path d="m0 0c0 .648.432 1.026 1.134 1.026.675 0 1.187-.378 1.187-1.026v-4.292h8.827v4.292c0 .648.405 1.026 1.107 1.026.675 0 1.187-.378 1.187-1.026v-4.292h4.13c.729 0 1.027-.458 1.027-1.052 0-.594-.298-1.08-.999-1.08h-4.158v-2.889c0-3.266-.674-5.83-1.969-7.72-1.674-2.428-4.671-4.183-7.991-4.75-.135-.027-.243-.027-.351-.027-.593 0-.944.297-1.052.837-.027.108-.027.188-.027.297 0 .54.35.89.971.999 2.645.459 5.237 2.051 6.533 3.94 1.079 1.567 1.592 3.698 1.592 6.883v2.43h-8.827v-6.641c0-.674-.512-1.025-1.187-1.025-.702 0-1.134.351-1.134 1.025v6.641h-4.157c-.701 0-.998.486-.998 1.08 0 .594.297 1.025 1.025 1.025h4.13v4.319" fill="#fff" transform="translate(12.275 29.676)"/></g></g></svg>