<svg xmlns="http://www.w3.org/2000/svg" viewBox="0 0 47.5 47.5" enable-background="new 0 0 47.5 47.5" xmlns:xlink="http://www.w3.org/1999/xlink"><defs><clipPath id="0"><path d="m0 38h38v-38h-38v38"/></clipPath></defs><g transform="matrix(1.25 0 0-1.25 0 47.5)"><g clip-path="url(#0)"><path d="m0 0c0 4.939-6.772 4.457-9.169 4.132-2.433 1.789-5.387 2.868-8.831 2.868-3.438 0-6.388-1.081-8.818-2.869-2.385.325-9.182.817-9.182-4.131 0-2.891 1.563-4.732 2.433-5.533-.947-2.727-1.433-5.642-1.433-8.467 0-9.941 10-13 17-13 7 0 17 3 17 13 0 2.835-.483 5.75-1.426 8.473.871.805 2.426 2.644 2.426 5.527" fill="#bf6952" transform="translate(37 30)"/><g fill="#d79e84"><path d="m0 0c-1.96 0-3.729-.808-5-2.105-1.271 1.297-3.04 2.105-5 2.105-3.866 0-7-3.134-7-7 0-3.866 3.134-7 7-7 1.96 0 3.729.808 5 2.105 1.271-1.297 3.04-2.105 5-2.105 3.866 0 7 3.134 7 7 0 3.866-3.134 7-7 7" transform="translate(24 30)"/><path d="m0 0c0-4.419-3.581-8-8-8-4.418 0-8 3.581-8 8 0 4.419 3.582 8 8 8 4.419 0 8-3.581 8-8" transform="translate(27 10)"/></g><g fill="#bf6952"><path d="m0 0l-3.713-13.82h-7.643l5.356 17.82 6-4" transform="translate(12.356 14.82)"/><path d="m0 0c-2.503 0-5.05-1.61-6.418-2.629-.658 1.066-1.865 2.449-3.686 2.449-.317 0-1.1-.11-1.506-1.133-.173-.435-.261-1-.261-1.69 0-3.551 2.325-10.176 6.767-10.176 3.623 0 5.081.801 5.552 1.16.702.371 4.51 2.521 5.03 5.738.271 1.674-.36 3.292-1.877 4.808-.978.978-2.189 1.473-3.603 1.473" transform="translate(15.46 27)"/></g><path d="m0 0c1.034 0 2.041-.324 2.896-1.18 5-4.999-3-8.999-3-8.999 0 0-1-1-5-1-5 0-7 10.999-5 10.999 2.236 0 3.356-3 3.356-3 0 0 3.51 3.18 6.748 3.18" fill="#d79e84" transform="translate(15.46 26)"/><g fill="#bf6952"><path d="m0 0c-.162 0-.32.078-.417.223-.153.23-.091.54.139.693l6 4c.231.153.541.092.694-.139.153-.23.091-.54-.139-.693l-6-4c-.086-.057-.182-.084-.277-.084" transform="translate(12 21.32)"/><path d="m0 0c-.162 0-.32.078-.417.223-.153.23-.091.54.139.693l6 4c.228.152.538.091.694-.139.153-.23.09-.54-.139-.694l-6-3.999c-.086-.057-.182-.084-.277-.084" transform="translate(14 18.32)"/><path d="m0 0l3-13.82h8l-5 17.82-6-4" transform="translate(26 14.82)"/><path d="m0 0c-1.449 0-2.679-.495-3.656-1.473-1.518-1.516-2.149-3.134-1.877-4.808.521-3.217 4.33-5.367 5.03-5.738.473-.359 1.93-1.16 5.553-1.16 4.442 0 6.766 6.625 6.766 10.176 0 .687-.088 1.255-.26 1.69-.407 1.023-1.189 1.133-1.506 1.133-1.701 0-2.818-1.206-3.446-2.403-1.437 1.015-4.071 2.583-6.605 2.583" transform="translate(22.949 27)"/></g><path d="m0 0c3.337 0 7.05-3.18 7.05-3.18 0 0 .763 3 3 3 2 0 0-10.999-5-10.999-4 0-5 1-5 1 0 0-8 4-3 8.999.855.856 1.883 1.18 2.949 1.18" fill="#d79e84" transform="translate(22.949 26)"/><g fill="#bf6952"><path d="m0 0c-.096 0-.192.027-.277.084l-6 3.999c-.23.154-.292.464-.139.694.152.229.462.292.693.139l6-4c.23-.153.292-.463.139-.693-.097-.145-.255-.223-.416-.223" transform="translate(25 18.5)"/><path d="m0 0c-.096 0-.192.027-.277.084l-6 4c-.23.153-.292.463-.139.693.154.23.465.291.693.139l6-4c.23-.153.292-.463.139-.693-.097-.145-.255-.223-.416-.223" transform="translate(27 21.5)"/></g><path d="m0 0c-.092.147-.253.237-.426.237h-10c-.173 0-.334-.09-.425-.237-.091-.147-.1-.331-.022-.486.087-.175 2.176-4.277 5.447-4.277 3.272 0 5.361 4.102 5.447 4.277.078.155.07.339-.021.486" fill="#642116" transform="translate(24.426 8.263)"/><path d="m0 0c-.276 0-.5.224-.5.5v2c0 .276.224.5.5.5.276 0 .5-.224.5-.5v-2c0-.276-.224-.5-.5-.5" fill="#642116" transform="translate(20 11.5)" id="1"/><use transform="translate(-2)" xlink:href="#1"/></g></g></svg>