<svg xmlns="http://www.w3.org/2000/svg" viewBox="0 0 47.5 47.5" enable-background="new 0 0 47.5 47.5" xmlns:xlink="http://www.w3.org/1999/xlink"><defs><path id="3" d="m0 0c0-.553-.447-1-1-1-.553 0-1 .447-1 1 0 .553.447 1 1 1 .553 0 1-.447 1-1" fill="#cbb7ea"/><path id="4" d="m0 0c0-.553-.448-1-1-1-.552 0-1 .447-1 1 0 .553.448 1 1 1 .552 0 1-.447 1-1" fill="#f4abba"/><clipPath id="0"><path d="m0 38h38v-38h-38v38"/></clipPath><clipPath id="1"><path d="m25 18c-2.209 0-4-5.791-4-8v-5c0-2.209 1.791-3 4-3h7c2.209 0 4 .791 4 3v5c0 2.209-1.791 8-4 8h-7"/></clipPath><clipPath id="2"><path d="m6 18c-2.209 0-4-5.791-4-8v-5c0-2.209 1.791-3 4-3h7c2.209 0 4 .791 4 3v5c0 2.209-1.791 8-4 8h-7"/></clipPath></defs><g transform="matrix(1.25 0 0-1.25 0 47.5)"><g clip-path="url(#0)"><path d="m0 0c0-2.209-1.791-3-4-3h-7c-2.209 0-4 .791-4 3v5c0 2.209 1.791 8 4 8h7c2.209 0 4-5.791 4-8v-5" fill="#aa8dd8" transform="translate(36 5)"/></g><g clip-path="url(#1)"><path d="m0 0v4c3 1 3 3 3 5h-3-1-3c0-2 0-4 3-5v-4c0-1-1-3-3-3 0-11.851 2.149-7.223 3.416-5.521 1.232-2.462 3.584-12.188 3.584 5.521-2 0-3 2-3 3" fill="#744eaa" transform="translate(29 8)"/></g><g clip-path="url(#0)"><path d="m0 0v-6c0-3-6.595 0-8.5 0-2.1 0-8.5-3-8.5 0v6c0 4.418 3.806 8 8.5 8 4.694 0 8.5-3.582 8.5-8" fill="#292f33" transform="translate(37 25)"/><path d="m0 0c0-3-1-7-6.5-7-5.5 0-6.5 3-6.5 7h6 7" fill="#e1e8ed" transform="translate(35 22)" id="5"/><path d="m0 0c0-.276-.672-.5-1.5-.5-.828 0-1.5.224-1.5.5 0 .276.672.5 1.5.5.828 0 1.5-.224 1.5-.5" fill="#a0041e" transform="translate(30 17.5)"/><g fill="#292f33"><path d="m0 0c.905.146 2.457.47 3.318-.318.359-.261.099-1-.571-.684-.67.318-2.185.403-2.791.437-.605.034-.615.459.044.565" transform="translate(23.13 20.639)"/><path d="m0 0c-.906.146-2.457.47-3.318-.318-.358-.261-.098-1 .572-.684.669.318 2.184.403 2.789.437.606.034.616.459-.043.565" transform="translate(34.12 20.639)"/><path d="m0 0c0-1.657-2.02-3-4.5-3-2.485 0-4.5 1.343-4.5 3 0 1.657 2.01 3 4.5 3 2.485 0 4.5-1.343 4.5-3" transform="translate(33 33)"/></g><path d="m0 0l-2.965-2.02-3.195 2.02c-1.824 1.231-3.545.438-3.545-1.762v-.291c0-2.2 1.766-3.063 3.644-1.919 0 0 1.872 1.018 3.103 1.661 1.204-.643 2.858-1.661 2.858-1.661 1.879-1.144 3.395-.281 3.395 1.919v.291c0 2.2-1.471 2.993-3.295 1.762" fill="#aa8dd8" transform="translate(31.705 32.949)"/><use transform="translate(24 7)" xlink:href="#3"/><use transform="translate(27 11)" xlink:href="#3"/><use transform="translate(33 8)" xlink:href="#3"/><use transform="translate(34 12)" xlink:href="#3"/><path d="m0 0c0-2.209-1.791-3-4-3h-7c-2.209 0-4 .791-4 3v5c0 2.209 1.791 8 4 8h7c2.209 0 4-5.791 4-8v-5" fill="#dd2e44" transform="translate(17 5)"/></g><g clip-path="url(#2)"><path d="m0 0v4c3 1 3 3 3 5h-3-1-3c0-2 0-4 3-5v-4c0-1-1-3-3-3 0-11.851 2.149-7.223 3.416-5.521 1.233-2.462 3.584-12.188 3.584 5.521-2 0-3 2-3 3" fill="#a0041e" transform="translate(10 8)"/></g><g clip-path="url(#0)"><path d="m0 0v-8c0-3-1.999 2-8.499 2-6.5 0-8.501-5-8.501-2 0 3.096.002 5.558.002 8 0 4.418 3.805 8 8.499 8 4.694 0 8.499-3.582 8.499-8" fill="#292f33" transform="translate(18 25)"/><use transform="translate(-19)" xlink:href="#5"/><path d="m0 0c0-1.933-1.119-3.5-2.5-3.5-1.38 0-2.5 1.567-2.5 3.5 0 1.933 1.12 3.5 2.5 3.5 1.381 0 2.5-1.567 2.5-3.5" fill="#292f33" transform="translate(12 33.5)"/><path d="m0 0c0-.276-.671-.5-1.5-.5-.829 0-1.5.224-1.5.5 0 .276.671.5 1.5.5.829 0 1.5-.224 1.5-.5" fill="#a0041e" transform="translate(11 17.5)"/><use transform="translate(6 12)" xlink:href="#4"/><use transform="translate(16 7)" xlink:href="#4"/><use transform="translate(13 11)" xlink:href="#4"/><use transform="translate(8 8)" xlink:href="#4"/><g fill="#292f33"><path d="m0 0c.906.146 2.457.47 3.318-.318.358-.261.099-1-.571-.684-.67.318-2.185.403-2.79.437-.606.034-.616.459.043.565" transform="translate(4.134 20.639)"/><path d="m0 0c-.906.146-2.457.47-3.318-.318-.358-.261-.099-1 .571-.684.67.318 2.185.403 2.79.437.606.034.616.459-.043.565" transform="translate(15.12 20.639)"/></g></g></g></svg>