<svg xmlns="http://www.w3.org/2000/svg" viewBox="0 0 47.5 47.5" enable-background="new 0 0 47.5 47.5"><defs><clipPath id="0"><path d="m0 38h38v-38h-38v38"/></clipPath></defs><g transform="matrix(1.25 0 0-1.25 0 47.5)"><g clip-path="url(#0)"><path d="m0 0c0 4.252-3.141 7-8 7-.553 0-1-.448-1-1 0-.552.447-1 1-1 1.804 0 6-.487 6-5 0-2.881-1.851-4.172-4.054-4.692-.164.073-.328.147-.508.192-3.501.875-4.438-.5-10.438-.5-4.165 0-5.439 4.407-6.832 7.106-.366 2.046-1.367 5.894-2.168 5.894-.61 0-1.405-2.027-1.933-4.062-.657 1.535-1.514 3.062-2.067 3.062-.711 0-1.42-2.525-1.771-4.706-1.867-1.274-3.229-3.121-3.229-5.294 0-3 7-5 7-5 2.118-1.104 2.743-2.767 3.305-4.276 2.062-6.384 1.814-11.724 3.195-11.724 1.381 0 2.5 3.357 2.5 7.5 0 .212-.005.42-.011.627 3.155.101 6.755 1.075 9.79.293 1.36-4.493 1.687-8.42 2.721-8.42.958 0 1.79 3.784 2.209 7.484.031.141.054.297.054.493l.009.108c.033.319.062.636.088.948l.515 5.592c0 1.112-.254 2.217-.754 3.103 2.828 1.051 4.379 3.213 4.379 6.272" fill="#c1694f" transform="translate(37 25)"/><g fill="#292f33"><path d="m0 0c0-.552-.448-1-1-1-.552 0-1 .448-1 1 0 .552.448 1 1 1 .552 0 1-.448 1-1" transform="translate(9 24)"/><path d="m0 0c-1-.625-1-2.625-1.5-2.625-.5 0-1.5 1.176-1.5 2.625 0 1.45 4.229.769 3 0" transform="translate(4 23.625)"/></g><g fill="#662113"><path d="m0 0c-.184 0-.36.101-.448.276-.123.247-.023.548.224.671 2.141 1.07 6.174.08 6.345.038.268-.067.43-.338.363-.606-.067-.267-.338-.427-.606-.364-.038.01-3.846.942-5.655.038-.072-.036-.148-.053-.223-.053" transform="translate(4 20.5)"/><path d="m0 0c-.095 0-.191.027-.277.084-.029.02-2.898 1.916-4.723 1.916-.276 0-.5.224-.5.5 0 .276.224.5.5.5 2.127 0 5.15-1.999 5.278-2.084.229-.153.292-.463.139-.693-.097-.145-.255-.223-.417-.223" transform="translate(9 18.5)"/></g></g></g></svg>