<svg xmlns="http://www.w3.org/2000/svg" viewBox="0 0 47.5 47.5" enable-background="new 0 0 47.5 47.5"><defs><clipPath id="0"><path d="m0 38h38v-38h-38v38"/></clipPath></defs><g transform="matrix(1.25 0 0-1.25 0 47.5)"><g clip-path="url(#0)"><path d="m0 0c0 7.672-14.14 7.171-14.14 11.803 0 2.242 2.145 3.338 4.633 3.338 4.184 0 4.929-2.689 6.824-2.689 1.342 0 1.989.845 1.989 1.792 0 2.201-3.337 3.867-6.537 4.444v2.124c0 1.325-1.073 2.4-2.399 2.4-1.326 0-2.4-1.075-2.4-2.4v-2.199c-3.489-.795-6.49-3.215-6.49-7.159 0-7.369 14.14-7.07 14.14-12.248 0-1.793-1.941-3.586-5.129-3.586-4.781 0-6.374 3.236-8.316 3.236-.946 0-1.792-.795-1.792-1.996 0-1.906 3.195-4.2 7.588-4.84 0-.004-.003-.01-.003-.015v-2.398c0-1.326 1.075-2.401 2.401-2.401 1.325 0 2.4 1.075 2.4 2.401v2.398c0 .028-.014.05-.016.075 3.952.738 7.249 3.315 7.249 7.92" fill="#67757f" transform="translate(29.81 13.791)"/></g></g></svg>