<svg xmlns="http://www.w3.org/2000/svg" viewBox="0 0 47.5 47.5" enable-background="new 0 0 47.5 47.5" xmlns:xlink="http://www.w3.org/1999/xlink"><defs><path id="1" d="m0 0c0-3.313-2.687-6-6-6-3.313 0-6 2.687-6 6 0 3.313 2.687 6 6 6 3.313 0 6-2.687 6-6"/><clipPath id="0"><path d="m0 38h38v-38h-38v38"/></clipPath></defs><g transform="matrix(1.25 0 0-1.25 0 47.5)"><g clip-path="url(#0)"><g fill="#272b2b"><use transform="translate(14 31)" xlink:href="#1"/><use transform="translate(36 31)" xlink:href="#1"/></g><g fill="#66757f"><path d="m0 0c0-2.209-1.791-4-4-4-2.209 0-4 1.791-4 4 0 2.209 1.791 4 4 4 2.209 0 4-1.791 4-4" transform="translate(12 31)"/><path d="m0 0c0-2.209-1.791-4-4-4-2.209 0-4 1.791-4 4 0 2.209 1.791 4 4 4 2.209 0 4-1.791 4-4" transform="translate(34 31)"/></g><path d="m0 0c0-7-6.375-12-17-12-10.625 0-17 5-17 12 0 0 1.308 22 17 22 15.692 0 17-22 17-22" fill="#eee" transform="translate(36 15)"/><use fill="#ccd6dd" transform="translate(25 7)" xlink:href="#1"/><path d="m0 0c0-2.209-1.791-4-4-4-2.209 0-4 1.791-4 4 0 2.209 1.791 4 4 4 2.209 0 4-1.791 4-4" fill="#dd2e44" transform="translate(23 7)"/><g fill="#272b2b"><path d="m0 0c4.454 2.776 11.291-4.346 6.243-10.02-3.489-3.921-6.952-2.33-6.952-2.33 0 0-2.636 10.261.709 12.346" transform="translate(21.709 24.346)"/><path d="m0 0c-4.454 2.776-11.291-4.346-6.244-10.02 3.49-3.92 6.953-2.329 6.953-2.329 0 0 2.636 10.26-.709 12.345" transform="translate(16.267 24.335)"/></g><path d="m0 0c0 0 0 2 2 2 2 0 2-2 2-2v-2c0 0 0-2-2-2-2 0-2 2-2 2v2" fill="#66757f" transform="translate(12 20)" id="2"/><path d="m0 0c0 0-11-3.687-11-7 0-3.313 2.687-6 6-6 2.088 0 3.925 1.067 5 2.686 1.074-1.619 2.912-2.686 5-2.686 3.313 0 6 2.687 6 6 0 3.313-11 7-11 7" fill="#fff" transform="translate(19 17)"/><use transform="translate(10)" xlink:href="#2"/><path d="m0 0c-1.625-1 3.25-4 4.875-4 1.625 0 6.499 3 4.874 4-1.625 1-8.124 1-9.749 0" fill="#272b2b" transform="translate(14.13 12)"/></g></g></svg>