<svg xmlns="http://www.w3.org/2000/svg" viewBox="0 0 47.5 47.5" enable-background="new 0 0 47.5 47.5"><defs><clipPath id="0"><path d="m0 38h38v-38h-38v38"/></clipPath><clipPath id="1"><path d="m12 26c-5 1-7.542-2.83-7-5 1-4 6-2 7-1 5-2 9 1 10 3 1.612 3.225-2 5-4 5-3.162 0-5-1-6-2"/></clipPath><clipPath id="2"><path d="m6 21c-2-5 8-8 12-8 4 0 5 1 4 2-1.414 1.414-5 2-6 3-2.737 3.284-5.316 4.265-7.176 4.265-1.539 0-2.586-.671-2.824-1.265"/></clipPath></defs><g transform="matrix(1.25 0 0-1.25 0 47.5)"><g clip-path="url(#0)"><path d="m0 0c-12.243 1.804-12.04 14.1-12.04 17.816h34c0-1.913.087-15.769-13.13-17.918-2.042-.332-6.459-.249-8.838.102" fill="#292f33" transform="translate(14.04 2.184)"/></g><g clip-path="url(#0)"><path d="m0 0c2.467 5.574-8.331 5.254-11.04 4.382-1.392.161-2.846.253-4.353.253-9.389 0-17-3.228-17-8.444 0-1.01.291-1.979.819-2.891-4.327-5.712 4.245-6.786 9.183-5.71 2.136-.537 4.501-.843 6.998-.843 9.389 0 17 4.228 17 9.444 0 1.43-.589 2.704-1.612 3.809" fill="#66757f" transform="translate(34.388 23.753)"/><path d="m0 0c0-3.866-6.716-7-15-7-8.284 0-15 3.134-15 7 0 3.866 6.716 7 15 7 8.284 0 15-3.134 15-7" fill="#ffcc4d" transform="translate(34 19)"/><path d="m0 0c-.542 2.169 2 6 7 5 1 1 2.838 2 6 2 2 0 5.612-1.775 4-5-1-2-5-5-10-3-1-1-6-3-7 1" fill="#77b255" transform="translate(5 21)"/></g><g clip-path="url(#1)"><path d="m0 0c1-1 0-7-7-8-7-1 3-3 6-2 3 1 9 5 7 7-2 2-6 3-6 3" fill="#5c913b" transform="translate(20 28)"/></g><g clip-path="url(#0)"><path d="m0 0c.525 1.313 5 3 10-3 1-1 4.586-1.586 6-3 1-1 0-2-4-2-4 0-14 3-12 8" fill="#d99e82" transform="translate(6 21)"/></g><g clip-path="url(#2)"><path d="m0 0c2-1 11-3 14-1 3 2 3-1 3-2 0-1-3-5-8-3-5 2-9 3-9 4v2" fill="#b27962" transform="translate(7 17)"/></g><g clip-path="url(#0)" fill="#ffe8b6"><path d="m0 0c-.209 0-.423.034-.633.104l-3 1c-1.048.349-1.614 1.481-1.264 2.529.348 1.048 1.478 1.615 2.53 1.265l3-1c1.048-.349 1.614-1.481 1.264-2.529-.279-.839-1.059-1.369-1.897-1.369" transform="translate(28 17.999)"/><path d="m0 0h-2c-.553 0-1 .447-1 1 0 .553.447 1 1 1h2c.553 0 1-.447 1-1 0-.553-.447-1-1-1" transform="translate(27 15)"/></g></g></svg>