<svg xmlns="http://www.w3.org/2000/svg" viewBox="0 0 47.5 47.5" enable-background="new 0 0 47.5 47.5"><defs><clipPath id="0"><path d="m0 38h38v-38h-38v38"/></clipPath></defs><g transform="matrix(1.25 0 0-1.25 0 47.5)"><g clip-path="url(#0)"><path d="m0 0l.036-.045c0 0 1 10 0 11-.91.91-6.771-.66-7.822-.951-2.426 1.234-5.443 1.951-9.178 1.951-3.729 0-6.742-.719-9.165-1.954-1.02.283-6.922 1.867-7.835.954-1-1 0-11 0-11l.047.059c-.739-2.553-1.047-5.31-1.047-8.06 0-9.941 11-16 18-16 7 0 18 6 18 16 0 2.752-.306 5.502-1.036 8.05" fill="#ffcc4d" transform="translate(35.964 25.04)"/><path d="m0 0c-.123.169-.338.245-.542.186-.069-.02-7-1.981-12.863-1.981-5.858 0-12.793 1.961-12.862 1.981-.209.062-.431-.022-.552-.201-.12-.179-.113-.416.02-.587.292-.376 7.221-9.193 13.394-9.193 7.185 0 13.166 8.846 13.417 9.223.116.175.111.402-.012.572" fill="#292f33" transform="translate(32.404 13.295)"/><path d="m0 0c0 0 5-2 10-2 5 0 10 2 10 2 0 0 0-3-1-3-1 0-2 1-2 1 0 0-4-2-7-2-3 0-7 2-7 2 0 0-1-1-2-1-1 0-1 3-1 3" fill="#f5f8fa" transform="translate(9 12)"/><path d="m0 0c3 0 3-.5 3-1.5 0-1-1.5-3-3-3-1.5 0-3 2-3 3 0 1 0 1.5 3 1.5" fill="#67757f" transform="translate(19 17.5)"/><g fill="#9aaab4"><path d="m0 0c-.209 0-.404.133-.475.342-.087.262.055.545.317.633l9 2.999c.263.088.545-.054.633-.316.087-.262-.055-.545-.317-.632l-9-3c-.053-.017-.105-.025-.158-.025" transform="translate(27 16.5)"/><path d="m0 0c-.233 0-.441.164-.489.402-.055.271.121.535.392.588l10 2c.26.054.534-.12.588-.392.055-.271-.121-.535-.392-.588l-10-2c-.033-.007-.066-.01-.099-.01" transform="translate(25.999 14.5)"/><path d="m0 0c-.052 0-.105.008-.158.025l-9 3c-.262.087-.404.37-.316.632.087.262.368.404.632.316l9-2.999c.262-.088.404-.371.316-.633-.07-.209-.265-.342-.474-.342" transform="translate(11 16.5)"/><path d="m0 0c-.032 0-.065.003-.099.01l-10 2c-.27.053-.446.317-.392.588.054.271.313.449.589.392l10-2c.27-.053.446-.317.392-.588-.048-.238-.257-.402-.49-.402" transform="translate(12 14.5)"/></g><g fill="#292f33"><path d="m0 0c-.061.091-1.515 2.223-4.416 2.223-2.9 0-4.355-2.132-4.416-2.223-.135-.202-.104-.47.071-.638.174-.167.447-.184.643-.041.012.009 1.262.902 3.702.902 2.426 0 3.674-.882 3.702-.902.089-.066.193-.098.298-.098.124 0 .248.046.344.136.176.168.207.438.072.641" transform="translate(29.416 19.277)"/><path d="m0 0c-.061.091-1.515 2.223-4.416 2.223-2.9 0-4.355-2.132-4.416-2.223-.134-.202-.104-.47.071-.638.176-.167.447-.184.642-.041.013.009 1.262.902 3.703.902 2.426 0 3.674-.882 3.702-.902.089-.066.193-.098.298-.098.124 0 .248.046.344.136.176.168.207.438.072.641" transform="translate(17.416 19.277)"/></g><g fill="#5dadec"><path d="m0 0c5-2 9-5 9-10 0-4-3-4-3-4s-2 8-6 14" transform="translate(28 18)"/><path d="m0 0c-5-2-9-5-9-10 0-4 3-4 3-4s2 8 6 14" transform="translate(10 18)"/></g><g fill="#292f33"><path d="m0 0c-.305 0-.604.138-.801.4-2.64 3.521-6.06 3.599-6.206 3.6-.55.006-.994.456-.991 1 .003.551.447.995.997.995.184 0 4.537-.05 7.8-4.4.332-.442.242-1.069-.2-1.4-.18-.135-.39-.2-.599-.2" transform="translate(32 21)"/><path d="m0 0c-.208 0-.419.065-.599.2-.442.331-.531.958-.2 1.4 3.262 4.35 7.616 4.4 7.8 4.4.552 0 1-.448 1-1 0-.551-.445-.998-.996-1-.155-.002-3.568-.086-6.204-3.6-.197-.262-.497-.4-.801-.4" transform="translate(5.999 21)"/></g></g></g></svg>