<svg xmlns="http://www.w3.org/2000/svg" viewBox="0 0 47.5 47.5" enable-background="new 0 0 47.5 47.5"><defs><clipPath id="0"><path d="m0 38h38v-38h-38v38"/></clipPath></defs><g transform="matrix(1.25 0 0-1.25 0 47.5)"><g clip-path="url(#0)"><path d="m0 0c0-9.94-8.06-18-18-18-9.941 0-18 8.06-18 18 0 9.941 8.06 18 18 18 9.941 0 18-8.06 18-18" fill="#99aab5" transform="translate(37 19)"/><path d="m0 0c0-7.731-6.268-14-14-14-7.732 0-14 6.269-14 14 0 7.732 6.268 14 14 14 7.732 0 14-6.268 14-14" fill="#e1e8ed" transform="translate(33 19)"/><g fill="#66757f"><path d="m0 0c0-.553-.447-1-1-1-.552 0-1 .447-1 1v11c0 .552.448 1 1 1 .553 0 1-.448 1-1v-11" transform="translate(20 19)"/><path d="m0 0c0-.553-.447-1-1-1-.552 0-1 .447-1 1v9c0 .552.448 1 1 1 .553 0 1-.448 1-1v-9" transform="translate(20 10)"/></g></g></g></svg>