<svg xmlns="http://www.w3.org/2000/svg" viewBox="0 0 47.5 47.5" enable-background="new 0 0 47.5 47.5" xmlns:xlink="http://www.w3.org/1999/xlink"><defs><clipPath id="0"><path d="m0 38h38v-38h-38v38"/></clipPath></defs><g transform="matrix(1.25 0 0-1.25 0 47.5)"><g clip-path="url(#0)"><path d="m0 0c0-9.389-7.611-17-17-17-9.388 0-17 7.611-17 17 0 9.388 7.612 17 17 17 9.389 0 17-7.612 17-17" fill="#ffcc4d" transform="translate(36 19)"/><path d="m0 0c0 0 0 2 2 2 2 0 2-2 2-2v-2c0 0 0-2-2-2-2 0-2 2-2 2v2" fill="#664500" transform="translate(11 24)" id="1"/><use transform="translate(12)" xlink:href="#1"/><path d="m0 0c-.178.161-.444.171-.635.029-.039-.029-3.922-2.9-8.7-2.9-4.766 0-8.662 2.871-8.7 2.9-.191.142-.457.13-.635-.029-.177-.16-.217-.424-.094-.628.129-.215 3.217-5.243 9.429-5.243 6.212 0 9.301 5.03 9.429 5.243.123.205.084.468-.094.628" fill="#664500" transform="translate(28.335 14.371)"/></g></g></svg>