<svg xmlns="http://www.w3.org/2000/svg" viewBox="0 0 47.5 47.5" enable-background="new 0 0 47.5 47.5"><defs><clipPath id="0"><path d="m0 38h38v-38h-38v38"/></clipPath></defs><g transform="matrix(1.25 0 0-1.25 0 47.5)"><g clip-path="url(#0)"><path d="m0 0c0 5.45-4.418 9.868-9.867 9.868-3.308 0-6.227-1.633-8.02-4.129-1.79 2.496-4.71 4.129-8.02 4.129-5.45 0-9.868-4.418-9.868-9.868 0-.772.098-1.52.266-2.241 1.371-8.512 10.835-17.494 17.619-19.96 6.783 2.466 16.249 11.448 17.617 19.96.17.721.268 1.469.268 2.241" fill="#e75a70" transform="translate(36.885 25.17)"/><g fill="#fdd888"><path d="m0 0c-1-5-4-8-4-8h-28c0 0-3 3-4 8h36" transform="translate(37 22)"/><path d="m0 0v-18l-5 5-5-5v18h10" transform="translate(15 19)"/></g><path d="m0 0l-7.879-5.515-7.878 5.515c-.576.402-1.045.158-1.045-.544v-14.659c0-.703.48-.964 1.069-.582l7.854 5.106 7.855-5.106c.587-.382 1.068-.121 1.068.582v14.659c0 .702-.47.946-1.044.544" fill="#fdcb58" transform="translate(17.802 27.806)"/><path d="m0 0c0-2.21-1.791-4-4-4-2.209 0-4 1.79-4 4 0 2.209 1.791 4 4 4 2.209 0 4-1.791 4-4" fill="#fdd888" transform="translate(14 20)"/></g></g></svg>