<svg xmlns="http://www.w3.org/2000/svg" viewBox="0 0 47.5 47.5" enable-background="new 0 0 47.5 47.5"><defs><clipPath id="0"><path d="m0 38h38v-38h-38v38"/></clipPath></defs><g transform="matrix(1.25 0 0-1.25 0 47.5)"><g clip-path="url(#0)"><path d="m0 0c0 9.389-7.611 17-17 17-9.388 0-16.999-7.611-16.999-17 0-9.389 7.611-17 16.999-17 9.389 0 17 7.611 17 17" transform="translate(36 19)"/><path d="m0 0c0 0-2 0-2-2v-8c0-2 2-2 2-2h5l6-6c0 0 1-1 2-1h1c0 0 1 0 1 1v24c0 0 0 1-1 1h-1c-1 0-2-1-2-1l-6-6h-5" fill="#fff" transform="translate(10 25)"/></g><g clip-path="url(#0)" fill="#dd2e44"><path d="m0 0c-8.836 0-16-7.163-16-16 0-8.837 7.164-16 16-16 8.837 0 16 7.163 16 16 0 8.837-7.163 16-16 16m18-16c0-9.941-8.06-18-18-18-9.94 0-18 8.06-18 18 0 9.941 8.06 18 18 18 9.941 0 18-8.06 18-18" transform="translate(19 35)"/><path d="m 0,0 -24.5,24.5 1.768,1.768 24.5,-24.5 L 0,0 Z" transform="translate(29.616 5.616)"/></g></g></svg>