<svg xmlns="http://www.w3.org/2000/svg" viewBox="0 0 47.5 47.5" enable-background="new 0 0 47.5 47.5"><defs><clipPath id="0"><path d="m0 38h38v-38h-38v38"/></clipPath></defs><g transform="matrix(1.25 0 0-1.25 0 47.5)"><g clip-path="url(#0)"><path d="m0 0c0-.828-1.791-1.5-4-1.5-2.209 0-4 .672-4 1.5 0 .828 1.791 1.5 4 1.5 2.209 0 4-.672 4-1.5" fill="#292f33" transform="translate(23 2.5)"/><path d="m0 0c0 0-3.663 11.825-3.663.765.001-11.06 2.555-24.273 3.662-24.275 1.106-.001 3.66 13.215 3.66 24.275 0 11.06-3.659-.765-3.659-.765" fill="#99aab5" transform="translate(19 25.51)"/><path d="m0 0c0-4.418-3.582-8-8-8-4.418 0-8 3.582-8 8 0 4.418 3.582 8 8 8 4.418 0 8-3.582 8-8" fill="#dd2e44" transform="translate(27 29)"/></g></g></svg>