<svg xmlns="http://www.w3.org/2000/svg" viewBox="0 0 47.5 47.5" enable-background="new 0 0 47.5 47.5"><defs><clipPath id="0"><path d="m0 38h38v-38h-38v38"/></clipPath></defs><g transform="matrix(1.25 0 0-1.25 0 47.5)"><g clip-path="url(#0)"><path d="m0 0c-2 0-2-2-2-2v-20c0 0 0-2 2-2h32c2 0 2 2 2 2v20c0 0 0 2-2 2h-32" fill="#a7d28b" transform="translate(3 32)"/><path d="m24 7.938h-10v24.06h10v-24.06" fill="#9aaab4"/><path d="m0 0c0 2.979-5.493 2.785-5.493 4.584 0 .871.833 1.296 1.8 1.296 1.624 0 1.914-1.045 2.65-1.045.521 0 .772.329.772.696 0 .856-1.296 1.502-2.539 1.726v.825c0 .515-.417.932-.932.932-.515 0-.932-.417-.932-.932v-.853c-1.354-.31-2.52-1.25-2.52-2.781 0-2.862 5.492-2.746 5.492-4.758 0-.695-.754-1.39-1.991-1.39-1.857 0-2.476 1.257-3.23 1.257-.368 0-.696-.309-.696-.776 0-.741 1.24-1.631 2.947-1.881 0-.001-.002-.004-.002-.004v-.933c0-.514.418-.932.933-.932.514 0 .932.418.932.932v.933c0 .01-.005.019-.006.029 1.534.287 2.815 1.286 2.815 3.075" fill="#67757f" transform="translate(12 17.969)"/></g></g></svg>