<svg xmlns="http://www.w3.org/2000/svg" viewBox="0 0 47.5 47.5" enable-background="new 0 0 47.5 47.5"><defs><clipPath id="0"><path d="m0 38h38v-38h-38v38"/></clipPath></defs><g transform="matrix(1.25 0 0-1.25 0 47.5)"><g clip-path="url(#0)"><path d="m0 0c0-1.104-.896-2-2-2h-32c-1.104 0-2 .896-2 2v19c0 1.104.896 2 2 2h32c1.104 0 2-.896 2-2v-19" fill="#ffcc4d" transform="translate(37 3)"/><path d="m0 0h-32c-1.104 0-2-.896-2-2h36c0 1.104-.896 2-2 2" fill="#6d6e71" transform="translate(35 24)"/><g fill="#3b88c3"><path d="m35 9h-32v4h32v-4"/><path d="m35 15h-32v4h32v-4"/><path d="m35 3h-32v4h32v-4"/></g><path d="m31 2h-2v18h2v-18" fill="#ffcc4d"/><path d="m0 0h-16c-1.104 0-2-.896-2-2v-34h20v34c0 1.104-.896 2-2 2" fill="#ffe8b6" transform="translate(23 37)"/><path d="m0 0h-16c-1.104 0-2-.896-2-2h20c0 1.104-.896 2-2 2" fill="#808285" transform="translate(23 37)"/><g fill="#55acee"><path d="m23 15h-16v4h16v-4"/><path d="m23 9h-16v4h16v-4"/><path d="m23 3h-16v4h16v-4"/></g><g fill="#ffe8b6"><path d="m13 1h-2v29h2v-29"/><path d="m19 1h-2v29h2v-29"/></g><path d="m17 1h-4v6h4v-6" fill="#269"/><path d="m0 0c0-3.313-2.687-6-6-6-3.313 0-6 2.687-6 6 0 3.313 2.687 6 6 6 3.313 0 6-2.687 6-6" fill="#a7a9ac" transform="translate(21 28)"/><path d="m0 0c0-2.209-1.791-4-4-4-2.209 0-4 1.791-4 4 0 2.209 1.791 4 4 4 2.209 0 4-1.791 4-4" fill="#e6e7e8" transform="translate(19 28)"/><path d="m0 0h-3c-.552 0-1 .448-1 1v5c0 .552.448 1 1 1 .552 0 1-.448 1-1v-4h2c.552 0 1-.448 1-1 0-.552-.448-1-1-1" fill="#a0041e" transform="translate(18 27)"/></g></g></svg>