<svg xmlns="http://www.w3.org/2000/svg" viewBox="0 0 47.5 47.5" enable-background="new 0 0 47.5 47.5"><defs><clipPath id="0"><path d="m0 38h38v-38h-38v38"/></clipPath></defs><g transform="matrix(1.25 0 0-1.25 0 47.5)"><path d="m0 0l2.25 3.333 3-3 4 2 3-3 4 6 4-3 3 1 2-3 3 3 2-4-2-7-11-5-11 2-6 6-.25 4.667" fill="#99aab5" transform="translate(3.75 17.667)"/><g clip-path="url(#0)"><path d="m0 0c.021.288.044.574.044.867 0 5.943-4.324 10.864-9.996 11.819 1.189.259 2.031.509.996 1.026-1.115.558-2.231-.129-2.999-.845-.771.716-1.885 1.403-3 .845-1.035-.517-.193-.767.996-1.026-5.671-.955-9.996-5.876-9.996-11.819 0-.293.023-.579.044-.867-.483-6.601-6.303-16.288 11.956-16.288 18.259 0 12.438 9.687 11.956 16.288" fill="#ffcc4d" transform="translate(30.956 22.288)"/><path d="m0 0c0-1.657-1.343-2-3-2-1.657 0-3 .343-3 2 0 1.657 1.343 3 3 3 1.657 0 3-1.343 3-3" fill="#f4900c" transform="translate(22 23)"/><g fill="#662113"><path d="m0 0c0-.829-.671-1.5-1.5-1.5-.829 0-1.5.671-1.5 1.5 0 .829.671 1.5 1.5 1.5.829 0 1.5-.671 1.5-1.5" transform="translate(14 25.5)"/><path d="m0 0c0-.829-.672-1.5-1.5-1.5-.828 0-1.5.671-1.5 1.5 0 .829.672 1.5 1.5 1.5.828 0 1.5-.671 1.5-1.5" transform="translate(27 25.5)"/></g><path d="m0 0l-3 1-4-6-3 5-2-2-4 2-3-4-3 6-3-2-3.294 7.765c-.457-1.349-.706-2.781-.706-4.265 0-8.01 7.164-14.5 16-14.5 8.836 0 16 6.491 16 14.5 0 1.244-.191 2.444-.517 3.597l-2.483-7.097" fill="#e1e8ed" transform="translate(32 12)"/></g></g></svg>