<svg xmlns="http://www.w3.org/2000/svg" viewBox="0 0 47.5 47.5" enable-background="new 0 0 47.5 47.5"><defs><clipPath id="0"><path d="m0 38h38v-38h-38v38"/></clipPath></defs><g transform="matrix(1.25 0 0-1.25 0 47.5)"><g clip-path="url(#0)"><path d="m0 0v-27c0 0 0-4-4-4h-28c-4 0-4 4-4 4v5c0 0 25 2 36 22" fill="#4289c1" transform="translate(37 32)"/><path d="m0 0c0 0 2.33 2.136 1.924 3.049-.408.914-11.676-.831-17.15-3.277-8.22-3.668-12.07-9.766-11.253-11.592.816-1.826 7.925-3.034 16.14.634 5.481 2.446 14.301 9.669 13.895 10.582-.409.914-3.555.604-3.555.604" fill="#a7d28b" transform="translate(31.59 16.568)"/><path d="m0 0c-.408.913-3.555.604-3.555.604 0 0 2.204 2.023 1.943 2.972l-27.92-12.215c-.569-1.116-.747-2.037-.506-2.578.211-.472.85-.9 1.812-1.217l28.22 12.345c0 .027.021.068.011.089" fill="#f5f8fa" transform="translate(35.14 15.965)"/><g fill="#d99e82"><path d="m0 0c-3.401 0-6.462 3.95-6.8 4.4-.331.441-.242 1.067.199 1.399.442.331 1.067.243 1.401-.198.754-1 3.158-3.601 5.2-3.601.553 0 1-.448 1-1 0-.552-.447-1-1-1" transform="translate(25.408 22)"/><path d="m0 0c-.419 0-.809.265-.949.684-1.195 3.584.152 5.933 1.492 7.273 1.401 1.401 3.07 1.968 3.141 1.992.525.176 1.09-.11 1.265-.633.174-.523-.108-1.087-.63-1.264-.516-.176-4.995-1.861-3.37-6.736.175-.524-.109-1.09-.633-1.264-.105-.035-.212-.052-.316-.052" transform="translate(8.408 18)"/></g><g fill="#67757f"><path d="m0 0c0-1.933-1.567-3.5-3.5-3.5-1.933 0-3.5 1.567-3.5 3.5v4c0 1.933 1.567 3.5 3.5 3.5 1.933 0 3.5-1.567 3.5-3.5v-4" transform="translate(19.408 21.5)"/><path d="m0 0c0-1.104-.896-2-2-2h-7c-1.104 0-2 .896-2 2 0 1.104.896 2 2 2h7c1.104 0 2-.896 2-2" transform="translate(21.408 27)"/></g><path d="m0 0c0-2.209-1.791-4-4-4-2.209 0-4 1.791-4 4 0 2.209 1.791 4 4 4 2.209 0 4-1.791 4-4" fill="#d99e82" transform="translate(19.408 33)"/><path d="m0 0c0 0 0 4 5 4 4 0 4-4 4-4s0 2-3 2c-2 0-2-3-6-2" fill="#fdcb58" transform="translate(10.408 33)"/><g fill="#67757f"><path d="m0 0c-.3 0-.605.067-.893.211l-2 1c-.438.22-.78.592-.962 1.046l-1.682 4.204-4.204 1.682c-1.026.41-1.525 1.574-1.114 2.6.409 1.026 1.575 1.525 2.599 1.114l5-2c.508-.203.91-.606 1.114-1.114l1.717-4.294 1.32-.66c.989-.494 1.389-1.695.895-2.684-.351-.701-1.057-1.105-1.791-1.105" transform="translate(26.406 11)"/><path d="m0 0c-.733-.001-1.44.404-1.791 1.105l-1 2c-.198.398-.259.851-.171 1.288l.848 4.241-2.602 4.337c-.569.947-.262 2.175.686 2.744.946.569 2.175.261 2.743-.686l3-5c.257-.426.344-.933.246-1.422l-.865-4.327.694-1.385c.493-.989.093-2.19-.895-2.684-.287-.144-.592-.211-.893-.211" transform="translate(17.409 7)"/></g></g></g></svg>