<svg xmlns="http://www.w3.org/2000/svg" viewBox="0 0 47.5 47.5" enable-background="new 0 0 47.5 47.5"><defs><clipPath id="0"><path d="m0 38h38v-38h-38v38"/></clipPath></defs><g transform="matrix(1.25 0 0-1.25 0 47.5)"><g clip-path="url(#0)"><path d="m0 0c0-2.209-1.791-4-4-4h-28c-2.209 0-4 1.791-4 4v28c0 2.209 1.791 4 4 4h28c2.209 0 4-1.791 4-4v-28" fill="#f4900c" transform="translate(37 5)"/><path d="m0 0c.521 0 .754.13.754.65v1.95c0 .494-.233.624-.754.624h-9.595c-.546 0-.754-.13-.754-.624v-1.95c0-.52.208-.65.754-.65h9.595m2.028-9.569c.573 0 .806.131.806.651v2.626c0 .52-.233.65-.806.65h-13.625c-.571 0-.805-.13-.805-.65v-2.626c0-.52.234-.651.805-.651h13.625zm.598 5.643c1.456 0 2.184-.598 2.184-2.029v-3.353c0-1.431-.728-2.028-2.184-2.028h-14.82c-1.456 0-2.185.597-2.185 2.028v3.353c0 1.431.729 2.029 2.185 2.029h4.653c.416.728.781 1.534 1.119 2.314h-3.615c-1.611 0-2.235.52-2.235 1.924v2.652c0 1.43.624 1.924 2.235 1.924h10.479c1.612 0 2.236-.494 2.236-1.924v-2.652c0-1.404-.624-1.924-2.236-1.924h-4.81c-.312-.806-.676-1.586-1.144-2.314h8.138m1.508 12.506c1.534 0 2.236-.598 2.236-2v-3.562c0-.494-.364-.78-.988-.78-.572 0-.988.286-.988.78v3.146c0 .572-.26.702-.832.702h-16.745c-.52 0-.78-.13-.78-.702v-3.146c0-.494-.39-.78-.988-.78-.598 0-.987.286-.987.78v3.562c0 1.404.675 2 2.235 2h2.626c-.442.754-1.04 1.638-1.403 2.132-.104.156-.157.287-.157.416 0 .287.235.572.573.703.181.077.363.129.52.129.312 0 .571-.129.779-.416.546-.78 1.275-1.976 1.768-2.964h3.641c-.338.78-.832 1.742-1.274 2.47-.078.13-.104.26-.104.365 0 .311.208.597.598.701.156.052.312.078.442.078.338 0 .598-.13.806-.468.493-.78 1.066-2.028 1.534-3.146h2.833c.703 1.014 1.327 2.054 1.717 2.912.207.416.494.572.858.572.156 0 .312-.025.468-.078.442-.13.65-.39.65-.702 0-.156-.052-.312-.13-.468-.338-.676-.832-1.456-1.378-2.236h2.47" fill="#fff" transform="translate(23.759 18.751)"/></g></g></svg>