<svg xmlns="http://www.w3.org/2000/svg" viewBox="0 0 47.5 47.5" enable-background="new 0 0 47.5 47.5"><defs><clipPath id="0"><path d="m0 38h38v-38h-38v38"/></clipPath></defs><g transform="matrix(1.25 0 0-1.25 0 47.5)"><g clip-path="url(#0)"><path d="m0 0c0-9.389-7.611-17-17-17-9.388 0-17 7.611-17 17 0 9.388 7.612 17 17 17 9.389 0 17-7.612 17-17" fill="#ffcc4d" transform="translate(36 19)"/><path d="m0 0c-.178.161-.444.171-.635.029-.039-.029-3.922-2.9-8.7-2.9-4.766 0-8.662 2.871-8.7 2.9-.191.142-.457.13-.635-.029-.177-.16-.217-.424-.094-.628.129-.215 3.217-5.243 9.429-5.243 6.212 0 9.301 5.03 9.429 5.243.123.205.084.468-.094.628" fill="#664500" transform="translate(28.335 14.371)"/><path d="m0 0c-6.627 0-12 .567-12 2.5 0 1.933 5.373 2.5 12 2.5 6.627 0 12-.567 12-2.5 0-1.933-5.373-2.5-12-2.5m0 7c-8.836 0-16-1.686-16-5 0-3.313 7.164-5 16-5 8.836 0 16 1.687 16 5 0 3.314-7.164 5-16 5" fill="#5dadec" transform="translate(19 30)"/><path d="m0 0c-3.397 1.324-2.5 1.991-.062 3.23 2.308 1.172 4.92 1.832 7.687 1.832 2.893 0 5.616-.722 8-1.997.695-.372 1.432-.885 2.124-1.346" fill="#ffcc4d" transform="translate(11.375 30.938)"/><g fill="#664500"><path d="m0 0c-.419 0-.809.265-.948.684-.203.599-1.019 2.316-2.052 2.316-1.062 0-1.889-1.827-2.052-2.316-.175-.524-.736-.808-1.264-.632-.524.174-.807.74-.632 1.264.125.377 1.303 3.684 3.948 3.684 2.645 0 3.823-3.307 3.948-3.684.175-.524-.108-1.09-.632-1.264-.105-.035-.211-.052-.316-.052" transform="translate(27 18)"/><path d="m0 0c-.419 0-.809.265-.949.684-.203.599-1.017 2.316-2.051 2.316-1.062 0-1.888-1.827-2.051-2.316-.175-.524-.739-.808-1.265-.632-.524.174-.808.74-.633 1.264.126.377 1.304 3.684 3.949 3.684 2.645 0 3.823-3.307 3.949-3.684.175-.524-.109-1.09-.633-1.264-.105-.035-.211-.052-.316-.052" transform="translate(17 18)"/></g></g></g></svg>