<svg xmlns="http://www.w3.org/2000/svg" viewBox="0 0 47.5 47.5" enable-background="new 0 0 47.5 47.5" xmlns:xlink="http://www.w3.org/1999/xlink"><defs><clipPath id="0"><path d="m0 38h38v-38h-38v38"/></clipPath></defs><g transform="matrix(1.25 0 0-1.25 0 47.5)"><g clip-path="url(#0)"><g fill="#ffcc4d"><path d="m0 0c0-10-11-16-18-16-7 0-18 6.06-18 16 0 9.941 4 20 18 20 14 0 18-10 18-20" transform="translate(37 17)"/><path d="m0 0c1-1 0-11 0-11l-8 10c0 0 7 2 8 1" transform="translate(36 36)"/><path d="m0 0c-1-1 0-11 0-11l8 10c0 0-7 2-8 1" transform="translate(2 36)"/></g><path d="m0 0c0-1.933-.896-3.5-2-3.5-1.104 0-2 1.567-2 3.5 0 1.933.896 3.5 2 3.5 1.104 0 2-1.567 2-3.5" fill="#292f33" transform="translate(15 22.5)" id="1"/><use transform="translate(12)" xlink:href="#1"/><path d="m0 0c3 0 3-.5 3-1.5 0-1-1.5-3-3-3-1.5 0-3 2-3 3 0 1 0 1.5 3 1.5" fill="#67757f" transform="translate(19 17.5)"/><g fill="#9aaab4"><path d="m0 0c-.209 0-.404.133-.475.342-.087.262.055.545.317.633l9 2.999c.263.088.545-.054.633-.316.087-.262-.055-.545-.317-.632l-9-3c-.053-.017-.105-.025-.158-.025" transform="translate(27 16.5)"/><path d="m0 0c-.233 0-.441.164-.489.402-.055.271.121.535.392.588l10 2c.26.054.534-.12.588-.392.055-.271-.121-.535-.392-.588l-10-2c-.033-.007-.066-.01-.099-.01" transform="translate(25.999 14.5)"/><path d="m0 0c-.052 0-.105.008-.158.025l-9 3c-.262.087-.404.37-.316.632.087.262.368.404.632.316l9-2.999c.262-.088.404-.371.316-.633-.07-.209-.265-.342-.474-.342" transform="translate(11 16.5)"/><path d="m0 0c-.032 0-.065.003-.099.01l-10 2c-.27.053-.446.317-.392.588.054.271.313.449.589.392l10-2c.27-.053.446-.317.392-.588-.048-.238-.257-.402-.49-.402" transform="translate(12 14.5)"/></g><g fill="#292f33"><path d="m0 0c-.152.132-.369.159-.551.069l-4-2c-1.871-.935-6.727-.947-6.776-.947-.277 0-.5-.224-.5-.5 0-.185.1-.347.25-.433.002-.002.002-.002.002-.002.071-.04.153-.063.24-.065h.008 7c2.658 0 4.089 2.186 4.474 3.342.064.192.006.403-.147.536" transform="translate(26.327 11.378)"/><path d="m0 0c-.256 0-.512.098-.707.293-.391.391-.391 1.023 0 1.414 4.244 4.244 8.526 4.293 8.707 4.293.553 0 1-.448 1-1 0-.551-.445-.998-.995-1-.066-.001-3.687-.096-7.298-3.707-.195-.195-.451-.293-.707-.293" transform="translate(22 25)"/><path d="m0 0c-.256 0-.512.098-.707.293-3.626 3.625-7.262 3.707-7.298 3.707-.551.006-.995.455-.992 1 .003.551.447.995.997.995.18 0 4.463-.049 8.707-4.293.391-.391.391-1.023 0-1.414-.195-.195-.451-.293-.707-.293" transform="translate(16 25)"/></g></g></g></svg>