<svg xmlns="http://www.w3.org/2000/svg" viewBox="0 0 47.5 47.5" enable-background="new 0 0 47.5 47.5" xmlns:xlink="http://www.w3.org/1999/xlink"><defs><clipPath id="0"><path d="m0 38h38v-38h-38v38"/></clipPath></defs><g transform="matrix(1.25 0 0-1.25 0 47.5)"><g clip-path="url(#0)"><path d="m0 0c0-9.389-7.611-17-17-17-9.389 0-17 7.611-17 17 0 9.389 7.611 17 17 17 9.389 0 17-7.611 17-17" fill="#ffcc4d" transform="translate(36 19)"/><path d="m0 0c0-1.657-.895-3-2-3-1.104 0-2 1.343-2 3 0 1.657.896 3 2 3 1.105 0 2-1.343 2-3" fill="#664500" transform="translate(16 20)" id="1"/><use transform="translate(10)" xlink:href="#1"/><g fill="#664500"><path d="m0 0c-.012.044-1.146 4.379-5.485 4.379-4.341 0-5.475-4.335-5.485-4.379-.053-.213.043-.431.231-.544.188-.112.433-.086.596.06.01.007 1.014.863 4.658.863 3.589 0 4.617-.83 4.656-.863.095-.09.219-.137.344-.137.084 0 .169.021.246.064.196.112.294.339.239.557" transform="translate(24.485 8.121)"/><path d="m0 0c-5.554 0-7.802 4.367-7.895 4.553-.247.494-.046 1.095.448 1.342.493.246 1.092.047 1.34-.444.074-.145 1.82-3.451 6.107-3.451.553 0 1-.448 1-1 0-.552-.447-1-1-1" transform="translate(30 25)"/><path d="m0 0c-.552 0-1 .448-1 1 0 .552.448 1 1 1 5.083 0 5.996 3.12 6.03 3.253.145.528.692.848 1.219.709.53-.139.851-.673.718-1.205-.049-.194-1.266-4.757-7.97-4.757" transform="translate(8 25)"/></g></g></g></svg>