<svg xmlns="http://www.w3.org/2000/svg" viewBox="0 0 47.5 47.5" enable-background="new 0 0 47.5 47.5"><defs><clipPath id="0"><path d="m0 38h38v-38h-38v38"/></clipPath></defs><g transform="matrix(1.25 0 0-1.25 0 47.5)"><g clip-path="url(#0)"><path d="m0 0c0 2.209-1.791 4-4 4h-28c-2.209 0-4-1.791-4-4v-28c0-2.209 1.791-4 4-4h28c2.209 0 4 1.791 4 4v28" fill="#269" transform="translate(37 33)"/><g fill="#ffcc4d"><path d="m0 0c-.419 0-.809-.265-.949-.684l-3-9c-.175-.524.109-1.09.633-1.265.525-.177 1.09.109 1.265.632l3 9c.174.524-.109 1.09-.633 1.265-.105.035-.211.052-.316.052" transform="translate(19 17)"/><path d="m0 0c-.087 0-.175-.012-.263-.036-.533-.145-.847-.694-.702-1.227l3.226-11.857c.146-.532.697-.845 1.228-.702.533.145.847.695.702 1.228l-3.227 11.856c-.121.445-.524.738-.964.738" transform="translate(19 17)"/><path d="m0 0c-.218 0-.437-.071-.621-.216l-13.25-10.5c-.432-.343-.505-.972-.162-1.405.343-.433.972-.504 1.405-.163l13.25 10.5c.432.343.506.972.162 1.405-.197.249-.489.379-.784.379" transform="translate(19 17)"/><path d="m0 0c-.039 0-.077-.002-.116-.006l-12.333-1.417c-.548-.063-.942-.559-.879-1.108.063-.549.565-.944 1.108-.879l12.333 1.416c.548.063.942.559.879 1.108-.058.51-.491.886-.992.886" transform="translate(19 17)"/><path d="m0 0c-.373 0-.731-.21-.903-.569-.238-.499-.027-1.096.472-1.333l14.5-6.917c.497-.24 1.095-.027 1.333.471.238.499.027 1.096-.472 1.333l-14.5 6.917c-.139.067-.285.098-.43.098" transform="translate(4.501 23.917)"/><path d="m0 0c-.199 0-.399-.059-.574-.182-.452-.318-.561-.941-.243-1.393l10.667-15.167c.317-.452.941-.561 1.393-.243.452.317.56.941.242 1.393l-10.666 15.167c-.194.277-.505.425-.819.425" transform="translate(8.333 32.17)"/><path d="m0 0c-.276 0-.551-.114-.749-.337-.366-.413-.328-1.045.085-1.412l11.708-10.375c.414-.365 1.045-.328 1.412.086.366.413.328 1.045-.085 1.412l-11.708 10.375c-.191.168-.427.251-.663.251" transform="translate(19 17)"/><path d="m0 0c-.419 0-.81-.266-.949-.686-.174-.525.111-1.09.635-1.264l12.333-4.083c.528-.175 1.09.112 1.263.635.174.524-.11 1.09-.634 1.264l-12.334 4.083c-.104.034-.21.051-.314.051" transform="translate(19 17)"/><path d="m0 0c-.036 0-.072-.002-.108-.006l-13.835-1.5c-.549-.059-.946-.553-.886-1.102.06-.549.558-.944 1.102-.886l13.833 1.5c.55.059.947.553.887 1.102-.056.512-.489.892-.993.892" transform="translate(32.835 18.5)"/></g><g fill="none" stroke="#ffcc4d" stroke-linecap="round" stroke-width="2" stroke-miterlimit="10" transform="translate(19 16)"><path d="m0 0l8.917 6.5"/><path d="m0 0l7.834 13"/></g><path d="m0 0h-4v-19c0-1.104.896-2 2-2 1.105 0 2 .896 2 2v19" fill="#55acee" transform="translate(21 37)"/><g fill="#f5f8fa"><path d="m0 0c0 1.657-1.343 3-3 3-1.657 0-3-1.343-3-3 0-1.657 1.343-3 3-3 1.657 0 3 1.343 3 3" transform="translate(22 16)"/><path d="m0 0c0 1.303-1.057 2.359-2.359 2.359-1.304 0-2.36-1.056-2.36-2.359 0-1.303 1.056-2.359 2.36-2.359 1.302 0 2.359 1.056 2.359 2.359" transform="translate(7.963 5.306)"/><path d="m0 0c0 1.634-1.324 2.958-2.958 2.958-1.634 0-2.958-1.324-2.958-2.958 0-1.634 1.324-2.958 2.958-2.958 1.634 0 2.958 1.324 2.958 2.958" transform="translate(33.666 5.625)"/><path d="m0 0c0 .887-.719 1.606-1.606 1.606-.887 0-1.606-.719-1.606-1.606 0-.887.719-1.606 1.606-1.606.887 0 1.606.719 1.606 1.606" transform="translate(23.833 4.144)"/><path d="m0 0c0 .967-.784 1.75-1.75 1.75-.966 0-1.75-.783-1.75-1.75 0-.967.784-1.75 1.75-1.75.966 0 1.75.783 1.75 1.75" transform="translate(5.827 23.08)"/><path d="m0 0c0 1.565-1.269 2.833-2.833 2.833-1.565 0-2.834-1.268-2.834-2.833 0-1.564 1.269-2.833 2.834-2.833 1.564 0 2.833 1.269 2.833 2.833" transform="translate(10.75 31.833)"/><path d="m0 0c0 1.22-.989 2.209-2.209 2.209-1.219 0-2.208-.989-2.208-2.209 0-1.22.989-2.208 2.208-2.208 1.22 0 2.209.988 2.209 2.208" transform="translate(35.33 17.584)"/><path d="m0 0c0 .967-.783 1.75-1.75 1.75-.967 0-1.75-.783-1.75-1.75 0-.967.783-1.75 1.75-1.75.967 0 1.75.783 1.75 1.75" transform="translate(28.667 29)"/></g></g></g></svg>