<svg xmlns="http://www.w3.org/2000/svg" viewBox="0 0 47.5 47.5" enable-background="new 0 0 47.5 47.5" xmlns:xlink="http://www.w3.org/1999/xlink"><defs><clipPath id="0"><path d="m0 38h38v-38h-38v38"/></clipPath></defs><g transform="matrix(1.25 0 0-1.25 0 47.5)"><g clip-path="url(#0)"><path d="m0 0c0-1.104-.896-2-2-2h-3c-1.104 0-2 .896-2 2v8c0 1.104.896 2 2 2h3c1.104 0 2-.896 2-2v-8" fill="#66757f" transform="translate(35 4)" id="1"/><use transform="translate(-25)" xlink:href="#1"/><g fill="#66757f"><path d="m0 0c0-.829-.671-1.5-1.5-1.5h-2c-.829 0-1.5.671-1.5 1.5 0 .829.671 1.5 1.5 1.5h2c.829 0 1.5-.671 1.5-1.5" transform="translate(6 21.5)"/><path d="m0 0c0-.829.672-1.5 1.5-1.5h2c.828 0 1.5.671 1.5 1.5 0 .829-.672 1.5-1.5 1.5h-2c-.828 0-1.5-.671-1.5-1.5" transform="translate(32 21.5)"/></g><path d="m0 0c4 1 14 1 18 0 3.881-.97 5-11 5-11 0 0 2 0 2-4v-8c0 0 0-3-3-4-3.911-1.304-8-1-13-1-5 0-9.09-.304-13 1-3 1-3 4-3 4v8c0 0 0 4 2 4 0 0 1.12 10.03 5 11" fill="#ccd6dd" transform="translate(10 32)"/><path d="m0 0c-5.718 0-11.136.101-16 .279v-7.279c0 0 0-3 3-4 3.912-1.304 8-1 13-1 5 0 9.09-.304 13 1 3 1 3 4 3 4v7.279c-4.864-.178-10.282-.279-16-.279" fill="#292f33" transform="translate(19 16)"/><path d="m0 0c3.905 0 8.623-.2 12-.562l-1 5.562c-1 3-7 3-11 3s-10 0-11-3l-1-5.562c3.377.362 8.095.562 12 .562" fill="#55acee" transform="translate(19 22)"/><g fill="#ccd6dd"><path d="m0 0c0-1.104-.896-2-2-2h-4c-1.104 0-2 .896-2 2 0 1.104.896 2 2 2h4c1.104 0 2-.896 2-2" transform="translate(13 13)"/><path d="m0 0c0-1.104.896-2 2-2h4c1.104 0 2 .896 2 2 0 1.104-.896 2-2 2h-4c-1.104 0-2-.896-2-2" transform="translate(25 13)"/></g><path d="m0 0c0-.828-.672-1.5-1.5-1.5h-19c-.829 0-1.5.672-1.5 1.5 0 .828.671 1.5 1.5 1.5h19c.828 0 1.5-.672 1.5-1.5" fill="#66757f" transform="translate(30 8.5)"/><g fill="#99aab5"><path d="m0 0c-.15 0-.303.034-.446.105l-6 3c-.494.248-.695.848-.448 1.342.247.494.847.696 1.342.448l6-3c.494-.248.695-.848.448-1.342-.176-.351-.529-.553-.896-.553" transform="translate(12.999 16)"/><path d="m0 0c-.367 0-.72.202-.896.553-.247.494-.046 1.094.448 1.342l6 3c.494.246 1.094.046 1.342-.448.247-.494.046-1.094-.448-1.342l-6-3c-.143-.071-.296-.105-.446-.105" transform="translate(25 16)"/></g><path d="m0 0c0-.829-.671-1.5-1.5-1.5h-7c-.829 0-1.5.671-1.5 1.5 0 .829.671 1.5 1.5 1.5h7c.829 0 1.5-.671 1.5-1.5" fill="#dd2e44" transform="translate(19 33.5)"/><path d="m0 0c0-.829-.672-1.5-1.5-1.5h-7c-.829 0-1.5.671-1.5 1.5 0 .829.671 1.5 1.5 1.5h7c.828 0 1.5-.671 1.5-1.5" fill="#55acee" transform="translate(29 33.5)"/><path d="m21 32h-4v3h4v-3" fill="#f5f8fa"/></g></g></svg>