<svg xmlns="http://www.w3.org/2000/svg" viewBox="0 0 47.5 47.5" enable-background="new 0 0 47.5 47.5"><defs><clipPath id="0"><path d="m0 38h38v-38h-38v38"/></clipPath></defs><g transform="matrix(1.25 0 0-1.25 0 47.5)"><g clip-path="url(#0)"><path d="m0 0c-.041.609-.284 1.18-.674 1.644l-.356 2.057c-.376 2.01-2.233 3.386-4.262 3.169l-23.392-3.736c-1.882-.201-3.35-1.722-3.484-3.611l1.76-11.146c.305-2.169 2.152-3.788 4.341-3.814.677-.007 1.238-.016 1.463-.027l9.483-.463c-.362-.483-.821-1.08-.821-1.718v-.051c0-1.581 1.771-3.06 3.352-3.06h7.282c.76 0 1.489.401 2.026.938l4.424 4.471c.583.584.886 1.416.832 2.241l-1.974 13.11" fill="#d99e82" transform="translate(33.942 25.756)"/><g fill="#c1694f"><path d="m0 0c-.474 0-.895.338-.983.821l-2.06 11.332c-.099.544.262 1.064.805 1.163.547.097 1.064-.262 1.163-.805l2.06-11.332c.098-.543-.262-1.064-.805-1.162-.061-.012-.121-.017-.18-.017" transform="translate(9.217 10.377)"/><path d="m0 0c-.518 0-.956.398-.996.923l-1.03 13.393c-.043.551.369 1.031.92 1.074.549.044 1.031-.371 1.074-.921l1.03-13.392c.043-.551-.37-1.032-.92-1.074-.026-.002-.053-.003-.078-.003" transform="translate(15.398 10.377)"/><path d="m0 0c-.508 0-.757.001-.951 1.062l-.044.002c.001.055.007.109.016.162-.173 1.068-.308 3.069-.56 6.817-.235 3.49-.486 7.552-.486 8.485 0 .552.447 1 1 1 .552 0 1-.448 1-1 0-1.533.795-13.324.981-15.14.032-.097.049-.2.049-.308 0-.265-.108-.556-.295-.744-.188-.187-.444-.331-.71-.331" transform="translate(22.606 9.272)"/><path d="m0 0h-6.658c-.552 0-1 .447-1 1 0 .553.448 1 1 1h6.658c1.458 0 2.644 1.186 2.644 2.644v12.839c0 .552.447 1 1 1 .552 0 1-.448 1-1v-12.839c0-2.561-2.083-4.644-4.644-4.644" transform="translate(26.18 8.316)"/></g></g></g></svg>