<svg xmlns="http://www.w3.org/2000/svg" viewBox="0 0 47.5 47.5" enable-background="new 0 0 47.5 47.5"><defs><clipPath id="0"><path d="m0 38h38v-38h-38v38"/></clipPath></defs><g transform="matrix(1.25 0 0-1.25 0 47.5)"><g clip-path="url(#0)"><path d="m0 0c0-9.389-7.611-17-17-17-9.388 0-17 7.611-17 17 0 9.388 7.612 17 17 17 9.389 0 17-7.612 17-17" fill="#ffcc4d" transform="translate(36 19)"/><g fill="#664500"><path d="m0 0c1.335.412 2.629 1.156 2.629 2.5 0 2.619-4.912 2.968-5.472 2.999-.274.027-.509-.193-.527-.468-.017-.273.19-.51.464-.53.035-.002 3.535-.299 3.535-2 0-1.702-3.5-1.999-3.535-2-.013-.001-.024-.008-.036-.01-.054-.006-.103-.017-.149-.041-.006-.003-.01-.007-.015-.009-.048-.027-.091-.058-.127-.099-.014-.015-.023-.031-.035-.047-.023-.032-.045-.064-.06-.103-.012-.029-.018-.06-.024-.091-.005-.024-.017-.044-.018-.068-.001-.01.004-.02.004-.031 0-.011-.005-.021-.004-.031.001-.025.013-.045.018-.069.006-.031.011-.06.023-.089.013-.031.031-.057.049-.084.017-.025.032-.05.053-.072.022-.023.05-.041.077-.06.025-.017.046-.034.074-.047.032-.015.066-.021.1-.027.024-.006.045-.018.07-.02.035-.002 3.535-.299 3.535-2 0-1.702-3.5-1.999-3.535-2-.274-.02-.481-.257-.464-.53.017-.265.237-.469.498-.469.01 0 .02 0 .029.001.56.031 5.472.38 5.472 2.999 0 1.344-1.294 2.088-2.629 2.5" transform="translate(21.871 9)"/><path d="m0 0c-.419 0-.809.265-.949.684-.203.599-1.017 2.316-2.051 2.316-1.062 0-1.888-1.827-2.051-2.316-.175-.524-.739-.808-1.265-.632-.524.174-.808.74-.633 1.264.126.377 1.304 3.684 3.949 3.684 2.645 0 3.823-3.307 3.949-3.684.175-.524-.109-1.09-.633-1.264-.105-.035-.211-.052-.316-.052" transform="translate(17 18)"/><path d="m0 0c-.419 0-.809.265-.948.684-.203.599-1.019 2.316-2.052 2.316-1.062 0-1.889-1.827-2.052-2.316-.175-.524-.736-.808-1.264-.632-.524.174-.807.74-.632 1.264.125.377 1.303 3.684 3.948 3.684 2.645 0 3.823-3.307 3.948-3.684.175-.524-.108-1.09-.632-1.264-.105-.035-.211-.052-.316-.052" transform="translate(27 18)"/></g></g></g></svg>