<svg xmlns="http://www.w3.org/2000/svg" viewBox="0 0 47.5 47.5" enable-background="new 0 0 47.5 47.5"><defs><clipPath id="0"><path d="m0 38h38v-38h-38v38"/></clipPath></defs><g transform="matrix(1.25 0 0-1.25 0 47.5)"><g clip-path="url(#0)"><path d="m0 0c0-2.209-1.791-4-4-4h-28c-2.209 0-4 1.791-4 4v28c0 2.209 1.791 4 4 4h28c2.209 0 4-1.791 4-4v-28" fill="#9aaab4" transform="translate(37 5)"/><path d="m0 0c-.63.901-1.637.884-2.236-.038l-10.821-16.647c-.599-.921-.19-1.676.911-1.676h23c1.099 0 1.483.737.853 1.638l-11.707 16.723" fill="#f5f8fa" transform="translate(20.15 29.361)"/></g></g></svg>