<svg xmlns="http://www.w3.org/2000/svg" viewBox="0 0 47.5 47.5" enable-background="new 0 0 47.5 47.5"><defs><clipPath id="0"><path d="m0 38h38v-38h-38v38"/></clipPath></defs><g transform="matrix(1.25 0 0-1.25 0 47.5)"><g clip-path="url(#0)"><g fill="#58595b"><path d="m0 0c0-3.866-3.135-7-7-7-3.867 0-7 3.134-7 7 0 3.866 3.133 7 7 7 3.865 0 7-3.134 7-7" transform="translate(25 26)"/><path d="m0 0c0-3.313-2.687-6-6-6-3.313 0-6 2.687-6 6 0 3.313 2.687 6 6 6 3.313 0 6-2.687 6-6" transform="translate(34.999 23)"/></g><path d="m0 0c0-2.761-2.239-5-5-5-2.762 0-5 2.239-5 5 0 2.761 2.238 5 5 5 2.761 0 5-2.239 5-5" fill="#939598" transform="translate(23 26)"/><path d="m0 0c0-1.104-1-2-2-2-1 0-2 .896-2 2 0 1.104.896 2 2 2 1.104 0 2-.896 2-2" fill="#bcbec0" transform="translate(20 26)"/><g fill="#58595b"><path d="m0 0c0-2.209-1.791-4-4-4h-13c-2.209 0-4 1.791-4 4v8c0 2.209 1.791 4 4 4h13c2.209 0 4-1.791 4-4v-8" transform="translate(31 8)"/><path d="m24 19h-3v3h3v-3"/></g><path d="m0 0c0-2.209-1.791-4-4-4-2.209 0-4 1.791-4 4 0 2.209 1.791 4 4 4 2.209 0 4-1.791 4-4" fill="#939598" transform="translate(32.999 23)"/><path d="m0 0c0-1.104-.896-2-2-2-1.104 0-2 .896-2 2 0 1.104.896 2 2 2 1.104 0 2-.896 2-2" fill="#bcbec0" transform="translate(30.999 23)"/><g fill="#58595b"><path d="m0 0h-1.999l-6 4h-1v-14h1l6 4h2c1.657 0 3 1.343 3 3 0 1.657-1.343 3-3 3" transform="translate(11 16)"/><path d="m0 0v-1h-5c-1.104 0-2-.896-2-2 0-1.104.896-2 2-2h5v-1h3v6h-3" transform="translate(33 16)"/></g><path d="m28 7h-10v10h10v-10" fill="#808285"/><path d="m26 9h-6v6h6v-6" fill="#58595b"/><path d="m0 0c0-1.104-.896-2-2-2-1.104 0-2 .896-2 2 0 1.104.896 2 2 2 1.104 0 2-.896 2-2" fill="#808285" transform="translate(15.999 9)"/></g></g></svg>