<svg xmlns="http://www.w3.org/2000/svg" viewBox="0 0 47.5 47.5" enable-background="new 0 0 47.5 47.5"><defs><clipPath id="0"><path d="m0 38h38v-38h-38v38"/></clipPath></defs><g transform="matrix(1.25 0 0-1.25 0 47.5)"><g clip-path="url(#0)"><path d="m0 0c-9.941 0-18 8.06-18 18 0 9.941 8.06 18 18 18 9.941 0 18-8.06 18-18 0-9.941-8.06-18-18-18" fill="#292f33" transform="translate(19 1)"/><path d="m0 0c0-4.971-4.03-9-9-9-4.971 0-9 4.03-9 9 0 4.971 4.03 9 9 9 4.971 0 9-4.03 9-9" fill="#e1e8ed" transform="translate(28 19)"/><path d="m0 0c0-.791.457-1.336 1.266-1.336.808 0 1.283.545 1.283 1.336 0 .756-.457 1.336-1.283 1.336-.827 0-1.266-.58-1.266-1.336m-.334-5.098c0-.896.527-1.757 1.6-1.757 1 0 1.599.861 1.599 1.757 0 1.108-.633 1.758-1.599 1.758-1.02 0-1.6-.773-1.6-1.758m-2.742-.175c0 1.406.773 2.443 1.881 3.041-.826.597-1.336 1.406-1.336 2.513 0 2.057 1.705 3.375 3.797 3.375 2.039 0 3.814-1.301 3.814-3.375 0-.984-.492-1.968-1.353-2.513 1.195-.598 1.88-1.688 1.88-3.041 0-2.444-1.986-4.01-4.341-4.01-2.426 0-4.342 1.652-4.342 4.01" fill="#292f33" transform="translate(17.779 22.07)"/></g></g></svg>