<svg xmlns="http://www.w3.org/2000/svg" viewBox="0 0 47.5 47.5" enable-background="new 0 0 47.5 47.5"><defs><clipPath id="0"><path d="m0 38h38v-38h-38v38"/></clipPath></defs><g transform="matrix(1.25 0 0-1.25 0 47.5)"><g clip-path="url(#0)"><path d="m0 0c0 6.651-7.597 12.04-16.967 12.04-9.371 0-16.968-5.391-16.968-12.04 0-6.649 7.597-8.162 16.968-8.162 9.37 0 16.967 1.513 16.967 8.162" fill="#d99e82" transform="translate(35.935 10.323)"/><path d="m0 0c0 6.651-7.597 12.04-16.967 12.04-9.371 0-16.968-5.391-16.968-12.04 0-6.649 7.597-8.162 16.968-8.162 9.37 0 16.967 1.513 16.967 8.162" fill="#662113" transform="translate(35.935 16.14)"/><path d="m0 0c-.964-.531-1.288-.529-2.25.003 0 0-7 3.615-15.709 6.323-1.166.583-.267 2.625.834 2.625l31.875-.041c1.1 0 2-2.311 1.125-2.542-6.209-1.625-15.875-6.368-15.875-6.368" fill="#ffcc4d" transform="translate(20.17 10.549)"/><path d="m0 0c0 6.651-7.597 12.04-16.967 12.04-9.371 0-16.968-5.391-16.968-12.04 0-6.65 7.597-7.375 16.968-7.375 9.37 0 16.967.725 16.967 7.375" fill="#d99e82" transform="translate(35.935 21.959)"/><g fill="#ffe8b6"><path d="m0 0c-.498.317-.644.979-.326 1.477.319.498.98.644 1.478.325.498-.318 1.244-1.363.927-1.861-.319-.498-1.581-.26-2.079.059" transform="translate(10.742 28.976)"/><path d="m0 0c.561.183 1.164-.125 1.347-.686.182-.562-.124-1.166-.687-1.348-.562-.183-1.844-.096-2.026.466-.183.562.804 1.386 1.366 1.568" transform="translate(21.627 31.813)"/><path d="m0 0c-.38-.453-1.055-.512-1.507-.131-.452.38-.511 1.054-.131 1.507.381.452 1.514 1.058 1.966.677.453-.38.053-1.6-.328-2.053" transform="translate(32.21 22.725)"/><path d="m0 0c-.498.317-.645.979-.326 1.477.318.498.979.644 1.477.325.498-.318 1.245-1.363.927-1.861-.318-.498-1.58-.26-2.078.059" transform="translate(27.742 27.976)"/><path d="m0 0c-.498.317-.645.979-.326 1.476.318.498.979.644 1.477.326.498-.319 1.245-1.364.927-1.861-.318-.499-1.58-.26-2.078.059" transform="translate(12.742 20.977)"/><path d="m0 0c.335.486 1 .609 1.487.273.487-.336.609-1 .273-1.488-.336-.486-1.407-1.196-1.893-.86-.487.336-.203 1.589.133 2.075" transform="translate(16.94 27.586)"/><path d="m0 0c-.498.316-.645.979-.326 1.476.318.498.979.644 1.477.326.498-.319 1.245-1.364.927-1.861-.318-.499-1.58-.26-2.078.059" transform="translate(23.742 20.977)"/><path d="m0 0c.394.44 1.07.478 1.51.084.44-.395.478-1.07.083-1.511-.394-.44-1.546-1.01-1.985-.615-.441.395-.003 1.602.392 2.042" transform="translate(6.06 26.665)"/></g></g></g></svg>