<svg xmlns="http://www.w3.org/2000/svg" viewBox="0 0 47.5 47.5" enable-background="new 0 0 47.5 47.5"><defs><clipPath id="0"><path d="m0 38h38v-38h-38v38"/></clipPath></defs><g transform="matrix(1.25 0 0-1.25 0 47.5)"><g clip-path="url(#0)"><path d="m0 0c0 0 0 4 4 4h28c0 0 4 0 4-4v-18c0 0 0-4-4-4h-28c0 0-4 0-4 4v18" fill="#292f33" transform="translate(1 27)"/><path d="m0 0c0-5.523 4.477-10 10-10 5.523 0 10 4.477 10 10 0 5.523-4.477 10-10 10-5.523 0-10-4.477-10-10" fill="#ccd6dd" transform="translate(12 18)"/><path d="m0 0c0-4.419-3.581-8-8-8-4.418 0-8 3.581-8 8 0 4.418 3.582 8 8 8 4.419 0 8-3.582 8-8" fill="#292f33" transform="translate(30 18)"/><path d="m0 0c0-2.762-2.238-5-5-5-2.762 0-5 2.238-5 5 0 2.762 2.238 5 5 5 2.762 0 5-2.238 5-5" fill="#3b88c3" transform="translate(27 18)"/><path d="m0 0c0-.829-.672-1.5-1.5-1.5-.828 0-1.5.671-1.5 1.5 0 .829.672 1.5 1.5 1.5.828 0 1.5-.671 1.5-1.5" fill="#fff" transform="translate(35 27.5)"/><path d="m0 0c0-.829-.671-1.5-1.5-1.5h-5c-.829 0-1.5.671-1.5 1.5 0 .829.671 1.5 1.5 1.5h5c.829 0 1.5-.671 1.5-1.5" fill="#f5f8fa" transform="translate(13 27.5)"/><path d="m0 0c0 0 0 1 1 1h6c0 0 1 0 1-1v-1h-8v1" fill="#66757f" transform="translate(5 32)"/></g></g></svg>