<svg xmlns="http://www.w3.org/2000/svg" viewBox="0 0 47.5 47.5" enable-background="new 0 0 47.5 47.5"><defs><clipPath id="0"><path d="m0 38h38v-38h-38v38"/></clipPath></defs><g transform="matrix(1.25 0 0-1.25 0 47.5)"><g clip-path="url(#0)"><path d="m0 0c0-2.209-1.791-4-4-4h-28c-2.209 0-4 1.791-4 4v28c0 2.209 1.791 4 4 4h28c2.209 0 4-1.791 4-4v-28" fill="#9aaab4" transform="translate(37 5)"/><g fill="#f5f8fa"><path d="m0 0h-1.958c-1.592 0-2.255 1.162-2.255 2.289 0 1.16.829 2.288 2.255 2.288h4.71c1.426 0 2.223-1.028 2.223-2.354v-18.875c0-1.658-1.061-2.586-2.488-2.586-1.425 0-2.487.928-2.487 2.586v16.652" transform="translate(8.213 26.02)"/><path d="m0 0c0 2.521-.232 7.696-3.616 7.696-3.383 0-3.615-5.175-3.615-7.696 0-2.355.232-7.695 3.615-7.695 3.384 0 3.616 5.34 3.616 7.695m-12.406 0c0 5.407 2.09 12.207 8.79 12.207 6.7 0 8.791-6.8 8.791-12.207 0-5.406-2.091-12.207-8.791-12.207-6.7 0-8.79 6.801-8.79 12.207" transform="translate(28.586 18.794)"/></g></g></g></svg>