<svg xmlns="http://www.w3.org/2000/svg" viewBox="0 0 47.5 47.5" enable-background="new 0 0 47.5 47.5"><defs><clipPath id="0"><path d="m0 38h38v-38h-38v38"/></clipPath></defs><g transform="matrix(1.25 0 0-1.25 0 47.5)"><g clip-path="url(#0)"><path d="m0 0c-.256 0-.512.098-.707.293-.391.391-.391 1.023 0 1.414l7.778 7.778c.391.39 1.024.39 1.414 0 .391-.391.391-1.024 0-1.414l-7.778-7.778c-.195-.195-.451-.293-.707-.293" fill="#66757f" transform="translate(26.07 26.07)"/><path d="m0 0c-.781-.78-2.048-.78-2.829 0l-1.414 1.414c-.781.781-.781 2.048 0 2.829l4.95 4.949c.781.782 2.047.782 2.828 0l1.415-1.414c.78-.781.78-2.047 0-2.828l-4.95-4.95" fill="#ccd6dd" transform="translate(7.687 4.443)"/><path d="m0 0c-.586-.586-1.536-.585-2.121 0l-2.121 2.121c-.586.586-.586 1.536 0 2.122.585.586 1.535.586 2.121 0l2.121-2.122c.586-.585.586-1.535 0-2.121" fill="#99aab5" transform="translate(27.839 24.596)"/><path d="m0 0c-.781-.781-2.047-.781-2.828 0l-4.243 4.242c-.781.781-.781 2.048 0 2.829l12.02 12.02c.781.781 2.048.781 2.828 0l4.243-4.243c.781-.781.781-2.047 0-2.828l-12.02-12.02" fill="#e1e8ed" transform="translate(15.464 9.394)"/><path d="m0 0c-.781-.78-1.34-.073-2.121.707l-4.243 4.243c-.781.781-1.488 1.341-.707 2.121l7.778 7.779c.781.78 2.048.78 2.828 0l4.243-4.243c.782-.781.782-2.047 0-2.829l-7.778-7.778" fill="#dd2e44" transform="translate(19.707 13.636)"/><g fill="#99aab5"><path d="m0 0c-.585-.586-1.536-.586-2.121 0l-7.778 7.777c-.586.586-.586 1.536 0 2.122.585.586 1.535.586 2.121 0l7.778-7.778c.586-.586.586-1.536 0-2.121" transform="translate(15.818 6.919)"/><path d="m0 0c-.585-.586-1.536-.586-2.122 0l-4.949 4.95c-.586.586-.586 1.535 0 2.121.585.586 1.535.586 2.121 0l4.95-4.95c.585-.585.585-1.535 0-2.121" transform="translate(8.747 2.676)"/></g><g fill="#dd2e44"><path d="m0 0c-.374.582-.887 1.38-1.535 2.676-.131.263-.565.263-.695 0-.649-1.296-1.162-2.094-1.536-2.676-.523-.814-.838-1.306-.838-2.165 0-1.501 1.22-2.722 2.721-2.722 1.501 0 2.722 1.221 2.722 2.722 0 .859-.316 1.351-.839 2.165" transform="translate(34.883 20.498)"/><path d="m0 0c-.374.582-.887 1.38-1.535 2.676-.131.263-.565.263-.695 0-.649-1.296-1.162-2.094-1.536-2.676-.523-.814-.838-1.307-.838-2.164 0-1.501 1.22-2.723 2.721-2.723 1.501 0 2.722 1.222 2.722 2.723 0 .857-.316 1.35-.839 2.164" transform="translate(30.883 11.498)"/></g></g></g></svg>