<svg xmlns="http://www.w3.org/2000/svg" viewBox="0 0 47.5 47.5" enable-background="new 0 0 47.5 47.5"><defs><clipPath id="0"><path d="m0 38h38v-38h-38v38"/></clipPath><clipPath id="1"><path d="m20.08 33.31c-.247-.166-6.067-4.07-7.079-4.792-.372-.266-.475-.774-.234-1.164.675-1.092 3.729-6.131 5.04-8.318-1.369-1.125-3.432-2.895-5.058-4.609-.153-.161-.239-.376-.239-.598 0-.604.142-1.376.354-2.351.055-.252.218-.465.447-.585.125-.066.263-.099.402-.099.112 0 .225.023.332.066.13.054 12.958 5.368 14.301 5.863.342.125.569.45.569.815 0 .919-1.019 4.808-1.029 4.846-.023.085-.057.165-.103.238-.669 1.076-1.517 2.475-2.382 3.902-1.811 2.993-3.521 5.819-4.16 6.61-.17.211-.421.323-.676.323-.166 0-.335-.048-.483-.147"/></clipPath></defs><g transform="matrix(1.25 0 0-1.25 0 47.5)"><g clip-path="url(#0)"><path d="m0 0v-16.95c0 0 0-4-4-4h-28c-4 0-4 4-4 4v2c0 0 15.958 6.875 36 14.95" fill="#e1e8ed" transform="translate(37 21.95)"/><path d="m0 0c-.139 0-.277.033-.402.1-.229.119-.392.333-.447.585-.212.974-.353 1.747-.353 2.35 0 .223.085.437.238.598 1.627 1.715 3.69 3.483 5.058 4.608-1.308 2.187-4.363 7.227-5.04 8.32-.24.389-.138.897.235 1.163 1.012.722 6.831 4.626 7.079 4.792.374.252.877.174 1.159-.176.638-.791 2.348-3.617 4.16-6.609.864-1.428 1.712-2.828 2.382-3.903.046-.073.08-.153.102-.237.01-.039 1.03-3.928 1.03-4.847 0-.364-.228-.689-.57-.815-1.342-.494-14.171-5.809-14.3-5.863-.107-.044-.22-.066-.333-.066" fill="#55acee" transform="translate(13.709 10.798)"/><g fill="#269"><path d="m0 0c-.339 0-.661.199-.801.531-.186.443.021.952.463 1.139l7.208 3.042c.445.184.952-.022 1.138-.463.187-.442-.02-.952-.463-1.139l-7.208-3.042c-.11-.046-.225-.068-.337-.068" transform="translate(12.751 9.631)"/><path d="m0 0c-.335 0-.654.195-.797.522-.191.441.011.953.45 1.144l4.791 2.084c.439.19.952-.009 1.144-.45.191-.441-.011-.952-.45-1.144l-4.791-2.084c-.114-.049-.231-.072-.347-.072" transform="translate(24.834 14.714)"/></g><path d="m0 0c-.208 0-.411.014-.61.042-1.264.181-2.26.931-2.878 2.168-.247.494-.047 1.095.447 1.342.495.246 1.095.047 1.342-.448.632-1.265 1.864-1.45 3.658-.552 1.23.615 7.657 3.302 14.462 6.148 4.396 1.838 8.793 3.677 11.592 4.876.503.219 1.094-.017 1.312-.525.218-.507-.017-1.095-.525-1.313-2.802-1.201-7.205-3.042-11.608-4.884-6.474-2.707-13.169-5.506-14.338-6.091-1.016-.508-1.973-.763-2.854-.763" fill="#be1931" transform="translate(6.594 5.343)"/></g><g clip-path="url(#1)"><path d="m0 0c-.275.36-.759.489-1.175.318-1.177-.484-1.224-1.541-1.259-2.312-.05-1.12-.119-2.654-2.998-4.698-.866-.577-.682-1.473 1.039-5.04.9-1.867 1.993-3.924 2.489-4.759.183-.31.513-.49.859-.49.1 0 .201.016.3.047 1.331.418 3.16 1.136 4.774 1.769 1.176.461 2.286.897 3.04 1.155.386.131.676.434.797.83.416 1.373-2.23 5.808-7.866 13.182" fill="#3b88c3" transform="translate(23.67 34.816)"/></g><g clip-path="url(#0)"><g fill="#269"><path d="m0 0c-.284 0-.562.139-.729.394-.262.402-.148.94.253 1.202l2.498 1.629c.403.263.939.149 1.202-.253.262-.402.149-.94-.253-1.202l-2.497-1.629c-.147-.096-.311-.141-.474-.141" transform="translate(17.69 22.471)"/><path d="m0 0c-.42 0-.789.305-.857.733-.075.474.248.918.722.994l2.968.47c.476.074.917-.248.994-.722.074-.474-.249-.919-.723-.994l-2.967-.47c-.046-.008-.092-.011-.137-.011" transform="translate(19.679 19.395)"/><path d="m0 0c-.138 0-.278.033-.408.103l-1.731.924c-.424.227-.583.753-.357 1.176.225.423.75.583 1.175.358l1.731-.925c.423-.227.583-.753.358-1.176-.158-.293-.457-.46-.768-.46" transform="translate(20.541 14.923)"/></g><g fill="#bbddf5"><path d="m0 0c-.304 0-.599.159-.758.442-.235.418-.087.948.331 1.183l5.625 3.167c.418.236.948.087 1.183-.331.235-.418.087-.947-.331-1.183l-5.625-3.166c-.135-.076-.28-.112-.425-.112" transform="translate(24.543 31.465)"/><path d="m0 0c-.304 0-.599.159-.758.443-.235.418-.087.948.331 1.183l3.333 1.875c.418.235.948.087 1.183-.332.235-.418.087-.947-.331-1.183l-3.333-1.875c-.135-.075-.281-.111-.425-.111" transform="translate(27.04 27.756)"/><path d="m0 0c-.308 0-.605.163-.763.452-.23.421-.076.948.345 1.179l2.208 1.208c.419.232.949.077 1.179-.345.23-.421.076-.949-.345-1.179l-2.208-1.209c-.132-.072-.275-.106-.416-.106" transform="translate(29.04 23.756)"/></g></g></g></svg>