<svg xmlns="http://www.w3.org/2000/svg" viewBox="0 0 47.5 47.5" enable-background="new 0 0 47.5 47.5"><defs><clipPath id="0"><path d="m0 38h38v-38h-38v38"/></clipPath></defs><g transform="matrix(1.25 0 0-1.25 0 47.5)"><g clip-path="url(#0)"><path d="m0 0c0-2.209-1.791-4-4-4h-28c-2.209 0-4 1.791-4 4v28c0 2.209 1.791 4 4 4h28c2.209 0 4-1.791 4-4v-28" fill="#269" transform="translate(37 5)"/><g fill="#fff"><path d="m0 0c-.066.286-.088.44-.088.748 0 .704.594 1.452 1.562 1.452 1.056 0 1.562-.616 1.76-1.584l1.87-9.352h.044l2.861 9.638c.242.792.902 1.298 1.716 1.298.814 0 1.474-.506 1.716-1.298l2.861-9.638h.044l1.87 9.352c.198.968.704 1.584 1.76 1.584.968 0 1.562-.748 1.562-1.452 0-.308-.021-.462-.088-.748l-2.794-12.01c-.22-.924-.946-1.716-2.178-1.716-1.079 0-1.915.704-2.178 1.606l-2.553 8.493h-.044l-2.553-8.493c-.263-.902-1.099-1.606-2.177-1.606-1.233 0-1.959.792-2.179 1.716l-2.794 12.01" transform="translate(2.695 23.598)"/><path d="m0 0c1.607 0 4.73-.528 4.73-2.464 0-.792-.548-1.474-1.363-1.474-.902 0-1.517.77-3.367.77-2.729 0-4.136-2.311-4.136-4.995 0-2.619 1.431-4.863 4.136-4.863 1.85 0 2.598.924 3.5.924.99 0 1.451-.989 1.451-1.496 0-2.112-3.322-2.596-4.951-2.596-4.466 0-7.568 3.542-7.568 8.097 0 4.576 3.08 8.097 7.568 8.097" transform="translate(30.349 25.93)"/></g></g></g></svg>