<svg xmlns="http://www.w3.org/2000/svg" viewBox="0 0 47.5 47.5" enable-background="new 0 0 47.5 47.5" xmlns:xlink="http://www.w3.org/1999/xlink"><defs><clipPath id="0"><path d="m0 38h38v-38h-38v38"/></clipPath></defs><g transform="matrix(1.25 0 0-1.25 0 47.5)"><g clip-path="url(#0)"><g fill="#f4900c"><path d="m0 0c-.517-.781-1.353-.781-1.869 0l-4.678 5.071c-.516.782-.516 2.048 0 2.828l4.678 9.07c.516.78 1.352.78 1.869 0l4.678-9.07c.516-.78.516-2.046 0-2.828l-4.678-5.071" transform="translate(19.935 11.515)"/><path d="m0 0c-.517-.781-1.353-.781-1.869 0l-4.678 5.071c-.516.782-.516 2.047 0 2.828l6.678 9.07c.516.78 1.352.78 1.869 0l2.678-9.07c.516-.781.516-2.046 0-2.828l-4.678-5.071" transform="translate(29.435 9.515)"/><path d="m0 0c-.517-.781-1.354-.781-1.871 0l-4.677 5.071c-.516.782-.516 2.047 0 2.828l2.677 9.07c.517.78 1.354.78 1.871 0l6.678-9.07c.516-.781.516-2.046 0-2.828l-4.678-5.071" transform="translate(10.435 9.515)"/></g><path d="m0 0c-.45-.45-2.12-2.124-4-4.369l-4.565 8.854c-.517.781-1.353.781-1.87 0l-4.565-8.853-4.565 8.853c-.517.781-1.354.781-1.871 0l-4.564-8.853c-1.88 2.245-3.55 3.918-4 4.368-1 1-2.485.94-2-1 1-4 1-7 1-12v-2c0-2.209 1.791-4 4-4h24c2.209 0 4 1.791 4 4v2c0 5 0 8 1 12 .484 1.94-1 2-2 1" fill="#ffcc4d" transform="translate(34 26)"/><path d="m0 0c0-1.657-1.343-3-3-3-1.657 0-3 1.343-3 3 0 1.657 1.343 3 3 3 1.657 0 3-1.343 3-3" fill="#5c913b" transform="translate(22 15)"/><path d="m0 0c0-1.104-.896-2-2-2-1.104 0-2 .896-2 2 0 1.104.896 2 2 2 1.104 0 2-.896 2-2" fill="#5c913b" transform="translate(29 15)" id="1"/><use transform="translate(7)" xlink:href="#1"/><path d="m0 0c0-1.104-.895-2-2-2-1.104 0-2 .896-2 2 0 1.104.896 2 2 2 1.105 0 2-.896 2-2" fill="#5c913b" transform="translate(13 15)" id="2"/><use transform="translate(-7)" xlink:href="#2"/><path d="m0 0c0-2.209-1.791-4-4-4h-24c-2.209 0-4 1.791-4 4h32" fill="#ffac33" transform="translate(35 11)"/></g></g></svg>