<svg xmlns="http://www.w3.org/2000/svg" viewBox="0 0 47.5 47.5" enable-background="new 0 0 47.5 47.5"><defs><clipPath id="0"><path d="m0 38h38v-38h-38v38"/></clipPath></defs><g transform="matrix(1.25 0 0-1.25 0 47.5)"><g clip-path="url(#0)"><path d="m0 0c0 0-2 0-2-2v-12c0-2 2-2 2-2h6l8-8c0 0 1-1 2-1h1c0 0 1 0 1 1v32c0 0 0 1-1 1h-1c-1 0-2-1-2-1l-8-8h-6" fill="#8899a6" transform="translate(10 27)"/><path d="m0 0l8-8c0 0 1-1 2-1h1c0 0 1 0 1 1v32c0 0 0 1-1 1h-1c-1 0-2-1-2-1l-8-8v-16" fill="#ccd6dd" transform="translate(16 11)"/></g></g></svg>