<svg xmlns="http://www.w3.org/2000/svg" viewBox="0 0 47.5 47.5" enable-background="new 0 0 47.5 47.5"><defs><clipPath id="0"><path d="m5 37c-2.209 0-4-1.791-4-4v-28c0-2.209 1.791-4 4-4h28c2.209 0 4 1.791 4 4v28c0 2.209-1.791 4-4 4h-28"/></clipPath></defs><g transform="matrix(1.25 0 0-1.25 0 47.5)"><g clip-path="url(#0)"><path d="m38 0h-38v38h38v-38" fill="#ffcc4d"/><path d="m0 0c1.587.451 1.587 1.147.001 1.599l-.559.153-.556.164v-.005l-2.941.891 2.324 1.934h-.014l.493.322.497.359c1.291 1.023 1.01 1.687-.629 1.498l-.636-.09-.632-.089h-.002l-2.979-.339 1.77 3.18.309.558c.802 1.44.282 1.963-1.158 1.162l-.559-.28-.555-.281h-.002l-2.626-1.489.34 2.947v.003l.08.633.077.637c.188 1.634-.492 1.915-1.516.623l-.394-.499-2.257-2.85-.819 2.881c-.001.001-.001.002-.002.004l-.348 1.225c-.452 1.587-1.19 1.587-1.642 0l-.174-.613-.174-.612-.821-2.885-1.861 2.35h-.002l-.395.499-.397.502c-1.023 1.289-1.704 1.01-1.515-.629l.074-.634.073-.633.346-2.98-3.177 1.77-.556.31c-1.442.803-1.964.281-1.161-1.161l.31-.556 1.77-3.177-2.979.346h-.001l-.633.073-.634.074c-1.636.189-1.918-.492-.629-1.515l.502-.397.499-.395.001-.002 2.35-1.861-2.885-.821-.612-.174-.613-.174c-1.587-.452-1.587-1.19 0-1.641l1.225-.349c.002-.001.003-.001.004-.002l2.881-.819-2.85-2.258-.499-.395c-1.292-1.024-1.01-1.705.623-1.517l.637.08.633.08h.003l2.947.34-1.489-2.626v-.002l-.281-.555-.296-.559c-.8-1.439-.27-1.96 1.17-1.158l.559.309 3.185 1.77-.337-2.979v-.002l-.08-.631-.077-.635c-.189-1.637.491-1.918 1.515-.627l.395.5.395.5 1.862 2.351.82-2.884.175-.614.174-.613c.452-1.586 1.106-1.586 1.557.001l.264 1.225v.004l.905 2.881 1.905-2.351.416-.5.408-.5c1.022-1.29 1.709-1.01 1.521.625l-.078.637-.077.632v.003l-.34 2.948 2.624-1.49h.002l.557-.28.557-.295c1.441-.803 1.963-.272 1.16 1.167l-.28.561-.28.557v.002l-1.49 2.628 2.948-.34h.003l.632-.08.637-.077c1.635-.188 1.915.492.625 1.515l-.5.395-.5.395-2.351 1.947 2.881.905h.004l1.225.264" fill="#f4900c" transform="translate(33.11 18.264)"/><path d="m0 0c0-5.318-4.312-9.629-9.63-9.629-5.318 0-9.629 4.311-9.629 9.629 0 5.318 4.311 9.629 9.629 9.629 5.318 0 9.63-4.311 9.63-9.629" fill="#ffe8b6" transform="translate(28.63 18.999)"/><path d="m38 15h-38v-18h38v18" fill="#269"/><g fill="#3b88c3"><path d="m0 0c-1.979 0-3.25.749-4 1.437-.75-.688-2.02-1.437-4-1.437-3.577 0-4.842 2.448-4.895 2.553-.247.494-.046 1.094.448 1.342.49.244 1.086.048 1.336-.437.045-.082.833-1.458 3.111-1.458 2.298 0 3.08 1.4 3.112 1.46.178.328.504.524.9.533.373-.006.716-.212.883-.546.025-.047.806-1.447 3.105-1.447 2.299 0 3.08 1.4 3.112 1.46.26.481.86.673 1.345.42.485-.251.682-.839.438-1.327-.052-.105-1.318-2.553-4.895-2.553" transform="translate(23 9)"/><path d="m0 0c-1.979 0-3.25.749-4 1.437-.75-.688-2.02-1.437-4-1.437-1.979 0-3.25.749-4 1.437-.75-.688-2.02-1.437-4-1.437-3.577 0-4.842 2.448-4.895 2.553-.247.494-.046 1.094.448 1.342.49.243 1.086.048 1.336-.437.045-.082.833-1.458 3.111-1.458 2.298 0 3.08 1.4 3.112 1.46.178.328.523.534.9.533.373-.006.716-.212.883-.546.025-.047.807-1.447 3.105-1.447 2.299 0 3.08 1.4 3.112 1.46.177.328.531.541.9.533.373-.006.716-.212.883-.546.025-.047.806-1.447 3.105-1.447 2.299 0 3.08 1.4 3.112 1.46.26.481.861.673 1.345.42.485-.251.682-.839.438-1.327-.052-.105-1.318-2.553-4.895-2.553" transform="translate(27 3)"/></g></g></g></svg>