<svg xmlns="http://www.w3.org/2000/svg" viewBox="0 0 47.5 47.5" enable-background="new 0 0 47.5 47.5"><defs><clipPath id="0"><path d="m0 38h38v-38h-38v38"/></clipPath></defs><g transform="matrix(1.25 0 0-1.25 0 47.5)"><path d="m37 3h-36v-2h36v2" fill="#939598"/><g clip-path="url(#0)"><g fill="#d1d3d4"><path d="m0 0l31 .065v25.999h-19c-6 0-7-2.999-7-2.999 0 0-5-13-5-15v-8.07" transform="translate(6 4.936)"/><path d="m0 0c0-.553-.448-1-1-1h-8c-.552 0-1 .447-1 1v2c0 .553.448 1 1 1h8c.552 0 1-.447 1-1v-2" transform="translate(15 7)"/></g><path d="m0 0h-31.473c-.531 0-1.136.671-1.353 1.5l-.782 3c-.217.829.608 1.5 1.608 1.5h32v-6" fill="#f4900c" transform="translate(37 2)"/><path d="m0 0h-13.993c-1.987 0-3.907-1.791-4.286-4l-1.033-6c-.38-2.209 1.103-4 3.312-4h16v14" fill="#414042" transform="translate(37 27)"/><path d="m0 0h-12.905c-2.095 0-2.791-1.279-3.062-2.857l-.737-4.286c-.272-1.578.126-2.857 1.704-2.857h15v10" fill="#3b88c3" transform="translate(37 25)"/><path d="m0 0c-6 0-7-3-7-3 0 0-4.992-12.979-5-14.994 2.448.036 4.116.344 5 2.995 1 2.999 2 6.999 3 8.999 1 2 2 3 5 3 2.493 0 3.592 1.386 3.896 3h-4.896" fill="#414042" transform="translate(18 31)"/><path d="m0 0c.944 2.832 3.663 7.442.6 7.949-.841-2.222-2.807-7.489-3.877-10.949h.277c0 0 2 0 3 3" fill="#55acee" transform="translate(10 19)"/><path d="m0 0c0-.553-.448-1-1-1h-2c-.552 0-1 .447-1 1 0 .553.448 1 1 1h2c.552 0 1-.447 1-1" fill="#dd2e44" transform="translate(10 11)"/></g></g></svg>