<svg xmlns="http://www.w3.org/2000/svg" viewBox="0 0 47.5 47.5" enable-background="new 0 0 47.5 47.5"><defs><clipPath id="0"><path d="m0 38h38v-38h-38v38"/></clipPath></defs><g transform="matrix(1.25 0 0-1.25 0 47.5)"><g clip-path="url(#0)"><path d="m0 0c0-4.418-2-12.563-13.06-13 2.625 3.875-.937 8.582-.937 13 0 4.418 2.582 8 7 8 4.418 0 7-3.582 7-8" fill="#d99e82" transform="translate(15 17)"/><path d="m0 0c0 .028.003.053.003.082v3.5h.542c2.93 0 5.449-2.5 5.449-2.5 0 .553-2.157 4.5-5.741 4.5h-.25v7c0 .552-.447 1-1 1-.552 0-1-.448-1-1v-7h-.541c-3.583 0-5.443-3.947-5.443-4.5 0 0 2.222 2.5 5.152 2.5h.832v-2.042c0-.394-.02-.749-.032-1.12l-.431.009c-3.583.07-4.525-3.367-4.537-3.919 0 0 1.277 1.983 4.206 1.925l.634-.013c-.105-1.051-.26-1.993-.453-2.837-1.737-.379-3.269-1.811-3.36-2.197 0 0 1.87.487 2.864.423-1.49-4.324-3.953-5.229-3.953-5.229.371 0 3.43.973 5.398 4.45l.379-.178c.821-.49 1.745-2.217 1.745-2.217.186.396.138 2.914-1.295 4.241.321.905.566 1.931.702 3.094 2.712-.79 4.223-3.659 4.223-3.659.13.529-.739 4.748-4.093 5.687" fill="#c1694f" transform="translate(8.997 15.418)"/><path d="m0 0c0-6.339 2.87-18.03 18.745-18.655-3.766 5.561 1.346 12.316 1.346 18.655 0 6.341-3.706 11.48-10.04 11.48-6.341 0-10.05-5.139-10.05-11.48" fill="#d99e82" transform="translate(16.675 19.717)"/><path d="m0 0c4.201.084 6.03-2.762 6.03-2.762-.016.793-1.367 5.725-6.511 5.624l-.792-.015c-.016.522-.027 1.056-.027 1.61v2.343h1.349c4.205 0 7.393-3.02 7.393-3.02 0 .793-2.668 6.02-7.81 6.02h-.932v10.502c0 .793-.708 1.435-1.5 1.435-.793 0-1.5-.642-1.5-1.435v-10.502h-.073c-5.144 0-8.238-5.23-8.238-6.02 0 0 3.616 3.02 7.821 3.02h.49v-4.435c0-.072.004-.139.005-.211-4.573-1.502-5.77-7.325-5.589-8.07 0 0 2.063 3.917 5.772 5.163.209-1.724.586-3.239 1.077-4.566-1.843-1.949-1.896-5.323-1.638-5.872 0 0 1.324 2.479 2.503 3.18l.323.153c2.846-4.915 7.217-6.282 7.746-6.282 0 0-3.507 1.288-5.625 7.495 1.37.165 4.283-.597 4.283-.597-.131.567-2.441 2.722-5.01 3.2-.269 1.197-.485 2.533-.632 4.02l1.083.021" fill="#c1694f" transform="translate(29.3 15.2)"/></g></g></svg>