<svg xmlns="http://www.w3.org/2000/svg" viewBox="0 0 47.5 47.5" enable-background="new 0 0 47.5 47.5" xmlns:xlink="http://www.w3.org/1999/xlink"><defs><clipPath id="0"><path d="m0 38h38v-38h-38v38"/></clipPath></defs><g transform="matrix(1.25 0 0-1.25 0 47.5)"><g clip-path="url(#0)"><path d="m0 0c0 1-1 4-4 4h-13.494-2.506-5.599c-1.377 0-3.289-1.791-4.302-4l-3.099-5c-1.453-.599-2-2.331-2-4v-6c0-2.209 1.791-4 4-4h28c2.209 0 4 1.791 4 4v8c0 1.027-1 7-1 7" fill="#ccd6dd" transform="translate(36 27)"/><g fill="#e1e8ed"><path d="m0 0c-3.267 0-5.918-2.612-5.993-5.861.319-.081.648-.139.993-.139h11c0 3.313-2.687 6-6 6" transform="translate(10 14)"/><path d="m0 0c-.075 3.248-2.726 5.86-5.993 5.86-3.313 0-6-2.686-6-6h11c.345 0 .674.058.993.14" transform="translate(33.993 8.14)"/></g><path d="m0 0c0-2.209-1.791-4-4-4-2.209 0-4 1.791-4 4 0 2.209 1.791 4 4 4 2.209 0 4-1.791 4-4" fill="#292f33" transform="translate(14 8)" id="1"/><path d="m0 0c0-1.104-.896-2-2-2-1.104 0-2 .896-2 2 0 1.104.896 2 2 2 1.104 0 2-.896 2-2" fill="#99aab5" transform="translate(12 8)" id="2"/><use transform="translate(18)" xlink:href="#1"/><use transform="translate(18)" xlink:href="#2"/><g fill="#dd2e44"><path d="m37 15h-36v3h36v-3"/><path d="m0 0h-3v3h-2v-3h-3v-2h3v-3h2v3h3v2" transform="translate(32 26)"/></g><path d="m0 0h5v-7h-9l4 7" fill="#55acee" transform="translate(9 29)"/><path d="m0 0c0-.829-.671-1.5-1.5-1.5h-2c-.829 0-1.5.671-1.5 1.5 0 .829.671 1.5 1.5 1.5h2c.829 0 1.5-.671 1.5-1.5" fill="#dd2e44" transform="translate(16 32.5)"/><path d="m0 0c0-.829-.671-1.5-1.5-1.5h-2c-.829 0-1.5.671-1.5 1.5 0 .829.671 1.5 1.5 1.5h2c.829 0 1.5-.671 1.5-1.5" fill="#55acee" transform="translate(19 32.5)"/></g></g></svg>