<svg xmlns="http://www.w3.org/2000/svg" viewBox="0 0 47.5 47.5" enable-background="new 0 0 47.5 47.5"><defs><clipPath id="0"><path d="m0 38h38v-38h-38v38"/></clipPath></defs><g transform="matrix(1.25 0 0-1.25 0 47.5)"><g clip-path="url(#0)"><path d="m0 0c0 9.389-7.611 17-17 17-9.389 0-17-7.611-17-17 0-9.389 7.611-17 17-17 9.389 0 17 7.611 17 17" transform="translate(36 19)"/><g fill="#fff"><path d="m0 0h-.017c-.407 0-.733.261-.733.668 0 .219.082 2.149 2.929 4.047 1.474.984 1.784 2.61 1.447 3.721-.315 1.042-1.164 1.63-2.328 1.63-1.771 0-2.26-.957-2.394-1.524-.169-.714.088-1.28.268-1.369.399-.199.8-.218 1.075-.049.196.122.301.331.301.606 0 .415.336.75.75.75.414 0 .75-.336.75-.75 0-.799-.369-1.485-1.013-1.883-.721-.446-1.668-.451-2.534-.018-.907.453-1.36 1.766-1.057 3.053.396 1.675 1.836 2.675 3.854 2.675 1.844 0 3.251-1.01 3.764-2.704.601-1.986-.243-4.216-2.051-5.422-2.173-1.449-2.259-2.723-2.261-2.779-.019-.402-.35-.652-.75-.652" transform="translate(24.703 20)"/><path d="m0 0h-16c0 0-2 0-2-2v-1c0-2 2-2 2-2h16v5" transform="translate(23 18)"/><path d="m0 0h-3v-5h3c0 0 2 0 2 2v1c0 2-2 2-2 2" transform="translate(28 18)"/></g><path d="m0 0l-22.591 22.591c2.86 2.673 6.689 4.321 10.911 4.321 8.837 0 16-7.163 16-16 0-4.223-1.648-8.05-4.32-10.912m-27.679 10.912c0 3.713 1.276 7.121 3.397 9.835l22.437-22.437c-2.715-2.123-6.122-3.398-9.835-3.398-8.836 0-15.999 7.163-15.999 16m15.999 18c-9.94 0-17.999-8.06-17.999-18 0-9.941 8.06-18 17.999-18 9.942 0 18 8.06 18 18 0 9.941-8.06 18-18 18" fill="#dd2e44" transform="translate(30.68 8.09)"/></g></g></svg>