<svg xmlns="http://www.w3.org/2000/svg" viewBox="0 0 47.5 47.5" enable-background="new 0 0 47.5 47.5"><defs><clipPath id="0"><path d="m0 38h38v-38h-38v38"/></clipPath></defs><g transform="matrix(1.25 0 0-1.25 0 47.5)"><g clip-path="url(#0)"><path d="m0 0c0-9.941-8.06-18-18-18-9.941 0-18 8.06-18 18 0 9.941 8.06 18 18 18 9.941 0 18-8.06 18-18" fill="#ccd6dd" transform="translate(37 19)"/><path d="m0 0c0-7.732-6.268-14-14-14-7.732 0-14 6.268-14 14 0 7.732 6.268 14 14 14 7.732 0 14-6.268 14-14" fill="#3b88c3" transform="translate(33 19)"/><path d="m0 0c0-5.522-4.478-10-10-10-5.523 0-10 4.478-10 10 0 5.523 4.477 10 10 10 5.522 0 10-4.477 10-10" fill="#dd2e44" transform="translate(29 19)"/><path d="m0 0c0-3.313-2.687-6-6-6-3.314 0-6 2.687-6 6 0 3.314 2.686 6 6 6 3.313 0 6-2.686 6-6" fill="#ffac33" transform="translate(25 19)"/><path d="m0 0c-.42-.306-1.257-.592-1.934-.592-1.964 0-4.654.717-6.334 2.386l-2.954 3.872c-.274.275-.357.575-.21.932.148.359-.73.601-.342.601h5.057c1.867 0 4.308-1.256 5.925-3.02l.371-.351c.773-.843 1.183-1.629 1.182-2.386.001-.622-.271-1.088-.761-1.445" transform="translate(35.864 7.801)"/><path d="m0 0c-.771 0-1.632.417-2.49 1.204l-.489.378c-1.793 1.646-3.326 4.131-3.326 6.03v5.164c0 .396.5-.513.866-.363.363.15.915.066 1.195-.214l3.166-3.124c1.699-1.711 3.061-4.619 3.061-6.62 0-.689-.142-1.255-.452-1.682-.365-.499-.897-.775-1.531-.775" transform="translate(29.3 1.796)"/><path d="m0 0c-.256 0-.487.122-.683.317l-14 14c-.39.391-.391 1.023 0 1.414.391.391 1.024.391 1.414 0l14-14c.391-.39.378-1.036-.012-1.426-.195-.195-.462-.305-.719-.305" fill="#c1694f" transform="translate(32.34 5.04)"/></g></g></svg>