<svg xmlns="http://www.w3.org/2000/svg" viewBox="0 0 47.5 47.5" enable-background="new 0 0 47.5 47.5"><defs><clipPath id="0"><path d="m0 38h38v-38h-38v38"/></clipPath></defs><g transform="matrix(1.25 0 0-1.25 0 47.5)"><path d="M 0,0 -2.156,2.157 3.5,7.814 5.656,5.657 0,0 Z" fill="#ccd6dd" transform="translate(27.344 25.19)"/><g clip-path="url(#0)"><g fill="#292f33"><path d="m0 0c0-7.731-6.269-14-14-14-7.732 0-14 6.269-14 14 0 7.732 6.268 14 14 14 7.731 0 14-6.268 14-14" transform="translate(29 15)"/><path d="M 0,0 -5.656,5.657 0,11.314 5.656,5.657 0,0 Z" transform="translate(25.656 20)"/></g><path d="m0 0c0-2.209-1.791-4-4-4-2.209 0-4 1.791-4 4 0 2.209 1.791 4 4 4 2.209 0 4-1.791 4-4" fill="#f18f26" transform="translate(37 33)"/><path d="m0 0c0-1.104-.896-2-2-2-1.104 0-2 .896-2 2 0 1.104.896 2 2 2 1.104 0 2-.896 2-2" fill="#fdcb58" transform="translate(35 33)"/></g></g></svg>