<svg xmlns="http://www.w3.org/2000/svg" viewBox="0 0 47.5 47.5" enable-background="new 0 0 47.5 47.5" xmlns:xlink="http://www.w3.org/1999/xlink"><defs><clipPath id="0"><path d="m0 38h38v-38h-38v38"/></clipPath><clipPath id="1"><path d="m12 4h14v21h-14v-21"/></clipPath></defs><g transform="matrix(1.25 0 0-1.25 0 47.5)"><g clip-path="url(#0)" fill="#ccd6dd"><path d="m0 0c0-3.313-2.687-6-6-6-3.313 0-6 2.687-6 6 0 3.313 2.687 6 6 6 3.313 0 6-2.687 6-6" transform="translate(25 31)"/><path d="m26 4h-14v21h14v-21"/></g><g clip-path="url(#1)"><g fill="#dd2e44"><path d="m 0,0 -23.368,11.399 1.755,3.596 L 1.754,3.595 0,0 Z" transform="translate(34.19 15.49)"/><path d="m 0,0 -23.367,11.4 1.753,3.595 L 1.754,3.596 0,0 Z" transform="translate(27.18 1.109)"/></g><g fill="#fff"><path d="m 0,0 -23.367,11.401 1.753,3.594 L 1.754,3.596 0,0 Z" transform="translate(32.438 11.895)"/><path d="m 0,0 -23.368,11.399 1.755,3.596 L 1.754,3.595 0,0 Z" transform="translate(28.93 4.705)"/><path d="m 0,0 -23.367,11.4 1.754,3.595 L 1.754,3.595 0,0 Z" transform="translate(25.422-2.485)"/></g><path d="m 0,0 -23.367,11.4 1.754,3.596 L 1.754,3.595 0,0 Z" fill="#55acee" transform="translate(30.684 8.3)"/></g><g clip-path="url(#0)"><path d="m0 0c0-1.104-.896-2-2-2h-14c-1.104 0-2 .896-2 2 0 1.104.896 2 2 2h14c1.104 0 2-.896 2-2" fill="#99aab5" transform="translate(28 26)" id="2"/><use transform="translate(0-23)" xlink:href="#2"/></g></g></svg>