<svg xmlns="http://www.w3.org/2000/svg" viewBox="0 0 47.5 47.5" enable-background="new 0 0 47.5 47.5"><defs><clipPath id="0"><path d="m0 38h38v-38h-38v38"/></clipPath></defs><g transform="matrix(1.25 0 0-1.25 0 47.5)"><g clip-path="url(#0)"><path d="m0 0c-.276-2.209-2.291-3-4.5-3-2.209 0-3.776 1.791-3.5 4l1 9c.276 2.209 2.291 4 4.5 4 2.209 0 6.468 0 3.5-4-2.968-4-1-10-1-10" fill="#be1931" transform="translate(13.908 6.25)"/><path d="m0 0c0-6.902-1.544-12.5-3.45-12.5-1.905 0-20.45 5.598-20.45 12.5 0 6.903 18.545 12.5 20.45 12.5 1.906 0 3.45-5.597 3.45-12.5" fill="#ccd6dd" transform="translate(36.825 22.25)"/><path d="m0 0c0-6.902-1.544-12.5-3.45-12.5-1.905 0-3.45 5.598-3.45 12.5 0 6.903 1.545 12.5 3.45 12.5 1.906 0 3.45-5.597 3.45-12.5" fill="#66757f" transform="translate(36.825 22.25)"/><path d="m0 0l-14 1c-5 0-5 12 0 12l14 1c-3-3-3-11 0-14" fill="#dd2e44" transform="translate(18.925 15.25)"/><path d="m0 0c0-2.401-.672-4.348-1.5-4.348-.828 0-1.5 1.947-1.5 4.348 0 2.401.672 4.348 1.5 4.348.828 0 1.5-1.947 1.5-4.348" fill="#99aab5" transform="translate(33.825 22.25)"/></g></g></svg>