<svg xmlns="http://www.w3.org/2000/svg" viewBox="0 0 47.5 47.5" enable-background="new 0 0 47.5 47.5" xmlns:xlink="http://www.w3.org/1999/xlink"><defs><clipPath id="0"><path d="m0 38h38v-38h-38v38"/></clipPath></defs><g transform="matrix(1.25 0 0-1.25 0 47.5)"><g clip-path="url(#0)"><path d="m0 0c1.685-2.853.737-6.532-2.117-8.217-2.853-1.684-4.319-2.687-6 .166-1.685 2.854-2.483 12.243-1.622 12.751.861.508 8.06-1.846 9.742-4.7" fill="#d99e82" transform="translate(12.12 31.05)"/><path d="m0 0c1.685-2.853 1.167-6.278-1.156-7.65-2.323-1.372-4.17-.17-5.854 2.684-1.685 2.854-2.472 9.82-1.771 10.234.7.413 7.097-2.414 8.781-5.268" fill="#c1694f" transform="translate(12.01 27.22)"/><path d="m0 0c-1.685-2.853-.737-6.532 2.116-8.217 2.854-1.684 4.321-2.687 6 .166 1.686 2.854 2.483 12.243 1.621 12.751-.86.508-8.06-1.846-9.741-4.7" fill="#d99e82" transform="translate(25.88 31.05)"/><path d="m0 0c-1.685-2.853-1.167-6.278 1.156-7.65 2.323-1.371 4.539-.17 6.223 2.684 1.685 2.854 2.103 9.82 1.402 10.234-.701.413-7.097-2.414-8.781-5.268" fill="#c1694f" transform="translate(25.621 27.612)"/><path d="m0 0c0-9.989-1-14.521-17-14.521-16 0-17 4.532-17 14.521 0 9.989 7.01 19.479 17 19.479 9.989 0 17-9.49 17-19.479" fill="#d99e82" transform="translate(36 15.522)"/><g fill="#e1e8ed"><path d="m0 0c0 0-3.641 3-4.641 11.5-.234 1.986 1.696 1.977 2 0 1-6.5 6.35-10.5 8.991-12.5 2.254-1.708-6.35 1-6.35 1" transform="translate(8.65 8)"/><path d="m0 0c0 0 3.641 3 4.641 11.5.234 1.986-1.696 1.977-2 0-1-6.5-6.35-10.5-8.991-12.5-2.254-1.708 6.35 1 6.35 1" transform="translate(29.35 8)"/></g><path d="m0 0c0-1.104-3.82-3-11-3-7.18 0-11 1.896-11 3 0 1.104 3.82-1 11-1 7.18 0 11 2.104 11 1" fill="#662113" transform="translate(30 8)"/><path d="m0 0c0-4.487-3.097-9.375-10-9.375-6.904 0-10 4.888-10 9.375 0 4.487 3.096 5.625 10 5.625 6.903 0 10-1.138 10-5.625" fill="#c1694f" transform="translate(29 13.875)"/><path d="m0 0c0-1.857-.34-2.4-1.5-2.4-1.16 0-1.5.543-1.5 2.4 0 1.856.34 2.399 1.5 2.399 1.16 0 1.5-.543 1.5-2.399" fill="#662113" transform="translate(16 12.4)" id="1"/><use transform="translate(9)" xlink:href="#1"/><path d="m0 0c0-1.104-.896-2-2-2-1.104 0-2 .896-2 2 0 1.104.896 2 2 2 1.104 0 2-.898 2-2" fill="#292f33" transform="translate(14 21.998)" id="2"/><use transform="translate(14)" xlink:href="#2"/></g></g></svg>