<svg xmlns="http://www.w3.org/2000/svg" viewBox="0 0 47.5 47.5" enable-background="new 0 0 47.5 47.5"><defs><clipPath id="0"><path d="m0 38h38v-38h-38v38"/></clipPath></defs><g transform="matrix(1.25 0 0-1.25 0 47.5)"><g clip-path="url(#0)" fill="#e75a70"><path d="m0 0c-.297.495-.284 1.117.035 1.599l4.395 6.645-5.995 5.139c-.556.476-.686 1.283-.31 1.91l4.304 7.173c-1.669 1.301-3.755 2.09-6.04 2.09-5.45 0-9.868-4.418-9.868-9.868 0-.772.098-1.52.266-2.241 1.371-8.512 10.835-17.494 17.619-19.96.026.009.052.023.077.033l-4.488 7.48" transform="translate(14.589 10.479)"/><path d="m0 0c-2.765 0-5.248-1.151-7.04-2.983l-4.04-6.737 6.04-5.176c.574-.492.691-1.334.274-1.965l-4.603-6.962 4.161-6.935c6.338 3.529 13.621 11.263 14.809 18.649.17.721.267 1.469.267 2.241 0 5.451-4.418 9.868-9.867 9.868" transform="translate(27.02 35.03)"/></g></g></svg>