<svg xmlns="http://www.w3.org/2000/svg" viewBox="0 0 47.5 47.5" enable-background="new 0 0 47.5 47.5"><defs><clipPath id="0"><path d="m0 38h38v-38h-38v38"/></clipPath></defs><g transform="matrix(1.25 0 0-1.25 0 47.5)"><g clip-path="url(#0)"><path d="m0 0c2.246 0 4.832-1.375 6.703-3.249 1.873-1.874 3.775-3.927 3.775-5.998v-17.204l-15.974-.031v17.13c-.093 1.505 1.075 9.349 5.496 9.349" fill="#ea596e" transform="translate(17.522 36.768)"/><path d="m0 0v-16.622c0-1.105.896 0 2 0v-2c1.104 0 2 .895 2 2v15.666c-1.258.105-2.65.263-4 .956" fill="#dd2e44" transform="translate(20 25.622)"/><path d="m0 0c2.664-2.391 4.277-5.236 2.961-6.699-1.315-1.464-5.06-.991-7.721 1.4-2.661 2.39-3.753 5.515-2.439 6.978 1.316 1.464 4.538.712 7.199-1.679" fill="#f4abba" transform="translate(23.07 33.545)"/><path d="m0 0c0-1.104-.896-2-2-2h-18c-1.104 0-2 .896-2 2v6c0 1.104.896 2 2 2h18c1.104 0 2-.896 2-2v-6" fill="#ffcc4d" transform="translate(31 3)"/><path d="m0 0c0-1.104-.896-2-2-2h-20c-1.104 0-2 .896-2 2v1c0 1.104.896 2 2 2h20c1.104 0 2-.896 2-2v-1" fill="#ffac33" transform="translate(32 3)"/></g></g></svg>