<svg xmlns="http://www.w3.org/2000/svg" viewBox="0 0 47.5 47.5" enable-background="new 0 0 47.5 47.5"><defs><clipPath id="0"><path d="m0 38h38v-38h-38v38"/></clipPath></defs><g transform="matrix(1.25 0 0-1.25 0 47.5)" fill="#662113"><g clip-path="url(#0)"><path d="m0 0c1.333 0 6.833-1.333 6.833-7.75 0-6.417-6.261-15.73-8.625-15.958-2.583-.25-4.208 1.375-4.208 4 0 2.625 4.083 4.333 2.208 8.291-1.875 3.959-2.333 11.417 3.792 11.417" transform="translate(26.776 32.29)"/><path d="m0 0c-.432-.733-.323-1.598.242-1.93.566-.333 1.374-.007 1.805.727.432.734.323 1.599-.242 1.931-.566.333-1.374.006-1.805-.728" transform="translate(33.857 30.06)"/><path d="m0 0c-.117-.843.342-1.604 1.025-1.699.684-.095 1.334.511 1.452 1.354.117.844-.342 1.604-1.026 1.699-.683.096-1.334-.51-1.451-1.354" transform="translate(30.955 32.922)"/><path d="m0 0c0-.921.598-1.667 1.334-1.667.736 0 1.333.746 1.333 1.667 0 .92-.597 1.667-1.333 1.667-.736 0-1.334-.747-1.334-1.667" transform="translate(27.734 34.29)"/><path d="m0 0c0-1.024.635-1.854 1.416-1.854.783 0 1.417.83 1.417 1.854 0 1.024-.634 1.854-1.417 1.854-.781 0-1.416-.83-1.416-1.854" transform="translate(23.943 34.98)"/><path d="m0 0c.378-1.459 1.604-2.405 2.741-2.111 1.137.294 1.751 1.715 1.373 3.174-.377 1.459-1.603 2.405-2.74 2.111-1.137-.294-1.751-1.716-1.374-3.174" transform="translate(18.636 32.823)"/></g><g clip-path="url(#0)"><path d="m0 0c-1.333 0-6.833-1.333-6.833-7.75 0-6.417 6.261-15.73 8.625-15.958 2.583-.25 4.208 1.375 4.208 4 0 2.625-4.083 4.333-2.208 8.291 1.875 3.959 2.333 11.417-3.792 11.417" transform="translate(10.917 25.292)"/><path d="m0 0c.432-.733.323-1.598-.242-1.93-.566-.333-1.375-.007-1.805.727-.432.734-.324 1.599.241 1.931.566.333 1.375.006 1.806-.728" transform="translate(3.836 23.06)"/><path d="m0 0c.117-.843-.342-1.604-1.025-1.699-.684-.095-1.334.511-1.452 1.354-.117.844.342 1.604 1.026 1.699.684.096 1.333-.51 1.451-1.354" transform="translate(6.738 25.922)"/><path d="m0 0c0-.921-.597-1.667-1.333-1.667-.737 0-1.334.746-1.334 1.667 0 .92.597 1.667 1.334 1.667.736 0 1.333-.747 1.333-1.667" transform="translate(9.959 27.29)"/><path d="m0 0c0-1.024-.634-1.854-1.417-1.854-.782 0-1.416.83-1.416 1.854 0 1.024.634 1.854 1.416 1.854.783 0 1.417-.83 1.417-1.854" transform="translate(13.75 27.98)"/><path d="m0 0c-.377-1.459-1.604-2.405-2.741-2.111-1.136.294-1.751 1.715-1.374 3.174.377 1.459 1.604 2.405 2.74 2.111 1.137-.294 1.752-1.716 1.375-3.174" transform="translate(19.06 25.823)"/></g></g></svg>