<svg xmlns="http://www.w3.org/2000/svg" viewBox="0 0 47.5 47.5" enable-background="new 0 0 47.5 47.5"><defs><clipPath id="0"><path d="m0 38h38v-38h-38v38"/></clipPath></defs><g transform="matrix(1.25 0 0-1.25 0 47.5)"><g clip-path="url(#0)"><path d="m0 0v-16c0-1.104.896-2 2-2h32c1.104 0 2 .896 2 2v16h-36" fill="#bcbec0" transform="translate(1 19)"/><path d="M 0,0 18,6.353 36,0 0,0 Z" fill="#66757f" transform="translate(1 19)"/><g fill="#55acee"><path d="m35 13h-32v4h32v-4"/><path d="m35 7h-32v4h32v-4"/></g><path d="m31 2h-24v16h24v-16" fill="#bcbec0"/><path d="m29 1h-20v31h20v-31" fill="#d1d3d4"/><g fill="#55acee"><path d="m27 13h-16v4h16v-4"/><path d="m27 7h-16v4h16v-4"/></g><g fill="#d1d3d4"><path d="m17 6h-2v18h2v-18"/><path d="m23 6h-2v18h2v-18"/></g><path d="m21 1h-4v4h4v-4" fill="#3b88c3"/><g fill="#dd2e44"><path d="m24 28h-10v2h10v-2"/><path d="m0 0v-2h4v-4h2v4h4v2h-10" transform="translate(14 26)"/></g><path d="m0 0l10 5 10-5h-20" fill="#66757f" transform="translate(9 32)"/></g></g></svg>