<svg xmlns="http://www.w3.org/2000/svg" viewBox="0 0 47.5 47.5" enable-background="new 0 0 47.5 47.5"><defs><clipPath id="0"><path d="m0 38h38v-38h-38v38"/></clipPath><clipPath id="1"><path d="m5 37c0 0-4 0-4-4v-28c0-4 4-4 4-4h28c4 0 4 4 4 4v28c0 0 0 4-4 4h-28"/></clipPath></defs><g transform="matrix(1.25 0 0-1.25 0 47.5)"><g clip-path="url(#0)"><path d="m0 0c0 0 0-4-4-4h-28c0 0-4 0-4 4v28c0 4 4 4 4 4h28c4 0 4-4 4-4v-28" fill="#88c9f9" transform="translate(37 5)"/></g><g clip-path="url(#1)"><path d="m0 0h1.483c-.277-1.181-.597-2-.597-2 0 0-.372.747-.886 2m32.886 12l-7.181-1.796c-.652.978-1.438 1.855-2.323 2.622l5.504 9.174h-2l-6.38-7.292c-1.162.56-2.418.949-3.741 1.141l-.879 6.151h-2l-.879-6.151c-1.298-.188-2.531-.566-3.676-1.109l-5.445 7.26h-2l4.561-9.123c-.909-.777-1.713-1.674-2.38-2.673l-7.181 1.796v-2l5.819-2.494c-.52-1.406-.819-2.919-.819-4.506-.001-.098-.012-.191-.016-.288l-2.748-.393c-.079.225-.157.444-.236.681-1 2.999-2 5-2 5l-1-25 33 3c0 0-.465 1.044 0 2 .179.368 1.447.658 1 2-.709 2.129-1.417 6.767-1.769 10h4.769v2l-4.992.713c-.004.1-.008.206-.008.287 0 1.587-.299 3.1-.818 4.506l5.818 2.494v2z" fill="#157569" transform="translate(4.114 15)"/><g fill="#3fc9b9"><path d="m0 0c0 0 .422 3.316 4 6 4 3 6 2 6 1 0-1-3-1-6-3-3-2-4-4-4-4" transform="translate(8 19)"/><path d="m0 0c0 0-.423 3.316-4 6-4 3-6 2-6 1 0-1 3-1 6-3 3-2 4-4 4-4" transform="translate(30 19)"/><path d="m0 0c-6 0-8-4-8-4 0 0 2 2 4 2 2 0 2-2 2-2v-2c0-1 2-1 2-1s2 0 2 1v2c0 0 0 2 2 2 2 0 4-2 4-2 0 0-2 4-8 4" transform="translate(19 23)"/><path d="m0 0c-2 0-2 1-2 1 0 0-.083-2.815-1-4h-2-2c-.918 1.185-1 4-1 4 0 0 0-1-2-1-2 0-4 1-4 1 0 0 0-9 2-10 1.265-.633 4 1 7 1 3 0 5.735-1.633 7-1 2 1 2 10 2 10 0 0-2-1-4-1" transform="translate(24 17)"/></g><path d="m0 0h6c0 0-1 1-3 1-2 0-3-1-3-1" fill="#157569" transform="translate(16 12)"/><path d="m0 0c0 0 3-7 6-9 3-2 9.583-3 10.292-5 0 0-9.292 5-11.292 2-1.474-2.211-2 1-2 2 0 1 0 4-2 1-.785-1.177-2 4-1 9" fill="#3fc9b9" transform="translate(3 14)"/></g></g></svg>