<svg xmlns="http://www.w3.org/2000/svg" viewBox="0 0 47.5 47.5" enable-background="new 0 0 47.5 47.5"><defs><clipPath id="0"><path d="m0 38h38v-38h-38v38"/></clipPath></defs><g transform="matrix(1.25 0 0-1.25 0 47.5)"><g clip-path="url(#0)"><path d="m0 0c0 0 1.132 1.65-.519 2.781-1.649 1.131-2.78-.519-2.78-.519l-5.251-7.658c-.18.302-.379.6-.599.894l7.288 10.629c0 0 1.131 1.649-.519 2.78-1.649 1.132-2.78-.518-2.78-.518l-6.856-9.997c-.255.209-.515.417-.785.622l7.947 11.59c0 0 1.131 1.649-.518 2.78-1.649 1.132-2.78-.518-2.78-.518l-7.948-11.589c-.292.18-.581.335-.87.498l7.427 10.832c0 0 1.131 1.649-.519 2.78-1.649 1.132-2.78-.518-2.78-.518l-7.854-11.453-.629-.918-.565-.825c4.948-3.393 5.419-9.779 2.592-13.902-.566-.825-1.39-.26-1.39-.26 3.393 4.949 2.356 10.51-2.593 13.903l1.462 7.302c0 0 .545 1.925-1.379 2.47-1.924.545-2.469-1.379-2.469-1.379l-1.685-5c-.668-1.984-1.379-3.961-2.32-5.83-2.657-5.28-1.07-11.843 3.941-15.279 5.465-3.747 12.935-2.355 16.683 3.11.198.29.364.573.522.856l.044-.031 8.482 12.371" fill="#d99e82" transform="translate(34.3 19.664)"/><g fill="#77b255"><path d="m0 0h-2c0 3.837 3.122 6.958 6.958 6.958v-2c-2.733 0-4.958-2.224-4.958-4.958" transform="translate(3.042 30)"/><path d="m0 0h-2c0 5.514 4.486 10 10 10v-2c-4.411 0-8-3.589-8-8" transform="translate(5 25)"/><path d="m0 0v2c3 0 5 2 5 5h2c0-4-3-7-7-7" transform="translate(30 1)"/><path d="m0 0v2c4 0 8.04 4.04 8.04 8.04h2c0-6-4.04-10.04-10.04-10.04" transform="translate(25 2.958)"/></g></g></g></svg>