<svg xmlns="http://www.w3.org/2000/svg" viewBox="0 0 47.5 47.5" enable-background="new 0 0 47.5 47.5"><defs><clipPath id="0"><path d="m0 38h38v-38h-38v38"/></clipPath></defs><g transform="matrix(1.25 0 0-1.25 0 47.5)"><g clip-path="url(#0)"><g fill="#66757f"><path d="m0 0c0 0-2-4-2-6 0-2 4-3 12-3 8 0 12 1 12 3 0 2-2 6-2 6h-20" transform="translate(9 10)"/><path d="m0 0c-3 0-3-1-4-10-.994-8.945 0-10 4-10 2 0 2 20 0 20" transform="translate(10 31)"/><path d="m0 0c3 0 3-1 4-10 .994-8.945 0-10-4-10-2 0-2 20 0 20" transform="translate(28 31)"/></g><path d="m0 0c0 0 1 3 10 3 9 0 10-3 10-3 0 0 1-6 1-14 0-8-1-14-1-14 0 0-1-2-10-2-9 0-10 2-10 2 0 0-1 3-1 14 0 11 1 14 1 14" fill="#ccd6dd" transform="translate(9 34)"/><g fill="#66757f"><path d="m0 0c0 1-3 4-10 4-7 0-10-3-10-4 0-.807 4.548-1.612 6.311-1.894.688-2.654.689-8.106.689-8.106.805 3.218.315 7.079.093 8.467.202.591.848 1.533 2.907 1.533 3 0 3-2 3-2h.002c-.234-1.657-.565-5.089.162-8 0 0 .002 5.491.697 8.134 1.866.304 6.139 1.084 6.139 1.866" transform="translate(29 29)"/><path d="m0 0c0 1 2 3 4 3 2 0 4-2 4-3 0-1-1-1-4-1-3 0-4 0-4 1" transform="translate(15 17)"/><path d="m0 0c0 0 2 2 6 2 4 0 6-2 6-2 0 0-2 1-6 1-4 0-6-1-6-1" transform="translate(13 13)"/><path d="m0 0c0 1 2 2 6 2 4 0 6-1 6-2 0-1-1-1-6-1-5 0-6 0-6 1" transform="translate(13 11)"/></g></g></g></svg>