<svg xmlns="http://www.w3.org/2000/svg" viewBox="0 0 47.5 47.5" enable-background="new 0 0 47.5 47.5"><defs><clipPath id="0"><path d="m0 38h38v-38h-38v38"/></clipPath></defs><g transform="matrix(1.25 0 0-1.25 0 47.5)"><g clip-path="url(#0)"><path d="m0 0c0-2.209-1.791-4-4-4h-28c-2.209 0-4 1.791-4 4v28c0 2.209 1.791 4 4 4h28c2.209 0 4-1.791 4-4v-28" fill="#3b88c3" transform="translate(37 5)"/><g fill="#fff"><path d="m0 0c1.022 0 3.01-.336 3.01-1.569 0-.504-.35-.939-.869-.939-.574 0-.966.49-2.143.49-1.737 0-2.633-1.47-2.633-3.179 0-1.667.91-3.096 2.633-3.096 1.177 0 1.653.589 2.227.589.63 0 .925-.631.925-.953 0-1.345-2.115-1.653-3.152-1.653-2.843 0-4.818 2.255-4.818 5.155 0 2.914 1.961 5.155 4.818 5.155" transform="translate(6.97 24.14)"/><path d="m0 0c0 1.695-.882 3.222-2.633 3.222-1.751 0-2.634-1.527-2.634-3.222 0-1.709.855-3.222 2.634-3.222 1.779 0 2.633 1.513 2.633 3.222m-7.452 0c0 2.914 1.961 5.155 4.819 5.155 2.815 0 4.819-2.311 4.819-5.155 0-2.899-1.948-5.154-4.819-5.154-2.844 0-4.819 2.255-4.819 5.154" transform="translate(17.317 18.986)"/><path d="m0 0c0 1.695-.883 3.222-2.635 3.222-1.75 0-2.633-1.527-2.633-3.222 0-1.709.855-3.222 2.633-3.222 1.78 0 2.635 1.513 2.635 3.222m-7.453 0c0 2.914 1.961 5.155 4.818 5.155 2.817 0 4.819-2.311 4.819-5.155 0-2.899-1.946-5.154-4.819-5.154-2.843 0-4.818 2.255-4.818 5.154" transform="translate(27.426 18.986)"/><path d="m0 0c0 .7.447 1.093 1.051 1.093.601 0 1.051-.393 1.051-1.093v-7.03h2.492c.715 0 1.023-.532 1.01-1.01-.03-.463-.393-.925-1.01-.925h-3.502c-.686 0-1.092.448-1.092 1.149v7.816" transform="translate(30.19 22.965)"/></g></g></g></svg>