<svg xmlns="http://www.w3.org/2000/svg" viewBox="0 0 47.5 47.5" enable-background="new 0 0 47.5 47.5" xmlns:xlink="http://www.w3.org/1999/xlink"><defs><clipPath id="0"><path d="m0 38h38v-38h-38v38"/></clipPath></defs><g transform="matrix(1.25 0 0-1.25 0 47.5)"><g clip-path="url(#0)"><path d="m0 0c.089-.816-.83-1.495-2.053-1.515-1.222-.02-2.094.635-1.947 1.464l.356 2c.148.828.939 1.5 1.767 1.5.828 0 1.572-.662 1.661-1.478l.216-1.971" fill="#ccd6dd" transform="translate(22.377 20.551)"/><path d="m0 0h-.135l-.444 3c-.327 2.209-1.864 4-3.433 4h-12.07c-1.569 0-3.574-1.791-4.478-4l-1.228-3h-3.545c-2.073 0-4.105-1.791-4.539-4l-.587-3c-.002-.008-.001-.015-.002-.021-1-.111-1.783-.949-1.783-1.979 0-1.104.895-2 2-2h3 1 26c2.209 0 4 1.791 4 4v3c0 2.209-1.681 4-3.754 4" fill="#ffcc4d" transform="translate(33.25 15)"/><path d="m0 0c0-2.209-1.791-4-4-4-2.209 0-4 1.791-4 4 0 2.209 1.791 4 4 4 2.209 0 4-1.791 4-4" fill="#292f33" transform="translate(15 5)" id="1"/><path d="m0 0c0-1.104-.896-2-2-2-1.104 0-2 .896-2 2 0 1.104.896 2 2 2 1.104 0 2-.896 2-2" fill="#ccd6dd" transform="translate(13 5)" id="2"/><use transform="translate(17)" xlink:href="#1"/><use transform="translate(17)" xlink:href="#2"/><path d="m0 0l-.196-1h33.823v1c0 .348-.054.679-.132 1h-33.17c-.141-.321-.261-.652-.329-1" fill="#f4900c" transform="translate(3.373 11)"/><g fill="#55acee"><path d="m0 0h5.92c-.014.416-.064.908-.156 1.5-.395 2.5-.552 3.5-3.437 3.5h-2.327v-5" transform="translate(25 15)"/><path d="m0 0h-5c-1.594 0-3.236-1.567-3.847-3.5-.195-.599-.354-1.088-.472-1.5h9.319v5" transform="translate(23 20)"/></g></g></g></svg>