<svg xmlns="http://www.w3.org/2000/svg" viewBox="0 0 47.5 47.5" enable-background="new 0 0 47.5 47.5"><defs><clipPath id="0"><path d="m0 38h38v-38h-38v38"/></clipPath></defs><g transform="matrix(1.25 0 0-1.25 0 47.5)"><g clip-path="url(#0)"><path d="m0 0c-.687 0-1.352-.066-1.991-.177-.82.105-2.74.231-3.592.231-8.472 0-15.886-3.177-15.886-14.298 0-9.04 7.05-16.361 16.976-16.361 9.927 0 17.973 7.325 17.973 16.361 0 11.249-9.384 14.244-13.48 14.244" fill="#dd2e44" transform="translate(23.494 31.656)"/><path d="m0 0c1.637-1.636 2.77-2.266 3.274-4.91.298-1.564 2.266-1.51 2.266-1.51 0 0-3.903-1.764-5.54-3.4 0 0 4.91 1.636 6.547 1.636 0 0 3.273-1.636 3.273-3.273 0 0 0 3.273-1.636 3.273 0 0 4.909 0 4.909-3.273 0 0 0 4.911-1.636 4.911 0 0 4.911 1.636 6.547 0 0 0-1.685 1.72-4.911 1.636 0 0 1.638 1.637 4.911 1.637 0 0-5.288 1.511-6.924-1.763 0 0-1.386 1.385 1.384 4.155 0 0-4.28-.755-4.28-4.03 0 0-1.552.039-2.644 1.259-2.141 2.392-5.54 3.651-5.54 3.651" fill="#77b255" transform="translate(9.439 36.909)"/></g></g></svg>