<svg xmlns="http://www.w3.org/2000/svg" viewBox="0 0 47.5 47.5" enable-background="new 0 0 47.5 47.5" xmlns:xlink="http://www.w3.org/1999/xlink"><defs><clipPath id="0"><path d="m0 38h38v-38h-38v38"/></clipPath></defs><g transform="matrix(1.25 0 0-1.25 0 47.5)"><g clip-path="url(#0)"><path d="m0 0c0-1.657-1.343-3-3-3-1.657 0-3 1.343-3 3 0 1.657 1.343 3 3 3 1.657 0 3-1.343 3-3" fill="#be1931" transform="translate(15 6)" id="1"/><path d="m0 0c0-1.657-1.343-3-3-3-1.657 0-3 1.343-3 3v19c0 1.657 1.343 3 3 3 1.657 0 3-1.343 3-3v-19" fill="#be1931" transform="translate(15 14)"/><use transform="translate(14)" xlink:href="#1"/><path d="m0 0c0-1.657-1.344-3-3-3-1.656 0-3 1.343-3 3v19c0 1.657 1.344 3 3 3 1.656 0 3-1.343 3-3v-19" fill="#be1931" transform="translate(29 14)"/></g></g></svg>