<svg xmlns="http://www.w3.org/2000/svg" viewBox="0 0 47.5 47.5" enable-background="new 0 0 47.5 47.5"><defs><clipPath id="0"><path d="m0 38h38v-38h-38v38"/></clipPath></defs><g transform="matrix(1.25 0 0-1.25 0 47.5)"><g clip-path="url(#0)"><path d="m0 0h-2.834c-1.248 0-1.768.91-1.768 1.794 0 .91.65 1.794 1.768 1.794h9.568c1.119 0 1.768-.884 1.768-1.794 0-.884-.52-1.794-1.768-1.794h-2.834v-13.05c0-1.299-.832-2.027-1.95-2.027-1.118 0-1.95.728-1.95 2.027v13.05" transform="translate(6.208 24.326)"/><path d="m0 0c.156.936 1.17 2 2.548 2 1.301 0 2.314-.936 2.601-1.872l3.067-10.296h.053l3.068 10.296c.285.936 1.301 1.872 2.6 1.872 1.378 0 2.392-1.066 2.548-2l2.418-14.507c.026-.157.026-.313.026-.444 0-1.142-.832-1.871-1.871-1.871-1.327 0-1.848.598-2.03 1.821l-1.533 10.581h-.053l-3.119-10.894c-.181-.623-.676-1.508-2.08-1.508-1.404 0-1.898.885-2.08 1.508l-3.121 10.894h-.051l-1.535-10.581c-.182-1.223-.702-1.821-2.028-1.821-1.04 0-1.872.729-1.872 1.871 0 .131 0 .287.026.444l2.418 14.507" transform="translate(17.466 26.07)"/></g></g></svg>