<svg xmlns="http://www.w3.org/2000/svg" viewBox="0 0 47.5 47.5" enable-background="new 0 0 47.5 47.5"><defs><clipPath id="0"><path d="m0 38h38v-38h-38v38"/></clipPath></defs><g transform="matrix(1.25 0 0-1.25 0 47.5)"><g clip-path="url(#0)"><path d="m0 0c0-2.209 1.791-4 4-4h28c2.209 0 4 1.791 4 4v28c0 2.209-1.791 4-4 4h-28c-2.209 0-4-1.791-4-4v-28" fill="#3b88c3" transform="translate(1 5)"/><g fill="#fff"><path d="m0 0v16h-16l16-16" transform="translate(28 12)"/><path d="M 0,0 5.657,-5.657 18.471,7.157 12.814,12.813 0,0 Z" transform="translate(8 13.657)"/></g></g></g></svg>