<svg xmlns="http://www.w3.org/2000/svg" viewBox="0 0 47.5 47.5" enable-background="new 0 0 47.5 47.5"><defs><clipPath id="0"><path d="m0 38h38v-38h-38v38"/></clipPath></defs><g transform="matrix(1.25 0 0-1.25 0 47.5)"><g clip-path="url(#0)"><path d="m0 0c0 2.209-1.791 4-4 4h-28c-2.209 0-4-1.791-4-4v-28c0-2.209 1.791-4 4-4h28c2.209 0 4 1.791 4 4v28" fill="#3b88c3" transform="translate(37 33)"/><g fill="#fff"><path d="m0 0v-16h16l-16 16" transform="translate(10 26)"/><path d="M 0,0 -5.657,5.657 -19.471,-8.157 -13.814,-13.813 0,0 Z" transform="translate(30 24.343)"/></g></g></g></svg>