<svg xmlns="http://www.w3.org/2000/svg" viewBox="0 0 47.5 47.5" enable-background="new 0 0 47.5 47.5"><defs><clipPath id="0"><path d="m0 38h38v-38h-38v38"/></clipPath></defs><g transform="matrix(1.25 0 0-1.25 0 47.5)"><g clip-path="url(#0)"><path d="m0 0c0 2.209 1.791 4 4 4h28c2.209 0 4-1.791 4-4v-28c0-2.209-1.791-4-4-4h-28c-2.209 0-4 1.791-4 4v28" fill="#3b88c3" transform="translate(1 33)"/><path d="m0 0c0 1.488.931 2.48 2.232 2.48 1.303 0 2.232-.992 2.232-2.48v-11.906c0-1.488-.929-2.48-2.232-2.48-1.301 0-2.232.992-2.232 2.48v11.906m4.744 6.728c0-1.395-1.116-2.573-2.512-2.573-1.333 0-2.511 1.209-2.511 2.573 0 1.272 1.178 2.45 2.511 2.45 1.334 0 2.512-1.147 2.512-2.45" fill="#fff" transform="translate(16.768 22.2)"/></g></g></svg>