<svg xmlns="http://www.w3.org/2000/svg" viewBox="0 0 47.5 47.5" enable-background="new 0 0 47.5 47.5"><defs><clipPath id="0"><path d="m0 38h38v-38h-38v38"/></clipPath></defs><g transform="matrix(1.25 0 0-1.25 0 47.5)"><g clip-path="url(#0)"><path d="m0 0c0-2.209-1.791-4-4-4h-28c-2.209 0-4 1.791-4 4v28c0 2.209 1.791 4 4 4h28c2.209 0 4-1.791 4-4v-28" fill="#3b88c3" transform="translate(37 5)"/><path d="m0 0h-8v-4h8.01c3.86-.006 6.99-3.138 6.99-7 0-3.866-3.135-7-7-7h-4v4l-7.2-6 7.2-6v4h4c6.074 0 11 4.925 11 11 0 6.075-4.926 11-11 11" fill="#fff" transform="translate(19 32)"/></g></g></svg>