<svg xmlns="http://www.w3.org/2000/svg" viewBox="0 0 47.5 47.5" enable-background="new 0 0 47.5 47.5"><defs><clipPath id="0"><path d="m0 38h38v-38h-38v38"/></clipPath></defs><g transform="matrix(1.25 0 0-1.25 0 47.5)"><g clip-path="url(#0)"><path d="m0 0c0-2.209 1.791-4 4-4h28c2.209 0 4 1.791 4 4v28c0 2.209-1.791 4-4 4h-28c-2.209 0-4-1.791-4-4v-28" fill="#3b88c3" transform="translate(1 5)"/><path d="m0 0l-7.2 6v-4h-4c-3.865 0-7 3.135-7 7 0 3.866 3.135 7 7 7h8v4h-8c-6.074 0-11-4.925-11-11 0-6.074 4.926-11 11-11h4v-4l7.2 6" fill="#fff" transform="translate(30.2 12)"/></g></g></svg>