<svg xmlns="http://www.w3.org/2000/svg" viewBox="0 0 47.5 47.5" enable-background="new 0 0 47.5 47.5" xmlns:xlink="http://www.w3.org/1999/xlink"><defs><clipPath id="0"><path d="m0 38h38v-38h-38v38"/></clipPath></defs><g transform="matrix(1.25 0 0-1.25 0 47.5)"><g clip-path="url(#0)"><path d="m0 0c0 2 3.246 3.369 5 6 2 3 2 10 2 10h-10-10c0 0 0-7 2-10 1.753-2.631 5-3.999 5-6 0-2-3.247-3.369-5-6-2-3-2-10-2-10h10 10c0 0 0 7-2 10-1.754 2.631-5 3.999-5 6" fill="#ffe8b6" transform="translate(22 19)"/><path d="m0 0c-.999 0-2.057 1-2.057 2 .057 1.713.058 2.846.058 4 0 3.22 3.034 4.562 4.9 7h-11.8c1.865-2.438 4.9-3.78 4.9-7 0-1.154 0-2.288.058-4 0-1-1.059-2-2.059-2-2 0-3.594-1.784-4-3-1-3-.999-7-.999-7h6.999 1 8c0 0 0 4-1 7-.405 1.216-2 3-4 3" fill="#ffac33" transform="translate(21.999 13)"/><path d="m0 0c0-1.104-.896-2-2-2h-20c-1.104 0-2 .896-2 2 0 1.104.896 2 2 2h20c1.104 0 2-.896 2-2" fill="#3b88c3" transform="translate(31 3)" id="1"/><use transform="translate(0 32)" xlink:href="#1"/></g></g></svg>