<svg xmlns="http://www.w3.org/2000/svg" viewBox="0 0 47.5 47.5" enable-background="new 0 0 47.5 47.5"><defs><clipPath id="0"><path d="m0 38h38v-38h-38v38"/></clipPath></defs><g transform="matrix(1.25 0 0-1.25 0 47.5)"><g clip-path="url(#0)"><path d="m0 0c0-1.112-.903-2.01-2-2.01-1.097 0-2 .902-2 2.01v4.03c0 1.112.903 2.01 2 2.01 1.097 0 2-.902 2-2.01v-4.03" fill="#ffcc4d" transform="translate(21 30.959)"/><path d="m0 0c-.224 0-.452.052-.666.159-.736.374-1.034 1.28-.666 2.028l8.94 18.13c.253.512.768.835 1.333.835.565 0 1.08-.323 1.332-.835l8.942-18.13c.368-.748.07-1.654-.666-2.028-.737-.372-1.631-.07-1.999.676l-7.609 15.425-7.608-15.425c-.26-.529-.787-.835-1.333-.835" fill="#ffac33" transform="translate(10.18 1)"/><path d="m0 0c-.263 0-.516.106-.702.295l-13.907 14.1c-.388.394-.388 1.031 0 1.424.388.393 1.017.393 1.404 0l13.205-13.386 13.203 13.386c.389.393 1.017.393 1.405 0 .388-.393.388-1.03 0-1.424l-13.905-14.1c-.187-.189-.439-.295-.703-.295" fill="#58595b" transform="translate(19.12 16.608)"/><path d="m0 0c0-8.898-7.115-16.11-15.894-16.11-8.777 0-15.893 7.213-15.893 16.11 0 8.9 7.116 16.11 15.893 16.11 8.779 0 15.894-7.213 15.894-16.11" fill="#dd2e44" transform="translate(35.01 17.615)"/><path d="m0 0c0-6.674-5.335-12.08-11.92-12.08-6.583 0-11.919 5.41-11.919 12.08 0 6.675 5.336 12.09 11.919 12.09 6.585 0 11.92-5.41 11.92-12.09" fill="#e6e7e8" transform="translate(31.04 17.615)"/><g fill="#ffcc4d"><path d="m0 0c-1.646 0-3.135-.676-4.214-1.77l8.429-8.544c1.078 1.093 1.745 2.604 1.745 4.272 0 3.336-2.669 6.04-5.96 6.04" transform="translate(31.04 35.743)"/><path d="m0 0c1.645 0 3.135-.676 4.214-1.77l-8.429-8.544c-1.077 1.093-1.745 2.604-1.745 4.272 0 3.336 2.668 6.04 5.96 6.04" transform="translate(6.96 35.743)"/></g><path d="m0 0h-5c-.552 0-1 .447-1 1v9c0 .552.448 1 1 1 .552 0 1-.448 1-1v-8h4c.553 0 1-.448 1-1 0-.553-.447-1-1-1" fill="#414042" transform="translate(24 17)"/></g></g></svg>