<svg xmlns="http://www.w3.org/2000/svg" viewBox="0 0 47.5 47.5" enable-background="new 0 0 47.5 47.5"><defs><clipPath id="0"><path d="m0 38h38v-38h-38v38"/></clipPath></defs><g transform="matrix(1.25 0 0-1.25 0 47.5)"><g clip-path="url(#0)"><path d="m0 0c0-2.209-1.791-4-4-4h-6c-2.209 0-4 1.791-4 4v28c0 2.209 1.791 4 4 4h6c2.209 0 4-1.791 4-4v-28" fill="#414042" transform="translate(26 5)"/><path d="m0 0c0 1.104-.896 2-2 2h-1c-1.104 0-2-.896-2-2 0-1.104.896-2 2-2h1c1.104 0 2 .896 2 2" fill="#939598" transform="translate(33 19)"/><path d="m0 0c0 6.627 5.373 12 12 12 6.627 0 12-5.373 12-12 0-6.627-5.373-12-12-12-6.627 0-12 5.373-12 12" fill="#d1d3d4" transform="translate(7 19)"/><path d="m0 0c0 4.418 3.582 8 8 8 4.418 0 8-3.582 8-8 0-4.418-3.582-8-8-8-4.418 0-8 3.582-8 8" fill="#f1f2f2" transform="translate(11 19)"/><path d="m0 0c-.175 0-.353.046-.514.143l-5 2.999c-.301.181-.486.506-.486.858v7c0 .552.448 1 1 1 .552 0 1-.448 1-1v-6.434l4.516-2.709c.473-.284.627-.898.342-1.372-.187-.312-.518-.485-.858-.485" fill="#58595b" transform="translate(24 15)"/></g></g></svg>