<svg xmlns="http://www.w3.org/2000/svg" viewBox="0 0 47.5 47.5" enable-background="new 0 0 47.5 47.5"><defs><clipPath id="0"><path d="m0 38h38v-38h-38v38"/></clipPath></defs><g transform="matrix(1.25 0 0-1.25 0 47.5)"><g clip-path="url(#0)"><path d="m0 0c-.368-.53-.747-1.01-1.105-1.458-.986-1.24-1.765-2.221-1.765-3.594 0-2.479 1.632-3 3-3 .784 0 1.387.284 1.791.845.64.888.741 2.395.261 3.839-.328.978-1.15 2.202-2.182 3.368m.13-10.05c-2.417 0-5 1.314-5 5 0 2.072 1.118 3.478 2.199 4.838.423.532.851 1.07 1.239 1.666-1.555 1.419-3.266 2.496-4.438 2.496v2c1.621 0 3.602-1.133 5.382-2.67.378.995.618 2.177.618 3.67h2c0-2.168-.448-3.816-1.077-5.149 1.445-1.542 2.591-3.231 3.03-4.534.689-2.067.484-4.228-.535-5.642-.778-1.08-1.991-1.675-3.413-1.675" fill="#939598" transform="translate(30.87 14.05)"/><path d="m0 0h-6.252-6c-2.209 0-3.883-1.791-3.74-4l1.171-18c.143-2.209 1.775-4 3.644-4h4.925 5.177c1.869 0 3.501 1.791 3.644 4l1.171 18c.143 2.209-1.531 4-3.74 4" fill="#ffac33" transform="translate(22.252 27)"/><path d="m0 0h-22c-.552 0-1-.447-1-1v-2h24v2c0 .553-.447 1-1 1" fill="#a7a9ac" transform="translate(27 4)"/><path d="m0 0c-.553 0-1 .448-1 1v3.236l2.105 4.211c.249.494.848.695 1.342.448.494-.248.695-.848.448-1.342l-1.895-3.789v-2.764c0-.552-.447-1-1-1" fill="#ffac33" transform="translate(32 27)"/><path d="m0 0h-.777c.172.295.277.634.277 1v4c0 .738-.404 1.376-1 1.723v.277c0 .552-.447 1-1 1-.553 0-1-.448-1-1v-.277c-.596-.347-1-.985-1-1.723v-4c0-.366.105-.705.277-1h-.777c-.276 0-.5-.224-.5-.5 0-.276.224-.5.5-.5h5c.276 0 .5.224.5.5 0 .276-.224.5-.5.5" fill="#be1931" transform="translate(34.5 21)"/><path d="m0 0c0-.552.447-1 1-1h5c.553 0 1 .448 1 1 0 .552-.447 1-1 1h-5c-.553 0-1-.448-1-1" fill="#939598" transform="translate(26 23)"/><path d="m0 0c0-2.209-1.791-4-4-4h-16c-2.209 0-4 1.791-4 4v10c0 2.209 1.791 4 4 4h16c2.209 0 4-1.791 4-4v-10" fill="#e6e7e8" transform="translate(28 23)"/><path d="m0 0c0-1.104-.896-2-2-2h-16c-1.104 0-2 .896-2 2v10c0 1.104.896 2 2 2h16c1.104 0 2-.896 2-2v-10" fill="#58595b" transform="translate(26 23)"/><path d="m23 29h-9v3h9v-3" fill="#a7a9ac"/></g></g></svg>