<svg xmlns="http://www.w3.org/2000/svg" viewBox="0 0 47.5 47.5" enable-background="new 0 0 47.5 47.5"><defs><clipPath id="0"><path d="m0 38h38v-38h-38v38"/></clipPath></defs><g transform="matrix(1.25 0 0-1.25 0 47.5)"><g clip-path="url(#0)"><path d="m0 0c0-2.209-1.791-4-4-4h-28c-2.209 0-4 1.791-4 4v28c0 2.209 1.791 4 4 4h28c2.209 0 4-1.791 4-4v-28" fill="#269" transform="translate(37 5)"/><path d="m0 0c-.64 0-1.28.244-1.768.732l-6.5 6.5c-.976.977-.976 2.559 0 3.536.976.976 2.56.976 3.536 0l4.732-4.733 13.732 13.733c.977.976 2.559.976 3.536 0 .976-.976.976-2.56 0-3.536l-15.5-15.5c-.488-.488-1.128-.732-1.768-.732" transform="translate(14.5 6)"/><path d="m0 0c-.64 0-1.28.244-1.768.732l-6.5 6.5c-.976.977-.976 2.559 0 3.536.976.976 2.56.976 3.536 0l4.732-4.733 13.732 13.733c.977.976 2.559.976 3.536 0 .976-.976.976-2.56 0-3.536l-15.5-15.5c-.488-.488-1.128-.732-1.768-.732" fill="#bbddf5" transform="translate(14.5 8)"/></g></g></svg>