<svg xmlns="http://www.w3.org/2000/svg" viewBox="0 0 47.5 47.5" enable-background="new 0 0 47.5 47.5"><defs><clipPath id="0"><path d="m0 38h38v-38h-38v38"/></clipPath></defs><g transform="matrix(1.25 0 0-1.25 0 47.5)"><g clip-path="url(#0)"><path d="m0 0c0-2.209-1.791-4-4-4h-28c-2.209 0-4 1.791-4 4v28c0 2.209 1.791 4 4 4h28c2.209 0 4-1.791 4-4v-28" fill="#f4900c" transform="translate(37 5)"/><g fill="#fff"><path d="m0 0c-5.526 0-8 4.27-8 8.5v15c0 .829.671 1.5 1.5 1.5.829 0 1.5-.671 1.5-1.5v-15c0-1.29.36-5.5 5-5.5 4.64 0 5 4.21 5 5.5v15c0 .829.672 1.5 1.5 1.5.828 0 1.5-.671 1.5-1.5v-15c0-4.23-2.474-8.5-8-8.5" transform="translate(19 6.5)"/><path d="m0 0c-.384 0-.768.146-1.061.439-.585.586-.585 1.536 0 2.122.525.524.987 1.018 1.415 1.475 2.074 2.214 3.712 3.964 7.646 3.964 2.43 0 4.649-1.387 6.795-2.728 1.869-1.168 3.636-2.272 5.205-2.272 2.633 0 3.518.945 5.457 3.02.447.479.933.996 1.482 1.546.586.585 1.536.585 2.122 0 .585-.586.585-1.536 0-2.122-.525-.524-.987-1.018-1.415-1.475-2.074-2.215-3.712-3.964-7.646-3.964-2.431 0-4.649 1.387-6.795 2.728-1.87 1.168-3.635 2.272-5.205 2.272-2.633 0-3.518-.945-5.457-3.01-.448-.478-.932-.996-1.482-1.546-.293-.293-.677-.439-1.061-.439" transform="translate(5 15.5)"/></g></g></g></svg>