<svg xmlns="http://www.w3.org/2000/svg" viewBox="0 0 47.5 47.5" enable-background="new 0 0 47.5 47.5"><defs><clipPath id="0"><path d="m0 38h38v-38h-38v38"/></clipPath></defs><g transform="matrix(1.25 0 0-1.25 0 47.5)"><g clip-path="url(#0)"><path d="m0 0c4.143 0 7.5 3.358 7.5 7.5 0 4.142-3.357 7.5-7.5 7.5-1.359 0-2.631-.367-3.73-1h-.209c2.046 1.217 3.422 3.445 3.422 6 0 3.857-3.126 6.984-6.983 6.984-3.857 0-6.984-3.127-6.984-6.984 0-2.555 1.376-4.783 3.423-6h-.208c-1.1.633-2.371 1-3.731 1-4.142 0-7.5-3.358-7.5-7.5 0-4.142 3.358-7.5 7.5-7.5 2.155 0 4.091.914 5.459 2.368-.41-4.121-4.754-7.368-8.959-7.368h.5c-.829 0-1.5-.672-1.5-1.5 0-.828.671-1.5 1.5-1.5h21c.828 0 1.5.672 1.5 1.5 0 .828-.672 1.5-1.5 1.5h.5c-4.205 0-8.549 3.248-8.959 7.369 1.367-1.455 3.305-2.369 5.459-2.369" transform="translate(26.5 9)"/></g></g></svg>