<svg xmlns="http://www.w3.org/2000/svg" viewBox="0 0 47.5 47.5" enable-background="new 0 0 47.5 47.5"><defs><clipPath id="0"><path d="m0 38h38v-38h-38v38"/></clipPath></defs><g transform="matrix(1.25 0 0-1.25 0 47.5)"><g clip-path="url(#0)"><path d="m0 0c0-2.209-1.791-4-4-4h-28c-2.209 0-4 1.791-4 4v28c0 2.209 1.791 4 4 4h28c2.209 0 4-1.791 4-4v-28" fill="#3b88c3" transform="translate(37 5)"/><g fill="#fff"><path d="m0 0c-3.842 0-4 .933-4 4.5v10c0 4.562-1.776 5.939-3.268 6.291-1.465.345-2.971-.291-4.02-1.269-.595.751-1.313 1.113-1.976 1.269-1.46.345-2.959-.286-4.01-1.257-1.016 1.347-2.328 1.466-2.721 1.466-.829 0-1.5-.671-1.5-1.5 0-.829.671-1.5 1.5-1.5.155 0 1-.646 1-3.5v-11c0-.828.671-1.5 1.5-1.5.829 0 1.5.672 1.5 1.5v11c0 .669-.045 1.257-.116 1.796.186.137.347.312.458.533.295.591 1.217 1.157 1.701 1.042.461-.108.957-1.21.957-3.371v-11c0-.828.671-1.5 1.5-1.5.829 0 1.5.672 1.5 1.5v11c0 .668-.042 1.261-.112 1.799.185.136.344.311.454.53.295.591 1.224 1.157 1.701 1.042.461-.108.957-1.21.957-3.371v-10c0-3.952.535-7.5 7-7.5.828 0 1.5.672 1.5 1.5 0 .828-.672 1.5-1.5 1.5" transform="translate(28 10.5)"/><path d="m0 0l-5.5 4v-8l5.5 4" transform="translate(32.5 9)"/></g></g></g></svg>