<svg xmlns="http://www.w3.org/2000/svg" viewBox="0 0 47.5 47.5" enable-background="new 0 0 47.5 47.5"><defs><clipPath id="0"><path d="m5 37c-2.209 0-4-1.791-4-4v-28c0-2.209 1.791-4 4-4h28c2.209 0 4 1.791 4 4v28c0 2.209-1.791 4-4 4h-28"/></clipPath><clipPath id="1"><path d="m0 38h38v-38h-38v38"/></clipPath><clipPath id="2"><path d="m8 13c0-2.209 4.925-4 11-4 6.075 0 11 1.791 11 4 0 2.209-4.925 4-11 4-6.075 0-11-1.791-11-4"/></clipPath></defs><g transform="matrix(1.25 0 0-1.25 0 47.5)"><g clip-path="url(#0)"><path d="m37-1h-38v38h38v-38" fill="#269"/><path d="m39 15h-39v-17h39v17" fill="#5c913b"/></g><g clip-path="url(#1)"><g fill="#99aab5"><path d="m0 0c0-2.762-5.82-5-13-5-7.18 0-13 2.238-13 5 0 2.762 5.82 5 13 5 7.18 0 13-2.238 13-5" transform="translate(32 8)"/><path d="m32 13h-26v-5h26v5"/></g><path d="m0 0c0-2.762-5.82-5-13-5-7.18 0-13 2.238-13 5 0 2.762 5.82 5 13 5 7.18 0 13-2.238 13-5" fill="#fff" transform="translate(32 13)"/><path d="m0 0c0-2.209-4.925-4-11-4-6.075 0-11 1.791-11 4 0 2.209 4.925 4 11 4 6.075 0 11-1.791 11-4" fill="#ccd6dd" transform="translate(30 13)"/></g><g clip-path="url(#2)"><path d="m0 0c0-2.209-4.925-4-11-4-6.075 0-11 1.791-11 4 0 2.209 4.925 4 11 4 6.075 0 11-1.791 11-4" fill="#3b88c3" transform="translate(30 11)"/></g><g clip-path="url(#1)"><g fill="#99aab5"><path d="m0 0c0-.553-1.343-1-3-1-1.657 0-3 .447-3 1 0 .553 1.343 1 3 1 1.657 0 3-.447 3-1" transform="translate(22 11)"/><path d="m22 13h-6v-2h6v2"/></g><path d="m0 0c0-.553-1.343-1-3-1-1.657 0-3 .447-3 1 0 .553 1.343 1 3 1 1.657 0 3-.447 3-1" fill="#ccd6dd" transform="translate(22 13)"/><path d="m0 0c-1.623 0-2.799-.501-3.638-1.228-.431 2.094-1.973 4.728-5.862 4.728-4.746 0-6-3.925-6-6v-2c0-.552.448-1 1-1 .552 0 1 .448 1 1v2c0 .163.045 4 4 4 3.853 0 3.997-3.595 4-4v-2.176c-.647.415-1.472.676-2.5.676-3.302 0-4.5-2.691-4.5-4.5v-1c0-.552.448-1 1-1 .552 0 1 .448 1 1v.994c.005.418.152 2.506 2.5 2.506 2.348 0 2.495-2.088 2.5-2.5v-9c0-.553.448-1 1-1 .552 0 1 .447 1 1v7c0 .334.097 2 2 2 1.826 0 1.992-1.537 2-2v-1c0-.552.447-1 1-1 .553 0 1 .448 1 1v1c0 1.608-1.065 4-4 4-.807 0-1.459-.191-2-.486v1.486c0 .358.099 3.5 3.5 3.5 3.367 0 3.496-3.146 3.5-3.5v-2c0-.552.447-1 1-1 .553 0 1 .448 1 1v2c0 1.902-1.149 5.5-5.5 5.5" fill="#55acee" transform="translate(23.5 31.5)"/></g></g></svg>