<svg xmlns="http://www.w3.org/2000/svg" viewBox="0 0 47.5 47.5" enable-background="new 0 0 47.5 47.5" xmlns:xlink="http://www.w3.org/1999/xlink"><defs><clipPath id="0"><path d="m0 38h38v-38h-38v38"/></clipPath></defs><g transform="matrix(1.25 0 0-1.25 0 47.5)"><g clip-path="url(#0)"><path d="m0 0c0 .828-.672 1.5-1.5 1.5-.828 0-1.5-.672-1.5-1.5v-.5c0 0 0-3-3-3-3 0-3 3-3 3v25 .5c0 .829-.671 1.5-1.5 1.5-.829 0-1.5-.671-1.5-1.5v-25.5c0 0 0-6 6-6 6 0 6 6 6 6v.5" fill="#66757f" transform="translate(28 8.5)"/><path d="m0 0c-9.112 0-16.5-5.82-16.5-13 0 0 0-2 1-2 1 0 3 2 3 2h25c0 0 2-2 3-2 1 0 1 2 1 2 0 7.18-7.388 13-16.5 13" fill="#744eaa" transform="translate(17.5 33)"/><path d="m0 0c-6.903 0-12.5-5.82-12.5-13 0 0 0-2 2-2 2 0 5 2 5 2h11c0 0 3-2 5-2 2 0 2 2 2 2 0 7.18-5.597 13-12.5 13" fill="#9266cc" transform="translate(17.5 33)"/><path d="m0 0c-3.59 0-5.5-5.82-5.5-13 0 0 3-2 5-2h1c2 0 5 2 5 2 0 7.18-1.91 13-5.5 13" fill="#744eaa" transform="translate(17.5 33)"/><path d="m0 0l-2.679 4.382-2.482-4.353c-.579-.922-.629-2.122-.022-3.114.864-1.412 2.724-1.865 4.155-1.014 1.431.852 1.891 2.686 1.028 4.099" fill="#5dadec" transform="translate(6.617 32.528)" id="1"/><use transform="translate(8-3)" xlink:href="#1"/><path d="m0 0l-2.679 4.382-2.482-4.353c-.579-.922-.629-2.122-.022-3.114.864-1.412 2.724-1.865 4.155-1.014 1.43.852 1.891 2.686 1.028 4.099" fill="#5dadec" transform="translate(26.565 32.528)" id="2"/><use transform="translate(10-5.91)" xlink:href="#2"/></g></g></svg>