<svg xmlns="http://www.w3.org/2000/svg" viewBox="0 0 47.5 47.5" enable-background="new 0 0 47.5 47.5"><defs><clipPath id="0"><path d="m0 38h38v-38h-38v38"/></clipPath></defs><g transform="matrix(1.25 0 0-1.25 0 47.5)"><g clip-path="url(#0)"><path d="m0 0c-.701 0-1.377-.106-2.02-.298.005.1.015.197.015.298 0 3.313-2.687 6-6 6-2.769 0-5.093-1.878-5.785-4.427-.686.273-1.432.427-2.215.427-3.314 0-6-2.686-6-6 0-3.312 2.686-6 6-6 2.769 0 5.093 1.878 5.785 4.428.686-.273 1.432-.428 2.215-.428.375 0 .74.039 1.096.104-.058-.36-.096-.727-.096-1.104 0-3.865 3.135-7 7-7 3.865 0 7 3.135 7 7 0 3.866-3.135 7-7 7" fill="#b4c3cc" transform="translate(28 29)"/><path d="m0 0c-.467 0-.91-.085-1.339-.204.216.526.339 1.1.339 1.704 0 2.485-2.02 4.5-4.5 4.5-1.019 0-1.947-.351-2.701-.921-.706 2.825-3.255 4.921-6.299 4.921-2.838 0-5.245-1.822-6.131-4.357-.748.232-1.544.357-2.369.357-4.418 0-8-3.582-8-8 0-4.419 3.582-8 8-8h23c2.762 0 5 2.238 5 5 0 2.762-2.238 5-5 5" fill="#8899a6" transform="translate(32 15)"/></g></g></svg>