<svg xmlns="http://www.w3.org/2000/svg" viewBox="0 0 47.5 47.5" enable-background="new 0 0 47.5 47.5"><defs><clipPath id="0"><path d="m0 38h38v-38h-38v38"/></clipPath></defs><g transform="matrix(1.25 0 0-1.25 0 47.5)"><g clip-path="url(#0)"><path d="m0 0c0-2.209-1.791-4-4-4h-28c-2.209 0-4 1.791-4 4v28c0 2.209 1.791 4 4 4h28c2.209 0 4-1.791 4-4v-28" fill="#3b88c3" transform="translate(37 5)"/><g fill="#fff"><path d="m0 0c0-1.657-1.344-3-3-3-1.656 0-3 1.343-3 3 0 1.657 1.344 3 3 3 1.656 0 3-1.343 3-3" transform="translate(31 30)"/><path d="m0 0l2.367 2.366 3.859-1.158-2.635-2.846c1.766-.694 3.283-1.875 4.392-3.379l5.02 5.02c.373.373.523.916.393 1.427-.129.512-.518.919-1.023 1.07l-9.999 3c-.529.16-1.102.015-1.492-.376l-3-3c-.586-.585-.586-1.536 0-2.121.586-.586 1.535-.586 2.121 0" transform="translate(14.06 23.94)"/><path d="m0 0c-.316.359-.787.549-1.262.503l-6.786-.617c.632-.867 1.135-1.833 1.464-2.879l3.548.322-1.554-6.995c-.18-.809.33-1.609 1.139-1.789.109-.024.219-.036.326-.036.688 0 1.308.475 1.463 1.175l2 9c.104.467-.022.956-.338 1.316" transform="translate(30.13 18.991)"/><path d="m0 0c-3.313 0-6 2.687-6 6 0 3.313 2.687 6 6 6 3.314 0 6-2.687 6-6 0-3.313-2.686-6-6-6m0 14c-4.418 0-8-3.582-8-8 0-4.418 3.582-8 8-8 4.418 0 8 3.582 8 8 0 4.418-3.582 8-8 8" transform="translate(14 7)"/></g></g></g></svg>