<svg xmlns="http://www.w3.org/2000/svg" viewBox="0 0 47.5 47.5" enable-background="new 0 0 47.5 47.5"><defs><clipPath id="0"><path d="m0 38h38v-38h-38v38"/></clipPath></defs><g transform="matrix(1.25 0 0-1.25 0 47.5)"><g clip-path="url(#0)" fill="#d99e82"><path d="m0 0c0 0-.188 1.991-2.18 1.804-1.99-.188-1.802-2.179-1.802-2.179l1.175-11.974h.229 2 1.783l-1.205 12.349" transform="translate(14.578 31.349)"/><path d="m0 0c0-1.059-.857-1.917-1.916-1.917h-.168c-1.059 0-1.916.858-1.916 1.917v4.166c0 1.059.857 1.917 1.916 1.917h.168c1.059 0 1.916-.858 1.916-1.917v-4.166" transform="translate(31 14.917)"/><path d="m0 0c-1.104 0-2-.896-2-2v-2.778c.609-.549 1-1.336 1-2.222 0-.753-.287-1.433-.745-1.959.341-.617.99-1.041 1.745-1.041 1.104 0 2 .896 2 2v6c0 1.104-.896 2-2 2" transform="translate(24 23)"/><path d="m0 0h-.125c-1.024 0-1.925.526-2.45 1.322-.123-.182-.271-.345-.431-.497-.049-.046-.102-.085-.155-.128-.119-.098-.243-.188-.377-.268-.066-.039-.132-.075-.201-.109-.14-.069-.285-.125-.436-.172-.067-.02-.131-.045-.2-.061-.222-.053-.45-.087-.687-.087-.237 0-.461.036-.681.089-.076.017-.149.042-.223.066-.137.044-.268.099-.395.161-.082.04-.163.077-.241.124-.164.1-.318.213-.46.341-.202.184-.383.387-.53.618l.003.003c-.201-.115-.474-.402-1.474-.402h-2.537c1.809-1.365 3.037-3.99 3.037-7 0-.276-.223-.5-.5-.5-.276 0-.5.224-.5.5 0 3.859-2.187 7-4.875 7h-.125c-.276 0-.5.224-.5.5 0 .276.224.5.5.5h1.5 4c1.105 0 2 .896 2 2 0 1.104-.896 2-2 2h-7.999c-.033 0-.063-.008-.095-.01-.072-.003-.144-.01-.216-.021-.062-.01-.122-.022-.182-.037-.063-.017-.125-.036-.186-.058-.062-.022-.122-.047-.181-.075-.057-.028-.111-.058-.165-.09-.056-.033-.109-.067-.161-.106-.052-.039-.102-.081-.15-.124-.046-.042-.09-.084-.132-.13-.046-.049-.087-.1-.128-.154-.038-.05-.073-.102-.106-.156-.034-.056-.064-.112-.093-.171-.03-.061-.056-.125-.08-.19-.011-.032-.028-.06-.039-.093l-1.086-3.585c-.103-.335-.479-1.871-.411-2.191 0-4.809 4.696-9.809 10.41-9.809 6.538 0 11.844 5.231 11.987 11.734-.517-.451-1.185-.734-1.924-.734" transform="translate(29.06 12)"/><path d="m0 0v2c0 1.104-.896 2-2 2-1.104 0-2-.896-2-2v-2h4" transform="translate(21 19)"/></g></g></svg>