<svg xmlns="http://www.w3.org/2000/svg" viewBox="0 0 47.5 47.5" enable-background="new 0 0 47.5 47.5"><defs><clipPath id="0"><path d="m0 38h38v-38h-38v38"/></clipPath></defs><g transform="matrix(1.25 0 0-1.25 0 47.5)"><g clip-path="url(#0)"><path d="m0 0c0-2.209-1.791-4-4-4h-28c-2.209 0-4 1.791-4 4v28c0 2.209 1.791 4 4 4h28c2.209 0 4-1.791 4-4v-28" fill="#dd2e44" transform="translate(37 5)"/><path d="m0 0h-11.5c-.829 0-1.5-.671-1.5-1.5 0-.829.671-1.5 1.5-1.5h7.879l-11.879-11.879-3.939 3.94c-.586.585-1.536.585-2.122 0-.585-.586-.585-1.536 0-2.122l3.94-3.939-4.94-4.939c-.585-.586-.585-1.536 0-2.122.293-.293.677-.439 1.061-.439.384 0 .768.146 1.061.439l4.939 4.94 3.939-3.94c.293-.293.677-.439 1.061-.439.384 0 .768.146 1.061.439.585.586.585 1.536 0 2.122l-3.94 3.939 11.879 11.879v-7.879c0-.828.672-1.5 1.5-1.5.828 0 1.5.672 1.5 1.5v11.5c0 .829-.672 1.5-1.5 1.5" fill="#fff" transform="translate(29.5 31)"/></g></g></svg>