<svg xmlns="http://www.w3.org/2000/svg" viewBox="0 0 47.5 47.5" enable-background="new 0 0 47.5 47.5" xmlns:xlink="http://www.w3.org/1999/xlink"><defs><clipPath id="0"><path d="m0 38h38v-38h-38v38"/></clipPath></defs><g transform="matrix(1.25 0 0-1.25 0 47.5)"><g clip-path="url(#0)"><path d="m0 0c0-9.941-8.06-18-18-18-9.94 0-18 8.06-18 18 0 9.94 8.06 18 18 18 9.941 0 18-8.06 18-18" fill="#ffcc4d" transform="translate(37 19)"/><path d="m0 0c0-2.762-2.238-5-5-5-2.762 0-5 2.238-5 5 0 2.762 2.238 5 5 5 2.762 0 5-2.238 5-5" fill="#ff7892" transform="translate(35 15)" id="1"/><use transform="translate(-22)" xlink:href="#1"/><g fill="none" stroke="#664500" stroke-linejoin="round" stroke-linecap="round" stroke-width="2"><path d="m0 0c0 0 5 1 8-2" transform="translate(22 26)"/><path d="m0 0c0 0-5 1-8-2" transform="translate(16 26)"/><path d="m0 0c0 0 4 1 6-1" transform="translate(21 20)"/><path d="m0 0c0 0-4 1-6-1" transform="translate(17 20)"/></g><path d="m0 0c0 0 1-4 5-4 4 0 5 4 5 4 0 0-1-1-5-1-4 0-5 1-5 1" fill="#664500" transform="translate(14 12)"/><path d="m0 0c0 0 1-4 5-4 4 0 5 4 5 4 0 0-1-1-5-1-4 0-5 1-5 1" fill="none" stroke="#664500" stroke-linejoin="round" stroke-linecap="round" transform="translate(14 12)"/></g></g></svg>