<svg xmlns="http://www.w3.org/2000/svg" viewBox="0 0 47.5 47.5" enable-background="new 0 0 47.5 47.5"><defs><clipPath id="0"><path d="m0 38h38v-38h-38v38"/></clipPath></defs><g transform="matrix(1.25 0 0-1.25 0 47.5)"><g clip-path="url(#0)"><path d="m0 0c0-2.209-1.791-4-4-4h-28c-2.209 0-4 1.791-4 4v28c0 2.209 1.791 4 4 4h28c2.209 0 4-1.791 4-4v-28" fill="#dd2e44" transform="translate(37 5)"/><path d="m0 0h-4.572l-.197 1.271c-.072.471-1.786 11.379-2.01 13.376-.556 5-1.721 7.353-3.463 7.353h-.003c-.741 0-1.254-.07-1.568-.578-.353-.571-.409-1.293-.133-1.845.37-.741.069-1.595-.671-1.966-.741-.369-1.642-.047-2.01.695-.744 1.487-.639 3.218.265 4.682.86 1.39 2.345 2.01 4.077 2.01h.01c3.66 0 5.707-3.057 6.481-10.02.142-1.285.966-6.647 1.509-10.2.542 3.553 1.366 9.06 1.509 10.341.773 6.954 2.896 10.358 6.491 10.358 1.711 0 3.187-.79 4.051-2.188.918-1.485 1.035-3.477.291-4.966-.37-.74-1.27-1.038-2.01-.668-.741.371-1.041 1.273-.671 2.01.24.481.267 1.365-.159 2.054-.323.522-.814.777-1.499.777-2.196 0-3.121-4.168-3.509-7.666-.222-1.997-1.935-13.09-2.01-13.563l-.196-1.271" fill="#fff" transform="translate(21.286 6)"/></g></g></svg>