<svg xmlns="http://www.w3.org/2000/svg" viewBox="0 0 47.5 47.5" enable-background="new 0 0 47.5 47.5"><defs><clipPath id="0"><path d="m0 38h38v-38h-38v38"/></clipPath></defs><g transform="matrix(1.25 0 0-1.25 0 47.5)"><g clip-path="url(#0)"><path d="m0 0c0 1.657 1.343 3 3 3 1.656 0 3-1.343 3-3 0-1.657-1.344-3-3-3-1.657 0-3 1.343-3 3m20-19l-4.5 6.428-4.5-6.428h2.575c-1.13-3.988-4.445-7.05-8.575-7.81v15.81h3c1.104 0 2 .896 2 2 0 1.104-.896 2-2 2h-3v1.349c2.329.824 4 3.04 4 5.651 0 3.313-2.687 6-6 6-3.313 0-6-2.687-6-6 0-2.611 1.671-4.827 4-5.651v-1.349h-3c-1.104 0-2-.896-2-2 0-1.104.896-2 2-2h3v-15.81c-4.13.76-7.446 3.822-8.575 7.81h2.575l-4.5 6.428-4.5-6.428h3.33c1.375-6.289 6.969-11 13.67-11 6.701 0 12.295 4.711 13.67 11h3.33z" fill="#269" transform="translate(16 31)"/></g></g></svg>