<svg xmlns="http://www.w3.org/2000/svg" viewBox="0 0 47.5 47.5" enable-background="new 0 0 47.5 47.5"><defs><clipPath id="0"><path d="m0 38h38v-38h-38v38"/></clipPath></defs><g transform="matrix(1.25 0 0-1.25 0 47.5)"><g clip-path="url(#0)"><path d="m0 0c0-2.209-1.791-4-4-4h-28c-2.209 0-4 1.791-4 4v28c0 2.209 1.791 4 4 4h28c2.209 0 4-1.791 4-4v-28" fill="#f4900c" transform="translate(37 5)"/><path d="m0 0c-1.153-.117-2.563.202-3.208 1.361.487 1.263 1.639 2 3.241 2 1 0 2.5-.399 2.5-1.5 0-1.058-1.274-1.738-2.533-1.863m.033 6.363c-1.616 0-3.03-.476-4.117-1.316-.447 2.177-1.12 5.415-1.916 9.131-1.078 5.03-3.708 6.095-5.179 6.282-1.724.221-3.451-.536-4.787-1.982-1.038 1.746-2.571 1.885-3 1.885-.828 0-1.5-.671-1.5-1.5 0-.828.672-1.5 1.5-1.5.155 0 1-.645 1-3.5v-11c0-.828.672-1.5 1.5-1.5.829 0 1.5.672 1.5 1.5v11c0 .304.248 1.142.342 1.329.742 1.484 2 2.431 3.068 2.292 1.146-.146 2.127-1.616 2.623-3.935 1.448-6.755 2.486-11.929 2.497-11.98.025-.127.053-.25.084-.37-.075-.427-.114-.873-.114-1.336 0-2.471-3.357-2.5-3.5-2.5-.828 0-1.5-.672-1.5-1.5 0-.828.672-1.5 1.5-1.5 2.573 0 5.171 1.199 6.122 3.511 1.252-.735 2.759-.998 4.141-.859 3.083.305 5.237 2.298 5.237 4.848 0 2.608-2.313 4.5-5.5 4.5" fill="#fff" transform="translate(26.967 11.137)"/></g></g></svg>