<svg xmlns="http://www.w3.org/2000/svg" viewBox="0 0 47.5 47.5" enable-background="new 0 0 47.5 47.5" xmlns:xlink="http://www.w3.org/1999/xlink"><defs><path id="2" d="m0 0c0-.276-.224-.5-.5-.5-.276 0-.5.224-.5.5 0 .276.224.5.5.5.276 0 .5-.224.5-.5" fill="#fff"/><path id="3" d="m0 0c0-.552-.447-1-1-1-.553 0-1 .448-1 1 0 .552.447 1 1 1 .553 0 1-.448 1-1" fill="#fff"/><clipPath id="0"><path d="m5 37c-2.209 0-4-1.791-4-4v-28c0-2.209 1.791-4 4-4h28c2.209 0 4 1.791 4 4v28c0 2.209-1.791 4-4 4h-28"/></clipPath><clipPath id="1"><path d="m0 38h38v-38h-38v38"/></clipPath></defs><g transform="matrix(1.25 0 0-1.25 0 47.5)"><g clip-path="url(#0)"><path d="m37-1h-38v38h38v-38" fill="#00557f"/><path d="m39 15h-39v-17h39v17" fill="#3e721d"/></g><g clip-path="url(#1)"><path d="m0 0c-1.381 0-2.5 1.119-2.5 2.5 0 1.13.755 2.074 1.784 2.383-.251.069-.511.117-.784.117-1.657 0-3-1.343-3-3 0-1.657 1.343-3 3-3 .959 0 1.803.458 2.353 1.159-.268-.097-.552-.159-.853-.159" fill="#fff" transform="translate(7.5 30)"/><use transform="translate(12 34.5)" xlink:href="#2"/><use transform="translate(28 25.5)" xlink:href="#2"/><use transform="translate(9 25.5)" xlink:href="#2"/><path d="m0 0c0-.552-.447-1-1-1-.553 0-1 .448-1 1 0 .552.447 1 1 1 .553 0 1-.448 1-1" fill="#fff" transform="translate(24 32)"/><use transform="translate(6 20)" xlink:href="#3"/><use transform="translate(14 30)" xlink:href="#3"/><use transform="translate(34 20)" xlink:href="#3"/><use transform="translate(23 24)" xlink:href="#3"/><use transform="translate(28 31.5)" xlink:href="#2"/><use transform="translate(18 26.5)" xlink:href="#2"/><use transform="translate(14 23.5)" xlink:href="#2"/><use transform="translate(33 34)" xlink:href="#3"/><use transform="translate(33 29.5)" xlink:href="#2"/><path d="m0 0c-.423 0-.8.266-.942.664l-5 14c-.109.306-.063.646.125.912.187.266.492.424.817.424h12c.4 0 .762-.238.919-.606l6-14c.133-.309.101-.664-.084-.945-.186-.28-.499-.449-.835-.449h-13" fill="#ffac33" transform="translate(18 5)"/><path d="m0 0c-.336 0-.65.169-.835.449-.185.281-.217.636-.084.945l6 14c.157.368.519.606.919.606.4 0 .762-.238.919-.606l6-14c.133-.309.101-.664-.084-.945-.185-.28-.499-.449-.835-.449h-12" fill="#ffcc4d" transform="translate(7 5)"/><path d="m0 0l-2-15h4l-2 15" fill="#292f33" transform="translate(13 20)"/></g></g></svg>