<svg xmlns="http://www.w3.org/2000/svg" viewBox="0 0 47.5 47.5" enable-background="new 0 0 47.5 47.5" xmlns:xlink="http://www.w3.org/1999/xlink"><defs><clipPath id="0"><path d="m0 38h38v-38h-38v38"/></clipPath></defs><g transform="matrix(1.25 0 0-1.25 0 47.5)"><g clip-path="url(#0)"><path d="m0 0c0 0 0 2 2 2 2 0 2-2 2-2v-2c0 0 0-2-2-2-2 0-2 2-2 2v2" fill="#ffac33" transform="translate(15 35)"/><path d="m0 0c0 0 2 0 2-2 0-2-2-2-2-2h-2c0 0-2 0-2 2 0 2 2 2 2 2h2" fill="#ffac33" transform="translate(31 23)" id="1"/><use transform="translate(-26)" xlink:href="#1"/><g fill="#ffac33"><path d="m0 0c0 0 1.414-1.414 0-2.828-1.414-1.414-2.828 0-2.828 0l-1.415 1.414c0 0-1.414 1.414 0 2.829 1.415 1.414 2.829 0 2.829 0l1.414-1.415" transform="translate(8.872 30.957)"/><path d="m0 0c0 0-1.414-1.414-2.828 0-1.414 1.414 0 2.828 0 2.828l1.414 1.414c0 0 1.414 1.414 2.828 0 1.414-1.414 0-2.828 0-2.828l-1.414-1.414" transform="translate(27.957 28.13)"/><path d="m0 0c0 4.971-4.03 9-9 9-4.971 0-9-4.03-9-9 0-4.97 4.03-9 9-9 4.971 0 9 4.03 9 9" transform="translate(26 21)"/></g><path d="m0 0c-.825 0-1.62-.125-2.369-.357-.887 2.535-3.293 4.357-6.131 4.357-3.044 0-5.592-2.096-6.299-4.921-.754.57-1.682.921-2.701.921-2.485 0-4.5-2.02-4.5-4.5 0-.604.123-1.178.339-1.704-.429.119-.872.204-1.339.204-2.762 0-5-2.238-5-5 0-2.762 2.238-5 5-5h23c4.418 0 8 3.581 8 8 0 4.418-3.582 8-8 8" fill="#b4c3cc" transform="translate(29 17)"/></g></g></svg>