<svg xmlns="http://www.w3.org/2000/svg" viewBox="0 0 47.5 47.5" enable-background="new 0 0 47.5 47.5"><defs><clipPath id="0"><path d="m0 38h38v-38h-38v38"/></clipPath></defs><g transform="matrix(1.25 0 0-1.25 0 47.5)"><g clip-path="url(#0)"><path d="m0 0c0-2.209-1.791-4-4-4h-28c-2.209 0-4 1.791-4 4v28c0 2.209 1.791 4 4 4h28c2.209 0 4-1.791 4-4v-28" fill="#5c913b" transform="translate(37 5)"/><g fill="#fff"><path d="m0 0h-22c-.829 0-1.5.672-1.5 1.5 0 .828.671 1.5 1.5 1.5h22c.828 0 1.5-.672 1.5-1.5 0-.828-.672-1.5-1.5-1.5" transform="translate(30 7)"/><path d="m0 0h-8c-.63 0-1.192.395-1.408.986-.216.593-.038 1.257.443 1.662 1.242 1.045 4.464 4.346 4.464 7.04 0 4.186-3.305 6.687-6.5 6.687-3.195 0-6.5-2.478-6.5-6.625 0-2.699 3.23-6.05 4.474-7.108.478-.408.651-1.071.434-1.661-.218-.588-.779-.981-1.407-.981h-8c-.829 0-1.5.672-1.5 1.5 0 .828.671 1.5 1.5 1.5h4.465c-1.451 1.774-2.966 4.23-2.966 6.75 0 6.03 4.83 9.625 9.5 9.625 4.568 0 9.5-3.703 9.5-9.687 0-2.507-1.496-4.932-2.94-6.688h4.441c.828 0 1.5-.672 1.5-1.5 0-.828-.672-1.5-1.5-1.5" transform="translate(30 12)"/></g></g></g></svg>