<svg xmlns="http://www.w3.org/2000/svg" viewBox="0 0 47.5 47.5" enable-background="new 0 0 47.5 47.5"><defs><clipPath id="0"><path d="m0 38h38v-38h-38v38"/></clipPath></defs><g transform="matrix(1.25 0 0-1.25 0 47.5)"><g clip-path="url(#0)"><path d="m0 0c0-2.209-1.791-4-4-4h-28c-2.209 0-4 1.791-4 4v28c0 2.209 1.791 4 4 4h28c2.209 0 4-1.791 4-4v-28" fill="#dd2e44" transform="translate(37 5)"/><g fill="#fff"><path d="m0 0c-1.93 0-3.5-1.57-3.5-3.5 0-1.93 1.57-3.5 3.5-3.5 1.93 0 3.5 1.57 3.5 3.5 0 1.93-1.57 3.5-3.5 3.5m0-10c-3.584 0-6.5 2.916-6.5 6.5 0 3.584 2.916 6.5 6.5 6.5 3.584 0 6.5-2.916 6.5-6.5 0-3.584-2.916-6.5-6.5-6.5" transform="translate(12.999 19.5)"/><path d="m0 0c-.654 0-1.337.114-2.028.345-1.655.551-2.784 1.78-3.18 3.46-.64 2.71.737 6.167 3.594 9.02 1.911 1.911 2.75 4.625 1.993 6.451-.681 1.643-2.514 1.988-3.932 1.988-2.173 0-4.5-1.407-4.5-3.5 0-1.822.388-2.813.799-3.863.618-1.581 1.257-3.216.124-6.612-.262-.784-1.111-1.211-1.897-.948-.786.261-1.211 1.111-.949 1.897.789 2.366.465 3.196-.072 4.571-.448 1.144-1.01 2.568-1.01 4.955 0 4.01 3.893 6.5 7.5 6.5 4.449 0 6.11-2.406 6.703-3.839 1.221-2.947.134-6.944-2.643-9.722-2.382-2.382-3.12-4.837-2.795-6.213.157-.667.541-1.081 1.209-1.304.91-.304 1.701-.244 2.285.178.456.329.74.865.74 1.4 0 .828.672 1.5 1.5 1.5.828 0 1.5-.672 1.5-1.5 0-1.504-.742-2.938-1.986-3.834-.859-.62-1.873-.934-2.96-.934" transform="translate(26.553 7.232)"/></g></g></g></svg>