<svg xmlns="http://www.w3.org/2000/svg" viewBox="0 0 47.5 47.5" enable-background="new 0 0 47.5 47.5"><defs><clipPath id="0"><path d="m0 38h38v-38h-38v38"/></clipPath></defs><g transform="matrix(1.25 0 0-1.25 0 47.5)"><g clip-path="url(#0)"><path d="m0 0c0-2.209-1.791-4-4-4h-28c-2.209 0-4 1.791-4 4v28c0 2.209 1.791 4 4 4h28c2.209 0 4-1.791 4-4v-28" fill="#f4900c" transform="translate(37 5)"/><g fill="#fff"><path d="m0 0c-1.466.345-2.971-.292-4.02-1.269-.595.751-1.313 1.113-1.976 1.269-1.46.345-2.959-.286-4.01-1.257-1.016 1.347-2.328 1.466-2.72 1.466-.829 0-1.5-.671-1.5-1.5 0-.829.671-1.5 1.5-1.5.155 0 1-.646 1-3.5v-11c0-.828.671-1.5 1.5-1.5.828 0 1.5.672 1.5 1.5v11c0 .669.231 2.108.341 2.329.296.591 1.217 1.157 1.702 1.042.46-.108.957-1.21.957-3.371v-11c0-.828.671-1.5 1.5-1.5.828 0 1.5.672 1.5 1.5v11c0 .668.232 2.11.341 2.329.296.591 1.225 1.157 1.702 1.042.46-.108.957-1.21.957-3.371v-9c0-.828.671-1.5 1.5-1.5.828 0 1.5.672 1.5 1.5v9c0 4.562-1.777 5.939-3.268 6.291" transform="translate(20.732 31.29)"/><path d="m0 0c-.896-.629-2.152-1.885-2.882-4.239-.377-1.22-.182-2.698.28-4.164 1.213.951 2.21 2.06 2.587 3.276.729 2.354.402 4.098.015 5.127m-.582-16.919c-.452 0-.899.204-1.194.592-.1.13-1.151 1.528-2.189 3.512-1.976-1.051-3.634-1.611-3.788-1.663-.787-.259-1.635.165-1.895.952-.262.785.164 1.633.95 1.896.799.267 2.126.806 3.511 1.557-.788 2.162-1.223 4.577-.56 6.72 1.696 5.48 5.769 6.744 5.942 6.795l.959.284.631-.776c.113-.139 2.762-3.484 1.066-8.964-.663-2.144-2.389-3.891-4.261-5.231.72-1.402 1.511-2.595 2.02-3.266.502-.659.374-1.6-.285-2.101-.271-.207-.591-.307-.907-.307" transform="translate(26.892 19.616)"/></g></g></g></svg>