<svg xmlns="http://www.w3.org/2000/svg" viewBox="0 0 47.5 47.5" enable-background="new 0 0 47.5 47.5" xmlns:xlink="http://www.w3.org/1999/xlink"><defs><clipPath id="0"><path d="m0 38h38v-38h-38v38"/></clipPath></defs><g transform="matrix(1.25 0 0-1.25 0 47.5)"><g clip-path="url(#0)"><path d="m0 0c0 0 0 2 2 2 2 0 2-2 2-2v-2c0 0 0-2-2-2-2 0-2 2-2 2v2" fill="#ffac33" transform="translate(17 35)" id="1"/><path d="m0 0c0 0 2 0 2-2 0-2-2-2-2-2h-2c0 0-2 0-2 2 0 2 2 2 2 2h2" fill="#ffac33" transform="translate(35 21)" id="2"/><use transform="translate(-30)" xlink:href="#2"/><g fill="#ffac33"><path d="m0 0c0 0 1.414-1.414 0-2.828-1.414-1.414-2.828 0-2.828 0l-1.415 1.414c0 0-1.414 1.414 0 2.829 1.415 1.414 2.829 0 2.829 0l1.414-1.415" transform="translate(10.121 29.707)"/><path d="m0 0c0 0 1.414-1.414 0-2.828-1.414-1.414-2.828 0-2.828 0l-1.414 1.414c0 0-1.414 1.414 0 2.828 1.414 1.414 2.828 0 2.828 0l1.414-1.414" transform="translate(31.12 8.707)"/></g><path d="m0 0c0 0-1.414-1.414-2.828 0-1.414 1.414 0 2.828 0 2.828l1.414 1.414c0 0 1.414 1.414 2.828 0 1.414-1.414 0-2.828 0-2.828l-1.414-1.414" fill="#ffac33" transform="translate(30.708 26.879)" id="3"/><use transform="translate(-21-21)" xlink:href="#3"/><use transform="translate(0-30)" xlink:href="#1"/><path d="m0 0c0 5.523-4.478 10-10 10-5.523 0-10-4.477-10-10 0-5.522 4.477-10 10-10 5.522 0 10 4.478 10 10" fill="#ffac33" transform="translate(29 19)"/></g></g></svg>