<svg xmlns="http://www.w3.org/2000/svg" viewBox="0 0 47.5 47.5" enable-background="new 0 0 47.5 47.5"><defs><clipPath id="0"><path d="m0 38h38v-38h-38v38"/></clipPath></defs><g transform="matrix(1.25 0 0-1.25 0 47.5)"><g clip-path="url(#0)"><path d="m0 0c-1.842 0-2.654 1.338-1.806 2.973l15.609 30.05c.848 1.635 2.238 1.635 3.087 0l15.609-30.05c.85-1.635.037-2.973-1.806-2.973h-30.693" fill="#ffcc4d" transform="translate(3.653 2)"/><path d="m0 0c0 1.302.961 2.108 2.232 2.108 1.241 0 2.233-.837 2.233-2.108v-11.938c0-1.271-.992-2.108-2.233-2.108-1.271 0-2.232.807-2.232 2.108v11.938m-.187-18.293c0 1.333 1.086 2.418 2.419 2.418 1.333 0 2.419-1.085 2.419-2.418 0-1.334-1.086-2.419-2.419-2.419-1.333 0-2.419 1.085-2.419 2.419" fill="#231f20" transform="translate(16.769 26.34)"/></g></g></svg>