<svg xmlns="http://www.w3.org/2000/svg" viewBox="0 0 47.5 47.5" enable-background="new 0 0 47.5 47.5"><defs><clipPath id="0"><path d="m0 38h38v-38h-38v38"/></clipPath></defs><g transform="matrix(1.25 0 0-1.25 0 47.5)"><g clip-path="url(#0)"><path d="m0 0c0 8.88-14.799 20.14-14.799 20.14 0 0-14.799-11.258-14.799-20.14 0-6.946 8.175-10.172 12.766-5.173-.335-4.179-4.72-7.491-8.967-7.491h.5c-.828 0-1.5-.672-1.5-1.5 0-.828.672-1.5 1.5-1.5h21c.828 0 1.5.672 1.5 1.5 0 .828-.672 1.5-1.5 1.5h.5c-4.246 0-8.632 3.312-8.967 7.491 4.591-4.999 12.766-1.773 12.766 5.173" transform="translate(33.799 16.664)"/></g></g></svg>