<svg xmlns="http://www.w3.org/2000/svg" viewBox="0 0 47.5 47.5" enable-background="new 0 0 47.5 47.5"><defs><clipPath id="0"><path d="m0 38h38v-38h-38v38"/></clipPath></defs><g transform="matrix(1.25 0 0-1.25 0 47.5)"><g clip-path="url(#0)"><path d="m0 0c0-2.209-1.791-4-4-4h-28c-2.209 0-4 1.791-4 4v28c0 2.209 1.791 4 4 4h28c2.209 0 4-1.791 4-4v-28" fill="#f4900c" transform="translate(37 5)"/><g fill="#fff" transform="translate(19 21.5)"><path d="m0 0c-3.03 0-5.5-2.467-5.5-5.5 0-3.03 2.467-5.5 5.5-5.5 3.03 0 5.5 2.468 5.5 5.5 0 3.03-2.468 5.5-5.5 5.5m0-14c-4.687 0-8.5 3.813-8.5 8.5 0 4.687 3.813 8.5 8.5 8.5 4.687 0 8.5-3.813 8.5-8.5 0-4.687-3.813-8.5-8.5-8.5"/><path d="m0 0c-5.109 0-7.58 2.79-8.131 3.507-.481.45-1.816 1.493-2.869 1.493-1.297 0-1.94-.563-1.967-.587-.603-.543-1.547-.519-2.106.07-.559.59-.562 1.503.012 2.078.147.147 1.513 1.439 4.061 1.439 2.548 0 4.811-2.189 5.061-2.439.069-.07.132-.147.187-.229.057-.081 1.69-2.332 5.752-2.332 4.083 0 5.736 2.309 5.752 2.332.055.082.117.159.187.229.25.25 2.513 2.439 5.061 2.439 2.548 0 3.913-1.292 4.061-1.439.585-.586.585-1.536 0-2.122-.586-.585-1.536-.585-2.122 0-.001 0-.644.561-1.939.561-1.052 0-2.384-1.04-2.869-1.494-.552-.717-3.02-3.506-8.131-3.506"/></g></g></g></svg>