<svg xmlns="http://www.w3.org/2000/svg" viewBox="0 0 47.5 47.5" enable-background="new 0 0 47.5 47.5"><defs><clipPath id="0"><path d="m0 38h38v-38h-38v38"/></clipPath></defs><g transform="matrix(1.25 0 0-1.25 0 47.5)"><g clip-path="url(#0)"><path d="m0 0c-.348 0-.685.181-.869.504l-4.235 6.975c-.275.48-.167 1.08.312 1.354l4.958 3c.156.09.496.167.664.167.348 0 .672-.198.857-.521l3.107-5.122.164-2.232c.274-.479-.958-1.184-1.437-1.458l-3.03-2.535c-.156-.09-.327-.132-.495-.132" fill="#3e721d" transform="translate(31 8)"/><g fill="#77b255"><path d="m0 0c-.553 0-1 .447-1 1v6c0 .553.447 1 1 1h10c1.85 0 1.55 1.781 1.55 1.781 0 0 .327-.561.375-.651.327-.614.544-1.552.034-2.505l-3.089-6.122c-.145-.289-.491-.503-.87-.503h-8" transform="translate(24 5)"/><path d="m0 0c-.26 0-.516.102-.707.293l-6 6c-.391.391-.391 1.023 0 1.414l6 6c.191.191.447.293.707.293.129 0 .259-.024.383-.076.374-.154.617-.52.617-.924v-12c0-.404-.243-.77-.617-.924-.124-.052-.254-.076-.383-.076" transform="translate(23 2)"/></g><path d="m0 0c.158-.31.15-.692-.054-1l-4.292-6.94c-.303-.463-.886-.639-1.348-.336l-4.925 3.054c-.15.099-.373.367-.449.517-.159.309-.129.688.075.999l3.152 5.094 1.914 1.159c.303.464 1.49-.315 1.953-.618l3.631-1.545c.152-.098.267-.232.343-.38" fill="#3e721d" transform="translate(21.593 33.701)"/><g fill="#77b255"><path d="m0 0c.251-.493.057-1.094-.437-1.346l-5.346-2.724c-.492-.25-1.094-.055-1.344.437l-4.541 8.91c-.84 1.649-2.291.573-2.291.573 0 0 .352.546.41.629.399.57 1.135 1.189 2.216 1.167l6.857.029c.325 0 .671-.209.844-.547l3.632-7.128" transform="translate(27.444 28.825)"/><path d="m0 0c.118-.231.144-.505.06-.762l-2.622-8.07c-.169-.525-.734-.813-1.259-.642l-8.07 2.622c-.258.083-.464.265-.583.497-.058.114-.095.241-.106.376-.032.403.184.785.543.969l10.692 5.448c.361.184.795.134 1.104-.13.101-.086.182-.192.241-.307" transform="translate(30.571 29.3)"/></g><path d="m0 0c.181.297.51.49.882.479l8.16-.004c.553-.017 1.01-.42.995-.972l-.014-5.795c-.005-.18-.116-.512-.203-.654-.18-.297-.518-.472-.89-.461l-5.991.008-1.993 1.018c-.551.017-.512 1.435-.498 1.986l-.593 3.904c.004.179.057.347.145.491" fill="#3e721d" transform="translate(4.376 12.458)"/><g fill="#77b255"><path d="m0 0c.287.472.902.622 1.374.334l5.126-3.118c.472-.287.622-.902.334-1.374l-5.197-8.543c-.961-1.58.717-2.25.717-2.25 0 0-.65.013-.752.019-.696.038-1.609.341-2.159 1.271l-3.624 5.821c-.172.276-.174.682.023 1.01l4.158 6.834" transform="translate(5.451 19.998)"/><path d="m0 0c.136.224.355.388.618.454l8.245 2c.536.132 1.077-.196 1.208-.734l2.01-8.244c.064-.264.018-.534-.118-.757-.066-.109-.155-.208-.263-.288-.326-.238-.764-.256-1.11-.046l-10.252 6.236c-.345.212-.531.61-.469 1.01.021.133.067.255.134.365" transform="translate(3.407 22.411)"/></g></g></g></svg>