<svg xmlns="http://www.w3.org/2000/svg" viewBox="0 0 47.5 47.5" enable-background="new 0 0 47.5 47.5" xmlns:xlink="http://www.w3.org/1999/xlink"><defs><clipPath id="0"><path d="m0 38h38v-38h-38v38"/></clipPath></defs><g transform="matrix(1.25 0 0-1.25 0 47.5)"><g clip-path="url(#0)"><path d="m0 0c0 3.038-3 7.5-18 7.5-15 0-18-4.462-18-7.5 0-.045.019-.076.022-.119-.012-.196-.022-.402-.022-.631 0-2.624 2.239-3.75 5-3.75 2.761 0 5 1.126 5 3.75 0 .218-.021.412-.051.597 2.425.351 5.154.653 8.05.653 2.897 0 5.626-.302 8.05-.653-.03-.185-.051-.379-.051-.597 0-2.624 2.238-3.75 5-3.75 2.762 0 5 1.126 5 3.75 0 .225-.009.429-.024.621.004.046.024.08.024.129" fill="#be1931" transform="translate(37 25.5)"/><path d="m0 0c-.481 1.031-2.31 4.189-3.968 7.01-1.557 2.647-3.966 4.993-5.966 4.993v2c0 1.104-.895 2-2 2-1.104 0-2-.896-2-2v-2h-6v2c0 1.104-.895 2-2 2-1.104 0-2-.896-2-2v-2c-2 0-4.41-2.351-5.969-5-1.658-2.815-3.483-5.97-3.964-7-.579-1.239-1.067-2-1.067-4 0-2 1.791-5 4-5h28c2.209 0 4 3 4 5 0 2-.448 2.676-1.066 4" fill="#dd2e44" transform="translate(35.934 14)"/><g fill="#fff"><path d="m0 0c0-.452-.916-.818-2.046-.818-1.13 0-2.045.366-2.045.818 0 .452.915.818 2.045.818 1.13 0 2.046-.366 2.046-.818" transform="translate(21.05 22.18)"/><path d="m0 0c0-.452-.916-.818-2.045-.818-1.13 0-2.046.366-2.046.818 0 .452.916.818 2.046.818 1.129 0 2.045-.366 2.045-.818" transform="translate(16.14 22.18)"/><path d="m0 0c0-.452-.915-.818-2.045-.818-1.13 0-2.046.366-2.046.818 0 .452.916.818 2.046.818 1.13 0 2.045-.366 2.045-.818" transform="translate(25.954 22.18)"/></g><path d="m0 0c0-.679-1.099-1.228-2.454-1.228-1.356 0-2.455.549-2.455 1.228 0 .677 1.099 1.227 2.455 1.227 1.355 0 2.454-.55 2.454-1.227" fill="#fff" transform="translate(21.454 19.318)" id="1"/><path d="m0 0c0-.679-1.1-1.228-2.454-1.228-1.356 0-2.455.549-2.455 1.228 0 .677 1.099 1.227 2.455 1.227 1.354 0 2.454-.55 2.454-1.227" fill="#fff" transform="translate(27.18 19.318)"/><use transform="translate(-5.727)" xlink:href="#1"/><g fill="#fff"><path d="m0 0c0-.905-1.466-1.637-3.272-1.637-1.808 0-3.273.732-3.273 1.637 0 .903 1.465 1.636 3.273 1.636 1.806 0 3.272-.733 3.272-1.636" transform="translate(22.273 15.637)"/><path d="m0 0c0-.905-1.467-1.637-3.273-1.637-1.807 0-3.273.732-3.273 1.637 0 .903 1.466 1.636 3.273 1.636 1.806 0 3.273-.733 3.273-1.636" transform="translate(29.637 15.637)"/><path d="m0 0c0-.905-1.466-1.637-3.273-1.637-1.807 0-3.272.732-3.272 1.637 0 .903 1.465 1.636 3.272 1.636 1.807 0 3.273-.733 3.273-1.636" transform="translate(14.909 15.637)"/></g></g></g></svg>