<svg xmlns="http://www.w3.org/2000/svg" viewBox="0 0 47.5 47.5" enable-background="new 0 0 47.5 47.5"><defs><clipPath id="0"><path d="m0 38h38v-38h-38v38"/></clipPath></defs><g transform="matrix(1.25 0 0-1.25 0 47.5)"><g clip-path="url(#0)"><path d="m0 0c-.218 0-.437.071-.619.214-.376.297-.489.817-.27 1.243l6.965 13.543h-12.08c-.418 0-.792.26-.937.651-.146.392-.033.832.283 1.106l22 19c.187.161.42.243.653.243.218 0 .437-.071.618-.214.377-.296.49-.818.272-1.244l-6.965-13.542h12.07c.418 0 .792-.26.937-.651.146-.392.033-.833-.284-1.106l-21.999-19c-.188-.162-.421-.243-.654-.243" fill="#f4900c" transform="translate(11 1)"/></g></g></svg>