<svg xmlns="http://www.w3.org/2000/svg" viewBox="0 0 47.5 47.5" enable-background="new 0 0 47.5 47.5"><defs><clipPath id="0"><path d="m0 38h38v-38h-38v38"/></clipPath><clipPath id="1"><path d="m1.193 5c0-2 1.807-4 3.807-4h28c2 0 3.731 2 3.731 4 0 4.355-4.634 11-17.731 11-13.492 0-17.807-6.459-17.807-11"/></clipPath></defs><g transform="matrix(1.25 0 0-1.25 0 47.5)"><g clip-path="url(#0)"><path d="m0 0h28c2 0 3.73 2 3.73 4 0 4.355-4.633 11-17.73 11-13.492 0-17.807-6.459-17.807-11 0-2 1.807-4 3.807-4" fill="#77b255" transform="translate(5 1)"/></g><g clip-path="url(#1)"><path d="m0 0c1.125 3.75 9.75 7.666 14.333 7.625 5-.045 2.625-.792 1.625-.792-1 0-11.791-2.625-14-7.5-1 0-1.958.667-1.958.667" fill="#5c913b" transform="translate(12.292 7.5)"/></g><g clip-path="url(#0)"><path d="m0 0c0-1.381-2.91-2.5-6.5-2.5-3.59 0-6.5 1.119-6.5 2.5 0 1.381 2.91 2.5 6.5 2.5 3.59 0 6.5-1.119 6.5-2.5" fill="#292f33" transform="translate(20 6.5)"/><path d="m0 0v-26c0-.553.448-.844 1-.844.552 0 1 .291 1 .844v26h-2" fill="#ffac33" transform="translate(11 33)"/><path d="m0 0c0 2.2 1.695 3.395 3.767 2.655l9.466-3.381c2.072-.74 2.072-1.951 0-2.691l-9.466-3.381c-2.072-.74-3.767.455-3.767 2.655v4.143" fill="#dd2e44" transform="translate(11 34)"/></g></g></svg>