<svg xmlns="http://www.w3.org/2000/svg" viewBox="0 0 47.5 47.5" enable-background="new 0 0 47.5 47.5"><defs><clipPath id="0"><path d="m0 38h38v-38h-38v38"/></clipPath></defs><g transform="matrix(1.25 0 0-1.25 0 47.5)"><g clip-path="url(#0)"><path d="m0 0c0-2.209-1.791-4-4-4h-28c-2.209 0-4 1.791-4 4v28c0 2.209 1.791 4 4 4h28c2.209 0 4-1.791 4-4v-28" fill="#5c913b" transform="translate(37 5)"/><g fill="#fff"><path d="m0 0c-.21 0-.421.044-.62.134-.536.243-.88.778-.88 1.366v3.694l-5.512-4.823c-.443-.387-1.072-.48-1.608-.237-.536.243-.88.778-.88 1.366v3.548l-4.977-4.645c-.605-.565-1.555-.532-2.12.074-.565.605-.532 1.554.074 2.12l7.5 7c.437.406 1.073.517 1.621.278.548-.237.902-.778.902-1.375v-3.694l5.513 4.823c.442.387 1.071.48 1.607.237.536-.243.88-.778.88-1.366v-3.694l5.513 4.823c.442.387 1.07.48 1.607.237.536-.243.88-.778.88-1.366v-7c0-.829-.672-1.5-1.5-1.5-.828 0-1.5.671-1.5 1.5v3.694l-5.513-4.823c-.278-.244-.631-.371-.987-.371" transform="translate(22.5 20.5)"/><path d="m0 0c-.21 0-.421.044-.62.134-.536.243-.88.777-.88 1.366v3.694l-5.512-4.823c-.443-.387-1.072-.478-1.608-.237-.536.243-.88.777-.88 1.366v3.548l-4.977-4.645c-.605-.564-1.555-.532-2.12.074-.565.605-.532 1.554.074 2.12l7.5 7c.437.407 1.073.515 1.621.279.548-.238.902-.778.902-1.376v-3.694l5.513 4.823c.442.388 1.071.479 1.607.237.536-.243.88-.777.88-1.366v-3.694l5.513 4.823c.442.388 1.07.479 1.607.237.536-.243.88-.777.88-1.366v-7c0-.828-.672-1.5-1.5-1.5-.828 0-1.5.672-1.5 1.5v3.694l-5.513-4.823c-.278-.244-.631-.371-.987-.371" transform="translate(22.5 7.5)"/></g></g></g></svg>