<svg xmlns="http://www.w3.org/2000/svg" viewBox="0 0 47.5 47.5" enable-background="new 0 0 47.5 47.5"><defs><clipPath id="0"><path d="m0 38h38v-38h-38v38"/></clipPath></defs><g transform="matrix(1.25 0 0-1.25 0 47.5)"><g clip-path="url(#0)"><path d="m0 0c0-9.941-8.06-18-18-18-9.941 0-18 8.06-18 18 0 9.941 8.06 18 18 18 9.941 0 18-8.06 18-18" fill="#be1931" transform="translate(37 19)"/><path d="m0 0c0-1.104-.896-2-2-2h-24c-1.104 0-2 .896-2 2v4c0 1.104.896 2 2 2h24c1.104 0 2-.896 2-2v-4" fill="#fff" transform="translate(33 17)"/></g></g></svg>