<svg xmlns="http://www.w3.org/2000/svg" viewBox="0 0 47.5 47.5" enable-background="new 0 0 47.5 47.5"><defs><clipPath id="0"><path d="m0 38h38v-38h-38v38"/></clipPath></defs><g transform="matrix(1.25 0 0-1.25 0 47.5)"><g clip-path="url(#0)"><path d="m0 0c0-.553-.447-1-1-1-.552 0-1 .447-1 1v25c0 .552.448 1 1 1 .553 0 1-.448 1-1v-25" fill="#a7a9ac" transform="translate(21 11)"/><path d="m0 0h31v-8h-22c-6 0-9 8-9 8" fill="#d1d3d4" transform="translate(4 13)"/><path d="m37 7h-36v-6h36v6" fill="#55acee"/><path d="m0 0c0 0 2 5 5 9 3 4 8 8 8 8 0 0-1-11-1-16v-1c0 0-3 1-6 1-3 0-6-1-6-1" fill="#ffac33" transform="translate(6 15)"/><path d="m0 0c0 0 6-6 9-11 2.771-4.618 4-9 4-9 0 0-3 1-6 1-3 0-6-1-6-1v1c0 9-1 19-1 19" fill="#f4900c" transform="translate(21 35)"/><path d="m0 0c-.552 0-1-.447-1-1 0-.553.448-1 1-1h33v2h-33" fill="#e6e7e8" transform="translate(3 13)"/></g></g></svg>