<svg xmlns="http://www.w3.org/2000/svg" viewBox="0 0 47.5 47.5" enable-background="new 0 0 47.5 47.5" xmlns:xlink="http://www.w3.org/1999/xlink"><defs><clipPath id="0"><path d="m0 38h38v-38h-38v38"/></clipPath></defs><g transform="matrix(1.25 0 0-1.25 0 47.5)"><g clip-path="url(#0)"><path d="m0 0c0-2.209-1.791-4-4-4h-28c-2.209 0-4 1.791-4 4v28c0 2.209 1.791 4 4 4h28c2.209 0 4-1.791 4-4v-28" fill="#3b88c3" transform="translate(37 5)"/><g fill="#fff"><path d="m0 0c-.923-.654-1.556-1.598-1.556-2.731 0-1.232 1.214-2.721 2.722-2.721 1.627 0 2.72 1.407 2.72 2.721 0 1.056-.269 1.812-.799 2.246-.969.795-2.593.6-2.609.597-.142-.029-.312-.047-.478-.112m1.166-8.01c-2.813 0-5.281 2.467-5.281 5.279 0 3.878 3.779 6.279 7.281 6.279 13.633 0 17.01-6.433 17.14-6.707.315-.632.06-1.4-.572-1.716-.626-.315-1.39-.064-1.71.559-.06.108-2.674 4.676-12.747 5.247.773-.913 1.164-2.141 1.164-3.662 0-2.539-2.02-5.279-5.279-5.279" transform="translate(10.835 27.731)"/><path d="m0 0c-1.628 0-2.721-1.407-2.721-2.721 0-1.055.269-1.811.799-2.247.97-.794 2.673-.599 2.689-.596.141.029.234.062.399.112.923.653 1.556 1.598 1.556 2.731 0 1.233-1.214 2.721-2.722 2.721m-2-9c-13.634 0-17.01 6.434-17.14 6.707-.316.632-.06 1.4.572 1.717.627.312 1.39.062 1.71-.56.059-.108 2.674-4.676 12.746-5.247-.773.913-1.163 2.141-1.163 3.662 0 2.539 2.02 5.28 5.279 5.28 2.813 0 5.28-2.467 5.28-5.28 0-3.879-3.779-6.279-7.28-6.279" transform="translate(25.999 15.721)"/></g><path d="m0 0c0 1.68-1.361 3.041-3.041 3.041-1.68 0-3.041-1.361-3.041-3.041 0-1.68 1.361-3.041 3.041-3.041 1.68 0 3.041 1.361 3.041 3.041" fill="#3b88c3" transform="translate(15 25.01)" id="1"/><use transform="translate(14-12)" xlink:href="#1"/></g></g></svg>