<svg xmlns="http://www.w3.org/2000/svg" viewBox="0 0 47.5 47.5" enable-background="new 0 0 47.5 47.5"><defs><clipPath id="0"><path d="m0 38h38v-38h-38v38"/></clipPath></defs><g transform="matrix(1.25 0 0-1.25 0 47.5)"><g clip-path="url(#0)" fill="#dd2e44"><path d="m0 0c.928-1.04 1.462-2.199 1.462-3.428 0-4.418-6.715-8-15-8-8.284 0-15 3.582-15 8 0 1.229.535 2.388 1.462 3.428-2.163-1.51-3.462-3.387-3.462-5.428 0-4.97 7.611-9 17-9 9.389 0 17 4.03 17 9 0 2.041-1.299 3.918-3.462 5.428" transform="translate(32.538 15.428)"/><path d="m0 0c-.55 0-1.08.304-1.343.829-.37.741-.07 1.642.671 2.01.12.062 3.171 1.692 3.171 5.658 0 2.127-1.164 3.634-2.396 5.229-1.28 1.657-2.604 3.371-2.604 5.771 0 4.569 2.34 6.961 2.439 7.06.586.585 1.536.585 2.122 0 .582-.582.586-1.524.01-2.111-.085-.09-1.571-1.712-1.571-4.95 0-1.376.917-2.563 1.978-3.937 1.347-1.743 3.02-3.912 3.02-7.06 0-5.859-4.632-8.243-4.829-8.342-.215-.107-.444-.158-.67-.158" transform="translate(10 9.5)"/><path d="m0 0c-.55 0-1.08.304-1.343.829-.37.741-.07 1.642.671 2.01.12.062 3.171 1.692 3.171 5.658 0 2.127-1.164 3.634-2.396 5.229-1.28 1.657-2.604 3.371-2.604 5.771 0 4.569 2.34 6.961 2.439 7.06.586.585 1.536.585 2.122 0 .582-.582.586-1.524.01-2.111-.085-.09-1.571-1.712-1.571-4.95 0-1.376.917-2.563 1.978-3.937 1.346-1.743 3.02-3.912 3.02-7.06 0-5.859-4.632-8.243-4.829-8.342-.215-.107-.444-.158-.67-.158" transform="translate(17 9.5)"/><path d="m0 0c-.55 0-1.08.304-1.343.829-.37.741-.07 1.642.671 2.01.12.062 3.171 1.692 3.171 5.658 0 2.127-1.164 3.634-2.395 5.229-1.281 1.657-2.605 3.371-2.605 5.771 0 4.569 2.34 6.961 2.439 7.06.586.585 1.536.585 2.122 0 .582-.582.586-1.524.01-2.111-.085-.09-1.571-1.712-1.571-4.95 0-1.376.917-2.563 1.979-3.937 1.345-1.743 3.02-3.912 3.02-7.06 0-5.859-4.632-8.243-4.829-8.342-.216-.107-.444-.158-.67-.158" transform="translate(24 9.5)"/></g></g></svg>