<svg xmlns="http://www.w3.org/2000/svg" viewBox="0 0 47.5 47.5" enable-background="new 0 0 47.5 47.5"><defs><clipPath id="0"><path d="m0 38h38v-38h-38v38"/></clipPath></defs><g transform="matrix(1.25 0 0-1.25 0 47.5)"><g clip-path="url(#0)"><path d="m0 0c0-2.209-1.791-4-4-4h-28c-2.209 0-4 1.791-4 4v28c0 2.209 1.791 4 4 4h28c2.209 0 4-1.791 4-4v-28" fill="#5c913b" transform="translate(37 5)"/><g fill="#fff"><path d="m0 0c-.157 0-.317.024-.475.077-.019.006-2.974.923-10.525.923-7.551 0-10.505-.917-10.535-.926-.785-.253-1.631.178-1.886.962-.257.784.164 1.626.947 1.887.132.044 3.324 1.077 11.474 1.077 8.149 0 11.343-1.033 11.475-1.077.786-.262 1.21-1.111.948-1.898-.209-.628-.795-1.025-1.423-1.025" transform="translate(29.999 6.5)"/><path d="m16 9h-3v20h3v-20"/><path d="m25 9h-3v20h3v-20"/><path d="m0 0c-8.15 0-11.342 1.033-11.474 1.077-.786.262-1.211 1.111-.949 1.897.261.784 1.104 1.208 1.889.952.046-.015 3.01-.926 10.534-.926 7.551 0 10.506.917 10.534.926.785.25 1.632-.178 1.888-.962.256-.784-.165-1.626-.947-1.887-.132-.044-3.326-1.077-11.475-1.077" transform="translate(18.999 27.501)"/></g></g></g></svg>