<svg xmlns="http://www.w3.org/2000/svg" viewBox="0 0 47.5 47.5" enable-background="new 0 0 47.5 47.5" xmlns:xlink="http://www.w3.org/1999/xlink"><defs><path id="1" d="m0 0c0-.553-.447-1-1-1-.552 0-1 .447-1 1 0 .553.448 1 1 1 .553 0 1-.447 1-1"/><clipPath id="0"><path d="m0 38h38v-38h-38v38"/></clipPath></defs><g transform="matrix(1.25 0 0-1.25 0 47.5)"><g clip-path="url(#0)"><g fill="#f1f2f2"><path d="m0 0c0 5.523 4.477 10 10 10 5.522 0 10-4.477 10-10 0-5.522-4.478-10-10-10-5.523 0-10 4.478-10 10" transform="translate(9 11)"/><path d="m0 0c0 3.314 2.686 6 6 6 3.313 0 6-2.686 6-6 0-3.314-2.687-6-6-6-3.314 0-6 2.686-6 6" transform="translate(13 26)"/></g><path d="m0 0c0-1.104-.896-2-2-2h-6c-1.104 0-2 .896-2 2v4c0 1.104.896 2 2 2h6c1.104 0 2-.896 2-2v-4" fill="#414042" transform="translate(24 31)"/><path d="m0 0c0-.552-.447-1-1-1h-12c-.552 0-1 .448-1 1 0 .552.448 1 1 1h12c.553 0 1-.448 1-1" fill="#231f20" transform="translate(26 30)"/><path d="m0 0h-9c-.829 0-1.5-.671-1.5-1.5 0-.652.419-1.202 1-1.408v-7.092c0-.553.448-1 1-1h1c.552 0 1 .447 1 1v7h6.5c.828 0 1.5.671 1.5 1.5 0 .829-.672 1.5-1.5 1.5" fill="#dd2e44" transform="translate(23.5 22)"/><g fill="#414042"><use transform="translate(20 13)" xlink:href="#1"/><use transform="translate(20 8)" xlink:href="#1"/></g><use fill="#f4900c" transform="translate(20 25)" xlink:href="#1"/><g fill="#414042"><path d="m0 0c0-.553-.448-1-1-1-.552 0-1 .447-1 1 0 .553.448 1 1 1 .552 0 1-.447 1-1" transform="translate(17 27)"/><path d="m0 0c0-.553-.447-1-1-1-.553 0-1 .447-1 1 0 .553.447 1 1 1 .553 0 1-.447 1-1" transform="translate(23 27)"/></g><g fill="#ffac33"><path d="m0 0l-3.452 1.479-.547 2.866c-.104.542-.624.896-1.17.795-.542-.104-.898-.628-.795-1.17l.294-1.54-1.33.57c-.508.218-1.096-.018-1.313-.525-.218-.508.018-1.096.525-1.313l.743-.318-1.056-1.056c-.391-.391-.391-1.023 0-1.414.195-.195.451-.293.707-.293.256 0 .512.098.707.293l1.621 1.621 4.278-1.833c.128-.056.262-.081.393-.081.389 0 .758.227.92.607.218.507-.018 1.094-.525 1.312" transform="translate(11.394 16.919)"/><path d="m0 0l-1.465.488.856.856c.39.39.39 1.023 0 1.414-.391.39-1.024.39-1.414 0l-.751-.752-.573 2.287c-.133.536-.677.866-1.212.728-.536-.134-.862-.677-.727-1.213l.862-3.45-3.599-3.6c-.391-.39-.391-1.023 0-1.414.195-.195.451-.293.707-.293.255 0 .511.098.707.293l3.563 3.563 2.413-.804c.106-.036.212-.052.317-.052.419 0 .808.265.948.684.175.524-.109 1.09-.632 1.265" transform="translate(34.32 19.949)"/></g></g></g></svg>