<svg xmlns="http://www.w3.org/2000/svg" viewBox="0 0 47.5 47.5" enable-background="new 0 0 47.5 47.5"><defs><clipPath id="0"><path d="m0 38h38v-38h-38v38"/></clipPath><clipPath id="1"><path d="m1 19c0-9.941 8.06-18 18-18 9.94 0 18 8.06 18 18 0 9.941-8.06 18-18 18-9.941 0-18-8.06-18-18"/></clipPath></defs><g transform="matrix(1.25 0 0-1.25 0 47.5)"><g clip-path="url(#0)"><path d="m0 0c-9.941 0-18 8.06-18 18 0 9.941 8.06 18 18 18 9.941 0 18-8.06 18-18 0-9.941-8.06-18-18-18" fill="#e1e8ed" transform="translate(19 1)"/></g><g clip-path="url(#1)" fill="#b3bec4"><path d="m0 0c4.318 0 7 4.598 7 12 0 7.402-2.682 12-7 12-4.318 0-7-4.598-7-12 0-7.402 2.682-12 7-12m0 26c4.352 0 9-3.678 9-14 0-10.322-4.648-14-9-14-4.352 0-9 3.678-9 14 0 10.322 4.648 14 9 14" transform="translate(35 7)"/><path d="m0 0c4.317 0 7 4.598 7 12 0 7.402-2.683 12-7 12-4.317 0-7-4.598-7-12 0-7.401 2.683-12 7-12m0 26c4.351 0 9-3.678 9-14 0-10.322-4.649-14-9-14-4.351 0-9 3.678-9 14 0 10.322 4.649 14 9 14" transform="translate(3 7)"/></g><g clip-path="url(#0)" fill="#dd2e44"><path d="m0 0c-.237 0-.457.02-.651.056-.543.102-.9.625-.799 1.167.102.544.625.902 1.167.799.43-.077 2.691-.006 3.148 2.276.108.541.632.891 1.177.784.541-.108.893-.635.784-1.177-.582-2.912-3.139-3.905-4.826-3.905" transform="translate(6.092 26.836)"/><path d="m0 0c-.53 0-.972.198-.998.734-.026.551.4.911.952.937l.114-.049c1.204.055 2.45.084 3.755 2.343.275.478.886.63 1.366.352.478-.276.642-.895.365-1.373-1.852-3.206-3.984-3.089-5.394-3.153l-.112.209h-.048" transform="translate(7.812 23)"/><path d="m0 0c-.734 0-1.414.135-1.928.378-.499.237-.712.833-.475 1.332.236.5.834.711 1.332.476.829-.393 2.925-.239 3.73 1.012.299.465.918.599 1.382.301.465-.299.599-.918.301-1.382-.965-1.5-2.776-2.117-4.342-2.117" transform="translate(10 17.718)"/><path d="m0 0c-1.554 0-2.995.699-3.926 1.476-.425.353-.482.984-.128 1.409.354.425.984.48 1.408.128.194-.163 1.952-1.566 3.782-.785.507.214 1.095-.022 1.311-.531.216-.509-.022-1.095-.53-1.311-.64-.272-1.288-.386-1.917-.386" transform="translate(11.161 12.193)"/><path d="m0 0h-.028c-2.504 0-4.68 1.57-5.534 3.108-.269.483-.094 1.044.388 1.313.483.269 1.092.07 1.36-.412.484-.871 1.996-2.134 3.841-2.185.553-.015.988-.387.972-.939-.015-.543-.459-.885-.999-.885" transform="translate(10.751 7)"/><path d="m0 0c-.065 0-.131.006-.197.02-.541.108-.893.634-.784 1.176.664 3.323 3.893 4.151 5.477 3.849.543-.102.9-.624.798-1.167-.102-.542-.617-.903-1.167-.798-.425.08-2.69.007-3.148-2.276-.094-.476-.512-.804-.979-.804" transform="translate(28.19 6.813)"/><path d="m0 0c-.17 0-.342.043-.499.134-.479.276-.643.888-.366 1.366 1.852 3.206 3.984 3.304 5.394 3.369l.112.005c.539.033 1.02-.399 1.046-.951.027-.552-.399-1.021-.951-1.047l-.115-.005c-1.204-.056-2.449-.112-3.754-2.371-.185-.321-.521-.5-.867-.5" transform="translate(25.624 11.313)"/><path d="m0 0c-.186 0-.372.051-.54.159-.464.298-.599.917-.3 1.382 1.415 2.203 4.656 2.501 6.269 1.738.499-.237.713-.833.475-1.332-.235-.5-.834-.713-1.331-.476-.829.394-2.926.239-3.731-1.012-.191-.297-.513-.459-.842-.459" transform="translate(24.624 17.375)"/><path d="m0 0c-.226 0-.452.076-.64.232-.194.162-1.952 1.559-3.781.785-.509-.215-1.095.021-1.311.53-.216.508.021 1.096.53 1.311 2.219.942 4.535.001 5.844-1.09.423-.353.481-.984.128-1.408-.199-.237-.483-.36-.77-.36" transform="translate(30.25 23.313)"/><path d="m0 0c-.352 0-.692.186-.875.514-.484.872-1.996 2.123-3.841 2.174-.553.015-.987.506-.972 1.059.015.542.459 1 .999 1h.028c2.505 0 4.68-1.694 5.534-3.232.269-.484.095-1.108-.389-1.376-.153-.086-.32-.142-.484-.142" transform="translate(32.06 27.25)"/></g></g></svg>