<svg xmlns="http://www.w3.org/2000/svg" viewBox="0 0 47.5 47.5" enable-background="new 0 0 47.5 47.5"><defs><clipPath id="0"><path d="m0 38h38v-38h-38v38"/></clipPath></defs><g transform="matrix(1.25 0 0-1.25 0 47.5)"><g clip-path="url(#0)"><path d="m0 0c0-5.522-8.06-10-18-10-9.941 0-18 4.478-18 10 0 5.522 8.06 10 18 10 9.941 0 18-4.478 18-10" fill="#99aab5" transform="translate(37 11)"/><path d="m0 0c0-5.522-8.06-10-18-10-9.941 0-18 4.478-18 10 0 5.522 8.06 10 18 10 9.941 0 18-4.478 18-10" fill="#ccd6dd" transform="translate(37 13)"/><path d="m0 0c-14.958 0-17 15-17 19h34c0-2-1.958-19-17-19" fill="#f5f8fa" transform="translate(19 6)"/><path d="m0 0c-1.357.938-3.103 1.694-5.121 2.25 1.875.576 4.551.309 5.121-2.25m2.503-2.692c2.442 10.122-9.781 7.706-12.204 5.798-1.34.149-2.736.234-4.181.234-9.389 0-17-3.228-17-8.444 0-5.216 7.611-9.444 17-9.444 9.389 0 17 4.228 17 9.444 0 .862-.225 1.664-.615 2.412" fill="#ccd6dd" transform="translate(32.882 30.05)"/></g><g clip-path="url(#0)"><path d="m0 0c0-3.866-6.716-7-15-7-8.284 0-15 3.134-15 7 0 3.866 6.716 7 15 7 8.284 0 15-3.134 15-7" fill="#8a4b38" transform="translate(34 24)"/><g fill="#d99e82"><path d="m0 0c-.256 0-.512.098-.707.293-2.337 2.337-2.376 4.885-.125 8.262.739 1.109.9 2.245.478 3.377-.461 1.235-1.438 1.996-1.731 2.076-.553 0-.958.444-.958.996 0 .553.491.996 1.043.996.997 0 2.395-1.153 3.183-2.625 1.034-1.933.91-4.04-.351-5.93-1.961-2.942-1.531-4.332-.125-5.738.391-.391.391-1.023 0-1.414-.195-.195-.451-.293-.707-.293" transform="translate(21 20)"/><path d="m0 0c-.256 0-.512.098-.707.293-2.337 2.337-2.376 4.885-.125 8.262.727 1.091.894 2.082.494 2.947-.444.961-1.431 1.469-1.684 1.499-.552 0-.989.447-.989.999 0 .553.459 1 1.01 1 .997 0 2.584-.974 3.36-2.423.481-.899 1.053-2.761-.528-5.132-1.961-2.942-1.531-4.332-.125-5.738.391-.391.391-1.023 0-1.414-.195-.195-.451-.293-.707-.293" transform="translate(15 22)"/></g></g></g></svg>