<svg xmlns="http://www.w3.org/2000/svg" viewBox="0 0 47.5 47.5" enable-background="new 0 0 47.5 47.5"><defs><clipPath id="0"><path d="m0 38h38v-38h-38v38"/></clipPath></defs><g transform="matrix(1.25 0 0-1.25 0 47.5)"><g clip-path="url(#0)"><path d="m0 0c0-2.209-1.791-4-4-4h-28c-2.209 0-4 1.791-4 4v28c0 2.209 1.791 4 4 4h28c2.209 0 4-1.791 4-4v-28" fill="#3b88c3" transform="translate(37 5)"/><path d="m0 0c0 .829-.672 1.5-1.5 1.5h-3.472c.291 6.296 3.25 8.705 3.371 8.8.663.497.797 1.437.3 2.1-.497.663-1.436.796-2.1.3-.18-.135-4.243-3.296-4.568-11.2h-9.06c-.326 7.904-4.388 11.06-4.569 11.2-.657.494-1.583.362-2.083-.292-.5-.652-.376-1.591.271-2.098.132-.104 3.093-2.514 3.384-8.81h-3.47c-.829 0-1.5-.671-1.5-1.5 0-.828.671-1.5 1.5-1.5h3.397c-.535-5.524-3.161-7.691-3.309-7.809-.653-.499-.784-1.432-.29-2.091.295-.393.745-.6 1.202-.6.313 0 .628.098.898.3.173.129 3.9 3.03 4.509 10.2h9.185c.607-7.172 4.335-10.07 4.507-10.2.268-.201.582-.298.891-.298.451 0 .896.204 1.193.59.5.652.376 1.591-.271 2.098-.125.099-2.773 2.26-3.311 7.81h3.399c.828 0 1.5.672 1.5 1.5" fill="#fff" transform="translate(31.5 18.5)"/></g></g></svg>