<svg xmlns="http://www.w3.org/2000/svg" viewBox="0 0 47.5 47.5" enable-background="new 0 0 47.5 47.5"><defs><clipPath id="0"><path d="m0 38h38v-38h-38v38"/></clipPath></defs><g transform="matrix(1.25 0 0-1.25 0 47.5)"><g clip-path="url(#0)"><path d="m0 0c-4.03-2.585-7.513-6.345-7.513-10.642 0-6.05 4.6-8.312 7.5-8.312 2.9 0 7.5 2.273 7.5 8.375 0 4.269-3.467 8.01-7.487 10.579m-.013-21.954c-5.09 0-10.5 3.965-10.5 11.312 0 4.877 3.366 9.178 7.591 12.273-2.698 1.301-5.334 2.04-7.091 2.04-2.708 0-5.499-.914-5.527-.923-.789-.259-1.635.165-1.896.95-.261.786.164 1.634.949 1.896.132.044 3.268 1.077 6.474 1.077 2.695 0 6.45-1.158 10.01-3.162 3.555 2 7.3 3.162 9.989 3.162 3.207 0 6.222-1.559 6.344-1.625.781-.422 1.312-.699 1.125-1.266-.182-.551-.891-.328-1.75-.234-.029.003-2.156.391-5.687.391-1.752 0-4.411-1-7.1-2.304 4.215-3.083 7.568-7.361 7.568-12.212 0-7.389-5.41-11.375-10.5-11.375" fill="#414042" transform="translate(19.01 26.329)"/></g></g></svg>