<svg xmlns="http://www.w3.org/2000/svg" viewBox="0 0 47.5 47.5" enable-background="new 0 0 47.5 47.5" xmlns:xlink="http://www.w3.org/1999/xlink"><defs><clipPath id="0"><path d="m0 38h38v-38h-38v38"/></clipPath></defs><g transform="matrix(1.25 0 0-1.25 0 47.5)"><g clip-path="url(#0)"><path d="m0 0c-.391-.392-1.023-.392-1.414 0l-1.414 1.414c-.392.391-.392 1.024 0 1.414l2.828 2.828c.391.391 1.023.391 1.414 0l1.414-1.414c.392-.39.392-1.023 0-1.414l-2.828-2.828" fill="#66757f" transform="translate(31 13.172)" id="1"/><use transform="translate(-15 15)" xlink:href="#1"/><g fill="#55acee"><path d="m0 0c2 0 11-1 11-1 0 0 1-9 1-11 0-2-2-2-3-1-1 1-4 6-4 6 0 0-5 3-6 4-1 1-1 3 1 3" transform="translate(3 15)"/><path d="m0 0c3 .039 25-.961 25-.961 0 0 .924-22 .962-25 .038-3-2.762-4-3.862-.001-1.1 4-5.1 17-5.1 17 0 0-13.955 4.416-17 5.102-3.995.898-2.995 3.82.005 3.859" transform="translate(5 30.961)"/></g><path d="m0 0c2 2 7 3 8 2 1-1 0-6-2-8-2-2-19-18-19-18 0 0-6.5-4.5-8-3-1.5 1.5 3 8 3 8 0 0 16 17 18 19" fill="#ccd6dd" transform="translate(28 34)"/><g fill="#66757f"><path d="m0 0c0 0 .5-.5-4-5-4.5-4.5-5-4-5-4 0 0-.5.5 4 5 4.5 4.5 5 4 5 4" transform="translate(15 15)"/><path d="m0 0c1.657 0 3-1.343 3-3h.805c.114.315.195.645.195 1 0 1.657-1.343 3-3 3-.355 0-.686-.081-1-.195v-.805" transform="translate(30 33)"/></g></g></g></svg>