<svg xmlns="http://www.w3.org/2000/svg" viewBox="0 0 47.5 47.5" enable-background="new 0 0 47.5 47.5"><defs><clipPath id="0"><path d="m0 38h38v-38h-38v38"/></clipPath></defs><g transform="matrix(1.25 0 0-1.25 0 47.5)"><g clip-path="url(#0)" fill="#939598"><path d="m0 0c0-1.657-1.343-3-3-3-1.657 0-3 1.343-3 3 0 1.657 1.343 3 3 3 1.657 0 3-1.343 3-3" transform="translate(22 6)"/><path d="m0 0c0-1.657-1.344-3-3-3-1.657 0-3 1.343-3 3v19c0 1.657 1.343 3 3 3 1.656 0 3-1.343 3-3v-19" transform="translate(22 14)"/></g></g></svg>