<svg xmlns="http://www.w3.org/2000/svg" viewBox="0 0 47.5 47.5" enable-background="new 0 0 47.5 47.5"><defs><clipPath id="0"><path d="m0 38h38v-38h-38v38"/></clipPath></defs><g transform="matrix(1.25 0 0-1.25 0 47.5)"><g clip-path="url(#0)" fill="#88c9f9"><path d="m0 0v19.17l4.828 4.829c0 0 .707.707 0 1.415-.707.707-1.414 0-1.414 0l-3.414-3.415v4.586c0 0 0 1-1 1-1 0-1-1-1-1v-4.586l-3.414 3.415c0 0-.707.707-1.414 0-.707-.708 0-1.415 0-1.415l4.828-4.829v-19.17l-4.828-4.828c0 0-.707-.707 0-1.414.707-.707 1.414 0 1.414 0l3.414 3.414v-4.586c0 0 0-1 1-1 1 0 1 1 1 1v4.586l3.414-3.414c0 0 .707-.707 1.414 0 .707.707 0 1.414 0 1.414l-4.828 4.828" transform="translate(20 9.414)"/><path d="m0 0c-.259.966-1.225.707-1.225.707l-6.594-1.767-16.604 9.586-1.767 6.595c0 0-.259.966-1.225.707-.967-.259-.707-1.224-.707-1.224l1.249-4.664-3.971 2.293c0 0-.866.5-1.366-.366-.5-.866.366-1.366.366-1.366l3.971-2.293-4.663-1.249c0 0-.967-.259-.707-1.225.259-.966 1.224-.707 1.224-.707l6.596 1.767 16.604-9.586 1.766-6.596c0 0 .259-.966 1.225-.707.966.26.707 1.225.707 1.225l-1.25 4.664 3.972-2.293c0 0 .867-.5 1.367.365.5.867-.367 1.367-.367 1.367l-3.971 2.293 4.663 1.249c0 0 .966.259.707 1.225" transform="translate(35.622 16.13)"/><path d="m0 0l-4.664 1.25 3.972 2.292c0 0 .867.501.367 1.367-.501.867-1.367.366-1.367.366l-3.971-2.293 1.249 4.664c0 0 .259.965-.707 1.224-.966.259-1.225-.707-1.225-.707l-1.767-6.595-16.604-9.587-6.595 1.768c0 0-.965.259-1.224-.707-.26-.967.707-1.225.707-1.225l4.662-1.249-3.971-2.293c0 0-.865-.501-.365-1.367.5-.865 1.365-.365 1.365-.365l3.972 2.293-1.25-4.663c0 0-.259-.967.707-1.225.967-.26 1.226.706 1.226.706l1.767 6.597 16.604 9.585 6.594-1.768c0 0 .966-.258 1.225.707.258.967-.707 1.225-.707 1.225" transform="translate(34.915 23.09)"/></g></g></svg>