<svg xmlns="http://www.w3.org/2000/svg" viewBox="0 0 47.5 47.5" enable-background="new 0 0 47.5 47.5"><defs><clipPath id="0"><path d="m0 38h38v-38h-38v38"/></clipPath></defs><g transform="matrix(1.25 0 0-1.25 0 47.5)"><g clip-path="url(#0)"><path d="m0 0h-10v10c0 1.657-1.343 3-3 3-1.657 0-3-1.343-3-3v-10h-10c-1.657 0-3-1.343-3-3 0-1.657 1.343-3 3-3h10v-10c0-1.657 1.343-3 3-3 1.657 0 3 1.343 3 3v10h10c1.657 0 3 1.343 3 3 0 1.657-1.343 3-3 3" fill="#414042" transform="translate(32 22)"/></g></g></svg>