<svg xmlns="http://www.w3.org/2000/svg" viewBox="0 0 47.5 47.5" enable-background="new 0 0 47.5 47.5"><defs><clipPath id="0"><path d="m0 38h38v-38h-38v38"/></clipPath></defs><g transform="matrix(1.25 0 0-1.25 0 47.5)"><g clip-path="url(#0)"><path d="m0 0l9.883 9.883c1.172 1.171 1.172 3.071 0 4.242-1.172 1.171-3.071 1.172-4.242 0l-9.883-9.883-9.883 9.883c-1.171 1.172-3.071 1.172-4.243 0-1.171-1.171-1.171-3.071.001-4.243l9.883-9.882-9.907-9.907c-1.171-1.171-1.171-3.071 0-4.242.586-.586 1.354-.879 2.121-.879.768 0 1.536.293 2.122.879l9.906 9.906 9.883-9.882c.586-.585 1.353-.878 2.121-.878.767 0 1.535.293 2.121.878 1.172 1.171 1.172 3.072 0 4.243l-9.883 9.882" fill="#414042" transform="translate(23.24 18.996)"/></g></g></svg>