<svg xmlns="http://www.w3.org/2000/svg" viewBox="0 0 47.5 47.5" enable-background="new 0 0 47.5 47.5"><defs><clipPath id="0"><path d="m0 38h38v-38h-38v38"/></clipPath></defs><g transform="matrix(1.25 0 0-1.25 0 47.5)"><g clip-path="url(#0)" fill="#939598"><path d="m0 0c-1.657 0-3 1.343-3 3v4c0 1.657 1.343 3 3 3 .603.006 6 1 6 5 0 2-2 4-5 4-2.441 0-4-2-4-3 0-1.657-1.343-3-3-3-1.657 0-3 1.343-3 3 0 4.878 4.58 9 10 9 8 0 11-5.982 11-11 0-4.145-2.277-7.313-6.413-8.921-.9-.35-1.79-.587-2.587-.747v-1.332c0-1.657-1.343-3-3-3" transform="translate(18 10)"/><path d="m0 0c0-1.657-1.343-3-3-3-1.657 0-3 1.343-3 3 0 1.657 1.343 3 3 3 1.657 0 3-1.343 3-3" transform="translate(21 5)"/></g></g></svg>