<svg xmlns="http://www.w3.org/2000/svg" viewBox="0 0 47.5 47.5" enable-background="new 0 0 47.5 47.5"><defs><clipPath id="0"><path d="m0 38h38v-38h-38v38"/></clipPath></defs><g transform="matrix(1.25 0 0-1.25 0 47.5)"><g clip-path="url(#0)"><path d="m0 0c-.292-.167-.626-.271-.987-.271-1.105 0-2 .896-2 2 0 1.105.895 2 2 2 1.104 0 2-.895 2-2 0-.361-.104-.695-.271-.987l3.147-3.146-.876 7.133-9 7-5-5 7-9 7.133-.875-3.146 3.146" fill="#a7a9ac" transform="translate(32.986 4.271)"/><path d="m0 0c1.151-1.151 1.151-3.02 0-4.167l-4.167-4.167c-1.151-1.151-3.02-1.151-4.167 0l-4.167 4.167c-1.151 1.151-1.151 3.02 0 4.167l4.167 4.167c1.15 1.151 3.02 1.151 4.167 0l4.167-4.167" fill="#6d6e71" transform="translate(14.643 31.692)"/><path d="m0 0l-17.202 17.203-8.334-8.335 17.202-17.202c1.15-1.15 3.02-1.15 4.168 0l4.166 4.168c1.15 1.15 1.15 3.02 0 4.166" fill="#414042" transform="translate(27.643 18.691)"/><path d="M 0,0 -8.334,-8.334 -6.209,-10.46 2.125,-2.125 0,0 Z" fill="#808285" transform="translate(17.559 28.775)"/></g></g></svg>