<svg xmlns="http://www.w3.org/2000/svg" viewBox="0 0 47.5 47.5" enable-background="new 0 0 47.5 47.5"><defs><clipPath id="0"><path d="m0 38h38v-38h-38v38"/></clipPath></defs><g transform="matrix(1.25 0 0-1.25 0 47.5)"><g clip-path="url(#0)"><path d="m0 0c0-2.209-1.791-4-4-4h-28c-2.209 0-4 1.791-4 4v18c0 2.209 1.791 4 4 4h28c2.209 0 4-1.791 4-4v-18" fill="#ccd6dd" transform="translate(37 10)"/><g fill="#99aab5"><path d="m0 0l-11.313-11.313c-.027-.028-.037-.063-.06-.091.34-.571.814-1.043 1.384-1.384.029.023.063.033.09.059l11.314 11.315c.39.391.39 1.022 0 1.414-.392.391-1.024.391-1.415 0" transform="translate(12.95 19.364)"/><path d="m0 0c-.021.028-.033.063-.06.09l-11.312 11.314c-.392.391-1.024.391-1.415 0-.391-.391-.391-1.023 0-1.414l11.313-11.314c.027-.027.062-.037.09-.06.572.34 1.044.814 1.384 1.384" transform="translate(36.423 7.96)"/><path d="m0 0h-28c-2.209 0-4-1.791-4-4v-1.03l14.528-14.495c1.894-1.894 4.988-1.894 6.884 0l14.588 14.516v1.01c0 2.209-1.791 4-4 4" transform="translate(33 32)"/></g><path d="m0 0h-28c-1.588 0-2.949-.934-3.595-2.275l14.766-14.767c1.562-1.562 4.096-1.562 5.657 0l14.767 14.767c-.646 1.341-2.01 2.275-3.595 2.275" fill="#e1e8ed" transform="translate(33 32)"/></g></g></svg>