<svg xmlns="http://www.w3.org/2000/svg" viewBox="0 0 47.5 47.5" enable-background="new 0 0 47.5 47.5"><defs><clipPath id="0"><path d="m0 38h38v-38h-38v38"/></clipPath></defs><g transform="matrix(1.25 0 0-1.25 0 47.5)"><g clip-path="url(#0)"><path d="m0 0c-.647 2.101-1.705 6.06-2.325 7.566-.501 1.216-.969 2.438-1.544 3.01-.575.575-1.553.53-2.143-.058 0 0-2.468-1.674-3.353-2.783-1.109-.882-2.785-3.357-2.785-3.357-.59-.59-.635-1.568-.06-2.143.576-.575 1.798-1.043 3.02-1.544 1.506-.62 5.465-1.675 7.566-2.325.358-.11 1.739 1.271 1.629 1.63" fill="#d99e82" transform="translate(36.22 3.402)"/><path d="m0 0c1.151-1.151 1.151-3.02 0-4.167l-4.167-4.167c-1.151-1.151-3.02-1.151-4.167 0l-4.167 4.167c-1.151 1.151-1.151 3.02 0 4.167l4.167 4.167c1.15 1.151 3.02 1.151 4.167 0l4.167-4.167" fill="#ea596e" transform="translate(14.643 31.692)"/><path d="m0 0c0 0-1.046-1.047-4.17-4.17-3.122-3.124-4.163-4.165-4.163-4.165l-15.628 15.627 8.335 8.333 15.626-15.625" fill="#ffcc4d" transform="translate(32.353 13.982)"/><path d="m0 0c0 0 2.709-1.489 3.441-.757.733.733-.764 3.435-.764 3.435 0 0-2.568-.048-2.677-2.678" fill="#292f33" transform="translate(33.08 2.237)"/><path d="m 0,0 -8.334,-8.334 5.208,-5.209 8.335,8.334 L 0,0 Z" fill="#ccd6dd" transform="translate(11.518 34.817)"/><g fill="#99aab5"><path d="M 0,0 -8.334,-8.334 -9.376,-7.292 -1.042,1.042 0,0 Z" transform="translate(13.601 32.734)"/><path d="M 0,0 -8.334,-8.335 -9.375,-7.293 -1.042,1.042 0,0 Z" transform="translate(15.684 30.65)"/></g></g></g></svg>