<svg xmlns="http://www.w3.org/2000/svg" viewBox="0 0 47.5 47.5" enable-background="new 0 0 47.5 47.5"><defs><clipPath id="0"><path d="m0 38h38v-38h-38v38"/></clipPath></defs><g transform="matrix(1.25 0 0-1.25 0 47.5)"><g clip-path="url(#0)"><path d="m0 0l12.234 12.234c.977.976.977 2.559 0 3.536-.976.976-2.558.976-3.535 0l-12.234-12.235-12.235 12.235c-.975.976-2.559.976-3.535 0-.976-.977-.976-2.56 0-3.536l12.235-12.234-12.262-12.262c-.977-.977-.977-2.559 0-3.535.488-.489 1.128-.733 1.768-.733.639 0 1.279.244 1.767.733l12.262 12.262 12.234-12.234c.489-.488 1.128-.732 1.768-.732.639 0 1.279.244 1.767.732.977.977.977 2.559 0 3.535l-12.234 12.234" fill="#dd2e44" transform="translate(22.533 18.998)"/></g></g></svg>