<svg xmlns="http://www.w3.org/2000/svg" viewBox="0 0 47.5 47.5" enable-background="new 0 0 47.5 47.5"><defs><clipPath id="0"><path d="m0 38h38v-38h-38v38"/></clipPath></defs><g transform="matrix(1.25 0 0-1.25 0 47.5)"><g clip-path="url(#0)"><path d="m0 0c0-2.209-1.791-4-4-4h-28c-2.209 0-4 1.791-4 4v20c0 2.209 1.791 4 4 4h28c2.209 0 4-1.791 4-4v-20" fill="#55acee" transform="translate(37 9)"/><path d="m0 0c0-3.274-2.604-4.495-4.244-4.495-1.804 0-3.745 1.422-3.745 4.545 0 2.154 1.729 4.196 3.841 5.68 2.335-1.354 4.148-3.367 4.148-5.73m-13.642.05c0-3.123-1.941-4.545-3.745-4.545-1.641 0-4.244 1.221-4.244 4.495 0 2.363 1.814 4.376 4.148 5.73 2.112-1.484 3.841-3.526 3.841-5.68m19.305 9.338c-.129.07-1.335.683-3.851.683-1.626 0-3.925-.74-6.06-2.01-2.06.978-4.313 1.51-6.238 1.51h-.33-.325c-1.925 0-4.178-.532-6.238-1.51-2.137 1.27-4.435 2.01-6.06 2.01-2.516 0-3.722-.613-3.851-.683-.48-.26-.656-.853-.404-1.337.251-.484.853-.672 1.341-.429.009.004.922.449 2.914.449 1.067 0 2.54-.437 4.02-1.18-2.421-1.659-4.207-4.02-4.207-6.891 0-4.48 3.652-6.495 6.244-6.495 2.855 0 5.745 2.248 5.745 6.545 0 2.595-1.636 4.908-3.79 6.656 1.46.557 2.974.865 4.289.865h.325.33c1.316 0 2.829-.308 4.289-.865-2.155-1.748-3.79-4.061-3.79-6.656 0-4.297 2.889-6.545 5.745-6.545 2.593 0 6.244 2.01 6.244 6.495 0 2.871-1.785 5.232-4.207 6.891 1.479.743 2.952 1.18 4.02 1.18 1.992 0 2.905-.445 2.915-.449.488-.243 1.089-.055 1.34.429.252.484.077 1.077-.404 1.337" fill="#fff" transform="translate(29.818 16.429)"/></g></g></svg>