<svg xmlns="http://www.w3.org/2000/svg" viewBox="0 0 47.5 47.5" enable-background="new 0 0 47.5 47.5"><defs><clipPath id="0"><path d="m0 38h38v-38h-38v38"/></clipPath></defs><g transform="matrix(1.25 0 0-1.25 0 47.5)"><g clip-path="url(#0)"><path d="m0 0l-8.899 3.294-3.323 10.891c-.128.42-.516.708-.956.708-.439 0-.828-.288-.956-.708l-3.322-10.891-8.9-3.294c-.393-.146-.653-.52-.653-.938 0-.418.26-.793.653-.937l8.896-3.293 3.323-11.223c.126-.425.516-.716.959-.716.443 0 .833.291.959.716l3.324 11.223 8.896 3.293c.392.144.652.519.652.937 0 .418-.26.792-.653.938" fill="#aa8ed6" transform="translate(35.35 20.11)"/><path d="m0 0l-2.313.856-.9 3.3c-.119.436-.514.738-.965.738-.451 0-.846-.302-.965-.738l-.9-3.3-2.313-.856c-.393-.145-.653-.52-.653-.937 0-.418.26-.793.653-.938l2.301-.853.907-3.622c.111-.444.511-.756.97-.756.458 0 .858.312.97.756l.907 3.622 2.301.853c.393.145.653.52.653.938 0 .417-.26.792-.653.937" fill="#fcab40" transform="translate(15.347 9.106)"/><path d="m0 0l-2.365.875-.875 2.365c-.146.393-.52.653-.938.653-.419 0-.793-.26-.938-.653l-.876-2.365-2.364-.875c-.393-.146-.653-.52-.653-.938 0-.418.26-.792.653-.938l2.364-.875.876-2.365c.145-.393.519-.653.938-.653.418 0 .792.26.938.653l.875 2.365 2.365.875c.393.146.653.52.653.938 0 .418-.26.792-.653.938" fill="#5dadec" transform="translate(11.01 30.769)"/></g></g></svg>