<svg xmlns="http://www.w3.org/2000/svg" viewBox="0 0 47.5 47.5" enable-background="new 0 0 47.5 47.5"><defs><clipPath id="0"><path d="m0 38h38v-38h-38v38"/></clipPath></defs><g transform="matrix(1.25 0 0-1.25 0 47.5)"><g clip-path="url(#0)"><path d="m0 0c0 0 0 2-2 2-2 0-2-2-2-2v-9.286c-.319.147-.651.281-1 .398v12.888c0 0 0 2-2 2-2 0-2-2-2-2v-12.12c-.328.028-.661.052-1 .069v14.05c0 0 0 2-2 2-2 0-2-2-2-2v-14.05c-.342-.017-.668-.052-1-.081v13.13c0 0 0 2-2 2-2 0-2-2-2-2v-13.888-1.112-1c6 0 10-5 10-10 0-1-1-1-1-1 0 6-4 10-10 10v2.714 4.286c0 0 0 2-2 2-2 0-2-2-2-2v-11c0-6.627 5.373-12 12-12 6.627 0 12 5.373 12 12v1 15" fill="#d99e82" transform="translate(31 29)"/></g></g></svg>