<svg xmlns="http://www.w3.org/2000/svg" viewBox="0 0 47.5 47.5" enable-background="new 0 0 47.5 47.5"><defs><clipPath id="0"><path d="m0 38h38v-38h-38v38"/></clipPath></defs><g transform="matrix(1.25 0 0-1.25 0 47.5)"><g clip-path="url(#0)" fill="#d99e82"><path d="m0 0l.015.178c-.7-.689-1.658-1.115-2.716-1.115h-.248c-1.474 0-2.738.831-3.392 2.042-.678-1.212-1.958-2.042-3.446-2.042h-.076c-1.189 0-2.24.535-2.962 1.366v.013c-.186.213-.343.448-.481.696-.04.072-.069.151-.105.226-.093.195-.176.395-.236.606-.052.173-.107.344-.134.526-.141-.166-.296-.319-.46-.46-.07-.059-.148-.108-.221-.162-.116-.087-.229-.177-.355-.251-.589-.351-1.271-.561-2.01-.561h-2-1.166c2.709-1.366 4-4.204 4-8.663 0-.276-.223-.5-.5-.5-.276 0-.5.224-.5.5 0 6.05-2.336 8.63-7.811 8.63-.059 0-.113.015-.165.033h-.361c-.277 0-.5.224-.5.5 0 .277.223.501.5.501h3.5 3 2c1.657 0 3 1.343 3 2.999 0 1.657-1.343 3-3 3h-2-3-7.101c-.049 0-.095-.065-.144-.068-.111-.005-.221-.041-.33-.059-.094-.015-.186-.046-.277-.07-.097-.025-.192-.06-.285-.095-.095-.034-.186-.074-.276-.117-.087-.042-.17-.09-.252-.139-.085-.051-.167-.103-.246-.163-.079-.058-.155-.123-.229-.19-.07-.062-.137-.129-.202-.199-.069-.074-.132-.151-.194-.234-.058-.077-.112-.156-.162-.238-.052-.085-.098-.172-.142-.261-.045-.094-.085-.191-.122-.291-.017-.047-.044-.091-.059-.141l-1.659-5.472c-.157-.512-.73-2.856-.627-3.346 0-7.339 8.64-14.971 18.944-14.971 9.977 0 15.03 8.117 15.243 18.04-.019-.02-.036-.033-.055-.052" transform="translate(35.825 19.938)"/><path d="m0 0c0-1.582-1.282-2.864-2.864-2.864h-.272c-1.582 0-2.864 1.282-2.864 2.864v6.272c0 1.582 1.282 2.864 2.864 2.864h.272c1.582 0 2.864-1.282 2.864-2.864v-6.272" transform="translate(36 22.864)"/><path d="m0 0c0-1.657-1.343-3-3-3-1.657 0-3 1.343-3 3v9c0 1.657 1.343 3 3 3 1.657 0 3-1.343 3-3v-9" transform="translate(29 23)"/><path d="m0 0c1.201 0 2.267-.541 3-1.38v6.38c0 1.657-1.343 3-3 3-1.657 0-3-1.343-3-3v-5h3" transform="translate(19 29)"/><path d="m0 0v4.01c0 1.653-1.34 2.993-2.993 2.993h-.014c-1.653 0-2.993-1.34-2.993-2.993v-4.01h6" transform="translate(15 29)"/></g></g></svg>