<svg xmlns="http://www.w3.org/2000/svg" viewBox="0 0 47.5 47.5" enable-background="new 0 0 47.5 47.5"><defs><clipPath id="0"><path d="m0 38h38v-38h-38v38"/></clipPath></defs><g transform="matrix(1.25 0 0-1.25 0 47.5)"><g clip-path="url(#0)"><path d="m0 0c0-2.209-1.791-4-4-4h-28c-2.209 0-4 1.791-4 4v28c0 2.209 1.791 4 4 4h28c2.209 0 4-1.791 4-4v-28" fill="#77b255" transform="translate(37 5)"/><path d="m0 0l8.238 8.238c.977.976.977 2.559 0 3.535-.976.977-2.558.977-3.535 0l-8.238-8.238-8.238 8.238c-.976.977-2.56.977-3.536 0-.976-.976-.976-2.559 0-3.535l8.239-8.238-8.258-8.258c-.977-.977-.977-2.559 0-3.535.488-.489 1.128-.733 1.767-.733.64 0 1.28.244 1.768.733l8.258 8.258 8.238-8.238c.488-.488 1.128-.732 1.768-.732.639 0 1.279.244 1.767.732.977.977.977 2.559 0 3.535l-8.238 8.238" fill="#fff" transform="translate(22.529 18.994)"/></g></g></svg>