<svg xmlns="http://www.w3.org/2000/svg" viewBox="0 0 47.5 47.5" enable-background="new 0 0 47.5 47.5" xmlns:xlink="http://www.w3.org/1999/xlink"><defs><clipPath id="0"><path d="m0 38h38v-38h-38v38"/></clipPath></defs><g transform="matrix(1.25 0 0-1.25 0 47.5)"><g clip-path="url(#0)"><path d="m0 0c0-1.657-1.343-3-3-3h-26c-1.657 0-3 1.343-3 3 0 1.657 1.343 3 3 3h26c1.657 0 3-1.343 3-3" fill="#414042" transform="translate(35 19)"/><path d="m0 0c0 2.209 1.791 4 4 4 2.209 0 4-1.791 4-4 0-2.209-1.791-4-4-4-2.209 0-4 1.791-4 4" fill="#414042" transform="translate(15 30)" id="1"/><use transform="translate(0-22)" xlink:href="#1"/></g></g></svg>