<svg xmlns="http://www.w3.org/2000/svg" viewBox="0 0 47.5 47.5" enable-background="new 0 0 47.5 47.5"><defs><clipPath id="0"><path d="m0 38h38v-38h-38v38"/></clipPath></defs><g transform="matrix(1.25 0 0-1.25 0 47.5)"><g clip-path="url(#0)"><path d="m0 0h-11.171l7.9 7.899c.781.782.782 2.047 0 2.829-.782.781-2.047.781-2.829-.001l-7.899-7.899v11.172c0 1.104-.896 2-2 2-1.105 0-2-.896-2-2v-11.171l-7.899 7.899c-.782.781-2.048.781-2.829 0-.781-.781-.781-2.047 0-2.828l7.9-7.9h-11.172c-1.105 0-2-.896-2-2 0-1.104.895-2 1.999-2h11.174l-7.901-7.9c-.781-.781-.781-2.047 0-2.829.781-.78 2.047-.78 2.828 0l7.9 7.901v-11.172c0-1.104.895-2 2-2 1.104 0 2 .896 2 2v11.172l7.899-7.9c.782-.781 2.047-.782 2.829-.001.781.782.781 2.048 0 2.83l-7.9 7.899h11.171c1.105 0 2 .895 2 1.999 0 1.105-.896 2-2 2" fill="#aa8dd8" transform="translate(34.999 21)"/></g></g></svg>