<svg xmlns="http://www.w3.org/2000/svg" viewBox="0 0 47.5 47.5" enable-background="new 0 0 47.5 47.5"><defs><clipPath id="0"><path d="m0 38h38v-38h-38v38"/></clipPath></defs><g transform="matrix(1.25 0 0-1.25 0 47.5)"><g clip-path="url(#0)"><path d="m0 0c-.958 2.133-.252 4.527 1.575 5.347 1.826.822 4.084-.242 5.04-2.373.958-2.132.253-4.527-1.574-5.347-1.827-.821-4.085.241-5.04 2.373m11.93-2.501c-.919 2.046-2 4.066-3.03 6.26-.028.068-.05.137-.081.206-.064.142-.137.277-.209.413-.017.038-.035.073-.052.111-.001-.001-.001-.002-.002-.003-1.638 2.99-5.094 4.362-7.977 3.067-3.045-1.368-4.295-5.193-2.789-8.543 1.506-3.351 5.195-4.957 8.24-3.589.106.047.205.105.306.159 1.935-.439 1.994-1.878 1.994-1.878 0 0 4.618 1.523 3.596 3.797" fill="#dd2e44" transform="translate(5.876 28.827)"/><path d="m0 0c1.163.657 2.187 2.474 1.529 3.638l-11.753 20.671c-1.103-.496-2.937-2.313-3.544-3.912l13.768-20.397" fill="#99aab5" transform="translate(27.978 2.132)"/><path d="m0 0c-.959-2.132-3.216-3.194-5.04-2.373-1.826.82-2.531 3.215-1.572 5.347.956 2.131 3.214 3.195 5.04 2.373 1.827-.82 2.532-3.214 1.575-5.347m-.584 7.553c-2.882 1.295-6.338-.077-7.976-3.067l-.003.003c-.017-.038-.035-.074-.052-.113-.072-.135-.145-.269-.208-.411-.031-.068-.053-.137-.081-.206-1.024-2.194-2.108-4.214-3.03-6.26-1.021-2.274 3.597-3.797 3.597-3.797 0 0 .059 1.44 1.993 1.878.102-.054.2-.111.307-.159 3.045-1.368 6.733.238 8.24 3.589 1.505 3.35.255 7.175-2.79 8.543" fill="#dd2e44" transform="translate(32.12 28.827)"/><path d="m0 0c-1.163.657-2.187 2.474-1.529 3.638l11.753 20.671c1.103-.496 2.938-2.313 3.544-3.912l-13.768-20.397" fill="#ccd6dd" transform="translate(10.02 2.132)"/><path d="m0 0c0-.863-.701-1.562-1.562-1.562-.864 0-1.563.699-1.563 1.562 0 .863.699 1.562 1.563 1.562.861 0 1.562-.699 1.562-1.562" fill="#99aab5" transform="translate(20.563 19.605)"/></g></g></svg>