<svg xmlns="http://www.w3.org/2000/svg" viewBox="0 0 47.5 47.5" enable-background="new 0 0 47.5 47.5"><defs><clipPath id="0"><path d="m0 38h38v-38h-38v38"/></clipPath></defs><g transform="matrix(1.25 0 0-1.25 0 47.5)"><g clip-path="url(#0)"><path d="m0 0c1.334-.971 2.631-.43 2.882 1.201l1.088 7.07c.251 1.631.661 1.631.912 0l1.088-7.07c.251-1.631 1.548-2.172 2.882-1.201l6.148 4.471c1.334.97 1.632.673.662-.662l-4.471-6.147c-.971-1.335-.431-2.632 1.2-2.883l7.07-1.088c1.631-.251 1.631-.661 0-.912l-7.07-1.088c-1.631-.251-2.171-1.547-1.2-2.881l4.471-6.149c.97-1.334.672-1.632-.662-.661l-6.148 4.471c-1.334.97-2.631.43-2.882-1.2l-1.088-7.07c-.251-1.631-.661-1.631-.912 0l-1.088 7.07c-.251 1.63-1.548 2.17-2.882 1.2l-6.147-4.471c-1.335-.971-1.581-.713-.547.573l5.085 6.324c1.034 1.287.542 2.523-1.092 2.749l-8.06 1.112c-1.634.226-1.638.62-.008.876l7.228 1.136c1.631.256 2.17 1.557 1.2 2.892l-4.471 6.147c-.971 1.335-.673 1.632.662.662l6.147-4.471" fill="#414042" transform="translate(14.574 25.765)"/></g></g></svg>