<svg xmlns="http://www.w3.org/2000/svg" viewBox="0 0 47.5 47.5" enable-background="new 0 0 47.5 47.5"><defs><clipPath id="0"><path d="m0 38h38v-38h-38v38"/></clipPath></defs><g transform="matrix(1.25 0 0-1.25 0 47.5)"><g clip-path="url(#0)"><path d="m0 0c-.768 0-1.536.293-2.121.879l-11.5 11.5c-1.172 1.171-1.172 3.071 0 4.242 1.171 1.172 3.071 1.172 4.242 0l9.379-9.379 16.379 16.379c1.172 1.172 3.07 1.172 4.242 0 1.172-1.171 1.172-3.071 0-4.242l-18.5-18.5c-.585-.586-1.353-.879-2.121-.879" fill="#414042" transform="translate(15.5 5.5)"/></g></g></svg>