<svg xmlns="http://www.w3.org/2000/svg" viewBox="0 0 47.5 47.5" enable-background="new 0 0 47.5 47.5"><defs><clipPath id="0"><path d="m0 38h38v-38h-38v38"/></clipPath></defs><g transform="matrix(1.25 0 0-1.25 0 47.5)"><g clip-path="url(#0)"><path d="m0 0c0-2.209-1.791-4-4-4h-28c-2.209 0-4 1.791-4 4v28c0 2.209 1.791 4 4 4h28c2.209 0 4-1.791 4-4v-28" fill="#3b88c3" transform="translate(37 5)"/><path d="m0 0l6 7.2h-3.589v7.612c0 5.522-4.682 10-10.205 10-1.414 0-2.861-.298-4.081-.828l2.699-3.299c.395.082.987.127 1.407.127 3.315 0 6.18-2.687 6.18-6v-7.612h-4.411l6-7.2" fill="#fff" transform="translate(21.589 6.8)"/></g></g></svg>