<svg xmlns="http://www.w3.org/2000/svg" viewBox="0 0 47.5 47.5" enable-background="new 0 0 47.5 47.5"><defs><clipPath id="0"><path d="m0 38h38v-38h-38v38"/></clipPath></defs><g transform="matrix(1.25 0 0-1.25 0 47.5)"><g clip-path="url(#0)"><path d="m0 0c-6.627 0-12 5.373-12 12 0 6.628 5.373 12 12 12 6.627 0 12-5.372 12-12 0-6.627-5.373-12-12-12m0 30c-9.941 0-18-8.06-18-18 0-9.941 8.06-18 18-18 9.941 0 18 8.06 18 18 0 9.941-8.06 18-18 18" fill="#dd2e44" transform="translate(19 7)"/></g></g></svg>