<svg xmlns="http://www.w3.org/2000/svg" viewBox="0 0 47.5 47.5" enable-background="new 0 0 47.5 47.5"><defs><clipPath id="0"><path d="m0 38h38v-38h-38v38"/></clipPath></defs><g transform="matrix(1.25 0 0-1.25 0 47.5)"><g clip-path="url(#0)"><path d="m0 0c-8.584 24.679-11.811 24.679-13.361 24.679-3.125 0-4.538-3.18-5.785-5.985-.1-.225-.217-.485-.339-.754-.487-.939-1.266-.939-1.752 0-.123.269-.24.529-.34.754-1.247 2.805-2.66 5.985-5.784 5.985-2.304 0-5.467-2.084-7.452-12.01-.27-1.354.607-2.67 1.96-2.941 1.352-.273 2.671.607 2.943 1.96.547 1.835 1.748 5.663 1.748 5.663.429 1 1.177 1.03 1.672.077.124-.273.243-.537.344-.764.183-.412.371-.831.566-1.248.001-.002.002-.005.003-.007.195-.416.399-.828.615-1.226.001-.001.002-.003.003-.004 1.043-1.917 2.394-3.5 4.598-3.5 2.66 0 4.08 2.306 5.212 4.723.003.008.007.016.011.025.194.413.379.828.561 1.237.091.205.197.44.307.685.447.88 1.188.803 1.655-.182 0 0 3.902-8.748 5.594-12.52.8-2.094 1.583-4.231 2.298-6.29.36-1.032 1.327-1.679 2.362-1.679.272 0 .549.045.821.139 1.304.454 1.993 1.879 1.54 3.183" fill="#ffcc4d" transform="translate(36.36 7.821)"/></g></g></svg>