<svg xmlns="http://www.w3.org/2000/svg" viewBox="0 0 47.5 47.5" enable-background="new 0 0 47.5 47.5"><defs><clipPath id="0"><path d="m0 38h38v-38h-38v38"/></clipPath></defs><g transform="matrix(1.25 0 0-1.25 0 47.5)"><g clip-path="url(#0)"><path d="m0 0c-2.589 0-4 2.549-5.374 5.01-1.089 1.96-2.215 3.986-3.626 3.986-1.412 0-2.537-2.026-3.626-3.986-1.37-2.465-2.786-5.01-5.374-5.01-2.65 0-3.853 2.706-4.914 5.094-1.048 2.36-1.83 3.906-3.086 3.906-.552 0-1 .448-1 1 0 .552.448 1 1 1 2.65 0 3.853-2.706 4.914-5.094 1.048-2.359 1.83-3.906 3.086-3.906 1.412 0 2.537 2.026 3.626 3.986 1.37 2.465 2.786 5.01 5.374 5.01 2.589 0 4-2.549 5.374-5.01 1.089-1.96 2.215-3.986 3.626-3.986 1.256 0 2.037 1.547 3.086 3.906 1.061 2.388 2.265 5.094 4.914 5.094.553 0 1-.448 1-1 0-.552-.447-1-1-1-1.256 0-2.037-1.546-3.086-3.906-1.061-2.388-2.265-5.094-4.914-5.094" fill="#414042" transform="translate(28 14)"/></g></g></svg>