<svg xmlns="http://www.w3.org/2000/svg" viewBox="0 0 47.5 47.5" enable-background="new 0 0 47.5 47.5"><defs><clipPath id="0"><path d="m0 38h38v-38h-38v38"/></clipPath></defs><g transform="matrix(1.25 0 0-1.25 0 47.5)"><g clip-path="url(#0)"><path d="m0 0c0-9.94-8.06-18-18-18-9.941 0-18 8.06-18 18 0 9.941 8.06 18 18 18 9.941 0 18-8.06 18-18" fill="#dd2e44" transform="translate(37 19)"/><path d="m0 0c.378 0 .702-.216.892-.648.917-1.943 1.51-3.914 1.943-5.911.026-.136.054-.271.054-.378 0-.432-.19-.756-.675-.918-.135-.027-.27-.054-.405-.054-.405 0-.729.243-.864.81-.431 1.781-1.052 3.914-1.863 5.695-.08.135-.107.297-.107.459 0 .351.189.675.567.837.161.081.323.108.458.108m-4.453 6.64c.297-.27.485-.594.485-.917 0-.189-.053-.378-.188-.54-.217-.297-.567-.459-.918-.459-.27 0-.513.081-.701.243-1.108.917-2.944 2.105-4.401 2.807-.297.189-.486.486-.486.809 0 .163.054.352.162.514.216.35.567.512.918.512.189 0 .378-.053.567-.134 1.511-.675 3.428-1.836 4.562-2.835m-7.153-6.289c.053 0 .107 0 .189-.027.566-.081.836-.432.836-.918 0-.081 0-.162-.027-.243-.27-2.483-.864-5.102-1.7-7.07-.216-.405-.567-.621-.945-.621-.135 0-.297.028-.432.109-.378.161-.54.431-.54.755 0 .189.054.378.162.594.81 1.863 1.35 4.238 1.62 6.64.054.513.351.783.837.783m2.294 3.077c0 .486.405.783 1.026.783.566 0 .972-.297.972-.81v-9.232c2.699 3.591 4.587 8.07 5.83 13.308.108.459.405.729.918.729.081 0 .188 0 .324-.027.539-.108.863-.54.863-.972 0-.108 0-.189-.026-.27-1.782-6.559-4.482-11.85-7.909-15.71v-2.726c0-.648.189-.918.863-.999.459-.053 1.025-.081 1.863-.081.836 0 1.457.081 1.916.189.54.136.837.324.998.891.162.567.298 1.566.324 2.807.028.432.406.81.999.81h.054c.621-.027.918-.378.918-.972v-.081c-.054-1.511-.243-2.807-.566-3.697-.325-.918-.999-1.486-2.106-1.701-.702-.135-1.539-.189-2.537-.216-1.08 0-1.971.053-2.673.134-1.43.19-2.051.837-2.051 2.214v1.944c-1.323-1.215-2.807-2.349-4.373-3.293-.243-.162-.486-.243-.702-.243-.323 0-.621.162-.782.512-.136.162-.189.378-.189.568 0 .35.162.701.539.918 2.025 1.132 3.861 2.618 5.507 4.291v10.932zm-4.589-.54c.486 0 .756-.351.756-.89 0-.567-.27-.945-.756-.945h-2.456c.621-1.431 1.511-2.726 2.483-3.699.189-.188.297-.485.297-.755 0-.243-.081-.459-.216-.621-.162-.188-.378-.297-.621-.297-.243 0-.54.135-.729.378-.54.702-1.16 1.862-1.619 3.104.162-1.403.297-2.915.297-4.102v-9.61c0-.513-.351-.81-.972-.81-.594 0-.917.297-.917.81v8.907c0 1.404.215 2.943.404 4.211-.675-2.24-1.808-5.05-3.185-6.937-.216-.297-.513-.459-.837-.459-.189 0-.378.054-.54.189-.27.217-.405.486-.405.783 0 .216.082.432.244.647 1.835 2.295 3.266 5.48 3.994 8.261h-2.915c-.486 0-.756.378-.756.945 0 .539.27.89.756.89h3.24v3.509c-.837-.189-1.701-.351-2.484-.459-.054-.026-.108-.026-.189-.026-.459 0-.81.269-.891.836v.162c0 .486.297.837.729.918 2.213.297 4.643.944 6.262 1.781.217.108.432.162.648.162.351 0 .648-.188.864-.485.135-.189.189-.378.189-.567 0-.324-.189-.594-.54-.756-.755-.378-1.7-.729-2.699-1.053v-4.02h2.564" fill="#fff" transform="translate(28.902 21.957)"/></g></g></svg>