<svg xmlns="http://www.w3.org/2000/svg" viewBox="0 0 47.5 47.5" enable-background="new 0 0 47.5 47.5"><defs><clipPath id="0"><path d="m0 38h38v-38h-38v38"/></clipPath></defs><g transform="matrix(1.25 0 0-1.25 0 47.5)"><g clip-path="url(#0)"><path d="m0 0c0-9.94-8.06-18-18-18-9.941 0-18 8.06-18 18 0 9.941 8.06 18 18 18 9.941 0 18-8.06 18-18" fill="#dd2e44" transform="translate(37 19)"/><path d="m0 0c.514 0 .811.189.811.783v5.399c0 .62-.297.755-.811.755h-7.503c-.54 0-.81-.135-.81-.755v-5.399c0-.594.27-.783.81-.783h7.503m-5.236-1.862c-.108-6.29-1.971-10.177-6.316-12.606-.217-.135-.432-.216-.621-.216-.324 0-.648.162-.864.513-.135.189-.189.405-.189.621 0 .324.162.593.486.809 3.86 2.159 5.426 5.129 5.533 10.879h-.809c-1.62 0-2.322.62-2.322 2.132v6.424c0 1.539.702 2.187 2.322 2.187h8.53c1.592 0 2.321-.648 2.321-2.187v-6.424c0-1.512-.729-2.132-2.321-2.132h-1.485v-9.799c0-.621.215-.728 1.512-.728 1.133 0 1.511.188 1.7.782.162.649.27 1.917.297 2.996 0 .486.351.783.863.783h.081c.594-.027.918-.297.918-.809v-.055c-.027-1.646-.215-3.212-.647-4.211-.162-.378-.433-.675-.783-.89-.513-.297-1.377-.486-2.537-.486h-.459c-2.456.027-2.943.594-2.943 1.97v10.447h-2.267zm-11.526-5.372c0 1.242.054 2.43.162 3.59-.945-.972-1.97-1.943-3.077-2.807-.189-.135-.405-.216-.621-.216-.324 0-.648.162-.864.486-.135.189-.189.404-.189.594 0 .324.162.648.432.837 2.699 1.862 5.965 5.317 7.261 7.908.081.135.108.243.108.351 0 .189-.162.297-.486.297h-5.857c-.486 0-.756.378-.756.918 0 .54.27.944.756.944h3.104v3.833c0 .486.432.756 1.026.756.62 0 1.053-.27 1.053-.756v-3.833h1.754c1.053 0 1.727-.593 1.727-1.511 0-.351-.107-.756-.296-1.188-.675-1.323-1.728-2.861-2.808-4.183 1.296-1.323 2.484-2.241 3.428-2.862.351-.216.513-.486.513-.81 0-.215-.081-.405-.215-.62-.189-.297-.487-.433-.756-.433-.189 0-.406.055-.567.189-.972.729-1.944 1.674-2.969 2.781.107-1.35.162-2.429.162-3.725v-7.396c0-.486-.406-.756-1.026-.756-.594 0-.999.297-.999.756v6.856" fill="#fff" transform="translate(27.391 21.498)"/></g></g></svg>